<svg width="37" height="30" viewBox="0 0 37 30" fill="none" xmlns="http://www.w3.org/2000/svg">
<rect width="37" height="30" rx="7" transform="matrix(-1 0 0 1 37 0)" fill="#FACF29"/>
<path d="M19 5C13.486 5 9 9.486 9 15C9 20.514 13.486 25 19 25C24.514 25 29 20.514 29 15C29 9.486 24.514 5 19 5ZM19 23C14.589 23 11 19.411 11 15C11 10.589 14.589 7 19 7C23.411 7 27 10.589 27 15C27 19.411 23.411 23 19 23Z" fill="white"/>
<path d="M16.9991 16.587L14.7001 14.292L13.2881 15.708L17.0011 19.413L23.7071 12.707L22.2931 11.293L16.9991 16.587Z" fill="white"/>
</svg>
