<svg width="92" height="30" viewBox="0 0 92 30" fill="none" xmlns="http://www.w3.org/2000/svg">
<rect width="92" height="30" rx="7" transform="matrix(-1 0 0 1 92 0)" fill="#77B341"/>
<path d="M18.9998 6.66669C14.4048 6.66669 10.6665 10.405 10.6665 15C10.6665 19.595 14.4048 23.3334 18.9998 23.3334C23.5948 23.3334 27.3332 19.595 27.3332 15C27.3332 10.405 23.5948 6.66669 18.9998 6.66669ZM17.334 18.6775L14.2398 15.59L15.4165 14.41L17.3323 16.3225L21.744 11.9109L22.9223 13.0892L17.334 18.6775Z" fill="white"/>
<path d="M35.99 17.76H33.37L32.95 19H31.16L33.7 11.98H35.68L38.22 19H36.41L35.99 17.76ZM35.55 16.44L34.68 13.87L33.82 16.44H35.55ZM40.753 14.21C40.9197 13.95 41.1497 13.74 41.443 13.58C41.7364 13.42 42.0797 13.34 42.473 13.34C42.933 13.34 43.3497 13.4567 43.723 13.69C44.0964 13.9233 44.3897 14.2567 44.603 14.69C44.823 15.1233 44.933 15.6267 44.933 16.2C44.933 16.7733 44.823 17.28 44.603 17.72C44.3897 18.1533 44.0964 18.49 43.723 18.73C43.3497 18.9633 42.933 19.08 42.473 19.08C42.0864 19.08 41.743 19 41.443 18.84C41.1497 18.68 40.9197 18.4733 40.753 18.22V21.66H39.043V13.42H40.753V14.21ZM43.193 16.2C43.193 15.7733 43.073 15.44 42.833 15.2C42.5997 14.9533 42.3097 14.83 41.963 14.83C41.623 14.83 41.333 14.9533 41.093 15.2C40.8597 15.4467 40.743 15.7833 40.743 16.21C40.743 16.6367 40.8597 16.9733 41.093 17.22C41.333 17.4667 41.623 17.59 41.963 17.59C42.303 17.59 42.593 17.4667 42.833 17.22C43.073 16.9667 43.193 16.6267 43.193 16.2ZM47.5902 14.21C47.7568 13.95 47.9868 13.74 48.2802 13.58C48.5735 13.42 48.9168 13.34 49.3102 13.34C49.7702 13.34 50.1868 13.4567 50.5602 13.69C50.9335 13.9233 51.2268 14.2567 51.4402 14.69C51.6602 15.1233 51.7702 15.6267 51.7702 16.2C51.7702 16.7733 51.6602 17.28 51.4402 17.72C51.2268 18.1533 50.9335 18.49 50.5602 18.73C50.1868 18.9633 49.7702 19.08 49.3102 19.08C48.9235 19.08 48.5802 19 48.2802 18.84C47.9868 18.68 47.7568 18.4733 47.5902 18.22V21.66H45.8802V13.42H47.5902V14.21ZM50.0302 16.2C50.0302 15.7733 49.9102 15.44 49.6702 15.2C49.4368 14.9533 49.1468 14.83 48.8002 14.83C48.4602 14.83 48.1702 14.9533 47.9302 15.2C47.6968 15.4467 47.5802 15.7833 47.5802 16.21C47.5802 16.6367 47.6968 16.9733 47.9302 17.22C48.1702 17.4667 48.4602 17.59 48.8002 17.59C49.1402 17.59 49.4302 17.4667 49.6702 17.22C49.9102 16.9667 50.0302 16.6267 50.0302 16.2ZM54.4273 14.35C54.6273 14.0433 54.8773 13.8033 55.1773 13.63C55.4773 13.45 55.8106 13.36 56.1773 13.36V15.17H55.7073C55.2806 15.17 54.9606 15.2633 54.7473 15.45C54.5339 15.63 54.4273 15.95 54.4273 16.41V19H52.7173V13.42H54.4273V14.35ZM59.5846 19.08C59.0379 19.08 58.5446 18.9633 58.1046 18.73C57.6713 18.4967 57.3279 18.1633 57.0746 17.73C56.8279 17.2967 56.7046 16.79 56.7046 16.21C56.7046 15.6367 56.8313 15.1333 57.0846 14.7C57.3379 14.26 57.6846 13.9233 58.1246 13.69C58.5646 13.4567 59.0579 13.34 59.6046 13.34C60.1513 13.34 60.6446 13.4567 61.0846 13.69C61.5246 13.9233 61.8713 14.26 62.1246 14.7C62.3779 15.1333 62.5046 15.6367 62.5046 16.21C62.5046 16.7833 62.3746 17.29 62.1146 17.73C61.8613 18.1633 61.5113 18.4967 61.0646 18.73C60.6246 18.9633 60.1313 19.08 59.5846 19.08ZM59.5846 17.6C59.9113 17.6 60.1879 17.48 60.4146 17.24C60.6479 17 60.7646 16.6567 60.7646 16.21C60.7646 15.7633 60.6513 15.42 60.4246 15.18C60.2046 14.94 59.9313 14.82 59.6046 14.82C59.2713 14.82 58.9946 14.94 58.7746 15.18C58.5546 15.4133 58.4446 15.7567 58.4446 16.21C58.4446 16.6567 58.5513 17 58.7646 17.24C58.9846 17.48 59.2579 17.6 59.5846 17.6ZM65.9718 17.4L67.1818 13.42H69.0018L67.0218 19H64.9118L62.9318 13.42H64.7618L65.9718 17.4ZM75.0316 16.12C75.0316 16.28 75.0216 16.4467 75.0016 16.62H71.1316C71.1582 16.9667 71.2682 17.2333 71.4616 17.42C71.6616 17.6 71.9049 17.69 72.1916 17.69C72.6182 17.69 72.9149 17.51 73.0816 17.15H74.9016C74.8082 17.5167 74.6382 17.8467 74.3916 18.14C74.1516 18.4333 73.8482 18.6633 73.4816 18.83C73.1149 18.9967 72.7049 19.08 72.2516 19.08C71.7049 19.08 71.2182 18.9633 70.7916 18.73C70.3649 18.4967 70.0316 18.1633 69.7916 17.73C69.5516 17.2967 69.4316 16.79 69.4316 16.21C69.4316 15.63 69.5482 15.1233 69.7816 14.69C70.0216 14.2567 70.3549 13.9233 70.7816 13.69C71.2082 13.4567 71.6982 13.34 72.2516 13.34C72.7916 13.34 73.2716 13.4533 73.6916 13.68C74.1116 13.9067 74.4382 14.23 74.6716 14.65C74.9116 15.07 75.0316 15.56 75.0316 16.12ZM73.2816 15.67C73.2816 15.3767 73.1816 15.1433 72.9816 14.97C72.7816 14.7967 72.5316 14.71 72.2316 14.71C71.9449 14.71 71.7016 14.7933 71.5016 14.96C71.3082 15.1267 71.1882 15.3633 71.1416 15.67H73.2816ZM75.6437 16.2C75.6437 15.6267 75.7503 15.1233 75.9637 14.69C76.1837 14.2567 76.4803 13.9233 76.8537 13.69C77.227 13.4567 77.6437 13.34 78.1037 13.34C78.4703 13.34 78.8037 13.4167 79.1037 13.57C79.4103 13.7233 79.6503 13.93 79.8237 14.19V11.6H81.5337V19H79.8237V18.2C79.6637 18.4667 79.4337 18.68 79.1337 18.84C78.8403 19 78.497 19.08 78.1037 19.08C77.6437 19.08 77.227 18.9633 76.8537 18.73C76.4803 18.49 76.1837 18.1533 75.9637 17.72C75.7503 17.28 75.6437 16.7733 75.6437 16.2ZM79.8237 16.21C79.8237 15.7833 79.7037 15.4467 79.4637 15.2C79.2303 14.9533 78.9437 14.83 78.6037 14.83C78.2637 14.83 77.9737 14.9533 77.7337 15.2C77.5003 15.44 77.3837 15.7733 77.3837 16.2C77.3837 16.6267 77.5003 16.9667 77.7337 17.22C77.9737 17.4667 78.2637 17.59 78.6037 17.59C78.9437 17.59 79.2303 17.4667 79.4637 17.22C79.7037 16.9733 79.8237 16.6367 79.8237 16.21Z" fill="#E4F5FF"/>
</svg>
