<svg width="86" height="30" viewBox="0 0 86 30" fill="none" xmlns="http://www.w3.org/2000/svg">
<rect width="86" height="30" rx="7" transform="matrix(-1 0 0 1 86 0)" fill="#51218E"/>
<path d="M19 5C13.486 5 9 9.486 9 15C9 20.514 13.486 25 19 25C24.514 25 29 20.514 29 15C29 9.486 24.514 5 19 5ZM19 23C14.589 23 11 19.411 11 15C11 10.589 14.589 7 19 7C23.411 7 27 10.589 27 15C27 19.411 23.411 23 19 23Z" fill="white"/>
<path d="M16.9991 16.587L14.7001 14.292L13.2881 15.708L17.0011 19.413L23.7071 12.707L22.2931 11.293L16.9991 16.587Z" fill="white"/>
<path d="M37.99 17.76H35.37L34.95 19H33.16L35.7 11.98H37.68L40.22 19H38.41L37.99 17.76ZM37.55 16.44L36.68 13.87L35.82 16.44H37.55ZM42.753 14.21C42.9197 13.95 43.1497 13.74 43.443 13.58C43.7364 13.42 44.0797 13.34 44.473 13.34C44.933 13.34 45.3497 13.4567 45.723 13.69C46.0964 13.9233 46.3897 14.2567 46.603 14.69C46.823 15.1233 46.933 15.6267 46.933 16.2C46.933 16.7733 46.823 17.28 46.603 17.72C46.3897 18.1533 46.0964 18.49 45.723 18.73C45.3497 18.9633 44.933 19.08 44.473 19.08C44.0864 19.08 43.743 19 43.443 18.84C43.1497 18.68 42.9197 18.4733 42.753 18.22V21.66H41.043V13.42H42.753V14.21ZM45.193 16.2C45.193 15.7733 45.073 15.44 44.833 15.2C44.5997 14.9533 44.3097 14.83 43.963 14.83C43.623 14.83 43.333 14.9533 43.093 15.2C42.8597 15.4467 42.743 15.7833 42.743 16.21C42.743 16.6367 42.8597 16.9733 43.093 17.22C43.333 17.4667 43.623 17.59 43.963 17.59C44.303 17.59 44.593 17.4667 44.833 17.22C45.073 16.9667 45.193 16.6267 45.193 16.2ZM49.5902 14.21C49.7568 13.95 49.9868 13.74 50.2802 13.58C50.5735 13.42 50.9168 13.34 51.3102 13.34C51.7702 13.34 52.1868 13.4567 52.5602 13.69C52.9335 13.9233 53.2268 14.2567 53.4402 14.69C53.6602 15.1233 53.7702 15.6267 53.7702 16.2C53.7702 16.7733 53.6602 17.28 53.4402 17.72C53.2268 18.1533 52.9335 18.49 52.5602 18.73C52.1868 18.9633 51.7702 19.08 51.3102 19.08C50.9235 19.08 50.5802 19 50.2802 18.84C49.9868 18.68 49.7568 18.4733 49.5902 18.22V21.66H47.8802V13.42H49.5902V14.21ZM52.0302 16.2C52.0302 15.7733 51.9102 15.44 51.6702 15.2C51.4368 14.9533 51.1468 14.83 50.8002 14.83C50.4602 14.83 50.1702 14.9533 49.9302 15.2C49.6968 15.4467 49.5802 15.7833 49.5802 16.21C49.5802 16.6367 49.6968 16.9733 49.9302 17.22C50.1702 17.4667 50.4602 17.59 50.8002 17.59C51.1402 17.59 51.4302 17.4667 51.6702 17.22C51.9102 16.9667 52.0302 16.6267 52.0302 16.2ZM56.4273 14.35C56.6273 14.0433 56.8773 13.8033 57.1773 13.63C57.4773 13.45 57.8106 13.36 58.1773 13.36V15.17H57.7073C57.2806 15.17 56.9606 15.2633 56.7473 15.45C56.5339 15.63 56.4273 15.95 56.4273 16.41V19H54.7173V13.42H56.4273V14.35ZM61.5846 19.08C61.0379 19.08 60.5446 18.9633 60.1046 18.73C59.6713 18.4967 59.3279 18.1633 59.0746 17.73C58.8279 17.2967 58.7046 16.79 58.7046 16.21C58.7046 15.6367 58.8313 15.1333 59.0846 14.7C59.3379 14.26 59.6846 13.9233 60.1246 13.69C60.5646 13.4567 61.0579 13.34 61.6046 13.34C62.1513 13.34 62.6446 13.4567 63.0846 13.69C63.5246 13.9233 63.8713 14.26 64.1246 14.7C64.3779 15.1333 64.5046 15.6367 64.5046 16.21C64.5046 16.7833 64.3746 17.29 64.1146 17.73C63.8613 18.1633 63.5113 18.4967 63.0646 18.73C62.6246 18.9633 62.1313 19.08 61.5846 19.08ZM61.5846 17.6C61.9113 17.6 62.1879 17.48 62.4146 17.24C62.6479 17 62.7646 16.6567 62.7646 16.21C62.7646 15.7633 62.6513 15.42 62.4246 15.18C62.2046 14.94 61.9313 14.82 61.6046 14.82C61.2713 14.82 60.9946 14.94 60.7746 15.18C60.5546 15.4133 60.4446 15.7567 60.4446 16.21C60.4446 16.6567 60.5513 17 60.7646 17.24C60.9846 17.48 61.2579 17.6 61.5846 17.6ZM67.9718 17.4L69.1818 13.42H71.0018L69.0218 19H66.9118L64.9318 13.42H66.7618L67.9718 17.4ZM77.0316 16.12C77.0316 16.28 77.0216 16.4467 77.0016 16.62H73.1316C73.1582 16.9667 73.2682 17.2333 73.4616 17.42C73.6616 17.6 73.9049 17.69 74.1916 17.69C74.6182 17.69 74.9149 17.51 75.0816 17.15H76.9016C76.8082 17.5167 76.6382 17.8467 76.3916 18.14C76.1516 18.4333 75.8482 18.6633 75.4816 18.83C75.1149 18.9967 74.7049 19.08 74.2516 19.08C73.7049 19.08 73.2182 18.9633 72.7916 18.73C72.3649 18.4967 72.0316 18.1633 71.7916 17.73C71.5516 17.2967 71.4316 16.79 71.4316 16.21C71.4316 15.63 71.5482 15.1233 71.7816 14.69C72.0216 14.2567 72.3549 13.9233 72.7816 13.69C73.2082 13.4567 73.6982 13.34 74.2516 13.34C74.7916 13.34 75.2716 13.4533 75.6916 13.68C76.1116 13.9067 76.4382 14.23 76.6716 14.65C76.9116 15.07 77.0316 15.56 77.0316 16.12ZM75.2816 15.67C75.2816 15.3767 75.1816 15.1433 74.9816 14.97C74.7816 14.7967 74.5316 14.71 74.2316 14.71C73.9449 14.71 73.7016 14.7933 73.5016 14.96C73.3082 15.1267 73.1882 15.3633 73.1416 15.67H75.2816Z" fill="#E4F5FF"/>
</svg>
