<svg width="304" height="269" viewBox="0 0 304 269" fill="none" xmlns="http://www.w3.org/2000/svg">
    <title>Asatidz Asatidzah</title>
<desc>para asatidz asatidzah pondok pesantren tahfidz al ashr al madani</desc>
<path d="M119.817 141.097C155.059 141.097 183.719 112.437 183.719 77.1945C183.719 41.9524 155.059 13.2922 119.817 13.2922C84.5747 13.2922 55.9145 41.9524 55.9145 77.1945C55.9145 112.437 84.5747 141.097 119.817 141.097ZM143.78 157.072H95.8534C42.9903 157.072 0 200.063 0 252.926V268.901H239.634V252.926C239.634 200.063 196.643 157.072 143.78 157.072Z" fill="#DFA100"/>
<path d="M233.301 125.888C243.031 109.306 247.233 90.0592 245.299 70.9315C242.439 42.4311 226.528 17.2376 200.519 0L182.866 26.6153C200.743 38.4692 211.622 55.3554 213.508 74.1267C214.377 82.8509 213.291 91.6592 210.328 99.9109C207.366 108.163 202.601 115.65 196.382 121.83L177.339 140.873L203.187 148.461C270.796 168.271 271.579 236.263 271.579 236.95H303.53C303.53 208.369 288.257 152.519 233.301 125.888Z" fill="#DFA100"/>
</svg>
