<svg width="595" height="596" viewBox="0 0 595 596" fill="none" xmlns="http://www.w3.org/2000/svg">
<path d="M495.832 99.667H99.1654C86.015 99.667 73.4033 104.891 64.1047 114.19C54.806 123.488 49.582 136.1 49.582 149.25V446.75C49.582 459.901 54.806 472.512 64.1047 481.811C73.4033 491.11 86.015 496.334 99.1654 496.334H495.832C508.982 496.334 521.594 491.11 530.893 481.811C540.191 472.512 545.415 459.901 545.415 446.75V149.25C545.415 136.1 540.191 123.488 530.893 114.19C521.594 104.891 508.982 99.667 495.832 99.667ZM99.1654 446.75V149.25H495.832V446.75H99.1654Z" fill="white"/>
<path d="M148.75 198.833H198.333V397.166H148.75V198.833ZM223.125 198.833H247.917V397.166H223.125V198.833ZM421.458 198.833H446.25V397.166H421.458V198.833ZM322.292 198.833H396.667V397.166H322.292V198.833ZM272.708 198.833H297.5V397.166H272.708V198.833Z" fill="white"/>
</svg>
