<svg width="78" height="62" viewBox="0 0 78 62" fill="none" xmlns="http://www.w3.org/2000/svg">
<path d="M69.5417 0.311546H8.30834C4.08707 0.311546 0.654175 3.75523 0.654175 7.98978V54.0592C0.654175 58.2937 4.08707 61.7374 8.30834 61.7374H69.5417C73.7629 61.7374 77.1958 58.2937 77.1958 54.0592V7.98978C77.1958 3.75523 73.7629 0.311546 69.5417 0.311546ZM12.1354 17.5876C12.1354 16.528 12.9927 15.668 14.049 15.668H25.5302C26.5865 15.668 27.4438 16.528 27.4438 17.5876V25.2658C27.4438 26.3254 26.5865 27.1854 25.5302 27.1854H14.049C12.9927 27.1854 12.1354 26.3254 12.1354 25.2658V17.5876ZM35.0979 46.3809H12.1354V38.7027H35.0979V46.3809ZM65.7146 46.3809H42.7521V38.7027H65.7146V46.3809Z" fill="#F48120"/>
</svg>
