<svg width="111" height="30" viewBox="0 0 111 30" fill="none" xmlns="http://www.w3.org/2000/svg">
<rect width="111" height="30" rx="7" transform="matrix(-1 0 0 1 111 0)" fill="#77B341"/>
<path fill-rule="evenodd" clip-rule="evenodd" d="M25.403 8.633C23.708 6.936 21.454 6.001 19.053 6C14.105 6 10.077 10.027 10.075 14.977C10.075 16.559 10.488 18.103 11.273 19.465L10 24.116L14.759 22.867C16.071 23.582 17.547 23.959 19.049 23.96H19.053C24 23.96 28.028 19.933 28.03 14.983C28.03 12.585 27.098 10.33 25.403 8.633ZM19.053 22.445H19.05C17.711 22.444 16.398 22.085 15.252 21.404L14.98 21.242L12.156 21.983L12.909 19.23L12.732 18.948C11.985 17.76 11.591 16.387 11.591 14.977C11.593 10.863 14.94 7.516 19.056 7.516C21.049 7.517 22.922 8.294 24.331 9.704C25.739 11.115 26.515 12.989 26.514 14.983C26.512 19.097 23.165 22.445 19.053 22.445ZM23.146 16.856C22.921 16.743 21.819 16.201 21.613 16.126C21.408 16.051 21.259 16.014 21.109 16.238C20.959 16.462 20.529 16.967 20.398 17.117C20.267 17.267 20.136 17.285 19.912 17.173C19.688 17.061 18.965 16.824 18.108 16.06C17.441 15.465 16.991 14.731 16.86 14.506C16.729 14.281 16.846 14.16 16.959 14.048C17.06 13.948 17.183 13.786 17.295 13.655C17.407 13.524 17.444 13.431 17.519 13.281C17.594 13.131 17.557 13 17.5 12.888C17.444 12.775 16.995 11.671 16.808 11.222C16.627 10.787 16.442 10.845 16.304 10.839C16.174 10.833 16.024 10.831 15.875 10.831C15.725 10.831 15.482 10.887 15.276 11.111C15.07 11.336 14.491 11.878 14.491 12.982C14.491 14.086 15.295 15.153 15.407 15.303C15.519 15.453 16.989 17.718 19.239 18.69C19.775 18.921 20.193 19.059 20.518 19.163C21.055 19.334 21.544 19.309 21.931 19.252C22.362 19.188 23.258 18.71 23.445 18.186C23.632 17.662 23.632 17.213 23.576 17.119C23.52 17.025 23.369 16.968 23.146 16.856Z" fill="#F0F2F9"/>
<path d="M36.9059 15.6342C37.3991 15.7393 37.7953 15.9859 38.0944 16.374C38.3935 16.754 38.5431 17.1905 38.5431 17.6837C38.5431 18.3952 38.2925 18.9611 37.7912 19.3815C37.298 19.7938 36.6068 20 35.7175 20H31.7519V11.4867H35.5841C36.4491 11.4867 37.1242 11.6848 37.6093 12.081C38.1025 12.4771 38.3491 13.0148 38.3491 13.6939C38.3491 14.1951 38.2157 14.6115 37.9489 14.943C37.6901 15.2745 37.3425 15.5049 36.9059 15.6342ZM33.8256 14.9308H35.1839C35.5234 14.9308 35.7821 14.8581 35.96 14.7126C36.146 14.5589 36.2389 14.3366 36.2389 14.0456C36.2389 13.7545 36.146 13.5322 35.96 13.3786C35.7821 13.225 35.5234 13.1482 35.1839 13.1482H33.8256V14.9308ZM35.3537 18.3265C35.7013 18.3265 35.9681 18.2496 36.154 18.096C36.3481 17.9343 36.4451 17.7039 36.4451 17.4048C36.4451 17.1057 36.344 16.8712 36.1419 16.7014C35.9479 16.5316 35.677 16.4467 35.3294 16.4467H33.8256V18.3265H35.3537ZM41.8802 14.3609C42.1228 13.989 42.426 13.6979 42.7898 13.4877C43.1536 13.2694 43.5578 13.1603 44.0025 13.1603V15.3553H43.4325C42.9151 15.3553 42.527 15.4685 42.2683 15.6949C42.0096 15.9131 41.8802 16.3012 41.8802 16.8591V20H39.8065V13.233H41.8802V14.3609ZM48.1346 20.097C47.4717 20.097 46.8734 19.9555 46.3398 19.6726C45.8143 19.3896 45.3979 18.9854 45.0907 18.4599C44.7916 17.9343 44.642 17.3199 44.642 16.6165C44.642 15.9212 44.7956 15.3108 45.1028 14.7853C45.4101 14.2517 45.8305 13.8434 46.3641 13.5605C46.8977 13.2775 47.4959 13.136 48.1589 13.136C48.8218 13.136 49.4201 13.2775 49.9537 13.5605C50.4873 13.8434 50.9077 14.2517 51.2149 14.7853C51.5222 15.3108 51.6758 15.9212 51.6758 16.6165C51.6758 17.3118 51.5181 17.9263 51.2028 18.4599C50.8956 18.9854 50.4711 19.3896 49.9295 19.6726C49.3959 19.9555 48.7976 20.097 48.1346 20.097ZM48.1346 18.3022C48.5308 18.3022 48.8663 18.1567 49.1412 17.8656C49.4242 17.5746 49.5656 17.1582 49.5656 16.6165C49.5656 16.0748 49.4282 15.6585 49.1533 15.3674C48.8865 15.0764 48.555 14.9308 48.1589 14.9308C47.7546 14.9308 47.4191 15.0764 47.1523 15.3674C46.8855 15.6504 46.7521 16.0668 46.7521 16.6165C46.7521 17.1582 46.8815 17.5746 47.1402 17.8656C47.407 18.1567 47.7385 18.3022 48.1346 18.3022ZM52.4242 16.6044C52.4242 15.9091 52.5536 15.2987 52.8123 14.7732C53.0791 14.2477 53.4389 13.8434 53.8916 13.5605C54.3444 13.2775 54.8497 13.136 55.4075 13.136C55.8845 13.136 56.3009 13.233 56.6566 13.4271C57.0204 13.6211 57.2994 13.8758 57.4934 14.1911V13.233H59.5671V20H57.4934V19.042C57.2913 19.3573 57.0083 19.6119 56.6445 19.806C56.2888 20 55.8724 20.097 55.3954 20.097C54.8456 20.097 54.3444 19.9555 53.8916 19.6726C53.4389 19.3815 53.0791 18.9732 52.8123 18.4477C52.5536 17.9141 52.4242 17.2997 52.4242 16.6044ZM57.4934 16.6165C57.4934 16.0991 57.3479 15.6908 57.0568 15.3917C56.7738 15.0925 56.4262 14.943 56.0139 14.943C55.6016 14.943 55.2499 15.0925 54.9588 15.3917C54.6758 15.6827 54.5344 16.087 54.5344 16.6044C54.5344 17.1218 54.6758 17.5341 54.9588 17.8414C55.2499 18.1405 55.6016 18.2901 56.0139 18.2901C56.4262 18.2901 56.7738 18.1405 57.0568 17.8414C57.3479 17.5422 57.4934 17.1339 57.4934 16.6165ZM60.7157 16.6044C60.7157 15.9091 60.8451 15.2987 61.1038 14.7732C61.3706 14.2477 61.7303 13.8434 62.1831 13.5605C62.6358 13.2775 63.1411 13.136 63.699 13.136C64.1437 13.136 64.5479 13.229 64.9117 13.415C65.2836 13.6009 65.5747 13.8515 65.7849 14.1668V11.0259H67.8586V20H65.7849V19.0298C65.5908 19.3532 65.3119 19.6119 64.9481 19.806C64.5924 20 64.176 20.097 63.699 20.097C63.1411 20.097 62.6358 19.9555 62.1831 19.6726C61.7303 19.3815 61.3706 18.9732 61.1038 18.4477C60.8451 17.9141 60.7157 17.2997 60.7157 16.6044ZM65.7849 16.6165C65.7849 16.0991 65.6393 15.6908 65.3483 15.3917C65.0653 15.0925 64.7177 14.943 64.3053 14.943C63.893 14.943 63.5413 15.0925 63.2503 15.3917C62.9673 15.6827 62.8258 16.087 62.8258 16.6044C62.8258 17.1218 62.9673 17.5341 63.2503 17.8414C63.5413 18.1405 63.893 18.2901 64.3053 18.2901C64.7177 18.2901 65.0653 18.1405 65.3483 17.8414C65.6393 17.5422 65.7849 17.1339 65.7849 16.6165ZM69.0072 16.6165C69.0072 15.9131 69.1487 15.2987 69.4316 14.7732C69.7227 14.2477 70.1229 13.8434 70.6322 13.5605C71.1496 13.2775 71.7398 13.136 72.4028 13.136C73.2517 13.136 73.9591 13.3584 74.525 13.803C75.0991 14.2477 75.475 14.8743 75.6529 15.6827H73.4457C73.2598 15.1653 72.9 14.9066 72.3664 14.9066C71.9864 14.9066 71.6832 15.0562 71.4569 15.3553C71.2305 15.6464 71.1173 16.0668 71.1173 16.6165C71.1173 17.1663 71.2305 17.5907 71.4569 17.8899C71.6832 18.1809 71.9864 18.3265 72.3664 18.3265C72.9 18.3265 73.2598 18.0677 73.4457 17.5503H75.6529C75.475 18.3426 75.0991 18.9651 74.525 19.4179C73.951 19.8706 73.2436 20.097 72.4028 20.097C71.7398 20.097 71.1496 19.9555 70.6322 19.6726C70.1229 19.3896 69.7227 18.9854 69.4316 18.4599C69.1487 17.9343 69.0072 17.3199 69.0072 16.6165ZM76.4104 16.6044C76.4104 15.9091 76.5398 15.2987 76.7985 14.7732C77.0653 14.2477 77.4251 13.8434 77.8778 13.5605C78.3306 13.2775 78.8359 13.136 79.3937 13.136C79.8707 13.136 80.2871 13.233 80.6428 13.4271C81.0066 13.6211 81.2855 13.8758 81.4796 14.1911V13.233H83.5533V20H81.4796V19.042C81.2775 19.3573 80.9945 19.6119 80.6307 19.806C80.2749 20 79.8586 20.097 79.3816 20.097C78.8318 20.097 78.3306 19.9555 77.8778 19.6726C77.4251 19.3815 77.0653 18.9732 76.7985 18.4477C76.5398 17.9141 76.4104 17.2997 76.4104 16.6044ZM81.4796 16.6165C81.4796 16.0991 81.3341 15.6908 81.043 15.3917C80.76 15.0925 80.4124 14.943 80.0001 14.943C79.5877 14.943 79.2361 15.0925 78.945 15.3917C78.662 15.6827 78.5206 16.087 78.5206 16.6044C78.5206 17.1218 78.662 17.5341 78.945 17.8414C79.2361 18.1405 79.5877 18.2901 80.0001 18.2901C80.4124 18.2901 80.76 18.1405 81.043 17.8414C81.3341 17.5422 81.4796 17.1339 81.4796 16.6165ZM87.8671 20.097C87.2769 20.097 86.7514 19.996 86.2906 19.7938C85.8297 19.5917 85.4659 19.3168 85.1991 18.9692C84.9323 18.6135 84.7827 18.2173 84.7504 17.7807H86.7999C86.8242 18.0152 86.9333 18.2052 87.1273 18.3507C87.3214 18.4962 87.5599 18.569 87.8428 18.569C88.1015 18.569 88.2996 18.5205 88.4371 18.4235C88.5826 18.3184 88.6554 18.185 88.6554 18.0233C88.6554 17.8292 88.5543 17.6878 88.3522 17.5988C88.1501 17.5018 87.8226 17.3967 87.3699 17.2835C86.8848 17.1703 86.4805 17.0531 86.1572 16.9318C85.8338 16.8025 85.5548 16.6044 85.3204 16.3376C85.0859 16.0627 84.9687 15.6949 84.9687 15.234C84.9687 14.846 85.0738 14.4943 85.284 14.179C85.5023 13.8556 85.8176 13.6009 86.2299 13.415C86.6503 13.229 87.1475 13.136 87.7216 13.136C88.5705 13.136 89.2375 13.3462 89.7225 13.7666C90.2157 14.187 90.4987 14.7449 90.5714 15.4402H88.6554C88.623 15.2057 88.5179 15.0198 88.34 14.8823C88.1703 14.7449 87.9439 14.6762 87.6609 14.6762C87.4184 14.6762 87.2324 14.7247 87.1031 14.8217C86.9737 14.9106 86.909 15.0359 86.909 15.1976C86.909 15.3917 87.0101 15.5372 87.2122 15.6342C87.4224 15.7312 87.7458 15.8283 88.1824 15.9253C88.6836 16.0546 89.0919 16.184 89.4072 16.3133C89.7225 16.4346 89.9974 16.6367 90.2319 16.9197C90.4744 17.1946 90.5997 17.5665 90.6078 18.0354C90.6078 18.4316 90.4946 18.7873 90.2683 19.1026C90.05 19.4098 89.7306 19.6524 89.3102 19.8302C88.8979 20.0081 88.4169 20.097 87.8671 20.097ZM95.7087 18.2416V20H94.6537C93.9018 20 93.3156 19.8181 92.8952 19.4543C92.4748 19.0824 92.2646 18.4801 92.2646 17.6473V14.9551H91.44V13.233H92.2646V11.5838H94.3383V13.233H95.6966V14.9551H94.3383V17.6716C94.3383 17.8737 94.3869 18.0192 94.4839 18.1082C94.5809 18.1971 94.7426 18.2416 94.969 18.2416H95.7087Z" fill="#E4F5FF"/>
</svg>
