<svg width="87" height="30" viewBox="0 0 87 30" fill="none" xmlns="http://www.w3.org/2000/svg">
<rect width="87" height="30" rx="7" transform="matrix(-1 0 0 1 87 0)" fill="#000000"/>
<path d="M22 18C20.16 18 20 17.14 20 17H18C18 17.92 18.66 19.55 21 19.92V21H23V19.92C25 19.58 26 18.29 26 17C26 15.88 25.48 14 22 14C20 14 20 13.37 20 13C20 12.63 20.7 12 22 12C23.3 12 23.39 12.64 23.4 13H25.4C25.3865 12.3188 25.1415 11.6624 24.7053 11.139C24.269 10.6155 23.6676 10.2561 23 10.12V9H21V10.09C19 10.42 18 11.71 18 13C18 14.12 18.52 16 22 16C24 16 24 16.68 24 17C24 17.32 23.38 18 22 18Z" fill="white"/>
<path d="M15 5H12V7H14V24C14 24.2652 14.1054 24.5196 14.2929 24.7071C14.4804 24.8946 14.7348 25 15 25H29C29.2652 25 29.5196 24.8946 29.7071 24.7071C29.8946 24.5196 30 24.2652 30 24V7H32V5H15ZM28 23H16V7H28V23Z" fill="white"/>
<path d="M40.87 15.4C41.2767 15.4867 41.6033 15.69 41.85 16.01C42.0967 16.3233 42.22 16.6833 42.22 17.09C42.22 17.6767 42.0133 18.1433 41.6 18.49C41.1933 18.83 40.6233 19 39.89 19H36.62V11.98H39.78C40.4933 11.98 41.05 12.1433 41.45 12.47C41.8567 12.7967 42.06 13.24 42.06 13.8C42.06 14.2133 41.95 14.5567 41.73 14.83C41.5167 15.1033 41.23 15.2933 40.87 15.4ZM38.33 14.82H39.45C39.73 14.82 39.9433 14.76 40.09 14.64C40.2433 14.5133 40.32 14.33 40.32 14.09C40.32 13.85 40.2433 13.6667 40.09 13.54C39.9433 13.4133 39.73 13.35 39.45 13.35H38.33V14.82ZM39.59 17.62C39.8767 17.62 40.0967 17.5567 40.25 17.43C40.41 17.2967 40.49 17.1067 40.49 16.86C40.49 16.6133 40.4067 16.42 40.24 16.28C40.08 16.14 39.8567 16.07 39.57 16.07H38.33V17.62H39.59ZM48.7718 13.42V19H47.0618V18.24C46.8885 18.4867 46.6518 18.6867 46.3518 18.84C46.0585 18.9867 45.7318 19.06 45.3718 19.06C44.9451 19.06 44.5685 18.9667 44.2418 18.78C43.9151 18.5867 43.6618 18.31 43.4818 17.95C43.3018 17.59 43.2118 17.1667 43.2118 16.68V13.42H44.9118V16.45C44.9118 16.8233 45.0085 17.1133 45.2018 17.32C45.3951 17.5267 45.6551 17.63 45.9818 17.63C46.3151 17.63 46.5785 17.5267 46.7718 17.32C46.9651 17.1133 47.0618 16.8233 47.0618 16.45V13.42H48.7718ZM53.4601 19L51.7601 16.66V19H50.0501V11.6H51.7601V15.69L53.4501 13.42H55.5601L53.2401 16.22L55.5801 19H53.4601ZM59.3917 17.55V19H58.5217C57.9017 19 57.4184 18.85 57.0717 18.55C56.7251 18.2433 56.5517 17.7467 56.5517 17.06V14.84H55.8717V13.42H56.5517V12.06H58.2617V13.42H59.3817V14.84H58.2617V17.08C58.2617 17.2467 58.3017 17.3667 58.3817 17.44C58.4617 17.5133 58.5951 17.55 58.7817 17.55H59.3917ZM61.2542 12.84C60.9542 12.84 60.7076 12.7533 60.5142 12.58C60.3276 12.4 60.2342 12.18 60.2342 11.92C60.2342 11.6533 60.3276 11.4333 60.5142 11.26C60.7076 11.08 60.9542 10.99 61.2542 10.99C61.5476 10.99 61.7876 11.08 61.9742 11.26C62.1676 11.4333 62.2642 11.6533 62.2642 11.92C62.2642 12.18 62.1676 12.4 61.9742 12.58C61.7876 12.7533 61.5476 12.84 61.2542 12.84ZM62.1042 13.42V19H60.3942V13.42H62.1042ZM70.6126 11.98V13.35H68.7526V19H67.0426V13.35H65.1826V11.98H70.6126ZM76.0908 11.98V13.35H73.2308V14.83H75.3708V16.16H73.2308V19H71.5208V11.98H76.0908Z" fill="#E4F5FF"/>
</svg>
