<svg width="34" height="34" viewBox="0 0 34 34" fill="none" xmlns="http://www.w3.org/2000/svg">
<path d="M26.9167 19.2468V14.1666C26.9167 9.60923 23.8212 5.77006 19.6279 4.61548C19.2128 3.56998 18.1985 2.83331 17 2.83331C15.8015 2.83331 14.7872 3.56998 14.3721 4.61548C10.1788 5.77148 7.08333 9.60923 7.08333 14.1666V19.2468L4.66508 21.6651C4.39875 21.93 4.25 22.2898 4.25 22.6666V25.5C4.25 26.2834 4.88325 26.9166 5.66667 26.9166H28.3333C29.1167 26.9166 29.75 26.2834 29.75 25.5V22.6666C29.75 22.2898 29.6012 21.93 29.3349 21.6651L26.9167 19.2468ZM26.9167 24.0833H7.08333V23.2531L9.50158 20.8349C9.76792 20.57 9.91667 20.2101 9.91667 19.8333V14.1666C9.91667 10.2609 13.0942 7.08331 17 7.08331C20.9058 7.08331 24.0833 10.2609 24.0833 14.1666V19.8333C24.0833 20.2101 24.2321 20.57 24.4984 20.8349L26.9167 23.2531V24.0833ZM17 31.1666C18.8572 31.1666 20.4099 29.9851 20.9922 28.3333H13.0078C13.5901 29.9851 15.1427 31.1666 17 31.1666Z" fill="currentColor"/>
</svg>
