<svg width="532" height="532" viewBox="0 0 532 532" fill="none" xmlns="http://www.w3.org/2000/svg">
<path d="M421.167 155.167H399V44.3335H133V155.167H110.833C74.1698 155.167 44.3335 185.003 44.3335 221.667V376.834C44.3335 401.283 64.217 421.167 88.6668 421.167H133V487.667H399V421.167H443.334C467.783 421.167 487.667 401.283 487.667 376.834V221.667C487.667 185.003 457.831 155.167 421.167 155.167ZM177.334 88.6668H354.667V155.167H177.334V88.6668ZM354.667 443.334H177.334V354.667H354.667V443.334ZM443.334 376.834H399V310.334H133V376.834H88.6668V221.667C88.6668 209.453 98.6197 199.5 110.833 199.5H421.167C433.403 199.5 443.334 209.453 443.334 221.667V376.834Z" fill="#707070"/>
<path d="M310.333 221.667H399V266H310.333V221.667Z" fill="#707070"/>
</svg>
