<svg width="69" height="30" viewBox="0 0 69 30" fill="none" xmlns="http://www.w3.org/2000/svg">
<rect width="69" height="30" rx="7" transform="matrix(-1 0 0 1 69 0)" fill="#F48120"/>
<path d="M32.33 15.48C32.33 14.7867 32.48 14.17 32.78 13.63C33.08 13.0833 33.4967 12.66 34.03 12.36C34.57 12.0533 35.18 11.9 35.86 11.9C36.6933 11.9 37.4067 12.12 38 12.56C38.5933 13 38.99 13.6 39.19 14.36H37.31C37.17 14.0667 36.97 13.8433 36.71 13.69C36.4567 13.5367 36.1667 13.46 35.84 13.46C35.3133 13.46 34.8867 13.6433 34.56 14.01C34.2333 14.3767 34.07 14.8667 34.07 15.48C34.07 16.0933 34.2333 16.5833 34.56 16.95C34.8867 17.3167 35.3133 17.5 35.84 17.5C36.1667 17.5 36.4567 17.4233 36.71 17.27C36.97 17.1167 37.17 16.8933 37.31 16.6H39.19C38.99 17.36 38.5933 17.96 38 18.4C37.4067 18.8333 36.6933 19.05 35.86 19.05C35.18 19.05 34.57 18.9 34.03 18.6C33.4967 18.2933 33.08 17.87 32.78 17.33C32.48 16.79 32.33 16.1733 32.33 15.48ZM45.5472 16.12C45.5472 16.28 45.5372 16.4467 45.5172 16.62H41.6472C41.6739 16.9667 41.7839 17.2333 41.9772 17.42C42.1772 17.6 42.4205 17.69 42.7072 17.69C43.1339 17.69 43.4305 17.51 43.5972 17.15H45.4172C45.3239 17.5167 45.1539 17.8467 44.9072 18.14C44.6672 18.4333 44.3639 18.6633 43.9972 18.83C43.6305 18.9967 43.2205 19.08 42.7672 19.08C42.2205 19.08 41.7339 18.9633 41.3072 18.73C40.8805 18.4967 40.5472 18.1633 40.3072 17.73C40.0672 17.2967 39.9472 16.79 39.9472 16.21C39.9472 15.63 40.0639 15.1233 40.2972 14.69C40.5372 14.2567 40.8705 13.9233 41.2972 13.69C41.7239 13.4567 42.2139 13.34 42.7672 13.34C43.3072 13.34 43.7872 13.4533 44.2072 13.68C44.6272 13.9067 44.9539 14.23 45.1872 14.65C45.4272 15.07 45.5472 15.56 45.5472 16.12ZM43.7972 15.67C43.7972 15.3767 43.6972 15.1433 43.4972 14.97C43.2972 14.7967 43.0472 14.71 42.7472 14.71C42.4605 14.71 42.2172 14.7933 42.0172 14.96C41.8239 15.1267 41.7039 15.3633 41.6572 15.67H43.7972ZM49.6093 17.55V19H48.7393C48.1193 19 47.636 18.85 47.2893 18.55C46.9426 18.2433 46.7693 17.7467 46.7693 17.06V14.84H46.0893V13.42H46.7693V12.06H48.4793V13.42H49.5993V14.84H48.4793V17.08C48.4793 17.2467 48.5193 17.3667 48.5993 17.44C48.6793 17.5133 48.8126 17.55 48.9993 17.55H49.6093ZM50.2718 16.2C50.2718 15.6267 50.3785 15.1233 50.5918 14.69C50.8118 14.2567 51.1085 13.9233 51.4818 13.69C51.8551 13.4567 52.2718 13.34 52.7318 13.34C53.1251 13.34 53.4685 13.42 53.7618 13.58C54.0618 13.74 54.2918 13.95 54.4518 14.21V13.42H56.1618V19H54.4518V18.21C54.2851 18.47 54.0518 18.68 53.7518 18.84C53.4585 19 53.1151 19.08 52.7218 19.08C52.2685 19.08 51.8551 18.9633 51.4818 18.73C51.1085 18.49 50.8118 18.1533 50.5918 17.72C50.3785 17.28 50.2718 16.7733 50.2718 16.2ZM54.4518 16.21C54.4518 15.7833 54.3318 15.4467 54.0918 15.2C53.8585 14.9533 53.5718 14.83 53.2318 14.83C52.8918 14.83 52.6018 14.9533 52.3618 15.2C52.1285 15.44 52.0118 15.7733 52.0118 16.2C52.0118 16.6267 52.1285 16.9667 52.3618 17.22C52.6018 17.4667 52.8918 17.59 53.2318 17.59C53.5718 17.59 53.8585 17.4667 54.0918 17.22C54.3318 16.9733 54.4518 16.6367 54.4518 16.21ZM60.8589 19L59.1589 16.66V19H57.4489V11.6H59.1589V15.69L60.8489 13.42H62.9589L60.6389 16.22L62.9789 19H60.8589Z" fill="#E4F5FF"/>
<path d="M24 10H23V5H11V10H10C8.346 10 7 11.346 7 13V20C7 21.103 7.897 22 9 22H11V25H23V22H25C26.103 22 27 21.103 27 20V13C27 11.346 25.654 10 24 10ZM13 7H21V10H13V7ZM21 23H13V19H21V23ZM25 20H23V19V17H11V19V20H9V13C9 12.449 9.449 12 10 12H24C24.552 12 25 12.449 25 13V20Z" fill="#F0F2F9"/>
<path d="M19 13H23V15H19V13Z" fill="#F0F2F9"/>
</svg>
