<svg width="69" height="30" viewBox="0 0 69 30" fill="none" xmlns="http://www.w3.org/2000/svg">
<rect width="69" height="30" rx="7" transform="matrix(-1 0 0 1 69 0)" fill="#FF3912"/>
<path d="M29.25 11.98C29.99 11.98 30.6367 12.1267 31.19 12.42C31.7433 12.7133 32.17 13.1267 32.47 13.66C32.7767 14.1867 32.93 14.7967 32.93 15.49C32.93 16.1767 32.7767 16.7867 32.47 17.32C32.17 17.8533 31.74 18.2667 31.18 18.56C30.6267 18.8533 29.9833 19 29.25 19H26.62V11.98H29.25ZM29.14 17.52C29.7867 17.52 30.29 17.3433 30.65 16.99C31.01 16.6367 31.19 16.1367 31.19 15.49C31.19 14.8433 31.01 14.34 30.65 13.98C30.29 13.62 29.7867 13.44 29.14 13.44H28.33V17.52H29.14ZM35.6456 13.35V14.77H37.9356V16.09H35.6456V17.63H38.2356V19H33.9356V11.98H38.2356V13.35H35.6456ZM41.1058 17.68H43.3458V19H39.3958V11.98H41.1058V17.68ZM45.9214 13.35V14.77H48.2114V16.09H45.9214V17.63H48.5114V19H44.2114V11.98H48.5114V13.35H45.9214ZM54.7216 11.98V13.35H52.8616V19H51.1516V13.35H49.2916V11.98H54.7216ZM57.3398 13.35V14.77H59.6298V16.09H57.3398V17.63H59.9298V19H55.6298V11.98H59.9298V13.35H57.3398Z" fill="#E4F5FF"/>
<path d="M13.8625 11.1042H13.2417V19.175C13.2417 19.5043 13.3725 19.8202 13.6053 20.053C13.8382 20.2859 14.154 20.4167 14.4833 20.4167H20.6917C21.021 20.4167 21.3368 20.2859 21.5697 20.053C21.8025 19.8202 21.9333 19.5043 21.9333 19.175V11.1042H13.8625ZM16.3458 18.5542H15.1042V12.9667H16.3458V18.5542ZM20.0708 18.5542H18.8292V12.9667H20.0708V18.5542ZM20.4545 9.24167L19.45 8H15.725L14.7205 9.24167H12V10.4833H23.175V9.24167H20.4545Z" fill="#F0F2F9"/>
</svg>
