<svg width="34" height="34" viewBox="0 0 34 34" fill="none" xmlns="http://www.w3.org/2000/svg">
<path d="M19.8335 4.25V9.91667C19.8335 10.2924 19.9828 10.6527 20.2484 10.9184C20.5141 11.1841 20.8744 11.3333 21.2502 11.3333H26.9168" stroke="#707070" stroke-width="2" stroke-linecap="round" stroke-linejoin="round"/>
<path d="M24.0835 29.75H9.91683C9.16538 29.75 8.44471 29.4515 7.91336 28.9201C7.38201 28.3888 7.0835 27.6681 7.0835 26.9167V7.08333C7.0835 6.33189 7.38201 5.61122 7.91336 5.07986C8.44471 4.54851 9.16538 4.25 9.91683 4.25H19.8335L26.9168 11.3333V26.9167C26.9168 27.6681 26.6183 28.3888 26.087 28.9201C25.5556 29.4515 24.8349 29.75 24.0835 29.75Z" stroke="#707070" stroke-width="2" stroke-linecap="round" stroke-linejoin="round"/>
<path d="M12.75 21.25L15.5833 24.0833L21.25 18.4167" stroke="#707070" stroke-width="2" stroke-linecap="round" stroke-linejoin="round"/>
</svg>
