<svg width="67" height="30" viewBox="0 0 67 30" fill="none" xmlns="http://www.w3.org/2000/svg">
<rect width="67" height="30" rx="7" fill="#109BE9"/>
<path d="M40 20.013L44.413 19.998L54.045 10.458C54.423 10.08 54.631 9.57802 54.631 9.04402C54.631 8.51002 54.423 8.00802 54.045 7.63002L52.459 6.04402C51.703 5.28802 50.384 5.29202 49.634 6.04102L40 15.583V20.013ZM51.045 7.45802L52.634 9.04102L51.037 10.623L49.451 9.03802L51.045 7.45802ZM42 16.417L48.03 10.444L49.616 12.03L43.587 18.001L42 18.006V16.417Z" fill="#E4F5FF"/>
<path d="M38 24H52C53.103 24 54 23.103 54 22V13.332L52 15.332V22H41.158C41.132 22 41.105 22.01 41.079 22.01C41.046 22.01 41.013 22.001 40.979 22H38V8H44.847L46.847 6H38C36.897 6 36 6.897 36 8V22C36 23.103 36.897 24 38 24Z" fill="#E4F5FF"/>
<path d="M13.33 13.35V14.77H15.62V16.09H13.33V17.63H15.92V19H11.62V11.98H15.92V13.35H13.33ZM16.7402 16.2C16.7402 15.6267 16.8468 15.1233 17.0602 14.69C17.2802 14.2567 17.5768 13.9233 17.9502 13.69C18.3235 13.4567 18.7402 13.34 19.2002 13.34C19.5668 13.34 19.9002 13.4167 20.2002 13.57C20.5068 13.7233 20.7468 13.93 20.9202 14.19V11.6H22.6302V19H20.9202V18.2C20.7602 18.4667 20.5302 18.68 20.2302 18.84C19.9368 19 19.5935 19.08 19.2002 19.08C18.7402 19.08 18.3235 18.9633 17.9502 18.73C17.5768 18.49 17.2802 18.1533 17.0602 17.72C16.8468 17.28 16.7402 16.7733 16.7402 16.2ZM20.9202 16.21C20.9202 15.7833 20.8002 15.4467 20.5602 15.2C20.3268 14.9533 20.0402 14.83 19.7002 14.83C19.3602 14.83 19.0702 14.9533 18.8302 15.2C18.5968 15.44 18.4802 15.7733 18.4802 16.2C18.4802 16.6267 18.5968 16.9667 18.8302 17.22C19.0702 17.4667 19.3602 17.59 19.7002 17.59C20.0402 17.59 20.3268 17.4667 20.5602 17.22C20.8002 16.9733 20.9202 16.6367 20.9202 16.21ZM24.7773 12.84C24.4773 12.84 24.2306 12.7533 24.0373 12.58C23.8506 12.4 23.7573 12.18 23.7573 11.92C23.7573 11.6533 23.8506 11.4333 24.0373 11.26C24.2306 11.08 24.4773 10.99 24.7773 10.99C25.0706 10.99 25.3106 11.08 25.4973 11.26C25.6906 11.4333 25.7873 11.6533 25.7873 11.92C25.7873 12.18 25.6906 12.4 25.4973 12.58C25.3106 12.7533 25.0706 12.84 24.7773 12.84ZM25.6273 13.42V19H23.9173V13.42H25.6273ZM30.0265 17.55V19H29.1565C28.5365 19 28.0532 18.85 27.7065 18.55C27.3598 18.2433 27.1865 17.7467 27.1865 17.06V14.84H26.5065V13.42H27.1865V12.06H28.8965V13.42H30.0165V14.84H28.8965V17.08C28.8965 17.2467 28.9365 17.3667 29.0165 17.44C29.0965 17.5133 29.2298 17.55 29.4165 17.55H30.0265Z" fill="#E4F5FF"/>
<path d="M40 20.013L44.413 19.998L54.045 10.458C54.423 10.08 54.631 9.57802 54.631 9.04402C54.631 8.51002 54.423 8.00802 54.045 7.63002L52.459 6.04402C51.703 5.28802 50.384 5.29202 49.634 6.04102L40 15.583V20.013ZM51.045 7.45802L52.634 9.04102L51.037 10.623L49.451 9.03802L51.045 7.45802ZM42 16.417L48.03 10.444L49.616 12.03L43.587 18.001L42 18.006V16.417Z" fill="#E4F5FF"/>
<path d="M38 24H52C53.103 24 54 23.103 54 22V13.332L52 15.332V22H41.158C41.132 22 41.105 22.01 41.079 22.01C41.046 22.01 41.013 22.001 40.979 22H38V8H44.847L46.847 6H38C36.897 6 36 6.897 36 8V22C36 23.103 36.897 24 38 24Z" fill="#E4F5FF"/>
<path d="M13.33 13.35V14.77H15.62V16.09H13.33V17.63H15.92V19H11.62V11.98H15.92V13.35H13.33ZM16.7402 16.2C16.7402 15.6267 16.8468 15.1233 17.0602 14.69C17.2802 14.2567 17.5768 13.9233 17.9502 13.69C18.3235 13.4567 18.7402 13.34 19.2002 13.34C19.5668 13.34 19.9002 13.4167 20.2002 13.57C20.5068 13.7233 20.7468 13.93 20.9202 14.19V11.6H22.6302V19H20.9202V18.2C20.7602 18.4667 20.5302 18.68 20.2302 18.84C19.9368 19 19.5935 19.08 19.2002 19.08C18.7402 19.08 18.3235 18.9633 17.9502 18.73C17.5768 18.49 17.2802 18.1533 17.0602 17.72C16.8468 17.28 16.7402 16.7733 16.7402 16.2ZM20.9202 16.21C20.9202 15.7833 20.8002 15.4467 20.5602 15.2C20.3268 14.9533 20.0402 14.83 19.7002 14.83C19.3602 14.83 19.0702 14.9533 18.8302 15.2C18.5968 15.44 18.4802 15.7733 18.4802 16.2C18.4802 16.6267 18.5968 16.9667 18.8302 17.22C19.0702 17.4667 19.3602 17.59 19.7002 17.59C20.0402 17.59 20.3268 17.4667 20.5602 17.22C20.8002 16.9733 20.9202 16.6367 20.9202 16.21ZM24.7773 12.84C24.4773 12.84 24.2306 12.7533 24.0373 12.58C23.8506 12.4 23.7573 12.18 23.7573 11.92C23.7573 11.6533 23.8506 11.4333 24.0373 11.26C24.2306 11.08 24.4773 10.99 24.7773 10.99C25.0706 10.99 25.3106 11.08 25.4973 11.26C25.6906 11.4333 25.7873 11.6533 25.7873 11.92C25.7873 12.18 25.6906 12.4 25.4973 12.58C25.3106 12.7533 25.0706 12.84 24.7773 12.84ZM25.6273 13.42V19H23.9173V13.42H25.6273ZM30.0265 17.55V19H29.1565C28.5365 19 28.0532 18.85 27.7065 18.55C27.3598 18.2433 27.1865 17.7467 27.1865 17.06V14.84H26.5065V13.42H27.1865V12.06H28.8965V13.42H30.0165V14.84H28.8965V17.08C28.8965 17.2467 28.9365 17.3667 29.0165 17.44C29.0965 17.5133 29.2298 17.55 29.4165 17.55H30.0265Z" fill="#E4F5FF"/>
</svg>
