<svg width="37" height="30" viewBox="0 0 37 30" fill="none" xmlns="http://www.w3.org/2000/svg">
<rect width="37" height="30" rx="7" transform="matrix(-1 0 0 1 37 0)" fill="#51218E"/>
<g clip-path="url(#clip0_1029_404)">
<path d="M22.4375 15C22.4375 15.9117 22.0753 16.786 21.4307 17.4307C20.786 18.0753 19.9117 18.4375 19 18.4375C18.0883 18.4375 17.214 18.0753 16.5693 17.4307C15.9247 16.786 15.5625 15.9117 15.5625 15C15.5625 14.0883 15.9247 13.214 16.5693 12.5693C17.214 11.9247 18.0883 11.5625 19 11.5625C19.9117 11.5625 20.786 11.9247 21.4307 12.5693C22.0753 13.214 22.4375 14.0883 22.4375 15Z" fill="white"/>
<path d="M8 15C8 15 12.125 7.4375 19 7.4375C25.875 7.4375 30 15 30 15C30 15 25.875 22.5625 19 22.5625C12.125 22.5625 8 15 8 15ZM19 19.8125C20.2764 19.8125 21.5004 19.3055 22.403 18.403C23.3055 17.5004 23.8125 16.2764 23.8125 15C23.8125 13.7236 23.3055 12.4996 22.403 11.597C21.5004 10.6945 20.2764 10.1875 19 10.1875C17.7236 10.1875 16.4996 10.6945 15.597 11.597C14.6945 12.4996 14.1875 13.7236 14.1875 15C14.1875 16.2764 14.6945 17.5004 15.597 18.403C16.4996 19.3055 17.7236 19.8125 19 19.8125Z" fill="white"/>
</g>
<defs>
<clipPath id="clip0_1029_404">
<rect width="22" height="22" fill="white" transform="translate(8 4)"/>
</clipPath>
</defs>
</svg>
