<svg width="37" height="30" viewBox="0 0 37 30" fill="none" xmlns="http://www.w3.org/2000/svg">
<rect width="37" height="30" rx="7" transform="matrix(-1 0 0 1 37 0)" fill="#51218E"/>
<path d="M22.5106 21.561L20.1905 19.2394C19.2933 19.5602 18.3234 19.6196 17.3937 19.4107C16.4641 19.2019 15.6128 18.7333 14.9391 18.0595C14.2653 17.3857 13.7967 16.5345 13.5878 15.6048C13.3789 14.6752 13.4383 13.7053 13.7591 12.8081L10.7979 9.84681C8.34837 12.0246 7 14.5 7 14.5C7 14.5 11.3125 22.4062 18.5 22.4062C19.8806 22.4015 21.2455 22.1138 22.5106 21.561ZM14.4894 7.439C15.7545 6.88617 17.1194 6.5985 18.5 6.59375C25.6875 6.59375 30 14.5 30 14.5C30 14.5 28.6502 16.9739 26.2036 19.1546L23.2394 16.1905C23.5602 15.2933 23.6196 14.3234 23.4107 13.3937C23.2019 12.4641 22.7333 11.6128 22.0595 10.9391C21.3857 10.2653 20.5345 9.7967 19.6048 9.58782C18.6752 9.37893 17.7053 9.43834 16.8081 9.75913L14.4894 7.439Z" fill="white"/>
<path d="M14.9423 13.9911C14.8632 14.5435 14.9139 15.1068 15.0903 15.6363C15.2667 16.1657 15.564 16.6468 15.9586 17.0414C16.3532 17.4361 16.8343 17.7334 17.3638 17.9098C17.8932 18.0862 18.4565 18.1369 19.009 18.0578L14.9423 13.9911ZM22.0579 15.0088L17.9912 10.9407C18.5437 10.8616 19.1069 10.9123 19.6364 11.0887C20.1658 11.2651 20.647 11.5624 21.0416 11.957C21.4362 12.3517 21.7335 12.8328 21.9099 13.3622C22.0863 13.8917 22.137 14.455 22.0579 15.0074V15.0088ZM26.6162 23.6338L9.36621 6.38384L10.384 5.36609L27.634 22.6161L26.6162 23.6338Z" fill="white"/>
</svg>
