<svg width="460" height="397" viewBox="0 0 460 397" fill="none" xmlns="http://www.w3.org/2000/svg">
<title>Fasilitas</title>
<desc>Fasilitas Al Ashr Al Madani</desc>
<rect width="460" height="396.454" rx="80.9859" fill="#F0F2F9"/>
<path d="M365 183H335V93H350V63H110V93H125V183H95C91.0218 183 87.2064 184.58 84.3934 187.393C81.5804 190.206 80 194.022 80 198V333H380V198C380 194.022 378.42 190.206 375.607 187.393C372.794 184.58 368.978 183 365 183ZM260 303V243H200V303H155V93H305V303H260Z" fill="#0CA49D"/>
<path d="M185 123H215V153H185V123ZM245 123H275V153H245V123ZM185 183H215V213H185V183ZM245 183H275V213H245V183Z" fill="#0CA49D"/>
</svg>
