<svg width="145" height="30" viewBox="0 0 145 30" fill="none" xmlns="http://www.w3.org/2000/svg">
<rect width="145" height="30" rx="7" transform="matrix(-1 0 0 1 145 0)" fill="#77B341"/>
<path fill-rule="evenodd" clip-rule="evenodd" d="M25.403 8.633C23.708 6.936 21.454 6.001 19.053 6C14.105 6 10.077 10.027 10.075 14.977C10.075 16.559 10.488 18.103 11.273 19.465L10 24.116L14.759 22.867C16.071 23.582 17.547 23.959 19.049 23.96H19.053C24 23.96 28.028 19.933 28.03 14.983C28.03 12.585 27.098 10.33 25.403 8.633ZM19.053 22.445H19.05C17.711 22.444 16.398 22.085 15.252 21.404L14.98 21.242L12.156 21.983L12.909 19.23L12.732 18.948C11.985 17.76 11.591 16.387 11.591 14.977C11.593 10.863 14.94 7.516 19.056 7.516C21.049 7.517 22.922 8.294 24.331 9.704C25.739 11.115 26.515 12.989 26.514 14.983C26.512 19.097 23.165 22.445 19.053 22.445ZM23.146 16.856C22.921 16.743 21.819 16.201 21.613 16.126C21.408 16.051 21.259 16.014 21.109 16.238C20.959 16.462 20.529 16.967 20.398 17.117C20.267 17.267 20.136 17.285 19.912 17.173C19.688 17.061 18.965 16.824 18.108 16.06C17.441 15.465 16.991 14.731 16.86 14.506C16.729 14.281 16.846 14.16 16.959 14.048C17.06 13.948 17.183 13.786 17.295 13.655C17.407 13.524 17.444 13.431 17.519 13.281C17.594 13.131 17.557 13 17.5 12.888C17.444 12.775 16.995 11.671 16.808 11.222C16.627 10.787 16.442 10.845 16.304 10.839C16.174 10.833 16.024 10.831 15.875 10.831C15.725 10.831 15.482 10.887 15.276 11.111C15.07 11.336 14.491 11.878 14.491 12.982C14.491 14.086 15.295 15.153 15.407 15.303C15.519 15.453 16.989 17.718 19.239 18.69C19.775 18.921 20.193 19.059 20.518 19.163C21.055 19.334 21.544 19.309 21.931 19.252C22.362 19.188 23.258 18.71 23.445 18.186C23.632 17.662 23.632 17.213 23.576 17.119C23.52 17.025 23.369 16.968 23.146 16.856Z" fill="#F0F2F9"/>
<path d="M36.5494 13.9551C36.4163 13.7099 36.2236 13.5242 35.9713 13.3981C35.7261 13.2649 35.4353 13.1984 35.099 13.1984C34.5174 13.1984 34.0515 13.3911 33.7011 13.7764C33.3508 14.1548 33.1756 14.6628 33.1756 15.3004C33.1756 15.9801 33.3578 16.5126 33.7221 16.898C34.0935 17.2763 34.6015 17.4655 35.2461 17.4655C35.6876 17.4655 36.0589 17.3534 36.3602 17.1292C36.6685 16.905 36.8927 16.5827 37.0329 16.1622H34.7521V14.838H38.6619V16.5091C38.5288 16.9575 38.3011 17.3744 37.9788 17.7598C37.6635 18.1452 37.2606 18.457 36.7701 18.6952C36.2796 18.9334 35.7261 19.0526 35.1095 19.0526C34.3808 19.0526 33.7291 18.8949 33.1546 18.5796C32.587 18.2573 32.1421 17.8123 31.8198 17.2448C31.5045 16.6772 31.3468 16.0291 31.3468 15.3004C31.3468 14.5717 31.5045 13.9236 31.8198 13.356C32.1421 12.7815 32.587 12.3365 33.1546 12.0212C33.7221 11.6989 34.3703 11.5378 35.099 11.5378C35.9818 11.5378 36.7246 11.7515 37.3271 12.1789C37.9367 12.6063 38.3396 13.1984 38.5358 13.9551H36.5494ZM39.3527 16.0571C39.3527 15.4546 39.4648 14.9255 39.689 14.4701C39.9202 14.0147 40.232 13.6643 40.6244 13.4191C41.0168 13.1738 41.4547 13.0512 41.9382 13.0512C42.3516 13.0512 42.7124 13.1353 43.0207 13.3035C43.336 13.4716 43.5778 13.6923 43.7459 13.9656V13.1353H45.5432V19H43.7459V18.1697C43.5708 18.443 43.3255 18.6637 43.0102 18.8318C42.7019 19 42.3411 19.0841 41.9277 19.0841C41.4512 19.0841 41.0168 18.9615 40.6244 18.7162C40.232 18.464 39.9202 18.1101 39.689 17.6547C39.4648 17.1922 39.3527 16.6597 39.3527 16.0571ZM43.7459 16.0677C43.7459 15.6192 43.6198 15.2654 43.3676 15.0061C43.1223 14.7469 42.821 14.6172 42.4637 14.6172C42.1063 14.6172 41.8015 14.7469 41.5493 15.0061C41.3041 15.2584 41.1814 15.6087 41.1814 16.0571C41.1814 16.5056 41.3041 16.8629 41.5493 17.1292C41.8015 17.3884 42.1063 17.5181 42.4637 17.5181C42.821 17.5181 43.1223 17.3884 43.3676 17.1292C43.6198 16.8699 43.7459 16.5161 43.7459 16.0677ZM48.6932 13.9656C48.8614 13.6923 49.1031 13.4716 49.4184 13.3035C49.7337 13.1353 50.0945 13.0512 50.5009 13.0512C50.9844 13.0512 51.4223 13.1738 51.8147 13.4191C52.2071 13.6643 52.5154 14.0147 52.7396 14.4701C52.9708 14.9255 53.0865 15.4546 53.0865 16.0571C53.0865 16.6597 52.9708 17.1922 52.7396 17.6547C52.5154 18.1101 52.2071 18.464 51.8147 18.7162C51.4223 18.9615 50.9844 19.0841 50.5009 19.0841C50.0875 19.0841 49.7267 19.0035 49.4184 18.8423C49.1101 18.6742 48.8684 18.4535 48.6932 18.1802V19H46.8959V11.2224H48.6932V13.9656ZM51.2577 16.0571C51.2577 15.6087 51.1316 15.2584 50.8793 15.0061C50.6341 14.7469 50.3293 14.6172 49.9649 14.6172C49.6076 14.6172 49.3028 14.7469 49.0505 15.0061C48.8053 15.2654 48.6827 15.6192 48.6827 16.0677C48.6827 16.5161 48.8053 16.8699 49.0505 17.1292C49.3028 17.3884 49.6076 17.5181 49.9649 17.5181C50.3223 17.5181 50.6271 17.3884 50.8793 17.1292C51.1316 16.8629 51.2577 16.5056 51.2577 16.0571ZM59.873 13.1353V19H58.0758V18.2012C57.8936 18.4605 57.6448 18.6707 57.3295 18.8318C57.0212 18.986 56.6779 19.0631 56.2995 19.0631C55.8511 19.0631 55.4552 18.965 55.1119 18.7688C54.7686 18.5656 54.5023 18.2748 54.3131 17.8964C54.1239 17.5181 54.0293 17.0731 54.0293 16.5616V13.1353H55.8161V16.3199C55.8161 16.7123 55.9177 17.0171 56.1209 17.2343C56.3241 17.4515 56.5973 17.5601 56.9407 17.5601C57.291 17.5601 57.5678 17.4515 57.771 17.2343C57.9742 17.0171 58.0758 16.7123 58.0758 16.3199V13.1353H59.873ZM64.79 13.0722C65.4766 13.0722 66.0232 13.2965 66.4296 13.7449C66.843 14.1863 67.0497 14.7959 67.0497 15.5737V19H65.2629V15.8154C65.2629 15.423 65.1613 15.1182 64.9581 14.901C64.7549 14.6838 64.4817 14.5752 64.1383 14.5752C63.795 14.5752 63.5217 14.6838 63.3185 14.901C63.1154 15.1182 63.0138 15.423 63.0138 15.8154V19H61.2165V13.1353H63.0138V13.9131C63.1959 13.6538 63.4412 13.4506 63.7495 13.3035C64.0578 13.1493 64.4046 13.0722 64.79 13.0722ZM70.5793 13.0512C70.9927 13.0512 71.3535 13.1353 71.6618 13.3035C71.9772 13.4716 72.2189 13.6923 72.387 13.9656V13.1353H74.1843V18.9895C74.1843 19.529 74.0757 20.016 73.8585 20.4504C73.6483 20.8918 73.3225 21.2422 72.881 21.5014C72.4466 21.7607 71.9036 21.8903 71.2519 21.8903C70.3831 21.8903 69.6789 21.6836 69.1394 21.2702C68.5999 20.8638 68.2916 20.3103 68.2145 19.6096H69.9907C70.0468 19.8338 70.1799 20.009 70.3901 20.1351C70.6003 20.2682 70.8596 20.3348 71.1679 20.3348C71.5392 20.3348 71.8335 20.2262 72.0507 20.009C72.2749 19.7988 72.387 19.4589 72.387 18.9895V18.1592C72.2119 18.4324 71.9701 18.6567 71.6618 18.8318C71.3535 19 70.9927 19.0841 70.5793 19.0841C70.0958 19.0841 69.6579 18.9615 69.2655 18.7162C68.8731 18.464 68.5613 18.1101 68.3301 17.6547C68.1059 17.1922 67.9938 16.6597 67.9938 16.0571C67.9938 15.4546 68.1059 14.9255 68.3301 14.4701C68.5613 14.0147 68.8731 13.6643 69.2655 13.4191C69.6579 13.1738 70.0958 13.0512 70.5793 13.0512ZM72.387 16.0677C72.387 15.6192 72.2609 15.2654 72.0087 15.0061C71.7634 14.7469 71.4622 14.6172 71.1048 14.6172C70.7475 14.6172 70.4427 14.7469 70.1904 15.0061C69.9452 15.2584 69.8226 15.6087 69.8226 16.0571C69.8226 16.5056 69.9452 16.8629 70.1904 17.1292C70.4427 17.3884 70.7475 17.5181 71.1048 17.5181C71.4622 17.5181 71.7634 17.3884 72.0087 17.1292C72.2609 16.8699 72.387 16.5161 72.387 16.0677ZM82.7146 13.9551C82.5815 13.7099 82.3888 13.5242 82.1366 13.3981C81.8913 13.2649 81.6006 13.1984 81.2642 13.1984C80.6827 13.1984 80.2167 13.3911 79.8664 13.7764C79.516 14.1548 79.3409 14.6628 79.3409 15.3004C79.3409 15.9801 79.523 16.5126 79.8874 16.898C80.2588 17.2763 80.7667 17.4655 81.4114 17.4655C81.8528 17.4655 82.2242 17.3534 82.5255 17.1292C82.8338 16.905 83.058 16.5827 83.1981 16.1622H80.9174V14.838H84.8272V16.5091C84.6941 16.9575 84.4663 17.3744 84.144 17.7598C83.8287 18.1452 83.4258 18.457 82.9354 18.6952C82.4449 18.9334 81.8913 19.0526 81.2747 19.0526C80.546 19.0526 79.8944 18.8949 79.3198 18.5796C78.7523 18.2573 78.3074 17.8123 77.985 17.2448C77.6697 16.6772 77.5121 16.0291 77.5121 15.3004C77.5121 14.5717 77.6697 13.9236 77.985 13.356C78.3074 12.7815 78.7523 12.3365 79.3198 12.0212C79.8874 11.6989 80.5355 11.5378 81.2642 11.5378C82.1471 11.5378 82.8898 11.7515 83.4924 12.1789C84.102 12.6063 84.5049 13.1984 84.7011 13.9551H82.7146ZM87.6725 14.1128C87.8827 13.7904 88.1455 13.5382 88.4608 13.356C88.7761 13.1668 89.1264 13.0722 89.5118 13.0722V14.9746H89.0178C88.5694 14.9746 88.233 15.0727 88.0088 15.2689C87.7846 15.4581 87.6725 15.7944 87.6725 16.2779V19H85.8753V13.1353H87.6725V14.1128ZM93.093 19.0841C92.5184 19.0841 91.9999 18.9615 91.5375 18.7162C91.082 18.471 90.7212 18.1206 90.4549 17.6652C90.1957 17.2098 90.066 16.6772 90.066 16.0677C90.066 15.4651 90.1992 14.9361 90.4654 14.4806C90.7317 14.0182 91.096 13.6643 91.5585 13.4191C92.0209 13.1738 92.5394 13.0512 93.114 13.0512C93.6886 13.0512 94.2071 13.1738 94.6695 13.4191C95.132 13.6643 95.4963 14.0182 95.7626 14.4806C96.0288 14.9361 96.162 15.4651 96.162 16.0677C96.162 16.6702 96.0253 17.2028 95.7521 17.6652C95.4858 18.1206 95.1179 18.471 94.6485 18.7162C94.186 18.9615 93.6675 19.0841 93.093 19.0841ZM93.093 17.5286C93.4363 17.5286 93.7271 17.4024 93.9653 17.1502C94.2106 16.898 94.3332 16.5371 94.3332 16.0677C94.3332 15.5982 94.2141 15.2373 93.9758 14.9851C93.7446 14.7329 93.4573 14.6067 93.114 14.6067C92.7637 14.6067 92.4729 14.7329 92.2416 14.9851C92.0104 15.2303 91.8948 15.5912 91.8948 16.0677C91.8948 16.5371 92.0069 16.898 92.2311 17.1502C92.4624 17.4024 92.7496 17.5286 93.093 17.5286ZM102.959 13.1353V19H101.162V18.2012C100.98 18.4605 100.731 18.6707 100.416 18.8318C100.107 18.986 99.764 19.0631 99.3856 19.0631C98.9372 19.0631 98.5413 18.965 98.198 18.7688C97.8546 18.5656 97.5884 18.2748 97.3992 17.8964C97.21 17.5181 97.1154 17.0731 97.1154 16.5616V13.1353H98.9022V16.3199C98.9022 16.7123 99.0038 17.0171 99.207 17.2343C99.4102 17.4515 99.6834 17.5601 100.027 17.5601C100.377 17.5601 100.654 17.4515 100.857 17.2343C101.06 17.0171 101.162 16.7123 101.162 16.3199V13.1353H102.959ZM106.1 13.9656C106.275 13.6923 106.517 13.4716 106.825 13.3035C107.133 13.1353 107.494 13.0512 107.908 13.0512C108.391 13.0512 108.829 13.1738 109.221 13.4191C109.614 13.6643 109.922 14.0147 110.146 14.4701C110.377 14.9255 110.493 15.4546 110.493 16.0571C110.493 16.6597 110.377 17.1922 110.146 17.6547C109.922 18.1101 109.614 18.464 109.221 18.7162C108.829 18.9615 108.391 19.0841 107.908 19.0841C107.501 19.0841 107.14 19 106.825 18.8318C106.517 18.6637 106.275 18.4465 106.1 18.1802V21.7957H104.303V13.1353H106.1V13.9656ZM108.664 16.0571C108.664 15.6087 108.538 15.2584 108.286 15.0061C108.041 14.7469 107.736 14.6172 107.372 14.6172C107.014 14.6172 106.709 14.7469 106.457 15.0061C106.212 15.2654 106.089 15.6192 106.089 16.0677C106.089 16.5161 106.212 16.8699 106.457 17.1292C106.709 17.3884 107.014 17.5181 107.372 17.5181C107.729 17.5181 108.034 17.3884 108.286 17.1292C108.538 16.8629 108.664 16.5056 108.664 16.0571ZM123.921 11.6218L121.998 19H119.822L118.645 14.1443L117.426 19H115.25L113.379 11.6218H115.303L116.364 16.9926L117.678 11.6218H119.654L120.915 16.9926L121.987 11.6218H123.921ZM124.518 16.0571C124.518 15.4546 124.63 14.9255 124.854 14.4701C125.085 14.0147 125.397 13.6643 125.789 13.4191C126.182 13.1738 126.62 13.0512 127.103 13.0512C127.517 13.0512 127.878 13.1353 128.186 13.3035C128.501 13.4716 128.743 13.6923 128.911 13.9656V13.1353H130.708V19H128.911V18.1697C128.736 18.443 128.491 18.6637 128.175 18.8318C127.867 19 127.506 19.0841 127.093 19.0841C126.616 19.0841 126.182 18.9615 125.789 18.7162C125.397 18.464 125.085 18.1101 124.854 17.6547C124.63 17.1922 124.518 16.6597 124.518 16.0571ZM128.911 16.0677C128.911 15.6192 128.785 15.2654 128.533 15.0061C128.287 14.7469 127.986 14.6172 127.629 14.6172C127.271 14.6172 126.967 14.7469 126.714 15.0061C126.469 15.2584 126.347 15.6087 126.347 16.0571C126.347 16.5056 126.469 16.8629 126.714 17.1292C126.967 17.3884 127.271 17.5181 127.629 17.5181C127.986 17.5181 128.287 17.3884 128.533 17.1292C128.785 16.8699 128.911 16.5161 128.911 16.0677Z" fill="#E4F5FF"/>
</svg>
