<svg width="304" height="304" viewBox="0 0 304 304" fill="none" xmlns="http://www.w3.org/2000/svg">
    <title>Guru Guru</title>
<desc>para guru guru pondok pesantren tahfidz al ashr al madani</desc>
<path d="M273.177 0H91.0591C83.009 0 75.2885 3.1979 69.5962 8.89019C63.904 14.5825 60.7061 22.3029 60.7061 30.353V212.471C60.7061 220.521 63.904 228.242 69.5962 233.934C75.2885 239.626 83.009 242.824 91.0591 242.824H273.177C281.227 242.824 288.948 239.626 294.64 233.934C300.332 228.242 303.53 220.521 303.53 212.471V30.353C303.53 22.3029 300.332 14.5825 294.64 8.89019C288.948 3.1979 281.227 0 273.177 0ZM182.118 37.9413C192.181 37.9413 201.831 41.9387 208.947 49.054C216.062 56.1694 220.059 65.8199 220.059 75.8826C220.059 85.9452 216.062 95.5957 208.947 102.711C201.831 109.826 192.181 113.824 182.118 113.824C172.056 113.824 162.405 109.826 155.29 102.711C148.174 95.5957 144.177 85.9452 144.177 75.8826C144.177 65.8199 148.174 56.1694 155.29 49.054C162.405 41.9387 172.056 37.9413 182.118 37.9413ZM258.001 197.295H106.236V193.501C106.236 165.439 140.443 136.589 182.118 136.589C223.793 136.589 258.001 165.439 258.001 193.501V197.295Z" fill="#1F2D3D"/>
<path d="M30.353 91.0591H0V273.177C0 289.917 13.6133 303.53 30.353 303.53H212.471V273.177H30.353V91.0591Z" fill="#1F2D3D"/>
</svg>
