<svg  viewBox="0 0 34 34" fill="none" xmlns="http://www.w3.org/2000/svg">
<path d="M9.9165 17H14.1665V22.6667H9.9165V17Z" stroke="#707070" stroke-width="2.125" stroke-linecap="round" stroke-linejoin="round"/>
<path d="M14.1667 8.5H5.66667C5.29094 8.5 4.93061 8.64926 4.66493 8.91493C4.39926 9.18061 4.25 9.54094 4.25 9.91667V26.9167C4.25 27.2924 4.39926 27.6527 4.66493 27.9184C4.93061 28.1841 5.29094 28.3333 5.66667 28.3333H28.3333C28.7091 28.3333 29.0694 28.1841 29.3351 27.9184C29.6007 27.6527 29.75 27.2924 29.75 26.9167V9.91667C29.75 9.54094 29.6007 9.18061 29.3351 8.91493C29.0694 8.64926 28.7091 8.5 28.3333 8.5H19.8333" stroke="#707070" stroke-width="2.125" stroke-linecap="round" stroke-linejoin="round"/>
<path d="M18.4165 4.25H15.5832C14.8008 4.25 14.1665 4.88426 14.1665 5.66667V9.91667C14.1665 10.6991 14.8008 11.3333 15.5832 11.3333H18.4165C19.1989 11.3333 19.8332 10.6991 19.8332 9.91667V5.66667C19.8332 4.88426 19.1989 4.25 18.4165 4.25Z" stroke="#707070" stroke-width="2.125" stroke-linecap="round" stroke-linejoin="round"/>
<path d="M19.8335 22.6667H22.6668M19.8335 17H25.5002" stroke="#707070" stroke-width="2.125" stroke-linecap="round" stroke-linejoin="round"/>
</svg>
