<svg width="78" height="63" viewBox="0 0 78 63" fill="none" xmlns="http://www.w3.org/2000/svg">
    <title>Gallery Pesantren</title>
<desc>photo kegiatan santri dan bangunan santri al ashr al madani</desc>   
    <path
        d="M69.5337 0.86673H8.30366C4.08261 0.86673 0.649902 4.31023 0.649902 8.54455V54.6115C0.649902 58.8458 4.08261 62.2893 8.30366 62.2893H69.5337C73.7548 62.2893 77.1875 58.8458 77.1875 54.6115V8.54455C77.1875 4.31023 73.7548 0.86673 69.5337 0.86673ZM17.8709 12.3835C21.0433 12.3835 23.6112 14.9632 23.6112 18.1418C23.6112 21.3205 21.0433 23.9002 17.8709 23.9002C14.6984 23.9002 12.1305 21.3205 12.1305 18.1418C12.1305 14.9632 14.6984 12.3835 17.8709 12.3835ZM38.9187 50.7726H27.4381H12.1305L27.4381 31.578L33.1784 39.2558L44.659 23.9002L65.7069 50.7726H38.9187Z"
        fill="#0397C9" />
</svg>