<svg width="20" height="20" viewBox="0 0 20 20" fill="none" xmlns="http://www.w3.org/2000/svg">
    <title>Infaq Pendaftaran Santri</title>
<desc>Infaq Pendaftaran santri</desc>
    <path d="M2.02698 12.1376C2.0539 12.2393 2.10076 12.3347 2.16484 12.4182C2.22892 12.5016 2.30894 12.5715 2.40025 12.6238L3.92939 13.5082V15.2696C3.92939 15.482 4.01378 15.6858 4.164 15.836C4.31422 15.9862 4.51796 16.0706 4.7304 16.0706H6.49184L7.37616 17.6005C7.48268 17.7842 7.65763 17.9181 7.86271 17.9731C8.06778 18.028 8.28627 17.9995 8.47034 17.8937L9.99948 17.0102L11.5294 17.8945C11.7135 18.0003 11.932 18.0288 12.1371 17.9739C12.3421 17.9189 12.5171 17.785 12.6236 17.6013L13.5071 16.0722H15.2686C15.481 16.0722 15.6847 15.9878 15.835 15.8376C15.9852 15.6874 16.0696 15.4836 16.0696 15.2712V13.5098L17.5987 12.6254C17.6899 12.5729 17.7698 12.5029 17.8339 12.4195C17.898 12.336 17.945 12.2408 17.9722 12.1391C17.9995 12.0375 18.0064 11.9315 17.9926 11.8272C17.9788 11.7229 17.9446 11.6223 17.8919 11.5312L17.0084 10.0013L17.8927 8.47217C17.9989 8.28819 18.0277 8.06956 17.9727 7.86436C17.9177 7.65916 17.7835 7.48421 17.5995 7.37798L16.0704 6.49366V4.73223C16.0704 4.51978 15.986 4.31604 15.8358 4.16582C15.6855 4.0156 15.4818 3.93121 15.2694 3.93121H13.5079L12.6244 2.40207C12.518 2.21834 12.3432 2.08416 12.1382 2.0288C12.0366 2.0013 11.9305 1.99422 11.8262 2.00797C11.7218 2.02172 11.6212 2.05603 11.5302 2.1089L9.99948 2.99242L8.47034 2.1081C8.37935 2.05526 8.27882 2.02091 8.17452 2.00701C8.07022 1.99311 7.9642 1.99993 7.86254 2.0271C7.76089 2.05426 7.66559 2.10122 7.58213 2.1653C7.49866 2.22937 7.42867 2.30929 7.37616 2.40047L6.49184 3.93041H4.7304C4.51796 3.93041 4.31422 4.0148 4.164 4.16502C4.01378 4.31524 3.92939 4.51898 3.92939 4.73143V6.49286L2.40025 7.37798C2.21658 7.48449 2.08265 7.6595 2.02784 7.86463C1.97303 8.06975 2.00181 8.28824 2.10788 8.47217L2.9914 10.0013L2.10708 11.5304C2.00126 11.7143 1.97246 11.9326 2.02698 12.1376Z" fill="#FFBC00"/>
    <path d="M0.0361135 12.6543C0.105021 12.9068 0.270171 13.1222 0.496114 13.2543L2.40611 14.3643V16.5643C2.40611 16.8295 2.51147 17.0838 2.69901 17.2714C2.88654 17.4589 3.1409 17.5643 3.40611 17.5643H5.60611L6.71611 19.4743C6.80337 19.6254 6.92866 19.7511 7.07953 19.8388C7.2304 19.9265 7.4016 19.9732 7.57611 19.9743C7.7556 19.9742 7.93176 19.9258 8.08611 19.8343L9.98611 18.7343L11.8961 19.8343C12.0097 19.9008 12.1352 19.9443 12.2656 19.9622C12.3959 19.9801 12.5286 19.9721 12.6558 19.9386C12.7831 19.9052 12.9025 19.847 13.0073 19.7673C13.112 19.6876 13.2 19.588 13.2661 19.4743L14.3661 17.5643H16.5661C16.8313 17.5643 17.0857 17.4589 17.2732 17.2714C17.4608 17.0838 17.5661 16.8295 17.5661 16.5643V14.3643L19.4761 13.2543C19.7048 13.1223 19.8721 12.9053 19.9414 12.6505C20.0108 12.3957 19.9765 12.1239 19.8461 11.8943L18.7361 9.97426L19.8461 8.06426C19.9765 7.83464 20.0108 7.56278 19.9414 7.308C19.8721 7.05321 19.7048 6.83618 19.4761 6.70426L17.5661 5.60426V3.40426C17.5661 3.13904 17.4608 2.88469 17.2732 2.69715C17.0857 2.50962 16.8313 2.40426 16.5661 2.40426H14.3661L13.2661 0.494259C13.1317 0.266234 12.9123 0.100814 12.6561 0.034259C12.5291 0.000123955 12.3966 -0.0086139 12.2662 0.00854576C12.1357 0.0257054 12.01 0.0684256 11.8961 0.134259L9.97611 1.23426L8.07611 0.134259C7.8477 0.0030473 7.57675 -0.0327431 7.3221 0.0346629C7.06746 0.102069 6.84969 0.267226 6.71611 0.494259L5.60611 2.40426H3.40611C3.1409 2.40426 2.88654 2.50962 2.69901 2.69715C2.51147 2.88469 2.40611 3.13904 2.40611 3.40426V5.60426L0.506114 6.70426C0.391526 6.76959 0.290996 6.85694 0.210311 6.96129C0.129627 7.06564 0.0703831 7.18492 0.0359919 7.31226C0.0016008 7.4396 -0.00725817 7.57248 0.00992515 7.70326C0.0271085 7.83404 0.0699946 7.96013 0.136114 8.07426L1.23611 9.97426L0.136114 11.8843C0.0689489 11.9995 0.0255015 12.1269 0.00832799 12.2592C-0.00884552 12.3914 0.000601571 12.5257 0.0361135 12.6543ZM3.25611 9.48426L2.36611 7.97426L3.91611 7.07426C4.06539 6.98575 4.18907 6.85992 4.27498 6.70913C4.36089 6.55835 4.40608 6.3878 4.40611 6.21426V4.40426H6.18611C6.36232 4.40496 6.53559 4.35908 6.68837 4.27128C6.84115 4.18348 6.96801 4.05686 7.05611 3.90426L7.97611 2.36426L9.51611 3.25426C9.66813 3.34203 9.84058 3.38823 10.0161 3.38823C10.1916 3.38823 10.3641 3.34203 10.5161 3.25426L12.0661 2.36426L12.9761 3.90426C13.0642 4.05686 13.1911 4.18348 13.3439 4.27128C13.4966 4.35908 13.6699 4.40496 13.8461 4.40426H15.6161V6.18426C15.6172 6.35877 15.6639 6.52997 15.7516 6.68084C15.8393 6.83171 15.965 6.957 16.1161 7.04426L17.6561 7.94426L16.7661 9.48426C16.6783 9.63628 16.6321 9.80872 16.6321 9.98426C16.6321 10.1598 16.6783 10.3322 16.7661 10.4843L17.6561 12.0243L16.1161 12.9243C15.965 13.0115 15.8393 13.1368 15.7516 13.2877C15.6639 13.4385 15.6172 13.6097 15.6161 13.7843V15.5643H13.7861C13.6116 15.5653 13.4404 15.612 13.2895 15.6997C13.1387 15.7875 13.0134 15.9131 12.9261 16.0643L12.0361 17.6043L10.4861 16.7143C10.3341 16.6265 10.1617 16.5803 9.98611 16.5803C9.81058 16.5803 9.63813 16.6265 9.48611 16.7143L7.97611 17.6043L7.08611 16.0643C6.99801 15.9117 6.87115 15.785 6.71837 15.6972C6.56559 15.6094 6.39232 15.5636 6.21611 15.5643H4.40611V13.7843C4.3977 13.6193 4.34854 13.4589 4.26304 13.3176C4.17753 13.1763 4.05834 13.0583 3.91611 12.9743L2.36611 12.0743L3.25611 10.5343C3.35346 10.3764 3.40501 10.1947 3.40501 10.0093C3.40501 9.82384 3.35346 9.64207 3.25611 9.48426Z" fill="#F0F2F9"/>
    <path d="M8.96165 11L8.39692 9.95121H8.31221V11H7.52158V8.15616H8.76803C8.99661 8.15616 9.19024 8.1965 9.3489 8.27717C9.50756 8.35516 9.62723 8.46407 9.70791 8.60391C9.78859 8.74106 9.82893 8.89569 9.82893 9.0678C9.82893 9.26142 9.77514 9.43219 9.66757 9.5801C9.56269 9.72531 9.40806 9.82885 9.20368 9.8907L9.84506 11H8.96165ZM8.31221 9.41068H8.70349C8.81106 9.41068 8.89174 9.38513 8.94552 9.33403C8.9993 9.28294 9.0262 9.20898 9.0262 9.11217C9.0262 9.02074 8.99796 8.94948 8.94149 8.89838C8.8877 8.8446 8.80837 8.8177 8.70349 8.8177H8.31221V9.41068Z" fill="#F0F2F9"/>
    <path d="M10.9791 9.05167C11.041 8.94679 11.1283 8.86342 11.2413 8.80157C11.3542 8.73972 11.4874 8.70879 11.6406 8.70879C11.8208 8.70879 11.9835 8.75585 12.1287 8.84997C12.2766 8.9441 12.3923 9.07856 12.4756 9.25336C12.5617 9.42816 12.6047 9.63254 12.6047 9.8665C12.6047 10.1005 12.5617 10.3062 12.4756 10.4837C12.3923 10.6585 12.2766 10.7929 12.1287 10.8871C11.9835 10.9812 11.8208 11.0282 11.6406 11.0282C11.4874 11.0282 11.3542 10.9973 11.2413 10.9355C11.131 10.8736 11.0436 10.7902 10.9791 10.6854V12.0811H10.1885V8.73703H10.9791V9.05167ZM11.802 9.8665C11.802 9.71859 11.7617 9.6043 11.681 9.52362C11.603 9.44026 11.5062 9.39857 11.3905 9.39857C11.2749 9.39857 11.1768 9.44026 11.0961 9.52362C11.0181 9.60699 10.9791 9.72128 10.9791 9.8665C10.9791 10.0144 11.0181 10.13 11.0961 10.2134C11.1768 10.2968 11.2749 10.3385 11.3905 10.3385C11.5062 10.3385 11.603 10.2968 11.681 10.2134C11.7617 10.1274 11.802 10.0117 11.802 9.8665Z" fill="#F0F2F9"/>
    </svg>
    