<svg width="14" height="14" viewBox="0 0 14 14" xmlns="http://www.w3.org/2000/svg">
<title>Instagram Al Ashr Al Madani</title>
<desc>kunjungi Instagram Al Ashr Al Madani</desc>
<path d="M6.93671 0.0650635C5.07926 0.0650635 4.84615 0.0731853 4.11662 0.106385C3.38852 0.139726 2.89153 0.254998 2.45666 0.424129C2.00683 0.598817 1.62525 0.832494 1.2451 1.21279C0.86466 1.59294 0.630983 1.97452 0.455724 2.42421C0.286166 2.85922 0.170752 3.35635 0.13798 4.08417C0.105351 4.8137 0.0968018 5.04695 0.0968018 6.9044C0.0968018 8.76185 0.105066 8.99425 0.138123 9.72378C0.171607 10.4519 0.286878 10.9489 0.455867 11.3837C0.630698 11.8336 0.864375 12.2151 1.24467 12.5953C1.62468 12.9757 2.00626 13.21 2.4558 13.3847C2.89096 13.5538 3.38809 13.6691 4.11605 13.7024C4.84558 13.7356 5.07855 13.7437 6.93586 13.7437C8.79345 13.7437 9.02584 13.7356 9.75537 13.7024C10.4835 13.6691 10.981 13.5538 11.4162 13.3847C11.8659 13.21 12.2469 12.9757 12.6269 12.5953C13.0073 12.2151 13.241 11.8336 13.4163 11.3839C13.5844 10.9489 13.6998 10.4517 13.734 9.72392C13.7668 8.99439 13.7753 8.76185 13.7753 6.9044C13.7753 5.04695 13.7668 4.81384 13.734 4.08431C13.6998 3.35621 13.5844 2.85922 13.4163 2.42435C13.241 1.97452 13.0073 1.59294 12.6269 1.21279C12.2465 0.832352 11.866 0.598674 11.4158 0.424129C10.9798 0.254998 10.4825 0.139726 9.75438 0.106385C9.02485 0.0731853 8.79259 0.0650635 6.93457 0.0650635H6.93671ZM6.32317 1.29757C6.50526 1.29728 6.70845 1.29757 6.93671 1.29757C8.76281 1.29757 8.97925 1.30412 9.70037 1.3369C10.3672 1.36739 10.7291 1.47881 10.9702 1.57243C11.2894 1.69639 11.5169 1.84457 11.7562 2.08395C11.9955 2.32333 12.1437 2.55131 12.268 2.87047C12.3616 3.11128 12.4732 3.47319 12.5035 4.14003C12.5363 4.86101 12.5434 5.07759 12.5434 6.90283C12.5434 8.72808 12.5363 8.94466 12.5035 9.66564C12.473 10.3325 12.3616 10.6944 12.268 10.9352C12.144 11.2544 11.9955 11.4816 11.7562 11.7209C11.5168 11.9602 11.2895 12.1084 10.9702 12.2324C10.7294 12.3264 10.3672 12.4376 9.70037 12.4681C8.97939 12.5008 8.76281 12.508 6.93671 12.508C5.11046 12.508 4.89403 12.5008 4.17305 12.4681C3.50621 12.4373 3.1443 12.3259 2.90307 12.2322C2.5839 12.1083 2.35592 11.9601 2.11654 11.7207C1.87717 11.4813 1.72898 11.2539 1.60473 10.9346C1.51112 10.6938 1.39955 10.3319 1.3692 9.66507C1.33643 8.94409 1.32988 8.72751 1.32988 6.90112C1.32988 5.07474 1.33643 4.8593 1.3692 4.13832C1.3997 3.47148 1.51112 3.10957 1.60473 2.86848C1.7287 2.54931 1.87717 2.32133 2.11654 2.08196C2.35592 1.84258 2.5839 1.69439 2.90307 1.57015C3.14415 1.4761 3.50621 1.36497 4.17305 1.33433C4.80398 1.30583 5.04848 1.29728 6.32317 1.29586V1.29757ZM10.5875 2.43318C10.1344 2.43318 9.76677 2.80037 9.76677 3.25362C9.76677 3.70673 10.1344 4.07434 10.5875 4.07434C11.0406 4.07434 11.4082 3.70673 11.4082 3.25362C11.4082 2.80051 11.0406 2.4329 10.5875 2.4329V2.43318ZM6.93671 3.39212C4.99705 3.39212 3.42443 4.96474 3.42443 6.9044C3.42443 8.84407 4.99705 10.416 6.93671 10.416C8.87638 10.416 10.4484 8.84407 10.4484 6.9044C10.4484 4.96474 8.87623 3.39212 6.93657 3.39212H6.93671ZM6.93671 4.62462C8.19572 4.62462 9.21649 5.64525 9.21649 6.9044C9.21649 8.16341 8.19572 9.18418 6.93671 9.18418C5.67756 9.18418 4.65693 8.16341 4.65693 6.9044C4.65693 5.64525 5.67756 4.62462 6.93671 4.62462V4.62462Z" fill="currentColor"/>
</svg>
