<svg width="175" height="175" viewBox="0 0 175 175" fill="none" xmlns="http://www.w3.org/2000/svg">
    <title>Isi Formulir</title>
<desc>silahkan isi formulir untuk mendaftar</desc>
<g clip-path="url(#clip0_830_312)">
<path d="M139.915 61.1756L139.472 64.5289L142.419 66.188C149.825 70.3565 154.638 78.288 154.638 87.0754C154.638 95.8629 149.825 103.794 142.419 107.963L139.472 109.622L139.915 112.975C140.055 114.033 140.126 115.076 140.126 116.101C140.126 130.37 127.209 141.818 112.983 139.916L109.622 139.467L107.961 142.422C103.801 149.824 95.8713 154.638 87.0753 154.638C78.2794 154.638 70.3499 149.824 66.1894 142.422L64.5288 139.467L61.1693 139.916C46.9088 141.819 34.025 130.373 34.025 116.101C34.025 115.076 34.0961 114.033 34.2359 112.975L34.6791 109.622L31.7315 107.963C24.3256 103.794 19.5125 95.8629 19.5125 87.0754C19.5125 78.288 24.3256 70.3565 31.7315 66.188L34.6791 64.5289L34.2359 61.1756C34.0961 60.1181 34.025 59.0746 34.025 58.0503C34.025 43.7671 46.9164 32.3033 61.1591 34.2338L64.5251 34.6901L66.1894 31.7289C70.3499 24.3266 78.2794 19.5126 87.0753 19.5126C95.8713 19.5126 103.801 24.3266 107.961 31.7289L109.626 34.6909L112.993 34.2336C127.201 32.3037 140.126 43.77 140.126 58.0503C140.126 59.0746 140.055 60.1181 139.915 61.1756Z" fill="#77B341" stroke="#F0F2F9" stroke-width="10"/>
<path d="M106.45 59.03L115.019 67.6152L108.488 74.1585L99.9195 65.5734L106.45 59.03Z" fill="#1F2D3D"/>
<path d="M75.073 99.0553H83.6407L104.452 78.204L95.8839 69.6198L75.073 90.471V99.0553Z" fill="#1F2D3D"/>
<path d="M106.487 107.639H75.523C75.4487 107.639 75.3716 107.668 75.2974 107.668C75.2031 107.668 75.1089 107.642 75.0118 107.639H66.504V67.5794H86.0584L91.7702 61.8566H66.504C63.354 61.8566 60.7922 64.4204 60.7922 67.5794V107.639C60.7922 110.798 63.354 113.362 66.504 113.362H106.487C109.64 113.362 112.198 110.798 112.198 107.639V82.8366L106.487 88.5594V107.639Z" fill="#1F2D3D"/>
<path d="M107.977 108.731H75.3258C75.2475 108.731 75.1662 108.761 75.0879 108.761C74.9885 108.761 74.8891 108.734 74.7867 108.731H65.8153V66.4879H86.4354L92.4584 60.4531H65.8153C62.4936 60.4531 59.7922 63.1567 59.7922 66.4879V108.731C59.7922 112.062 62.4936 114.766 65.8153 114.766H107.977C111.302 114.766 114 112.062 114 108.731V82.5765L107.977 88.6113V108.731Z" fill="#F0F2F9"/>
<path d="M106.487 107.639H75.523C75.4487 107.639 75.3716 107.668 75.2974 107.668C75.2031 107.668 75.1089 107.642 75.0118 107.639H66.504V67.5794H86.0584L91.7702 61.8566H66.504C63.354 61.8566 60.7922 64.4204 60.7922 67.5794V107.639C60.7922 110.798 63.354 113.362 66.504 113.362H106.487C109.64 113.362 112.198 110.798 112.198 107.639V82.8366L106.487 88.5594V107.639Z" fill="#1F2D3D"/>
</g>
<defs>
<clipPath id="clip0_830_312">
<rect width="174.151" height="174.151" fill="white"/>
</clipPath>
</defs>
</svg>
