<svg width="183" height="184" viewBox="0 0 183 184" fill="none" xmlns="http://www.w3.org/2000/svg">
    <title>Jadwal Pendaftaran Santri</title>
<desc>jadwal pendaftaran santri Al Ashr Al Madani</desc>
<path d="M160.094 153.316V46.6633C160.094 38.2606 153.26 31.4272 144.858 31.4272H129.622V16.191H114.385V31.4272H68.6771V16.191H53.441V31.4272H38.2049C29.8021 31.4272 22.9688 38.2606 22.9688 46.6633V153.316C22.9688 161.719 29.8021 168.552 38.2049 168.552H144.858C153.26 168.552 160.094 161.719 160.094 153.316ZM68.6771 138.08H53.441V122.844H68.6771V138.08ZM68.6771 107.608H53.441V92.3716H68.6771V107.608ZM99.1493 138.08H83.9132V122.844H99.1493V138.08ZM99.1493 107.608H83.9132V92.3716H99.1493V107.608ZM129.622 138.08H114.385V122.844H129.622V138.08ZM129.622 107.608H114.385V92.3716H129.622V107.608ZM144.858 69.5174H38.2049V54.2813H144.858V69.5174Z" fill="#F0F2F9"/>
</svg>
