<svg width="70" height="70" viewBox="0 0 70 70" fill="none" xmlns="http://www.w3.org/2000/svg">
    <title>menu lainnya</title>
<desc>kategori menu lainnya tentang seputar pesantren</desc>   
    <path
        d="M4.30835 31.0979H27.2708C29.3872 31.0979 31.0979 29.3872 31.0979 27.2708V4.30833C31.0979 2.19195 29.3872 0.481247 27.2708 0.481247H4.30835C2.19197 0.481247 0.481262 2.19195 0.481262 4.30833V27.2708C0.481262 29.3872 2.19197 31.0979 4.30835 31.0979ZM42.5792 31.0979H65.5417C67.6581 31.0979 69.3688 29.3872 69.3688 27.2708V4.30833C69.3688 2.19195 67.6581 0.481247 65.5417 0.481247H42.5792C40.4628 0.481247 38.7521 2.19195 38.7521 4.30833V27.2708C38.7521 29.3872 40.4628 31.0979 42.5792 31.0979ZM4.30835 69.3687H27.2708C29.3872 69.3687 31.0979 67.658 31.0979 65.5417V42.5792C31.0979 40.4628 29.3872 38.7521 27.2708 38.7521H4.30835C2.19197 38.7521 0.481262 40.4628 0.481262 42.5792V65.5417C0.481262 67.658 2.19197 69.3687 4.30835 69.3687ZM54.0604 69.3687C62.503 69.3687 69.3688 62.503 69.3688 54.0604C69.3688 45.6179 62.503 38.7521 54.0604 38.7521C45.6179 38.7521 38.7521 45.6179 38.7521 54.0604C38.7521 62.503 45.6179 69.3687 54.0604 69.3687Z"
        fill="#B1D136" />
</svg>