<svg width="176" height="175" viewBox="0 0 176 175" fill="none" xmlns="http://www.w3.org/2000/svg">
<g clip-path="url(#clip0_830_315)">
<rect x="43" y="61" width="89" height="62" fill="#1F2D3D"/>
<path d="M140.906 61.2144L140.463 64.5677L143.41 66.2268C150.822 70.3983 155.638 78.3357 155.638 87.1297C155.638 95.9236 150.822 103.861 143.41 108.033L140.463 109.692L140.906 113.045C141.046 114.103 141.117 115.148 141.117 116.173C141.117 130.453 128.191 141.909 113.954 140.006L110.594 139.556L108.933 142.512C104.769 149.919 96.8336 154.737 88.0312 154.737C79.2287 154.737 71.2933 149.919 67.1298 142.512L65.4692 139.557L62.1097 140.005C47.8386 141.91 34.9453 130.456 34.9453 116.173C34.9453 115.148 35.0164 114.103 35.1563 113.045L35.5996 109.692L32.6519 108.033C25.2405 103.861 20.4238 95.9236 20.4238 87.1297C20.4238 78.3357 25.2405 70.3983 32.6519 66.2268L35.5996 64.5677L35.1563 61.2144C35.0164 60.156 34.9453 59.1118 34.9453 58.0867C34.9453 43.7929 47.8462 32.3207 62.0995 34.2526L65.4655 34.7089L67.1298 31.7477C71.2933 24.3399 79.2287 19.5223 88.0312 19.5223C96.8336 19.5223 104.769 24.3399 108.933 31.7477L110.597 34.7098L113.964 34.2524C128.183 32.3211 141.117 43.7959 141.117 58.0867C141.117 59.1118 141.046 60.156 140.906 61.2144ZM76.8857 122.706L80.4079 126.273L83.9659 122.742L125.708 81.3121L129.255 77.7916L125.736 74.2428L115.513 63.9326L111.991 60.3806L108.441 63.904L80.5815 91.5506L67.7159 78.5197L64.2054 74.9642L60.6474 78.4722L50.3081 88.6662L46.7452 92.1792L50.2606 95.7396L76.8857 122.706Z" fill="#77B341" stroke="#F0F2F9" stroke-width="10"/>
</g>
<defs>
<clipPath id="clip0_830_315">
<rect width="174.258" height="174.258" fill="white" transform="translate(0.90332)"/>
</clipPath>
</defs>
</svg>
