<svg viewBox="0 0 441 273" fill="none" xmlns="http://www.w3.org/2000/svg">
<path d="M317.942 78.3555H317.623V78.4011C317.714 78.4011 317.805 78.4011 317.942 78.3555Z" fill="#168F8C"/>
<path d="M320.088 75.2959V271.093H366.115V124.336C366.115 113.378 360.271 80.273 320.088 75.2959Z" fill="#0CA49D"/>
<path d="M75.3417 237.029C81.1864 237.029 85.9809 236.299 89.6795 234.792C93.378 233.285 96.3004 231.367 98.4008 229.038C100.501 226.664 101.917 224.016 102.739 221.048C103.515 218.08 103.926 215.066 103.926 212.007C103.926 208.491 103.469 205.386 102.556 202.555C101.643 199.769 100.045 197.395 97.8529 195.477C95.6155 193.559 92.6931 192.053 88.9945 191.002C85.3416 189.952 80.6841 189.45 75.1134 189.45H44.1548V237.029H75.3417ZM44.1548 112.647V159.815H67.2139C72.0997 159.815 76.5289 159.45 80.4558 158.765C84.3827 158.08 87.716 156.847 90.5014 155.112C93.2411 153.377 95.3415 150.957 96.8027 147.898C98.2638 144.838 98.9488 141.003 98.9488 136.345C98.9488 131.779 98.4008 128.035 97.2593 125.021C96.1177 122.008 94.3826 119.588 92.0082 117.761C89.6338 115.935 86.6658 114.61 83.0129 113.834C79.4056 113.058 75.0677 112.647 70.0906 112.647H44.1091H44.1548ZM70.1363 79.4966C83.3325 79.4966 94.5652 80.7294 103.835 83.1495C113.104 85.6152 120.684 89.0399 126.528 93.5147C132.373 97.9895 136.665 103.378 139.314 109.77C141.962 116.163 143.332 123.286 143.332 131.14C143.332 135.432 142.738 139.542 141.505 143.514C140.273 147.487 138.355 151.185 135.752 154.656C133.149 158.126 129.77 161.277 125.661 164.153C121.551 167.03 116.62 169.541 110.866 171.642C123.469 174.701 132.784 179.633 138.811 186.436C144.839 193.24 147.852 202.098 147.852 212.92C147.852 221.048 146.3 228.627 143.149 235.614C139.999 242.6 135.387 248.719 129.314 253.878C123.241 259.084 115.752 263.148 106.848 266.07C97.9442 268.992 87.7617 270.454 76.3006 270.454H0V79.4966H70.2733H70.1363Z" fill="#0CA49D"/>
<path d="M280.956 118.263C279.632 120.364 278.262 121.916 276.846 122.966C275.385 124.017 273.559 124.519 271.276 124.519C269.266 124.519 267.12 123.88 264.792 122.601C262.463 121.322 259.86 119.907 256.938 118.354C254.016 116.802 250.682 115.341 246.892 114.108C243.148 112.829 238.856 112.19 234.061 112.19C225.751 112.19 219.587 113.971 215.523 117.487C211.459 121.003 209.404 125.797 209.404 131.825C209.404 135.66 210.637 138.857 213.057 141.414C215.523 143.971 218.719 146.117 222.692 147.989C226.664 149.815 231.23 151.505 236.344 153.057C241.459 154.61 246.664 156.299 252.006 158.171C257.349 160.044 262.554 162.235 267.668 164.792C272.782 167.349 277.349 170.546 281.321 174.473C285.294 178.4 288.49 183.194 290.956 188.81C293.422 194.427 294.609 201.23 294.609 209.175C294.609 217.988 293.102 226.253 290.043 233.924C286.983 241.595 282.554 248.307 276.709 254.061C270.91 259.769 263.741 264.289 255.203 267.577C246.664 270.864 236.984 272.508 226.162 272.508C220.226 272.508 214.153 271.915 207.989 270.682C201.824 269.449 195.843 267.714 190.089 265.522C184.336 263.285 178.902 260.636 173.834 257.577C168.765 254.517 164.336 251.093 160.592 247.349L173.697 226.664C174.747 225.157 176.117 223.924 177.806 222.92C179.496 221.915 181.368 221.413 183.377 221.413C185.98 221.413 188.628 222.235 191.322 223.924C193.97 225.568 196.984 227.44 200.363 229.449C203.742 231.458 207.578 233.285 211.961 234.974C216.345 236.618 221.504 237.486 227.44 237.486C235.477 237.486 241.733 235.705 246.207 232.189C250.682 228.627 252.874 223.057 252.874 215.34C252.874 210.865 251.641 207.258 249.221 204.472C246.755 201.687 243.559 199.358 239.586 197.532C235.614 195.705 231.093 194.061 226.025 192.692C220.956 191.276 215.751 189.724 210.409 188.034C205.066 186.345 199.861 184.244 194.792 181.733C189.724 179.221 185.203 175.979 181.231 171.916C177.258 167.852 174.016 162.783 171.596 156.71C169.131 150.637 167.943 143.149 167.943 134.245C167.943 127.076 169.404 120.09 172.281 113.286C175.158 106.482 179.404 100.409 185.021 95.067C190.637 89.7246 197.486 85.4781 205.614 82.2818C213.742 79.0855 223.057 77.4873 233.559 77.4873C239.404 77.4873 245.111 77.9439 250.682 78.8572C256.253 79.7704 261.504 81.1402 266.481 82.921C271.458 84.7018 276.116 86.8479 280.454 89.3593C284.791 91.8707 288.627 94.6561 292.052 97.8067L281.047 118.4L280.956 118.263Z" fill="#0CA49D"/>
<path d="M371.183 4.74881C371.092 3.15065 370.909 1.5525 370.681 0C381 10.6392 395.703 16.8491 411.639 15.8446C419.265 15.3423 426.388 13.2419 432.735 9.90858C427.804 18.493 425.247 28.5842 425.931 39.2233C426.753 52.3739 432.415 64.0633 441 72.739C436.616 71.8714 432.004 71.5061 427.301 71.8258C408.671 73.013 392.918 83.7891 384.608 99.0401C381.32 76.4832 363.832 58.9492 341.914 55.0679C360.407 46.0269 372.599 26.4838 371.229 4.70315L371.183 4.74881Z" fill="#F9AD3C"/>
</svg>
