<svg width="648" height="648" viewBox="0 0 648 648" fill="none" xmlns="http://www.w3.org/2000/svg">
<path d="M323.981 134.945C274.409 134.945 233.369 145.448 199.322 161.162L100.07 61.9102L61.8924 100.088L151.397 189.593C80.8464 242.297 55.7364 314.279 55.3584 315.413L52.5234 323.945L55.3584 332.477C55.9524 334.313 117.89 512.999 323.981 512.999C373.526 512.999 414.539 502.496 448.586 486.782L547.892 586.088L586.07 547.91L496.511 458.351C567.089 405.647 592.226 333.665 592.604 332.531L595.439 323.999L592.604 315.467C592.01 313.631 530.072 134.945 323.981 134.945ZM325.142 188.999H323.981C359.786 188.999 394.123 203.222 419.441 228.54C444.758 253.857 458.981 288.195 458.981 323.999C458.845 350.348 450.834 376.055 435.977 397.817L416.51 378.35C426.504 361.963 431.852 343.166 431.981 323.972C431.981 311.174 429.308 298.997 425.096 287.549C422.623 290.482 419.545 292.845 416.073 294.476C412.601 296.107 408.817 296.968 404.981 296.999C397.821 296.999 390.953 294.155 385.89 289.091C380.826 284.028 377.981 277.16 377.981 269.999C377.981 258.146 385.757 248.345 396.395 244.727C376.726 226.387 350.874 216.121 323.981 215.972C304.136 215.972 285.668 221.858 269.576 231.416L250.136 211.976C271.412 197.801 296.495 188.999 323.981 188.999H322.82L323.981 188.945L325.142 188.999ZM109.979 323.972C112.76 317.627 117.377 308.15 124.046 297.269L282.455 455.678C168.704 438.209 122.102 351.944 109.979 323.972ZM359.648 456.488L157.688 254.528C167.516 244.677 178.256 235.782 189.764 227.96L407.249 445.445C391.802 450.746 375.852 454.446 359.648 456.488Z" fill="white"/>
</svg>
