<svg width="34" height="34" viewBox="0 0 34 34" fill="none" xmlns="http://www.w3.org/2000/svg">
<path d="M21.25 25.5C23.5972 25.5 25.5 23.5972 25.5 21.25C25.5 18.9028 23.5972 17 21.25 17C18.9028 17 17 18.9028 17 21.25C17 23.5972 18.9028 25.5 21.25 25.5Z" stroke="#707070" stroke-width="2.1875" stroke-linecap="round" stroke-linejoin="round"/>
<path d="M18.4165 24.7917V31.1667L21.2498 29.0417L24.0832 31.1667V24.7917" stroke="#707070" stroke-width="2.1875" stroke-linecap="round" stroke-linejoin="round"/>
<path d="M14.1667 26.9166H7.08333C6.33189 26.9166 5.61122 26.6181 5.07986 26.0868C4.54851 25.5554 4.25 24.8348 4.25 24.0833V9.91665C4.25 8.35831 5.525 7.08331 7.08333 7.08331H26.9167C27.6681 7.08331 28.3888 7.38182 28.9201 7.91318C29.4515 8.44453 29.75 9.1652 29.75 9.91665V24.0833C29.7495 24.5802 29.6183 25.0682 29.3697 25.4983C29.121 25.9285 28.7636 26.2857 28.3333 26.5341M8.5 12.75H25.5M8.5 17H12.75M8.5 21.25H11.3333" stroke="#707070" stroke-width="2.1875" stroke-linecap="round" stroke-linejoin="round"/>
</svg>
