<svg width="304" height="304" viewBox="0 0 304 304" fill="none" xmlns="http://www.w3.org/2000/svg">
    <title>Pendiri Pondok Pesantren Tahfidz Al Ashr Al Madani</title>
<desc>pendiri pondok pesantren tahfidz al madani</desc>
<path d="M151.765 0C69.4932 0 0 69.4932 0 151.765C0 234.037 69.4932 303.53 151.765 303.53C234.037 303.53 303.53 234.037 303.53 151.765C303.53 69.4932 234.037 0 151.765 0ZM151.765 75.8825C177.975 75.8825 197.295 95.187 197.295 121.412C197.295 147.637 177.975 166.941 151.765 166.941C125.57 166.941 106.236 147.637 106.236 121.412C106.236 95.187 125.57 75.8825 151.765 75.8825ZM74.2738 224.187C87.8871 204.154 110.591 190.799 136.589 190.799H166.941C192.954 190.799 215.643 204.154 229.256 224.187C209.861 244.949 182.346 258.001 151.765 258.001C121.184 258.001 93.6694 244.949 74.2738 224.187Z" fill="#51218E"/>
</svg>
