<svg width="34" height="34" viewBox="0 0 34 34" fill="none" xmlns="http://www.w3.org/2000/svg">
<path d="M11.3332 29.75H22.6665M16.9998 24.0834V29.75M16.9998 24.0834C18.8785 24.0834 20.6801 23.3371 22.0085 22.0087C23.3369 20.6803 24.0832 18.8786 24.0832 17V5.66669H9.9165V17C9.9165 18.8786 10.6628 20.6803 11.9912 22.0087C13.3195 23.3371 15.1212 24.0834 16.9998 24.0834Z" stroke="#707070" stroke-width="2" stroke-linecap="round" stroke-linejoin="round"/>
<path d="M7.08333 15.5834C8.64814 15.5834 9.91667 14.3148 9.91667 12.75C9.91667 11.1852 8.64814 9.91669 7.08333 9.91669C5.51853 9.91669 4.25 11.1852 4.25 12.75C4.25 14.3148 5.51853 15.5834 7.08333 15.5834Z" stroke="#707070" stroke-width="2" stroke-linecap="round" stroke-linejoin="round"/>
<path d="M26.9168 15.5834C28.4816 15.5834 29.7502 14.3148 29.7502 12.75C29.7502 11.1852 28.4816 9.91669 26.9168 9.91669C25.352 9.91669 24.0835 11.1852 24.0835 12.75C24.0835 14.3148 25.352 15.5834 26.9168 15.5834Z" stroke="#707070" stroke-width="2" stroke-linecap="round" stroke-linejoin="round"/>
</svg>
