<svg width="92" height="92" viewBox="0 0 92 92" fill="none" xmlns="http://www.w3.org/2000/svg">
<path d="M80.3688 11.4813H53.5792C50.7455 11.4909 48.017 12.555 45.925 14.4664C43.8331 12.555 41.1045 11.4909 38.2708 11.4813H11.4813C10.4663 11.4813 9.49282 11.8845 8.7751 12.6022C8.05738 13.3199 7.65417 14.2933 7.65417 15.3083V72.7146C7.65417 73.7296 8.05738 74.703 8.7751 75.4208C9.49282 76.1385 10.4663 76.5417 11.4813 76.5417H33.5176C35.5307 76.5417 37.5054 77.3607 38.9291 78.7844L43.2193 83.0745C43.2537 83.109 43.2996 83.1204 43.3341 83.1549C43.6632 83.4572 44.0306 83.7251 44.4592 83.905H44.4669C45.4005 84.2915 46.4495 84.2915 47.3831 83.905H47.3908C47.8194 83.7251 48.1868 83.4572 48.5159 83.1549C48.5504 83.1204 48.5963 83.109 48.6308 83.0745L52.9209 78.7844C54.3596 77.3541 56.3038 76.5484 58.3324 76.5417H80.3688C81.3838 76.5417 82.3572 76.1385 83.0749 75.4208C83.7926 74.703 84.1958 73.7296 84.1958 72.7146V15.3083C84.1958 14.2933 83.7926 13.3199 83.0749 12.6022C82.3572 11.8845 81.3838 11.4813 80.3688 11.4813ZM33.5176 68.8875H15.3083V19.1354H38.2708C40.3834 19.1354 42.0979 20.8538 42.0979 22.9625V71.5244C39.5623 69.8146 36.5758 68.8968 33.5176 68.8875ZM76.5417 68.8875H58.3324C55.2746 68.8875 52.2703 69.829 49.7521 71.5244V22.9625C49.7521 20.8538 51.4666 19.1354 53.5792 19.1354H76.5417V68.8875Z" fill="#0CA49D"/>
</svg>
