<svg width="304" height="320" viewBox="0 0 304 320" fill="none" xmlns="http://www.w3.org/2000/svg">
    <title>Profile Pondok Pesantren Tahfidz Al Ashr Al Madani</title>
<desc>sejarah pondok pesantren dari mulai berdiri sampai sekarang</desc>
<path d="M271.434 0H111.975C94.225 0 79.8623 14.3627 79.8623 32.1123V122.17L4.7419 196.332C2.49109 198.558 0.952352 201.403 0.320977 204.505C-0.310398 207.607 -0.00594793 210.827 1.19569 213.756C2.39733 216.684 4.44197 219.19 7.07015 220.955C9.69833 222.72 12.7915 223.664 15.9572 223.668V303.549C15.9572 307.786 17.6404 311.85 20.6366 314.846C23.6327 317.842 27.6963 319.525 31.9335 319.525H287.554C291.791 319.525 295.855 317.842 298.851 314.846C301.847 311.85 303.53 307.786 303.53 303.549V32.0963C303.53 14.3627 289.183 0 271.434 0ZM142.521 209.465V287.573H47.9098V198.617L95.6309 151.503L142.521 199.48V209.465ZM175.72 111.834H143.767V79.8813H175.72V111.834ZM239.625 239.644H207.672V207.691H239.625V239.644ZM239.625 175.739H207.672V143.786H239.625V175.739ZM239.625 111.834H207.672V79.8813H239.625V111.834Z" fill="#0397C9"/>
<path d="M79.8643 207.691H111.817V239.643H79.8643V207.691Z" fill="#0397C9"/>
</svg>
