<svg width="111" height="30" viewBox="0 0 111 30" fill="none" xmlns="http://www.w3.org/2000/svg">
<rect width="111" height="30" rx="7" transform="matrix(-1 0 0 1 111 0)" fill="#77B341"/>
<path fill-rule="evenodd" clip-rule="evenodd" d="M25.403 8.633C23.708 6.936 21.454 6.001 19.053 6C14.105 6 10.077 10.027 10.075 14.977C10.075 16.559 10.488 18.103 11.273 19.465L10 24.116L14.759 22.867C16.071 23.582 17.547 23.959 19.049 23.96H19.053C24 23.96 28.028 19.933 28.03 14.983C28.03 12.585 27.098 10.33 25.403 8.633ZM19.053 22.445H19.05C17.711 22.444 16.398 22.085 15.252 21.404L14.98 21.242L12.156 21.983L12.909 19.23L12.732 18.948C11.985 17.76 11.591 16.387 11.591 14.977C11.593 10.863 14.94 7.516 19.056 7.516C21.049 7.517 22.922 8.294 24.331 9.704C25.739 11.115 26.515 12.989 26.514 14.983C26.512 19.097 23.165 22.445 19.053 22.445ZM23.146 16.856C22.921 16.743 21.819 16.201 21.613 16.126C21.408 16.051 21.259 16.014 21.109 16.238C20.959 16.462 20.529 16.967 20.398 17.117C20.267 17.267 20.136 17.285 19.912 17.173C19.688 17.061 18.965 16.824 18.108 16.06C17.441 15.465 16.991 14.731 16.86 14.506C16.729 14.281 16.846 14.16 16.959 14.048C17.06 13.948 17.183 13.786 17.295 13.655C17.407 13.524 17.444 13.431 17.519 13.281C17.594 13.131 17.557 13 17.5 12.888C17.444 12.775 16.995 11.671 16.808 11.222C16.627 10.787 16.442 10.845 16.304 10.839C16.174 10.833 16.024 10.831 15.875 10.831C15.725 10.831 15.482 10.887 15.276 11.111C15.07 11.336 14.491 11.878 14.491 12.982C14.491 14.086 15.295 15.153 15.407 15.303C15.519 15.453 16.989 17.718 19.239 18.69C19.775 18.921 20.193 19.059 20.518 19.163C21.055 19.334 21.544 19.309 21.931 19.252C22.362 19.188 23.258 18.71 23.445 18.186C23.632 17.662 23.632 17.213 23.576 17.119C23.52 17.025 23.369 16.968 23.146 16.856Z" fill="#F0F2F9"/>
<path d="M36.6876 20L33.8256 16.2406V20H31.7519V11.4867H33.8256V15.2219L36.6634 11.4867H39.1009L35.8024 15.6585L39.2222 20H36.6876ZM41.3113 12.5297C40.9475 12.5297 40.6484 12.4246 40.4139 12.2144C40.1875 11.9961 40.0743 11.7293 40.0743 11.414C40.0743 11.0906 40.1875 10.8238 40.4139 10.6136C40.6484 10.3953 40.9475 10.2861 41.3113 10.2861C41.667 10.2861 41.9581 10.3953 42.1845 10.6136C42.4189 10.8238 42.5361 11.0906 42.5361 11.414C42.5361 11.7293 42.4189 11.9961 42.1845 12.2144C41.9581 12.4246 41.667 12.5297 41.3113 12.5297ZM42.3421 13.233V20H40.2684V13.233H42.3421ZM45.9793 14.3609C46.2219 13.989 46.525 13.6979 46.8889 13.4877C47.2527 13.2694 47.6569 13.1603 48.1016 13.1603V15.3553H47.5316C47.0142 15.3553 46.6261 15.4685 46.3674 15.6949C46.1087 15.9131 45.9793 16.3012 45.9793 16.8591V20H43.9056V13.233H45.9793V14.3609ZM50.1963 12.5297C49.8325 12.5297 49.5334 12.4246 49.2989 12.2144C49.0726 11.9961 48.9594 11.7293 48.9594 11.414C48.9594 11.0906 49.0726 10.8238 49.2989 10.6136C49.5334 10.3953 49.8325 10.2861 50.1963 10.2861C50.5521 10.2861 50.8431 10.3953 51.0695 10.6136C51.304 10.8238 51.4212 11.0906 51.4212 11.414C51.4212 11.7293 51.304 11.9961 51.0695 12.2144C50.8431 12.4246 50.5521 12.5297 50.1963 12.5297ZM51.2272 13.233V20H49.1534V13.233H51.2272ZM61.4251 13.1603C62.266 13.1603 62.933 13.415 63.4261 13.9243C63.9274 14.4336 64.178 15.1411 64.178 16.0465V20H62.1164V16.3255C62.1164 15.8889 61.9992 15.5534 61.7647 15.3189C61.5383 15.0764 61.223 14.9551 60.8188 14.9551C60.4145 14.9551 60.0952 15.0764 59.8607 15.3189C59.6344 15.5534 59.5212 15.8889 59.5212 16.3255V20H57.4596V16.3255C57.4596 15.8889 57.3423 15.5534 57.1079 15.3189C56.8815 15.0764 56.5662 14.9551 56.162 14.9551C55.7577 14.9551 55.4384 15.0764 55.2039 15.3189C54.9775 15.5534 54.8644 15.8889 54.8644 16.3255V20H52.7906V13.233H54.8644V14.0819C55.0746 13.799 55.3494 13.5766 55.689 13.415C56.0286 13.2452 56.4126 13.1603 56.8411 13.1603C57.3504 13.1603 57.8032 13.2694 58.1993 13.4877C58.6036 13.706 58.9189 14.0173 59.1452 14.4215C59.3797 14.0496 59.699 13.7464 60.1033 13.512C60.5075 13.2775 60.9481 13.1603 61.4251 13.1603ZM73.2553 20L70.3933 16.2406V20H68.3195V11.4867H70.3933V15.2219L73.231 11.4867H75.6686L72.37 15.6585L75.7899 20H73.2553ZM79.9163 20.097C79.2534 20.097 78.6551 19.9555 78.1215 19.6726C77.596 19.3896 77.1796 18.9854 76.8724 18.4599C76.5733 17.9343 76.4237 17.3199 76.4237 16.6165C76.4237 15.9212 76.5773 15.3108 76.8845 14.7853C77.1917 14.2517 77.6122 13.8434 78.1458 13.5605C78.6793 13.2775 79.2776 13.136 79.9406 13.136C80.6035 13.136 81.2018 13.2775 81.7354 13.5605C82.269 13.8434 82.6894 14.2517 82.9966 14.7853C83.3038 15.3108 83.4574 15.9212 83.4574 16.6165C83.4574 17.3118 83.2998 17.9263 82.9845 18.4599C82.6773 18.9854 82.2528 19.3896 81.7111 19.6726C81.1775 19.9555 80.5793 20.097 79.9163 20.097ZM79.9163 18.3022C80.3125 18.3022 80.648 18.1567 80.9229 17.8656C81.2058 17.5746 81.3473 17.1582 81.3473 16.6165C81.3473 16.0748 81.2099 15.6585 80.935 15.3674C80.6682 15.0764 80.3367 14.9308 79.9406 14.9308C79.5363 14.9308 79.2008 15.0764 78.934 15.3674C78.6672 15.6504 78.5338 16.0668 78.5338 16.6165C78.5338 17.1582 78.6632 17.5746 78.9219 17.8656C79.1887 18.1567 79.5202 18.3022 79.9163 18.3022ZM84.2059 16.6044C84.2059 15.9091 84.3353 15.2987 84.594 14.7732C84.8608 14.2477 85.2206 13.8434 85.6733 13.5605C86.126 13.2775 86.6313 13.136 87.1892 13.136C87.6339 13.136 88.0381 13.229 88.4019 13.415C88.7738 13.6009 89.0649 13.8515 89.2751 14.1668V11.0259H91.3488V20H89.2751V19.0298C89.081 19.3532 88.8021 19.6119 88.4383 19.806C88.0826 20 87.6662 20.097 87.1892 20.097C86.6313 20.097 86.126 19.9555 85.6733 19.6726C85.2206 19.3815 84.8608 18.9732 84.594 18.4477C84.3353 17.9141 84.2059 17.2997 84.2059 16.6044ZM89.2751 16.6165C89.2751 16.0991 89.1295 15.6908 88.8385 15.3917C88.5555 15.0925 88.2079 14.943 87.7956 14.943C87.3832 14.943 87.0315 15.0925 86.7405 15.3917C86.4575 15.6827 86.316 16.087 86.316 16.6044C86.316 17.1218 86.4575 17.5341 86.7405 17.8414C87.0315 18.1405 87.3832 18.2901 87.7956 18.2901C88.2079 18.2901 88.5555 18.1405 88.8385 17.8414C89.1295 17.5422 89.2751 17.1339 89.2751 16.6165ZM99.2886 16.5074C99.2886 16.7014 99.2765 16.9035 99.2522 17.1137H94.559C94.5913 17.5341 94.7247 17.8575 94.9592 18.0839C95.2017 18.3022 95.4968 18.4113 95.8445 18.4113C96.3619 18.4113 96.7217 18.1931 96.9238 17.7565H99.1309C99.0178 18.2011 98.8116 18.6013 98.5125 18.9571C98.2214 19.3128 97.8536 19.5917 97.4089 19.7938C96.9642 19.996 96.467 20.097 95.9172 20.097C95.2543 20.097 94.6641 19.9555 94.1467 19.6726C93.6293 19.3896 93.225 18.9854 92.934 18.4599C92.6429 17.9343 92.4974 17.3199 92.4974 16.6165C92.4974 15.9131 92.6389 15.2987 92.9218 14.7732C93.2129 14.2477 93.6171 13.8434 94.1346 13.5605C94.652 13.2775 95.2462 13.136 95.9172 13.136C96.5721 13.136 97.1542 13.2735 97.6636 13.5484C98.1729 13.8232 98.5691 14.2153 98.852 14.7247C99.1431 15.234 99.2886 15.8283 99.2886 16.5074ZM97.1663 15.9617C97.1663 15.6059 97.0451 15.323 96.8025 15.1128C96.56 14.9026 96.2568 14.7974 95.893 14.7974C95.5453 14.7974 95.2503 14.8985 95.0077 15.1006C94.7733 15.3027 94.6277 15.5898 94.5711 15.9617H97.1663Z" fill="#E4F5FF"/>
</svg>
