<svg width="69" height="30" viewBox="0 0 69 30" fill="none" xmlns="http://www.w3.org/2000/svg">
<rect width="69" height="30" rx="7" transform="matrix(-1 0 0 1 69 0)" fill="#FF3912"/>
<path d="M34.16 20.07C33.6467 20.07 33.1867 19.9867 32.78 19.82C32.3733 19.6533 32.0467 19.4067 31.8 19.08C31.56 18.7533 31.4333 18.36 31.42 17.9H33.24C33.2667 18.16 33.3567 18.36 33.51 18.5C33.6633 18.6333 33.8633 18.7 34.11 18.7C34.3633 18.7 34.5633 18.6433 34.71 18.53C34.8567 18.41 34.93 18.2467 34.93 18.04C34.93 17.8667 34.87 17.7233 34.75 17.61C34.6367 17.4967 34.4933 17.4033 34.32 17.33C34.1533 17.2567 33.9133 17.1733 33.6 17.08C33.1467 16.94 32.7767 16.8 32.49 16.66C32.2033 16.52 31.9567 16.3133 31.75 16.04C31.5433 15.7667 31.44 15.41 31.44 14.97C31.44 14.3167 31.6767 13.8067 32.15 13.44C32.6233 13.0667 33.24 12.88 34 12.88C34.7733 12.88 35.3967 13.0667 35.87 13.44C36.3433 13.8067 36.5967 14.32 36.63 14.98H34.78C34.7667 14.7533 34.6833 14.5767 34.53 14.45C34.3767 14.3167 34.18 14.25 33.94 14.25C33.7333 14.25 33.5667 14.3067 33.44 14.42C33.3133 14.5267 33.25 14.6833 33.25 14.89C33.25 15.1167 33.3567 15.2933 33.57 15.42C33.7833 15.5467 34.1167 15.6833 34.57 15.83C35.0233 15.9833 35.39 16.13 35.67 16.27C35.9567 16.41 36.2033 16.6133 36.41 16.88C36.6167 17.1467 36.72 17.49 36.72 17.91C36.72 18.31 36.6167 18.6733 36.41 19C36.21 19.3267 35.9167 19.5867 35.53 19.78C35.1433 19.9733 34.6867 20.07 34.16 20.07ZM42.8723 12.98V14.35H41.0123V20H39.3023V14.35H37.4423V12.98H42.8723ZM47.1005 20.07C46.4405 20.07 45.8339 19.9167 45.2805 19.61C44.7339 19.3033 44.2972 18.8767 43.9705 18.33C43.6505 17.7767 43.4905 17.1567 43.4905 16.47C43.4905 15.7833 43.6505 15.1667 43.9705 14.62C44.2972 14.0733 44.7339 13.6467 45.2805 13.34C45.8339 13.0333 46.4405 12.88 47.1005 12.88C47.7605 12.88 48.3639 13.0333 48.9105 13.34C49.4639 13.6467 49.8972 14.0733 50.2105 14.62C50.5305 15.1667 50.6905 15.7833 50.6905 16.47C50.6905 17.1567 50.5305 17.7767 50.2105 18.33C49.8905 18.8767 49.4572 19.3033 48.9105 19.61C48.3639 19.9167 47.7605 20.07 47.1005 20.07ZM47.1005 18.51C47.6605 18.51 48.1072 18.3233 48.4405 17.95C48.7805 17.5767 48.9505 17.0833 48.9505 16.47C48.9505 15.85 48.7805 15.3567 48.4405 14.99C48.1072 14.6167 47.6605 14.43 47.1005 14.43C46.5339 14.43 46.0805 14.6133 45.7405 14.98C45.4072 15.3467 45.2405 15.8433 45.2405 16.47C45.2405 17.09 45.4072 17.5867 45.7405 17.96C46.0805 18.3267 46.5339 18.51 47.1005 18.51ZM57.0419 15.24C57.0419 15.6467 56.9485 16.02 56.7619 16.36C56.5752 16.6933 56.2885 16.9633 55.9019 17.17C55.5152 17.3767 55.0352 17.48 54.4619 17.48H53.4019V20H51.6919V12.98H54.4619C55.0219 12.98 55.4952 13.0767 55.8819 13.27C56.2685 13.4633 56.5585 13.73 56.7519 14.07C56.9452 14.41 57.0419 14.8 57.0419 15.24ZM54.3319 16.12C54.6585 16.12 54.9019 16.0433 55.0619 15.89C55.2219 15.7367 55.3019 15.52 55.3019 15.24C55.3019 14.96 55.2219 14.7433 55.0619 14.59C54.9019 14.4367 54.6585 14.36 54.3319 14.36H53.4019V16.12H54.3319Z" fill="#E4F5FF"/>
<path d="M26.3747 9.75C26.0763 9.75 25.7902 9.86853 25.5792 10.0795C25.3682 10.2905 25.2497 10.5766 25.2497 10.875V14.25H24.4997V9.375C24.4997 9.07663 24.3812 8.79048 24.1702 8.5795C23.9592 8.36853 23.6731 8.25 23.3747 8.25C23.0763 8.25 22.7902 8.36853 22.5792 8.5795C22.3682 8.79048 22.2497 9.07663 22.2497 9.375V14.25H21.4997V8.625C21.4997 8.32663 21.3812 8.04048 21.1702 7.8295C20.9592 7.61853 20.6731 7.5 20.3747 7.5C20.0763 7.5 19.7902 7.61853 19.5792 7.8295C19.3682 8.04048 19.2497 8.32663 19.2497 8.625V14.25H18.4997V10.125C18.4997 9.82663 18.3812 9.54048 18.1702 9.3295C17.9592 9.11853 17.6731 9 17.3747 9C17.0763 9 16.7902 9.11853 16.5792 9.3295C16.3682 9.54048 16.2497 9.82663 16.2497 10.125V18.2325L14.5847 15.5325C14.4276 15.2779 14.1757 15.0961 13.8846 15.0272C13.5934 14.9583 13.2868 15.0079 13.0322 15.165C12.7776 15.3221 12.5958 15.574 12.5269 15.8651C12.458 16.1563 12.5076 16.4629 12.6647 16.7175L15.1472 20.7225C15.4832 21.2657 15.9523 21.7141 16.5101 22.0252C17.068 22.3363 17.696 22.4997 18.3347 22.5H23.7497C24.7443 22.5 25.6981 22.1049 26.4014 21.4017C27.1046 20.6984 27.4997 19.7446 27.4997 18.75V10.875C27.4997 10.5766 27.3812 10.2905 27.1702 10.0795C26.9592 9.86853 26.6731 9.75 26.3747 9.75Z" fill="white"/>
</svg>
