<svg width="15" height="14" viewBox="0 0 15 14" fill="none" xmlns="http://www.w3.org/2000/svg">
<path d="M4.98263 12.8884C10.1442 12.8884 12.9686 8.61137 12.9686 4.90859C12.9686 4.78826 12.9686 4.66794 12.9631 4.54761C13.5105 4.15381 13.9867 3.6561 14.3644 3.09275C13.8608 3.317 13.3189 3.46467 12.7497 3.53577C13.3299 3.1912 13.7732 2.63879 13.9867 1.98246C13.4448 2.30516 12.8427 2.53487 12.2023 2.66067C11.6878 2.11373 10.9598 1.77463 10.1552 1.77463C8.60616 1.77463 7.34723 3.03259 7.34723 4.58043C7.34723 4.7992 7.37459 5.01251 7.41838 5.22034C5.08663 5.10549 3.01761 3.98426 1.63279 2.28875C1.39195 2.70442 1.25511 3.18573 1.25511 3.69985C1.25511 4.67341 1.7532 5.5321 2.50309 6.03528C2.04331 6.01888 1.61089 5.89308 1.23321 5.68524C1.23321 5.69618 1.23321 5.70712 1.23321 5.72353C1.23321 7.07994 2.20204 8.21757 3.48286 8.47463C3.2475 8.54027 3.00119 8.57308 2.74393 8.57308C2.5633 8.57308 2.38814 8.55667 2.21846 8.52386C2.57424 9.63961 3.61423 10.4491 4.84032 10.471C3.87696 11.2257 2.6673 11.6742 1.35363 11.6742C1.12921 11.6742 0.904796 11.6633 0.685852 11.6359C1.92289 12.4235 3.40076 12.8884 4.98263 12.8884Z" fill="#F0F8FF"/>
</svg>
