<svg width="15" height="14" viewBox="0 0 15 14" fill="currentColor"
    xmlns="http://www.w3.org/2000/svg">
    <path
        d="M12.3721 2.05375C11.0949 0.770063 9.39198 0.0648499 7.57858 0.0648499C3.84453 0.0648499 0.802698 3.10669 0.799449 6.84075C0.799449 8.03668 1.11143 9.20012 1.7029 10.2303L0.744202 13.7434L4.33851 12.8009C5.3297 13.3404 6.44439 13.6264 7.57858 13.6264H7.58183C11.3159 13.6264 14.3577 10.5845 14.361 6.84724C14.3577 5.03709 13.6525 3.33418 12.3721 2.05375ZM7.57858 12.4792C6.56463 12.4792 5.57344 12.2062 4.70899 11.6927L4.50425 11.5692L2.37236 12.1282L2.94108 10.0483L2.80784 9.83384C2.24237 8.93688 1.94664 7.90019 1.94664 6.83749C1.94664 3.73716 4.475 1.20879 7.58183 1.20879C9.0865 1.20879 10.5002 1.79701 11.5661 2.8597C12.6288 3.92565 13.2138 5.33932 13.2138 6.84399C13.2105 9.95408 10.6822 12.4792 7.57858 12.4792ZM10.6692 8.26092C10.5002 8.17643 9.66821 7.76695 9.51222 7.70845C9.35623 7.6532 9.24249 7.62395 9.132 7.79295C9.01825 7.96194 8.69327 8.34542 8.59577 8.45591C8.49828 8.56965 8.39753 8.58265 8.22854 8.49816C8.05955 8.41366 7.51358 8.23492 6.86687 7.65645C6.36315 7.20798 6.02516 6.65225 5.92442 6.48326C5.82692 6.31427 5.91467 6.22328 5.99917 6.13878C6.07391 6.06404 6.16816 5.94054 6.25265 5.84305C6.33715 5.74555 6.3664 5.67406 6.42164 5.56031C6.47689 5.44657 6.45089 5.34907 6.40864 5.26458C6.3664 5.18008 6.02841 4.34488 5.88542 4.00689C5.74893 3.67541 5.60919 3.72091 5.50519 3.71766C5.4077 3.71116 5.29395 3.71116 5.18021 3.71116C5.06647 3.71116 4.88448 3.75341 4.72848 3.9224C4.57249 4.09139 4.13702 4.50087 4.13702 5.33607C4.13702 6.17128 4.74473 6.97399 4.82923 7.08773C4.91372 7.20148 6.02191 8.91089 7.72157 9.64535C8.12455 9.82084 8.43978 9.92483 8.68677 10.0028C9.093 10.1328 9.46023 10.1133 9.75271 10.0711C10.0777 10.0223 10.7537 9.6616 10.8966 9.26512C11.0364 8.86864 11.0364 8.53066 10.9941 8.45916C10.9519 8.38766 10.8382 8.34542 10.6692 8.26092Z"
        fill="currentColor" />
</svg>