<svg width="37" height="30" viewBox="0 0 37 30" fill="none" xmlns="http://www.w3.org/2000/svg">
<rect width="37" height="30" rx="7" transform="matrix(-1 0 0 1 37 0)" fill="#77B341"/>
<path fill-rule="evenodd" clip-rule="evenodd" d="M25.403 8.633C23.708 6.936 21.454 6.001 19.053 6C14.105 6 10.077 10.027 10.075 14.977C10.075 16.559 10.488 18.103 11.273 19.465L10 24.116L14.759 22.867C16.071 23.582 17.547 23.959 19.049 23.96H19.053C24 23.96 28.028 19.933 28.03 14.983C28.03 12.585 27.098 10.33 25.403 8.633ZM19.053 22.445H19.05C17.711 22.444 16.398 22.085 15.252 21.404L14.98 21.242L12.156 21.983L12.909 19.23L12.732 18.948C11.985 17.76 11.591 16.387 11.591 14.977C11.593 10.863 14.94 7.516 19.056 7.516C21.049 7.517 22.922 8.294 24.331 9.704C25.739 11.115 26.515 12.989 26.514 14.983C26.512 19.097 23.165 22.445 19.053 22.445ZM23.146 16.856C22.921 16.743 21.819 16.201 21.613 16.126C21.408 16.051 21.259 16.014 21.109 16.238C20.959 16.462 20.529 16.967 20.398 17.117C20.267 17.267 20.136 17.285 19.912 17.173C19.688 17.061 18.965 16.824 18.108 16.06C17.441 15.465 16.991 14.731 16.86 14.506C16.729 14.281 16.846 14.16 16.959 14.048C17.06 13.948 17.183 13.786 17.295 13.655C17.407 13.524 17.444 13.431 17.519 13.281C17.594 13.131 17.557 13 17.5 12.888C17.444 12.775 16.995 11.671 16.808 11.222C16.627 10.787 16.442 10.845 16.304 10.839C16.174 10.833 16.024 10.831 15.875 10.831C15.725 10.831 15.482 10.887 15.276 11.111C15.07 11.336 14.491 11.878 14.491 12.982C14.491 14.086 15.295 15.153 15.407 15.303C15.519 15.453 16.989 17.718 19.239 18.69C19.775 18.921 20.193 19.059 20.518 19.163C21.055 19.334 21.544 19.309 21.931 19.252C22.362 19.188 23.258 18.71 23.445 18.186C23.632 17.662 23.632 17.213 23.576 17.119C23.52 17.025 23.369 16.968 23.146 16.856Z" fill="#F0F2F9"/>
</svg>
