<svg width="28" height="20" viewBox="0 0 28 20" fill="none" xmlns="http://www.w3.org/2000/svg">
<path d="M19.3311 0.418945C19.0732 0.139648 18.751 0 18.3643 0C17.9775 0 17.6553 0.139648 17.3975 0.418945C17.1182 0.676758 16.9785 0.999023 16.9785 1.38574C16.9785 1.77246 17.1182 2.09473 17.3975 2.35254L23.2949 8.25H10.1143C9.77051 8.25 9.46436 8.36816 9.1958 8.60449C8.92725 8.84082 8.78223 9.13086 8.76074 9.47461L8.72852 9.63574C8.72852 10.0225 8.86279 10.3501 9.13135 10.6187C9.3999 10.8872 9.72754 11.0215 10.1143 11.0215H23.2949L17.3975 16.9189C17.1396 17.1553 17.0054 17.4507 16.9946 17.8052C16.9839 18.1597 17.0752 18.4658 17.2686 18.7236L17.3975 18.8525C17.6553 19.1318 17.9775 19.2715 18.3643 19.2715C18.751 19.2715 19.0732 19.1318 19.3311 18.8525L27.5811 10.6025C27.8604 10.3447 28 10.0225 28 9.63574C28 9.24902 27.8604 8.92676 27.5811 8.66895L19.3311 0.418945ZM1.86426 8.25C1.47754 8.25 1.1499 8.38428 0.881348 8.65283C0.612793 8.92139 0.478516 9.24902 0.478516 9.63574C0.478516 10.0225 0.612793 10.3501 0.881348 10.6187C1.1499 10.8872 1.47754 11.0215 1.86426 11.0215H4.60352C4.99023 11.0215 5.31787 10.8872 5.58643 10.6187C5.85498 10.3501 5.98926 10.0225 5.98926 9.63574C5.98926 9.24902 5.85498 8.92139 5.58643 8.65283C5.31787 8.38428 4.99023 8.25 4.60352 8.25H1.86426Z" fill="#51218E"/>
</svg>
