<svg width="3561" height="609" viewBox="0 0 3561 609" fill="none" xmlns="http://www.w3.org/2000/svg">
<path fill-rule="evenodd" clip-rule="evenodd" d="M3542.77 259.744C3545.93 261.707 3547.67 265.031 3547.3 268.415C3547.34 269.558 3548.06 270.606 3549.2 271.15C3552.54 272.772 3556.08 277.965 3554.9 279.659C3554.5 281.878 3554.93 284.162 3556.1 286.173C3557.31 288.471 3557.89 290.986 3557.77 293.504C3557.45 294.839 3557.69 296.148 3558.34 296.165C3561.38 297.051 3559.89 315.382 3556.83 315.302C3555.89 315.239 3555.41 315.879 3555.87 316.658C3558.48 320.984 3537.35 343.403 3530.98 342.852C3530.21 342.794 3529.64 343.239 3529.84 344.549C3530.04 345.857 3529 346.444 3524.56 346.979C3520.12 347.516 3518.81 348.516 3518.27 350.306C3517.73 352.094 3515.99 353.199 3512.33 353.985C3505.5 355.456 3489.58 361.942 3490.16 363.069C3490.16 363.452 3486.43 365.349 3481.5 367.061C3455.56 375.97 3441.58 381.816 3441.34 383.267C3441.11 384.718 3440.07 384.73 3438.45 383.882C3436.82 383.035 3435.79 383.199 3435.47 384.342C3434.92 386.743 3427.79 389.087 3426.05 387.47C3425.31 386.761 3424.17 386.52 3423.17 386.856C3422.35 387.18 3421.95 387.746 3423.61 389.169C3425.27 390.594 3424.4 391.261 3417.7 393.311L3416.15 393.845L3413.98 394.632C3411.52 395.602 3409.27 396.502 3407.41 397.298C3406.63 397.638 3405.91 397.939 3405.27 398.212C3402.81 399.248 3401.37 399.854 3401.64 400.406C3401.97 401.105 3399.47 401.96 3395.93 402.366C3392.94 402.596 3390.06 403.426 3387.5 404.792C3385.21 406.134 3382.62 407.02 3379.89 407.392C3376.37 407.932 3363.93 412.202 3339.94 420.437C3326.09 425.187 3308.41 431.257 3286.37 438.692C3268.77 444.521 3251.83 449.523 3248.86 449.945C3246.16 450.196 3243.62 451.142 3241.55 452.667C3236.45 455.275 3230.92 457.172 3225.16 458.298C3209.97 462.229 3195.17 467.201 3180.88 473.169C3177.09 474.883 3172.96 475.934 3168.7 476.263C3157.05 478.563 3145.6 481.529 3134.4 485.145L3111.46 491.946L3097.59 495.84C3096.62 496.095 3095.68 496.416 3094.78 496.801C3093.57 497.154 3086.31 499.226 3080.6 500.649L3047.38 509.559C3045.44 510.199 3040.52 511.488 3036.8 512.427C3034.22 512.991 3029.84 514.15 3024.58 515.542C3018.69 517.102 3011.68 518.956 3004.84 520.602C3004.34 520.826 3002.82 521.303 3000.74 521.952C2998.45 522.666 2995.5 523.587 2992.52 524.613C2992.09 524.761 2991.66 524.907 2991.24 525.053C2986.05 526.837 2981.52 528.391 2980.89 528.374L2977.87 528.793C2977.02 528.869 2971.35 530.608 2964.47 532.72C2963.29 533.082 2962.07 533.455 2960.84 533.832C2952.41 536.41 2940.96 539.792 2935.39 541.334C2934.15 541.675 2932.59 542.114 2930.79 542.618C2924.48 544.392 2915.31 546.964 2907.78 548.856C2885.06 555.012 2825.08 568.973 2793.76 574.442L2744.26 584.075C2741.01 584.737 2736.54 585.515 2731.07 586.467C2728.68 586.884 2726.09 587.334 2723.33 587.823C2714.27 589.426 2703.36 591.096 2691.2 592.657L2652.13 597.808L2610.36 602.045C2596.48 603.599 2582.95 604.548 2570.03 605.399C2565.99 605.664 2562.08 605.941 2558.32 606.208C2550.04 606.795 2542.43 607.334 2535.56 607.602C2525.57 607.992 2517.34 608.237 2511.58 608.316C2508.58 608.518 2505.57 608.439 2502.58 608.081L2495.52 608.126C2494.27 608.148 2492.88 608.191 2491.38 608.238C2487.65 608.356 2483.25 608.494 2478.52 608.37C2465.17 608.289 2447.44 608.055 2439.05 607.835C2437.26 607.788 2435.13 607.754 2432.67 607.714C2426.43 607.613 2418.1 607.479 2408.07 607.023L2384.92 606.417L2372.01 606.079L2365.17 605.899L2357.99 605.443C2314.54 603.168 2271.21 598.935 2228.16 592.76L2201.78 588.924L2174.69 583.803C2171.58 583.179 2168.52 582.594 2165.53 582.025C2160.09 580.984 2154.9 579.994 2150.13 578.902L2131.25 574.573C2111.33 570.035 2094 564.98 2078.04 560.326C2073.58 559.024 2069.22 557.754 2064.94 556.535C2057.61 554.253 2050.57 551.89 2043.68 549.576C2041.47 548.834 2039.27 548.096 2037.09 547.368C2035.6 546.871 2034.11 546.378 2032.62 545.888C2025.14 543.414 2017.75 540.97 2010.61 538.16L1984.1 528.222C1975.85 525.102 1967.61 521.629 1958.85 517.938C1958.01 517.583 1957.16 517.228 1956.31 516.87L1941.42 510.612L1925.97 503.611C1915.1 498.762 1903.64 493.59 1891.75 487.565C1890.09 486.742 1888.4 485.905 1886.69 485.057C1880.3 481.898 1873.56 478.563 1866.82 475.061L1841.86 461.75C1826.01 452.974 1811.78 444.815 1802.94 439.597C1794.33 434.467 1785.88 429.396 1777.56 424.404C1756.4 411.713 1736.1 399.534 1716.29 388.197C1688.69 372.402 1661.52 357.499 1634.15 344.125C1625.3 339.8 1617.43 336.115 1610.48 332.859C1607.92 331.662 1605.49 330.521 1603.18 329.43C1597.15 326.584 1591.9 324.266 1587.4 322.28C1585.48 321.432 1583.69 320.644 1582.04 319.901C1576.52 317.417 1572.46 315.509 1569.76 314.211C1568.25 313.656 1566.81 312.934 1565.49 312.066C1565.19 311.792 1564.8 311.619 1564.38 311.576C1563.6 311.479 1553.24 307.257 1539.37 301.371C1534.47 299.548 1529.18 297.493 1523.72 295.371C1513.36 291.343 1502.39 287.077 1492.26 283.722C1472.77 276.423 1461.01 273.621 1459.88 274.359C1458.76 275.096 1458.33 274.549 1458.34 273.743C1458.35 272.938 1453.39 270.775 1437.75 265.534L1405.11 256.164C1400.76 254.946 1395.91 253.82 1390.71 252.61C1387.59 251.888 1384.34 251.136 1381.01 250.316L1380.28 250.138C1371.54 247.994 1361.91 245.629 1350.96 243.738C1327.39 239.208 1320.65 237.421 1320.93 236.124C1321.21 234.827 1321.13 234.672 1320.24 236.106C1319.36 237.54 1309.43 236.206 1270.99 230.635C1257.14 229.045 1245.33 227.661 1234.37 226.3C1228.91 225.544 1223.59 225.021 1218.29 224.576L1202.52 223.011L1186.23 221.281C1184.85 221.132 1183.46 220.974 1182.06 220.816C1177.73 220.322 1173.25 219.81 1168.47 219.511L1124.79 215.797C1117.01 215.018 1100.41 214.237 1088.31 213.73C1076.22 213.221 1060.92 212.283 1054.38 211.843C1047.84 211.403 1033 211.014 1021.38 210.71L1002.27 210.209L985.91 210.088C975.76 210.014 967.104 209.786 959.413 209.584H959.4L945.894 209.23L930.908 209.337L879.249 209.708C873.963 209.724 863.193 209.979 855.356 210.195L840.885 210.622L827.974 211.203L800.71 212.369L800.103 212.403C797.169 212.572 791.5 212.9 783.465 213.796L751.127 217.782C742.392 218.737 732.876 220.122 722.793 221.594C717.851 222.313 712.776 223.053 707.569 223.773C643.634 233.493 580.346 246.069 517.93 261.453C480.147 270.78 443.502 280.981 408.666 291.919C373.831 302.858 340.607 314.298 309.512 325.987L286.531 334.782L268.571 341.981C263.946 343.776 259.585 345.635 255.303 347.455C254.616 347.747 253.928 348.039 253.254 348.33C244.757 351.803 236.934 355.238 229.678 358.417C228.423 358.967 227.194 359.509 225.978 360.041C209.221 367.234 196.059 373.372 187.006 377.66C183.491 379.255 180.029 380.853 176.606 382.527L173.87 383.759C173.633 383.882 173.487 384.027 173.368 384.135C173.17 384.319 173.091 384.397 172.879 384.079C172.549 383.571 171.584 384.121 170.804 385.366C167.395 388.676 162.809 390.853 157.801 391.545C156.73 391.441 156.083 391.769 156.334 392.16C158.356 395.165 140.383 390.629 137.37 387.482C136.418 386.554 135.308 385.762 134.079 385.133C133.022 384.603 132.256 383.707 131.965 382.661C131.938 381.855 130.947 381.484 129.784 381.454C127.115 381.806 114.6 374.076 113.094 371.159C112.419 369.838 111.309 368.725 109.908 367.969C108.573 367.437 108.204 366.851 108.587 366.592C108.983 366.334 107.834 365.346 106.036 364.377C103.644 363.249 102.165 360.999 102.244 358.602C101.847 355.408 101.345 354.628 99.7988 354.932C97.4597 355.37 93.2307 350.389 94.4202 348.119C95.6094 345.848 93.9973 344.388 88.8037 343.292C83.6099 342.198 77.9937 337.41 67.5139 325.437C71.9014 323.098 77.0159 320.433 79.7778 319.048C86.3325 315.651 96.4685 310.701 111.679 303.43L129.56 295.23L146.316 287.768L168.915 278.197L190.165 269.588L212.142 261.035C216.08 259.489 220.798 257.772 225.119 256.198L240.832 250.051C244.096 248.752 247.189 247.622 249.925 246.619C251.431 246.066 252.845 245.552 254.114 245.068C316.318 221.807 359.413 208.63 400.288 197.159C441.162 185.69 479.778 175.579 534.912 163.599C542.061 162.149 548.708 160.77 554.906 159.484C565.545 157.275 574.848 155.346 583.029 153.814L613.239 148.24C624.022 146.176 629.586 145.267 632.269 144.829C633.299 144.659 633.907 144.561 634.211 144.494C635.295 144.253 635.678 144.264 635.678 144.264L648.96 142.195L668.466 139.062C673.831 138.203 680.042 137.349 687.138 136.375C690.918 135.855 694.962 135.3 699.257 134.692C781.06 123.414 836.233 119.722 872.285 117.308C877.65 116.949 882.593 116.619 887.125 116.296L923.745 114.57L934.463 114.122C935.652 114.147 936.828 114.102 938.004 113.985C938.559 113.89 942.18 113.795 948.682 113.625C951.219 113.559 954.219 113.481 957.629 113.387L979.857 112.819C981.311 112.782 982.804 112.741 984.324 112.7C992.081 112.489 1000.6 112.258 1009.99 112.342C1015.87 112.354 1021.91 112.336 1028.03 112.316C1040.05 112.277 1052.4 112.239 1064.57 112.431L1116.9 113.571L1173.76 116.403L1176.3 116.471C1177.24 116.372 1185.12 117.051 1201.27 118.444C1205.16 118.781 1209.55 119.16 1214.44 119.579L1235.94 121.408C1243.09 122.181 1250.89 123.158 1259.45 124.228L1262.37 124.593C1265.49 124.983 1268.7 125.363 1272.01 125.754C1278.98 126.58 1286.39 127.456 1294.17 128.572L1331.33 134.569C1391.24 144.856 1450.1 159.848 1507.21 179.371C1564.87 199.44 1620.5 224.001 1673.46 252.762C1678.82 255.446 1684.98 258.893 1691.87 262.743C1695.36 264.698 1699.05 266.759 1702.9 268.876C1711.25 273.452 1720.24 278.676 1729.68 284.157C1733.2 286.201 1736.78 288.281 1740.41 290.377C1755.31 299.207 1770.89 308.563 1786.12 317.705C1798.09 324.889 1809.83 331.942 1820.86 338.508C1858.91 361.175 1891.64 379.751 1921.82 395.614C1926.64 398.009 1931.36 400.403 1936.01 402.762C1946.13 407.903 1955.92 412.873 1965.78 417.285L1986.91 427.044L2008.01 435.92C2071.21 462.345 2137.8 481.515 2206.16 492.965C2207.55 493.204 2208.99 493.475 2210.5 493.758C2213.53 494.327 2216.81 494.943 2220.34 495.445L2237.52 497.813C2241.33 498.277 2245.28 498.814 2249.35 499.367C2258.55 500.618 2268.37 501.951 2278.56 502.723L2300.96 504.805L2312.4 505.873C2316.18 506.317 2320.01 506.418 2323.8 506.517L2367.89 508.785C2440.64 510.911 2513.38 508.626 2585.61 501.947L2631.43 497.279L2670.58 492.399L2687.27 490.306L2701.63 488.15L2723.2 484.879C2733.23 483.575 2750.97 480.529 2768.43 477.533C2775.75 476.278 2783.01 475.031 2789.63 473.925L2830.16 466.243C2830.3 466.196 2831.03 466.058 2832.31 465.819C2834.87 465.338 2839.63 464.447 2846.17 463.057L2886.74 454.494C2889.18 453.95 2891.67 453.395 2894.22 452.828C2909.23 449.489 2926.21 445.712 2944.3 441.236C2948.15 440.283 2952.06 439.321 2956.02 438.347C2973.8 433.972 2992.56 429.354 3011.51 424.204C3104.42 400.098 3202.48 367.612 3233.61 356.923C3256.49 349.046 3293.51 335.826 3315.79 327.587C3320.05 325.968 3324.64 324.244 3329.51 322.417C3339.31 318.738 3350.22 314.643 3361.78 310.154L3377.18 304.19L3387.05 300.269C3400.25 295.091 3412.8 290.012 3419.77 287.164L3436.65 280.167L3452.32 273.559L3462.75 269.077L3464.53 268.356L3471.76 265.247L3479.38 261.88L3498.77 253.414L3505.27 250.554L3513.93 246.677C3514.64 246.974 3515.3 247.352 3515.9 247.803C3517.13 248.832 3518.5 249.136 3518.99 248.458C3519.47 247.78 3522.05 247.964 3524.79 248.917C3526.76 249.739 3528.91 250.111 3531.06 250.002C3532.92 249.131 3540.38 254.811 3540.35 256.995C3540.45 258.259 3541.41 259.349 3542.77 259.744ZM77.531 305.91C79.0508 305.164 80.5706 304.408 82.0376 303.678L82.0508 303.672C86.9009 301.266 91.1692 299.148 92.5303 298.623C93.3232 298.314 95.4114 297.293 98.2263 295.917L98.2395 295.912C101.649 294.246 106.102 292.065 110.635 289.998C113.926 288.518 117.19 286.991 120.48 285.458C122.437 284.549 124.393 283.637 126.348 282.731L134.542 279.106C139.418 276.886 145.365 274.376 151.246 271.894L151.259 271.89C154.51 270.517 157.748 269.153 160.774 267.852L177.346 261.105C178.35 260.67 187.826 256.81 198.596 252.715L213.609 247.003L219.014 245.033L224.168 243.017C240.053 236.599 280.716 221.461 322.212 207.919C332.811 204.358 344.176 200.816 353.81 197.881C357.312 196.816 360.589 195.801 363.549 194.887C368.73 193.286 372.893 191.997 375.43 191.305L375.707 191.223C399.191 184.367 457.84 167.24 536.603 150.411C576.236 142.004 620.943 133.768 668.65 126.379C716.357 118.989 767.131 113.024 818.723 108.655C918.353 100.294 1018.6 97.7895 1118.84 101.159C1188.95 103.13 1258.88 109.904 1328.01 121.422C1358.09 126.05 1403.79 136.079 1429.45 142.703C1435.93 144.178 1442.1 145.953 1447.85 147.639L1463.5 152.119L1480.05 156.854C1482.41 157.645 1485.19 158.524 1486.35 158.861C1487.51 159.2 1490.12 160.036 1492.26 160.783C1492.59 160.896 1493.39 161.154 1494.61 161.545C1501.45 163.748 1521.42 170.174 1542.95 178.66C1554.18 182.645 1566.05 187.612 1576.86 192.139L1579.44 193.218C1580.13 193.504 1580.81 193.788 1581.48 194.068C1593.47 199.067 1603.48 203.669 1608.99 206.308C1611.36 207.4 1613.75 208.483 1616.16 209.575C1620.85 211.699 1625.61 213.854 1630.39 216.161L1652.28 227.026C1659.76 230.639 1667.2 234.597 1674.77 238.634C1677 239.826 1679.25 241.019 1681.51 242.217L1681.52 242.218L1681.53 242.227C1686.93 245.083 1692.37 247.969 1697.76 250.948C1728.74 267.887 1760.64 286.923 1793.43 306.558C1798.9 309.834 1804.4 313.134 1809.92 316.448L1809.92 316.449C1837.48 333.002 1865.63 349.916 1894.61 365.999C1929.26 385.501 1965.02 403.369 2001.72 419.527L2017.82 426.284L2018.32 426.498C2023.41 428.675 2028.38 430.8 2033.4 432.568L2063.17 443.677C2067.06 444.942 2070.89 446.201 2074.66 447.442C2089.69 452.388 2103.79 457.03 2117.44 460.458C2120.41 461.255 2123.32 462.082 2126.19 462.897C2131.6 464.434 2136.85 465.927 2142.1 467.093L2165.4 472.465L2176.51 475.022C2178.83 475.571 2181.15 475.98 2183.46 476.387C2184.78 476.621 2186.1 476.854 2187.42 477.113L2208.42 480.965C2218.54 483.002 2228.47 484.332 2238.19 485.635H2238.2C2241.54 486.083 2244.86 486.529 2248.15 486.998L2267.27 489.649L2286.36 491.454L2305.45 493.221L2315.12 494.128C2318.35 494.212 2321.62 494.298 2324.88 494.691L2365.7 496.835H2365.7C2373.62 497.043 2383.69 497.307 2395.14 497.376C2398.81 497.398 2402.63 497.472 2406.56 497.548C2414.87 497.708 2423.69 497.878 2432.76 497.594L2473.7 496.938L2513.02 495.166C2525.13 494.731 2537.57 493.752 2549.78 492.791L2550.55 492.732C2554.37 492.431 2558.17 492.156 2561.93 491.882H2561.93C2570.42 491.266 2578.69 490.668 2586.48 489.834C2595.35 488.911 2603.64 488.078 2611.01 487.335H2611.01H2611.01C2622.28 486.2 2631.41 485.281 2637.17 484.595C2642.85 483.888 2648.32 483.217 2653.6 482.569L2653.6 482.568C2675.3 479.905 2693.71 477.647 2709.36 474.968L2735.62 471.048L2756.55 467.527L2786.01 462.501C2790.83 461.663 2794.94 460.867 2798.64 460.15L2798.65 460.148C2800.84 459.723 2802.9 459.325 2804.87 458.963C2807.6 458.436 2810.86 457.815 2814.47 457.127L2814.51 457.119L2814.52 457.118C2828.02 454.546 2846.35 451.054 2859.9 448.079C2868.53 446.233 2879.28 443.98 2889.72 441.796L2917.31 435.453L2936.66 431.007L2963.99 424.236C2980.36 420.328 2998.94 415.37 3018.21 410.229L3018.21 410.228L3018.23 410.224C3023.01 408.948 3027.83 407.661 3032.67 406.375C3081.28 393.097 3130.98 377.812 3156.18 369.871L3196.86 356.691C3207.68 352.995 3218.1 349.474 3226.52 346.633L3226.52 346.63L3226.58 346.611C3228.94 345.815 3231.13 345.072 3233.14 344.395C3267.73 332.4 3302.98 319.961 3357.76 298.742L3373.99 292.448L3383.85 288.52C3388.41 286.693 3392.66 284.96 3397.2 283.111L3397.21 283.106L3397.22 283.105C3402.16 281.092 3407.44 278.939 3413.84 276.368C3414.92 275.912 3416.28 275.342 3417.8 274.705C3421.82 273.021 3426.95 270.87 3430.94 269.136L3446.44 262.592C3459.11 257.241 3471.78 251.787 3484.45 246.231L3509.35 235.058C3510.25 233.74 3511.03 232.362 3511.69 230.933C3512.67 228.237 3514.36 225.797 3516.6 223.806C3517.86 223.225 3518.8 220.407 3518.62 217.523C3518.62 212.785 3516.49 208.21 3512.72 204.812L3499.13 210.907L3493.11 213.553L3474.84 221.407L3467.65 224.52L3460.85 227.453L3459.17 228.137L3449.3 232.295L3434.49 238.434L3418.52 244.927L3387.63 257.172C3383.46 258.765 3379.29 260.378 3375.22 261.947C3367 265.123 3359.24 268.117 3353.02 270.396C3332.07 278.486 3297.34 291.477 3275.71 299.089C3261.05 304.387 3230.73 314.959 3193.25 327.339C3155.77 339.719 3111.12 353.562 3067.52 365.935C3023.92 378.309 2982.24 389.312 2950.89 396.707L2929.56 401.909L2913.02 405.661L2898.04 409.107L2886.9 411.58C2882.66 412.597 2877.38 413.677 2871.46 414.886L2871.46 414.887C2867.91 415.613 2864.14 416.383 2860.22 417.216C2849.78 419.439 2837.69 421.963 2826.43 424.011L2798.34 429.264C2796.49 429.599 2794.41 429.991 2792.11 430.423C2788.18 431.163 2783.61 432.022 2778.44 432.929L2749.5 437.738L2732.24 440.627L2713.14 443.427C2708.41 444.071 2703.56 444.79 2698.6 445.524L2698.59 445.526C2689.63 446.853 2680.29 448.236 2670.62 449.341C2603.83 458.186 2536.47 463.652 2468.86 465.711L2428.18 466.334C2422.67 466.49 2417.13 466.387 2411.61 466.283C2410.1 466.255 2408.59 466.226 2407.09 466.204L2386.39 465.892L2366.6 465.372L2348.53 464.439L2319.5 462.91L2291.29 460.328L2277.92 459.095L2271.43 458.463L2265.07 457.606L2240.67 454.28L2228.94 452.666C2226.55 452.34 2224.19 451.893 2221.84 451.449L2221.84 451.447C2220.44 451.183 2219.04 450.919 2217.64 450.681C2189.56 445.942 2161.75 439.868 2134.34 432.486L2114.27 426.892C2109.61 425.721 2105.05 424.194 2100.45 422.65L2100.45 422.649C2098.31 421.934 2096.17 421.214 2093.99 420.525C2087.14 418.349 2080.24 416.094 2073.17 413.682L2051.75 405.633L2040.57 401.5L2029.27 396.751C2026.66 395.635 2024.01 394.532 2021.34 393.417C2016.17 391.261 2010.89 389.062 2005.56 386.645L1980.45 375.005C1975.05 372.441 1969.52 369.644 1963.85 366.779L1963.85 366.777C1960.54 365.102 1957.18 363.402 1953.77 361.712C1910.4 339.782 1856 307.141 1823.55 287.667L1823.54 287.664L1823.51 287.648C1819.6 285.301 1816.01 283.146 1812.8 281.224C1761.55 250.585 1710.51 220.948 1657.01 194.704C1603.26 168.142 1547.07 145.83 1489.09 128.023L1452.98 117.786C1448.74 116.527 1444.58 115.474 1440.55 114.455L1440.53 114.45C1439.31 114.139 1438.09 113.833 1436.9 113.525L1422.05 109.949C1418.1 109.03 1414.32 108.129 1410.69 107.265C1405.6 106.053 1400.82 104.913 1396.31 103.899L1375.4 99.7414C1371.12 98.9075 1367.22 98.1212 1363.71 97.4116L1363.69 97.4089C1357.1 96.0794 1351.84 95.0169 1347.92 94.413L1338 92.8483L1335.51 92.4373L1318.71 89.7704L1301.53 87.0547C1297.13 86.3728 1292.4 85.8204 1287.39 85.2376C1284.93 84.9509 1282.41 84.6561 1279.83 84.3364C1248.59 80.1761 1209.08 76.838 1174.81 74.672L1123.53 72.2153L1104.33 71.7131C1103.17 71.7607 1102.01 71.7303 1100.86 71.6219L1090.39 71.347C1083.16 71.1581 1071.76 70.8594 1054.55 70.7153C1049.17 70.7669 1043.24 70.7881 1036.68 70.8105C1001.27 70.9374 948.008 71.1263 869.681 76.431C860.682 77.1168 852.858 77.6758 846.079 78.1608L846.052 78.1622L846.039 78.1635C834.502 78.9894 826.018 79.596 819.965 80.2357L807.027 81.4316L805.614 81.3947C805.098 81.3814 803.631 81.5427 800.473 81.8902C797.261 82.243 792.319 82.7875 784.839 83.5381L783.861 83.6333C776.54 84.3456 767.038 85.2693 754.656 86.8565C750.321 87.4116 745.682 87.9415 740.7 88.511L740.687 88.5124C730.802 89.641 719.569 90.9229 706.763 92.8589L668.333 98.3406L633.947 104.428C619.067 106.686 604.953 109.385 590.865 112.075C584.522 113.286 578.192 114.496 571.809 115.663C530.894 123.998 487.429 133.035 424.141 150.191C421.591 150.902 418.564 151.722 415.195 152.637L415.168 152.645L415.142 152.65C408.877 154.35 401.438 156.37 393.641 158.608L357.814 169.188L323.705 179.813L297.208 188.68C292.57 190.176 285.632 192.63 277.637 195.458C275.575 196.188 273.448 196.944 271.254 197.714C260.615 201.467 249.065 205.735 238.903 209.576C237.898 209.956 236.907 210.329 235.916 210.702L233.974 211.429L233.96 211.438C229.718 213.025 225.595 214.576 221.591 216.188L207.397 221.767C206.552 222.09 205.732 222.406 204.913 222.715V222.716C202.098 223.785 199.455 224.788 196.971 225.795L180.188 232.535C178.06 233.349 175.02 234.586 171.822 235.889C168.531 237.233 165.056 238.648 162.228 239.744C146.858 246.061 136.683 250.594 130.009 253.606L115.155 260.359C103.816 265.514 92.5964 270.865 81.3767 276.446C80.9934 276.636 80.4651 276.901 79.791 277.241L79.7778 277.245C74.333 279.975 59.5186 287.414 41.0173 297.85C42.6428 298.483 44.4136 298.754 46.1711 298.638C46.9375 298.658 47.4397 299.67 47.2019 301.161C46.647 304.985 51.3782 311.368 56.2544 313.915C57.0872 314.384 57.8801 314.932 58.5938 315.551L60.4966 314.525C62.7563 313.496 67.7383 310.936 72.8792 308.3C74.4385 307.497 76.0112 306.686 77.531 305.91ZM9.02271 271.134C12.9346 268.74 16.7935 269.839 15.3398 272.336C12.7893 276.571 18.4983 287.78 23.7317 288.341C25.1721 288.494 26.5464 289.009 27.6829 289.826C35.5725 285.232 43.9905 280.729 53.7039 275.608C72.0466 265.987 90.4158 257.098 108.957 248.598C109.75 248.24 110.9 247.715 112.274 247.082C115.948 245.399 121.274 242.955 126.018 240.903L141.136 234.31L159.281 226.644C165.413 223.927 170.91 221.84 173.5 220.857C174.373 220.529 174.901 220.323 175.033 220.259L183.213 217.056L223.983 201.149C228.027 199.642 231.925 198.177 235.612 196.784C242.656 194.133 248.999 191.747 254.272 189.846L269.589 184.179C272.324 183.176 298.398 173.989 327.974 164.587C352.197 156.887 376.038 149.95 386.861 146.798L386.874 146.796C389.266 146.101 391.011 145.589 392.002 145.296L432.097 134.672C437.449 133.357 443.092 131.929 448.933 130.448L448.946 130.446C462.36 127.047 476.844 123.377 491.486 120.175C494.843 119.414 498.253 118.618 501.649 117.827C509.155 116.078 516.609 114.34 523.322 112.983L545.127 108.446C568.518 103.452 627.577 91.4052 706.38 80.874C798.649 68.6168 891.777 61.5135 985.236 59.6079C993.825 59.259 1002.44 59.2472 1011.07 59.2366C1015.14 59.23 1019.23 59.2247 1023.3 59.1837C1036 59.0555 1048.71 59.004 1061.36 59.1441L1099.24 59.8683L1118.05 60.3612C1122.25 60.4709 1126.48 60.685 1130.68 60.8978C1132.76 61.0035 1134.83 61.1078 1136.89 61.2004L1174.11 63.0201L1183.32 63.262L1192.44 63.9993L1210.58 65.5125C1214.67 65.8667 1218.71 66.1984 1222.74 66.5287H1222.75C1230.6 67.171 1238.37 67.8067 1246.07 68.5917L1280.45 72.6805L1297.09 74.6906C1300.88 75.1914 1304.66 75.8019 1308.39 76.4058L1308.4 76.4072C1310.04 76.6715 1311.67 76.9358 1313.29 77.1895L1344.52 82.1558L1352.04 83.3505L1359.43 84.8121L1373.82 87.6851L1401.12 93.1628L1448.59 104.583L1485.48 115.035C1490.97 116.496 1496.92 118.436 1503.16 120.472L1503.17 120.477C1505.3 121.173 1507.47 121.88 1509.66 122.581L1536.24 131.303L1561.68 140.766C1569.74 143.703 1577.11 146.431 1583.1 149.007C1586.96 150.607 1590.76 152.166 1594.43 153.673C1602.33 156.911 1609.61 159.899 1615.51 162.492L1631.09 169.543C1633.32 170.562 1635.97 171.745 1637.08 172.197C1638.2 172.647 1640.68 173.75 1642.69 174.725C1642.91 174.831 1643.36 175.047 1644.02 175.363L1644.03 175.366L1644.03 175.368C1649.47 177.972 1669 187.32 1690.25 198.206C1714.11 210.429 1741.55 225.856 1751.72 231.654C1777.57 246.463 1805.29 262.934 1834.17 280.244C1863.04 297.552 1893.2 315.432 1924.44 332.764C1955.88 350.183 1988.26 366.193 2021.45 380.737C2054.72 395.202 2089.09 407.5 2124.29 417.533L2139.56 421.774C2140.82 422.116 2142.07 422.465 2143.32 422.813C2147.02 423.846 2150.65 424.86 2154.32 425.617L2182.43 432.077C2185.85 432.992 2189.52 433.646 2193.09 434.282C2193.99 434.443 2194.89 434.605 2195.78 434.768L2208.67 437.142L2221.12 439.389C2225.16 440.185 2229.16 440.904 2233.15 441.393L2256.23 444.532C2258.58 444.836 2260.9 445.17 2263.18 445.501C2268.14 446.216 2272.96 446.911 2277.72 447.246L2317.63 450.98C2324.75 451.317 2331.69 451.7 2338.51 452.077H2338.51C2356.06 453.047 2372.81 453.972 2389.83 453.946C2401.63 454.256 2413.42 454.565 2425.61 454.347L2463.42 453.763C2468.54 453.896 2474.62 453.572 2481.42 453.212C2484.39 453.053 2487.5 452.888 2490.73 452.751C2493.06 452.65 2495.46 452.552 2497.91 452.452C2506.6 452.098 2515.98 451.716 2525.62 451.129C2529.59 450.846 2533.61 450.565 2537.66 450.281C2558.91 448.791 2580.98 447.244 2600.14 445.133C2603.73 444.738 2607.35 444.34 2611 443.94C2630.59 441.788 2650.84 439.566 2668.36 437.434C2680.08 436.008 2690.75 434.458 2699.42 433.197H2699.42H2699.43C2706.13 432.223 2711.63 431.422 2715.5 430.989C2725.66 429.618 2735.1 428.014 2743.83 426.531C2746.78 426.029 2749.65 425.543 2752.44 425.082C2755.56 424.568 2758.6 424.083 2761.57 423.61C2769.13 422.404 2776.2 421.28 2782.65 419.959L2826.67 411.742L2872.05 402.14L2923.48 390.661C2929.01 389.308 2935.51 387.749 2942.21 386.143L2942.22 386.142C2954.94 383.091 2968.36 379.874 2977.13 377.589C2980.21 376.773 2984.08 375.77 2988.6 374.597L2988.61 374.595C2997.26 372.351 3008.3 369.49 3020.81 366.136C3039.87 361.029 3062.38 354.745 3085.12 347.967C3130.68 334.644 3177.33 319.659 3200.95 311.714C3212.23 307.94 3226.03 303.308 3239.09 298.697C3242.75 297.408 3246.35 296.14 3249.84 294.915C3258.82 291.759 3267.01 288.882 3273.18 286.609C3289.14 280.947 3305.18 274.952 3323.61 268.064L3323.62 268.062L3324.54 267.717L3362.62 253.16L3382.32 245.535L3410.67 234.219L3426.81 227.615L3441.45 221.547C3444.35 220.355 3460.59 213.599 3477.3 206.356L3497.57 197.363C3492.34 196.894 3487.07 197.196 3481.97 198.26C3480.41 198.948 3478.92 198.179 3477.91 196.579C3476.57 194.712 3474.64 193.242 3472.36 192.363C3469.49 191.289 3468.81 190.581 3469.86 189.609C3470.65 188.441 3470.66 186.978 3469.91 185.77C3469.11 184.405 3469.09 183.021 3469.95 182.699C3470.82 182.377 3470.79 181.185 3470.2 180.133C3469.61 179.081 3469.63 177.967 3470.24 177.638C3472.97 176.403 3473.3 170.882 3470.85 166.785C3469.62 165.088 3469.03 163.094 3469.17 161.096C3470.05 159.659 3465.64 154.244 3462.43 152.815C3457.07 153.637 3451.93 155.269 3447.21 157.64C3438.55 161.253 3433.11 162.877 3431.91 162.193C3428.62 162.043 3425.37 162.774 3422.58 164.291C3419.3 165.902 3415.6 166.73 3411.83 166.698C3409.62 166.332 3407.36 166.88 3405.69 168.189C3404.08 169.414 3402.18 170.093 3401.37 169.689C3397.61 170.25 3394.03 171.461 3390.82 173.251C3386.52 175.269 3381.98 176.863 3377.28 178.005C3374.9 178.288 3372.69 179.305 3372.34 180.295C3371.98 181.284 3370.07 182.118 3367.7 182.247C3365.01 182.552 3362.48 183.524 3360.39 185.051C3358.04 186.948 3356.83 187.224 3356.07 186.052C3354.94 183.91 3344.68 187.558 3344.39 190.2C3344.37 191.621 3343.16 191.82 3340.38 190.978C3337.59 190.138 3336.43 190.261 3335.71 192.086C3335 193.909 3334.31 194.122 3332.47 192.999C3330.64 191.876 3330.03 192.013 3329.79 193.697C3329.48 195.002 3328.21 195.935 3326.71 195.958C3325.2 195.92 3324.24 196.624 3324.58 197.285C3324.91 197.947 3322.83 199.467 3319.93 200.582L3279.45 217.187C3254.42 227.63 3197.83 248.689 3153.98 262.979L3118.22 274.754L3083.63 285.637L3042.82 298.009C3037.65 299.571 3032.61 300.99 3027.8 302.343C3025.21 303.072 3022.69 303.781 3020.26 304.484C3017.49 305.256 3014.98 305.921 3012.83 306.44C3010.5 307.221 3008.03 307.649 3005.53 307.709C3005.07 307.158 3004.46 307.104 3004.2 307.673C3002.91 308.276 3001.57 308.767 3000.17 309.143C2997.66 309.998 2994.03 311.208 2989.54 312.513L2954.74 322.661L2897.14 338.395L2873.84 345.119L2848.17 352.511C2844.47 353.569 2841.01 354.564 2837.74 355.506L2837.74 355.507C2824.79 359.235 2814.71 362.141 2803.23 364.813L2771.87 372.363C2762.38 374.54 2753.96 376.391 2746.31 378.075L2746.3 378.078H2746.3C2741.83 379.061 2737.62 379.986 2733.61 380.886L2718.15 384.32L2703.78 387.055C2698.63 388.019 2693.47 389.026 2688.32 390.033L2688.31 390.036L2688.3 390.037C2679.6 391.738 2670.88 393.443 2662.12 394.95C2655.31 396.115 2645.21 397.618 2633.52 399.27C2621.83 400.923 2608.59 402.457 2595.53 403.767C2569.44 406.731 2544.19 408.105 2533.94 408.297L2519.26 408.642L2503.5 408.728L2474.61 408.893C2470.59 408.955 2465.95 408.878 2458.82 408.763H2458.82H2458.81C2456.08 408.719 2452.98 408.668 2449.42 408.617L2425.06 408.325L2408.36 407.887L2388.05 407.048L2377.63 406.775C2373.33 406.662 2367.95 406.521 2362.4 406.069L2326.01 403.732C2321.99 403.627 2317.82 403.135 2313.54 402.63C2311.32 402.367 2309.07 402.102 2306.79 401.885L2286.88 399.751L2277.42 398.734L2268.83 397.396L2254.78 395.183C2252.17 394.759 2249.61 394.359 2247.09 393.964H2247.08C2243.08 393.339 2239.18 392.729 2235.36 392.063L2217.33 388.404L2199.33 384.898L2180.88 380.574C2178.65 380.029 2176.39 379.498 2174.09 378.958C2169.85 377.96 2165.47 376.927 2160.8 375.708L2138.45 369.362C2132.06 367.727 2125.45 365.524 2118.42 363.179C2116.62 362.579 2114.8 361.971 2112.94 361.359L2098.7 356.723C2095.33 355.52 2091.87 354.206 2088.32 352.854C2086.73 352.25 2085.12 351.638 2083.5 351.025C2047.39 337.365 2012.35 321.484 1978.65 303.5C1944.96 285.719 1912.88 266.484 1885.2 249.821C1879.78 246.53 1865.08 238.042 1852.22 230.754C1843.65 226.156 1835.42 221.066 1827.58 215.514C1827.04 214.443 1825.73 213.847 1824.46 214.088C1823.11 214.352 1821.7 214.106 1820.55 213.41C1819.4 212.727 1808.2 206.558 1794.9 199.681C1792.67 198.511 1790.19 197.201 1787.51 195.789L1787.49 195.778C1782.3 193.041 1776.37 189.916 1770.15 186.666L1743.37 173.099C1738.44 170.709 1732.71 167.862 1726.25 164.651L1726.24 164.647L1726.24 164.646C1703.63 153.41 1672.03 137.709 1634.02 121.424C1580.01 98.2137 1524.13 78.774 1466.88 63.2791C1412.65 49.0251 1357.56 37.7076 1301.91 29.3859C1291.87 28.0908 1282.34 26.7745 1273.43 25.5442C1261.46 23.8883 1250.6 22.3884 1241.1 21.3021C1238.43 20.9968 1235.86 20.7061 1233.42 20.4273C1220.68 18.9775 1210.99 17.8754 1205.08 16.9794C1200.26 16.2764 1185.61 14.2795 1172.58 13.4008L1136.37 10.34L1121.88 9L1111.89 8.24011C1108.55 7.92163 1090.98 7.03882 1072.83 6.29352C1067.25 6.06616 1061.86 5.86407 1057.01 5.6817H1056.99C1046.05 5.27069 1037.89 4.96539 1036.72 4.6958C1032.43 3.96893 989.108 1.64307 962.664 2.02496C957.92 2.25757 953.136 1.91272 948.471 1.00085C939.326 -0.0180664 930.102 -0.259888 920.93 0.279297C906.539 0.7854 892.2 1.13959 889.094 1.01935C886.002 0.900391 873.99 0.815796 862.492 1.28229C850.982 1.74878 837.33 2.12146 832.335 2.18225C826.005 2.28534 820.018 2.39771 813.82 2.61841C807.834 2.83246 801.556 3.28967 794.5 3.80377L793.733 3.85925L768.267 5.91821C758.488 6.66089 747.189 7.90051 733.775 9.46912L704.49 12.7729C698.504 13.4417 692.755 14.2478 687.244 15.0209C684.297 15.4332 681.429 15.8363 678.615 16.2037L655.673 19.4427C647.202 20.6017 638.943 21.98 630.842 23.3307C625.199 24.2729 619.635 25.202 614.124 26.0358L594.394 29.3595L575.403 32.9316C551.748 37.2213 529.626 41.9299 508.785 46.3676L508.732 46.3781C504.807 47.2147 500.935 48.0406 497.09 48.8533C472.866 53.9795 450.757 59.4678 430.313 64.8081C391.46 74.491 358.911 83.9941 331.146 92.1003L326.599 93.4271C282.302 106.868 251.365 117.433 229.057 125.05V125.053L229.018 125.062C222.661 127.236 216.992 129.17 211.917 130.862C198.504 135.756 184.8 140.011 170.857 143.611C169.893 143.806 168.888 144.06 167.818 144.328L167.804 144.332C167.395 144.437 166.972 144.544 166.536 144.65C166.311 144.724 166.1 144.788 165.875 144.844C165.69 144.89 165.505 144.931 165.32 144.964L164.554 144.943C163.761 145.095 163.06 145.45 162.505 145.966C156.889 150.024 150.783 153.509 144.294 156.357C141.44 157.867 139.022 159.929 137.185 162.391C136.141 164.383 134.04 165.765 131.582 166.085C122.675 166.235 114.309 170.433 119.41 172.218C122.186 173.213 110.715 178.519 107.754 177.712C104.794 176.904 98.0676 180.799 92.1868 186.175C89.7419 188.553 86.7949 190.462 83.491 191.784C76.9363 194.866 71.1746 199.135 66.5757 204.322C63.5493 207.038 60.1663 209.423 56.4922 211.432C53.1091 213.229 50.1489 215.604 47.7966 218.423C45.2725 221.169 42.114 223.39 38.5327 224.939C34.198 227.207 30.3259 229.986 30.2732 231.059C27.4714 234.809 24.0222 238.14 20.0708 240.931C16.0667 243.594 12.7366 246.953 10.252 250.812C10.2388 251.695 9.08887 253.354 7.05371 254.569C4.70142 256.163 2.85156 258.268 1.67529 260.688C1.02783 261.889 0.565186 263.169 0.327393 264.492C-0.095459 265.524 -0.108887 266.664 0.287598 267.717C1.46387 270.129 2.73242 271.622 4.27881 271.969C5.05835 272.195 5.9043 272.217 6.68408 272.033C7.54297 271.899 8.33569 271.592 9.02271 271.134Z" fill="white"/>
</svg>
