<svg width="1440" height="695" viewBox="0 0 1440 695" fill="none" xmlns="http://www.w3.org/2000/svg">
<path d="M1440 101H-26V564H1440V101Z" fill="#77B341"/>
<mask id="mask0_723_286" style="mask-type:luminance" maskUnits="userSpaceOnUse" x="-119" y="421" width="1610" height="274">
<path d="M1491 421H-119V694.722H1491V421Z" fill="white"/>
</mask>
<g mask="url(#mask0_723_286)">
<path fill-rule="evenodd" clip-rule="evenodd" d="M-209.437 401.99C-150.798 421.51 211.862 506.962 286.009 517.473C881.607 639.438 1234.63 436.132 2100.69 411.078C2615.33 406.238 2881.97 443.856 3173.57 495.784V658.059H-209.437V401.99Z" fill="#F0F2F9"/>
<path d="M-2.71286 461.945C-11.363 459.58 -28.3247 454.946 -34.8315 453.155C-37.577 452.404 -41.1504 451.411 -42.7299 450.98C-44.2736 450.511 -47.5116 449.525 -49.9204 448.816L-54.7393 447.362L-55.5672 447.12L-58.8803 446.119L-62.3818 445.051C-66.0329 443.971 -69.7974 442.841 -71.3411 442.372L-74.3145 441.485C-75.0677 441.259 -78.5676 440.227 -81.1279 439.452C-83.2952 440.305 -84.6686 441.491 -85.2083 443.063C-85.5136 443.904 -85.2241 444.724 -84.6217 444.92C-84.0182 445.115 -83.0904 446.075 -82.5714 447.068C-82.3323 447.51 -82.019 447.933 -81.6701 448.317C-78.7332 449.224 -74.3647 450.586 -69.4692 452.091L-50.9805 457.772C-49.4755 458.206 -46.0142 459.185 -43.3053 459.955C-40.5963 460.726 -36.7965 461.8 -34.877 462.364C-28.8192 464.099 -24.7936 465.238 -20.1281 466.571C-17.6083 467.258 -13.1274 468.633 -9.85925 469.42C-4.70941 470.754 -0.0483807 471.961 4.23691 473.072C13.7836 475.514 22.3959 477.862 30.6978 479.861C39.0356 481.821 46.8476 483.657 54.3594 485.43C61.8712 487.204 69.0091 488.936 76.3618 490.427C84.0929 492.084 95.2385 494.451 106.985 496.959C118.839 499.336 131.398 501.671 141.637 503.673C146.1 504.544 153.076 505.921 161.845 507.416L162.632 507.568C168.067 508.531 174.101 509.598 180.735 510.771C187.368 511.944 194.53 513.279 202.355 514.464C233.9 519.663 282.272 526.793 339.888 533.053C397.504 539.331 464.465 544.484 531.718 547.315C598.972 550.218 666.406 550.84 724.477 549.989C738.999 549.907 752.913 549.467 766.124 549.161C772.71 548.999 779.149 548.843 785.363 548.694L803.402 548.019C815.006 547.571 825.721 547.227 835.426 546.791C845.129 546.303 853.829 545.867 861.338 545.475C880.34 544.62 897.726 543.389 913.113 542.446C928.537 541.556 941.867 540.414 952.827 539.628C959.55 539.119 967.164 538.541 975.15 537.934C983.133 537.235 991.486 536.505 999.767 535.777C1008.01 535.034 1016.18 534.383 1023.71 533.646C1031.25 532.892 1038.15 532.213 1043.98 531.627C1067.29 529.409 1087.95 526.979 1090.14 526.757L1095.88 526.084L1101.34 525.475C1102.41 525.329 1108.28 524.76 1116.81 523.716C1125.34 522.674 1136.53 521.301 1148.51 519.829C1160.53 518.427 1173.46 516.542 1184.84 515.055C1196.18 513.515 1205.93 512.23 1211.19 511.412C1224.57 509.42 1238.65 507.423 1253.13 505.212C1267.57 502.893 1282.62 500.572 1297.98 498.041C1313.35 495.419 1329.12 492.73 1345.22 489.991C1361.55 487.282 1378.21 484.523 1395.13 481.72C1403.58 480.319 1412.09 478.898 1420.68 477.492C1424.98 476.779 1429.28 476.068 1433.56 475.356C1437.86 474.661 1442.28 474.089 1446.65 473.447C1464.14 470.948 1481.77 468.409 1499.49 465.885C1508.35 464.613 1517.2 463.342 1526.06 462.089L1532.69 461.132L1539.4 460.316L1552.79 458.685C1570.67 456.515 1588.47 454.35 1606.12 452.207C1611.38 451.568 1616.53 450.934 1621.58 450.322C1626.62 449.71 1631.59 449.082 1636.49 448.62C1646.29 447.639 1655.68 446.693 1664.74 445.775C1682.85 443.959 1699.5 442.285 1715.1 440.72C1730.64 439.013 1745.2 438.063 1758.87 436.928C1772.57 435.846 1785.43 434.812 1797.72 433.834C1810.05 432.891 1821.78 431.843 1833.31 431.091C1844.86 430.41 1856.13 429.739 1867.45 429.066C1878.79 428.393 1890.13 427.72 1901.8 427.036C1907.63 426.684 1913.54 426.348 1919.61 425.988C1922.62 425.809 1925.66 425.629 1928.75 425.447C1931.83 425.337 1934.95 425.208 1938.12 425.079C1952.21 424.524 1974.08 423.676 1997.89 422.74C2003.83 422.511 2009.94 422.276 2016.04 422.024C2022.14 421.808 2028.31 421.481 2034.37 421.427C2046.54 421.195 2058.53 420.967 2069.55 420.757C2080.56 420.547 2091.96 420.305 2103.12 420.089C2108.7 419.981 2114.21 419.877 2119.6 419.757C2125 419.638 2130.25 419.542 2135.28 419.58C2155.42 419.587 2172.26 419.585 2180.83 419.588C2233.18 419.283 2266.15 420.496 2288.62 420.872C2311.06 421.376 2322.9 421.497 2332.49 421.879C2344.29 422.363 2366.77 423.298 2382.52 423.95C2390.35 424.285 2400.19 424.676 2409.7 425.079C2419.22 425.481 2428.42 425.805 2434.93 426.296C2443.7 426.834 2458.92 427.773 2477.56 428.936C2486.88 429.508 2497.04 430.14 2507.68 430.809C2513.02 431.143 2518.42 431.476 2523.94 431.821C2529.43 432.222 2534.97 432.73 2540.54 433.164C2562.76 435.012 2585.39 436.899 2605.38 438.573L2619.84 439.775C2624.46 440.134 2628.77 440.685 2632.92 441.079C2641.14 441.943 2648.32 442.7 2654.12 443.306C2665.18 444.466 2678.72 445.882 2691.61 447.229C2698.04 447.904 2704.35 448.564 2710.07 449.174C2715.83 449.745 2720.99 450.321 2725.18 450.894C2741.01 452.915 2757.07 454.945 2775.54 457.304C2784.79 458.475 2794.63 459.732 2805.36 461.103L2813.6 462.146C2816.36 462.536 2819.18 462.978 2822.05 463.399C2827.82 464.259 2833.81 465.166 2840.1 466.116C2856.24 468.559 2879.94 472.123 2892.79 474.068C2898.81 474.992 2904.65 475.832 2910.46 476.763C2916.23 477.714 2922 478.682 2927.99 479.679C2934.03 480.711 2940.52 481.817 2948.34 483.146L2957.83 484.796L2966.4 486.315C2968.09 486.634 2977.58 488.355 2987.48 490.17L3001.34 492.766C3002.2 492.699 3003.17 492.575 3004.09 492.416C3006.17 492.053 3008.46 491.881 3009.18 492.018C3009.89 492.155 3011.56 491.807 3012.91 491.218C3015.48 490.134 3016.85 488.947 3017.18 487.636C3014.26 487.053 3010.27 486.256 3009.45 486.087L3006.04 485.413L2995.81 483.411L2991.75 482.635L2987.92 481.922L2986.99 481.738L2981.44 480.689L2973.15 479.142C2971.36 478.808 2967.34 478.067 2964.24 477.49L2956.85 476.146L2952.13 475.284L2940.69 473.289C2932.79 471.962 2924.81 470.603 2916.9 469.277C2908.95 467.988 2901.06 466.842 2893.5 465.665C2878.32 463.352 2864.36 461.211 2853.05 459.5C2843.28 458.042 2830.36 455.991 2817.3 454.107C2804.09 452.41 2790.84 450.695 2780.7 449.394C2773.85 448.499 2763.34 447.139 2750.2 445.439C2743.62 444.589 2736.4 443.654 2728.65 442.647C2720.91 441.604 2712.42 440.858 2703.68 439.868C2668.42 436.209 2626.88 431.274 2586.13 428.224C2565.84 426.525 2545.97 424.847 2527.55 423.298C2508.96 422.116 2491.87 421.044 2477.28 420.117C2462.68 419.191 2450.58 418.428 2442.04 417.883C2433.48 417.338 2428.52 417.027 2428.16 417.04C2428.04 417.044 2412.33 416.355 2392.94 415.527C2373.54 414.699 2347.77 413.592 2335.53 413.069C2326.32 412.637 2310.6 412.455 2290.28 411.967C2280.1 411.751 2268.81 411.501 2256.58 411.231C2244.33 411.016 2231.19 410.525 2217.27 410.622C2189.45 410.581 2158.87 410.546 2127.33 410.51C2095.72 411.09 2063.2 411.702 2031.52 412.285C2011.02 412.959 1987.74 413.947 1965.65 414.785C1954.61 415.214 1943.82 415.632 1933.84 416.022C1928.87 416.181 1924.07 416.477 1919.54 416.747C1915 417.016 1910.73 417.258 1906.78 417.506C1928.93 415.944 1951.18 415.335 1973.38 414.348L2006.7 412.986C2017.82 412.555 2028.9 411.981 2040.03 411.857C2084.43 411.039 2128.93 409.623 2173.26 409.999C2262.07 409.375 2350.41 412.415 2438.23 416.52L2503.81 420.547L2520.19 421.555L2528.4 422.058C2531.13 422.25 2533.82 422.497 2536.55 422.708L2569.04 425.4L2601.55 428.092L2617.79 429.429C2623.21 429.87 2628.63 430.309 2633.97 430.914L2698.31 437.64L2714.38 439.326C2719.73 439.894 2725.14 440.407 2730.39 441.123L2762.15 445.16C2783.29 447.893 2804.58 450.442 2825.61 453.343L2888.21 462.784C2898.63 464.383 2909.1 465.889 2919.49 467.56C2929.82 469.252 2940.13 470.98 2950.43 472.763C2971.12 476.325 2991.7 480.036 3012.13 483.897C3012.63 483.23 3012.93 482.28 3012.62 481.713C3012.45 481.413 3008.84 480.476 3004.57 479.616C2999.66 478.635 2996.73 477.854 2996.6 477.497C2996.51 477.176 2994.48 476.562 2992.04 476.107C2989.64 475.65 2987.27 474.94 2986.81 474.505C2986.3 474.053 2985.03 473.683 2983.76 473.62C2982.56 473.554 2981.52 473.321 2981.43 473.125C2981.35 472.911 2978.8 472.315 2975.72 471.811C2972.65 471.307 2969.28 470.596 2968.22 470.199C2967.16 469.822 2965.81 469.617 2965.22 469.746C2964.59 469.895 2963.47 469.7 2962.49 469.284C2961.59 468.901 2959.71 468.552 2958.33 468.511C2956.54 468.465 2955.93 468.289 2956.22 467.935C2956.36 467.768 2956.1 467.578 2955.6 467.398L2955.19 467.25C2955.19 467.25 2955.19 467.232 2954.81 467.155L2953.65 466.925L2948.56 465.986C2941.47 464.74 2933.79 463.604 2931.71 463.624C2929.44 463.65 2926.96 463.16 2922.22 461.812C2917.14 460.385 2914.71 460.02 2910.75 459.836C2906.81 459.669 2905.12 459.404 2902.58 458.482C2900.09 457.578 2898.71 457.356 2895.92 457.383C2893.99 457.416 2889.68 456.883 2886.34 456.225C2883.01 455.567 2880.12 455.181 2879.99 455.403C2879.84 455.607 2873.37 454.825 2865.62 453.656C2857.83 452.507 2837.95 449.546 2821.26 447.34C2808.77 445.87 2788.72 443.422 2766.57 440.669C2755.5 439.293 2743.9 437.827 2732.42 436.393C2720.93 434.995 2709.39 433.943 2698.81 432.765L2664.12 429.176C2654.39 428.167 2643.1 426.997 2630.81 425.718C2618.41 424.696 2604.96 423.584 2591.14 422.449C2583.45 421.82 2576.09 421.215 2569.32 420.66C2566.68 420.429 2564.28 420.207 2562.23 420.027C2558.16 419.648 2555.61 419.359 2555.53 419.254C2555.38 419.043 2554.92 418.933 2554.48 419.02C2554.37 419.024 2552.95 418.948 2550.42 418.785C2547.91 418.604 2544.32 418.352 2539.96 418.037C2531.25 417.299 2519.1 416.791 2505.92 416.014C2479.54 414.53 2454.24 413.171 2449.68 412.972C2445.13 412.808 2434.88 412.216 2426.75 412.035C2418.62 411.854 2407.25 411.608 2401.4 411.472C2383.21 411.16 2371.17 410.902 2357.19 410.513C2349.74 410.345 2336.06 409.873 2326.67 409.791C2297.39 409.584 2278.76 409.451 2260.66 409.317L2240.58 409.163L2230.52 409.087L2220.42 409.21C2194.18 409.636 2117.55 409.286 2098.07 409.851C2090.81 409.892 2077.8 409.956 2069.13 409.993C2060.46 410.048 2048.05 410.128 2041.54 410.178C2030.92 410.086 2015.59 410.666 1958.26 412.43C1953.58 412.596 1944.35 412.905 1933.3 413.279C1927.76 413.421 1921.81 413.813 1915.72 414.138C1909.62 414.48 1903.38 414.828 1897.36 415.168C1873.26 416.493 1840.96 418.289 1825.54 419.144C1798.02 421.203 1775.8 422.877 1748.84 424.899C1742.07 425.428 1735.05 425.965 1727.56 426.557C1720.1 427.237 1712.19 428.059 1703.65 428.904C1686.62 430.609 1667.09 432.566 1643.91 434.887C1624.34 436.665 1604.8 439.344 1585.22 441.628C1565.68 444 1546.21 446.353 1527.33 448.63C1489.86 453.985 1454.48 458.907 1424.76 463.282C1418.95 464.229 1403.58 466.851 1390.62 469.117C1377.67 471.381 1366.12 473.235 1364.93 473.242C1363.73 473.266 1362.44 473.51 1362.04 473.832C1361.64 474.134 1360.36 474.542 1359.17 474.728C1358.01 474.931 1346.88 476.915 1334.45 479.144C1322.41 481.376 1301.33 485.266 1287.56 487.831C1253.73 493.816 1175.45 506.47 1092.09 515.657C1050.55 520.525 1007.74 524.319 969.342 527.505C959.721 528.208 950.36 528.883 941.369 529.545C932.38 530.189 923.725 530.857 915.51 531.294C899.081 532.237 884.404 533.192 872.133 533.735L871.24 533.767L862.614 534.2C858.263 534.372 846.473 534.845 831.82 535.437C817.12 535.76 801.118 536.129 785.675 536.479C770.225 536.666 755.335 536.906 742.723 537.281C720.932 537.205 706.628 537.154 696.944 537.119C687.259 537.082 682.153 536.993 678.656 537.1C671.918 537.212 658.072 537.433 641.943 537.391C633.896 537.316 625.252 537.225 616.683 537.132C608.076 537.04 599.507 536.965 591.602 536.686C578.624 536.208 566.168 535.765 554.496 535.331C542.855 534.733 531.997 534.179 522.035 533.684C512.074 533.226 503.152 532.639 495.349 532.104C487.546 531.587 480.901 531.155 475.563 530.802L475.564 530.838C470.934 530.497 466.046 530.237 460.778 529.756C452.036 529.019 439.149 527.942 432.164 527.359C418.981 526.364 407.909 525.025 391.16 523.236C385.776 522.65 375.236 521.58 367.828 520.651C360.422 519.777 350.923 518.651 346.733 518.15C344.674 517.862 337.687 517.225 328.334 516.041C318.982 514.874 307.123 513.399 295.003 511.898C282.918 510.359 272.057 508.686 264.047 507.562C260.08 506.981 256.822 506.5 254.538 506.148C252.253 505.796 250.98 505.589 250.904 505.555C250.638 505.402 250.153 505.401 249.787 505.558C249.603 505.637 247.137 505.4 243.431 504.863C241.559 504.587 239.35 504.268 236.916 503.921C230.775 502.983 224.071 501.957 217.068 500.87C166.881 492.973 124.26 484.195 120.473 483.481C82.8475 475.88 35.2467 464.263 14.6271 458.351L11.9572 457.633L10.7542 457.314L10.4528 457.217L9.28551 456.861L6.98901 456.166C5.52096 455.731 4.24159 455.361 3.4899 455.171C2.05976 454.752 1.07414 454.264 1.29089 454.076C1.54493 453.886 1.05366 453.687 0.269282 453.624C-0.551604 453.581 -1.19673 453.243 -1.17173 452.899C-1.18965 452.394 -1.45263 452.331 -2.52232 452.622C-3.59211 452.913 -3.93006 452.835 -4.17317 452.283C-4.41617 451.732 -4.9036 451.641 -6.53514 451.844C-8.09289 452.025 -8.61684 451.954 -8.59504 451.52C-8.54813 450.742 -13.6973 449.426 -14.458 450.031C-14.8928 450.371 -15.4931 450.248 -16.5943 449.655C-17.467 449.199 -19.0845 448.75 -20.2421 448.665C-21.5119 448.566 -22.4155 448.291 -22.5751 447.99C-22.6971 447.705 -23.7898 447.347 -25.0237 447.21C-26.2577 447.073 -29.3751 446.335 -31.9352 445.559C-34.532 444.803 -36.8997 444.201 -37.2685 444.304C-37.6745 444.409 -38.6146 444.154 -39.3739 443.747C-40.1717 443.306 -41.4838 443.064 -42.524 443.137C-43.4893 443.225 -45.9635 442.771 -48.0344 442.141C-50.1052 441.51 -52.2414 441.135 -52.8321 441.282C-53.4966 441.45 -56.4241 440.814 -60.7145 439.558C-64.2175 438.454 -67.7472 437.641 -68.3392 437.752C-69.5231 437.975 -71.0277 438.606 -71.9013 439.178L-53.0646 445.226C-46.7733 447.241 -40.5544 449.314 -34.0456 451.159L-14.7003 456.846C-8.26401 458.748 -1.82648 460.686 4.82653 462.399C106.32 489.761 217.043 509.591 332.127 522.189C313.578 520.048 287.747 517.319 259.45 513.394C245.16 511.626 230.441 509.314 215.388 507.05C200.265 504.896 185.309 502.177 170.397 499.692C140.792 494.55 112.625 489.014 89.5796 484.018C83.8 482.779 78.2493 481.694 73.2169 480.518C68.1844 479.343 63.49 478.246 59.2085 477.242C50.6084 475.236 43.6609 473.623 38.7786 472.479C27.2406 469.548 8.56145 464.795 -2.75077 461.928L-2.71286 461.945Z" fill="#77B341"/>
<path d="M2589.74 471.87C2588.34 471.946 2588.35 472.418 2589.74 472.914C2590.27 473.097 2600.1 474.474 2616.92 476.751C2625.33 477.89 2635.53 479.237 2647.15 480.803L2665.65 483.272C2672.19 484.086 2678.85 485.29 2685.92 486.365C2700.02 488.575 2715.23 490.974 2731.35 493.485C2747.47 496.037 2764.55 498.503 2781.78 501.834C2799.1 504.984 2816.99 508.237 2835.17 511.542C2844.23 513.235 2853.51 514.784 2862.57 516.615C2871.67 518.444 2880.8 520.272 2889.94 522.121C2906.39 525.767 2922.8 529.533 2935.01 532.422C2941.09 533.878 2946.15 535.105 2949.66 535.958C2953.15 536.813 2955.11 537.332 2954.95 537.337C2954.39 537.39 2953.18 538.112 2952.31 538.942C2952.25 539.023 2950.41 538.697 2947.2 538.072L2933.37 535.342C2921.69 533.009 2905.37 529.753 2886.8 526.202C2876.89 524.237 2866.78 522.276 2856.52 520.32C2846.24 518.403 2835.72 516.65 2825.17 514.78C2804.03 511.06 2782.44 507.293 2760.63 503.453C2738.45 500.135 2716.02 496.764 2693.48 493.397C2687.83 492.56 2682.18 491.703 2676.54 490.866C2670.89 490.01 2665.25 489.153 2659.49 488.497L2625.08 484.2C2613.61 482.768 2602.18 481.334 2590.75 479.901C2585.02 479.185 2579.3 478.468 2573.63 477.75C2567.92 477.093 2562.13 476.555 2556.41 475.956C2533.45 473.624 2510.7 471.326 2488.27 469.059C2477.09 467.815 2465.82 467.028 2454.71 466.157C2443.58 465.287 2432.58 464.434 2421.68 463.577C2399.89 461.923 2378.71 460.017 2357.88 459.086C2337.14 457.937 2317.04 456.83 2297.75 455.76C2292.94 455.493 2288.17 455.224 2283.47 454.974C2278.74 454.743 2274.04 454.649 2269.41 454.476C2260.18 454.166 2251.15 453.872 2242.35 453.591C2224.8 453.008 2208.21 452.478 2192.78 451.957C2185.06 451.629 2177.62 451.607 2170.46 451.539C2163.3 451.471 2156.45 451.394 2149.94 451.329C2123.86 451.069 2102.96 450.849 2088.58 450.714C2081.4 450.687 2075.77 450.854 2071.97 450.875L2067.62 450.95L2066.05 450.991C2063.8 451.326 2062.8 451.726 2063.92 451.835C2064.14 451.849 2066.3 451.872 2070.32 451.864C2074.31 451.877 2080.12 451.803 2087.53 451.865C2102.36 452.126 2123.75 452.51 2150.35 452.992C2156.98 453.114 2163.99 453.225 2171.25 453.35L2182.39 453.55C2186.2 453.647 2190.03 453.842 2193.95 453.976C2209.65 454.588 2226.46 455.249 2244.24 455.945C2279.88 456.958 2319.02 459.792 2360.75 462.282C2527.58 473.108 2730.33 500.053 2882.31 532.054C2898.52 535.686 2912.54 538.982 2922.51 541.36L2934.16 544.186C2936.86 544.864 2938.32 545.259 2938.32 545.259C2937.1 546.73 2925.93 543.792 2918.64 545.737C2918.27 545.826 2917.89 545.638 2917.53 545.864C2916.98 546.194 2916.3 546.054 2914.75 545.307C2913.1 544.503 2912.43 544.402 2911.24 544.749C2910.21 545.052 2909.16 544.941 2907.62 544.372C2904.76 543.304 2896.63 541.547 2896.34 541.93C2896.2 542.09 2894.14 541.731 2891.74 541.124C2888.59 540.32 2885.78 539.645 2883.34 539.079L2879.94 538.302L2878.44 537.966L2874.24 537.112C2858.44 533.961 2849.54 532.402 2848.05 532.401C2845.85 532.401 2844.13 531.992 2841.91 531.086C2839.91 530.252 2837.66 529.778 2835.73 529.77C2831.74 529.737 2815.43 526.679 2814.13 525.748C2813.61 525.348 2811.5 524.733 2809.45 524.373C2807.43 524.013 2806.49 524.215 2807.45 524.781C2808.92 525.687 2806.46 525.338 2791.29 522.486C2781.41 520.638 2773.3 519.314 2773.16 519.534C2773.01 519.755 2770.87 519.358 2768.36 518.596C2765.89 517.854 2762.85 517.204 2761.54 517.141C2760.28 517.076 2757.39 516.521 2755.14 515.929C2751.02 514.817 2727.04 511.053 2675.41 502.953C2660.44 500.45 2645.95 498.604 2643.65 498.093C2641.37 497.622 2638.38 497.287 2637.15 497.358C2635.89 497.43 2629.47 496.654 2622.81 495.627C2611.11 493.807 2601.06 492.593 2584.07 490.932C2579.55 490.499 2574.99 489.81 2573.86 489.406C2573.3 489.244 2569.82 488.587 2564.55 487.957C2559.28 487.327 2552.26 486.566 2544.86 485.794C2530.83 484.351 2516.44 482.857 2513.05 482.513C2512.27 482.435 2511.15 482.327 2510.54 482.303C2509.58 482.249 2503.23 481.569 2498.41 481.006C2494.34 480.561 2473.24 478.26 2469.96 478.07C2468.12 477.921 2464.02 477.615 2460.81 477.344C2456.11 476.956 2444.53 476.038 2433.34 475.131C2432.41 475.056 2427.52 474.791 2422.42 474.551C2417.31 474.31 2412.68 474.058 2412.12 473.993L2409.65 473.704C2408.87 473.607 2402.2 473.211 2394.81 472.813C2387.43 472.455 2377.46 471.772 2372.58 471.624C2367.73 471.436 2356.93 471.011 2348.61 470.678C2338.77 470.305 2321.06 469.51 2302.56 468.656C2293.31 468.269 2283.88 467.689 2275.08 467.448C2266.28 467.206 2258.17 466.985 2251.6 466.803C2240.27 466.471 2221.49 466.038 2209.91 465.83C2205.99 465.775 2199.95 465.618 2192.39 465.403C2188.63 465.325 2184.49 465.118 2179.98 465.079L2165.71 464.961C2145.67 464.719 2121.86 464.458 2099.07 464.19C2093.37 464.143 2087.73 463.976 2082.23 464.021C2076.72 464.068 2071.36 464.11 2066.18 464.147C2055.82 464.203 2046.33 464.255 2038.29 464.309C2030.21 464.324 2023.57 464.321 2018.96 464.344L2013.6 464.307C2012.37 464.28 2011.7 464.259 2011.73 464.219L2006.03 464.171C2002.5 464.165 1997.65 464.155 1992.29 464.138C1981.6 464.163 1967.35 464.557 1960.61 464.615C1950.44 464.744 1926.1 465.285 1895.61 466.008C1865.19 467.181 1828.67 469.105 1794.08 470.743C1768.39 472.541 1734.63 474.924 1719.13 476.002C1709.24 476.734 1700.06 477.212 1691.51 478.008C1682.96 478.803 1674.97 479.545 1667.33 480.239C1652.02 481.684 1638.12 482.995 1624.05 484.31C1616.98 484.989 1609.93 485.666 1602.57 486.372C1595.25 487.115 1587.76 488.119 1579.77 489.058C1563.85 491.014 1546.18 493.172 1525.16 495.753L1503.19 498.457C1495.66 499.542 1488.01 500.649 1480.71 501.708C1466.06 503.787 1452.73 505.693 1444.23 506.901C1436.88 507.922 1429.58 508.961 1422.35 509.958C1415.07 510.978 1407.87 511.974 1400.79 513.224C1386.62 515.644 1372.58 518.062 1358.6 520.459C1344.67 522.933 1330.72 525.387 1316.79 527.861C1302.29 530.586 1287.76 533.312 1273.13 536.061C1260.19 538.449 1249.07 540.337 1239.7 542.021C1230.31 543.667 1222.67 545.03 1216.6 545.957C1204.43 547.912 1198.64 548.773 1198.11 548.747C1197.86 548.754 1197.3 548.808 1196.89 548.937C1196.16 549.075 1184.88 551.046 1169.46 553.283L1144.07 556.925L1130.63 558.834C1126.15 559.405 1121.73 559.973 1117.5 560.518C1095.6 563.3 1083.24 565.043 1082.62 565.434C1081.92 565.846 1081.37 565.9 1080.88 565.598C1080.5 565.39 1074.78 565.876 1057.43 567.711C1048.78 568.588 1037.23 569.994 1021.92 571.401C1006.62 572.867 987.678 574.882 964.116 576.781C951.706 577.836 943.715 578.499 938.808 578.825C933.899 579.111 932.074 579.081 932.03 578.865C931.945 578.434 931.759 578.458 931.287 578.944C931.034 579.206 928.361 579.532 920.781 580.185C913.199 580.778 900.714 581.874 880.858 583.065C866.727 583.889 854.642 584.582 843.412 585.231C832.178 585.762 821.798 586.154 811.083 586.573L794.601 587.182C788.907 587.352 783.025 587.448 776.698 587.594C770.408 587.72 763.745 587.836 756.523 587.986C749.302 588.136 741.559 588.261 733.143 588.265C725.323 588.313 709.347 588.398 697.618 588.469C685.887 588.462 671.134 588.259 664.8 588.169C658.466 588.059 644.087 587.945 632.906 587.648C619.678 587.344 608.461 587.107 598.698 586.871C588.931 586.498 580.615 586.145 573.233 585.806C566.708 585.486 554.368 585.041 545.902 584.574C525.127 583.406 510.656 582.604 500.509 581.924C486.744 581.123 475.815 580.445 469.733 579.994C457.684 579.247 438.275 577.61 426.52 576.717C399.211 574.912 346.517 569.361 326.523 566.754C322.264 566.236 317.407 565.654 312.96 565.101C308.549 564.488 304.625 563.941 302.158 563.593C297.261 562.893 287.167 561.425 279.689 560.341L264.662 558.174L262.047 557.908C261.45 557.845 256.849 557.079 251.798 556.207C246.747 555.335 241.847 554.518 240.913 554.385C229.513 552.813 217.701 551.173 212.95 550.352C209.696 549.827 205.582 549.167 203.712 548.881C200.457 548.316 178.842 544.924 174.691 544.284C169.754 543.469 163.355 542.336 162.419 542.125C161.858 542.002 160.734 541.775 159.949 541.638C156.543 540.999 141.989 538.465 127.916 535.84C113.128 532.9 99.8431 530.451 98.4273 530.428C97.0115 530.407 92.2596 529.566 87.9125 528.538C71.5687 524.495 61.7501 522.172 49.698 519.888C42.8119 518.611 36.5889 517.061 35.6818 516.553C34.7751 516.064 31.9254 515.332 29.4573 514.943C26.9513 514.536 12.6383 511.248 -2.35332 507.643C-27.5569 500.917 -46.2646 496.207 -58.6143 492.513L-73.3212 488.408L-77.7469 487.224L-79.2464 486.849C-79.6212 486.76 -79.508 486.817 -79.6574 486.801C-80.3645 486.819 -81.0019 486.658 -81.1187 486.465C-81.236 486.251 -81.9834 486.153 -82.8379 486.235C-83.6923 486.316 -84.1792 486.21 -83.9617 485.987C-83.7435 485.785 -85.3237 485.176 -87.5722 484.644C-90.9103 483.747 -91.3259 483.522 -90.3314 483.102C-89.705 482.848 -89.4905 482.509 -89.9406 482.382C-90.3541 482.236 -91.0602 482.293 -91.5022 482.482C-92.5329 482.943 -96.0964 481.972 -96.2287 481.188C-96.2757 480.815 -96.8371 480.711 -97.7618 480.953C-98.7978 481.216 -99.2097 481.128 -99.2222 480.656C-99.2382 480.045 -106.111 477.842 -119.165 474.265C-121.642 473.581 -123.522 472.901 -123.339 472.759C-123.12 472.595 -125.001 471.877 -127.367 471.131C-129.733 470.366 -132.475 469.512 -134.234 469.184C-136.105 468.819 -136.897 468.407 -137.026 467.78C-137.157 467.074 -137.722 466.813 -140.038 466.519C-142.169 466.24 -142.808 466.001 -142.595 465.582C-142.455 465.282 -143.015 465.218 -143.057 465.003C-144.176 460.698 -155.476 457.291 -153.723 455.964C-153.723 455.964 -153.086 456.125 -151.922 456.489C-150.758 456.852 -149.068 457.379 -146.928 458.052C-142.646 459.417 -136.45 461.362 -129.014 463.728C-121.65 466.174 -112.572 468.654 -102.926 471.513C-98.0844 472.923 -93.0556 474.386 -87.9139 475.887C-85.362 476.628 -82.7351 477.386 -80.1454 478.145C-77.4824 478.864 -74.7826 479.561 -72.0823 480.278C-17.6546 496.5 40.2568 510.661 96.6434 522.064C110.83 524.784 124.757 527.59 138.529 530.124C152.409 532.537 166.065 534.897 179.346 537.189C192.808 539.258 205.896 541.279 218.61 543.23C224.931 544.246 231.282 545.044 237.487 545.886C243.691 546.728 249.783 547.533 255.8 548.341C261.78 549.129 267.649 549.959 273.402 550.655C279.193 551.331 284.87 551.989 290.399 552.633C301.456 553.879 311.918 555.2 321.925 556.197L349.967 558.948C354.298 559.366 358.48 559.769 362.475 560.176C366.47 560.544 370.313 560.817 373.971 561.115C388.563 562.268 400.169 563.204 408.157 563.842C416.179 564.419 420.69 564.616 421.063 564.626C422.217 564.576 421.385 564.145 419.213 563.65C419.138 563.652 418.055 563.543 416.003 563.38C413.95 563.217 410.965 563.02 407.119 562.648C399.392 561.944 388.155 560.939 373.896 559.659C366.766 559.058 358.924 558.24 350.445 557.32C341.93 556.421 332.781 555.439 322.958 554.397C313.174 553.354 302.895 551.969 292.023 550.659C286.605 549.994 281.001 549.293 275.322 548.595C269.605 547.899 263.883 547.005 257.978 546.195C246.202 544.475 233.87 542.869 221.304 540.874C208.775 538.858 195.796 536.756 182.519 534.623C169.385 532.249 155.913 529.805 142.143 527.311C128.445 524.735 114.7 521.826 100.622 519.004C44.7119 507.292 -12.9116 492.751 -67.315 476.035C-70.0934 475.183 -72.8717 474.329 -75.6128 473.476C-78.3177 472.581 -80.9855 471.686 -83.6159 470.79C-88.9136 469.018 -94.0992 467.263 -99.0966 465.582C-104.094 463.9 -108.904 462.273 -113.488 460.739C-117.998 459.163 -122.136 457.578 -126.01 456.162C-133.683 453.291 -140.001 450.915 -144.44 449.239C-148.843 447.542 -151.289 446.543 -151.18 446.441C-150.271 445.61 -149.735 444.729 -149.966 444.44C-149.967 444.4 -149.255 444.618 -147.789 445.072C-146.363 445.527 -144.26 446.201 -141.593 447.056C-136.334 448.77 -128.859 451.214 -120.257 454.022C-111.763 456.911 -101.706 459.819 -91.6833 462.826C-81.5877 465.772 -71.6342 468.978 -62.1103 471.426C-50.8894 474.678 -39.9689 477.839 -29.4608 480.892C-18.7352 483.723 -8.45915 486.447 1.3289 489.028C6.24101 490.297 10.9313 491.632 15.6528 492.73L29.3319 495.994C38.1767 498.107 46.384 500.058 53.8419 501.833C69.0129 505.177 81.3704 507.749 89.9846 509.591C98.5621 511.454 103.612 512.306 104.059 512.314C105.773 512.328 106.284 511.94 105.266 511.455C104.441 511.26 85.9305 506.959 55.8417 499.987C48.4185 498.113 40.3207 496.081 31.5851 493.867C22.85 491.674 13.4786 489.358 3.87254 486.616C-5.80592 483.954 -15.9729 481.129 -26.5889 478.216C-36.9502 475.08 -47.7612 471.838 -58.8353 468.504C-67.9209 465.728 -77.3988 462.195 -87.056 458.922C-96.6405 455.588 -106.221 452.392 -114.237 449.234C-122.363 446.138 -129.397 443.466 -134.363 441.567C-139.33 439.649 -142.189 438.502 -141.967 438.457C-141.188 438.338 -140.528 437.966 -140.461 437.649C-140.368 436.957 -135.942 435.324 -135.04 435.655C-134.701 435.784 -133.177 435.685 -131.655 435.468C-130.134 435.25 -128.757 435.234 -128.564 435.465C-128.373 435.697 -127.629 435.638 -126.892 435.343C-126.634 435.237 -126.227 435.128 -125.746 435.037L-121.499 436.501C-120.86 436.721 -119.468 437.216 -118.379 437.601L-108.944 440.88C-108.644 440.99 -106.989 441.577 -105.26 442.182C-103.531 442.787 -101.99 443.337 -101.765 443.41L-100.9 443.702L-95.8259 445.48C-93.2714 446.319 -89.7786 447.429 -88.0884 447.976C-86.3981 448.522 -82.6796 449.725 -79.7869 450.673C-76.3692 451.766 -70.2093 453.751 -63.7491 455.827C-60.5195 456.846 -57.2873 457.963 -54.0985 458.844C-46.1791 461.178 -38.8598 463.349 -32.9671 465.086C-28.3879 466.443 -23.0958 467.998 -17.428 469.681C-11.6144 471.243 -5.42557 472.913 0.763799 474.602C13.1787 477.94 25.559 481.377 35.376 483.641C41.5984 485.172 51.0065 487.467 62.7015 490.331C74.5049 493.074 88.8498 496.165 104.584 499.672C116.792 502.247 130.23 504.85 144.497 507.765C158.835 510.6 174.323 513.247 190.415 516.232C198.498 517.675 206.911 518.951 215.402 520.363C223.929 521.715 232.535 523.242 241.432 524.525L268.536 528.443C273.134 529.111 277.732 529.758 282.368 530.424C287.039 531.011 291.747 531.616 296.492 532.201C305.945 533.39 315.511 534.597 325.115 535.823C334.826 536.888 344.574 537.951 354.397 539.033C359.29 539.574 364.22 540.114 369.15 540.635C374.08 541.176 379.081 541.576 384.047 542.056C394.015 542.977 403.983 543.896 413.951 544.817C453.997 548.06 494.181 550.886 533.029 552.466C610.624 556.003 682.283 556.209 734.323 555.256C740.839 555.203 747.018 555.06 752.898 554.906C758.779 554.751 764.324 554.606 769.497 554.47C779.842 554.178 788.814 554.041 796.106 553.711C810.726 553.13 818.837 552.819 818.837 552.819C824.454 552.573 830.667 552.312 837.512 552.013C844.355 551.637 851.829 551.204 859.936 550.755L886.338 549.234C895.781 548.572 905.93 547.872 916.784 547.114C1026.55 539.07 1132.11 526.92 1241.32 508.98C1257.26 506.552 1281.66 501.991 1309.06 497.41C1336.46 492.79 1366.34 487.769 1392.03 483.449C1411.7 480.51 1429.92 477.964 1446.88 475.489C1463.86 473.072 1479.6 470.709 1494.59 468.699C1524.74 465.071 1551.58 461.864 1578.05 458.666C1591.22 456.942 1604.56 455.882 1618.05 454.523C1631.57 453.222 1645.39 451.874 1659.88 450.469C1688.73 447.348 1720.6 445.407 1757.99 442.534C1765.35 441.986 1774.83 441.284 1785.72 440.466C1796.62 439.805 1808.92 439.226 1821.83 438.532C1834.74 437.859 1848.24 437.169 1861.55 436.465C1874.87 435.8 1888.03 434.962 1900.28 434.738C1916.64 434.25 1933.29 433.753 1949.87 433.259L1974.78 432.506C1978.91 432.397 1983.04 432.25 1987.17 432.122C1991.3 432.091 1995.39 432.044 1999.49 432.014C2032.21 431.785 2063.94 431.326 2092.76 431.298C2121.56 431.664 2147.45 431.989 2168.58 432.262C2189.69 432.357 2205.91 433.232 2215.49 433.512C2228.21 433.966 2255.09 434.915 2275.25 435.627C2285.36 435.893 2294.42 436.483 2301.02 436.861C2307.62 437.239 2311.72 437.486 2311.76 437.485C2312.5 437.524 2332.46 438.675 2362.89 440.417C2370.5 440.867 2378.78 441.28 2387.56 441.877C2396.29 442.574 2405.5 443.317 2415.13 444.088C2434.35 445.632 2455.14 447.292 2476.34 448.982C2481.64 449.354 2486.95 449.885 2492.21 450.456L2508.07 452.107C2518.65 453.209 2529.21 454.291 2539.63 455.377C2560.4 457.589 2580.67 459.421 2598.83 461.938C2635.31 466.615 2665.05 470.306 2679.36 472.255C2700.35 475.446 2734.3 480.583 2754.82 483.688C2760.72 484.617 2767.42 485.525 2774.49 486.737C2781.52 487.991 2789.08 489.329 2796.93 490.718C2812.66 493.497 2829.56 496.5 2846.11 499.455C2854.38 500.951 2862.6 502.311 2870.43 503.839C2878.26 505.367 2885.78 506.845 2892.81 508.216L2905.96 510.865L2915.24 512.749L2923.85 514.512L2929.62 515.72L2930.59 515.931L2934.56 516.773L2938.79 517.666C2943.14 518.596 2947.6 519.582 2949.43 519.987L2953 520.76L2957.75 521.818C2957.83 522.072 2957.91 522.306 2957.88 522.464C2957.78 522.94 2958.12 523.305 2958.6 523.253C2959.09 523.221 2959.85 523.812 2960.28 524.608C2960.71 525.384 2961.4 526.095 2961.77 526.184C2962.79 526.413 2962.45 529.2 2961.38 529.602C2960.86 529.793 2960.62 530.273 2960.85 530.68C2960.89 530.778 2958.84 530.418 2955.16 529.707L2939.93 526.778C2927.27 524.332 2910.36 521.092 2893.4 518.011C2884.16 516.245 2874.95 514.457 2865.75 512.69C2856.57 510.902 2847.23 509.433 2838.06 507.803C2819.69 504.62 2801.62 501.51 2784.15 498.481C2766.78 495.293 2749.51 492.949 2733.25 490.539C2716.99 488.149 2701.58 485.894 2687.37 483.805C2680.24 482.81 2673.51 481.668 2666.9 480.935L2648.21 478.667C2636.48 477.262 2626.17 476.035 2617.69 474.997C2600.65 472.982 2590.68 471.845 2590.05 471.882L2589.74 471.87ZM1582.26 471.814C1562.94 474.666 1545.67 476.971 1529.24 479.038C1512.79 481.144 1497.01 482.781 1480.95 485.172C1464.8 487.429 1448.15 489.777 1429.55 492.374C1420.28 493.72 1410.52 495.119 1400.14 496.712C1389.86 498.518 1379.01 500.459 1367.32 502.597C1343.98 506.875 1322.29 510.597 1301.56 514.097C1280.65 517.68 1261 521.072 1241.97 523.798L1214.11 527.938C1204.94 529.184 1195.96 530.404 1187.1 531.622C1169.4 534.156 1152.02 536.267 1134.81 538.649C1065.81 548.007 1007.25 552.855 973.848 555.938C957.721 557.308 943.636 558.485 931.448 559.514C919.219 560.407 908.922 561.15 900.373 561.769C883.312 563.083 873.195 563.527 868.995 563.854C864.793 564.121 866.43 564.059 872.753 563.736L885.584 563.063L904.507 561.818L928.636 560.199C937.447 559.632 946.922 558.774 957.031 558.015C967.103 557.179 977.772 556.466 988.805 555.407C999.84 554.389 1011.28 553.34 1023.02 552.263C1069.87 547.684 1120.81 541.893 1166.42 535.928C1178.71 534.305 1190.32 532.64 1201.49 531.106C1207.06 530.309 1212.55 529.594 1217.89 528.784C1223.23 527.974 1228.43 527.167 1233.58 526.382C1243.86 524.772 1253.76 523.232 1263.44 521.717C1273.05 520.065 1282.46 518.46 1291.73 516.876C1310.08 513.754 1328.02 510.682 1346.56 507.516C1364.99 504.334 1384.05 501.035 1404.69 497.459C1446.4 491.143 1461.38 488.957 1471.39 487.512L1485.43 485.528C1490.66 484.799 1497.37 483.717 1508.43 482.422C1560.41 475.974 1582.34 471.793 1582.34 471.793L1582.26 471.814Z" fill="#77B341"/>
</g>
<mask id="mask1_723_286" style="mask-type:alpha" maskUnits="userSpaceOnUse" x="-1" y="0" width="1440" height="482">
<path d="M1439 0.29895H-1V481.103H1439V0.29895Z" fill="#B377FF"/>
</mask>
<g mask="url(#mask1_723_286)">
<path fill-rule="evenodd" clip-rule="evenodd" d="M-645.402 -104.491C-655.619 -103.091 -670.515 -100.709 -684.569 -98.1316C-698.646 -95.5774 -711.861 -92.807 -719.147 -91.1945C-725.336 -89.8743 -733.251 -88.028 -736.824 -87.2064C-742.26 -85.9049 -747.697 -84.6133 -753.088 -83.241C-758.483 -81.9034 -763.304 -80.5925 -763.901 -80.4521C-764.48 -80.2929 -765.296 -80.0693 -765.706 -79.9565C-766.125 -79.8437 -769.456 -78.9462 -773.129 -77.9553C-776.793 -76.9379 -780.315 -75.9592 -780.981 -75.7748C-789.047 -73.4545 -797.372 -70.9077 -800.776 -69.8287C-803.1 -69.091 -806.067 -68.1495 -807.393 -67.7289C-808.213 -67.4592 -810.583 -66.6794 -813.463 -65.7328C-814.935 -65.2344 -816.539 -64.6927 -818.138 -64.1502C-819.924 -63.5265 -821.711 -62.9027 -823.342 -62.3304C-823.246 -60.7478 -822.376 -59.3764 -820.799 -58.1916C-820.006 -57.5997 -819.04 -57.0541 -817.906 -56.5505C-816.776 -56.0438 -815.413 -55.6028 -814.155 -55.1012C-811.33 -54.0907 -808.063 -53.5953 -806.696 -54.0435C-805.338 -54.4899 -800.917 -54.4703 -796.966 -53.9636C-795.212 -53.74 -793.398 -53.6087 -791.762 -53.5575C-785.529 -55.4735 -776.31 -58.201 -765.861 -61.0442C-752.732 -64.6393 -739.458 -67.9545 -726.015 -71.0236C-722.756 -71.7528 -715.374 -73.4002 -709.537 -74.6023C-706.638 -75.228 -703.111 -75.9203 -699.794 -76.5799C-696.481 -77.2485 -693.355 -77.8519 -691.227 -78.2386C-678.03 -80.7453 -669.135 -82.1628 -658.79 -83.8196C-656.029 -84.2288 -652.092 -84.8133 -647.977 -85.4238C-643.862 -86.0342 -639.514 -86.5755 -636.024 -87.0546C-633.294 -87.434 -630.669 -87.7469 -628.149 -88.0433C-626.363 -88.2559 -624.613 -88.4639 -622.9 -88.6682C-619.801 -89.0538 -616.73 -89.3667 -613.727 -89.6745C-610.719 -89.982 -607.775 -90.2826 -604.891 -90.5779C-601.988 -90.8314 -599.14 -91.0795 -596.346 -91.3239C-590.773 -91.8479 -585.332 -92.167 -580.101 -92.5475C-559.102 -93.9127 -540.61 -94.3577 -522.296 -94.1733C-517.442 -94.1906 -511.487 -93.965 -504.911 -93.7885C-501.625 -93.7271 -498.171 -93.4972 -494.621 -93.331C-491.067 -93.1238 -487.412 -93.0204 -483.712 -92.7055C-468.906 -91.7598 -453.403 -90.0158 -440.805 -88.3192C-438.06 -87.9623 -434.56 -87.3613 -430.416 -86.7048C-428.347 -86.3652 -426.12 -86.0001 -423.749 -85.6113C-421.402 -85.1569 -418.915 -84.6761 -416.306 -84.1703H-416.299C-416.299 -84.1703 -415.683 -84.0492 -415.336 -83.9804C-408.838 -82.798 -401.726 -81.1065 -393.943 -79.3134C-390.069 -78.3833 -386.106 -77.2744 -381.962 -76.1911C-379.905 -75.6228 -377.763 -75.1184 -375.676 -74.4659C-373.577 -73.831 -371.444 -73.1857 -369.275 -72.5303C-351.634 -67.212 -330.138 -59.4872 -307.947 -48.6461C-302.273 -46.0297 -296.907 -42.9873 -291.229 -39.9716C-288.349 -38.4865 -285.695 -36.8206 -282.919 -35.1866C-280.166 -33.5392 -277.379 -31.8706 -274.556 -30.1811C-263.756 -23.1702 -252.734 -15.6495 -242.673 -7.31142C-240.154 -5.23019 -237.481 -3.17976 -235.044 -1.0196C-232.629 1.14778 -230.195 3.3336 -227.744 5.53482C-226.524 6.63646 -225.301 7.74321 -224.071 8.85304C-222.927 9.98955 -221.779 11.1302 -220.627 12.2749C-218.331 14.5654 -216.018 16.8712 -213.692 19.1903C-211.394 21.5177 -209.34 23.9302 -207.139 26.3181C-205.012 28.7246 -202.709 31.1031 -200.704 33.5689C-198.698 36.0339 -196.681 38.5111 -194.656 40.9985C-193.647 42.2426 -192.635 43.4887 -191.621 44.7382C-190.644 45.9946 -189.75 47.2728 -188.809 48.5425C-173.626 68.8439 -161.31 90.3606 -151.515 112.008C-141.703 133.66 -134.377 155.444 -128.741 176.461C-127.449 181.72 -126.169 186.929 -124.906 192.076C-123.673 197.223 -122.786 202.32 -121.733 207.336C-120.769 212.225 -119.819 217.044 -118.886 221.781C-118.465 224.088 -117.974 226.361 -117.468 228.608C-116.96 230.856 -116.512 233.094 -115.97 235.288C-113.878 244.083 -111.459 252.429 -108.915 260.269C-106.248 268.075 -103.441 275.369 -100.444 282.024C-94.3933 295.312 -87.8076 306.082 -81.8594 313.815C-78.1783 318.728 -74.1973 323.17 -70.2241 327.25C-66.1671 331.277 -61.9865 334.838 -57.8602 337.998C-49.4492 344.179 -41.1901 348.618 -33.8524 351.519C-24.975 355.231 -12.6274 358.541 0.717529 360.053C7.35956 360.849 14.2422 361.153 20.726 361.215C23.9537 361.289 27.1371 361.167 30.1078 361.127C33.1147 360.98 35.9189 360.911 38.5236 360.715C48.9095 360.059 58.9311 358.814 66.554 357.692C74.1851 356.561 79.4238 355.555 80.4067 355.412C82.3881 355.04 84.7473 354.563 85.6837 354.352C86.6265 354.142 88.8421 353.719 90.6836 353.352C91.6888 353.15 97.0237 352.085 104.848 350.317C112.667 348.527 122.964 345.989 133.867 343.014C144.78 340.036 156.62 336.526 166.906 333.318C177.196 330.121 185.926 327.216 190.714 325.636C239.212 309.541 295.449 287.801 355.507 264.612C415.604 241.458 479.767 216.928 544.99 196.004C583.829 183.524 617.519 174.062 647.713 166.735C677.903 159.393 704.584 154.182 729.52 150.222C754.492 146.33 777.755 143.693 801.474 142.21C813.323 141.435 825.307 141.034 837.652 140.938C850.001 140.848 862.738 141.088 876.081 141.897C890.969 142.704 914.063 144.789 938.416 149.233C950.605 151.398 963.046 154.207 974.944 157.381C976.434 157.775 977.92 158.169 979.401 158.562C980.873 158.962 982.313 159.403 983.766 159.821C986.615 160.652 989.435 161.476 992.229 162.291C997.41 163.786 1002.46 165.245 1007.3 166.643C1026.89 171.929 1048.32 176.855 1067.18 180.024C1068.35 180.24 1069.51 180.453 1070.65 180.665C1071.81 180.842 1072.96 181.017 1074.09 181.191C1076.35 181.535 1078.56 181.87 1080.69 182.195C1084.98 182.82 1088.95 183.518 1092.66 183.959C1100.08 184.859 1106.11 185.592 1110.19 186.088C1135.18 188.732 1155.91 189.514 1173.01 189.891C1181.58 189.912 1189.24 190.109 1196.13 189.876C1203.02 189.716 1209.14 189.694 1214.59 189.37C1220.06 189.116 1224.88 188.892 1229.17 188.693C1233.46 188.387 1237.23 188.12 1240.62 187.879C1244 187.621 1247 187.465 1249.73 187.195C1252.45 186.934 1254.92 186.697 1257.25 186.473C1260.12 186.201 1263.64 185.866 1267.54 185.495C1271.42 185.031 1275.69 184.521 1280.07 183.998C1282.27 183.738 1284.49 183.473 1286.71 183.208C1288.91 182.895 1291.12 182.581 1293.28 182.273C1297.61 181.655 1301.8 181.059 1305.57 180.521C1320.6 178.142 1343.07 174.169 1355.34 171.392C1357.41 170.956 1359.86 170.441 1362.66 169.854C1365.42 169.216 1368.52 168.499 1371.9 167.716C1375.27 166.919 1378.97 166.116 1382.86 165.148C1386.73 164.171 1390.85 163.134 1395.17 162.047C1412.38 157.595 1432.53 151.943 1452.55 145.54C1472.57 139.14 1492.51 132.089 1509.85 125.546C1514.17 123.894 1518.35 122.296 1522.34 120.767C1526.29 119.191 1530.06 117.686 1533.6 116.269C1540.74 113.473 1546.79 110.84 1551.76 108.805C1561.17 104.838 1572.57 99.8689 1583.28 95.001C1593.98 90.1339 1604.05 85.4023 1610.95 82.0481C1624.02 75.784 1637.04 69.2397 1651.82 61.5274C1666.59 53.8097 1683.09 44.9014 1702.69 33.6212C1715.29 26.434 1733.38 15.5531 1742.99 9.56697C1752.09 3.95621 1760.39 -1.35807 1769.32 -7.11346C1771.53 -8.56381 1773.79 -10.0409 1776.1 -11.5569C1777.81 -12.6821 1779.56 -13.8361 1781.36 -15.03C1783.25 -16.2876 1785.26 -17.6282 1787.45 -19.0919C1790.24 -20.9895 1795.68 -24.6903 1799.56 -27.3234C1803.41 -29.9666 1808.3 -33.3608 1810.44 -34.8717C1819.34 -41.0773 1828.12 -47.3517 1836.73 -53.6999C1843.58 -58.7497 1849.57 -63.2957 1853.55 -66.379C1853.75 -67.3248 1853.84 -68.3893 1853.77 -69.4348C1853.6 -71.7969 1854.08 -74.2536 1854.89 -74.8978C1855.71 -75.5469 1855.25 -77.4509 1853.82 -79.1392C1852.48 -80.7198 1850.9 -82.0236 1849.03 -82.9958C1847.18 -83.9827 1845.26 -84.8185 1843.11 -85.3959C1841.49 -84.1384 1839.56 -82.6513 1837.92 -81.3876C1836.21 -80.092 1834.8 -79.0272 1834.32 -78.6589C1833.51 -78.0548 1831.7 -76.7041 1830.29 -75.6464C1828.22 -74.0925 1823.03 -70.2882 1817.95 -66.6365C1817.54 -66.3359 1815.34 -64.7388 1813.06 -63.0792C1810.76 -61.4267 1808.67 -59.9302 1808.4 -59.7415L1807.24 -58.9404C1806.87 -58.6778 1803.81 -56.5198 1800.42 -54.135C1797.01 -51.7675 1792.38 -48.5591 1790.14 -47.0081C1787.89 -45.4593 1782.85 -42.0404 1778.93 -39.4197C1776.6 -37.8772 1773.32 -35.7169 1769.54 -33.2161C1764.62 -30.0231 1759.03 -26.3972 1753.32 -22.6891C1730.41 -7.81299 1705.55 7.11751 1688.38 16.9358C1684.67 19.0652 1680.37 21.5505 1675.68 24.1528C1673.35 25.4606 1670.94 26.8126 1668.49 28.187C1666.01 29.543 1663.5 30.9207 1660.98 32.2992C1650.91 37.8228 1640.64 43.2355 1632.74 47.32C1622.02 52.8486 1599.79 64.1552 1571.45 77.0353C1557.24 83.4267 1541.6 90.299 1525.1 96.9663C1508.6 103.637 1491.36 110.237 1474.2 116.311C1457 122.333 1439.94 127.908 1423.92 132.707C1407.86 137.436 1392.95 141.566 1380.07 144.715C1376.85 145.514 1373.77 146.277 1370.85 147.003C1367.92 147.718 1365.11 148.319 1362.49 148.926C1357.23 150.094 1352.68 151.223 1348.86 151.964C1341.23 153.538 1336.78 154.457 1336.45 154.526C1336.42 154.531 1335.53 154.714 1333.94 155.04C1332.33 155.333 1330.03 155.757 1327.18 156.278C1324.34 156.801 1320.96 157.424 1317.21 158.114C1313.45 158.768 1309.3 159.402 1304.95 160.117C1302.78 160.47 1300.52 160.837 1298.2 161.214C1295.87 161.537 1293.48 161.868 1291.07 162.201C1288.67 162.536 1286.25 162.873 1283.84 163.21C1282.63 163.378 1281.44 163.546 1280.24 163.712C1279.04 163.852 1277.85 163.99 1276.68 164.126C1271.98 164.672 1267.48 165.192 1263.46 165.658C1259.45 166.1 1255.9 166.368 1253.14 166.64C1248.97 167.023 1243.35 167.601 1236.47 168C1233.03 168.233 1229.28 168.486 1225.25 168.758C1221.21 168.928 1216.89 169.111 1212.31 169.305C1194 169.948 1171.54 170.076 1146.89 168.57C1122.25 167.092 1095.47 163.961 1068.68 158.842C1067 158.528 1065.32 158.214 1063.64 157.899L1061.11 157.428L1058.61 156.879C1055.29 156.143 1051.95 155.404 1048.61 154.663C1041.86 153.295 1035.35 151.437 1028.72 149.801L1023.76 148.536L1018.9 147.117C1015.65 146.177 1012.41 145.236 1009.18 144.297C1005.34 143.18 1001.52 142.064 997.706 140.952C993.55 139.695 989.276 138.605 985.047 137.478C983.671 137.119 982.286 136.756 980.891 136.391C979.474 136.053 978.047 135.711 976.612 135.367C973.737 134.691 970.838 133.969 967.867 133.317C961.907 132.04 955.823 130.722 949.58 129.608C937.14 127.295 924.271 125.344 911.634 123.948C886.366 121.006 862.2 120.162 844.137 120.082C856.819 120.098 869.573 120.458 882.342 121.182C895.115 121.957 907.879 123.146 920.561 124.704C933.239 126.301 945.789 128.365 958.166 130.77C970.529 133.215 982.632 136.129 994.498 139.337L1024.15 147.797L1037.88 151.216C1042.41 152.423 1047.09 153.365 1051.73 154.365C1060.96 156.497 1070.44 158.056 1079.83 159.808L1094.11 161.949L1097.68 162.492C1098.88 162.658 1100.08 162.781 1101.29 162.93L1108.5 163.787C1146.96 168.429 1186.56 169.139 1226.09 166.817C1245.87 165.573 1265.63 163.485 1285.27 160.74L1292.63 159.673C1295.09 159.317 1297.55 158.983 1299.98 158.546L1314.64 156.088L1329.23 153.325L1332.87 152.635L1336.49 151.866L1343.74 150.332C1363.03 146.174 1382.17 141.49 1400.99 136.171C1419.81 130.847 1438.39 125.026 1456.69 118.777C1475.01 112.547 1492.95 105.754 1510.67 98.6844C1528.36 91.5883 1545.8 84.1641 1562.88 76.349C1631.26 45.1671 1694.95 9.11871 1753.77 -29.7173C1766.74 -38.3049 1779.46 -47.0399 1791.89 -55.8972C1804.31 -64.745 1816.47 -73.7662 1828 -82.7795C1825.93 -83.6994 1822.77 -84.5704 1820.63 -84.6266C1819.55 -84.6585 1814.56 -81.6612 1809.43 -77.982C1803.54 -73.75 1799.23 -71.3806 1797.95 -71.515C1796.82 -71.6369 1793.58 -70.0748 1790.68 -68.0037C1787.77 -65.9482 1784.01 -64.1542 1782.27 -64.0033C1780.44 -63.8331 1778.45 -62.8783 1777.48 -61.6597C1776.57 -60.5304 1775.19 -59.6645 1774.44 -59.758C1773.68 -59.8379 1770.16 -57.7966 1766.61 -55.1842C1763.06 -52.578 1758.54 -49.8823 1756.61 -49.1477C1754.66 -48.4267 1753.14 -47.2963 1753.21 -46.6162C1753.28 -45.8839 1751.97 -44.966 1749.94 -44.3411C1748.06 -43.7659 1745.69 -42.2416 1744.65 -40.9492C1743.3 -39.2538 1742.38 -38.8176 1741.36 -39.4115C1740.9 -39.6792 1740.09 -39.5942 1739.13 -39.2896C1738.9 -39.2137 1738.65 -39.1233 1738.4 -39.0219L1738.21 -38.9437C1738.14 -38.915 1738.11 -38.9091 1737.93 -38.8022C1737.64 -38.634 1737.34 -38.4618 1737.03 -38.2864C1735.82 -37.5868 1734.54 -36.8124 1733.26 -36.0093C1728.2 -32.7833 1723.17 -29.1277 1722.75 -27.7583C1722.29 -26.2771 1720.35 -25.1878 1715.3 -23.721C1709.89 -22.1496 1708.09 -21.1269 1706.54 -18.8416C1704.99 -16.5717 1703.7 -15.8475 1700.38 -15.3859C1697.06 -14.9254 1696.03 -14.3366 1695.35 -12.5621C1694.87 -11.3343 1692.14 -9.29313 1689.26 -8.02533C1686.4 -6.75957 1684.5 -5.42715 1685.05 -5.07532C1685.6 -4.72041 1681.43 -1.68324 1675.79 1.66269C1672.95 3.32642 1667.95 6.32668 1662.17 9.81726C1656.35 13.275 1649.73 17.2076 1643.72 20.7792C1634.81 26.0761 1620.09 34.3271 1603.31 43.0272C1586.55 51.75 1567.7 60.8914 1551.02 68.3946C1547.74 69.8891 1510.14 87.3623 1464.98 103.729C1458.72 106.026 1452.63 108.082 1447.11 110.044C1444.92 110.805 1442.88 111.405 1441.15 111.93C1437.69 112.957 1435.41 113.516 1435.14 113.356C1434.61 113.037 1434.1 113.041 1433.98 113.379C1433.95 113.46 1432.83 113.918 1430.84 114.677C1428.85 115.458 1425.93 116.434 1422.37 117.662C1418.79 118.861 1414.58 120.368 1409.83 121.844C1405.09 123.319 1399.91 124.984 1394.45 126.612C1388.97 128.199 1383.54 129.77 1378.43 131.25C1373.28 132.653 1368.45 133.97 1364.19 135.132C1355.64 137.372 1349.36 138.939 1347.49 139.494C1343.72 140.553 1335.1 142.707 1328.35 144.465C1324.96 145.251 1320.87 146.222 1317.03 147.155C1315.11 147.625 1313.25 148.08 1311.56 148.494C1309.87 148.876 1308.35 149.219 1307.12 149.496C1303.3 150.372 1299.81 151.175 1296.52 151.929C1293.23 152.693 1290.12 153.24 1287.13 153.85C1284.12 154.43 1281.23 154.99 1278.34 155.548C1275.43 156.076 1272.52 156.505 1269.49 156.993C1267.89 157.248 1265.94 157.558 1263.8 157.9C1261.66 158.248 1259.32 158.626 1256.92 158.922C1252.11 159.569 1247.09 160.244 1243.03 160.792C1236.66 161.495 1230.87 162.134 1225.52 162.725C1220.15 163.21 1215.22 163.579 1210.59 163.971C1209.43 164.066 1208.29 164.16 1207.17 164.252C1206.05 164.315 1204.94 164.375 1203.85 164.436C1201.67 164.55 1199.54 164.663 1197.46 164.773C1193.29 164.972 1189.27 165.267 1185.3 165.299C1185.3 165.299 1183.1 165.358 1179.78 165.446C1178.13 165.491 1176.19 165.544 1174.12 165.602C1173.08 165.631 1172.01 165.659 1170.92 165.689C1169.84 165.687 1168.73 165.685 1167.63 165.683C1163.21 165.682 1158.79 165.681 1155.48 165.68C1153.81 165.69 1152.43 165.681 1151.47 165.637C1150.51 165.608 1149.95 165.592 1149.95 165.592C1138.45 165.434 1115.92 163.926 1094.62 160.864C1089.32 160.036 1084.04 159.291 1079.03 158.433C1074.08 157.482 1069.34 156.572 1064.99 155.74C1063.91 155.526 1062.85 155.331 1061.83 155.115C1060.81 154.878 1059.83 154.647 1058.87 154.422C1056.96 153.969 1055.17 153.544 1053.52 153.152C1050.23 152.36 1047.51 151.684 1045.55 151.156C1042.62 150.372 1038.63 149.078 1034.45 147.866C1030.29 146.616 1025.94 145.429 1022.59 144.259C1019.22 143.151 1015.11 141.804 1011.22 140.526C1006.36 138.959 1001.76 137.476 998.595 136.457C995.842 135.529 992.643 134.652 988.538 133.45C984.455 132.224 979.278 130.918 972.502 129.179C958.881 125.906 938.406 121.14 904.926 117.197C899.435 116.581 888.645 115.445 875.675 114.711C862.715 113.937 847.577 113.464 833.569 113.612C819.547 113.7 803.27 114.282 788.46 115.264C781.041 115.728 774.019 116.333 767.739 116.865C761.51 117.473 755.991 117.974 751.726 118.458C736.374 120.08 722.776 121.948 709.456 124.04C696.14 126.144 683.066 128.453 669.04 131.314C655.009 134.165 639.962 137.509 622.791 141.761C605.639 146.019 586.327 151.164 564.025 157.764C526.535 168.806 489.4 181.249 455.127 193.38C420.84 205.512 389.394 217.315 363.125 227.211C357.937 229.165 344.414 234.547 333.163 239.166C321.902 243.784 311.705 247.565 310.424 247.593C309.133 247.623 308.075 248.155 308.041 248.795C308.001 249.427 307.136 250.251 306.108 250.64C305.076 251.019 295.538 255.064 284.93 259.577C274.305 264.098 255.73 271.938 243.611 276.954C228.772 283.099 204.024 292.783 174.006 303.201C159.006 308.356 142.673 313.724 125.72 318.617C108.778 323.545 91.173 328.009 74.0693 331.334C57.0021 334.67 40.426 336.731 26.7184 336.984C19.8604 337.126 13.7559 336.844 8.49701 336.245C3.22174 335.642 -1.2179 334.741 -5.1842 333.596C-9.15063 332.448 -12.6917 331.022 -16.1141 329.291C-19.5216 327.557 -22.7775 325.477 -25.8504 323.181C-27.4131 322.09 -28.8458 320.785 -30.3047 319.615C-31.0054 318.967 -31.6945 318.324 -32.3735 317.696C-32.7165 317.384 -33.0578 317.074 -33.3958 316.764C-33.7189 316.429 -34.0403 316.099 -34.3585 315.77C-34.9997 315.113 -35.6295 314.468 -36.2477 313.835C-36.8643 313.195 -37.4231 312.493 -38.0001 311.851C-38.5721 311.195 -39.1326 310.555 -39.6783 309.927C-40.1992 309.262 -40.7086 308.611 -41.2049 307.975C-41.307 307.855 -41.4158 307.728 -41.5165 307.611L-41.4982 307.608C-42.466 306.602 -43.4139 305.264 -44.3618 303.974C-44.6899 303.49 -45.1548 302.806 -45.7383 301.95C-46.2874 301.052 -46.9451 299.975 -47.6952 298.75C-48.4783 297.557 -49.2349 296.096 -50.0988 294.556C-50.5225 293.777 -50.9905 292.993 -51.4293 292.143C-51.8563 291.285 -52.2979 290.398 -52.7495 289.489C-56.1768 282.139 -59.1379 273.649 -61.6798 265.18C-64.1888 256.533 -66.6122 248.175 -68.6666 241.096C-69.2485 237.962 -69.5893 235.013 -69.9899 232.357C-70.4022 229.708 -70.6492 227.25 -70.9181 225.037C-71.4886 220.623 -71.7885 217.035 -72.1248 214.158C-72.2104 213.439 -72.2916 212.761 -72.3672 212.123C-72.463 211.437 -72.5536 210.792 -72.6375 210.186C-72.8567 208.892 -73.048 207.761 -73.218 206.763C-73.5939 204.77 -73.9562 203.312 -74.3472 202.138C-77.0131 193.099 -84.6884 164.659 -92.2949 142.89C-93.6943 138.393 -94.9902 133.99 -96.4029 129.694C-97.9495 125.395 -99.4561 121.208 -100.915 117.151C-101.672 115.122 -102.315 113.123 -103.136 111.16C-103.952 109.196 -104.753 107.267 -105.538 105.374C-107.122 101.587 -108.643 97.9467 -110.096 94.4715C-111.748 90.9966 -113.322 87.6865 -114.811 84.558C-115.558 82.9939 -116.284 81.4747 -116.987 80.0027C-117.339 79.2672 -117.687 78.5431 -118.028 77.8313C-118.409 77.1205 -118.782 76.4229 -119.149 75.7369C-122.125 70.2471 -124.666 65.5573 -126.699 61.8062L-126.809 61.8341C-128.756 58.564 -130.792 55.1474 -133.024 51.4013C-133.96 49.8443 -135.007 48.1046 -136.098 46.2932C-137.304 44.489 -138.558 42.6129 -139.784 40.7779C-142.271 37.1058 -144.649 33.5925 -146.319 31.1267C-149.801 26.51 -153.007 22.2019 -156.435 17.5287C-158.217 15.2003 -160.218 12.8011 -162.267 10.2173C-164.377 7.64168 -166.456 4.86603 -169.043 1.87912C-170.732 -0.0379715 -173.27 -2.85256 -176.019 -5.84566C-177.406 -7.3391 -178.791 -8.88795 -180.245 -10.3701C-181.759 -11.841 -183.23 -13.2689 -184.566 -14.5654C-187.259 -17.1533 -190.281 -20.1125 -193.136 -22.762C-196.14 -25.3776 -198.825 -27.7162 -200.471 -29.1493C-201.29 -29.8671 -203.098 -31.3852 -205.678 -33.5086C-208.347 -35.6061 -211.961 -38.2597 -216.097 -41.3297C-220.139 -44.4335 -225.233 -47.7765 -230.616 -51.3469C-235.873 -54.9679 -242.085 -58.5485 -248.22 -62.2156C-251.249 -64.0701 -254.437 -65.7749 -257.512 -67.4325C-260.586 -69.089 -263.56 -70.6912 -266.399 -72.2214C-272.182 -75.2209 -277.655 -77.8004 -282.174 -80.0429C-284.419 -81.1773 -286.579 -82.1199 -288.463 -82.969C-290.346 -83.8216 -291.974 -84.559 -293.318 -85.1663C-295.997 -86.3888 -297.51 -87.1081 -297.556 -87.2033C-297.748 -87.6003 -298.422 -87.7029 -299.072 -87.4485C-299.235 -87.3849 -300.072 -87.6148 -301.445 -88.0814C-302.824 -88.546 -304.81 -89.1851 -307.177 -90.0212C-309.553 -90.8518 -312.342 -91.8519 -315.404 -92.969C-319.22 -94.441 -323.384 -95.8019 -327.674 -97.2237C-329.82 -97.9324 -332.001 -98.6525 -334.213 -99.382C-335.321 -99.7449 -336.436 -100.109 -337.557 -100.476C-338.701 -100.814 -339.852 -101.154 -341.007 -101.496C-345.176 -102.712 -349.312 -103.921 -353.407 -105.116C-357.511 -106.3 -361.68 -107.291 -365.745 -108.353C-373.864 -110.519 -381.967 -112.181 -389.709 -113.9C-393.587 -114.739 -397.434 -115.406 -401.171 -116.13C-404.916 -116.808 -408.559 -117.571 -412.133 -118.111C-415.704 -118.677 -419.173 -119.227 -422.528 -119.759C-424.206 -120.021 -425.856 -120.277 -427.477 -120.529C-429.099 -120.745 -430.689 -120.956 -432.251 -121.162C-435.375 -121.567 -438.372 -121.955 -441.23 -122.324C-442.66 -122.507 -444.056 -122.684 -445.414 -122.857C-446.773 -123 -448.095 -123.141 -449.379 -123.276C-454.521 -123.8 -459.059 -124.263 -462.9 -124.655C-470.574 -125.257 -475.464 -125.641 -476.822 -125.747C-504.132 -127.719 -535.256 -128.005 -563.012 -127.061C-590.81 -126.157 -615.148 -123.95 -630.214 -122.549C-631.476 -122.422 -632.756 -122.293 -634.046 -122.162L-635.814 -121.986L-636.575 -121.927C-637.596 -121.846 -638.63 -121.764 -639.656 -121.682C-641.711 -121.512 -643.757 -121.35 -645.639 -121.149C-649.417 -120.765 -652.67 -120.403 -654.479 -120.161C-658.107 -119.689 -661.183 -119.641 -661.365 -120.123C-661.543 -120.604 -662.905 -120.54 -664.386 -119.973C-665.867 -119.407 -667.922 -119.386 -668.98 -119.922C-670.497 -120.689 -671.135 -120.554 -672.028 -119.26C-672.921 -117.97 -673.673 -117.784 -675.729 -118.418C-677.779 -119.048 -678.877 -118.779 -680.905 -117.12C-682.801 -115.575 -683.917 -115.257 -685.189 -115.907C-687.531 -117.106 -699.707 -114.658 -698.987 -113.153C-698.6 -112.319 -699.853 -111.955 -703.462 -111.85C-706.215 -111.757 -710.147 -110.996 -712.152 -110.104C-714.326 -109.136 -716.586 -108.707 -717.78 -109.024C-718.888 -109.316 -721.64 -108.846 -723.914 -107.953C-726.165 -107.036 -733.146 -105.345 -739.357 -104.031C-745.614 -102.752 -750.818 -101.226 -751.032 -100.736C-751.233 -100.244 -753.375 -99.6619 -755.753 -99.4465C-758.31 -99.2044 -760.88 -98.2555 -762.001 -97.1765C-763.054 -96.1611 -767.82 -94.3282 -772.637 -93.0562C-777.495 -91.7669 -781.555 -90.1124 -781.801 -89.3778C-782.088 -88.5244 -787.953 -86.434 -797.682 -83.5036C-806.14 -80.9434 -813.399 -78.0704 -813.722 -77.3585C-814.356 -75.9686 -813.823 -73.7981 -812.82 -72.3436C-798.083 -76.82 -783.615 -80.7485 -768.909 -84.4431C-754.222 -88.103 -739.398 -91.4654 -724.374 -94.5342C-694.33 -100.661 -663.516 -105.659 -631.777 -109.141C-614.46 -111.133 -596.875 -112.683 -579.043 -113.714C-561.212 -114.743 -543.098 -115.176 -524.825 -115.014C-506.547 -114.822 -488.1 -114.102 -469.594 -112.452C-451.097 -110.839 -432.582 -108.479 -414.267 -105.314C-395.961 -102.079 -377.93 -97.95 -360.4 -93.0593L-347.364 -89.2221C-343.086 -87.8558 -338.859 -86.4218 -334.619 -85.0103C-330.343 -83.6368 -326.251 -82.0645 -322.135 -80.5208C-318.046 -78.9505 -313.844 -77.4816 -309.921 -75.7654L-298.018 -70.7352C-294.131 -68.9986 -290.359 -67.175 -286.541 -65.385L-280.854 -62.674L-275.389 -59.8217C-271.77 -57.9054 -268.077 -56.0273 -264.553 -54.0591C-257.683 -50.0309 -250.585 -46.0973 -244.228 -41.825C-241.003 -39.7121 -237.668 -37.6391 -234.562 -35.4768L-225.408 -28.9245C-227.403 -30.3258 -229.493 -31.7944 -231.673 -33.3258C-233.854 -34.8553 -236.099 -36.4555 -238.646 -38.0258C-241.147 -39.6135 -243.733 -41.2569 -246.402 -42.9503C-247.741 -43.7935 -249.099 -44.65 -250.476 -45.5187C-251.923 -46.3548 -253.39 -47.2019 -254.876 -48.0604C-257.865 -49.7683 -260.931 -51.5194 -264.066 -53.3092C-265.609 -54.2168 -267.281 -55.0745 -268.966 -55.9424C-270.649 -56.8111 -272.35 -57.6881 -274.067 -58.5733C-277.54 -60.319 -280.922 -62.1931 -284.706 -63.8783C-288.432 -65.5973 -292.217 -67.3433 -296.053 -69.1137C-311.719 -75.9501 -329.042 -82.5095 -347.479 -88.1931C-365.975 -93.7897 -385.466 -98.5079 -404.967 -102.16C-424.465 -105.823 -443.956 -108.451 -462.44 -110.07C-480.928 -111.71 -498.426 -112.578 -514.171 -112.826C-545.682 -113.333 -570.162 -111.815 -583.3 -110.956C-595.403 -110.162 -611.042 -108.741 -626.413 -106.976C-628.828 -106.678 -631.239 -106.38 -633.609 -106.088C-635.062 -105.902 -636.493 -105.721 -637.883 -105.544C-640.631 -105.16 -643.196 -104.8 -645.402 -104.491Z" fill="#B1D136"/>
<path fill-rule="evenodd" clip-rule="evenodd" d="M579.704 220.635C546.146 233.66 519.338 242.957 490.387 253.073C461.473 263.224 430.619 274.333 389.765 291.811C348.908 309.296 312.05 323.028 277.302 334.883C242.533 346.742 210.061 356.791 177.359 366.887C144.627 376.97 112.592 384.643 83.214 389.005C68.5443 391.196 54.6131 392.614 41.8349 393.248C29.059 393.89 17.4956 393.785 7.6712 393.316C-11.2897 392.387 -28.0477 389.491 -41.6284 385.763C-55.2224 381.986 -65.6884 377.584 -73.6845 373.617C-77.7634 371.662 -81.0458 369.707 -84.0798 368.021C-86.9229 366.251 -89.4748 364.716 -91.5268 363.33C-93.5505 361.929 -95.2599 360.749 -96.6703 359.775C-98.0027 358.777 -99.0527 357.99 -99.831 357.407C-102.936 355.074 -101.845 356.043 -97.3679 359.644C-92.6455 363.136 -84.3168 369.337 -70.4778 376.047C-63.5494 379.374 -55.1828 382.742 -45.462 385.706C-35.7479 388.672 -24.6418 391.165 -12.6899 392.81C-0.739807 394.473 12.0034 395.297 24.9375 395.305C37.8715 395.302 50.9766 394.492 63.9685 393.114C89.9815 390.346 115.484 385.322 139.783 379.494C164.086 373.642 187.289 366.984 208.83 360.414C232.062 353.312 252.393 346.484 271.17 339.939C289.92 333.377 307.1 327.077 323.734 320.794C356.982 308.23 388.066 295.704 424.517 280.943C460.967 266.207 474.237 261.303 483.146 258.021C492.078 254.799 496.626 253.224 516.002 246.122C538.85 237.789 554.768 231.469 564.994 227.191C575.22 222.92 579.704 220.635 579.704 220.635ZM1557.76 136.278C1557.06 137.175 1558.08 137.903 1560.03 137.87C1560.39 137.872 1562.86 137.003 1567.16 135.346C1571.43 133.678 1577.65 131.326 1585.24 128.136C1600.54 121.864 1621.83 112.646 1646.39 100.906C1670.95 89.1656 1698.85 74.9613 1727.56 58.9249C1756.3 42.9101 1785.94 25.143 1814.48 6.60099C1837.84 -7.93732 1860.47 -23.0989 1877.06 -34.7442C1885.36 -40.5602 1892.18 -45.487 1896.93 -48.9508C1901.68 -52.4072 1904.42 -54.4348 1904.39 -54.2669C1904.24 -53.59 1905.98 -51.9312 1908.26 -50.5848C1908.46 -50.4714 1906.41 -48.5191 1902.53 -45.186C1898.64 -41.8489 1892.9 -37.1231 1885.59 -31.367C1870.97 -19.8515 1850.02 -4.22212 1825.08 12.8414C1763.53 54.2453 1689.5 97.3007 1607.16 134.299C1566 152.772 1522.74 169.642 1478.5 183.961C1456.4 191.144 1433.97 197.604 1411.54 203.322C1389.08 209.024 1366.67 214.065 1344.4 218.168C1322.12 222.25 1300.13 225.564 1278.7 228.059C1273.33 228.661 1267.98 229.165 1262.71 229.707C1260.08 229.966 1257.46 230.251 1254.84 230.48C1252.21 230.683 1249.6 230.884 1247 231.084C1241.8 231.463 1236.68 231.912 1231.59 232.209C1226.48 232.47 1221.44 232.727 1216.47 232.981C1211.51 233.279 1206.58 233.364 1201.72 233.488C1196.87 233.598 1192.09 233.754 1187.37 233.807C1182.65 233.799 1178 233.791 1173.43 233.783C1171.15 233.777 1168.88 233.771 1166.64 233.763C1164.39 233.74 1162.17 233.648 1159.96 233.593C1151.13 233.32 1142.62 233.161 1134.48 232.598C1130.41 232.361 1126.43 232.129 1122.53 231.902C1120.58 231.806 1118.66 231.645 1116.77 231.474C1114.87 231.31 1113 231.15 1111.15 230.99C1103.76 230.332 1096.71 229.804 1090.14 228.958C1083.56 228.166 1077.33 227.521 1071.59 226.718C1060.13 225.012 1050.24 223.683 1042.36 222.161C1038.4 221.454 1034.88 220.826 1031.83 220.282C1030.3 220.01 1028.89 219.759 1027.6 219.528C1026.33 219.268 1025.17 219.032 1024.14 218.82C1022.08 218.397 1020.49 218.072 1019.41 217.851C1018.32 217.634 1017.75 217.523 1017.69 217.525C1014.9 217.642 1013.46 218.157 1014.52 218.672C1014.72 218.773 1017.06 219.352 1021.37 220.365C1025.63 221.446 1032.03 222.658 1040.21 224.279C1048.34 225.997 1058.52 227.58 1070.33 229.494C1082.22 231.175 1095.82 233.065 1111.09 234.451C1118.69 235.295 1126.73 235.792 1135.12 236.387C1137.22 236.532 1139.34 236.679 1141.49 236.828C1143.63 236.974 1145.8 237.029 1147.99 237.134C1152.37 237.316 1156.83 237.502 1161.38 237.691C1165.93 237.928 1170.56 237.921 1175.27 238.006C1179.98 238.062 1184.77 238.159 1189.63 238.171C1194.49 238.109 1199.42 238.047 1204.42 237.983C1206.93 237.943 1209.45 237.903 1211.99 237.864C1214.51 237.767 1217.05 237.669 1219.61 237.57C1260.66 236.165 1305.55 231.53 1351.26 223.372C1356.94 222.318 1362.74 221.333 1368.45 220.187C1374.16 219.026 1379.91 217.856 1385.69 216.68C1397.14 214.165 1408.73 211.604 1420.18 208.716C1443.18 203.031 1466.12 196.6 1488.78 189.525C1534.04 175.311 1578.14 158.549 1620.03 140.322C1661.94 122.101 1701.58 102.375 1738.45 82.2794C1775.32 62.1733 1809.4 41.6861 1840.19 21.743C1864.04 6.95644 1884.13 -6.39909 1898.32 -16.1188C1905.41 -20.9848 1911.04 -24.9132 1914.92 -27.6497C1916.86 -29.0158 1918.37 -30.0698 1919.39 -30.7828C1919.9 -31.1371 1920.3 -31.406 1920.56 -31.5864C1920.83 -31.7646 1920.98 -31.8521 1920.99 -31.8439C1923.06 -30.8064 1919.95 -27.4447 1916.52 -23.2432C1913.09 -19.052 1909.33 -14.0077 1910.1 -9.41679C1910.18 -8.96757 1909.26 -8.65643 1909.78 -8.08773C1910.49 -7.30781 1909.58 -6.59589 1906.14 -5.28844C1902.42 -3.8914 1901.61 -3.19491 1901.94 -1.69173C1902.22 -0.372978 1901.15 0.753128 1898.21 2.12031C1892.77 4.67953 1881.28 12.5643 1882.27 13.1186C1882.71 13.3658 1880.02 15.4109 1876.32 17.6539C1871.44 20.586 1867.13 23.1947 1863.43 25.484C1861.58 26.6307 1859.87 27.6919 1858.31 28.6655C1857.53 29.159 1856.8 29.6307 1856.09 30.0792C1854.77 30.9516 1853.51 31.78 1852.31 32.5652C1845.9 36.7974 1840.95 40.1067 1837.53 42.4827C1834.14 44.8698 1832.3 46.3358 1832.07 46.8581C1831.39 48.4313 1829.83 49.2896 1826.54 49.8934C1823.6 50.4405 1821.58 51.5141 1820.86 52.8668C1819.43 55.6196 1805.49 63.834 1802.43 63.6888C1801.14 63.6394 1798.75 64.439 1797.04 65.4786C1795.36 66.5047 1795.54 67.3473 1797.45 67.3402C1800.43 67.3217 1798.62 68.6756 1785.37 76.1233C1776.67 80.9256 1770.04 85.1064 1770.54 85.4568C1771.09 85.8276 1769.15 86.8373 1766.2 87.7211C1763.26 88.6063 1760.34 89.9661 1759.66 90.778C1759 91.593 1756.39 92.9559 1753.9 93.8184C1751.59 94.5942 1745.25 97.8293 1733.58 103.76C1721.92 109.701 1705.06 118.408 1681.28 129.844C1674.3 133.147 1667.44 136.31 1661.95 138.702C1656.42 141.077 1652.34 142.73 1651.06 143.09C1648.51 143.79 1645.9 145.14 1645.28 145.99C1644.68 146.87 1638.77 149.636 1632.12 152.159C1620.34 156.55 1611.04 160.761 1595.78 168.326C1591.71 170.328 1587 171.97 1585.37 172.025C1584.55 172.05 1580.87 173.257 1575.6 175.174C1570.26 177.038 1563.33 179.604 1556.05 182.386C1549.06 184.954 1542.03 187.576 1536.24 189.654C1530.41 191.698 1525.92 193.271 1524.2 193.876C1523.39 194.15 1522.29 194.581 1521.76 194.834C1520.9 195.272 1514.36 197.417 1509.27 198.95C1508.22 199.286 1506.06 199.973 1503.36 200.833C1500.68 201.711 1497.44 202.75 1494.19 203.742C1487.7 205.753 1481.34 207.747 1479.69 208.316C1477.82 208.944 1473.49 210.212 1470.1 211.186C1467.62 211.91 1463.33 213.162 1458.19 214.66C1452.96 216.084 1446.88 217.743 1440.9 219.373C1440.4 219.501 1438.92 220.001 1436.87 220.653C1434.81 221.309 1432.22 222.137 1429.57 222.981C1424.29 224.687 1419.43 226.177 1418.79 226.306C1418.14 226.42 1416.86 226.647 1415.94 226.785C1415.01 226.93 1407.81 228.91 1399.91 231.179C1396 232.344 1391.21 233.542 1386.81 234.691C1382.39 235.828 1378.32 236.862 1375.64 237.514C1372.96 238.158 1368.57 239.123 1363.72 240.221C1358.84 241.293 1353.55 242.565 1348.77 243.483C1337.59 245.788 1317.26 249.704 1295.19 252.674C1284.26 254.317 1272.78 255.483 1262.2 256.689C1256.86 257.2 1251.7 257.624 1246.89 258.037C1242.07 258.431 1237.61 258.849 1233.57 259.036C1230.07 259.246 1226.01 259.488 1221.67 259.748C1217.31 260.021 1212.68 260.332 1207.99 260.487C1198.61 260.851 1189.22 261.378 1181.95 261.472C1172.16 261.749 1151.71 261.906 1126.57 260.379C1101.46 258.951 1071.66 256.013 1043.89 251.317C1042.15 251.042 1040.4 250.784 1038.68 250.493C1036.97 250.179 1035.26 249.865 1033.56 249.553C1030.17 248.921 1026.81 248.295 1023.49 247.675C1020.17 247.046 1016.9 246.424 1013.68 245.812C1010.51 245.115 1007.39 244.429 1004.34 243.757C998.247 242.386 992.35 241.135 986.914 239.793C981.527 238.394 976.465 237.08 971.812 235.873C967.164 234.657 962.935 233.542 959.335 232.409C955.703 231.315 952.559 230.351 949.998 229.546C944.862 227.935 942.028 226.957 942.137 226.815C942.137 226.815 941.54 226.618 940.455 226.262C940.027 226.119 939.503 225.945 938.892 225.742C938.455 225.593 937.958 225.423 937.407 225.236C935.197 224.5 932.166 223.437 928.74 222.437C925.349 221.352 921.298 220.279 917.575 219.234C915.693 218.746 913.893 218.278 912.289 217.862C910.689 217.426 909.236 217.134 908.124 216.846C906.438 216.438 904.173 215.865 901.307 215.332C899.88 215.05 898.326 214.742 896.649 214.41C894.945 214.122 893.122 213.814 891.19 213.488C883.411 212.244 873.655 211.004 862.372 210.221C851.094 209.446 838.32 209.049 824.677 209.431C811.056 209.779 796.633 210.759 782.361 212.302C771.72 213.457 759.239 215.136 747.71 216.987C736.185 218.835 725.636 220.77 718.955 222.07C701.949 225.326 687.407 228.66 674.087 231.921C660.767 235.203 648.655 238.459 636.415 241.992C611.926 249.091 586.904 257.072 550.416 270.076C526.405 278.625 494.379 290.518 479.195 296.076C426.752 315.17 378.055 335.421 326.526 357.146C303.823 366.711 287.075 373.404 275.958 377.695C264.84 381.991 259.313 383.89 258.74 383.873C258.44 383.864 257.911 384.038 257.571 384.273C256.96 384.657 246.514 388.65 231.689 393.816C224.298 396.405 215.741 399.267 206.856 402.131C197.905 404.979 188.642 407.832 179.713 410.367C168.243 413.629 159.008 416.161 152.504 417.954C146.058 419.767 142.403 420.861 142.156 421.265C141.625 422.123 140.994 422.242 140.139 421.66C139.816 421.45 138.072 421.665 133.79 422.419C131.644 422.791 128.887 423.305 125.403 423.979C121.826 424.621 117.578 425.442 112.293 426.369C109.636 426.826 106.755 427.321 103.637 427.855C100.435 428.358 96.9883 428.895 93.283 429.475C89.4689 430.012 85.4282 430.594 80.997 431.163C76.4788 431.691 71.7961 432.305 66.4803 432.791C63.8296 433.035 61.2052 433.337 58.306 433.544C55.4333 433.757 52.4781 433.976 49.4359 434.203C46.3048 434.368 43.0849 434.536 39.7745 434.709C36.4772 434.88 32.8903 434.928 29.3134 435.025C14.8212 435.263 -2.05511 434.931 -21.4752 432.697C-31.7109 431.475 -40.1795 430.063 -47.0209 428.659C-50.4449 427.94 -53.4689 427.304 -56.1165 426.664C-58.7586 425.999 -61.0375 425.397 -62.9921 424.857C-66.9133 423.808 -69.4666 422.902 -71.0447 422.282C-72.6191 421.654 -73.1951 421.276 -73.0438 421.066C-72.4432 420.23 -72.7244 420.171 -74.2268 420.77C-74.9965 421.072 -79.6149 420.188 -91.1982 416.189C-94.0267 415.146 -97.3588 413.942 -101.028 412.441C-102.824 411.665 -104.741 410.841 -106.788 409.96C-108.833 409.071 -110.981 408.113 -113.118 407.042C-115.29 405.982 -117.573 404.845 -119.969 403.629C-122.285 402.398 -124.648 401.071 -127.153 399.664C-129.708 398.263 -132.113 396.746 -134.684 395.14C-135.959 394.336 -137.263 393.509 -138.603 392.662C-139.886 391.81 -141.14 390.932 -142.446 390.028C-157.256 379.727 -166.959 370.556 -174.818 362.173C-182.589 353.77 -188.534 346.037 -193.763 338.166C-203.99 322.453 -212.053 306 -219.353 282.692C-221.131 277.283 -224.22 266.344 -225.995 258.437C-227.002 254.465 -227.815 250.031 -228.631 246.017C-229.327 242.03 -229.863 238.5 -230.153 236.372C-230.433 234.26 -230.89 230.816 -231.4 226.966C-231.66 225.169 -231.933 223.276 -232.205 221.398C-232.473 219.67 -232.738 217.956 -232.986 216.353C-233.574 212.567 -234.116 209.066 -234.62 205.81C-235.156 202.563 -235.788 199.597 -236.271 196.812C-237.3 191.255 -237.957 186.47 -238.834 182.302C-239.206 180.446 -239.74 177.772 -240.303 174.96C-240.894 172.151 -241.458 169.182 -242.161 166.829C-243.763 161.011 -244.966 156.022 -246.157 151.839C-247.436 147.685 -248.441 144.251 -249.224 141.4C-250.633 137.586 -252.222 134.288 -253.415 131.455C-254.627 128.628 -255.569 126.312 -256.179 124.645C-257.42 121.342 -259.461 117.158 -261.392 112.934C-261.887 111.882 -262.381 110.83 -262.867 109.796C-263.387 108.776 -263.953 107.794 -264.477 106.832C-265.554 104.918 -266.56 103.13 -267.423 101.593C-268.475 99.8364 -269.501 97.8015 -270.836 95.7204C-272.151 93.632 -273.557 91.3941 -275.022 89.0667C-275.742 87.8984 -276.477 86.7086 -277.223 85.5031C-277.964 84.2945 -278.845 83.1385 -279.655 81.9353C-281.297 79.5408 -282.959 77.1156 -284.604 74.716C-286.259 72.3235 -288.112 70.0757 -289.762 67.8315C-291.474 65.6218 -292.967 63.4015 -294.662 61.4975C-296.274 59.5461 -297.777 57.7276 -299.124 56.0956C-299.789 55.2746 -300.412 54.4999 -300.995 53.7787C-301.576 53.0583 -302.186 52.4382 -302.696 51.8469C-304.457 49.8625 -306.479 47.5845 -308.315 45.5148C-309.204 44.4565 -310.148 43.5191 -310.984 42.6898C-311.813 41.8541 -312.532 41.1288 -313.084 40.5736C-314.192 39.4627 -315.846 37.738 -317.618 35.8465C-319.502 34.0324 -321.534 32.0758 -323.257 30.4148C-324.117 29.5785 -324.958 28.7603 -325.74 27.9979C-326.522 27.2334 -327.355 26.6049 -328.031 26.0228C-329.412 24.8782 -330.4 24.0941 -330.669 23.9561C-331.195 23.6789 -331.941 23.2874 -332.318 23.0896C-332.497 22.9845 -333.158 22.4313 -334.078 21.6194C-334.544 21.2186 -335.05 20.7334 -335.638 20.243C-336.232 19.7598 -336.87 19.2405 -337.523 18.7088C-340.11 16.5628 -342.678 14.5125 -343.22 14.1602C-344.029 13.6131 -344.893 13.1083 -345.77 12.6209C-346.635 12.1243 -347.496 11.6319 -348.343 11.1456C-350.03 10.1699 -351.662 9.22617 -353.171 8.35351C-354.64 7.44685 -356.151 6.76585 -357.37 6.11059C-358.607 5.46974 -359.64 4.93504 -360.399 4.5425C-362.485 3.48954 -365.058 2.06981 -366.289 1.51656C-367.344 0.991119 -371.384 -0.965385 -375.593 -2.8508C-379.927 -4.60638 -384.286 -6.43928 -385.765 -6.95545C-389.342 -8.12277 -393.888 -9.78046 -394.49 -10.1153C-394.854 -10.3131 -395.599 -10.6706 -396.192 -10.8468C-397.443 -11.261 -400.703 -12.3376 -404.935 -13.7357C-405.978 -14.1056 -407.118 -14.4487 -408.326 -14.7825C-409.52 -15.1287 -410.763 -15.4882 -412.034 -15.8561C-414.582 -16.5855 -417.19 -17.4241 -419.937 -18.0608C-422.805 -18.781 -425.597 -19.4713 -428.2 -20.0874C-430.872 -20.6108 -433.339 -21.0775 -435.473 -21.4597C-439.706 -22.2737 -442.773 -22.5096 -443.375 -22.3746C-444.622 -22.0521 -448.4 -22.6126 -451.918 -23.4915C-455.268 -24.2662 -458.302 -24.9473 -461.125 -25.5469C-463.982 -26.0888 -466.657 -26.4885 -469.204 -26.8626C-470.476 -27.0449 -471.724 -27.2128 -472.955 -27.3643C-474.208 -27.4787 -475.447 -27.5786 -476.687 -27.6672C-479.161 -27.8444 -481.626 -27.9721 -484.201 -28.0659C-490.13 -28.1051 -495.63 -28.6284 -496.564 -29.1621C-497.485 -29.6805 -500.082 -29.9018 -502.215 -29.6165C-503.299 -29.4631 -507.004 -29.5247 -512.208 -29.4486C-514.806 -29.4125 -517.727 -29.4909 -520.903 -29.4258C-524.074 -29.3733 -527.438 -29.3537 -530.855 -29.3352C-554.419 -28.8995 -571.991 -27.3354 -584.003 -25.9744C-587.006 -25.6643 -589.667 -25.313 -592.001 -24.9905C-594.329 -24.6608 -596.334 -24.3785 -598.025 -24.1395C-599.711 -23.8819 -601.087 -23.6182 -602.154 -23.4111C-602.691 -23.305 -603.152 -23.2071 -603.534 -23.1164C-603.867 -23.033 -603.844 -22.9918 -603.976 -22.931C-604.724 -22.4447 -605.758 -22.2489 -606.278 -22.5044C-606.806 -22.7651 -607.868 -22.4076 -608.656 -21.7214C-609.445 -21.0301 -610.201 -20.8385 -610.365 -21.3382C-610.52 -21.8203 -613.537 -21.6442 -617.087 -20.957C-622.541 -19.905 -623.471 -19.8721 -623.261 -21.2486C-623.125 -22.1201 -623.621 -22.7486 -624.364 -22.6374C-625.121 -22.525 -625.768 -21.9419 -625.822 -21.3196C-625.95 -19.8525 -631.806 -18.6893 -633.615 -19.7144C-634.503 -20.2234 -635.278 -19.9432 -635.752 -18.9098C-636.276 -17.7466 -636.878 -17.556 -637.917 -18.2154C-638.609 -18.6636 -641.963 -18.3936 -647.796 -17.3262C-653.634 -16.2939 -661.95 -14.4126 -672.454 -11.6309C-676.441 -10.5521 -679.877 -9.96284 -680.068 -10.3008C-680.287 -10.7005 -683.778 -10.105 -687.815 -9.16126C-691.83 -8.17941 -696.396 -6.85963 -698.729 -5.78504C-701.263 -4.6435 -702.985 -4.45702 -704.685 -5.11123C-706.608 -5.85203 -707.738 -5.63773 -710.436 -4.03048C-712.938 -2.5448 -714.05 -2.24603 -714.957 -2.93427C-715.617 -3.42569 -716.228 -3.00639 -716.816 -3.20522C-722.867 -5.25343 -730.505 -4.69397 -736.839 -3.97483C-743.169 -3.2485 -748.168 -2.36142 -749.33 -3.84914C-749.343 -3.86562 -749.111 -3.96557 -748.646 -4.14483C-748.177 -4.31689 -747.47 -4.5724 -746.555 -4.90724C-744.718 -5.57176 -741.961 -6.51035 -738.42 -7.70034C-731.321 -10.0648 -720.931 -13.3442 -708.048 -16.9852C-695.175 -20.6314 -679.8 -24.632 -662.843 -28.3894C-654.381 -30.3088 -645.504 -32.084 -636.395 -33.8459C-627.262 -35.5149 -617.893 -37.191 -608.387 -38.584C-552.141 -46.0815 -493.557 -46.9735 -442.484 -38.5377C-429.696 -36.4916 -417.477 -33.7789 -405.725 -30.7674C-402.821 -29.9646 -399.932 -29.1652 -397.055 -28.371C-394.169 -27.5848 -391.443 -26.6225 -388.643 -25.7715C-387.252 -25.3346 -385.864 -24.8988 -384.48 -24.464C-383.086 -24.0396 -381.785 -23.5151 -380.436 -23.0495C-377.757 -22.0944 -375.093 -21.1455 -372.446 -20.2018C-351.603 -12.2655 -333.397 -2.89407 -317.924 6.91006C-302.431 16.7153 -289.715 26.9552 -279.196 36.5246C-268.541 46.0411 -260.547 55.1314 -253.894 62.6462C-247.579 70.3116 -242.625 76.4489 -239.551 80.8409C-236.346 85.1845 -234.5 87.5873 -234.247 87.745C-233.462 88.2693 -232.611 87.4389 -232.475 85.9317C-232.47 85.8833 -232.843 85.2712 -233.572 84.1337C-234.309 82.9975 -235.39 81.3334 -236.792 79.1762C-239.485 74.82 -244.048 68.7031 -249.92 60.9948C-256.115 53.4232 -263.657 44.2383 -273.881 34.503C-283.972 24.7195 -296.289 14.1488 -311.563 3.87591C-326.809 -6.40218 -345.016 -16.3506 -366.126 -25.0018C-368.786 -26.0579 -371.528 -27.0583 -374.246 -28.104C-375.608 -28.6245 -376.975 -29.1456 -378.348 -29.668C-379.743 -30.1647 -381.176 -30.6242 -382.593 -31.1073C-385.439 -32.0624 -388.3 -33.0235 -391.178 -33.99C-394.131 -34.8658 -397.1 -35.7457 -400.083 -36.6306C-403.031 -37.5641 -406.141 -38.305 -409.218 -39.1146C-412.313 -39.8986 -415.363 -40.7776 -418.573 -41.4411C-421.75 -42.157 -424.941 -42.8751 -428.144 -43.5963C-431.407 -44.2227 -434.684 -44.8501 -437.974 -45.4818C-451.204 -47.8732 -464.934 -49.7812 -479.043 -51.1194C-493.178 -52.3876 -507.66 -53.1296 -522.334 -53.3428C-551.685 -53.8136 -581.775 -51.983 -611.422 -48.5942C-632.744 -46.3102 -653.729 -43.1007 -673.105 -39.6051C-692.463 -36.0608 -710.217 -32.221 -725.182 -28.6233C-740.17 -25.0575 -752.356 -21.7441 -760.813 -19.4373C-769.266 -17.1068 -773.942 -15.785 -774.142 -15.99C-775.842 -17.6405 -778.052 -19.0231 -779.027 -19.0767C-779.369 -19.0829 -774.156 -21.1156 -764.709 -24.3126C-755.267 -27.4982 -741.619 -31.7854 -725.483 -36.2444C-709.347 -40.69 -690.732 -45.3159 -671.565 -49.333C-652.421 -53.411 -632.722 -56.8282 -614.703 -59.4193C-608.451 -60.2704 -602.24 -60.9093 -596.143 -61.6109C-590.023 -62.1878 -584.017 -62.8431 -578.088 -63.2716C-566.249 -64.2927 -554.811 -64.8366 -543.938 -65.2788C-522.183 -65.9895 -502.67 -65.5877 -486.402 -64.6627C-453.813 -62.7976 -434.337 -59.1309 -433.385 -59.4421C-431.599 -59.7666 -430.969 -60.6487 -432.016 -61.3833C-432.325 -61.6726 -437.424 -62.6524 -446.475 -64.2679C-448.739 -64.6698 -451.291 -65.0006 -454.058 -65.4197C-456.837 -65.8051 -459.831 -66.3038 -463.089 -66.684C-466.352 -67.062 -469.838 -67.4649 -473.533 -67.8935C-477.234 -68.32 -481.18 -68.6002 -485.313 -68.9856C-501.868 -70.359 -521.81 -71.2141 -544.111 -70.9347C-555.249 -70.7134 -566.992 -70.3755 -579.145 -69.5585C-585.238 -69.2308 -591.408 -68.6775 -597.706 -68.1964C-603.967 -67.5937 -610.356 -67.0486 -616.786 -66.2924C-635.447 -64.4802 -655.935 -61.8189 -675.931 -58.4386C-695.954 -55.118 -715.49 -51.1307 -732.537 -47.2375C-749.585 -43.3315 -764.135 -39.5124 -774.388 -36.6945C-784.632 -33.8726 -790.634 -32.0809 -790.561 -32.3293C-790.269 -33.2028 -790.803 -34.2011 -791.764 -34.5299C-793.86 -35.2398 -794.927 -41.0805 -793.036 -41.6966C-792.343 -41.918 -791.172 -43.5108 -790.429 -45.2048C-789.663 -46.913 -788.301 -48.2841 -787.412 -48.2418C-786.537 -48.208 -785.959 -48.992 -786.141 -50.0037C-786.205 -50.3489 -786.114 -50.8536 -785.959 -51.4038C-781.953 -52.6423 -778.221 -53.7642 -777.164 -54.0711C-775.851 -54.4556 -772.912 -55.3138 -770.611 -55.9865C-767.239 -56.9777 -758.913 -59.3082 -750.824 -61.4574C-750.159 -61.6262 -746.618 -62.5237 -742.941 -63.4572C-739.245 -64.3617 -735.896 -65.1819 -735.477 -65.2847C-735.062 -65.391 -734.242 -65.601 -733.663 -65.7494L-722.785 -68.3016C-720.074 -68.9063 -716.88 -69.6182 -713.918 -70.2786C-710.942 -70.9123 -708.199 -71.4963 -706.412 -71.8776C-702.844 -72.6566 -694.847 -74.2679 -688.645 -75.46C-681.312 -76.8888 -668.029 -79.3183 -653.948 -81.5158C-650.416 -82.0455 -646.848 -82.5812 -643.326 -83.1098C-639.776 -83.594 -636.276 -84.072 -632.908 -84.5315C-629.545 -85.0086 -626.269 -85.3712 -623.229 -85.7472C-621.548 -85.9492 -619.898 -86.147 -618.276 -86.3406C-616.389 -86.5798 -614.517 -86.7557 -612.698 -86.9507C-609.048 -87.3278 -605.567 -87.6861 -602.286 -88.0252C-590.875 -89.0914 -575.655 -90.2722 -560.22 -90.9604C-544.777 -91.6197 -529.146 -91.726 -517.171 -91.5683C-513.32 -91.5043 -508.49 -91.3469 -502.816 -91.1955C-499.982 -91.1264 -496.924 -90.9235 -493.68 -90.7752C-490.435 -90.5865 -486.995 -90.4927 -483.376 -90.1917C-468.899 -89.2636 -451.556 -87.5244 -432.657 -84.6128C-430.844 -84.3275 -429.009 -84.039 -427.155 -83.7474C-426.227 -83.6002 -425.296 -83.4519 -424.36 -83.3033C-423.432 -83.1294 -422.499 -82.9552 -421.563 -82.7801C-417.815 -82.0711 -413.991 -81.349 -410.095 -80.6124C-406.221 -79.8252 -402.322 -78.9144 -398.334 -78.0378C-394.327 -77.1937 -390.352 -76.1511 -386.308 -75.1014C-370.134 -70.9308 -353.327 -65.7442 -336.874 -59.1712C-320.382 -52.6505 -304.105 -44.9286 -288.673 -36.1185C-284.895 -33.8695 -281.09 -31.6029 -277.254 -29.3198C-273.626 -26.9264 -269.972 -24.5156 -266.294 -22.0903C-264.419 -20.8951 -262.706 -19.6155 -260.967 -18.3431C-259.228 -17.0697 -257.485 -15.7932 -255.736 -14.5136C-254.014 -13.2216 -252.184 -11.9709 -250.545 -10.6336C-248.898 -9.30037 -247.248 -7.96204 -245.594 -6.62164C-238.817 -1.32083 -232.782 4.33852 -226.601 9.98444C-223.706 12.8734 -220.802 15.7726 -217.89 18.681C-217.171 19.4105 -216.423 20.1317 -215.726 20.8694L-213.708 23.103C-212.363 24.5938 -211.018 26.0867 -209.67 27.5817L-205.632 32.0707C-204.306 33.5728 -203.13 35.1171 -201.871 36.64C-199.403 39.6997 -196.891 42.7546 -194.469 45.832C-192.208 48.9457 -189.946 52.0623 -187.681 55.1808C-186.579 56.7447 -185.363 58.286 -184.358 59.8706L-181.283 64.609C-179.261 67.773 -177.132 70.9163 -175.213 74.0925C-173.375 77.2813 -171.537 80.4681 -169.703 83.6494C-168.797 85.2422 -167.854 86.8268 -166.983 88.4208L-164.53 93.2228C-162.903 96.4198 -161.277 99.6108 -159.657 102.793C-158.106 105.984 -156.752 109.19 -155.303 112.371C-153.916 115.561 -152.376 118.719 -151.135 121.899C-149.895 125.077 -148.659 128.242 -147.43 131.394C-146.215 134.546 -144.919 137.672 -143.934 140.812C-142.881 143.944 -141.834 147.058 -140.794 150.154C-139.748 153.249 -138.695 156.325 -137.878 159.395C-137.003 162.461 -136.135 165.506 -135.274 168.527C-134.435 171.55 -133.492 174.542 -132.844 177.527C-131.437 183.487 -130.055 189.347 -128.699 195.091C-127.59 200.843 -126.504 206.479 -125.443 211.982C-124.943 214.661 -124.449 217.308 -123.961 219.921C-123.482 222.485 -123.066 225.028 -122.513 227.509C-121.991 229.996 -121.476 232.447 -120.968 234.862C-120.395 237.265 -119.832 239.63 -119.278 241.956C-116.938 251.237 -114.459 259.845 -111.713 267.595C-106.293 283.115 -100.216 295.269 -95.4171 303.431C-94.168 305.454 -93.0576 307.253 -92.0951 308.81C-91.1226 310.365 -90.1898 311.632 -89.494 312.686C-88.7812 313.729 -88.2367 314.528 -87.8717 315.062C-87.4785 315.585 -87.2761 315.852 -87.2761 315.852C-82.8203 321.797 -76.8575 328.811 -68.2936 336.213C-59.7129 343.565 -48.4161 351.354 -32.5549 357.103C-12.6084 364.452 11.3528 366.833 36.1827 365.452C61.0343 364.137 86.361 359.621 111.176 353.733C136.044 347.822 160.577 340.513 184.97 332.533C209.369 324.537 233.649 315.838 258.119 306.747C272.3 301.487 294.45 293.075 318.715 283.681C343.032 274.267 369.512 264.016 392.294 255.196C461.77 228.44 510.424 210.999 559.206 195.552C583.636 187.863 608.107 180.655 635.69 173.56C649.493 170.028 664.08 166.534 679.888 163.147C695.706 159.773 712.73 156.467 731.487 153.559C746.188 151.257 769.765 147.973 796.328 146.118C809.602 145.2 823.592 144.63 837.441 144.559C851.285 144.477 864.978 144.902 877.619 145.716C911.51 147.963 945.915 153.614 976.902 162.444C984.366 164.613 991.771 166.766 999.099 168.895C1006.19 171.058 1013.48 172.788 1020.59 174.603C1034.84 178.153 1048.97 181.061 1062.58 183.483C1089.82 188.313 1115.04 190.876 1135.67 192.228C1138.25 192.39 1140.75 192.546 1143.19 192.699C1145.62 192.848 1147.97 193.021 1150.25 193.07C1154.82 193.227 1159.06 193.373 1162.95 193.508C1164.89 193.566 1166.75 193.663 1168.51 193.681C1170.28 193.696 1171.96 193.708 1173.54 193.721C1176.7 193.75 1179.47 193.775 1181.84 193.796C1183.41 193.808 1185.2 193.821 1187.16 193.835C1189.13 193.823 1191.28 193.76 1193.56 193.721C1198.12 193.618 1203.25 193.558 1208.59 193.396C1213.93 193.151 1219.5 192.895 1224.98 192.643C1230.46 192.37 1235.82 191.9 1240.78 191.574C1243.26 191.385 1245.69 191.251 1248.02 191.032C1250.35 190.807 1252.59 190.591 1254.74 190.385C1259.01 189.973 1262.87 189.603 1266.12 189.291C1272.58 188.521 1276.59 188.042 1276.65 188.035C1276.83 188.013 1278.19 187.848 1280.59 187.557C1282.99 187.27 1286.44 186.873 1290.75 186.215C1295.07 185.58 1300.3 184.856 1306.28 183.948C1312.22 182.934 1318.95 181.864 1326.26 180.561C1329.9 179.871 1333.7 179.15 1337.64 178.404C1339.6 178.028 1341.6 177.648 1343.64 177.261C1345.66 176.834 1347.71 176.401 1349.79 175.961C1353.95 175.079 1358.24 174.172 1362.63 173.242C1366.98 172.23 1371.43 171.194 1375.97 170.136C1394.08 165.788 1413.44 160.76 1432.71 154.914C1452.02 149.116 1471.37 142.721 1489.81 136.132C1508.21 129.5 1525.68 122.662 1541.46 116.208C1572.93 103.199 1597.48 91.6044 1609.29 85.9274C1613.64 83.8154 1618.7 81.4189 1623.97 78.7579C1629.26 76.1224 1634.89 73.3273 1640.4 70.461C1643.18 69.0362 1645.94 67.6133 1648.67 66.2132C1651.36 64.7903 1654.01 63.391 1656.57 62.0375C1661.73 59.3452 1666.45 56.7674 1670.52 54.5585C1679.95 49.4711 1691.44 43.0246 1703.76 35.9403C1716.06 28.8385 1729.09 21.0352 1741.66 13.2772C1754.23 5.52538 1766.28 -2.21821 1776.74 -9.11491C1782.06 -12.6488 1786.66 -15.7025 1789.94 -17.8826C1794.09 -20.7128 1799.49 -24.3682 1801.87 -26.0404C1804.27 -27.7022 1809.22 -31.1442 1812.82 -33.7098C1816.43 -36.2762 1819.69 -38.6005 1820.09 -38.883C1820.49 -39.158 1821.05 -39.5474 1821.33 -39.744C1821.62 -39.9472 1823.84 -41.5625 1826.3 -43.3428L1831.53 -47.1787C1836.96 -51.1174 1842.52 -55.2428 1844.76 -56.9313C1846.29 -58.082 1848.24 -59.5523 1849.11 -60.2096C1849.81 -60.7424 1852.27 -62.6226 1854.92 -64.6451C1855.79 -64.6019 1856.58 -64.5348 1857.1 -64.4143C1858.61 -64.065 1859.92 -64.2236 1860.03 -64.7439C1860.13 -65.2756 1862.46 -65.7548 1865.22 -65.8372C1867.96 -65.9113 1870.59 -66.2811 1871.05 -66.6519C1872.26 -67.6227 1881.2 -65.9526 1882.02 -64.5749C1882.4 -63.9309 1883.87 -63.4345 1885.3 -63.4808C1885.62 -63.4933 1883.4 -61.3614 1879.25 -57.739C1875.09 -54.1134 1868.97 -48.9857 1861.42 -42.9277C1846.33 -30.8024 1825.43 -14.9968 1803.77 0.294647C1776.18 19.1199 1747.45 37.2208 1719.57 53.6014C1691.73 70.0035 1664.63 84.6057 1640.8 96.7662C1616.95 108.918 1596.32 118.582 1581.56 125.286C1574.25 128.697 1568.28 131.257 1564.24 133.141C1560.19 135.014 1557.93 136.082 1557.76 136.278Z" fill="#B1D136"/>
</g>
</svg>
