<svg width="3561" height="609" viewBox="0 0 3561 609" fill="none" xmlns="http://www.w3.org/2000/svg">
<path fill-rule="evenodd" clip-rule="evenodd" d="M17.2375 348.681C14.0764 346.718 12.3386 343.393 12.7047 340.01C12.669 338.867 11.9422 337.819 10.8044 337.275C7.46882 335.653 3.92179 330.46 5.1072 328.765C5.50234 326.547 5.07947 324.263 3.90199 322.252C2.69279 319.953 2.12059 317.439 2.23556 314.921C2.55405 313.586 2.31351 312.277 1.6686 312.259C-1.3762 311.374 0.11713 293.043 3.1725 293.122C4.11872 293.186 4.59973 292.546 4.13719 291.767C1.52585 287.441 22.6597 265.021 29.0229 265.573C29.7973 265.631 30.3629 265.185 30.1647 263.876C29.9665 262.567 31.0078 261.981 35.4481 261.445C39.8898 260.909 41.1942 259.908 41.7347 258.119C42.2752 256.331 44.0117 255.226 47.6803 254.44C54.502 252.969 70.429 246.483 69.8409 245.356C69.8462 244.973 73.5729 243.076 78.5035 241.363C104.449 232.455 118.431 226.609 118.666 225.158C118.9 223.707 119.933 223.695 121.558 224.543C123.182 225.39 124.218 225.226 124.534 224.083C125.082 221.682 132.217 219.338 133.96 220.955C134.698 221.663 135.837 221.905 136.836 221.568C137.658 221.245 138.053 220.679 136.393 219.256C134.733 217.831 135.603 217.164 142.303 215.114L143.86 214.58L146.022 213.792C148.489 212.822 150.738 211.922 152.6 211.127C153.376 210.787 154.094 210.486 154.74 210.212C157.197 209.176 158.632 208.571 158.367 208.019C158.032 207.32 160.54 206.465 164.075 206.059C167.064 205.829 169.944 204.999 172.501 203.633C174.793 202.291 177.387 201.404 180.112 201.033C183.64 200.493 196.08 196.223 220.07 187.988C233.911 183.237 251.599 177.168 273.636 169.733C291.234 163.903 308.173 158.901 311.149 158.48C313.844 158.229 316.384 157.283 318.46 155.758C323.56 153.15 329.085 151.252 334.85 150.127C350.034 146.196 364.838 141.223 379.126 135.255C382.916 133.541 387.05 132.491 391.306 132.162C402.953 129.862 414.409 126.895 425.603 123.28L448.55 116.479L462.419 112.585C463.384 112.33 464.324 112.008 465.23 111.624C466.441 111.271 473.7 109.199 479.401 107.776L512.621 98.8658C514.567 98.2262 519.491 96.9364 523.206 95.9981C525.79 95.4338 530.163 94.2748 535.422 92.8832C541.316 91.3225 548.321 89.4684 555.168 87.8231C555.664 87.5984 557.189 87.1214 559.267 86.4725C561.551 85.7589 564.502 84.8378 567.49 83.8123C567.919 83.6642 568.346 83.5176 568.769 83.3722C573.96 81.5881 578.482 80.034 579.119 80.0512L582.138 79.6323C582.984 79.5556 588.654 77.8165 595.539 75.7047C596.718 75.3426 597.933 74.9699 599.164 74.5933C607.593 72.015 619.045 68.6332 624.618 67.091C625.851 66.75 627.417 66.3113 629.212 65.8064C635.529 64.033 644.691 61.4613 652.225 59.5688C674.949 53.4132 734.924 39.4523 766.248 33.983L815.749 24.3495C818.991 23.6875 823.463 22.9095 828.933 21.9576C831.329 21.5408 833.917 21.0906 836.676 20.6021C845.737 18.9986 856.65 17.3286 868.809 15.7678L907.877 10.6167L949.644 6.37985C963.525 4.826 977.054 3.87649 989.978 3.02608C994.018 2.76032 997.923 2.48359 1001.69 2.21678C1009.97 1.62975 1017.58 1.09083 1024.44 0.822563C1034.44 0.432316 1042.66 0.18757 1048.43 0.108675C1051.42 -0.0928579 1054.44 -0.0139642 1057.42 0.344302L1064.48 0.299107C1065.74 0.27717 1067.13 0.233559 1068.63 0.186381C1072.36 0.0690289 1076.76 -0.0695985 1081.49 0.0543608C1094.83 0.135503 1112.56 0.369943 1120.95 0.589845C1122.74 0.636627 1124.88 0.671117 1127.34 0.710895C1133.58 0.811728 1141.91 0.946262 1151.94 1.40153L1175.09 2.00811L1187.99 2.34628L1194.84 2.52562L1202.02 2.98221C1245.47 5.25642 1288.8 9.48941 1331.85 15.6652L1358.22 19.5013L1385.32 24.6218C1388.43 25.2461 1391.49 25.8306 1394.47 26.4001C1399.92 27.4405 1405.1 28.4307 1409.87 29.5223L1428.75 33.8523C1448.67 38.3899 1466.01 43.4453 1481.97 48.0985C1486.43 49.401 1490.79 50.671 1495.06 51.8894C1502.4 54.1717 1509.43 56.5346 1516.32 58.8486C1518.54 59.5913 1520.73 60.3287 1522.92 61.0569C1524.41 61.5538 1525.9 62.0467 1527.38 62.537C1534.86 65.0109 1542.25 67.4544 1549.4 70.2653L1575.91 80.2032C1584.16 83.3233 1592.4 86.7963 1601.16 90.4873C1602 90.8415 1602.84 91.197 1603.69 91.5551L1618.59 97.8125L1634.04 104.814C1644.9 109.663 1656.37 114.835 1668.26 120.86C1669.91 121.683 1671.6 122.52 1673.32 123.368C1679.7 126.527 1686.45 129.862 1693.19 133.364L1718.15 146.675C1734 155.451 1748.22 163.61 1757.06 168.827C1765.67 173.958 1774.13 179.028 1782.45 184.021C1803.61 196.712 1823.91 208.891 1843.72 220.228C1871.31 236.023 1898.49 250.926 1925.86 264.3C1934.71 268.625 1942.57 272.31 1949.53 275.566C1952.08 276.763 1954.52 277.904 1956.83 278.995C1962.85 281.841 1968.1 284.159 1972.61 286.145C1974.53 286.993 1976.31 287.781 1977.96 288.523C1983.48 291.008 1987.55 292.916 1990.24 294.214C1991.76 294.769 1993.19 295.491 1994.52 296.359C1994.82 296.632 1995.21 296.806 1995.63 296.849C1996.41 296.946 2006.76 301.168 2020.63 307.054C2025.54 308.876 2030.83 310.931 2036.28 313.054C2046.64 317.082 2057.61 321.348 2067.75 324.703C2087.23 332.002 2098.99 334.803 2100.12 334.066C2101.25 333.329 2101.67 333.876 2101.66 334.682C2101.65 335.487 2106.62 337.65 2122.26 342.891L2154.89 352.261C2159.24 353.479 2164.09 354.605 2169.3 355.814C2172.42 356.537 2175.67 357.289 2179 358.109L2179.73 358.287C2188.46 360.43 2198.1 362.796 2209.05 364.687C2232.61 369.217 2239.35 371.004 2239.08 372.3C2238.8 373.598 2238.88 373.753 2239.76 372.319C2240.65 370.885 2250.57 372.218 2289.02 377.79C2302.87 379.38 2314.68 380.763 2325.64 382.125C2331.09 382.881 2336.42 383.404 2341.72 383.849L2357.48 385.414L2373.78 387.144C2375.15 387.293 2376.54 387.45 2377.94 387.609C2382.28 388.103 2386.76 388.615 2391.54 388.913L2435.22 392.628C2443 393.407 2459.6 394.188 2471.69 394.695C2483.78 395.204 2499.09 396.142 2505.63 396.582C2512.17 397.022 2527.01 397.411 2538.63 397.715L2557.74 398.216L2574.1 398.337C2584.25 398.411 2592.9 398.638 2600.59 398.841H2600.61L2614.11 399.195L2629.1 399.088L2680.76 398.716C2686.04 398.701 2696.81 398.446 2704.65 398.23L2719.12 397.803L2732.03 397.222L2759.3 396.056L2759.9 396.022C2762.84 395.853 2768.51 395.525 2776.54 394.629L2808.88 390.643C2817.61 389.688 2827.13 388.303 2837.21 386.831C2842.16 386.112 2847.23 385.372 2852.44 384.651C2916.37 374.932 2979.66 362.356 3042.08 346.972C3079.86 337.645 3116.5 327.444 3151.34 316.506C3186.18 305.567 3219.4 294.127 3250.49 282.438L3273.48 273.643L3291.43 266.443C3296.06 264.649 3300.42 262.789 3304.7 260.97C3305.39 260.678 3306.08 260.386 3306.75 260.095C3315.25 256.622 3323.07 253.187 3330.33 250.008C3331.58 249.458 3332.81 248.916 3334.03 248.383C3350.78 241.19 3363.95 235.053 3373 230.765C3376.51 229.17 3379.98 227.572 3383.4 225.898L3386.14 224.666C3386.37 224.543 3386.52 224.398 3386.64 224.289C3386.84 224.106 3386.92 224.028 3387.13 224.346C3387.46 224.854 3388.42 224.304 3389.2 223.059C3392.61 219.749 3397.2 217.572 3402.21 216.88C3403.28 216.984 3403.92 216.656 3403.67 216.265C3401.65 213.26 3419.62 217.795 3422.64 220.943C3423.59 221.871 3424.7 222.663 3425.93 223.292C3426.98 223.822 3427.75 224.718 3428.04 225.764C3428.07 226.57 3429.06 226.94 3430.22 226.971C3432.89 226.619 3445.41 234.349 3446.91 237.265C3447.59 238.587 3448.7 239.7 3450.1 240.456C3451.43 240.988 3451.8 241.574 3451.42 241.833C3451.02 242.09 3452.17 243.079 3453.97 244.047C3456.36 245.176 3457.84 247.425 3457.76 249.823C3458.16 253.017 3458.66 253.796 3460.21 253.492C3462.55 253.055 3466.78 258.036 3465.59 260.306C3464.4 262.577 3466.01 264.037 3471.2 265.132C3476.4 266.227 3482.01 271.015 3492.49 282.988C3488.1 285.327 3482.99 287.992 3480.23 289.377C3473.67 292.774 3463.54 297.724 3448.33 304.995L3430.45 313.195L3413.69 320.656L3391.09 330.228L3369.84 338.837L3347.86 347.39C3343.93 348.936 3339.21 350.652 3334.89 352.226L3319.17 358.374C3315.91 359.673 3312.82 360.803 3310.08 361.806C3308.57 362.359 3307.16 362.873 3305.89 363.356C3243.69 386.618 3200.59 399.795 3159.72 411.266C3118.84 422.735 3080.23 432.846 3025.09 444.826C3017.94 446.276 3011.3 447.655 3005.1 448.941C2994.46 451.149 2985.16 453.079 2976.98 454.61L2946.77 460.185C2935.98 462.249 2930.42 463.158 2927.74 463.596C2926.71 463.766 2926.1 463.864 2925.79 463.931C2924.71 464.172 2924.33 464.161 2924.33 464.161L2911.05 466.229L2891.54 469.363C2886.18 470.222 2879.96 471.075 2872.87 472.049C2869.09 472.57 2865.04 473.125 2860.75 473.733C2778.95 485.011 2723.77 488.703 2687.72 491.116C2682.36 491.476 2677.41 491.806 2672.88 492.129L2636.26 493.855L2625.54 494.303C2624.35 494.277 2623.18 494.322 2622 494.44C2621.45 494.535 2617.83 494.63 2611.32 494.799C2608.79 494.866 2605.79 494.943 2602.38 495.037L2580.15 495.606C2578.7 495.643 2577.2 495.684 2575.68 495.724C2567.92 495.936 2559.4 496.167 2550.02 496.083C2544.14 496.071 2538.1 496.089 2531.98 496.109C2519.95 496.147 2507.61 496.186 2495.44 495.994L2443.11 494.854L2386.24 492.022L2383.7 491.954C2382.77 492.053 2374.89 491.374 2358.74 489.981C2354.84 489.644 2350.45 489.265 2345.56 488.846L2324.06 487.017C2316.91 486.244 2309.12 485.267 2300.55 484.197L2297.63 483.832C2294.51 483.442 2291.3 483.062 2288 482.67C2281.02 481.845 2273.62 480.968 2265.84 479.853L2228.68 473.856C2168.77 463.569 2109.91 448.576 2052.79 429.053C1995.14 408.985 1939.5 384.424 1886.54 355.662C1881.18 352.978 1875.02 349.532 1868.14 345.682C1864.64 343.726 1860.96 341.666 1857.1 339.549C1848.76 334.973 1839.77 329.749 1830.33 324.268C1826.81 322.224 1823.23 320.144 1819.6 318.048C1804.69 309.217 1789.11 299.862 1773.88 290.72C1761.92 283.536 1750.17 276.483 1739.14 269.916C1701.09 247.25 1668.37 228.674 1638.19 212.811C1633.36 210.416 1628.65 208.021 1624 205.662C1613.87 200.522 1604.08 195.551 1594.23 191.14L1573.09 181.381L1551.99 172.505C1488.79 146.08 1422.2 126.91 1353.84 115.46C1352.46 115.221 1351.01 114.95 1349.51 114.667C1346.48 114.098 1343.2 113.482 1339.67 112.98L1322.49 110.612C1318.67 110.148 1314.72 109.611 1310.65 109.057C1301.45 107.807 1291.64 106.474 1281.44 105.702L1259.04 103.619L1247.61 102.552C1243.83 102.107 1240 102.007 1236.21 101.908L1192.12 99.6402C1119.37 97.5139 1046.62 99.7988 974.392 106.478L928.573 111.145L889.423 116.026L872.737 118.119L858.374 120.275L836.808 123.545C826.779 124.85 809.031 127.896 791.573 130.892C784.259 132.147 776.996 133.393 770.372 134.499L729.85 142.181C729.707 142.229 728.972 142.367 727.695 142.606C725.131 143.087 720.38 143.977 713.838 145.368L673.261 153.931C670.829 154.474 668.336 155.029 665.785 155.596C650.773 158.936 633.794 162.713 615.706 167.189C611.854 168.142 607.945 169.104 603.988 170.078C586.203 174.453 567.441 179.071 548.5 184.221C455.588 208.327 357.528 240.812 326.393 251.502C303.517 259.379 266.494 272.599 244.217 280.838C239.952 282.456 235.361 284.181 230.495 286.007C220.697 289.686 209.791 293.782 198.226 298.271L182.822 304.235L172.956 308.156C159.758 313.334 147.207 318.413 140.239 321.26L123.357 328.258L107.687 334.866L97.2534 339.348L95.4786 340.068L88.2485 343.178L80.6286 346.545L61.2312 355.011L54.7359 357.871L46.0759 361.748C45.3688 361.451 44.7081 361.073 44.1107 360.622C42.8751 359.593 41.5021 359.289 41.0197 359.967C40.5373 360.645 37.9564 360.461 35.2142 359.508C33.2504 358.686 31.0951 358.313 28.945 358.423C27.0816 359.294 19.6255 353.614 19.6546 351.43C19.5528 350.166 18.5934 349.076 17.2375 348.681ZM3482.47 302.515C3480.96 303.261 3479.44 304.017 3477.97 304.747L3477.96 304.753C3473.1 307.158 3468.84 309.277 3467.48 309.801C3466.68 310.111 3464.59 311.132 3461.78 312.508L3461.77 312.513C3458.36 314.178 3453.9 316.36 3449.37 318.427C3446.08 319.907 3442.82 321.434 3439.53 322.966C3437.57 323.876 3435.61 324.788 3433.66 325.694L3425.46 329.319C3420.59 331.539 3414.64 334.049 3408.76 336.531L3408.75 336.535C3405.5 337.908 3402.26 339.271 3399.23 340.573L3382.66 347.32C3381.66 347.754 3372.18 351.615 3361.41 355.71L3346.4 361.422L3340.99 363.392L3335.84 365.407C3319.95 371.826 3279.29 386.964 3237.79 400.506C3227.2 404.067 3215.83 407.609 3206.2 410.544C3202.69 411.609 3199.42 412.624 3196.46 413.537C3191.28 415.139 3187.11 416.428 3184.58 417.12L3184.3 417.202C3160.81 424.058 3102.17 441.185 3023.4 458.013C2983.77 466.421 2939.06 474.657 2891.36 482.045C2843.65 489.435 2792.88 495.401 2741.28 499.77C2641.65 508.131 2541.4 510.635 2441.16 507.265C2371.06 505.295 2301.12 498.521 2231.99 487.002C2201.91 482.374 2156.22 472.345 2130.56 465.722C2124.08 464.247 2117.91 462.472 2112.16 460.786L2096.51 456.306L2079.96 451.571C2077.6 450.779 2074.81 449.901 2073.66 449.564C2072.5 449.225 2069.88 448.389 2067.74 447.642C2067.42 447.528 2066.61 447.271 2065.4 446.88C2058.55 444.677 2038.58 438.251 2017.06 429.764C2005.83 425.78 1993.96 420.812 1983.14 416.286L1980.56 415.206C1979.88 414.921 1979.2 414.637 1978.52 414.357C1966.54 409.357 1956.53 404.756 1951.01 402.117C1948.64 401.025 1946.25 399.941 1943.85 398.85C1939.15 396.726 1934.4 394.571 1929.62 392.263L1907.73 381.399C1900.24 377.786 1892.81 373.828 1885.24 369.791C1883.01 368.599 1880.76 367.405 1878.49 366.208L1878.49 366.207L1878.47 366.198C1873.08 363.342 1867.63 360.456 1862.25 357.477C1831.27 340.538 1799.37 321.502 1766.57 301.867C1761.1 298.591 1755.61 295.291 1750.09 291.977L1750.09 291.975C1722.53 275.423 1694.37 258.509 1665.4 242.426C1630.74 222.924 1594.99 205.056 1558.28 188.898L1542.19 182.141L1541.69 181.926C1536.6 179.75 1531.62 177.625 1526.61 175.857L1496.84 164.748C1492.95 163.483 1489.12 162.224 1485.35 160.983C1470.32 156.036 1456.22 151.395 1442.57 147.967C1439.6 147.17 1436.69 146.343 1433.82 145.528C1428.41 143.991 1423.15 142.497 1417.91 141.332L1394.61 135.96L1383.49 133.403C1381.18 132.854 1378.86 132.444 1376.55 132.037C1375.22 131.804 1373.9 131.571 1372.59 131.312L1351.59 127.46C1341.46 125.423 1331.54 124.092 1321.81 122.789H1321.81C1318.47 122.341 1315.15 121.896 1311.85 121.427L1292.74 118.776L1273.65 116.971L1254.56 115.204L1244.89 114.297C1241.66 114.213 1238.39 114.127 1235.12 113.734L1194.3 111.589H1194.3C1186.38 111.382 1176.32 111.118 1164.87 111.049C1161.19 111.026 1157.38 110.952 1153.45 110.877C1145.13 110.717 1136.32 110.547 1127.25 110.831L1086.31 111.486L1046.98 113.259C1034.88 113.693 1022.43 114.673 1010.23 115.633L1009.46 115.693C1005.64 115.994 1001.84 116.269 998.075 116.543H998.074C989.587 117.158 981.318 117.757 973.523 118.591C964.661 119.513 956.371 120.347 948.998 121.09H948.996H948.993C937.722 122.225 928.593 123.144 922.833 123.829C917.157 124.536 911.684 125.208 906.406 125.855L906.404 125.857C884.702 128.52 866.299 130.778 850.649 133.457L824.383 137.376L803.459 140.898L773.993 145.924C769.172 146.762 765.065 147.557 761.362 148.275L761.358 148.276C759.163 148.702 757.11 149.1 755.135 149.462C752.406 149.989 749.145 150.61 745.537 151.297L745.493 151.305L745.49 151.307C731.99 153.878 713.652 157.371 700.109 160.346C691.476 162.192 680.728 164.445 670.281 166.628L642.691 172.972L623.348 177.417L596.011 184.189C579.651 188.097 561.067 193.055 541.797 198.196L541.793 198.197L541.778 198.201C536.998 199.476 532.175 200.763 527.333 202.049C478.731 215.328 429.026 230.613 403.825 238.554L363.145 251.734C352.325 255.43 341.901 258.95 333.488 261.792L333.483 261.794L333.425 261.814C331.069 262.61 328.871 263.352 326.866 264.03C292.271 276.025 257.023 288.464 202.246 309.682L186.02 315.977L176.154 319.905C171.597 321.732 167.346 323.465 162.805 325.314L162.795 325.319L162.791 325.32C157.849 327.333 152.563 329.486 146.163 332.057C145.083 332.513 143.724 333.083 142.206 333.72C138.188 335.403 133.055 337.555 129.064 339.289L113.566 345.833C100.897 351.184 88.2273 356.638 75.5552 362.193L50.655 373.367C49.7577 374.684 48.9767 376.063 48.3199 377.491C47.334 380.187 45.6504 382.628 43.4025 384.618C42.147 385.2 41.2061 388.017 41.3819 390.902C41.3898 395.64 43.5122 400.215 47.2812 403.613L60.8783 397.518L66.8979 394.872L85.1667 387.018L92.3531 383.905L99.1511 380.972L100.839 380.288L110.708 376.13L125.512 369.99L141.481 363.498L172.378 351.252C176.541 349.66 180.72 348.046 184.783 346.478C193.007 343.302 200.766 340.308 206.99 338.029C227.931 329.939 262.669 316.948 284.293 309.336C298.956 304.038 329.271 293.466 366.755 281.086C404.24 268.706 448.889 254.863 492.487 242.489C536.083 230.116 577.767 219.113 609.117 211.718L630.449 206.516L646.985 202.764L661.967 199.318L673.106 196.845C677.345 195.828 682.627 194.748 688.544 193.539L688.547 193.537C692.094 192.812 695.868 192.041 699.783 191.209C710.229 188.986 722.315 186.462 733.577 184.414L761.669 179.16C763.518 178.826 765.597 178.434 767.898 178.002C771.823 177.261 776.392 176.402 781.561 175.496L810.508 170.687L827.764 167.798L846.87 164.998C851.592 164.354 856.442 163.635 861.409 162.9L861.416 162.899C870.373 161.572 879.714 160.189 889.39 159.084C956.176 150.239 1023.53 144.773 1091.14 142.714L1131.83 142.09C1137.34 141.934 1142.87 142.037 1148.39 142.142C1149.9 142.17 1151.41 142.199 1152.92 142.221L1173.62 142.533L1193.41 143.052L1211.48 143.985L1240.51 145.514L1268.71 148.097L1282.08 149.33L1288.57 149.961L1294.93 150.819L1319.34 154.145L1331.07 155.759C1333.46 156.085 1335.82 156.532 1338.16 156.976L1338.17 156.977C1339.57 157.242 1340.96 157.506 1342.36 157.744C1370.45 162.483 1398.26 168.557 1425.67 175.939L1445.74 181.533C1450.4 182.704 1454.95 184.231 1459.56 185.775L1459.56 185.776C1461.69 186.491 1463.84 187.211 1466.01 187.9C1472.87 190.076 1479.77 192.331 1486.84 194.743L1508.25 202.792L1519.43 206.924L1530.73 211.674C1533.34 212.789 1535.99 213.893 1538.67 215.008C1543.84 217.164 1549.11 219.363 1554.45 221.78L1579.56 233.42C1584.95 235.984 1590.49 238.781 1596.15 241.646L1596.16 241.648C1599.47 243.323 1602.83 245.023 1606.24 246.713C1649.61 268.642 1704.01 301.284 1736.46 320.758L1736.46 320.761L1736.49 320.777C1740.4 323.124 1743.99 325.279 1747.21 327.201C1798.45 357.84 1849.49 387.477 1902.99 413.721C1956.74 440.282 2012.94 462.595 2070.92 480.401L2107.03 490.639C2111.26 491.897 2115.42 492.951 2119.45 493.97L2119.47 493.975C2120.7 494.285 2121.91 494.592 2123.11 494.9L2137.96 498.476C2141.9 499.394 2145.69 500.296 2149.31 501.16C2154.41 502.372 2159.19 503.512 2163.7 504.526L2184.6 508.683C2188.88 509.517 2192.78 510.304 2196.3 511.013L2196.31 511.016C2202.91 512.345 2208.17 513.408 2212.09 514.012L2222 515.576L2224.5 515.987L2241.3 518.654L2258.48 521.37C2262.88 522.052 2267.61 522.604 2272.62 523.187C2275.07 523.474 2277.6 523.769 2280.18 524.088C2311.42 528.249 2350.93 531.587 2385.2 533.753L2436.47 536.21L2455.67 536.712C2456.84 536.664 2458 536.695 2459.15 536.803L2469.62 537.078C2476.84 537.267 2488.25 537.565 2505.46 537.709C2510.83 537.658 2516.77 537.637 2523.32 537.614C2558.74 537.487 2612 537.298 2690.32 531.994C2699.32 531.308 2707.15 530.749 2713.93 530.264L2713.95 530.263L2713.97 530.261C2725.5 529.435 2733.99 528.829 2740.04 528.189L2752.98 526.993L2754.39 527.03C2754.91 527.043 2756.37 526.882 2759.53 526.535C2762.74 526.182 2767.69 525.637 2775.17 524.887L2776.14 524.792C2783.47 524.079 2792.97 523.155 2805.35 521.568C2809.69 521.013 2814.32 520.483 2819.31 519.914L2819.32 519.912C2829.2 518.784 2840.44 517.502 2853.24 515.566L2891.67 510.084L2926.06 503.997C2940.94 501.739 2955.05 499.04 2969.14 496.35C2975.48 495.139 2981.81 493.929 2988.2 492.762C3029.11 484.427 3072.58 475.39 3135.86 458.234C3138.42 457.523 3141.44 456.702 3144.81 455.788L3144.84 455.78L3144.86 455.775C3151.13 454.075 3158.57 452.055 3166.37 449.817L3202.19 439.237L3236.3 428.612L3262.8 419.745C3267.44 418.249 3274.37 415.795 3282.37 412.966C3284.43 412.237 3286.56 411.481 3288.75 410.711C3299.39 406.957 3310.94 402.69 3321.1 398.849C3322.11 398.469 3323.1 398.095 3324.09 397.723L3326.03 396.996L3326.05 396.987C3330.29 395.399 3334.41 393.849 3338.42 392.237L3352.61 386.657C3353.45 386.335 3354.27 386.019 3355.09 385.71V385.709C3357.91 384.64 3360.55 383.637 3363.04 382.629L3379.82 375.89C3381.95 375.076 3384.99 373.839 3388.18 372.536C3391.47 371.192 3394.95 369.776 3397.78 368.681C3413.15 362.364 3423.32 357.831 3430 354.819L3444.85 348.066C3456.19 342.911 3467.41 337.56 3478.63 331.979C3479.01 331.789 3479.54 331.523 3480.21 331.184L3480.23 331.18C3485.67 328.45 3500.49 321.011 3518.99 310.575C3517.36 309.941 3515.59 309.671 3513.83 309.787C3513.07 309.767 3512.57 308.755 3512.8 307.264C3513.36 303.44 3508.63 297.057 3503.75 294.51C3502.92 294.041 3502.13 293.492 3501.41 292.874L3499.51 293.899C3497.25 294.929 3492.27 297.489 3487.13 300.125C3485.57 300.927 3483.99 301.739 3482.47 302.515ZM3550.98 337.291C3547.07 339.685 3543.21 338.586 3544.67 336.089C3547.22 331.854 3541.51 320.645 3536.27 320.084C3534.83 319.931 3533.46 319.416 3532.32 318.599C3524.43 323.192 3516.02 327.696 3506.3 332.817C3487.96 342.438 3469.59 351.326 3451.05 359.827C3450.26 360.185 3449.11 360.709 3447.73 361.342C3444.06 363.026 3438.73 365.469 3433.99 367.522L3418.87 374.115L3400.73 381.781C3394.59 384.498 3389.1 386.585 3386.51 387.568C3385.63 387.896 3385.1 388.102 3384.97 388.165L3376.79 391.369L3336.02 407.276C3331.98 408.783 3328.08 410.248 3324.39 411.641C3317.35 414.292 3311.01 416.677 3305.73 418.579L3290.42 424.246C3287.68 425.249 3261.61 434.436 3232.03 443.837C3207.81 451.538 3183.97 458.475 3173.14 461.626L3173.13 461.629C3170.74 462.324 3169 462.836 3168 463.129L3127.91 473.753C3122.56 475.068 3116.91 476.496 3111.07 477.976L3111.06 477.979C3097.65 481.378 3083.16 485.048 3068.52 488.25C3065.16 489.011 3061.75 489.807 3058.36 490.598C3050.85 492.347 3043.4 494.085 3036.68 495.442L3014.88 499.978C2991.49 504.973 2932.43 517.02 2853.63 527.551C2761.36 539.808 2668.23 546.911 2574.77 548.817C2566.18 549.166 2557.56 549.178 2548.93 549.188C2544.86 549.195 2540.78 549.2 2536.71 549.241C2524.01 549.369 2511.3 549.421 2498.65 549.281L2460.76 548.557L2441.96 548.064C2437.75 547.954 2433.53 547.74 2429.32 547.527C2427.25 547.421 2425.17 547.317 2423.11 547.224L2385.9 545.405L2376.69 545.163L2367.57 544.425L2349.42 542.912C2345.34 542.558 2341.3 542.226 2337.27 541.896H2337.25C2329.4 541.254 2321.63 540.618 2313.94 539.833L2279.55 535.744L2262.92 533.734C2259.12 533.233 2255.34 532.623 2251.62 532.019L2251.6 532.018C2249.97 531.753 2248.34 531.489 2246.71 531.235L2215.49 526.269L2207.97 525.074L2200.58 523.613L2186.19 520.74L2158.89 515.262L2111.42 503.841L2074.53 493.389C2069.03 491.929 2063.09 489.989 2056.85 487.953L2056.83 487.947C2054.7 487.252 2052.54 486.545 2050.35 485.843L2023.77 477.121L1998.32 467.659C1990.27 464.721 1982.9 461.994 1976.9 459.418C1973.05 457.818 1969.24 456.258 1965.57 454.752C1957.68 451.514 1950.39 448.526 1944.49 445.933L1928.91 438.882C1926.69 437.863 1924.04 436.68 1922.92 436.228C1921.81 435.777 1919.33 434.675 1917.32 433.7C1917.1 433.594 1916.65 433.377 1915.98 433.062L1915.98 433.059L1915.97 433.056C1910.53 430.453 1891 421.104 1869.75 410.219C1845.89 397.996 1818.46 382.569 1808.29 376.771C1782.44 361.962 1754.71 345.491 1725.84 328.181C1696.97 310.873 1666.81 292.993 1635.57 275.661C1604.13 258.242 1571.75 242.232 1538.56 227.688C1505.28 213.223 1470.91 200.925 1435.72 190.892L1420.45 186.651C1419.19 186.309 1417.94 185.96 1416.69 185.612C1412.99 184.579 1409.35 183.565 1405.69 182.808L1377.58 176.348C1374.16 175.432 1370.49 174.778 1366.92 174.143C1366.01 173.981 1365.11 173.82 1364.22 173.656L1351.34 171.283L1338.88 169.036C1334.84 168.239 1330.85 167.52 1326.85 167.031L1303.77 163.893C1301.42 163.589 1299.11 163.255 1296.82 162.924C1291.87 162.209 1287.05 161.514 1282.28 161.178L1242.38 157.445C1235.25 157.108 1228.32 156.725 1221.5 156.348H1221.5C1203.94 155.378 1187.2 154.453 1170.17 154.478C1158.38 154.169 1146.59 153.86 1134.4 154.078L1096.59 154.662C1091.47 154.529 1085.39 154.852 1078.59 155.213C1075.61 155.372 1072.51 155.537 1069.28 155.674C1066.94 155.775 1064.55 155.873 1062.09 155.973C1053.4 156.327 1044.03 156.709 1034.38 157.296C1030.42 157.579 1026.4 157.86 1022.35 158.144C1001.09 159.634 979.022 161.181 959.861 163.292C956.281 163.687 952.656 164.085 949.008 164.485C929.417 166.636 909.169 168.859 891.646 170.991C879.923 172.417 869.254 173.967 860.584 175.228H860.581H860.579C853.879 176.202 848.373 177.002 844.501 177.436C834.344 178.806 824.906 180.411 816.173 181.893C813.224 182.396 810.356 182.882 807.567 183.343C804.451 183.857 801.403 184.342 798.431 184.815C790.872 186.021 783.807 187.145 777.361 188.465L733.335 196.683L687.956 206.285L636.525 217.764C630.996 219.117 624.491 220.676 617.791 222.282L617.79 222.283C605.07 225.333 591.649 228.551 582.876 230.836C579.792 231.652 575.924 232.655 571.403 233.828L571.394 233.829C562.743 236.073 551.706 238.935 539.195 242.289C520.14 247.396 497.625 253.68 474.887 260.458C429.329 273.781 382.673 288.765 359.06 296.71C347.771 300.485 333.976 305.117 320.911 309.727C317.259 311.017 313.652 312.285 310.166 313.51C301.184 316.665 292.994 319.542 286.823 321.815C270.868 327.478 254.826 333.473 236.394 340.36L236.388 340.363L235.464 340.708L197.382 355.265L177.691 362.89L149.339 374.206L133.191 380.81L118.558 386.878C115.657 388.07 99.4207 394.826 82.7047 402.069L62.4351 411.062C67.6697 411.531 72.9399 411.229 78.033 410.165C79.5924 409.476 81.0884 410.245 82.1007 411.846C83.4355 413.713 85.3675 415.183 87.6419 416.061C90.5122 417.136 91.1916 417.844 90.1449 418.816C89.3599 419.984 89.3414 421.447 90.0934 422.655C90.8942 424.02 90.918 425.403 90.0524 425.726C89.1868 426.048 89.2145 427.24 89.8026 428.292C90.392 429.344 90.3775 430.458 89.7696 430.787C87.0406 432.022 86.7089 437.543 89.1511 441.64C90.3814 443.336 90.9735 445.331 90.84 447.329C89.9599 448.765 94.3658 454.181 97.5758 455.61C102.933 454.788 108.081 453.155 112.796 450.785C121.454 447.172 126.901 445.547 128.098 446.232C131.388 446.381 134.635 445.65 137.425 444.133C140.705 442.522 144.407 441.695 148.178 441.727C150.387 442.093 152.644 441.544 154.312 440.236C155.921 439.011 157.824 438.332 158.637 438.736C162.393 438.175 165.977 436.964 169.191 435.173C173.49 433.155 178.029 431.562 182.73 430.42C185.102 430.137 187.312 429.12 187.668 428.13C188.026 427.141 189.932 426.307 192.302 426.178C194.996 425.872 197.53 424.901 199.615 423.374C201.966 421.477 203.175 421.201 203.934 422.373C205.068 424.515 215.321 420.867 215.615 418.225C215.633 416.804 216.841 416.605 219.628 417.446C222.417 418.287 223.581 418.164 224.293 416.339C225.007 414.515 225.698 414.303 227.535 415.426C229.37 416.549 229.976 416.412 230.214 414.728C230.525 413.422 231.799 412.489 233.301 412.467C234.807 412.505 235.764 411.801 235.428 411.14C235.093 410.478 237.179 408.958 240.079 407.843L280.557 391.238C305.582 380.795 362.179 359.735 406.027 345.446L441.79 333.671L476.38 322.788L517.189 310.416C522.358 308.854 527.399 307.435 532.204 306.081C534.793 305.353 537.313 304.644 539.75 303.94C542.516 303.169 545.021 302.504 547.181 301.985C549.509 301.204 551.974 300.775 554.474 300.716C554.941 301.267 555.542 301.321 555.809 300.752C557.092 300.149 558.44 299.657 559.832 299.282C562.341 298.427 565.973 297.217 570.469 295.912L605.263 285.764L662.865 270.03L686.162 263.306L711.835 255.913C715.54 254.856 718.995 253.861 722.266 252.919L722.267 252.918C735.212 249.19 745.296 246.284 756.776 243.611L788.134 236.061C797.622 233.885 806.041 232.033 813.698 230.35L813.706 230.347H813.709C818.177 229.364 822.385 228.439 826.395 227.539L841.854 224.104L856.228 221.37C861.379 220.405 866.531 219.398 871.687 218.391L871.7 218.389L871.702 218.387C880.409 216.687 889.13 214.982 897.881 213.475C904.699 212.31 914.794 210.807 926.484 209.155C938.174 207.502 951.412 205.968 964.476 204.658C990.562 201.694 1015.81 200.319 1026.06 200.128L1040.75 199.783L1056.51 199.697L1085.4 199.532C1089.41 199.47 1094.06 199.546 1101.18 199.661H1101.19H1101.2C1103.93 199.706 1107.02 199.756 1110.58 199.808L1134.95 200.1L1151.65 200.538L1171.96 201.377L1182.37 201.65C1186.68 201.763 1192.06 201.904 1197.6 202.356L1234 204.692C1238.02 204.798 1242.19 205.29 1246.47 205.795C1248.69 206.058 1250.94 206.323 1253.22 206.54L1273.12 208.674L1282.58 209.69L1291.18 211.029L1305.22 213.241C1307.83 213.666 1310.4 214.066 1312.92 214.461H1312.92C1316.92 215.086 1320.82 215.695 1324.64 216.361L1342.68 220.021L1360.67 223.527L1379.13 227.851C1381.36 228.395 1383.62 228.927 1385.91 229.467C1390.15 230.465 1394.54 231.498 1399.21 232.717L1421.56 239.063C1427.95 240.697 1434.55 242.9 1441.59 245.246C1443.39 245.846 1445.21 246.454 1447.07 247.066L1461.3 251.702C1464.68 252.904 1468.13 254.219 1471.68 255.571C1473.27 256.175 1474.88 256.787 1476.51 257.4C1512.61 271.06 1547.65 286.94 1581.36 304.925C1615.05 322.706 1647.13 341.941 1674.8 358.604C1680.23 361.895 1694.92 370.383 1707.78 377.671C1716.35 382.269 1724.59 387.359 1732.42 392.911C1732.97 393.981 1734.27 394.577 1735.55 394.337C1736.89 394.073 1738.31 394.318 1739.46 395.015C1740.61 395.698 1751.81 401.867 1765.11 408.744C1767.33 409.914 1769.82 411.223 1772.5 412.636L1772.52 412.647C1777.71 415.384 1783.64 418.509 1789.86 421.759L1816.63 435.325C1821.57 437.716 1827.3 440.563 1833.76 443.774L1833.76 443.778L1833.77 443.779C1856.38 455.015 1887.97 470.716 1925.99 487.001C1980 510.211 2035.88 529.651 2093.13 545.146C2147.35 559.4 2202.44 570.717 2258.09 579.039C2268.14 580.334 2277.66 581.65 2286.57 582.881C2298.54 584.536 2309.41 586.036 2318.91 587.123C2321.58 587.428 2324.14 587.719 2326.59 587.997C2339.33 589.447 2349.01 590.549 2354.92 591.445C2359.74 592.148 2374.4 594.145 2387.43 595.024L2423.64 598.085L2438.12 599.425L2448.11 600.185C2451.46 600.503 2469.02 601.386 2487.18 602.131C2492.76 602.359 2498.15 602.561 2503 602.743H2503.01C2513.95 603.154 2522.12 603.459 2523.28 603.729C2527.58 604.456 2570.9 606.782 2597.34 606.4C2602.09 606.167 2606.87 606.512 2611.54 607.424C2620.68 608.443 2629.9 608.685 2639.08 608.146C2653.47 607.639 2667.81 607.285 2670.91 607.405C2674 607.524 2686.02 607.609 2697.51 607.143C2709.02 606.676 2722.68 606.303 2727.67 606.243C2734 606.139 2739.99 606.027 2746.19 605.806C2752.17 605.592 2758.45 605.135 2765.51 604.621L2766.27 604.566L2791.74 602.507C2801.52 601.764 2812.82 600.524 2826.23 598.956L2855.52 595.652C2861.5 594.983 2867.25 594.177 2872.76 593.404C2875.71 592.992 2878.58 592.589 2881.39 592.221L2904.33 588.982C2912.8 587.823 2921.06 586.445 2929.16 585.094C2934.81 584.152 2940.37 583.223 2945.88 582.389L2965.61 579.065L2984.6 575.493C3008.26 571.204 3030.38 566.495 3051.22 562.057L3051.27 562.047C3055.2 561.21 3059.07 560.384 3062.92 559.571C3087.14 554.445 3109.25 548.957 3129.69 543.617C3168.55 533.934 3201.09 524.431 3228.86 516.324L3233.41 514.998C3277.7 501.556 3308.64 490.992 3330.95 483.375V483.372L3330.99 483.363C3337.34 481.189 3343.01 479.254 3348.09 477.563C3361.5 472.669 3375.21 468.414 3389.15 464.814C3390.11 464.618 3391.12 464.365 3392.19 464.096L3392.2 464.092C3392.61 463.988 3393.03 463.881 3393.47 463.775C3393.69 463.701 3393.91 463.636 3394.13 463.581C3394.32 463.535 3394.5 463.494 3394.69 463.461L3395.45 463.482C3396.25 463.33 3396.95 462.974 3397.5 462.459C3403.12 458.401 3409.22 454.916 3415.71 452.068C3418.57 450.557 3420.98 448.496 3422.82 446.034C3423.86 444.042 3425.97 442.66 3428.42 442.34C3437.33 442.189 3445.7 437.992 3440.6 436.207C3437.82 435.212 3449.29 429.906 3452.25 430.713C3455.21 431.521 3461.94 427.626 3467.82 422.25C3470.26 419.871 3473.21 417.963 3476.51 416.64C3483.07 413.559 3488.83 409.29 3493.43 404.103C3496.46 401.387 3499.84 399.002 3503.51 396.993C3506.9 395.196 3509.86 392.821 3512.21 390.002C3514.73 387.256 3517.89 385.035 3521.47 383.486C3525.81 381.218 3529.68 378.439 3529.73 377.366C3532.53 373.615 3535.98 370.285 3539.94 367.494C3543.94 364.831 3547.27 361.472 3549.75 357.613C3549.77 356.73 3550.92 355.07 3552.95 353.856C3555.3 352.262 3557.15 350.157 3558.33 347.737C3558.98 346.536 3559.44 345.255 3559.68 343.932C3560.1 342.9 3560.11 341.761 3559.72 340.708C3558.54 338.296 3557.27 336.803 3555.73 336.455C3554.95 336.229 3554.1 336.208 3553.32 336.392C3552.46 336.525 3551.67 336.833 3550.98 337.291Z" fill="#F0F2F9"/>
</svg>
