<svg width="1440" height="771" viewBox="0 0 1440 771" fill="none" xmlns="http://www.w3.org/2000/svg">
<path d="M1441 0H1V771H1441V0Z" fill="#0397C9"/>
<mask id="mask0_40_466" style="mask-type:alpha" maskUnits="userSpaceOnUse" x="0" y="0" width="1440" height="771">
<path d="M1440 0H0V771H1440V0Z" fill="#00BCF1"/>
</mask>
<g mask="url(#mask0_40_466)">
<path fill-rule="evenodd" clip-rule="evenodd" d="M-641.402 -168.037C-651.619 -165.792 -666.516 -161.973 -680.569 -157.84C-694.646 -153.744 -707.861 -149.301 -715.147 -146.716C-721.336 -144.598 -729.251 -141.638 -732.824 -140.32C-738.26 -138.233 -743.697 -136.162 -749.088 -133.962C-754.483 -131.817 -759.304 -129.714 -759.901 -129.489C-760.48 -129.234 -761.296 -128.876 -761.706 -128.695C-762.125 -128.514 -765.456 -127.075 -769.129 -125.486C-772.793 -123.854 -776.315 -122.285 -776.981 -121.989C-785.047 -118.268 -793.372 -114.184 -796.776 -112.454C-799.1 -111.271 -802.067 -109.761 -803.393 -109.087C-804.213 -108.654 -806.583 -107.404 -809.463 -105.886C-810.935 -105.087 -812.539 -104.218 -814.138 -103.348C-815.925 -102.348 -817.711 -101.348 -819.342 -100.43C-819.247 -97.8923 -818.376 -95.6931 -816.8 -93.7933C-816.007 -92.8441 -815.041 -91.9692 -813.906 -91.1617C-812.776 -90.3492 -811.413 -89.6419 -810.155 -88.8376C-807.33 -87.2172 -804.063 -86.4229 -802.696 -87.1415C-801.338 -87.8574 -796.918 -87.826 -792.967 -87.0135C-791.212 -86.6548 -789.399 -86.4443 -787.763 -86.3623C-781.529 -89.4346 -772.31 -93.8083 -761.861 -98.3676C-748.732 -104.133 -735.458 -109.449 -722.015 -114.37C-718.757 -115.54 -711.374 -118.181 -705.537 -120.109C-702.638 -121.112 -699.111 -122.222 -695.794 -123.28C-692.481 -124.352 -689.355 -125.32 -687.227 -125.94C-674.03 -129.96 -665.135 -132.233 -654.79 -134.889C-652.029 -135.546 -648.092 -136.483 -643.977 -137.462C-639.862 -138.441 -635.514 -139.309 -632.024 -140.077C-629.294 -140.685 -626.669 -141.187 -624.149 -141.662C-622.363 -142.003 -620.613 -142.337 -618.9 -142.664C-615.801 -143.283 -612.73 -143.785 -609.727 -144.278C-606.719 -144.771 -603.775 -145.253 -600.891 -145.727C-597.988 -146.133 -595.14 -146.531 -592.346 -146.923C-586.773 -147.763 -581.332 -148.275 -576.101 -148.885C-555.102 -151.074 -536.61 -151.788 -518.296 -151.492C-513.443 -151.52 -507.487 -151.158 -500.911 -150.875C-497.625 -150.777 -494.171 -150.408 -490.621 -150.142C-487.067 -149.809 -483.412 -149.643 -479.712 -149.139C-464.906 -147.622 -449.403 -144.825 -436.805 -142.105C-434.06 -141.533 -430.561 -140.569 -426.416 -139.516C-424.347 -138.971 -422.12 -138.386 -419.749 -137.763C-417.402 -137.034 -414.916 -136.263 -412.306 -135.452H-412.299C-412.299 -135.452 -411.683 -135.258 -411.337 -135.147C-404.838 -133.251 -397.726 -130.539 -389.943 -127.663C-386.07 -126.172 -382.106 -124.394 -377.962 -122.657C-375.905 -121.745 -373.763 -120.936 -371.676 -119.89C-369.577 -118.872 -367.444 -117.837 -365.275 -116.786C-347.634 -108.258 -326.138 -95.8708 -303.947 -78.4865C-298.273 -74.2909 -292.907 -69.4122 -287.229 -64.5764C-284.349 -62.1949 -281.695 -59.5236 -278.919 -56.9033C-276.166 -54.2617 -273.379 -51.5858 -270.556 -48.8767C-259.756 -37.6343 -248.735 -25.5744 -238.673 -12.2037C-236.154 -8.8663 -233.481 -5.57832 -231.044 -2.11435C-228.629 1.36116 -226.195 4.86629 -223.744 8.39607C-222.524 10.1626 -221.301 11.9374 -220.071 13.7171C-218.927 15.5395 -217.78 17.3686 -216.627 19.2042C-214.331 22.8771 -212.018 26.5746 -209.692 30.2935C-207.394 34.0257 -205.34 37.8943 -203.139 41.7234C-201.012 45.5823 -198.709 49.3965 -196.705 53.3506C-194.699 57.3033 -192.681 61.2756 -190.656 65.2643C-189.647 67.2593 -188.635 69.2575 -187.621 71.2612C-186.644 73.2759 -185.75 75.3256 -184.809 77.3616C-169.626 109.916 -157.31 144.42 -147.515 179.132C-137.703 213.852 -130.377 248.785 -124.741 282.487C-123.449 290.921 -122.169 299.273 -120.906 307.527C-119.673 315.78 -118.786 323.953 -117.733 331.996C-116.769 339.837 -115.819 347.565 -114.886 355.16C-114.466 358.86 -113.974 362.504 -113.468 366.109C-112.96 369.712 -112.512 373.301 -111.97 376.82C-109.878 390.924 -107.459 404.306 -104.915 416.879C-102.248 429.396 -99.4407 441.092 -96.4437 451.764C-90.3934 473.072 -83.8076 490.343 -77.8594 502.742C-74.1783 510.621 -70.1973 517.744 -66.2241 524.288C-62.1671 530.745 -57.9865 536.455 -53.8602 541.522C-45.4492 551.433 -37.1901 558.551 -29.8524 563.204C-20.9751 569.155 -8.62744 574.464 4.71753 576.889C11.3595 578.165 18.2422 578.652 24.7259 578.752C27.9537 578.871 31.137 578.675 34.1077 578.611C37.1146 578.374 39.9189 578.265 42.5236 577.95C52.9094 576.898 62.9311 574.902 70.554 573.102C78.1851 571.288 83.4238 569.675 84.4067 569.447C86.3881 568.85 88.7472 568.085 89.6837 567.747C90.6265 567.41 92.8421 566.731 94.6836 566.143C95.6888 565.82 101.024 564.111 108.848 561.276C116.667 558.406 126.964 554.336 137.867 549.565C148.78 544.789 160.62 539.161 170.906 534.017C181.196 528.89 189.926 524.233 194.714 521.699C243.212 495.889 299.449 461.028 359.507 423.843C419.604 386.713 483.767 347.379 548.99 313.826C587.829 293.814 621.519 278.64 651.713 266.891C681.903 255.118 708.584 246.762 733.52 240.411C758.492 234.171 781.755 229.942 805.474 227.564C817.323 226.32 829.307 225.677 841.652 225.524C854.001 225.379 866.738 225.764 880.081 227.062C894.969 228.356 918.063 231.699 942.416 238.826C954.605 242.298 967.046 246.801 978.944 251.891C980.434 252.524 981.92 253.155 983.401 253.785C984.873 254.427 986.313 255.134 987.767 255.804C990.615 257.136 993.435 258.458 996.229 259.764C1001.41 262.162 1006.46 264.501 1011.3 266.743C1030.89 275.219 1052.32 283.119 1071.18 288.2C1072.35 288.547 1073.51 288.889 1074.65 289.228C1075.81 289.512 1076.96 289.794 1078.09 290.072C1080.35 290.623 1082.56 291.161 1084.69 291.682C1088.98 292.684 1092.95 293.804 1096.66 294.511C1104.08 295.954 1110.11 297.13 1114.19 297.924C1139.18 302.164 1159.91 303.418 1177.01 304.023C1185.58 304.056 1193.24 304.372 1200.13 303.999C1207.02 303.742 1213.14 303.707 1218.59 303.187C1224.06 302.78 1228.88 302.421 1233.17 302.102C1237.46 301.612 1241.23 301.182 1244.62 300.796C1248 300.383 1251 300.133 1253.73 299.699C1256.45 299.281 1258.92 298.901 1261.25 298.542C1264.12 298.105 1267.64 297.569 1271.54 296.973C1275.42 296.23 1279.69 295.412 1284.07 294.573C1286.27 294.156 1288.49 293.731 1290.71 293.307C1292.91 292.804 1295.12 292.3 1297.28 291.807C1301.61 290.817 1305.8 289.861 1309.57 288.997C1324.6 285.183 1347.07 278.811 1359.34 274.359C1361.41 273.66 1363.86 272.834 1366.66 271.893C1369.42 270.868 1372.52 269.719 1375.9 268.464C1379.27 267.186 1382.97 265.898 1386.86 264.345C1390.73 262.779 1394.85 261.116 1399.17 259.373C1416.38 252.234 1436.53 243.171 1456.55 232.903C1476.57 222.641 1496.51 211.334 1513.85 200.842C1518.17 198.192 1522.35 195.629 1526.34 193.179C1530.29 190.65 1534.06 188.238 1537.6 185.966C1544.74 181.482 1550.79 177.26 1555.76 173.997C1565.17 167.635 1576.57 159.667 1587.28 151.861C1597.98 144.056 1608.05 136.469 1614.95 131.09C1628.02 121.045 1641.04 110.551 1655.82 98.1837C1670.59 85.808 1687.09 71.5228 1706.69 53.4344C1719.29 41.9093 1737.38 24.461 1746.99 14.8619C1756.09 5.86467 1764.39 -2.65712 1773.32 -11.8862C1775.53 -14.212 1777.79 -16.5806 1780.1 -19.0116C1781.81 -20.8159 1783.56 -22.6664 1785.36 -24.5809C1787.25 -26.5975 1789.26 -28.7473 1791.45 -31.0944C1794.24 -34.1373 1799.69 -40.0719 1803.56 -44.2941C1807.41 -48.5326 1812.3 -53.9755 1814.44 -56.3984C1823.34 -66.3495 1832.12 -76.4108 1840.73 -86.5906C1847.58 -94.6883 1853.57 -101.978 1857.55 -106.922C1857.75 -108.439 1857.84 -110.146 1857.77 -111.822C1857.6 -115.61 1858.08 -119.55 1858.89 -120.583C1859.71 -121.624 1859.25 -124.677 1857.82 -127.384C1856.48 -129.919 1854.9 -132.009 1853.03 -133.568C1851.18 -135.151 1849.26 -136.491 1847.11 -137.417C1845.49 -135.401 1843.56 -133.016 1841.92 -130.99C1840.21 -128.912 1838.8 -127.205 1838.32 -126.614C1837.51 -125.645 1835.7 -123.479 1834.29 -121.783C1832.22 -119.291 1827.03 -113.191 1821.95 -107.335C1821.54 -106.853 1819.34 -104.292 1817.06 -101.631C1814.76 -98.981 1812.67 -96.5813 1812.4 -96.2787L1811.24 -94.9941C1810.87 -94.573 1807.81 -91.1124 1804.42 -87.2882C1801.01 -83.4918 1796.38 -78.347 1794.14 -75.8598C1791.89 -73.3763 1786.85 -67.8938 1782.93 -63.6914C1780.6 -61.2179 1777.32 -57.7537 1773.54 -53.7435C1768.62 -48.6233 1763.03 -42.8089 1757.32 -36.8628C1734.41 -13.008 1709.55 10.934 1692.38 26.6783C1688.67 30.0929 1684.37 34.0783 1679.68 38.2513C1677.35 40.3484 1674.94 42.5163 1672.49 44.7203C1670.01 46.8947 1667.5 49.1039 1664.98 51.3145C1654.91 60.1719 1644.64 68.8515 1636.74 75.4012C1626.02 84.2668 1603.79 102.398 1575.45 123.052C1561.24 133.301 1545.6 144.321 1529.1 155.012C1512.6 165.708 1495.36 176.293 1478.2 186.032C1461 195.689 1443.94 204.63 1427.92 212.324C1411.86 219.908 1396.95 226.531 1384.07 231.58C1380.85 232.862 1377.77 234.085 1374.85 235.25C1371.92 236.396 1369.11 237.36 1366.49 238.334C1361.23 240.206 1356.68 242.017 1352.86 243.204C1345.23 245.729 1340.78 247.203 1340.45 247.313C1340.42 247.321 1339.53 247.614 1337.94 248.137C1336.33 248.607 1334.03 249.287 1331.18 250.122C1328.34 250.961 1324.96 251.959 1321.21 253.066C1317.45 254.116 1313.3 255.132 1308.95 256.279C1306.78 256.844 1304.52 257.434 1302.2 258.037C1299.87 258.555 1297.49 259.086 1295.07 259.621C1292.67 260.157 1290.25 260.698 1287.84 261.238C1286.64 261.508 1285.44 261.777 1284.24 262.044C1283.04 262.268 1281.85 262.488 1280.68 262.707C1275.98 263.582 1271.48 264.417 1267.46 265.164C1263.45 265.873 1259.9 266.302 1257.14 266.738C1252.97 267.353 1247.35 268.28 1240.47 268.919C1237.03 269.293 1233.28 269.699 1229.25 270.135C1225.21 270.408 1220.89 270.701 1216.31 271.012C1198 272.043 1175.54 272.248 1150.89 269.834C1126.25 267.464 1099.47 262.442 1072.68 254.234C1071 253.731 1069.32 253.226 1067.64 252.721L1065.11 251.966L1062.61 251.086C1059.29 249.905 1055.95 248.721 1052.61 247.533C1045.86 245.339 1039.35 242.36 1032.72 239.735L1027.76 237.707L1022.9 235.432C1019.65 233.924 1016.41 232.416 1013.18 230.911C1009.34 229.119 1005.52 227.33 1001.71 225.545C997.55 223.53 993.276 221.782 989.047 219.976C987.671 219.4 986.286 218.818 984.891 218.232C983.474 217.69 982.047 217.142 980.612 216.591C977.737 215.507 974.838 214.349 971.867 213.303C965.907 211.255 959.823 209.142 953.58 207.355C941.14 203.646 928.271 200.518 915.634 198.279C890.366 193.562 866.201 192.208 848.137 192.08C860.819 192.106 873.574 192.682 886.342 193.843C899.115 195.087 911.88 196.993 924.562 199.491C937.239 202.052 949.789 205.362 962.166 209.219C974.529 213.14 986.632 217.811 998.498 222.957L1028.15 236.523L1041.88 242.005C1046.41 243.941 1051.09 245.451 1055.73 247.055C1064.96 250.474 1074.44 252.974 1083.83 255.782L1098.11 259.216L1101.68 260.087C1102.88 260.353 1104.08 260.551 1105.29 260.789L1112.5 262.164C1150.96 269.607 1190.56 270.745 1230.09 267.023C1249.87 265.028 1269.63 261.679 1289.27 257.277L1296.63 255.567C1299.09 254.996 1301.55 254.46 1303.98 253.759L1318.64 249.818L1333.23 245.387L1336.87 244.281L1340.49 243.048L1347.74 240.587C1367.03 233.921 1386.17 226.409 1404.99 217.879C1423.81 209.342 1442.39 200.008 1460.69 189.987C1479.01 179.997 1496.95 169.103 1514.67 157.767C1532.36 146.388 1549.8 134.483 1566.88 121.951C1635.26 71.9489 1698.95 14.1431 1757.77 -48.133C1770.74 -61.9037 1783.46 -75.9109 1795.89 -90.114C1808.31 -104.302 1820.47 -118.768 1832 -133.222C1829.93 -134.697 1826.77 -136.093 1824.63 -136.184C1823.55 -136.235 1818.56 -131.428 1813.43 -125.528C1807.54 -118.742 1803.23 -114.943 1801.95 -115.158C1800.82 -115.354 1797.58 -112.849 1794.68 -109.528C1791.77 -106.232 1788.01 -103.355 1786.27 -103.113C1784.44 -102.84 1782.46 -101.309 1781.48 -99.3546C1780.57 -97.5437 1779.19 -96.1552 1778.44 -96.3051C1777.68 -96.4332 1774.16 -93.1599 1770.61 -88.9707C1767.06 -84.7915 1762.54 -80.4688 1760.61 -79.2908C1758.66 -78.1347 1757.14 -76.3219 1757.21 -75.2314C1757.28 -74.0571 1755.97 -72.5852 1753.94 -71.5831C1752.06 -70.6608 1749.7 -68.2164 1748.65 -66.1439C1747.3 -63.4253 1746.38 -62.7258 1745.36 -63.6782C1744.9 -64.1074 1744.09 -63.9712 1743.13 -63.4827C1742.9 -63.361 1742.65 -63.2161 1742.4 -63.0534L1742.21 -62.9281C1742.14 -62.8821 1742.11 -62.8725 1741.93 -62.7012C1741.64 -62.4314 1741.34 -62.1552 1741.03 -61.8741C1739.82 -60.7521 1738.54 -59.5104 1737.26 -58.2226C1732.2 -53.0495 1727.17 -47.1874 1726.75 -44.9915C1726.29 -42.6164 1724.35 -40.8696 1719.3 -38.5175C1713.89 -35.9976 1712.09 -34.3578 1710.54 -30.6931C1708.99 -27.0531 1707.7 -25.8918 1704.38 -25.1517C1701.06 -24.4132 1700.03 -23.469 1699.35 -20.6235C1698.87 -18.6546 1696.14 -15.3815 1693.26 -13.3485C1690.4 -11.3188 1688.5 -9.18214 1689.05 -8.61795C1689.6 -8.04883 1685.43 -3.17854 1679.79 2.18686C1676.95 4.85475 1671.95 9.66588 1666.17 15.2632C1660.35 20.8079 1653.73 27.1142 1647.72 32.8414C1638.81 41.3353 1624.09 54.5663 1607.31 68.5175C1590.55 82.5051 1571.7 97.1639 1555.02 109.196C1551.74 111.592 1514.14 139.612 1468.98 165.856C1462.72 169.541 1456.63 172.837 1451.11 175.983C1448.92 177.204 1446.88 178.166 1445.15 179.007C1441.69 180.655 1439.41 181.551 1439.14 181.295C1438.61 180.783 1438.1 180.79 1437.99 181.331C1437.95 181.461 1436.83 182.196 1434.84 183.412C1432.85 184.665 1429.93 186.229 1426.37 188.2C1422.79 190.122 1418.58 192.539 1413.83 194.906C1409.09 197.271 1403.91 199.94 1398.45 202.551C1392.97 205.095 1387.54 207.615 1382.43 209.989C1377.28 212.239 1372.45 214.351 1368.19 216.214C1359.64 219.805 1353.36 222.318 1351.49 223.208C1347.72 224.906 1339.1 228.36 1332.35 231.179C1328.96 232.441 1324.87 233.996 1321.03 235.493C1319.11 236.247 1317.25 236.977 1315.56 237.64C1313.87 238.253 1312.35 238.803 1311.12 239.247C1307.3 240.651 1303.81 241.939 1300.52 243.148C1297.23 244.373 1294.12 245.25 1291.13 246.229C1288.12 247.158 1285.23 248.056 1282.34 248.951C1279.43 249.798 1276.52 250.486 1273.49 251.269C1271.89 251.678 1269.94 252.175 1267.8 252.723C1265.66 253.282 1263.32 253.887 1260.92 254.363C1256.11 255.4 1251.09 256.483 1247.03 257.361C1240.66 258.488 1234.87 259.513 1229.52 260.46C1224.15 261.238 1219.22 261.83 1214.59 262.459C1213.43 262.611 1212.29 262.761 1211.17 262.909C1210.05 263.01 1208.94 263.107 1207.85 263.204C1205.67 263.388 1203.54 263.569 1201.46 263.745C1197.29 264.064 1193.27 264.538 1189.3 264.589C1189.3 264.589 1187.1 264.682 1183.78 264.824C1182.13 264.896 1180.19 264.981 1178.12 265.074C1177.08 265.12 1176.01 265.166 1174.92 265.213C1173.84 265.21 1172.73 265.207 1171.63 265.204C1167.21 265.202 1162.79 265.201 1159.48 265.199C1157.81 265.215 1156.43 265.201 1155.47 265.129C1154.51 265.083 1153.95 265.057 1153.95 265.057C1142.45 264.804 1119.92 262.386 1098.62 257.477C1093.32 256.149 1088.04 254.953 1083.03 253.578C1078.08 252.053 1073.34 250.594 1068.99 249.259C1067.91 248.917 1066.85 248.604 1065.83 248.257C1064.81 247.877 1063.83 247.507 1062.87 247.147C1060.96 246.42 1059.17 245.739 1057.52 245.11C1054.23 243.839 1051.51 242.755 1049.55 241.908C1046.62 240.651 1042.63 238.577 1038.45 236.633C1034.29 234.628 1029.94 232.725 1026.59 230.85C1023.22 229.072 1019.11 226.912 1015.22 224.863C1010.36 222.35 1005.76 219.973 1002.59 218.338C999.843 216.851 996.644 215.443 992.538 213.517C988.455 211.55 983.278 209.456 976.502 206.668C962.881 201.419 942.406 193.776 908.926 187.453C903.435 186.466 892.645 184.643 879.675 183.467C866.715 182.226 851.577 181.467 837.569 181.704C823.547 181.846 807.27 182.778 792.46 184.354C785.041 185.098 778.019 186.068 771.739 186.922C765.51 187.895 759.991 188.7 755.726 189.476C740.374 192.076 726.776 195.072 713.456 198.427C700.14 201.801 687.066 205.503 673.04 210.09C659.009 214.663 643.962 220.025 626.791 226.843C609.639 233.671 590.327 241.921 568.025 252.506C530.535 270.212 493.4 290.165 459.127 309.617C424.84 329.072 393.394 347.999 367.125 363.868C361.937 367.002 348.414 375.632 337.163 383.039C325.902 390.444 315.705 396.506 314.424 396.552C313.133 396.6 312.075 397.452 312.041 398.479C312.001 399.492 311.136 400.814 310.108 401.438C309.076 402.045 299.538 408.532 288.93 415.769C278.305 423.019 259.73 435.591 247.611 443.634C232.772 453.488 208.024 469.016 178.006 485.722C163.006 493.988 146.673 502.596 129.72 510.444C112.778 518.345 95.173 525.504 78.0693 530.836C61.0021 536.186 44.426 539.49 30.7184 539.895C23.8604 540.123 17.7558 539.672 12.497 538.71C7.22168 537.744 2.7821 536.3 -1.18427 534.463C-5.15063 532.622 -8.69171 530.335 -12.1141 527.559C-15.5216 524.78 -18.7775 521.444 -21.8504 517.762C-23.4132 516.012 -24.8458 513.92 -26.3047 512.043C-27.0054 511.004 -27.6945 509.974 -28.3736 508.967C-28.7166 508.466 -29.0578 507.969 -29.3958 507.472C-29.7189 506.935 -30.0403 506.406 -30.3585 505.877C-30.9997 504.825 -31.6296 503.79 -32.2477 502.774C-32.8643 501.749 -33.4231 500.623 -34.0001 499.593C-34.5721 498.541 -35.1327 497.515 -35.6783 496.508C-36.1993 495.442 -36.7087 494.398 -37.205 493.378C-37.3071 493.186 -37.4159 492.981 -37.5165 492.794L-37.4983 492.79C-38.466 491.177 -39.4139 489.03 -40.3618 486.961C-40.6899 486.187 -41.1549 485.089 -41.7384 483.717C-42.2874 482.277 -42.9452 480.55 -43.6952 478.586C-44.4783 476.672 -45.235 474.33 -46.0988 471.86C-46.5226 470.611 -46.9905 469.353 -47.4294 467.991C-47.8564 466.615 -48.298 465.193 -48.7496 463.735C-52.1768 451.949 -55.1379 438.334 -57.6798 424.753C-60.1889 410.887 -62.6123 397.485 -64.6666 386.134C-65.2485 381.108 -65.5893 376.379 -65.9899 372.12C-66.4023 367.872 -66.6493 363.931 -66.9182 360.381C-67.4887 353.303 -67.7885 347.55 -68.1248 342.936C-68.2105 341.783 -68.2917 340.696 -68.3673 339.673C-68.463 338.573 -68.5536 337.54 -68.6375 336.568C-68.8567 334.492 -69.0481 332.679 -69.2181 331.079C-69.594 327.883 -69.9563 325.544 -70.3473 323.662C-73.0131 309.167 -80.6884 263.562 -88.2949 228.654C-89.6943 221.443 -90.9903 214.382 -92.403 207.493C-93.9496 200.6 -95.4561 193.886 -96.9153 187.38C-97.6718 184.125 -98.3148 180.921 -99.1359 177.773C-99.9516 174.623 -100.753 171.529 -101.538 168.495C-103.122 162.422 -104.643 156.584 -106.096 151.012C-107.748 145.439 -109.322 140.132 -110.811 135.115C-111.558 132.607 -112.285 130.17 -112.987 127.81C-113.339 126.631 -113.687 125.47 -114.029 124.328C-114.409 123.188 -114.782 122.07 -115.15 120.97C-118.125 112.166 -120.666 104.646 -122.699 98.6308L-122.809 98.6755C-124.756 93.4318 -126.792 87.9529 -129.024 81.946C-129.96 79.4492 -131.007 76.6594 -132.098 73.7548C-133.304 70.8616 -134.558 67.8531 -135.784 64.9106C-138.271 59.0222 -140.649 53.3884 -142.319 49.4343C-145.801 42.0311 -149.007 35.1228 -152.435 27.629C-154.217 23.8952 -156.218 20.048 -158.267 15.9047C-160.377 11.7746 -162.456 7.32362 -165.043 2.53392C-166.732 -0.540253 -169.27 -5.05363 -172.019 -9.85326C-173.406 -12.2481 -174.791 -14.7318 -176.245 -17.1085C-177.759 -19.4672 -179.23 -21.7568 -180.566 -23.8359C-183.259 -27.9857 -186.281 -32.731 -189.136 -36.9796C-192.14 -41.1739 -194.825 -44.9241 -196.471 -47.2221C-197.29 -48.3732 -199.098 -50.8075 -201.678 -54.2124C-204.347 -57.5759 -207.961 -61.8312 -212.097 -66.7541C-216.14 -71.7312 -221.233 -77.092 -226.616 -82.8174C-231.873 -88.6239 -238.085 -94.3657 -244.22 -100.246C-247.249 -103.22 -250.438 -105.954 -253.512 -108.612C-256.586 -111.268 -259.561 -113.837 -262.399 -116.291C-268.182 -121.101 -273.655 -125.237 -278.174 -128.833C-280.419 -130.652 -282.579 -132.164 -284.463 -133.525C-286.346 -134.893 -287.975 -136.075 -289.318 -137.049C-291.997 -139.009 -293.51 -140.163 -293.556 -140.315C-293.748 -140.952 -294.422 -141.116 -295.072 -140.709C-295.235 -140.607 -296.072 -140.975 -297.445 -141.723C-298.824 -142.469 -300.81 -143.493 -303.177 -144.834C-305.553 -146.166 -308.342 -147.77 -311.404 -149.561C-315.22 -151.921 -319.384 -154.104 -323.674 -156.384C-325.82 -157.52 -328.001 -158.675 -330.214 -159.845C-331.321 -160.427 -332.436 -161.011 -333.557 -161.6C-334.701 -162.14 -335.852 -162.687 -337.007 -163.235C-341.176 -165.185 -345.313 -167.123 -349.407 -169.039C-353.511 -170.939 -357.68 -172.528 -361.745 -174.23C-369.864 -177.704 -377.967 -180.368 -385.709 -183.125C-389.588 -184.47 -393.434 -185.54 -397.171 -186.701C-400.916 -187.788 -404.559 -189.012 -408.133 -189.877C-411.704 -190.785 -415.173 -191.667 -418.528 -192.52C-420.206 -192.94 -421.856 -193.351 -423.477 -193.756C-425.099 -194.101 -426.689 -194.44 -428.251 -194.771C-431.375 -195.42 -434.372 -196.042 -437.231 -196.634C-438.66 -196.927 -440.056 -197.211 -441.414 -197.488C-442.773 -197.718 -444.095 -197.944 -445.379 -198.161C-450.521 -199.001 -455.059 -199.743 -458.9 -200.371C-466.574 -201.337 -471.464 -201.952 -472.822 -202.123C-500.132 -205.284 -531.256 -205.743 -559.012 -204.23C-586.81 -202.781 -611.148 -199.241 -626.214 -196.994C-627.476 -196.79 -628.757 -196.583 -630.046 -196.374L-631.814 -196.091L-632.575 -195.998C-633.596 -195.867 -634.63 -195.736 -635.656 -195.605C-637.711 -195.332 -639.757 -195.072 -641.639 -194.749C-645.417 -194.134 -648.67 -193.553 -650.48 -193.165C-654.107 -192.409 -657.183 -192.331 -657.365 -193.105C-657.543 -193.876 -658.905 -193.772 -660.386 -192.864C-661.867 -191.956 -663.923 -191.922 -664.98 -192.782C-666.497 -194.012 -667.135 -193.795 -668.028 -191.721C-668.922 -189.652 -669.673 -189.354 -671.729 -190.371C-673.779 -191.381 -674.878 -190.948 -676.905 -188.288C-678.801 -185.811 -679.917 -185.301 -681.189 -186.344C-683.531 -188.267 -695.707 -184.341 -694.987 -181.928C-694.6 -180.591 -695.853 -180.006 -699.462 -179.837C-702.215 -179.689 -706.147 -178.469 -708.152 -177.038C-710.326 -175.485 -712.586 -174.797 -713.78 -175.306C-714.888 -175.774 -717.64 -175.021 -719.914 -173.588C-722.165 -172.118 -729.146 -169.407 -735.358 -167.299C-741.614 -165.249 -746.818 -162.802 -747.032 -162.016C-747.233 -161.228 -749.375 -160.294 -751.753 -159.948C-754.31 -159.56 -756.88 -158.038 -758.001 -156.308C-759.054 -154.68 -763.82 -151.741 -768.637 -149.701C-773.495 -147.633 -777.555 -144.98 -777.801 -143.802C-778.088 -142.434 -783.953 -139.082 -793.682 -134.383C-802.14 -130.277 -809.399 -125.67 -809.723 -124.529C-810.356 -122.3 -809.823 -118.819 -808.82 -116.487C-794.083 -123.665 -779.615 -129.965 -764.909 -135.889C-750.222 -141.758 -735.399 -147.15 -720.374 -152.071C-690.33 -161.896 -659.516 -169.911 -627.777 -175.493C-610.46 -178.688 -592.875 -181.173 -575.044 -182.828C-557.212 -184.477 -539.098 -185.171 -520.825 -184.912C-502.547 -184.604 -484.1 -183.449 -465.594 -180.803C-447.097 -178.217 -428.582 -174.432 -410.267 -169.356C-391.961 -164.169 -373.93 -157.548 -356.401 -149.706L-343.364 -143.553C-339.086 -141.362 -334.859 -139.062 -330.619 -136.799C-326.343 -134.596 -322.251 -132.075 -318.135 -129.6C-314.046 -127.081 -309.844 -124.726 -305.921 -121.974L-294.018 -113.908C-290.131 -111.123 -286.359 -108.199 -282.541 -105.328L-276.854 -100.981L-271.389 -96.4072C-267.77 -93.3344 -264.077 -90.3227 -260.553 -87.1666C-253.683 -80.7071 -246.585 -74.3993 -240.228 -67.5484C-237.003 -64.1603 -233.668 -60.836 -230.562 -57.3686L-221.408 -46.8616C-223.403 -49.1086 -225.493 -51.4637 -227.673 -53.9194C-229.854 -56.372 -232.099 -58.938 -234.646 -61.4562C-237.147 -64.0022 -239.733 -66.6375 -242.402 -69.353C-243.741 -70.705 -245.099 -72.0785 -246.476 -73.4715C-247.923 -74.8122 -249.39 -76.1706 -250.876 -77.5473C-253.865 -80.286 -256.931 -83.094 -260.066 -85.964C-261.609 -87.4195 -263.281 -88.7948 -264.966 -90.1865C-266.649 -91.5795 -268.35 -92.9858 -270.067 -94.4053C-273.54 -97.2047 -276.923 -100.21 -280.706 -102.912C-284.432 -105.669 -288.217 -108.469 -292.053 -111.308C-307.719 -122.27 -325.042 -132.789 -343.479 -141.903C-361.975 -150.877 -381.467 -158.443 -400.967 -164.299C-420.465 -170.174 -439.956 -174.388 -458.44 -176.983C-476.928 -179.614 -494.426 -181.005 -510.171 -181.403C-541.682 -182.216 -566.162 -179.781 -579.3 -178.405C-591.403 -177.131 -607.043 -174.852 -622.413 -172.023C-624.828 -171.544 -627.239 -171.067 -629.609 -170.598C-631.062 -170.301 -632.493 -170.009 -633.883 -169.726C-636.631 -169.11 -639.197 -168.533 -641.402 -168.037Z" fill="#00BCF1"/>
<path fill-rule="evenodd" clip-rule="evenodd" d="M583.704 353.323C550.146 374.209 523.338 389.118 494.387 405.339C465.473 421.617 434.619 439.432 393.765 467.458C352.908 495.497 316.05 517.516 281.302 536.527C246.533 555.544 214.061 571.657 181.359 587.848C148.627 604.016 116.592 616.32 87.214 623.315C72.5443 626.828 58.6131 629.102 45.8349 630.118C33.059 631.148 21.4956 630.98 11.6712 630.228C-7.28973 628.738 -24.0477 624.094 -37.6284 618.115C-51.2224 612.059 -61.6884 605 -69.6845 598.639C-73.7634 595.504 -77.0458 592.368 -80.0798 589.666C-82.9229 586.827 -85.4748 584.366 -87.5268 582.143C-89.5505 579.896 -91.2599 578.005 -92.6703 576.442C-94.0027 574.842 -95.0527 573.58 -95.831 572.646C-98.9357 568.905 -97.8447 570.458 -93.3679 576.232C-88.6455 581.833 -80.3168 591.776 -66.4778 602.535C-59.5494 607.871 -51.1828 613.271 -41.462 618.024C-31.7479 622.782 -20.6418 626.778 -8.68994 629.417C3.26019 632.082 16.0034 633.404 28.9375 633.418C41.8715 633.413 54.9766 632.114 67.9685 629.904C93.9815 625.466 119.484 617.409 143.783 608.063C168.086 598.68 191.289 588.003 212.83 577.467C236.062 566.079 256.393 555.129 275.17 544.634C293.92 534.112 311.1 524.009 327.734 513.934C360.982 493.788 392.066 473.701 428.517 450.03C464.967 426.4 478.237 418.536 487.146 413.274C496.078 408.106 500.626 405.582 520.002 394.193C542.85 380.83 558.768 370.695 568.994 363.836C579.22 356.986 583.704 353.323 583.704 353.323ZM1561.76 218.052C1561.06 219.489 1562.08 220.657 1564.03 220.604C1564.39 220.607 1566.86 219.213 1571.16 216.557C1575.43 213.882 1581.65 210.11 1589.24 204.995C1604.54 194.937 1625.83 180.155 1650.39 161.329C1674.95 142.503 1702.85 119.726 1731.56 94.0104C1760.3 68.3296 1789.94 39.8389 1818.48 10.1057C1841.84 -13.2074 1864.47 -37.52 1881.06 -56.1939C1889.36 -65.5202 1896.18 -73.4206 1900.93 -78.9751C1905.68 -84.5177 1908.42 -87.7691 1908.39 -87.4998C1908.24 -86.4143 1909.98 -83.7544 1912.26 -81.5953C1912.46 -81.4135 1910.41 -78.2829 1906.53 -72.938C1902.64 -67.5868 1896.9 -60.0086 1889.59 -50.7784C1874.97 -32.3125 1854.02 -7.24983 1829.08 20.1126C1767.53 86.5064 1693.5 155.548 1611.16 214.878C1570 244.5 1526.74 271.552 1482.5 294.514C1460.4 306.032 1437.97 316.391 1415.54 325.56C1393.08 334.703 1370.67 342.787 1348.4 349.367C1326.12 355.913 1304.13 361.226 1282.7 365.228C1277.33 366.192 1271.98 367.002 1266.71 367.871C1264.08 368.286 1261.46 368.743 1258.84 369.11C1256.21 369.435 1253.6 369.758 1251 370.078C1245.8 370.686 1240.68 371.406 1235.59 371.883C1230.48 372.3 1225.44 372.713 1220.47 373.12C1215.51 373.599 1210.58 373.734 1205.72 373.934C1200.87 374.109 1196.09 374.361 1191.37 374.445C1186.65 374.432 1182 374.42 1177.43 374.407C1175.15 374.397 1172.88 374.387 1170.64 374.375C1168.39 374.337 1166.17 374.19 1163.96 374.101C1155.13 373.665 1146.62 373.409 1138.48 372.507C1134.41 372.127 1130.43 371.754 1126.53 371.39C1124.58 371.236 1122.66 370.978 1120.77 370.705C1118.87 370.442 1117 370.184 1115.15 369.928C1107.76 368.872 1100.71 368.026 1094.14 366.67C1087.56 365.399 1081.33 364.365 1075.59 363.078C1064.13 360.342 1054.24 358.211 1046.36 355.769C1042.4 354.636 1038.88 353.63 1035.83 352.757C1034.3 352.321 1032.89 351.918 1031.6 351.548C1030.33 351.131 1029.17 350.752 1028.14 350.413C1026.08 349.734 1024.49 349.213 1023.41 348.858C1022.32 348.51 1021.75 348.333 1021.69 348.336C1018.9 348.523 1017.46 349.349 1018.52 350.175C1018.72 350.337 1021.06 351.265 1025.37 352.89C1029.63 354.623 1036.03 356.567 1044.21 359.166C1052.34 361.921 1062.52 364.459 1074.33 367.529C1086.22 370.225 1099.82 373.255 1115.09 375.477C1122.69 376.832 1130.73 377.628 1139.12 378.582C1141.22 378.815 1143.34 379.051 1145.49 379.289C1147.63 379.523 1149.8 379.611 1151.99 379.779C1156.37 380.072 1160.83 380.371 1165.38 380.673C1169.93 381.053 1174.56 381.042 1179.27 381.179C1183.98 381.268 1188.77 381.423 1193.63 381.443C1198.49 381.344 1203.42 381.243 1208.42 381.141C1210.93 381.078 1213.45 381.014 1215.99 380.951C1218.51 380.795 1221.05 380.639 1223.61 380.48C1264.66 378.226 1309.55 370.793 1355.26 357.712C1360.94 356.022 1366.74 354.443 1372.45 352.605C1378.16 350.743 1383.91 348.867 1389.69 346.98C1401.14 342.947 1412.73 338.841 1424.18 334.209C1447.18 325.094 1470.12 314.781 1492.78 303.436C1538.04 280.642 1582.14 253.764 1624.03 224.536C1665.94 195.317 1705.58 163.685 1742.45 131.461C1779.32 99.2194 1813.4 66.3669 1844.19 34.3869C1868.04 10.6757 1888.13 -10.7407 1902.32 -26.3269C1909.41 -34.1298 1915.04 -40.4293 1918.92 -44.8174C1920.86 -47.008 1922.37 -48.6982 1923.39 -49.8415C1923.9 -50.4098 1924.3 -50.8409 1924.56 -51.1302C1924.83 -51.4159 1924.98 -51.5563 1924.99 -51.5431C1927.06 -49.8793 1923.95 -44.4886 1920.52 -37.7513C1917.09 -31.0304 1913.33 -22.9416 1914.1 -15.5798C1914.18 -14.8595 1913.26 -14.3605 1913.78 -13.4486C1914.49 -12.1979 1913.58 -11.0563 1910.14 -8.95973C1906.42 -6.71948 1905.61 -5.60263 1905.94 -3.1922C1906.22 -1.07747 1905.15 0.728302 1902.21 2.92067C1896.77 7.02454 1885.28 19.6682 1886.27 20.5571C1886.71 20.9536 1884.02 24.233 1880.32 27.8297C1875.44 32.5316 1871.13 36.7148 1867.43 40.3858C1865.58 42.2246 1863.87 43.9263 1862.31 45.4876C1861.53 46.2789 1860.8 47.0354 1860.09 47.7545C1858.77 49.1535 1857.51 50.4818 1856.31 51.7409C1849.9 58.5276 1844.95 63.8342 1841.53 67.6443C1838.14 71.4721 1836.3 73.823 1836.07 74.6606C1835.39 77.1833 1833.83 78.5595 1830.54 79.5279C1827.6 80.4051 1825.58 82.1267 1824.86 84.2958C1823.43 88.7102 1809.49 101.883 1806.43 101.65C1805.14 101.57 1802.75 102.853 1801.04 104.52C1799.36 106.165 1799.54 107.516 1801.45 107.505C1804.43 107.475 1802.62 109.646 1789.37 121.589C1780.67 129.29 1774.04 135.994 1774.54 136.556C1775.09 137.151 1773.15 138.77 1770.2 140.187C1767.26 141.606 1764.34 143.787 1763.66 145.089C1763 146.396 1760.39 148.581 1757.9 149.964C1755.59 151.208 1749.25 156.396 1737.58 165.906C1725.92 175.434 1709.06 189.396 1685.28 207.734C1678.3 213.031 1671.44 218.103 1665.95 221.938C1660.42 225.746 1656.34 228.397 1655.06 228.975C1652.51 230.097 1649.9 232.262 1649.28 233.625C1648.68 235.036 1642.77 239.471 1636.12 243.517C1624.34 250.559 1615.04 257.311 1599.78 269.442C1595.71 272.652 1591 275.286 1589.37 275.374C1588.55 275.413 1584.87 277.35 1579.6 280.422C1574.26 283.413 1567.33 287.527 1560.05 291.988C1553.06 296.106 1546.03 300.311 1540.24 303.643C1534.41 306.921 1529.92 309.443 1528.2 310.414C1527.39 310.853 1526.29 311.543 1525.76 311.95C1524.9 312.652 1518.36 316.092 1513.27 318.55C1512.22 319.089 1510.06 320.191 1507.36 321.569C1504.68 322.976 1501.44 324.643 1498.19 326.234C1491.7 329.459 1485.34 332.656 1483.69 333.568C1481.82 334.576 1477.49 336.609 1474.1 338.171C1471.62 339.332 1467.33 341.339 1462.19 343.742C1456.96 346.025 1450.88 348.685 1444.9 351.299C1444.4 351.505 1442.92 352.306 1440.87 353.352C1438.81 354.403 1436.22 355.731 1433.57 357.084C1428.29 359.82 1423.43 362.209 1422.79 362.417C1422.14 362.599 1420.86 362.964 1419.94 363.186C1419.01 363.417 1411.81 366.592 1403.91 370.23C1400 372.099 1395.21 374.02 1390.81 375.862C1386.39 377.686 1382.32 379.343 1379.64 380.389C1376.96 381.422 1372.57 382.97 1367.72 384.731C1362.84 386.449 1357.55 388.489 1352.77 389.961C1341.59 393.657 1321.26 399.937 1299.19 404.7C1288.26 407.333 1276.78 409.204 1266.2 411.138C1260.86 411.958 1255.7 412.637 1250.89 413.299C1246.07 413.932 1241.61 414.601 1237.57 414.902C1234.07 415.237 1230.01 415.626 1225.67 416.044C1221.31 416.482 1216.68 416.979 1211.99 417.228C1202.61 417.811 1193.22 418.657 1185.95 418.807C1176.16 419.252 1155.71 419.503 1130.57 417.055C1105.46 414.765 1075.66 410.054 1047.89 402.524C1046.15 402.083 1044.4 401.668 1042.68 401.202C1040.97 400.698 1039.26 400.194 1037.56 399.694C1034.17 398.681 1030.81 397.677 1027.49 396.684C1024.17 395.674 1020.9 394.676 1017.68 393.695C1014.51 392.578 1011.39 391.478 1008.34 390.401C1002.25 388.202 996.35 386.196 990.914 384.044C985.527 381.8 980.465 379.694 975.812 377.757C971.164 375.808 966.935 374.02 963.335 372.203C959.703 370.448 956.559 368.904 953.998 367.612C948.862 365.029 946.028 363.46 946.137 363.233C946.137 363.233 945.54 362.916 944.455 362.346C944.027 362.116 943.503 361.838 942.892 361.512C942.455 361.274 941.958 361.001 941.407 360.701C939.197 359.521 936.166 357.816 932.74 356.212C929.349 354.472 925.298 352.752 921.575 351.075C919.693 350.294 917.893 349.544 916.289 348.877C914.689 348.178 913.236 347.708 912.124 347.248C910.438 346.593 908.173 345.675 905.307 344.819C903.88 344.366 902.326 343.872 900.649 343.34C898.945 342.879 897.122 342.385 895.19 341.862C887.411 339.868 877.655 337.878 866.372 336.623C855.094 335.38 842.32 334.744 828.677 335.356C815.056 335.914 800.633 337.487 786.361 339.96C775.72 341.812 763.239 344.505 751.71 347.472C740.185 350.436 729.636 353.539 722.955 355.624C705.949 360.845 691.407 366.191 678.087 371.421C664.767 376.683 652.655 381.904 640.415 387.571C615.926 398.954 590.904 411.751 554.416 432.604C530.405 446.314 498.379 465.384 483.195 474.298C430.752 504.916 382.055 537.389 330.526 572.227C307.823 587.565 291.075 598.297 279.958 605.178C268.84 612.068 263.313 615.112 262.74 615.085C262.44 615.071 261.911 615.349 261.571 615.727C260.96 616.343 250.514 622.745 235.689 631.03C228.298 635.181 219.741 639.77 210.856 644.363C201.905 648.929 192.642 653.505 183.713 657.569C172.243 662.801 163.008 666.861 156.504 669.737C150.058 672.644 146.403 674.398 146.156 675.045C145.625 676.422 144.994 676.613 144.139 675.679C143.816 675.342 142.072 675.688 137.79 676.896C135.644 677.492 132.887 678.317 129.403 679.397C125.826 680.427 121.578 681.744 116.293 683.23C113.636 683.963 110.755 684.756 107.637 685.613C104.435 686.42 100.988 687.281 97.283 688.21C93.4689 689.072 89.4282 690.006 84.997 690.917C80.4788 691.765 75.7961 692.749 70.4803 693.528C67.8296 693.92 65.2052 694.403 62.306 694.736C59.4333 695.078 56.4781 695.429 53.4359 695.793C50.3048 696.058 47.0849 696.326 43.7745 696.604C40.4772 696.878 36.8903 696.955 33.3134 697.11C18.8212 697.493 1.94489 696.96 -17.4752 693.378C-27.7109 691.419 -36.1795 689.154 -43.0209 686.903C-46.4449 685.75 -49.4689 684.729 -52.1165 683.704C-54.7586 682.637 -57.0375 681.671 -58.9921 680.805C-62.9133 679.124 -65.4666 677.67 -67.0447 676.677C-68.6191 675.67 -69.1951 675.064 -69.0438 674.726C-68.4432 673.387 -68.7244 673.291 -70.2268 674.252C-70.9965 674.735 -75.6149 673.318 -87.1982 666.907C-90.0267 665.234 -93.3588 663.302 -97.0276 660.896C-98.8244 659.652 -100.741 658.33 -102.788 656.918C-104.833 655.491 -106.981 653.956 -109.118 652.238C-111.29 650.538 -113.573 648.715 -115.969 646.765C-118.285 644.792 -120.648 642.664 -123.153 640.408C-125.708 638.161 -128.113 635.728 -130.684 633.153C-131.959 631.864 -133.263 630.538 -134.603 629.18C-135.886 627.812 -137.14 626.404 -138.446 624.955C-153.256 608.436 -162.959 593.731 -170.818 580.288C-178.589 566.813 -184.534 554.413 -189.763 541.791C-199.99 516.595 -208.053 490.21 -215.353 452.835C-217.131 444.161 -220.22 426.62 -221.995 413.941C-223.002 407.571 -223.815 400.461 -224.631 394.024C-225.327 387.63 -225.863 381.97 -226.153 378.558C-226.433 375.172 -226.89 369.649 -227.4 363.474C-227.66 360.593 -227.933 357.559 -228.205 354.546C-228.473 351.776 -228.738 349.027 -228.986 346.456C-229.574 340.385 -230.116 334.771 -230.62 329.55C-231.156 324.342 -231.788 319.588 -232.271 315.121C-233.3 306.21 -233.957 298.536 -234.834 291.854C-235.206 288.878 -235.74 284.589 -236.303 280.081C-236.894 275.575 -237.458 270.815 -238.161 267.042C-239.763 257.712 -240.966 249.711 -242.157 243.003C-243.436 236.342 -244.441 230.836 -245.224 226.264C-246.633 220.148 -248.222 214.86 -249.415 210.316C-250.627 205.784 -251.569 202.07 -252.179 199.397C-253.42 194.101 -255.461 187.392 -257.392 180.618C-257.887 178.931 -258.381 177.244 -258.867 175.585C-259.387 173.95 -259.953 172.376 -260.477 170.833C-261.554 167.763 -262.56 164.896 -263.423 162.431C-264.475 159.615 -265.501 156.351 -266.836 153.014C-268.151 149.665 -269.557 146.077 -271.022 142.345C-271.742 140.471 -272.477 138.563 -273.223 136.63C-273.964 134.692 -274.845 132.838 -275.655 130.909C-277.297 127.069 -278.959 123.18 -280.604 119.332C-282.259 115.496 -284.112 111.891 -285.762 108.293C-287.474 104.749 -288.967 101.189 -290.662 98.1358C-292.274 95.0065 -293.777 92.0905 -295.124 89.4735C-295.789 88.157 -296.412 86.9147 -296.995 85.7582C-297.576 84.603 -298.186 83.6087 -298.696 82.6604C-300.457 79.4782 -302.479 75.8253 -304.315 72.5065C-305.204 70.8095 -306.148 69.3062 -306.984 67.9765C-307.813 66.6362 -308.532 65.4733 -309.084 64.5829C-310.192 62.8016 -311.846 60.0359 -313.618 57.0028C-315.502 54.0937 -317.534 50.9562 -319.257 48.2926C-320.117 46.9515 -320.958 45.6396 -321.74 44.417C-322.522 43.1911 -323.355 42.1833 -324.031 41.2499C-325.412 39.4144 -326.4 38.1571 -326.669 37.9357C-327.195 37.4913 -327.941 36.8635 -328.318 36.5463C-328.497 36.3777 -329.158 35.4906 -330.078 34.1887C-330.544 33.546 -331.05 32.7679 -331.638 31.9815C-332.232 31.2066 -332.87 30.3739 -333.523 29.5214C-336.11 26.0801 -338.678 22.7923 -339.22 22.2273C-340.029 21.3501 -340.893 20.5405 -341.77 19.759C-342.635 18.9628 -343.496 18.173 -344.343 17.3932C-346.03 15.8287 -347.662 14.3154 -349.171 12.916C-350.64 11.4621 -352.151 10.3701 -353.37 9.31934C-354.607 8.29169 -355.64 7.43425 -356.399 6.80479C-358.485 5.11632 -361.058 2.83969 -362.289 1.95251C-363.344 1.10994 -367.384 -2.02744 -371.593 -5.05083C-375.927 -7.86601 -380.286 -10.8052 -381.765 -11.6329C-385.342 -13.5048 -389.888 -16.163 -390.49 -16.6999C-390.854 -17.0171 -391.599 -17.5904 -392.192 -17.8729C-393.443 -18.5371 -396.703 -20.2635 -400.935 -22.5055C-401.978 -23.0986 -403.118 -23.6487 -404.326 -24.1841C-405.52 -24.7392 -406.763 -25.3158 -408.034 -25.9056C-410.582 -27.0753 -413.19 -28.4201 -415.937 -29.4411C-418.805 -30.5959 -421.597 -31.7029 -424.2 -32.6908C-426.872 -33.5301 -429.339 -34.2785 -431.473 -34.8914C-435.706 -36.1966 -438.773 -36.5749 -439.375 -36.3585C-440.622 -35.8414 -444.4 -36.7402 -447.918 -38.1495C-451.268 -39.3918 -454.302 -40.4839 -457.125 -41.4454C-459.982 -42.3144 -462.657 -42.9555 -465.204 -43.5552C-466.476 -43.8476 -467.724 -44.1169 -468.955 -44.3598C-470.208 -44.5431 -471.447 -44.7034 -472.687 -44.8455C-475.161 -45.1296 -477.626 -45.3345 -480.201 -45.4848C-486.13 -45.5476 -491.63 -46.3869 -492.564 -47.2427C-493.485 -48.0739 -496.082 -48.4289 -498.215 -47.9713C-499.299 -47.7253 -503.004 -47.8242 -508.208 -47.702C-510.806 -47.6442 -513.727 -47.7699 -516.903 -47.6656C-520.074 -47.5813 -523.438 -47.5498 -526.855 -47.5202C-550.419 -46.8216 -567.991 -44.3135 -580.003 -42.1311C-583.006 -41.6338 -585.667 -41.0704 -588.001 -40.5533C-590.329 -40.0246 -592.334 -39.5719 -594.025 -39.1886C-595.711 -38.7756 -597.087 -38.3526 -598.154 -38.0206C-598.691 -37.8504 -599.152 -37.6934 -599.534 -37.5481C-599.867 -37.4142 -599.844 -37.3482 -599.976 -37.2507C-600.724 -36.4708 -601.758 -36.157 -602.278 -36.5667C-602.806 -36.9847 -603.868 -36.4114 -604.656 -35.3111C-605.445 -34.2025 -606.201 -33.8952 -606.365 -34.6965C-606.52 -35.4697 -609.537 -35.1872 -613.087 -34.0852C-618.541 -32.3984 -619.471 -32.3455 -619.261 -34.5528C-619.125 -35.9504 -619.621 -36.9583 -620.364 -36.7798C-621.121 -36.5997 -621.768 -35.6646 -621.822 -34.6667C-621.95 -32.3141 -627.806 -30.4489 -629.615 -32.0927C-630.503 -32.9089 -631.278 -32.4595 -631.752 -30.8024C-632.276 -28.9372 -632.878 -28.6316 -633.917 -29.6889C-634.609 -30.4076 -637.963 -29.9747 -643.796 -28.2631C-649.634 -26.6077 -657.95 -23.5909 -668.454 -19.1302C-672.441 -17.4004 -675.877 -16.4554 -676.068 -16.9973C-676.287 -17.6383 -679.778 -16.6834 -683.815 -15.1701C-687.83 -13.5956 -692.396 -11.4792 -694.729 -9.75607C-697.263 -7.92554 -698.985 -7.62651 -700.685 -8.67557C-702.608 -9.86348 -703.738 -9.51984 -706.436 -6.9425C-708.938 -4.56013 -710.05 -4.08104 -710.957 -5.18466C-711.617 -5.9727 -712.228 -5.30031 -712.816 -5.61916C-718.867 -8.90359 -726.505 -8.00647 -732.839 -6.85329C-739.169 -5.68857 -744.168 -4.26607 -745.33 -6.65173C-745.343 -6.67816 -745.111 -6.83842 -744.646 -7.12589C-744.177 -7.40181 -743.47 -7.81152 -742.555 -8.34846C-740.718 -9.41406 -737.961 -10.9191 -734.42 -12.8274C-727.321 -16.619 -716.931 -21.8777 -704.048 -27.7163C-691.175 -33.5631 -675.8 -39.9783 -658.843 -46.0036C-650.381 -49.0814 -641.504 -51.9282 -632.395 -54.7535C-623.262 -57.4298 -613.893 -60.1175 -604.387 -62.3513C-548.141 -74.3739 -489.557 -75.8044 -438.484 -62.277C-425.696 -58.996 -413.477 -54.6459 -401.725 -49.8169C-398.821 -48.5296 -395.932 -47.2477 -393.055 -45.974C-390.169 -44.7133 -387.443 -43.1702 -384.643 -41.8055C-383.252 -41.1051 -381.864 -40.4062 -380.48 -39.709C-379.086 -39.0284 -377.785 -38.1874 -376.436 -37.4407C-373.757 -35.9092 -371.093 -34.3875 -368.446 -32.8742C-347.603 -20.1479 -329.397 -5.12022 -313.924 10.6013C-298.431 26.3246 -285.715 42.7451 -275.196 58.0901C-264.541 73.3505 -256.547 87.9273 -249.894 99.9777C-243.579 112.27 -238.625 122.111 -235.551 129.154C-232.346 136.119 -230.5 139.972 -230.247 140.225C-229.462 141.066 -228.611 139.734 -228.475 137.317C-228.47 137.24 -228.843 136.258 -229.572 134.434C-230.309 132.612 -231.39 129.944 -232.792 126.485C-235.485 119.499 -240.048 109.69 -245.92 97.3297C-252.115 85.1881 -259.657 70.4595 -269.881 54.8483C-279.972 39.1599 -292.289 22.2092 -307.563 5.73587C-322.809 -10.7457 -341.016 -26.6986 -362.126 -40.5714C-364.786 -42.2648 -367.528 -43.8691 -370.246 -45.546C-371.608 -46.3805 -372.975 -47.2163 -374.348 -48.0538C-375.743 -48.8504 -377.176 -49.5872 -378.593 -50.3619C-381.439 -51.8935 -384.3 -53.4347 -387.178 -54.9845C-390.131 -56.389 -393.1 -57.7998 -396.083 -59.2188C-399.031 -60.7158 -402.141 -61.9038 -405.218 -63.2021C-408.313 -64.4593 -411.363 -65.8688 -414.573 -66.9329C-417.75 -68.0808 -420.941 -69.2323 -424.144 -70.3889C-427.407 -71.3932 -430.684 -72.3994 -433.974 -73.4124C-447.204 -77.2471 -460.934 -80.3066 -475.043 -82.4525C-489.178 -84.4863 -503.66 -85.6761 -518.334 -86.0179C-547.685 -86.773 -577.775 -83.8374 -607.422 -78.4032C-628.744 -74.7408 -649.729 -69.5941 -669.105 -63.9886C-688.463 -58.3052 -706.217 -52.1478 -721.182 -46.3787C-736.17 -40.6607 -748.356 -35.3474 -756.813 -31.6484C-765.266 -27.9112 -769.942 -25.7916 -770.142 -26.1203C-771.842 -28.767 -774.052 -30.9842 -775.027 -31.0701C-775.369 -31.08 -770.156 -34.3397 -760.709 -39.4662C-751.267 -44.5745 -737.619 -51.4492 -721.483 -58.5995C-705.347 -65.7285 -686.732 -73.1463 -667.565 -79.588C-648.421 -86.1272 -628.722 -91.607 -610.703 -95.762C-604.451 -97.1268 -598.24 -98.1512 -592.143 -99.2764C-586.023 -100.201 -580.017 -101.252 -574.088 -101.939C-562.249 -103.577 -550.811 -104.449 -539.938 -105.158C-518.183 -106.298 -498.67 -105.653 -482.402 -104.17C-449.813 -101.179 -430.337 -95.2995 -429.385 -95.7985C-427.599 -96.3189 -426.969 -97.7334 -428.016 -98.9113C-428.325 -99.3752 -433.424 -100.946 -442.475 -103.537C-444.739 -104.181 -447.291 -104.712 -450.058 -105.384C-452.837 -106.002 -455.831 -106.802 -459.089 -107.411C-462.352 -108.018 -465.838 -108.664 -469.533 -109.351C-473.234 -110.035 -477.18 -110.484 -481.313 -111.102C-497.868 -113.305 -517.81 -114.676 -540.111 -114.228C-551.249 -113.873 -562.992 -113.331 -575.145 -112.021C-581.238 -111.495 -587.408 -110.608 -593.706 -109.837C-599.967 -108.87 -606.356 -107.996 -612.786 -106.783C-631.447 -103.878 -651.935 -99.6099 -671.931 -94.1894C-691.954 -88.8646 -711.49 -82.4707 -728.537 -76.2277C-745.585 -69.9641 -760.135 -63.84 -770.388 -59.3214C-780.632 -54.7963 -786.634 -51.9231 -786.561 -52.3214C-786.269 -53.7222 -786.803 -55.3231 -787.764 -55.8503C-789.86 -56.9887 -790.927 -66.3546 -789.036 -67.3425C-788.343 -67.6975 -787.172 -70.2517 -786.429 -72.9681C-785.663 -75.7073 -784.301 -77.906 -783.412 -77.8381C-782.537 -77.7839 -781.959 -79.0412 -782.141 -80.6634C-782.205 -81.2171 -782.114 -82.0264 -781.959 -82.9087C-777.953 -84.8946 -774.221 -86.6937 -773.164 -87.1858C-771.851 -87.8024 -768.912 -89.1786 -766.611 -90.2572C-763.239 -91.8467 -754.913 -95.5838 -746.824 -99.0303C-746.159 -99.301 -742.618 -100.74 -738.941 -102.237C-735.245 -103.687 -731.896 -105.003 -731.477 -105.168C-731.062 -105.338 -730.242 -105.675 -729.663 -105.913L-718.785 -110.005C-716.074 -110.975 -712.88 -112.117 -709.918 -113.176C-706.942 -114.192 -704.199 -115.128 -702.412 -115.74C-698.844 -116.989 -690.847 -119.573 -684.645 -121.484C-677.312 -123.775 -664.029 -127.671 -649.948 -131.195C-646.416 -132.045 -642.848 -132.904 -639.326 -133.751C-635.776 -134.528 -632.276 -135.294 -628.908 -136.031C-625.545 -136.796 -622.269 -137.378 -619.229 -137.98C-617.548 -138.304 -615.898 -138.622 -614.276 -138.932C-612.389 -139.316 -610.517 -139.598 -608.698 -139.91C-605.048 -140.515 -601.567 -141.09 -598.286 -141.633C-586.875 -143.343 -571.655 -145.237 -556.22 -146.34C-540.777 -147.397 -525.146 -147.568 -513.171 -147.315C-509.32 -147.212 -504.49 -146.96 -498.816 -146.717C-495.982 -146.606 -492.924 -146.281 -489.68 -146.043C-486.435 -145.741 -482.995 -145.59 -479.376 -145.108C-464.899 -143.619 -447.556 -140.83 -428.657 -136.161C-426.844 -135.704 -425.009 -135.241 -423.155 -134.774C-422.227 -134.538 -421.296 -134.3 -420.36 -134.061C-419.432 -133.783 -418.499 -133.503 -417.563 -133.223C-413.815 -132.086 -409.991 -130.928 -406.095 -129.746C-402.221 -128.484 -398.322 -127.024 -394.334 -125.618C-390.327 -124.264 -386.352 -122.593 -382.308 -120.909C-366.134 -114.221 -349.327 -105.904 -332.874 -95.3642C-316.382 -84.9078 -300.105 -72.5252 -284.673 -58.3977C-280.895 -54.7913 -277.09 -51.1567 -273.254 -47.4956C-269.626 -43.6576 -265.972 -39.7916 -262.294 -35.9025C-260.419 -33.9861 -258.706 -31.9341 -256.967 -29.8938C-255.228 -27.8518 -253.485 -25.8048 -251.736 -23.7528C-250.014 -21.6811 -248.184 -19.6754 -246.545 -17.531C-244.898 -15.3931 -243.248 -13.247 -241.594 -11.0976C-234.817 -2.59743 -228.782 6.47769 -222.601 15.5313C-219.706 20.1638 -216.802 24.8129 -213.89 29.4768C-213.171 30.6466 -212.423 31.8031 -211.726 32.9859L-209.708 36.5678C-208.363 38.9584 -207.018 41.3523 -205.67 43.7495L-201.632 50.948C-200.306 53.3568 -199.13 55.8331 -197.871 58.2751C-195.403 63.1816 -192.891 68.0804 -190.469 73.0151C-188.208 78.0081 -185.946 83.0058 -183.681 88.0066C-182.579 90.5143 -181.363 92.986 -180.358 95.5269L-177.283 103.125C-175.261 108.199 -173.132 113.239 -171.213 118.333C-169.375 123.446 -167.537 128.556 -165.703 133.658C-164.797 136.212 -163.854 138.753 -162.983 141.309L-160.53 149.009C-158.903 154.136 -157.277 159.253 -155.657 164.356C-154.106 169.473 -152.752 174.614 -151.303 179.714C-149.916 184.829 -148.376 189.894 -147.135 194.993C-145.895 200.09 -144.659 205.165 -143.43 210.219C-142.215 215.273 -140.919 220.287 -139.934 225.321C-138.881 230.343 -137.834 235.338 -136.794 240.303C-135.748 245.266 -134.695 250.197 -133.878 255.12C-133.003 260.037 -132.135 264.919 -131.274 269.765C-130.435 274.612 -129.492 279.41 -128.844 284.196C-127.437 293.753 -126.055 303.151 -124.699 312.361C-123.59 321.585 -122.504 330.622 -121.443 339.448C-120.943 343.743 -120.449 347.988 -119.961 352.177C-119.482 356.29 -119.066 360.367 -118.513 364.345C-117.991 368.334 -117.476 372.264 -116.968 376.136C-116.395 379.989 -115.832 383.783 -115.278 387.513C-112.938 402.395 -110.459 416.199 -107.713 428.626C-102.293 453.514 -96.2165 473.003 -91.4171 486.091C-90.168 489.336 -89.0576 492.22 -88.0951 494.717C-87.1226 497.21 -86.1898 499.242 -85.494 500.933C-84.7812 502.605 -84.2367 503.886 -83.8717 504.743C-83.4785 505.581 -83.2761 506.009 -83.2761 506.009C-78.8203 515.543 -72.8575 526.789 -64.2936 538.66C-55.7129 550.449 -44.4161 562.94 -28.5549 572.158C-8.6084 583.943 15.3528 587.761 40.1827 585.547C65.0343 583.437 90.361 576.196 115.176 566.754C140.044 557.275 164.577 545.555 188.97 532.759C213.369 519.935 237.649 505.987 262.119 491.409C276.3 482.974 298.45 469.485 322.715 454.42C347.032 439.325 373.512 422.887 396.294 408.744C465.77 365.839 514.424 337.87 563.206 313.101C587.636 300.772 612.107 289.212 639.69 277.836C653.493 272.172 668.08 266.568 683.888 261.137C699.706 255.726 716.73 250.425 735.487 245.763C750.188 242.07 773.765 236.805 800.328 233.829C813.602 232.357 827.592 231.444 841.441 231.33C855.285 231.199 868.978 231.88 881.619 233.185C915.51 236.788 949.915 245.85 980.902 260.01C988.366 263.488 995.771 266.941 1003.1 270.354C1010.19 273.822 1017.48 276.598 1024.59 279.507C1038.84 285.2 1052.97 289.863 1066.58 293.747C1093.82 301.492 1119.04 305.602 1139.67 307.77C1142.25 308.029 1144.75 308.281 1147.19 308.525C1149.62 308.764 1151.97 309.042 1154.25 309.12C1158.82 309.373 1163.06 309.607 1166.95 309.822C1168.89 309.916 1170.75 310.071 1172.51 310.101C1174.28 310.124 1175.96 310.144 1177.54 310.164C1180.7 310.21 1183.47 310.251 1185.84 310.285C1187.41 310.304 1189.2 310.324 1191.16 310.347C1193.13 310.328 1195.28 310.227 1197.56 310.164C1202.12 309.999 1207.25 309.903 1212.59 309.644C1217.93 309.25 1223.5 308.839 1228.98 308.436C1234.46 307.998 1239.82 307.245 1244.78 306.721C1247.26 306.419 1249.69 306.204 1252.02 305.852C1254.35 305.492 1256.59 305.145 1258.74 304.815C1263.01 304.155 1266.87 303.56 1270.12 303.061C1276.58 301.826 1280.59 301.057 1280.65 301.046C1280.83 301.011 1282.19 300.747 1284.59 300.281C1286.99 299.82 1290.44 299.184 1294.75 298.128C1299.07 297.109 1304.3 295.949 1310.28 294.492C1316.22 292.866 1322.95 291.151 1330.26 289.062C1333.9 287.955 1337.7 286.799 1341.64 285.602C1343.6 285 1345.6 284.391 1347.64 283.77C1349.66 283.086 1351.71 282.39 1353.79 281.685C1357.95 280.271 1362.24 278.817 1366.63 277.325C1370.98 275.702 1375.43 274.04 1379.97 272.345C1398.08 265.372 1417.44 257.31 1436.71 247.935C1456.02 238.637 1475.37 228.382 1493.81 217.817C1512.21 207.183 1529.68 196.217 1545.46 185.867C1576.93 165.007 1601.48 146.414 1613.29 137.311C1617.64 133.924 1622.7 130.081 1627.97 125.814C1633.26 121.588 1638.89 117.105 1644.4 112.509C1647.18 110.224 1649.94 107.943 1652.67 105.698C1655.36 103.416 1658.01 101.172 1660.57 99.0016C1665.73 94.6844 1670.45 90.5507 1674.52 87.0086C1683.95 78.8507 1695.44 68.5133 1707.76 57.1532C1720.06 45.7649 1733.09 33.2519 1745.66 20.8115C1758.23 8.38091 1770.28 -4.03642 1780.74 -15.0957C1786.06 -20.7625 1790.66 -25.6594 1793.94 -29.1553C1798.09 -33.6937 1803.49 -39.5554 1805.87 -42.2368C1808.27 -44.9016 1813.22 -50.4212 1816.82 -54.5352C1820.43 -58.6506 1823.69 -62.3777 1824.09 -62.8307C1824.49 -63.2718 1825.05 -63.8961 1825.33 -64.2114C1825.62 -64.5373 1827.84 -67.1274 1830.3 -69.9824L1835.53 -76.1334C1840.96 -82.4493 1846.52 -89.0647 1848.76 -91.7724C1850.29 -93.6175 1852.24 -95.9753 1853.11 -97.0293C1853.81 -97.8837 1856.27 -100.899 1858.92 -104.142C1859.79 -104.073 1860.58 -103.965 1861.1 -103.772C1862.61 -103.212 1863.92 -103.466 1864.03 -104.3C1864.13 -105.153 1866.46 -105.921 1869.22 -106.053C1871.96 -106.172 1874.59 -106.765 1875.05 -107.36C1876.26 -108.917 1885.2 -106.238 1886.02 -104.029C1886.4 -102.997 1887.87 -102.201 1889.3 -102.275C1889.62 -102.295 1887.4 -98.8763 1883.25 -93.0675C1879.09 -87.2537 1872.97 -79.0311 1865.42 -69.3166C1850.33 -49.873 1829.43 -24.5277 1807.77 -0.00689697C1780.18 30.1806 1751.45 59.2066 1723.57 85.4738C1695.73 111.776 1668.63 135.191 1644.8 154.691C1620.95 174.178 1600.32 189.675 1585.56 200.425C1578.25 205.894 1572.28 209.999 1568.24 213.021C1564.19 216.024 1561.93 217.736 1561.76 218.052Z" fill="#00BCF1"/>
</g>
</svg>
