<svg width="1440" height="513" viewBox="0 0 1440 513" fill="none" xmlns="http://www.w3.org/2000/svg">
    <g clip-path="url(#clip0_821_286)">
    <rect width="1440" height="513" fill="white"/>
    <path d="M1449 0H-17V473H1449V0Z" fill="#51218E"/>
    <mask id="mask0_821_286" style="mask-type:luminance" maskUnits="userSpaceOnUse" x="-110" y="329" width="1610" height="275">
    <path d="M1500 329.701H-110V603.423H1500V329.701Z" fill="white"/>
    </mask>
    <g mask="url(#mask0_821_286)">
    <path fill-rule="evenodd" clip-rule="evenodd" d="M-200.437 310.691C-141.798 330.211 220.862 415.663 295.009 426.174C890.607 548.14 1243.63 344.833 2109.69 319.78C2624.33 314.939 2890.97 352.557 3182.57 404.485V566.76H-200.437V310.691Z" fill="#F0F2F9"/>
    <path d="M6.28689 370.646C-2.36323 368.281 -19.3249 363.647 -25.8317 361.856C-28.5772 361.105 -32.1507 360.112 -33.7302 359.681C-35.2738 359.212 -38.5118 358.226 -40.9207 357.517L-45.7395 356.063L-46.5674 355.821L-49.8805 354.82L-53.3821 353.752C-57.0331 352.672 -60.7977 351.542 -62.3413 351.073L-65.3148 350.186C-66.068 349.96 -69.5679 348.928 -72.1281 348.153C-74.2954 349.006 -75.6688 350.192 -76.2085 351.764C-76.5138 352.605 -76.2244 353.425 -75.622 353.621C-75.0185 353.816 -74.0906 354.776 -73.5717 355.769C-73.3325 356.211 -73.0192 356.634 -72.6704 357.019C-69.7335 357.925 -65.3649 359.287 -60.4694 360.792L-41.9808 366.473C-40.4757 366.907 -37.0145 367.886 -34.3055 368.656C-31.5965 369.427 -27.7968 370.501 -25.8773 371.065C-19.8194 372.8 -15.7938 373.939 -11.1283 375.272C-8.60854 375.959 -4.12765 377.335 -0.859491 378.121C4.29035 379.455 8.95137 380.662 13.2367 381.774C22.7834 384.215 31.3957 386.563 39.6976 388.562C48.0354 390.523 55.8473 392.358 63.3591 394.132C70.8709 395.905 78.0088 397.637 85.3615 399.128C93.0927 400.785 104.238 403.152 115.985 405.66C127.838 408.038 140.398 410.372 150.637 412.374C155.1 413.245 162.076 414.622 170.844 416.117L171.632 416.269C177.067 417.232 183.1 418.3 189.735 419.472C196.368 420.645 203.53 421.98 211.355 423.165C242.9 428.364 291.272 435.494 348.887 441.754C406.503 448.032 473.465 453.185 540.718 456.016C607.971 458.919 675.406 459.541 733.477 458.69C747.999 458.608 761.913 458.168 775.124 457.862C781.71 457.7 788.148 457.544 794.363 457.395L812.402 456.72C824.006 456.272 834.721 455.928 844.425 455.492C854.129 455.004 862.829 454.568 870.338 454.176C889.339 453.321 906.726 452.09 922.112 451.147C937.536 450.257 950.867 449.116 961.826 448.329C968.55 447.82 976.164 447.242 984.15 446.635C992.133 445.936 1000.49 445.206 1008.77 444.479C1017.01 443.735 1025.18 443.084 1032.71 442.347C1040.25 441.593 1047.15 440.914 1052.98 440.328C1076.29 438.11 1096.95 435.68 1099.14 435.458L1104.88 434.785L1110.34 434.176C1111.41 434.03 1117.28 433.461 1125.81 432.417C1134.34 431.375 1145.53 430.002 1157.51 428.53C1169.53 427.128 1182.46 425.243 1193.84 423.756C1205.18 422.216 1214.93 420.931 1220.19 420.113C1233.57 418.121 1247.65 416.124 1262.13 413.913C1276.57 411.594 1291.62 409.273 1306.98 406.742C1322.35 404.12 1338.12 401.431 1354.22 398.692C1370.55 395.983 1387.21 393.224 1404.13 390.421C1412.58 389.02 1421.09 387.599 1429.68 386.193C1433.98 385.48 1438.28 384.769 1442.56 384.057C1446.86 383.362 1451.28 382.79 1455.65 382.148C1473.14 379.65 1490.77 377.11 1508.49 374.586C1517.35 373.314 1526.2 372.043 1535.06 370.79L1541.69 369.833L1548.4 369.017L1561.79 367.386C1579.67 365.217 1597.47 363.051 1615.12 360.908C1620.38 360.27 1625.53 359.635 1630.58 359.023C1635.62 358.411 1640.59 357.783 1645.49 357.321C1655.29 356.34 1664.68 355.394 1673.74 354.476C1691.85 352.66 1708.5 350.986 1724.1 349.421C1739.64 347.714 1754.2 346.764 1767.87 345.629C1781.57 344.547 1794.43 343.513 1806.72 342.535C1819.05 341.592 1830.78 340.544 1842.3 339.792C1853.85 339.111 1865.13 338.44 1876.45 337.767C1887.79 337.094 1899.13 336.421 1910.8 335.737C1916.63 335.385 1922.54 335.049 1928.61 334.689C1931.62 334.51 1934.66 334.33 1937.75 334.148C1940.83 334.038 1943.95 333.909 1947.12 333.78C1961.21 333.225 1983.08 332.377 2006.89 331.441C2012.83 331.212 2018.94 330.978 2025.04 330.726C2031.14 330.509 2037.31 330.182 2043.37 330.128C2055.54 329.896 2067.53 329.668 2078.55 329.458C2089.56 329.248 2100.96 329.006 2112.12 328.79C2117.7 328.682 2123.21 328.578 2128.6 328.458C2134 328.339 2139.25 328.243 2144.28 328.281C2164.42 328.288 2181.26 328.286 2189.83 328.289C2242.18 327.984 2275.15 329.197 2297.62 329.573C2320.06 330.078 2331.9 330.198 2341.49 330.58C2353.29 331.064 2375.77 332 2391.52 332.651C2399.35 332.986 2409.19 333.378 2418.7 333.78C2428.22 334.182 2437.42 334.506 2443.93 334.997C2452.7 335.535 2467.92 336.474 2486.56 337.637C2495.88 338.209 2506.04 338.841 2516.67 339.51C2522.02 339.844 2527.42 340.177 2532.94 340.522C2538.43 340.923 2543.97 341.431 2549.54 341.865C2571.76 343.713 2594.39 345.6 2614.38 347.274L2628.84 348.476C2633.46 348.835 2637.77 349.386 2641.92 349.78C2650.14 350.644 2657.32 351.401 2663.12 352.007C2674.18 353.167 2687.72 354.583 2700.61 355.93C2707.04 356.605 2713.35 357.265 2719.07 357.875C2724.83 358.446 2729.99 359.022 2734.18 359.595C2750.01 361.616 2766.07 363.646 2784.54 366.005C2793.79 367.176 2803.63 368.433 2814.36 369.804L2822.59 370.847C2825.36 371.237 2828.18 371.679 2831.05 372.1C2836.82 372.96 2842.81 373.867 2849.1 374.817C2865.24 377.26 2888.94 380.824 2901.79 382.769C2907.81 383.693 2913.65 384.533 2919.46 385.464C2925.23 386.415 2931 387.383 2936.99 388.38C2943.03 389.412 2949.51 390.518 2957.34 391.847L2966.83 393.497L2975.4 395.016C2977.09 395.335 2986.58 397.056 2996.48 398.871L3010.34 401.467C3011.2 401.4 3012.17 401.276 3013.09 401.117C3015.17 400.754 3017.46 400.582 3018.18 400.719C3018.89 400.856 3020.56 400.508 3021.91 399.919C3024.48 398.835 3025.85 397.648 3026.18 396.337C3023.26 395.754 3019.27 394.957 3018.45 394.788L3015.04 394.114L3004.81 392.113L3000.75 391.336L2996.92 390.623L2995.99 390.439L2990.44 389.39L2982.15 387.843C2980.35 387.51 2976.34 386.768 2973.24 386.192L2965.85 384.847L2961.13 383.985L2949.69 381.99C2941.79 380.663 2933.81 379.304 2925.9 377.978C2917.95 376.689 2910.06 375.543 2902.5 374.366C2887.32 372.053 2873.36 369.912 2862.05 368.201C2852.28 366.743 2839.36 364.692 2826.3 362.808C2813.09 361.111 2799.84 359.396 2789.7 358.095C2782.85 357.2 2772.34 355.84 2759.2 354.14C2752.62 353.29 2745.4 352.355 2737.65 351.348C2729.91 350.305 2721.42 349.559 2712.68 348.569C2677.42 344.91 2635.88 339.975 2595.13 336.925C2574.84 335.226 2554.97 333.548 2536.55 331.999C2517.96 330.817 2500.87 329.745 2486.28 328.818C2471.67 327.892 2459.58 327.129 2451.04 326.584C2442.48 326.039 2437.52 325.728 2437.15 325.741C2437.04 325.745 2421.33 325.056 2401.94 324.228C2382.54 323.4 2356.77 322.293 2344.53 321.77C2335.32 321.338 2319.6 321.157 2299.28 320.668C2289.1 320.452 2277.81 320.202 2265.58 319.932C2253.33 319.717 2240.19 319.226 2226.27 319.323C2198.45 319.282 2167.87 319.247 2136.33 319.211C2104.72 319.791 2072.2 320.404 2040.52 320.986C2020.02 321.66 1996.74 322.648 1974.65 323.486C1963.61 323.915 1952.82 324.333 1942.84 324.723C1937.87 324.882 1933.07 325.178 1928.54 325.448C1924 325.717 1919.73 325.959 1915.78 326.207C1937.93 324.645 1960.18 324.036 1982.38 323.049L2015.7 321.687C2026.82 321.256 2037.9 320.682 2049.03 320.558C2093.43 319.74 2137.93 318.324 2182.26 318.7C2271.07 318.076 2359.41 321.116 2447.22 325.221L2512.81 329.249L2529.19 330.256L2537.4 330.759C2540.13 330.951 2542.82 331.198 2545.55 331.409L2578.04 334.101L2610.55 336.794L2626.79 338.13C2632.21 338.571 2637.63 339.01 2642.97 339.615L2707.31 346.341L2723.38 348.027C2728.73 348.595 2734.14 349.108 2739.39 349.824L2771.15 353.861C2792.29 356.594 2813.58 359.143 2834.61 362.044L2897.21 371.485C2907.63 373.084 2918.1 374.59 2928.49 376.261C2938.82 377.953 2949.13 379.681 2959.43 381.464C2980.12 385.026 3000.7 388.737 3021.13 392.598C3021.62 391.931 3021.93 390.981 3021.62 390.414C3021.45 390.114 3017.84 389.177 3013.56 388.317C3008.66 387.336 3005.73 386.555 3005.6 386.198C3005.51 385.877 3003.48 385.263 3001.04 384.808C2998.64 384.351 2996.27 383.641 2995.81 383.206C2995.3 382.754 2994.03 382.384 2992.76 382.321C2991.56 382.255 2990.52 382.022 2990.43 381.826C2990.35 381.612 2987.8 381.016 2984.72 380.512C2981.65 380.008 2978.28 379.297 2977.22 378.9C2976.16 378.523 2974.81 378.318 2974.22 378.447C2973.59 378.596 2972.47 378.401 2971.49 377.985C2970.59 377.602 2968.71 377.253 2967.33 377.212C2965.54 377.166 2964.93 376.99 2965.22 376.636C2965.36 376.469 2965.1 376.28 2964.6 376.099L2964.19 375.951C2964.19 375.951 2964.19 375.933 2963.81 375.856L2962.65 375.627L2957.56 374.688C2950.47 373.441 2942.79 372.305 2940.71 372.325C2938.44 372.351 2935.96 371.861 2931.22 370.513C2926.14 369.086 2923.7 368.721 2919.75 368.537C2915.8 368.37 2914.12 368.105 2911.58 367.183C2909.09 366.279 2907.71 366.057 2904.92 366.084C2902.99 366.117 2898.68 365.584 2895.34 364.926C2892.01 364.268 2889.12 363.882 2888.99 364.104C2888.84 364.308 2882.37 363.526 2874.62 362.357C2866.83 361.208 2846.95 358.248 2830.26 356.041C2817.77 354.571 2797.72 352.123 2775.57 349.37C2764.5 347.994 2752.9 346.528 2741.42 345.094C2729.93 343.697 2718.39 342.644 2707.81 341.466L2673.12 337.877C2663.39 336.868 2652.1 335.698 2639.81 334.419C2627.41 333.397 2613.96 332.285 2600.14 331.151C2592.45 330.521 2585.09 329.916 2578.32 329.362C2575.67 329.13 2573.28 328.908 2571.23 328.728C2567.16 328.349 2564.61 328.06 2564.53 327.955C2564.38 327.744 2563.92 327.634 2563.48 327.721C2563.37 327.725 2561.95 327.649 2559.42 327.486C2556.91 327.305 2553.32 327.053 2548.96 326.738C2540.25 326 2528.1 325.492 2514.92 324.715C2488.54 323.231 2463.24 321.872 2458.68 321.673C2454.13 321.509 2443.88 320.917 2435.75 320.736C2427.62 320.555 2416.25 320.309 2410.4 320.173C2392.21 319.861 2380.17 319.603 2366.19 319.214C2358.74 319.046 2345.06 318.574 2335.67 318.492C2306.39 318.285 2287.76 318.152 2269.66 318.018L2249.58 317.864L2239.52 317.788L2229.42 317.911C2203.18 318.337 2126.55 317.987 2107.07 318.553C2099.81 318.593 2086.8 318.657 2078.12 318.694C2069.46 318.749 2057.05 318.829 2050.54 318.879C2039.92 318.787 2024.59 319.367 1967.26 321.131C1962.58 321.297 1953.35 321.606 1942.3 321.98C1936.76 322.122 1930.81 322.514 1924.72 322.839C1918.62 323.181 1912.38 323.529 1906.36 323.869C1882.26 325.194 1849.96 326.991 1834.54 327.845C1807.02 329.904 1784.8 331.578 1757.84 333.6C1751.07 334.129 1744.05 334.666 1736.56 335.258C1729.1 335.938 1721.19 336.76 1712.65 337.605C1695.62 339.31 1676.09 341.267 1652.91 343.588C1633.34 345.366 1613.8 348.045 1594.22 350.329C1574.68 352.701 1555.21 355.054 1536.33 357.331C1498.86 362.686 1463.47 367.608 1433.76 371.984C1427.95 372.93 1412.58 375.552 1399.62 377.818C1386.67 380.082 1375.12 381.937 1373.93 381.943C1372.73 381.967 1371.44 382.212 1371.04 382.533C1370.64 382.835 1369.36 383.243 1368.17 383.429C1367.01 383.632 1355.88 385.616 1343.45 387.845C1331.41 390.077 1310.33 393.967 1296.56 396.532C1262.73 402.517 1184.45 415.171 1101.09 424.358C1059.55 429.226 1016.74 433.02 978.342 436.206C968.721 436.909 959.359 437.584 950.369 438.246C941.379 438.891 932.725 439.559 924.51 439.995C908.081 440.938 893.404 441.893 881.133 442.437L880.24 442.468L871.614 442.901C867.263 443.073 855.473 443.546 840.819 444.138C826.119 444.462 810.117 444.83 794.674 445.18C779.224 445.367 764.335 445.607 751.723 445.982C729.932 445.906 715.628 445.855 705.944 445.82C696.258 445.783 691.153 445.694 687.655 445.801C680.918 445.913 667.072 446.134 650.943 446.092C642.896 446.017 634.252 445.926 625.683 445.833C617.076 445.741 608.507 445.666 600.601 445.387C587.624 444.909 575.168 444.466 563.496 444.032C551.854 443.434 540.997 442.88 531.035 442.385C521.074 441.927 512.151 441.34 504.349 440.805C496.546 440.288 489.901 439.856 484.563 439.503L484.564 439.539C479.933 439.198 475.045 438.938 469.777 438.457C461.036 437.721 448.149 436.643 441.163 436.06C427.981 435.065 416.909 433.726 400.16 431.937C394.776 431.351 384.235 430.281 376.828 429.352C369.422 428.478 359.923 427.352 355.733 426.851C353.674 426.563 346.687 425.926 337.334 424.742C327.982 423.575 316.123 422.1 304.002 420.599C291.918 419.06 281.057 417.387 273.047 416.263C269.079 415.682 265.821 415.201 263.538 414.849C261.253 414.497 259.98 414.29 259.903 414.256C259.638 414.103 259.153 414.102 258.786 414.259C258.603 414.338 256.136 414.101 252.431 413.564C250.558 413.288 248.349 412.969 245.916 412.622C239.775 411.685 233.071 410.658 226.068 409.571C175.881 401.674 133.26 392.896 129.473 392.182C91.8473 384.581 44.2465 372.964 23.6269 367.052L20.957 366.334L19.7539 366.016L19.4525 365.918L18.2853 365.562L15.9888 364.867C14.5207 364.432 13.2413 364.062 12.4897 363.872C11.0595 363.453 10.0739 362.965 10.2907 362.777C10.5447 362.587 10.0534 362.388 9.26904 362.325C8.44815 362.282 7.80303 361.944 7.82802 361.6C7.81011 361.095 7.54712 361.032 6.47744 361.323C5.40764 361.614 5.06969 361.536 4.82658 360.984C4.58359 360.433 4.09616 360.342 2.46462 360.545C0.906866 360.726 0.382918 360.655 0.404714 360.221C0.451623 359.443 -4.69758 358.127 -5.45827 358.732C-5.89308 359.072 -6.49336 358.949 -7.59452 358.356C-8.46728 357.9 -10.0847 357.451 -11.2424 357.366C-12.5121 357.267 -13.4158 356.992 -13.5754 356.691C-13.6973 356.406 -14.79 356.048 -16.0239 355.911C-17.2579 355.774 -20.3753 355.036 -22.9354 354.261C-25.5322 353.504 -27.8999 352.902 -28.2687 353.005C-28.6747 353.11 -29.6149 352.855 -30.3741 352.448C-31.1719 352.007 -32.4841 351.765 -33.5243 351.838C-34.4896 351.926 -36.9637 351.472 -39.0346 350.842C-41.1054 350.211 -43.2417 349.836 -43.8323 349.983C-44.4968 350.151 -47.4244 349.515 -51.7148 348.259C-55.2177 347.155 -58.7475 346.342 -59.3394 346.453C-60.5234 346.676 -62.028 347.307 -62.9015 347.879L-44.0649 353.927C-37.7735 355.943 -31.5546 358.015 -25.0459 359.86L-5.7005 365.547C0.735749 367.449 7.17328 369.387 13.8263 371.101C115.32 398.462 226.042 418.292 341.127 430.89C322.578 428.75 296.746 426.02 268.45 422.095C254.16 420.327 239.441 418.015 224.388 415.751C209.265 413.597 194.309 410.879 179.397 408.393C149.791 403.251 121.625 397.715 98.5794 392.719C92.7997 391.48 87.2491 390.395 82.2167 389.219C77.1841 388.044 72.4897 386.947 68.2083 385.943C59.6081 383.937 52.6607 382.324 47.7783 381.18C36.2404 378.249 17.5612 373.496 6.24898 370.629L6.28689 370.646Z" fill="#51218E"/>
    <path d="M2598.74 380.571C2597.34 380.647 2597.35 381.119 2598.74 381.615C2599.27 381.798 2609.1 383.175 2625.92 385.452C2634.33 386.591 2644.53 387.938 2656.15 389.504L2674.65 391.973C2681.19 392.787 2687.85 393.991 2694.92 395.066C2709.02 397.276 2724.23 399.675 2740.35 402.186C2756.47 404.738 2773.55 407.204 2790.78 410.534C2808.1 413.685 2825.99 416.938 2844.17 420.243C2853.23 421.936 2862.51 423.485 2871.57 425.316C2880.67 427.145 2889.8 428.973 2898.93 430.822C2915.39 434.468 2931.8 438.234 2944.01 441.123C2950.09 442.579 2955.14 443.806 2958.66 444.659C2962.15 445.514 2964.11 446.033 2963.95 446.038C2963.39 446.091 2962.18 446.813 2961.31 447.643C2961.25 447.724 2959.41 447.398 2956.19 446.773L2942.37 444.043C2930.69 441.71 2914.37 438.454 2895.8 434.903C2885.89 432.938 2875.78 430.977 2865.52 429.021C2855.23 427.104 2844.72 425.351 2834.17 423.481C2813.03 419.761 2791.44 415.994 2769.63 412.154C2747.45 408.836 2725.02 405.465 2702.48 402.098C2696.83 401.261 2691.18 400.404 2685.54 399.567C2679.89 398.711 2674.25 397.854 2668.49 397.198L2634.08 392.901C2622.61 391.469 2611.18 390.035 2599.75 388.602C2594.02 387.886 2588.3 387.169 2582.63 386.451C2576.92 385.794 2571.13 385.256 2565.41 384.657C2542.45 382.325 2519.7 380.027 2497.27 377.76C2486.09 376.516 2474.82 375.729 2463.71 374.858C2452.58 373.988 2441.58 373.135 2430.68 372.278C2408.89 370.624 2387.71 368.718 2366.88 367.787C2346.14 366.638 2326.04 365.531 2306.75 364.461C2301.94 364.194 2297.17 363.925 2292.47 363.675C2287.74 363.444 2283.04 363.35 2278.41 363.177C2269.18 362.867 2260.15 362.573 2251.35 362.292C2233.8 361.709 2217.21 361.179 2201.78 360.658C2194.06 360.33 2186.62 360.308 2179.46 360.24C2172.3 360.172 2165.45 360.095 2158.94 360.03C2132.86 359.77 2111.96 359.55 2097.58 359.415C2090.4 359.388 2084.77 359.555 2080.97 359.576L2076.62 359.651L2075.05 359.692C2072.8 360.027 2071.8 360.427 2072.92 360.536C2073.14 360.55 2075.3 360.573 2079.32 360.565C2083.31 360.578 2089.12 360.504 2096.53 360.566C2111.36 360.827 2132.75 361.211 2159.35 361.693C2165.98 361.815 2172.99 361.926 2180.25 362.051L2191.39 362.251C2195.2 362.348 2199.03 362.543 2202.95 362.677C2218.65 363.289 2235.46 363.95 2253.24 364.646C2288.88 365.659 2328.02 368.493 2369.75 370.983C2536.58 381.809 2739.33 408.754 2891.31 440.755C2907.52 444.387 2921.54 447.683 2931.51 450.061L2943.16 452.887C2945.86 453.565 2947.32 453.96 2947.32 453.96C2946.1 455.431 2934.93 452.493 2927.64 454.438C2927.27 454.527 2926.89 454.339 2926.53 454.565C2925.98 454.895 2925.3 454.755 2923.75 454.008C2922.1 453.204 2921.43 453.103 2920.24 453.45C2919.21 453.753 2918.16 453.642 2916.62 453.073C2913.76 452.005 2905.63 450.248 2905.34 450.631C2905.2 450.791 2903.14 450.432 2900.74 449.825C2897.59 449.021 2894.78 448.346 2892.34 447.78L2888.94 447.003L2887.44 446.667L2883.24 445.813C2867.44 442.662 2858.54 441.103 2857.05 441.102C2854.85 441.102 2853.13 440.693 2850.91 439.787C2848.91 438.953 2846.66 438.479 2844.73 438.471C2840.74 438.438 2824.43 435.38 2823.13 434.449C2822.61 434.049 2820.5 433.434 2818.45 433.074C2816.43 432.714 2815.49 432.916 2816.45 433.482C2817.92 434.388 2815.46 434.039 2800.29 431.187C2790.41 429.339 2782.3 428.015 2782.16 428.235C2782.01 428.456 2779.87 428.059 2777.36 427.297C2774.89 426.555 2771.85 425.905 2770.54 425.842C2769.28 425.777 2766.39 425.222 2764.14 424.63C2760.01 423.518 2736.04 419.754 2684.41 411.654C2669.44 409.151 2654.95 407.305 2652.65 406.794C2650.37 406.323 2647.38 405.988 2646.15 406.059C2644.89 406.131 2638.47 405.355 2631.81 404.328C2620.11 402.508 2610.06 401.294 2593.07 399.633C2588.55 399.2 2583.99 398.511 2582.86 398.107C2582.3 397.945 2578.82 397.288 2573.55 396.658C2568.28 396.028 2561.26 395.267 2553.86 394.495C2539.83 393.052 2525.44 391.558 2522.05 391.214C2521.27 391.136 2520.15 391.028 2519.54 391.004C2518.58 390.95 2512.23 390.27 2507.41 389.707C2503.34 389.262 2482.24 386.96 2478.96 386.771C2477.12 386.622 2473.02 386.316 2469.81 386.045C2465.11 385.657 2453.53 384.739 2442.34 383.832C2441.41 383.757 2436.52 383.492 2431.42 383.252C2426.31 383.011 2421.68 382.759 2421.12 382.694L2418.65 382.405C2417.87 382.308 2411.2 381.912 2403.81 381.514C2396.43 381.156 2386.46 380.473 2381.58 380.325C2376.73 380.137 2365.93 379.712 2357.61 379.379C2347.77 379.006 2330.06 378.211 2311.56 377.357C2302.31 376.97 2292.88 376.39 2284.08 376.149C2275.28 375.907 2267.17 375.686 2260.6 375.504C2249.27 375.172 2230.49 374.739 2218.91 374.531C2214.99 374.476 2208.95 374.319 2201.39 374.104C2197.62 374.026 2193.49 373.819 2188.98 373.78L2174.71 373.662C2154.67 373.42 2130.86 373.159 2108.07 372.891C2102.37 372.844 2096.73 372.677 2091.23 372.722C2085.72 372.769 2080.36 372.811 2075.18 372.848C2064.82 372.904 2055.33 372.956 2047.29 373.01C2039.21 373.025 2032.57 373.022 2027.96 373.045L2022.6 373.008C2021.37 372.981 2020.7 372.96 2020.73 372.92L2015.03 372.872C2011.5 372.866 2006.65 372.856 2001.29 372.839C1990.6 372.864 1976.35 373.258 1969.61 373.316C1959.44 373.445 1935.1 373.986 1904.61 374.709C1874.19 375.882 1837.67 377.806 1803.08 379.444C1777.38 381.242 1743.63 383.625 1728.13 384.703C1718.24 385.435 1709.06 385.913 1700.51 386.709C1691.96 387.504 1683.97 388.246 1676.33 388.939C1661.02 390.385 1647.12 391.696 1633.05 393.011C1625.98 393.69 1618.93 394.367 1611.57 395.073C1604.25 395.816 1596.76 396.82 1588.77 397.759C1572.85 399.715 1555.18 401.873 1534.16 404.454L1512.19 407.158C1504.66 408.243 1497.01 409.35 1489.71 410.409C1475.05 412.488 1461.73 414.394 1453.23 415.602C1445.88 416.623 1438.58 417.662 1431.35 418.659C1424.07 419.679 1416.87 420.675 1409.79 421.925C1395.62 424.345 1381.58 426.763 1367.6 429.16C1353.67 431.634 1339.72 434.088 1325.79 436.562C1311.29 439.287 1296.76 442.013 1282.13 444.762C1269.19 447.15 1258.07 449.038 1248.7 450.722C1239.31 452.368 1231.67 453.731 1225.6 454.658C1213.43 456.613 1207.64 457.474 1207.11 457.448C1206.86 457.455 1206.3 457.509 1205.89 457.638C1205.16 457.776 1193.88 459.747 1178.45 461.984L1153.07 465.626L1139.63 467.535C1135.15 468.106 1130.73 468.674 1126.5 469.219C1104.6 472.001 1092.24 473.744 1091.62 474.135C1090.92 474.547 1090.37 474.601 1089.88 474.299C1089.5 474.091 1083.78 474.577 1066.43 476.412C1057.78 477.289 1046.23 478.695 1030.92 480.102C1015.62 481.568 996.678 483.583 973.116 485.482C960.705 486.537 952.715 487.2 947.808 487.526C942.899 487.812 941.074 487.782 941.03 487.566C940.945 487.134 940.759 487.159 940.287 487.645C940.034 487.907 937.361 488.233 929.78 488.886C922.198 489.479 909.714 490.575 889.858 491.766C875.727 492.59 863.642 493.283 852.412 493.932C841.178 494.463 830.798 494.855 820.083 495.274L803.601 495.883C797.907 496.053 792.025 496.149 785.698 496.295C779.407 496.421 772.744 496.537 765.523 496.687C758.302 496.837 750.559 496.962 742.142 496.966C734.322 497.014 718.347 497.099 706.618 497.17C694.886 497.163 680.133 496.96 673.8 496.87C667.465 496.76 653.087 496.646 641.906 496.348C628.678 496.045 617.461 495.808 607.698 495.572C597.931 495.199 589.615 494.846 582.233 494.507C575.707 494.186 563.368 493.742 554.902 493.275C534.127 492.107 519.656 491.305 509.508 490.625C495.744 489.824 484.815 489.146 478.733 488.695C466.684 487.948 447.275 486.311 435.52 485.418C408.211 483.613 355.516 478.062 335.522 475.455C331.263 474.937 326.406 474.355 321.96 473.802C317.549 473.189 313.625 472.642 311.158 472.294C306.261 471.594 296.167 470.126 288.689 469.042L273.661 466.875L271.047 466.609C270.45 466.546 265.848 465.78 260.798 464.908C255.747 464.036 250.847 463.219 249.913 463.086C238.512 461.514 226.701 459.874 221.95 459.053C218.696 458.528 214.582 457.868 212.712 457.582C209.457 457.017 187.842 453.625 183.691 452.985C178.754 452.17 172.355 451.037 171.419 450.826C170.857 450.703 169.734 450.475 168.949 450.339C165.542 449.7 150.989 447.166 136.916 444.541C122.128 441.601 108.843 439.152 107.427 439.129C106.011 439.108 101.259 438.267 96.9123 437.239C80.5684 433.196 70.7499 430.873 58.6978 428.589C51.8116 427.312 45.5887 425.762 44.6815 425.254C43.7749 424.765 40.9252 424.033 38.457 423.644C35.9511 423.237 21.6381 419.949 6.64644 416.344C-18.5572 409.618 -37.2648 404.908 -49.6146 401.214L-64.3215 397.109L-68.7471 395.925L-70.2467 395.55C-70.6215 395.461 -70.5083 395.518 -70.6576 395.502C-71.3647 395.52 -72.0021 395.359 -72.1189 395.166C-72.2363 394.952 -72.9837 394.854 -73.8382 394.936C-74.6925 395.017 -75.1795 394.911 -74.9619 394.688C-74.7438 394.486 -76.3239 393.877 -78.5724 393.345C-81.9106 392.448 -82.3262 392.223 -81.3316 391.803C-80.7052 391.549 -80.4907 391.21 -80.9409 391.083C-81.3544 390.937 -82.0605 390.994 -82.5025 391.183C-83.5331 391.644 -87.0967 390.673 -87.229 389.889C-87.276 389.516 -87.8374 389.412 -88.7621 389.654C-89.798 389.917 -90.21 389.829 -90.2224 389.357C-90.2384 388.746 -97.1116 386.543 -110.165 382.966C-112.642 382.282 -114.522 381.602 -114.34 381.46C-114.12 381.296 -116.002 380.578 -118.367 379.832C-120.733 379.067 -123.475 378.213 -125.234 377.885C-127.105 377.52 -127.898 377.108 -128.026 376.481C-128.157 375.775 -128.723 375.514 -131.038 375.22C-133.169 374.941 -133.808 374.702 -133.596 374.283C-133.455 373.983 -134.015 373.919 -134.058 373.704C-135.176 369.399 -146.476 365.992 -144.724 364.665C-144.724 364.665 -144.086 364.826 -142.923 365.189C-141.758 365.553 -140.068 366.08 -137.928 366.752C-133.646 368.118 -127.45 370.063 -120.014 372.429C-112.65 374.875 -103.572 377.355 -93.926 380.214C-89.0847 381.624 -84.0558 383.087 -78.9141 384.588C-76.3622 385.329 -73.7353 386.087 -71.1457 386.846C-68.4826 387.565 -65.7828 388.261 -63.0826 388.979C-8.65488 405.201 49.2566 419.362 105.643 430.765C119.83 433.485 133.757 436.291 147.529 438.825C161.409 441.238 175.064 443.598 188.346 445.89C201.807 447.959 214.895 449.98 227.61 451.931C233.93 452.947 240.282 453.745 246.487 454.587C252.691 455.429 258.783 456.234 264.8 457.042C270.779 457.83 276.648 458.66 282.402 459.356C288.192 460.032 293.87 460.69 299.399 461.334C310.456 462.58 320.918 463.901 330.925 464.898L358.966 467.649C363.297 468.067 367.479 468.47 371.475 468.877C375.469 469.245 379.313 469.518 382.97 469.816C397.563 470.969 409.169 471.905 417.157 472.543C425.178 473.12 429.69 473.317 430.062 473.327C431.216 473.277 430.385 472.846 428.212 472.351C428.138 472.353 427.055 472.244 425.002 472.081C422.949 471.918 419.965 471.721 416.119 471.349C408.392 470.645 397.155 469.64 382.895 468.36C375.766 467.759 367.924 466.941 359.445 466.021C350.93 465.122 341.781 464.14 331.958 463.098C322.173 462.055 311.895 460.67 301.023 459.36C295.605 458.695 290.001 457.994 284.322 457.296C278.605 456.6 272.883 455.706 266.978 454.896C255.201 453.176 242.869 451.57 230.304 449.575C217.774 447.559 204.796 445.457 191.518 443.324C178.384 440.95 164.913 438.506 151.142 436.012C137.444 433.436 123.7 430.527 109.622 427.705C53.7117 415.993 -3.91185 401.452 -58.3152 384.736C-61.0936 383.884 -63.8719 383.03 -66.613 382.177C-69.3179 381.282 -71.9858 380.387 -74.6162 379.491C-79.9139 377.719 -85.0994 375.964 -90.0968 374.283C-95.0943 372.601 -99.9041 370.974 -104.488 369.44C-108.998 367.864 -113.136 366.279 -117.01 364.863C-124.683 361.992 -131.001 359.616 -135.44 357.94C-139.843 356.243 -142.289 355.244 -142.18 355.142C-141.271 354.311 -140.736 353.43 -140.967 353.141C-140.968 353.101 -140.255 353.319 -138.79 353.773C-137.363 354.228 -135.26 354.902 -132.593 355.757C-127.334 357.471 -119.859 359.915 -111.257 362.723C-102.764 365.612 -92.7063 368.52 -82.6835 371.527C-72.5879 374.473 -62.6345 377.679 -53.1106 380.127C-41.8897 383.379 -30.9692 386.54 -20.461 389.593C-9.73541 392.424 0.540613 395.148 10.3287 397.728C15.2408 398.998 19.9311 400.333 24.6525 401.431L38.3317 404.695C47.1765 406.808 55.3837 408.759 62.8416 410.534C78.0126 413.878 90.3702 416.45 98.9843 418.292C107.562 420.155 112.612 421.007 113.059 421.015C114.773 421.029 115.284 420.641 114.265 420.156C113.441 419.961 94.9302 415.66 64.8415 408.688C57.4183 406.814 49.3205 404.782 40.5849 402.568C31.8498 400.375 22.4784 398.059 12.8723 395.317C3.19383 392.655 -6.97311 389.83 -17.5892 386.917C-27.9505 383.781 -38.7614 380.539 -49.8355 377.205C-58.9212 374.429 -68.3991 370.896 -78.0562 367.623C-87.6407 364.289 -97.2215 361.093 -105.237 357.935C-113.363 354.839 -120.398 352.167 -125.363 350.268C-130.33 348.35 -133.19 347.203 -132.967 347.158C-132.189 347.039 -131.528 346.667 -131.462 346.35C-131.368 345.658 -126.942 344.025 -126.04 344.356C-125.701 344.485 -124.177 344.386 -122.655 344.169C-121.134 343.951 -119.757 343.935 -119.564 344.166C-119.373 344.398 -118.629 344.339 -117.892 344.044C-117.634 343.938 -117.227 343.829 -116.746 343.738L-112.499 345.202C-111.86 345.422 -110.468 345.917 -109.379 346.302L-99.9446 349.581C-99.6438 349.691 -97.9896 350.278 -96.2605 350.883C-94.5315 351.487 -92.9901 352.038 -92.7648 352.111L-91.9006 352.403L-86.8261 354.181C-84.2716 355.02 -80.7789 356.13 -79.0887 356.677C-77.3983 357.223 -73.6798 358.426 -70.7872 359.374C-67.3695 360.467 -61.2095 362.452 -54.7494 364.528C-51.5197 365.547 -48.2875 366.664 -45.0988 367.545C-37.1793 369.879 -29.86 372.05 -23.9673 373.787C-19.3881 375.144 -14.0961 376.699 -8.42825 378.382C-2.61468 379.944 3.57419 381.614 9.76355 383.303C22.1785 386.641 34.5588 390.078 44.3758 392.342C50.5982 393.873 60.0063 396.168 71.7012 399.032C83.5046 401.775 97.8496 404.866 113.584 408.373C125.792 410.948 139.23 413.551 153.497 416.466C167.835 419.301 183.322 421.948 199.415 424.933C207.498 426.376 215.911 427.652 224.402 429.064C232.929 430.416 241.535 431.943 250.432 433.226L277.536 437.144C282.133 437.812 286.732 438.459 291.368 439.125C296.038 439.712 300.746 440.317 305.492 440.902C314.945 442.091 324.51 443.298 334.114 444.524C343.826 445.589 353.574 446.652 363.397 447.734C368.289 448.275 373.22 448.815 378.149 449.336C383.08 449.876 388.081 450.277 393.047 450.757C403.015 451.678 412.983 452.597 422.951 453.518C462.997 456.761 503.181 459.587 542.029 461.167C619.624 464.704 691.283 464.91 743.323 463.957C749.839 463.904 756.018 463.761 761.898 463.607C767.779 463.452 773.324 463.307 778.497 463.171C788.842 462.879 797.814 462.742 805.106 462.412C819.726 461.831 827.836 461.52 827.836 461.52C833.454 461.274 839.667 461.013 846.512 460.714C853.355 460.338 860.828 459.905 868.936 459.456L895.338 457.935C904.781 457.273 914.929 456.573 925.784 455.815C1035.55 447.771 1141.11 435.621 1250.32 417.681C1266.26 415.253 1290.66 410.692 1318.06 406.111C1345.46 401.491 1375.34 396.47 1401.03 392.15C1420.7 389.211 1438.92 386.665 1455.88 384.19C1472.86 381.773 1488.6 379.41 1503.59 377.4C1533.74 373.772 1560.58 370.565 1587.05 367.367C1600.22 365.643 1613.56 364.583 1627.05 363.224C1640.57 361.923 1654.39 360.575 1668.88 359.17C1697.73 356.049 1729.6 354.108 1766.99 351.235C1774.35 350.687 1783.83 349.985 1794.72 349.167C1805.62 348.506 1817.92 347.927 1830.83 347.233C1843.74 346.56 1857.24 345.87 1870.55 345.166C1883.87 344.501 1897.03 343.663 1909.28 343.439C1925.64 342.951 1942.29 342.454 1958.87 341.96L1983.78 341.207C1987.91 341.098 1992.04 340.951 1996.17 340.823C2000.3 340.792 2004.39 340.745 2008.49 340.715C2041.21 340.486 2072.94 340.027 2101.76 339.999C2130.56 340.365 2156.45 340.69 2177.57 340.963C2198.69 341.058 2214.91 341.933 2224.49 342.213C2237.21 342.667 2264.09 343.616 2284.25 344.327C2294.36 344.594 2303.42 345.184 2310.02 345.562C2316.62 345.94 2320.72 346.187 2320.76 346.186C2321.5 346.225 2341.46 347.376 2371.89 349.118C2379.5 349.568 2387.78 349.981 2396.55 350.578C2405.29 351.275 2414.5 352.018 2424.13 352.789C2443.35 354.333 2464.14 355.993 2485.34 357.683C2490.64 358.055 2495.95 358.586 2501.21 359.157L2517.07 360.808C2527.65 361.91 2538.21 362.992 2548.63 364.078C2569.4 366.29 2589.67 368.122 2607.83 370.639C2644.31 375.316 2674.05 379.007 2688.36 380.956C2709.35 384.147 2743.3 389.284 2763.82 392.389C2769.72 393.318 2776.42 394.226 2783.49 395.438C2790.52 396.692 2798.08 398.03 2805.93 399.419C2821.66 402.198 2838.56 405.201 2855.11 408.156C2863.38 409.652 2871.6 411.012 2879.43 412.54C2887.26 414.068 2894.78 415.546 2901.81 416.917L2914.96 419.566L2924.24 421.45L2932.85 423.213L2938.62 424.421L2939.59 424.632L2943.56 425.474L2947.79 426.367C2952.14 427.297 2956.6 428.283 2958.43 428.688L2962 429.461L2966.75 430.519C2966.83 430.772 2966.91 431.007 2966.88 431.165C2966.78 431.641 2967.12 432.006 2967.6 431.954C2968.09 431.922 2968.85 432.513 2969.28 433.309C2969.71 434.085 2970.4 434.796 2970.77 434.885C2971.79 435.114 2971.45 437.901 2970.38 438.303C2969.86 438.494 2969.62 438.974 2969.85 439.381C2969.89 439.479 2967.84 439.119 2964.16 438.408L2948.93 435.479C2936.27 433.033 2919.36 429.793 2902.4 426.712C2893.16 424.946 2883.95 423.158 2874.75 421.391C2865.57 419.603 2856.23 418.134 2847.06 416.504C2828.69 413.321 2810.62 410.211 2793.15 407.182C2775.78 403.994 2758.51 401.65 2742.25 399.24C2725.99 396.85 2710.58 394.595 2696.37 392.506C2689.24 391.511 2682.51 390.369 2675.9 389.636L2657.21 387.368C2645.48 385.963 2635.17 384.736 2626.69 383.698C2609.65 381.683 2599.68 380.546 2599.04 380.583L2598.74 380.571ZM1591.26 380.515C1571.94 383.367 1554.67 385.672 1538.24 387.739C1521.79 389.845 1506.01 391.482 1489.95 393.873C1473.8 396.13 1457.15 398.478 1438.55 401.075C1429.28 402.421 1419.52 403.82 1409.14 405.413C1398.86 407.219 1388.01 409.16 1376.32 411.298C1352.98 415.576 1331.29 419.298 1310.56 422.798C1289.65 426.381 1270 429.773 1250.97 432.499L1223.11 436.639C1213.94 437.885 1204.96 439.105 1196.1 440.323C1178.4 442.857 1161.02 444.967 1143.81 447.35C1074.81 456.708 1016.25 461.556 982.847 464.639C966.72 466.009 952.636 467.186 940.448 468.215C928.219 469.108 917.921 469.851 909.372 470.47C892.312 471.784 882.195 472.228 877.995 472.555C873.792 472.822 875.43 472.76 881.753 472.437L894.584 471.764L913.507 470.519L937.635 468.9C946.447 468.333 955.921 467.475 966.031 466.716C976.102 465.88 986.771 465.167 997.804 464.108C1008.84 463.09 1020.28 462.041 1032.02 460.964C1078.87 456.385 1129.81 450.594 1175.42 444.629C1187.71 443.006 1199.32 441.341 1210.49 439.807C1216.06 439.01 1221.55 438.295 1226.89 437.485C1232.23 436.675 1237.42 435.868 1242.58 435.083C1252.86 433.473 1262.76 431.933 1272.44 430.418C1282.05 428.766 1291.46 427.16 1300.73 425.577C1319.08 422.455 1337.02 419.383 1355.56 416.217C1373.99 413.035 1393.05 409.736 1413.69 406.16C1455.4 399.844 1470.38 397.658 1480.39 396.213L1494.43 394.229C1499.66 393.5 1506.37 392.418 1517.43 391.123C1569.41 384.675 1591.34 380.494 1591.34 380.494L1591.26 380.515Z" fill="#51218E"/>
    </g>
    <mask id="mask1_821_286" style="mask-type:alpha" maskUnits="userSpaceOnUse" x="0" y="-88" width="1440" height="481">
    <path d="M1440 -88H0V392.804H1440V-88Z" fill="#FACF29"/>
    </mask>
    <g mask="url(#mask1_821_286)">
    <path fill-rule="evenodd" clip-rule="evenodd" d="M-636.402 -195.79C-646.619 -194.39 -661.516 -192.008 -675.569 -189.431C-689.646 -186.876 -702.861 -184.106 -710.147 -182.493C-716.336 -181.173 -724.251 -179.327 -727.824 -178.505C-733.26 -177.204 -738.697 -175.912 -744.088 -174.54C-749.483 -173.202 -754.304 -171.891 -754.901 -171.751C-755.48 -171.592 -756.296 -171.368 -756.706 -171.255C-757.125 -171.143 -760.456 -170.245 -764.129 -169.254C-767.793 -168.237 -771.315 -167.258 -771.981 -167.074C-780.047 -164.753 -788.372 -162.207 -791.776 -161.128C-794.1 -160.39 -797.067 -159.448 -798.393 -159.028C-799.213 -158.758 -801.583 -157.978 -804.463 -157.032C-805.935 -156.533 -807.539 -155.992 -809.138 -155.449C-810.925 -154.825 -812.711 -154.202 -814.342 -153.629C-814.247 -152.047 -813.376 -150.675 -811.8 -149.491C-811.007 -148.899 -810.041 -148.353 -808.906 -147.849C-807.776 -147.343 -806.413 -146.902 -805.155 -146.4C-802.33 -145.39 -799.063 -144.894 -797.696 -145.342C-796.338 -145.789 -791.918 -145.769 -787.967 -145.263C-786.212 -145.039 -784.399 -144.908 -782.763 -144.856C-776.529 -146.772 -767.31 -149.5 -756.861 -152.343C-743.732 -155.938 -730.458 -159.253 -717.015 -162.323C-713.757 -163.052 -706.374 -164.699 -700.537 -165.901C-697.639 -166.527 -694.111 -167.219 -690.794 -167.879C-687.481 -168.547 -684.355 -169.151 -682.227 -169.538C-669.03 -172.044 -660.135 -173.462 -649.79 -175.119C-647.029 -175.528 -643.092 -176.112 -638.977 -176.723C-634.862 -177.333 -630.515 -177.874 -627.024 -178.354C-624.294 -178.733 -621.669 -179.046 -619.149 -179.342C-617.363 -179.555 -615.613 -179.763 -613.9 -179.967C-610.801 -180.353 -607.73 -180.666 -604.727 -180.973C-601.719 -181.281 -598.775 -181.582 -595.891 -181.877C-592.988 -182.13 -590.14 -182.378 -587.346 -182.623C-581.773 -183.147 -576.332 -183.466 -571.101 -183.846C-550.102 -185.212 -531.61 -185.657 -513.296 -185.472C-508.443 -185.49 -502.487 -185.264 -495.911 -185.087C-492.625 -185.026 -489.171 -184.796 -485.621 -184.63C-482.067 -184.423 -478.412 -184.319 -474.712 -184.004C-459.906 -183.059 -444.403 -181.315 -431.805 -179.618C-429.06 -179.261 -425.561 -178.66 -421.416 -178.004C-419.347 -177.664 -417.12 -177.299 -414.749 -176.91C-412.402 -176.456 -409.916 -175.975 -407.306 -175.469H-407.299C-407.299 -175.469 -406.683 -175.348 -406.337 -175.279C-399.838 -174.097 -392.726 -172.405 -384.943 -170.612C-381.07 -169.682 -377.106 -168.573 -372.962 -167.49C-370.905 -166.922 -368.763 -166.417 -366.676 -165.765C-364.578 -165.13 -362.444 -164.485 -360.275 -163.829C-342.634 -158.511 -321.138 -150.786 -298.947 -139.945C-293.273 -137.329 -287.907 -134.286 -282.23 -131.271C-279.35 -129.785 -276.696 -128.12 -273.919 -126.486C-271.166 -124.838 -268.379 -123.17 -265.556 -121.48C-254.757 -114.469 -243.735 -106.948 -233.673 -98.6104C-231.154 -96.5291 -228.481 -94.4787 -226.044 -92.3186C-223.629 -90.1512 -221.195 -87.9653 -218.744 -85.7641C-217.524 -84.6625 -216.301 -83.5557 -215.071 -82.4459C-213.927 -81.3094 -212.78 -80.1688 -211.627 -79.024C-209.331 -76.7336 -207.018 -74.4278 -204.692 -72.1086C-202.394 -69.7812 -200.34 -67.3687 -198.139 -64.9808C-196.012 -62.5744 -193.709 -60.1958 -191.705 -57.73C-189.699 -55.2651 -187.681 -52.7879 -185.656 -50.3005C-184.647 -49.0564 -183.635 -47.8102 -182.621 -46.5607C-181.644 -45.3044 -180.75 -44.0261 -179.809 -42.7564C-164.626 -22.4551 -152.31 -0.93833 -142.515 20.7086C-132.703 42.3606 -125.377 64.1451 -119.741 85.1623C-118.449 90.4213 -117.169 95.6299 -115.906 100.777C-114.673 105.924 -113.786 111.021 -112.733 116.037C-111.769 120.926 -110.819 125.745 -109.886 130.482C-109.466 132.789 -108.974 135.062 -108.468 137.309C-107.96 139.557 -107.512 141.795 -106.97 143.989C-104.878 152.785 -102.459 161.13 -99.9156 168.97C-97.2484 176.776 -94.4408 184.07 -91.4437 190.725C-85.3934 204.013 -78.8077 214.783 -72.8595 222.516C-69.1784 227.429 -65.1974 231.871 -61.2242 235.952C-57.1672 239.978 -52.9866 243.539 -48.8603 246.699C-40.4493 252.88 -32.1902 257.319 -24.8525 260.22C-15.9752 263.932 -3.62756 267.242 9.71741 268.754C16.3594 269.55 23.2421 269.854 29.7258 269.916C32.9536 269.99 36.137 269.868 39.1076 269.828C42.1146 269.681 44.9188 269.612 47.5235 269.416C57.9094 268.76 67.931 267.515 75.5539 266.393C83.185 265.262 88.4237 264.256 89.4066 264.114C91.388 263.741 93.7471 263.264 94.6836 263.054C95.6264 262.843 97.842 262.42 99.6835 262.053C100.689 261.851 106.024 260.786 113.847 259.018C121.667 257.228 131.964 254.69 142.867 251.715C153.78 248.737 165.62 245.227 175.905 242.019C186.196 238.822 194.926 235.917 199.714 234.337C248.212 218.242 304.449 196.502 364.507 173.313C424.604 150.159 488.766 125.629 553.99 104.705C592.829 92.2255 626.519 82.763 656.713 75.4363C686.903 68.0943 713.584 62.8833 738.52 58.923C763.492 55.0315 786.755 52.3943 810.474 50.9112C822.322 50.1357 834.307 49.7347 846.652 49.6393C859.001 49.5489 871.738 49.789 885.081 50.5983C899.968 51.4054 923.063 53.4899 947.415 57.9344C959.605 60.0995 972.046 62.9081 983.944 66.0817C985.434 66.4765 986.92 66.8703 988.401 67.2634C989.873 67.6635 991.313 68.1045 992.766 68.522C995.614 69.3526 998.435 70.1773 1001.23 70.9918C1006.41 72.4874 1011.46 73.9461 1016.3 75.3439C1035.89 80.6296 1057.32 85.5561 1076.18 88.7247C1077.35 88.941 1078.51 89.1544 1079.65 89.3658C1080.81 89.5432 1081.96 89.7185 1083.09 89.8918C1085.35 90.2357 1087.56 90.571 1089.69 90.8961C1093.98 91.5207 1097.95 92.2192 1101.66 92.6603C1109.08 93.56 1115.11 94.2934 1119.19 94.7888C1144.18 97.433 1164.91 98.2148 1182.01 98.5922C1190.57 98.6127 1198.24 98.8096 1205.13 98.5768C1212.02 98.4169 1218.14 98.3953 1223.59 98.071C1229.06 97.8167 1233.88 97.593 1238.17 97.3941C1242.46 97.0883 1246.23 96.8206 1249.62 96.5797C1253 96.3222 1256 96.1662 1258.73 95.8956C1261.45 95.6351 1263.92 95.398 1266.25 95.1744C1269.12 94.9016 1272.64 94.5671 1276.54 94.196C1280.42 93.7322 1284.69 93.2224 1289.07 92.6992C1291.27 92.4389 1293.49 92.1741 1295.71 91.9095C1297.91 91.5958 1300.12 91.2817 1302.28 90.974C1306.61 90.3565 1310.8 89.7605 1314.57 89.222C1329.6 86.8435 1352.07 82.8698 1364.34 80.0931C1366.41 79.6572 1368.86 79.1423 1371.66 78.5554C1374.42 77.9166 1377.52 77.1996 1380.9 76.417C1384.27 75.6199 1387.97 74.8168 1391.86 73.8486C1395.73 72.8719 1399.85 71.8349 1404.17 70.7477C1421.38 66.296 1441.53 60.6443 1461.55 54.2406C1481.57 47.8413 1501.51 40.7903 1518.85 34.2471C1523.17 32.5946 1527.35 30.9966 1531.34 29.4683C1535.29 27.8917 1539.06 26.387 1542.6 24.9704C1549.74 22.1744 1555.79 19.5412 1560.76 17.5062C1570.17 13.5388 1581.57 8.56997 1592.28 3.70201C1602.98 -1.16509 1613.05 -5.89666 1619.95 -9.25081C1633.01 -15.5149 1646.04 -22.0592 1660.82 -29.7715C1675.59 -37.4892 1692.09 -46.3976 1711.69 -57.6777C1724.29 -64.8649 1742.38 -75.7458 1751.99 -81.732C1761.09 -87.3427 1769.39 -92.657 1778.32 -98.4124C1780.53 -99.8628 1782.79 -101.34 1785.1 -102.856C1786.81 -103.981 1788.56 -105.135 1790.36 -106.329C1792.25 -107.587 1794.26 -108.927 1796.45 -110.391C1799.24 -112.288 1804.68 -115.989 1808.56 -118.622C1812.41 -121.266 1817.3 -124.66 1819.44 -126.171C1828.34 -132.376 1837.12 -138.651 1845.73 -144.999C1852.58 -150.049 1858.57 -154.595 1862.55 -157.678C1862.75 -158.624 1862.84 -159.688 1862.77 -160.734C1862.6 -163.096 1863.08 -165.553 1863.89 -166.197C1864.71 -166.846 1864.25 -168.75 1862.82 -170.438C1861.48 -172.019 1859.9 -173.323 1858.03 -174.295C1856.18 -175.282 1854.26 -176.117 1852.11 -176.695C1850.49 -175.437 1848.56 -173.95 1846.92 -172.687C1845.21 -171.391 1843.8 -170.326 1843.32 -169.958C1842.51 -169.354 1840.7 -168.003 1839.29 -166.945C1837.22 -165.391 1832.03 -161.587 1826.95 -157.935C1826.54 -157.635 1824.34 -156.038 1822.06 -154.378C1819.76 -152.726 1817.67 -151.229 1817.4 -151.04L1816.24 -150.239C1815.87 -149.977 1812.81 -147.819 1809.42 -145.434C1806.01 -143.066 1801.38 -139.858 1799.14 -138.307C1796.89 -136.758 1791.85 -133.339 1787.93 -130.719C1785.6 -129.176 1782.32 -127.016 1778.54 -124.515C1773.62 -121.322 1768.03 -117.696 1762.32 -113.988C1739.41 -99.1119 1714.55 -84.1814 1697.38 -74.3631C1693.67 -72.2337 1689.37 -69.7484 1684.68 -67.1461C1682.35 -65.8383 1679.94 -64.4864 1677.49 -63.1119C1675.01 -61.756 1672.5 -60.3783 1669.98 -58.9997C1659.91 -53.4762 1649.64 -48.0634 1641.74 -43.979C1631.02 -38.4503 1608.79 -27.1437 1580.45 -14.2637C1566.24 -7.87226 1550.6 -0.999996 1534.1 5.66737C1517.6 12.3376 1500.36 18.9382 1483.2 25.0116C1466 31.0336 1448.94 36.6094 1432.92 41.4078C1416.86 46.1373 1401.95 50.267 1389.07 53.416C1385.85 54.2151 1382.77 54.9781 1379.85 55.7044C1376.92 56.4194 1374.11 57.0205 1371.49 57.6275C1366.23 58.7949 1361.68 59.9242 1357.86 60.6648C1350.23 62.2394 1345.78 63.1584 1345.45 63.2272C1345.42 63.2323 1344.53 63.4147 1342.94 63.741C1341.33 64.0343 1339.03 64.458 1336.18 64.9791C1333.34 65.502 1329.96 66.1247 1326.21 66.8149C1322.45 67.4694 1318.3 68.1034 1313.95 68.8184C1311.78 69.171 1309.52 69.5385 1307.2 69.9147C1304.87 70.2378 1302.48 70.5692 1300.07 70.9025C1297.67 71.237 1295.25 71.5743 1292.84 71.9108C1291.63 72.079 1290.44 72.2473 1289.24 72.4135C1288.04 72.553 1286.85 72.6906 1285.68 72.827C1280.98 73.3726 1276.48 73.8935 1272.46 74.3593C1268.45 74.8015 1264.9 75.0691 1262.14 75.3408C1257.97 75.7245 1252.35 76.3022 1245.47 76.7012C1242.03 76.9339 1238.28 77.1871 1234.25 77.4591C1230.21 77.6293 1225.89 77.812 1221.31 78.0058C1203 78.6489 1180.54 78.7771 1155.89 77.2712C1131.25 75.7932 1104.47 72.6619 1077.68 67.5433C1076 67.2295 1074.32 66.9147 1072.64 66.5998L1070.11 66.1289L1067.61 65.5802C1064.29 64.8436 1060.95 64.105 1057.61 63.3644C1050.86 61.9961 1044.35 60.1385 1037.72 58.5016L1032.76 57.2367L1027.9 55.8181C1024.65 54.8778 1021.41 53.9372 1018.18 52.9985C1014.34 51.8814 1010.52 50.7655 1006.71 49.6526C1002.55 48.396 998.276 47.3056 994.047 46.1794C992.671 45.8205 991.285 45.4573 989.891 45.0921C988.474 44.7537 987.047 44.4121 985.612 44.0685C982.736 43.3925 979.838 42.6704 976.867 42.0182C970.907 40.7411 964.823 39.4231 958.58 38.3091C946.139 35.9959 933.271 34.045 920.634 32.6491C895.366 29.7073 871.2 28.8631 853.137 28.7832C865.819 28.7994 878.573 29.1586 891.342 29.8827C904.115 30.6582 916.879 31.8469 929.561 33.4051C942.239 35.0021 954.789 37.0658 967.165 39.4711C979.528 41.9165 991.632 44.8296 1003.5 48.0382L1033.15 56.4982L1046.88 59.9171C1051.41 61.1243 1056.09 62.0661 1060.73 63.0661C1069.96 65.1985 1079.44 66.7575 1088.83 68.5086L1103.11 70.6502L1106.68 71.193C1107.88 71.3589 1109.08 71.4822 1110.29 71.6309L1117.49 72.4882C1155.96 77.1297 1195.56 77.8396 1235.09 75.5184C1254.87 74.2743 1274.63 72.1859 1294.27 69.441L1301.63 68.3742C1304.09 68.0181 1306.54 67.6839 1308.98 67.2469L1323.64 64.7893L1338.23 62.026L1341.87 61.3366L1345.49 60.5673L1352.74 59.0327C1372.03 54.8755 1391.17 50.1911 1409.99 44.8716C1428.81 39.5481 1447.39 33.727 1465.69 27.4783C1484.01 21.248 1501.95 14.4547 1519.67 7.3855C1537.36 0.289313 1554.8 -7.13483 1571.88 -14.95C1640.26 -46.1319 1703.95 -82.1802 1762.77 -121.016C1775.74 -129.604 1788.46 -138.339 1800.89 -147.196C1813.31 -156.044 1825.47 -165.065 1837 -174.078C1834.93 -174.998 1831.77 -175.869 1829.63 -175.926C1828.55 -175.957 1823.56 -172.96 1818.43 -169.281C1812.54 -165.049 1808.23 -162.68 1806.95 -162.814C1805.82 -162.936 1802.58 -161.374 1799.68 -159.303C1796.77 -157.247 1793.01 -155.453 1791.27 -155.302C1789.44 -155.132 1787.45 -154.177 1786.48 -152.959C1785.57 -151.829 1784.19 -150.963 1783.44 -151.057C1782.68 -151.137 1779.16 -149.096 1775.61 -146.483C1772.06 -143.877 1767.54 -141.181 1765.61 -140.447C1763.66 -139.726 1762.14 -138.595 1762.21 -137.915C1762.28 -137.183 1760.97 -136.265 1758.94 -135.64C1757.06 -135.065 1754.69 -133.541 1753.65 -132.248C1752.3 -130.553 1751.38 -130.117 1750.36 -130.71C1749.9 -130.978 1749.09 -130.893 1748.13 -130.589C1747.9 -130.513 1747.65 -130.422 1747.4 -130.321L1747.21 -130.243C1747.14 -130.214 1747.11 -130.208 1746.93 -130.101C1746.64 -129.933 1746.34 -129.761 1746.03 -129.585C1744.82 -128.886 1743.54 -128.111 1742.26 -127.308C1737.2 -124.082 1732.17 -120.427 1731.75 -119.057C1731.29 -117.576 1729.35 -116.487 1724.3 -115.02C1718.89 -113.449 1717.09 -112.426 1715.54 -110.141C1713.99 -107.871 1712.7 -107.146 1709.38 -106.685C1706.06 -106.224 1705.03 -105.636 1704.34 -103.861C1703.87 -102.633 1701.14 -100.592 1698.26 -99.3243C1695.4 -98.0585 1693.5 -96.7261 1694.05 -96.3743C1694.6 -96.0194 1690.43 -92.9822 1684.79 -89.6363C1681.95 -87.9725 1676.95 -84.9723 1671.17 -81.4817C1665.35 -78.024 1658.73 -74.0913 1652.72 -70.5198C1643.81 -65.2229 1629.09 -56.9718 1612.31 -48.2717C1595.55 -39.5489 1576.7 -30.4075 1560.02 -22.9044C1556.74 -21.4099 1519.14 -3.93669 1473.98 12.4299C1467.72 14.7275 1461.63 16.7832 1456.11 18.7452C1453.92 19.5065 1451.88 20.1064 1450.15 20.6307C1446.69 21.6583 1444.41 22.2173 1444.14 22.0573C1443.61 21.7385 1443.1 21.7424 1442.98 22.08C1442.95 22.161 1441.83 22.6194 1439.84 23.3776C1437.85 24.1591 1434.93 25.1346 1431.37 26.3634C1427.79 27.5624 1423.58 29.0694 1418.83 30.5454C1414.09 32.0203 1408.91 33.685 1403.45 35.313C1397.97 36.8996 1392.54 38.4711 1387.43 39.9514C1382.28 41.3544 1377.45 42.6715 1373.19 43.8335C1364.64 46.0728 1358.36 47.6401 1356.49 48.1951C1352.72 49.2536 1344.1 51.4077 1337.35 53.1656C1333.96 53.9525 1329.87 54.9227 1326.03 55.8562C1324.11 56.326 1322.25 56.7815 1320.56 57.1947C1318.87 57.5775 1317.35 57.9199 1316.12 58.197C1312.3 59.0728 1308.81 59.8759 1305.52 60.6298C1302.23 61.394 1299.12 61.9407 1296.13 62.5511C1293.12 63.1306 1290.23 63.6907 1287.34 64.2488C1284.43 64.7768 1281.52 65.2056 1278.49 65.6939C1276.89 65.9493 1274.94 66.2591 1272.8 66.6007C1270.66 66.9493 1268.32 67.327 1265.92 67.6234C1261.11 68.2705 1256.09 68.9454 1252.03 69.4933C1245.66 70.1958 1239.87 70.8349 1234.52 71.4257C1229.15 71.9108 1224.22 72.2802 1219.59 72.6721C1218.43 72.7673 1217.29 72.8608 1216.17 72.9532C1215.05 73.0157 1213.94 73.0762 1212.85 73.1367C1210.67 73.2515 1208.54 73.3644 1206.46 73.4741C1202.29 73.673 1198.27 73.9685 1194.3 74.0003C1194.3 74.0003 1192.1 74.0589 1188.78 74.147C1187.13 74.1922 1185.19 74.2453 1183.12 74.303C1182.08 74.3317 1181.01 74.3604 1179.92 74.39C1178.84 74.388 1177.73 74.386 1176.63 74.384C1172.21 74.3829 1167.79 74.382 1164.48 74.3809C1162.81 74.3911 1161.43 74.382 1160.47 74.3377C1159.51 74.309 1158.95 74.2928 1158.95 74.2928C1147.45 74.1348 1124.92 72.6269 1103.62 69.5652C1098.32 68.7374 1093.04 67.9917 1088.03 67.1341C1083.08 66.1832 1078.34 65.2733 1073.99 64.4406C1072.91 64.2272 1071.85 64.0323 1070.83 63.8157C1069.81 63.579 1068.83 63.348 1067.87 63.1235C1065.96 62.6702 1064.17 62.2454 1062.52 61.8535C1059.23 61.0606 1056.51 60.3849 1054.55 59.8566C1051.62 59.0728 1047.63 57.7795 1043.45 56.5669C1039.29 55.3166 1034.94 54.1298 1031.59 52.9604C1028.21 51.8519 1024.11 50.5049 1020.22 49.2269C1015.36 47.6597 1010.76 46.1774 1007.59 45.1578C1004.84 44.2305 1001.64 43.3527 997.537 42.1515C993.454 40.9247 988.278 39.6189 981.502 37.8803C967.881 34.6071 947.406 29.8406 913.926 25.8977C908.435 25.2824 897.644 24.1457 884.675 23.4123C871.715 22.6379 856.577 22.165 842.569 22.3128C828.547 22.4011 812.27 22.9826 797.46 23.9653C790.041 24.429 783.019 25.0341 776.739 25.5663C770.51 26.1736 764.991 26.6752 760.726 27.1594C745.374 28.7809 731.776 30.6488 718.456 32.7415C705.14 34.8453 692.066 37.1539 678.04 40.0147C664.009 42.8665 648.962 46.2101 631.791 50.462C614.639 54.7198 595.326 59.8648 573.025 66.4654C535.535 77.5074 498.4 89.9504 464.127 102.081C429.84 114.213 398.394 126.016 372.125 135.912C366.937 137.866 353.414 143.248 342.163 147.867C330.901 152.485 320.705 156.266 319.424 156.294C318.133 156.324 317.075 156.856 317.041 157.496C317.001 158.128 316.135 158.952 315.108 159.341C314.076 159.72 304.538 163.765 293.929 168.278C283.304 172.799 264.73 180.639 252.611 185.655C237.772 191.8 213.024 201.484 183.006 211.902C168.006 217.057 151.673 222.425 134.72 227.318C117.778 232.246 100.173 236.71 83.0692 240.035C66.002 243.371 49.4259 245.432 35.7183 245.685C28.8603 245.827 22.7557 245.545 17.4969 244.946C12.2216 244.343 7.78201 243.442 3.81567 242.297C-0.150727 241.149 -3.69183 239.723 -7.11419 237.992C-10.5217 236.258 -13.7776 234.178 -16.8505 231.882C-18.4133 230.791 -19.8459 229.487 -21.3048 228.316C-22.0055 227.668 -22.6946 227.026 -23.3737 226.398C-23.7166 226.085 -24.0579 225.775 -24.3959 225.465C-24.719 225.13 -25.0404 224.8 -25.3586 224.471C-25.9998 223.814 -26.6297 223.169 -27.2478 222.536C-27.8644 221.896 -28.4232 221.194 -29.0002 220.552C-29.5722 219.896 -30.1328 219.256 -30.6784 218.628C-31.1994 217.963 -31.7088 217.312 -32.205 216.676C-32.3071 216.556 -32.416 216.429 -32.5166 216.312L-32.4984 216.309C-33.4661 215.303 -34.414 213.965 -35.3619 212.675C-35.69 212.192 -36.155 211.507 -36.7385 210.651C-37.2875 209.753 -37.9453 208.676 -38.6953 207.451C-39.4784 206.258 -40.235 204.797 -41.0989 203.257C-41.5227 202.478 -41.9906 201.694 -42.4295 200.844C-42.8565 199.986 -43.298 199.099 -43.7496 198.19C-47.1769 190.84 -50.138 182.35 -52.6799 173.881C-55.189 165.234 -57.6124 156.876 -59.6667 149.798C-60.2486 146.663 -60.5894 143.714 -60.99 141.058C-61.4024 138.409 -61.6494 135.951 -61.9182 133.738C-62.4888 129.324 -62.7886 125.736 -63.1249 122.859C-63.2106 122.14 -63.2917 121.462 -63.3674 120.824C-63.4631 120.138 -63.5537 119.493 -63.6376 118.887C-63.8568 117.593 -64.0482 116.462 -64.2181 115.464C-64.5941 113.471 -64.9564 112.013 -65.3474 110.839C-68.0132 101.8 -75.6885 73.3604 -83.295 51.5913C-84.6944 47.0945 -85.9904 42.6908 -87.403 38.3952C-88.9497 34.0965 -90.4562 29.9094 -91.9154 25.8525C-92.6718 23.8226 -93.3148 21.8245 -94.136 19.8614C-94.9517 17.8969 -95.7528 15.9677 -96.538 14.0753C-98.122 10.2881 -99.6435 6.64778 -101.096 3.17258C-102.748 -0.302339 -104.322 -3.61244 -105.811 -6.74095C-106.558 -8.30506 -107.285 -9.82426 -107.987 -11.2963C-108.34 -12.0318 -108.687 -12.7558 -109.029 -13.4677C-109.41 -14.1784 -109.782 -14.8761 -110.15 -15.5621C-113.125 -21.0518 -115.666 -25.7416 -117.699 -29.4928L-117.809 -29.4649C-119.756 -32.7349 -121.792 -36.1516 -124.024 -39.8976C-124.96 -41.4546 -126.007 -43.1944 -127.098 -45.0057C-128.304 -46.8099 -129.558 -48.6861 -130.784 -50.521C-133.271 -54.1931 -135.649 -57.7064 -137.32 -60.1722C-140.801 -64.789 -144.007 -69.0971 -147.435 -73.7703C-149.217 -76.0987 -151.218 -78.4979 -153.267 -81.0817C-155.377 -83.6573 -157.456 -86.4329 -160.043 -89.4198C-161.733 -91.3369 -164.27 -94.1515 -167.02 -97.1446C-168.406 -98.638 -169.791 -100.187 -171.245 -101.669C-172.76 -103.14 -174.23 -104.568 -175.566 -105.864C-178.259 -108.452 -181.281 -111.411 -184.136 -114.061C-187.14 -116.677 -189.825 -119.015 -191.471 -120.448C-192.29 -121.166 -194.098 -122.684 -196.679 -124.808C-199.348 -126.905 -202.961 -129.559 -207.097 -132.629C-211.14 -135.732 -216.233 -139.075 -221.616 -142.646C-226.873 -146.267 -233.085 -149.847 -239.221 -153.515C-242.249 -155.369 -245.438 -157.074 -248.512 -158.731C-251.586 -160.388 -254.561 -161.99 -257.399 -163.52C-263.182 -166.52 -268.655 -169.099 -273.174 -171.342C-275.419 -172.476 -277.579 -173.419 -279.464 -174.268C-281.346 -175.121 -282.975 -175.858 -284.318 -176.465C-286.997 -177.688 -288.51 -178.407 -288.556 -178.502C-288.748 -178.899 -289.422 -179.002 -290.072 -178.747C-290.235 -178.684 -291.072 -178.914 -292.445 -179.38C-293.824 -179.845 -295.81 -180.484 -298.178 -181.32C-300.553 -182.151 -303.342 -183.151 -306.404 -184.268C-310.22 -185.74 -314.384 -187.101 -318.674 -188.523C-320.82 -189.231 -323.001 -189.951 -325.214 -190.681C-326.321 -191.044 -327.436 -191.408 -328.557 -191.775C-329.701 -192.113 -330.852 -192.453 -332.007 -192.795C-336.176 -194.011 -340.313 -195.22 -344.407 -196.414C-348.511 -197.599 -352.68 -198.59 -356.745 -199.652C-364.864 -201.818 -372.967 -203.48 -380.709 -205.199C-384.588 -206.038 -388.434 -206.705 -392.171 -207.429C-395.916 -208.107 -399.559 -208.87 -403.133 -209.41C-406.704 -209.976 -410.173 -210.526 -413.528 -211.058C-415.206 -211.32 -416.856 -211.576 -418.477 -211.828C-420.099 -212.044 -421.689 -212.255 -423.251 -212.461C-426.375 -212.866 -429.372 -213.254 -432.231 -213.623C-433.66 -213.806 -435.056 -213.983 -436.414 -214.156C-437.773 -214.299 -439.095 -214.44 -440.379 -214.575C-445.521 -215.099 -450.059 -215.562 -453.9 -215.954C-461.574 -216.556 -466.464 -216.939 -467.822 -217.046C-495.132 -219.018 -526.256 -219.304 -554.012 -218.36C-581.81 -217.456 -606.148 -215.249 -621.214 -213.848C-622.476 -213.721 -623.757 -213.592 -625.046 -213.461L-626.814 -213.285L-627.575 -213.226C-628.596 -213.145 -629.63 -213.063 -630.656 -212.981C-632.711 -212.811 -634.757 -212.649 -636.639 -212.448C-640.417 -212.064 -643.67 -211.702 -645.48 -211.46C-649.107 -210.988 -652.183 -210.94 -652.365 -211.422C-652.543 -211.903 -653.905 -211.838 -655.386 -211.272C-656.867 -210.706 -658.923 -210.684 -659.98 -211.221C-661.497 -211.988 -662.135 -211.853 -663.028 -210.559C-663.922 -209.269 -664.673 -209.083 -666.729 -209.717C-668.779 -210.347 -669.878 -210.077 -671.905 -208.419C-673.801 -206.874 -674.917 -206.556 -676.189 -207.206C-678.531 -208.405 -690.707 -205.957 -689.987 -204.452C-689.6 -203.618 -690.853 -203.254 -694.462 -203.149C-697.215 -203.056 -701.147 -202.295 -703.152 -201.403C-705.326 -200.434 -707.586 -200.006 -708.78 -200.323C-709.888 -200.615 -712.64 -200.145 -714.914 -199.252C-717.165 -198.335 -724.146 -196.644 -730.358 -195.329C-736.614 -194.051 -741.818 -192.525 -742.032 -192.035C-742.233 -191.543 -744.375 -190.961 -746.753 -190.745C-749.31 -190.503 -751.88 -189.554 -753.001 -188.475C-754.054 -187.46 -758.82 -185.627 -763.637 -184.355C-768.495 -183.066 -772.555 -181.411 -772.801 -180.677C-773.088 -179.823 -778.953 -177.733 -788.682 -174.803C-797.14 -172.242 -804.399 -169.369 -804.723 -168.657C-805.356 -167.268 -804.823 -165.097 -803.82 -163.643C-789.083 -168.119 -774.615 -172.047 -759.909 -175.742C-745.222 -179.402 -730.399 -182.764 -715.374 -185.833C-685.33 -191.96 -654.516 -196.958 -622.777 -200.44C-605.46 -202.432 -587.875 -203.982 -570.044 -205.013C-552.212 -206.042 -534.098 -206.475 -515.825 -206.313C-497.547 -206.121 -479.1 -205.401 -460.595 -203.751C-442.097 -202.138 -423.582 -199.778 -405.267 -196.613C-386.961 -193.377 -368.93 -189.249 -351.401 -184.358L-338.364 -180.521C-334.086 -179.155 -329.859 -177.721 -325.619 -176.309C-321.343 -174.936 -317.251 -173.363 -313.135 -171.82C-309.046 -170.249 -304.844 -168.781 -300.921 -167.064L-289.018 -162.034C-285.131 -160.298 -281.359 -158.474 -277.541 -156.684L-271.854 -153.973L-266.389 -151.121C-262.77 -149.204 -259.077 -147.326 -255.553 -145.358C-248.684 -141.33 -241.585 -137.396 -235.228 -133.124C-232.003 -131.011 -228.668 -128.938 -225.562 -126.776L-216.408 -120.223C-218.403 -121.625 -220.493 -123.093 -222.673 -124.625C-224.854 -126.154 -227.099 -127.754 -229.646 -129.325C-232.147 -130.912 -234.733 -132.556 -237.402 -134.249C-238.741 -135.092 -240.1 -135.949 -241.476 -136.818C-242.923 -137.654 -244.39 -138.501 -245.876 -139.359C-248.865 -141.067 -251.931 -142.818 -255.066 -144.608C-256.609 -145.516 -258.281 -146.373 -259.966 -147.241C-261.649 -148.11 -263.351 -148.987 -265.067 -149.872C-268.54 -151.618 -271.923 -153.492 -275.706 -155.177C-279.432 -156.896 -283.217 -158.642 -287.053 -160.413C-302.719 -167.249 -320.042 -173.808 -338.479 -179.492C-356.975 -185.089 -376.467 -189.807 -395.967 -193.458C-415.465 -197.122 -434.956 -199.75 -453.44 -201.369C-471.928 -203.009 -489.426 -203.877 -505.171 -204.125C-536.682 -204.632 -561.162 -203.114 -574.3 -202.255C-586.403 -201.461 -602.043 -200.039 -617.413 -198.275C-619.828 -197.977 -622.239 -197.679 -624.609 -197.387C-626.062 -197.201 -627.493 -197.02 -628.883 -196.843C-631.631 -196.459 -634.197 -196.099 -636.402 -195.79Z" fill="#B377FF"/>
    <path fill-rule="evenodd" clip-rule="evenodd" d="M588.704 129.336C555.146 142.361 528.338 151.659 499.387 161.774C470.473 171.925 439.619 183.035 398.765 200.512C357.908 217.997 321.05 231.729 286.302 243.584C251.533 255.443 219.061 265.492 186.359 275.589C153.627 285.671 121.592 293.344 92.214 297.706C77.5442 299.897 63.6131 301.315 50.8349 301.949C38.059 302.591 26.4956 302.486 16.6712 302.017C-2.28975 301.088 -19.0477 298.192 -32.6284 294.464C-46.2224 290.687 -56.6884 286.285 -64.6845 282.318C-68.7635 280.363 -72.0458 278.408 -75.0798 276.722C-77.9229 274.952 -80.4748 273.417 -82.5268 272.031C-84.5505 270.63 -86.2599 269.45 -87.6703 268.476C-89.0027 267.478 -90.0527 266.691 -90.831 266.108C-93.9357 263.775 -92.8447 264.744 -88.3679 268.345C-83.6455 271.837 -75.3168 278.038 -61.4778 284.748C-54.5494 288.075 -46.1828 291.443 -36.462 294.407C-26.7479 297.374 -15.6418 299.866 -3.68996 301.511C8.26017 303.174 21.0034 303.998 33.9375 304.006C46.8715 304.003 59.9766 303.194 72.9685 301.815C98.9815 299.047 124.484 294.023 148.783 288.195C173.086 282.343 196.289 275.685 217.83 269.115C241.062 262.013 261.393 255.185 280.17 248.64C298.92 242.078 316.1 235.778 332.734 229.495C365.982 216.931 397.066 204.405 433.517 189.644C469.967 174.908 483.237 170.004 492.146 166.722C501.078 163.5 505.626 161.925 525.002 154.823C547.85 146.49 563.768 140.17 573.994 135.892C584.22 131.621 588.704 129.336 588.704 129.336ZM1566.76 44.9795C1566.06 45.8758 1567.08 46.6042 1569.03 46.5712C1569.39 46.5732 1571.86 45.7036 1576.16 44.0471C1580.43 42.379 1586.65 40.0269 1594.24 36.837C1609.54 30.5646 1630.83 21.3468 1655.39 9.60685C1679.95 -2.13337 1707.85 -16.3377 1736.56 -32.3741C1765.3 -48.3889 1794.94 -66.156 1823.48 -84.698C1846.84 -99.2363 1869.47 -114.398 1886.06 -126.043C1894.36 -131.859 1901.18 -136.786 1905.93 -140.25C1910.68 -143.706 1913.42 -145.734 1913.39 -145.566C1913.24 -144.889 1914.98 -143.23 1917.26 -141.884C1917.46 -141.77 1915.41 -139.818 1911.53 -136.485C1907.64 -133.148 1901.9 -128.422 1894.59 -122.666C1879.97 -111.15 1859.02 -95.5211 1834.08 -78.4575C1772.53 -37.0536 1698.5 6.00178 1616.16 43.0002C1575 61.4732 1531.74 78.3431 1487.5 92.6619C1465.4 99.8451 1442.97 106.305 1420.54 112.023C1398.08 117.725 1375.67 122.766 1353.4 126.869C1331.12 130.951 1309.13 134.265 1287.7 136.76C1282.33 137.362 1276.98 137.867 1271.71 138.408C1269.08 138.667 1266.46 138.952 1263.84 139.181C1261.21 139.384 1258.6 139.585 1256 139.785C1250.8 140.164 1245.68 140.613 1240.59 140.91C1235.48 141.171 1230.44 141.428 1225.47 141.682C1220.51 141.98 1215.58 142.065 1210.72 142.189C1205.87 142.299 1201.09 142.455 1196.37 142.508C1191.65 142.5 1187 142.492 1182.43 142.484C1180.15 142.478 1177.88 142.472 1175.64 142.465C1173.39 142.441 1171.17 142.349 1168.96 142.294C1160.13 142.021 1151.62 141.862 1143.48 141.299C1139.41 141.062 1135.43 140.83 1131.53 140.603C1129.58 140.507 1127.66 140.346 1125.77 140.175C1123.87 140.012 1122 139.851 1120.15 139.691C1112.76 139.033 1105.71 138.505 1099.14 137.659C1092.56 136.867 1086.33 136.222 1080.59 135.419C1069.13 133.713 1059.24 132.384 1051.36 130.862C1047.4 130.155 1043.88 129.527 1040.83 128.983C1039.3 128.711 1037.89 128.46 1036.6 128.229C1035.33 127.97 1034.17 127.733 1033.14 127.521C1031.08 127.098 1029.49 126.773 1028.41 126.552C1027.32 126.335 1026.75 126.224 1026.69 126.226C1023.9 126.343 1022.46 126.858 1023.52 127.373C1023.72 127.474 1026.06 128.053 1030.37 129.066C1034.63 130.147 1041.03 131.359 1049.21 132.98C1057.34 134.698 1067.52 136.281 1079.33 138.195C1091.22 139.877 1104.82 141.766 1120.09 143.152C1127.69 143.997 1135.73 144.493 1144.12 145.088C1146.22 145.233 1148.34 145.38 1150.49 145.529C1152.63 145.675 1154.8 145.73 1156.99 145.835C1161.37 146.017 1165.83 146.203 1170.38 146.392C1174.93 146.629 1179.56 146.622 1184.27 146.707C1188.98 146.763 1193.77 146.86 1198.63 146.872C1203.49 146.81 1208.42 146.748 1213.42 146.684C1215.93 146.644 1218.45 146.604 1220.99 146.565C1223.51 146.468 1226.05 146.371 1228.61 146.271C1269.66 144.866 1314.55 140.231 1360.26 132.073C1365.94 131.019 1371.74 130.034 1377.45 128.889C1383.16 127.727 1388.91 126.557 1394.69 125.381C1406.14 122.866 1417.73 120.305 1429.18 117.417C1452.18 111.732 1475.12 105.301 1497.78 98.2264C1543.04 84.0116 1587.14 67.2499 1629.03 49.0234C1670.94 30.8016 1710.58 11.0761 1747.45 -9.01954C1784.32 -29.1256 1818.4 -49.6128 1849.19 -69.5559C1873.04 -84.3425 1893.13 -97.698 1907.32 -107.418C1914.41 -112.284 1920.04 -116.212 1923.92 -118.949C1925.86 -120.315 1927.37 -121.369 1928.39 -122.082C1928.9 -122.436 1929.3 -122.705 1929.56 -122.885C1929.83 -123.064 1929.98 -123.151 1929.99 -123.143C1932.06 -122.105 1928.95 -118.744 1925.52 -114.542C1922.09 -110.351 1918.33 -105.307 1919.1 -100.716C1919.18 -100.267 1918.26 -99.9554 1918.78 -99.3867C1919.49 -98.6068 1918.58 -97.8948 1915.13 -96.5874C1911.42 -95.1903 1910.61 -94.4939 1910.94 -92.9907C1911.22 -91.6719 1910.15 -90.5458 1907.21 -89.1786C1901.77 -86.6194 1890.28 -78.7347 1891.27 -78.1804C1891.71 -77.9331 1889.02 -75.888 1885.32 -73.6451C1880.44 -70.7129 1876.13 -68.1043 1872.43 -65.815C1870.58 -64.6682 1868.87 -63.6071 1867.31 -62.6334C1866.53 -62.1399 1865.8 -61.6682 1865.09 -61.2198C1863.77 -60.3473 1862.51 -59.519 1861.31 -58.7338C1854.9 -54.5015 1849.95 -51.1923 1846.53 -48.8163C1843.14 -46.4292 1841.3 -44.9631 1841.07 -44.4408C1840.39 -42.8676 1838.83 -42.0094 1835.54 -41.4055C1832.6 -40.8585 1830.59 -39.7849 1829.86 -38.4322C1828.43 -35.6793 1814.49 -27.4649 1811.43 -27.6101C1810.14 -27.6596 1807.75 -26.8599 1806.04 -25.8204C1804.36 -24.7942 1804.54 -23.9516 1806.45 -23.9587C1809.43 -23.9772 1807.62 -22.6234 1794.37 -15.1757C1785.67 -10.3734 1779.04 -6.19255 1779.54 -5.84216C1780.09 -5.47131 1778.15 -4.46163 1775.2 -3.57784C1772.26 -2.69263 1769.34 -1.33283 1768.66 -0.520935C1768 0.294085 1765.39 1.657 1762.9 2.51948C1760.59 3.29528 1754.25 6.53035 1742.58 12.4606C1730.92 18.4024 1714.06 27.1093 1690.28 38.5455C1683.3 41.8485 1676.44 45.0114 1670.95 47.4027C1665.42 49.7776 1661.34 51.4309 1660.06 51.7915C1657.51 52.4912 1654.9 53.841 1654.28 54.691C1653.68 55.5708 1647.77 58.337 1641.12 60.8602C1629.34 65.2513 1620.04 69.462 1604.78 77.0273C1600.71 79.0291 1596 80.6713 1594.37 80.7262C1593.55 80.7509 1589.87 81.9584 1584.6 83.8746C1579.26 85.7393 1572.33 88.3049 1565.05 91.0867C1558.06 93.6551 1551.03 96.2772 1545.24 98.3551C1539.41 100.399 1534.92 101.972 1533.2 102.577C1532.39 102.851 1531.29 103.282 1530.76 103.535C1529.9 103.973 1523.36 106.118 1518.27 107.651C1517.22 107.987 1515.06 108.674 1512.36 109.534C1509.68 110.412 1506.44 111.451 1503.19 112.443C1496.7 114.454 1490.34 116.448 1488.69 117.017C1486.82 117.645 1482.49 118.913 1479.1 119.887C1476.62 120.611 1472.33 121.863 1467.19 123.361C1461.96 124.785 1455.88 126.444 1449.9 128.074C1449.4 128.203 1447.92 128.702 1445.87 129.354C1443.81 130.01 1441.22 130.838 1438.57 131.682C1433.29 133.388 1428.43 134.878 1427.79 135.007C1427.14 135.121 1425.86 135.348 1424.94 135.487C1424.01 135.631 1416.81 137.611 1408.91 139.88C1405 141.045 1400.21 142.243 1395.81 143.392C1391.39 144.529 1387.32 145.563 1384.64 146.215C1381.96 146.859 1377.57 147.824 1372.72 148.922C1367.84 149.994 1362.55 151.266 1357.77 152.184C1346.59 154.489 1326.26 158.405 1304.19 161.375C1293.26 163.018 1281.78 164.184 1271.2 165.391C1265.86 165.901 1260.7 166.325 1255.89 166.738C1251.07 167.133 1246.61 167.55 1242.57 167.738C1239.07 167.947 1235.01 168.189 1230.67 168.449C1226.31 168.723 1221.68 169.033 1216.99 169.188C1207.61 169.552 1198.22 170.079 1190.95 170.173C1181.16 170.45 1160.71 170.607 1135.57 169.08C1110.46 167.652 1080.66 164.714 1052.89 160.018C1051.15 159.743 1049.4 159.485 1047.68 159.194C1045.97 158.88 1044.26 158.566 1042.56 158.254C1039.17 157.622 1035.81 156.996 1032.49 156.376C1029.17 155.747 1025.9 155.125 1022.68 154.513C1019.51 153.816 1016.39 153.13 1013.34 152.458C1007.25 151.087 1001.35 149.836 995.914 148.494C990.527 147.095 985.465 145.781 980.812 144.574C976.164 143.358 971.935 142.243 968.335 141.11C964.703 140.016 961.559 139.052 958.998 138.247C953.862 136.636 951.028 135.658 951.137 135.516C951.137 135.516 950.54 135.319 949.455 134.963C949.027 134.82 948.503 134.646 947.892 134.443C947.455 134.294 946.958 134.125 946.407 133.937C944.197 133.201 941.166 132.138 937.74 131.138C934.349 130.053 930.298 128.98 926.575 127.935C924.693 127.447 922.893 126.979 921.289 126.563C919.689 126.127 918.236 125.835 917.124 125.547C915.438 125.139 913.173 124.566 910.307 124.033C908.88 123.751 907.326 123.443 905.649 123.111C903.945 122.823 902.122 122.515 900.19 122.189C892.411 120.945 882.655 119.705 871.372 118.922C860.093 118.147 847.32 117.75 833.677 118.132C820.056 118.48 805.633 119.46 791.361 121.003C780.72 122.158 768.239 123.837 756.71 125.688C745.185 127.536 734.636 129.471 727.955 130.771C710.949 134.027 696.407 137.361 683.087 140.622C669.767 143.904 657.655 147.16 645.415 150.693C620.926 157.792 595.904 165.773 559.416 178.777C535.405 187.326 503.379 199.219 488.195 204.777C435.752 223.871 387.055 244.122 335.526 265.847C312.823 275.412 296.075 282.105 284.957 286.396C273.84 290.693 268.313 292.591 267.74 292.574C267.44 292.565 266.911 292.739 266.571 292.974C265.96 293.358 255.514 297.351 240.689 302.517C233.298 305.106 224.741 307.968 215.856 310.832C206.905 313.68 197.642 316.533 188.713 319.068C177.243 322.33 168.008 324.862 161.504 326.655C155.058 328.468 151.403 329.562 151.156 329.966C150.625 330.824 149.994 330.943 149.139 330.361C148.816 330.151 147.072 330.367 142.79 331.12C140.644 331.492 137.887 332.006 134.403 332.68C130.826 333.322 126.578 334.143 121.293 335.07C118.636 335.527 115.755 336.022 112.637 336.556C109.435 337.059 105.988 337.596 102.283 338.176C98.4689 338.713 94.4282 339.295 89.997 339.864C85.4788 340.392 80.7961 341.006 75.4804 341.492C72.8296 341.736 70.2052 342.038 67.306 342.245C64.4333 342.458 61.4781 342.677 58.4359 342.904C55.3048 343.069 52.0849 343.237 48.7745 343.41C45.4772 343.581 41.8903 343.629 38.3134 343.726C23.8212 343.964 6.94488 343.632 -12.4752 341.398C-22.7109 340.176 -31.1795 338.764 -38.0208 337.36C-41.4449 336.641 -44.4689 336.005 -47.1165 335.365C-49.7586 334.7 -52.0376 334.098 -53.992 333.558C-57.9133 332.509 -60.4666 331.603 -62.0447 330.983C-63.6191 330.355 -64.1951 329.977 -64.0438 329.767C-63.4432 328.931 -63.7244 328.872 -65.2268 329.471C-65.9965 329.773 -70.6149 328.889 -82.1983 324.89C-85.0268 323.847 -88.3588 322.643 -92.0276 321.142C-93.8244 320.366 -95.7411 319.542 -97.7881 318.661C-99.8332 317.772 -101.981 316.814 -104.118 315.743C-106.29 314.683 -108.573 313.546 -110.969 312.33C-113.285 311.099 -115.648 309.772 -118.153 308.366C-120.708 306.965 -123.113 305.447 -125.684 303.841C-126.959 303.037 -128.263 302.21 -129.603 301.363C-130.886 300.511 -132.14 299.633 -133.446 298.729C-148.256 288.428 -157.959 279.257 -165.818 270.874C-173.589 262.471 -179.534 254.738 -184.763 246.867C-194.99 231.155 -203.053 214.701 -210.353 191.393C-212.131 185.984 -215.22 175.045 -216.995 167.138C-218.002 163.166 -218.815 158.732 -219.631 154.718C-220.327 150.731 -220.863 147.201 -221.153 145.073C-221.433 142.961 -221.89 139.517 -222.4 135.667C-222.66 133.87 -222.933 131.978 -223.205 130.099C-223.473 128.371 -223.738 126.657 -223.986 125.054C-224.574 121.268 -225.116 117.767 -225.62 114.511C-226.156 111.264 -226.788 108.298 -227.271 105.513C-228.3 99.9562 -228.957 95.1706 -229.834 91.0032C-230.206 89.1475 -230.74 86.4731 -231.303 83.6615C-231.894 80.8518 -232.458 77.8835 -233.161 75.5303C-234.763 69.7123 -235.966 64.7228 -237.157 60.5397C-238.436 56.3856 -239.441 52.9518 -240.224 50.101C-241.633 46.2867 -243.222 42.9889 -244.415 40.1556C-245.627 37.3295 -246.569 35.0134 -247.179 33.3464C-248.42 30.0434 -250.461 25.8595 -252.392 21.6352C-252.887 20.5835 -253.381 19.5315 -253.867 18.4971C-254.387 17.4771 -254.953 16.4953 -255.477 15.5331C-256.554 13.6186 -257.56 11.8311 -258.423 10.294C-259.475 8.53748 -260.501 6.5025 -261.836 4.42147C-263.151 2.33305 -264.557 0.0951513 -266.022 -2.23226C-266.742 -3.40051 -267.478 -4.59036 -268.223 -5.79584C-268.964 -7.00444 -269.845 -8.16048 -270.655 -9.36368C-272.297 -11.7582 -273.959 -14.1833 -275.604 -16.5829C-277.259 -18.9754 -279.112 -21.2233 -280.762 -23.4674C-282.474 -25.6772 -283.967 -27.8974 -285.662 -29.8014C-287.274 -31.7529 -288.777 -33.5713 -290.124 -35.2034C-290.789 -36.0243 -291.412 -36.799 -291.995 -37.5202C-292.576 -38.2406 -293.186 -38.8607 -293.696 -39.4521C-295.457 -41.4365 -297.479 -43.7145 -299.315 -45.7841C-300.204 -46.8424 -301.148 -47.7799 -301.984 -48.6091C-302.813 -49.4449 -303.532 -50.1701 -304.084 -50.7254C-305.192 -51.8362 -306.846 -53.5609 -308.618 -55.4524C-310.502 -57.2666 -312.534 -59.2231 -314.257 -60.8842C-315.117 -61.7205 -315.958 -62.5386 -316.74 -63.3011C-317.522 -64.0655 -318.355 -64.694 -319.031 -65.2761C-320.412 -66.4208 -321.4 -67.2048 -321.669 -67.3429C-322.195 -67.62 -322.941 -68.0115 -323.318 -68.2093C-323.497 -68.3144 -324.158 -68.8677 -325.078 -69.6795C-325.544 -70.0803 -326.05 -70.5656 -326.638 -71.056C-327.232 -71.5392 -327.87 -72.0585 -328.523 -72.5901C-331.11 -74.7362 -333.678 -76.7864 -334.22 -77.1388C-335.029 -77.6859 -335.893 -78.1907 -336.77 -78.678C-337.635 -79.1746 -338.496 -79.6671 -339.343 -80.1534C-341.03 -81.1291 -342.662 -82.0728 -344.171 -82.9454C-345.64 -83.8521 -347.151 -84.5331 -348.369 -85.1884C-349.607 -85.8292 -350.64 -86.3639 -351.399 -86.7564C-353.485 -87.8094 -356.058 -89.2291 -357.289 -89.7824C-358.344 -90.3078 -362.384 -92.2643 -366.593 -94.1497C-370.927 -95.9053 -375.286 -97.7382 -376.765 -98.2544C-380.342 -99.4217 -384.888 -101.079 -385.49 -101.414C-385.854 -101.612 -386.599 -101.97 -387.192 -102.146C-388.443 -102.56 -391.703 -103.637 -395.935 -105.035C-396.978 -105.405 -398.118 -105.748 -399.326 -106.081C-400.52 -106.428 -401.763 -106.787 -403.034 -107.155C-405.582 -107.884 -408.19 -108.723 -410.937 -109.36C-413.805 -110.08 -416.597 -110.77 -419.2 -111.386C-421.872 -111.91 -424.339 -112.376 -426.473 -112.759C-430.706 -113.573 -433.773 -113.809 -434.375 -113.674C-435.622 -113.351 -439.4 -113.912 -442.918 -114.79C-446.268 -115.565 -449.302 -116.246 -452.125 -116.846C-454.982 -117.388 -457.657 -117.788 -460.204 -118.162C-461.476 -118.344 -462.724 -118.512 -463.955 -118.663C-465.208 -118.778 -466.447 -118.878 -467.687 -118.966C-470.161 -119.143 -472.626 -119.271 -475.201 -119.365C-481.13 -119.404 -486.63 -119.927 -487.564 -120.461C-488.485 -120.979 -491.082 -121.201 -493.215 -120.915C-494.299 -120.762 -498.004 -120.824 -503.208 -120.748C-505.806 -120.711 -508.727 -120.79 -511.903 -120.725C-515.075 -120.672 -518.438 -120.653 -521.855 -120.634C-545.419 -120.198 -562.991 -118.634 -575.003 -117.273C-578.006 -116.963 -580.667 -116.612 -583.001 -116.289C-585.329 -115.96 -587.334 -115.677 -589.025 -115.438C-590.711 -115.181 -592.087 -114.917 -593.153 -114.71C-593.691 -114.604 -594.152 -114.506 -594.534 -114.415C-594.867 -114.332 -594.844 -114.291 -594.976 -114.23C-595.724 -113.744 -596.758 -113.548 -597.278 -113.803C-597.806 -114.064 -598.868 -113.707 -599.656 -113.02C-600.445 -112.329 -601.201 -112.137 -601.365 -112.637C-601.52 -113.119 -604.537 -112.943 -608.087 -112.256C-613.541 -111.204 -614.471 -111.171 -614.261 -112.547C-614.125 -113.419 -614.621 -114.048 -615.364 -113.936C-616.121 -113.824 -616.768 -113.241 -616.822 -112.619C-616.95 -111.151 -622.806 -109.988 -624.615 -111.013C-625.503 -111.522 -626.278 -111.242 -626.752 -110.209C-627.276 -109.046 -627.878 -108.855 -628.917 -109.514C-629.609 -109.963 -632.963 -109.693 -638.796 -108.625C-644.634 -107.593 -652.95 -105.712 -663.454 -102.93C-667.441 -101.851 -670.877 -101.262 -671.068 -101.6C-671.287 -101.999 -674.778 -101.404 -678.815 -100.46C-682.83 -99.4784 -687.396 -98.1586 -689.729 -97.084C-692.263 -95.9425 -693.985 -95.756 -695.685 -96.4102C-697.608 -97.151 -698.738 -96.9367 -701.436 -95.3294C-703.938 -93.8437 -705.05 -93.545 -705.957 -94.2332C-706.617 -94.7246 -707.228 -94.3053 -707.816 -94.5042C-713.867 -96.5524 -721.505 -95.9929 -727.839 -95.2738C-734.169 -94.5475 -739.168 -93.6604 -740.33 -95.1481C-740.343 -95.1646 -740.111 -95.2645 -739.646 -95.4438C-739.177 -95.6158 -738.47 -95.8713 -737.555 -96.2062C-735.718 -96.8707 -732.961 -97.8093 -729.42 -98.9993C-722.321 -101.364 -711.931 -104.643 -699.048 -108.284C-686.175 -111.93 -670.8 -115.931 -653.843 -119.688C-645.381 -121.608 -636.504 -123.383 -627.395 -125.145C-618.262 -126.814 -608.893 -128.49 -599.387 -129.883C-543.141 -137.38 -484.557 -138.272 -433.484 -129.837C-420.696 -127.791 -408.477 -125.078 -396.725 -122.066C-393.821 -121.264 -390.932 -120.464 -388.055 -119.67C-385.169 -118.884 -382.443 -117.921 -379.643 -117.07C-378.252 -116.634 -376.864 -116.198 -375.48 -115.763C-374.086 -115.339 -372.785 -114.814 -371.436 -114.348C-368.757 -113.393 -366.093 -112.444 -363.446 -111.501C-342.603 -103.564 -324.397 -94.193 -308.924 -84.3889C-293.431 -74.5837 -280.715 -64.3437 -270.196 -54.7743C-259.541 -45.2578 -251.547 -36.1676 -244.894 -28.6528C-238.579 -20.9874 -233.625 -14.85 -230.551 -10.4581C-227.346 -6.11441 -225.5 -3.71169 -225.247 -3.55397C-224.462 -3.02966 -223.611 -3.86002 -223.475 -5.3673C-223.47 -5.41561 -223.843 -6.02772 -224.572 -7.16528C-225.309 -8.30143 -226.39 -9.96558 -227.792 -12.1228C-230.485 -16.4789 -235.048 -22.5958 -240.92 -30.3041C-247.115 -37.8758 -254.657 -47.0606 -264.881 -56.796C-274.972 -66.5794 -287.289 -77.1501 -302.563 -87.423C-317.809 -97.7011 -336.016 -107.65 -357.126 -116.301C-359.787 -117.357 -362.528 -118.357 -365.246 -119.403C-366.608 -119.923 -367.975 -120.445 -369.348 -120.967C-370.743 -121.464 -372.176 -121.923 -373.593 -122.406C-376.439 -123.361 -379.3 -124.322 -382.178 -125.289C-385.131 -126.165 -388.1 -127.045 -391.083 -127.93C-394.031 -128.863 -397.141 -129.604 -400.218 -130.414C-403.313 -131.198 -406.363 -132.077 -409.573 -132.74C-412.75 -133.456 -415.941 -134.174 -419.144 -134.895C-422.407 -135.522 -425.684 -136.149 -428.973 -136.781C-442.204 -139.172 -455.934 -141.08 -470.043 -142.418C-484.178 -143.687 -498.66 -144.429 -513.334 -144.642C-542.685 -145.113 -572.775 -143.282 -602.422 -139.893C-623.744 -137.609 -644.729 -134.4 -664.105 -130.904C-683.463 -127.36 -701.217 -123.52 -716.182 -119.922C-731.17 -116.356 -743.356 -113.043 -751.813 -110.736C-760.266 -108.406 -764.942 -107.084 -765.142 -107.289C-766.842 -108.939 -769.052 -110.322 -770.027 -110.376C-770.369 -110.382 -765.156 -112.415 -755.709 -115.612C-746.267 -118.797 -732.619 -123.084 -716.483 -127.543C-700.347 -131.989 -681.732 -136.615 -662.565 -140.632C-643.421 -144.71 -623.722 -148.127 -605.703 -150.718C-599.451 -151.569 -593.24 -152.208 -587.143 -152.91C-581.023 -153.487 -575.017 -154.142 -569.088 -154.571C-557.249 -155.592 -545.811 -156.136 -534.938 -156.578C-513.183 -157.288 -493.67 -156.887 -477.402 -155.962C-444.813 -154.097 -425.337 -150.43 -424.385 -150.741C-422.599 -151.066 -421.969 -151.948 -423.016 -152.682C-423.325 -152.972 -428.424 -153.951 -437.475 -155.567C-439.739 -155.969 -442.291 -156.3 -445.058 -156.719C-447.837 -157.104 -450.83 -157.603 -454.089 -157.983C-457.352 -158.361 -460.838 -158.764 -464.533 -159.192C-468.234 -159.619 -472.18 -159.899 -476.313 -160.285C-492.868 -161.658 -512.81 -162.513 -535.111 -162.234C-546.249 -162.012 -557.992 -161.674 -570.145 -160.857C-576.238 -160.53 -582.408 -159.976 -588.706 -159.495C-594.967 -158.893 -601.356 -158.348 -607.786 -157.591C-626.447 -155.779 -646.935 -153.118 -666.931 -149.738C-686.954 -146.417 -706.49 -142.43 -723.537 -138.536C-740.585 -134.63 -755.135 -130.811 -765.388 -127.993C-775.632 -125.172 -781.634 -123.38 -781.561 -123.628C-781.269 -124.502 -781.803 -125.5 -782.764 -125.829C-784.86 -126.539 -785.927 -132.379 -784.036 -132.996C-783.343 -133.217 -782.172 -134.81 -781.429 -136.504C-780.663 -138.212 -779.301 -139.583 -778.412 -139.541C-777.537 -139.507 -776.959 -140.291 -777.141 -141.303C-777.205 -141.648 -777.114 -142.153 -776.959 -142.703C-772.953 -143.941 -769.221 -145.063 -768.164 -145.37C-766.851 -145.755 -763.912 -146.613 -761.611 -147.285C-758.239 -148.277 -749.913 -150.607 -741.824 -152.756C-741.159 -152.925 -737.618 -153.823 -733.941 -154.756C-730.245 -155.661 -726.896 -156.481 -726.477 -156.584C-726.062 -156.69 -725.242 -156.9 -724.663 -157.048L-713.785 -159.601C-711.074 -160.205 -707.88 -160.917 -704.918 -161.578C-701.942 -162.211 -699.199 -162.795 -697.412 -163.177C-693.844 -163.956 -685.847 -165.567 -679.645 -166.759C-672.312 -168.188 -659.029 -170.617 -644.948 -172.815C-641.416 -173.344 -637.848 -173.88 -634.326 -174.409C-630.776 -174.893 -627.276 -175.371 -623.908 -175.83C-620.545 -176.308 -617.269 -176.67 -614.229 -177.046C-612.548 -177.248 -610.898 -177.446 -609.276 -177.64C-607.389 -177.879 -605.517 -178.055 -603.698 -178.25C-600.048 -178.627 -596.567 -178.985 -593.286 -179.324C-581.875 -180.39 -566.655 -181.571 -551.22 -182.259C-535.777 -182.919 -520.146 -183.025 -508.171 -182.867C-504.32 -182.803 -499.49 -182.646 -493.816 -182.494C-490.982 -182.425 -487.924 -182.222 -484.68 -182.074C-481.435 -181.885 -477.995 -181.792 -474.376 -181.491C-459.899 -180.563 -442.556 -178.823 -423.657 -175.912C-421.844 -175.626 -420.009 -175.338 -418.155 -175.046C-417.227 -174.899 -416.296 -174.751 -415.36 -174.602C-414.432 -174.428 -413.499 -174.254 -412.563 -174.079C-408.815 -173.37 -404.991 -172.648 -401.095 -171.911C-397.221 -171.124 -393.322 -170.213 -389.334 -169.337C-385.327 -168.493 -381.352 -167.45 -377.308 -166.4C-361.134 -162.23 -344.327 -157.043 -327.874 -150.47C-311.382 -143.949 -295.105 -136.228 -279.673 -127.417C-275.895 -125.168 -272.09 -122.902 -268.254 -120.619C-264.626 -118.225 -260.972 -115.815 -257.295 -113.389C-255.419 -112.194 -253.706 -110.914 -251.967 -109.642C-250.228 -108.369 -248.485 -107.092 -246.736 -105.813C-245.014 -104.521 -243.184 -103.27 -241.545 -101.933C-239.898 -100.599 -238.248 -99.261 -236.594 -97.9206C-229.817 -92.6198 -223.782 -86.9604 -217.601 -81.3145C-214.707 -78.4256 -211.802 -75.5264 -208.89 -72.6179C-208.171 -71.8885 -207.423 -71.1673 -206.726 -70.4296L-204.708 -68.1959C-203.363 -66.7051 -202.018 -65.2122 -200.67 -63.7173L-196.632 -59.2283C-195.306 -57.7261 -194.13 -56.1819 -192.871 -54.659C-190.403 -51.5992 -187.891 -48.5443 -185.469 -45.467C-183.208 -42.3532 -180.946 -39.2367 -178.681 -36.1181C-177.579 -34.5543 -176.363 -33.0129 -175.358 -31.4283L-172.283 -26.69C-170.261 -23.5259 -168.132 -20.3827 -166.213 -17.2064C-164.375 -14.0177 -162.537 -10.8309 -160.703 -7.64953C-159.796 -6.05672 -158.854 -4.47214 -157.983 -2.87819L-155.53 1.92384C-153.903 5.12083 -152.277 8.31185 -150.657 11.4944C-149.106 14.6851 -147.752 17.8912 -146.303 21.0717C-144.916 24.2616 -143.376 27.4202 -142.135 30.5999C-140.895 33.7781 -139.659 36.9433 -138.43 40.0948C-137.215 43.2466 -135.919 46.3734 -134.934 49.5127C-133.881 52.6446 -132.834 55.7592 -131.794 58.8553C-130.748 61.9503 -129.695 65.0257 -128.878 68.0959C-128.003 71.1619 -127.135 74.2066 -126.274 77.2282C-125.435 80.251 -124.492 83.2431 -123.844 86.2279C-122.437 92.1879 -121.055 98.0482 -119.699 103.792C-118.59 109.544 -117.504 115.18 -116.443 120.683C-115.943 123.362 -115.449 126.009 -114.961 128.622C-114.482 131.186 -114.066 133.729 -113.513 136.21C-112.991 138.697 -112.476 141.148 -111.968 143.563C-111.395 145.966 -110.832 148.331 -110.278 150.657C-107.938 159.938 -105.459 168.546 -102.713 176.296C-97.2927 191.816 -91.2165 203.97 -86.4171 212.132C-85.168 214.155 -84.0575 215.954 -83.0951 217.511C-82.1226 219.066 -81.1898 220.333 -80.494 221.387C-79.7813 222.43 -79.2367 223.229 -78.8717 223.763C-78.4784 224.286 -78.2761 224.553 -78.2761 224.553C-73.8203 230.498 -67.8575 237.512 -59.2936 244.914C-50.7129 252.266 -39.4161 260.055 -23.5549 265.804C-3.60841 273.153 20.3528 275.535 45.1827 274.153C70.0343 272.838 95.361 268.322 120.176 262.434C145.044 256.523 169.577 249.214 193.97 241.234C218.369 233.238 242.649 224.539 267.119 215.448C281.3 210.188 303.45 201.776 327.715 192.382C352.032 182.968 378.512 172.717 401.294 163.897C470.769 137.141 519.424 119.7 568.206 104.253C592.636 96.5645 617.107 89.3558 644.69 82.2613C658.493 78.7293 673.08 75.2347 688.888 71.8482C704.706 68.4739 721.73 65.1678 740.487 62.2604C755.188 59.9577 778.765 56.6743 805.328 54.8186C818.602 53.9007 832.592 53.3309 846.441 53.2599C860.285 53.1783 873.978 53.6029 886.619 54.4168C920.51 56.6638 954.915 62.3149 985.902 71.1454C993.366 73.3143 1000.77 75.4675 1008.1 77.596C1015.19 79.7586 1022.48 81.4895 1029.59 83.304C1043.84 86.8542 1057.97 89.7616 1071.58 92.1839C1098.82 97.0138 1124.04 99.5771 1144.67 100.929C1147.25 101.091 1149.75 101.247 1152.19 101.4C1154.62 101.549 1156.97 101.722 1159.25 101.771C1163.82 101.928 1168.06 102.074 1171.95 102.209C1173.89 102.267 1175.75 102.364 1177.51 102.382C1179.28 102.397 1180.96 102.409 1182.54 102.422C1185.7 102.451 1188.47 102.476 1190.84 102.497C1192.41 102.509 1194.2 102.522 1196.16 102.536C1198.13 102.524 1200.28 102.461 1202.56 102.422C1207.12 102.319 1212.25 102.259 1217.59 102.097C1222.93 101.852 1228.5 101.596 1233.98 101.344C1239.46 101.071 1244.82 100.601 1249.78 100.275C1252.26 100.086 1254.69 99.9522 1257.02 99.7328C1259.35 99.508 1261.59 99.2918 1263.74 99.0857C1268.01 98.6745 1271.87 98.3037 1275.12 97.9925C1281.58 97.2218 1285.59 96.7427 1285.65 96.7356C1285.83 96.714 1287.19 96.5492 1289.59 96.2584C1291.99 95.9711 1295.44 95.5744 1299.75 94.916C1304.07 94.2806 1309.3 93.5571 1315.28 92.6486C1321.22 91.6346 1327.95 90.5652 1335.26 89.262C1338.9 88.5717 1342.7 87.8514 1346.64 87.1045C1348.6 86.7294 1350.6 86.3495 1352.64 85.9619C1354.66 85.5353 1356.71 85.1017 1358.79 84.6617C1362.95 83.7799 1367.24 82.8731 1371.63 81.9427C1375.98 80.9311 1380.43 79.8947 1384.97 78.8375C1403.08 74.4888 1422.44 69.4611 1441.71 63.6153C1461.02 57.8167 1480.37 51.4218 1498.81 44.8332C1517.21 38.2013 1534.68 31.3632 1550.46 24.9086C1581.93 11.9002 1606.48 0.305448 1618.29 -5.37156C1622.64 -7.48357 1627.7 -9.88003 1632.97 -12.5411C1638.26 -15.1765 1643.89 -17.9717 1649.4 -20.8379C1652.18 -22.2628 1654.94 -23.6857 1657.67 -25.0858C1660.36 -26.5087 1663.01 -27.908 1665.57 -29.2615C1670.73 -31.9538 1675.45 -34.5316 1679.52 -36.7405C1688.95 -41.8278 1700.44 -48.2744 1712.76 -55.3586C1725.06 -62.4605 1738.09 -70.2637 1750.66 -78.0217C1763.23 -85.7736 1775.28 -93.5172 1785.74 -100.414C1791.06 -103.948 1795.66 -107.001 1798.94 -109.182C1803.09 -112.012 1808.49 -115.667 1810.87 -117.339C1813.27 -119.001 1818.22 -122.443 1821.82 -125.009C1825.43 -127.575 1828.69 -129.899 1829.09 -130.182C1829.49 -130.457 1830.05 -130.846 1830.33 -131.043C1830.62 -131.246 1832.84 -132.861 1835.3 -134.642L1840.53 -138.478C1845.96 -142.416 1851.52 -146.542 1853.76 -148.23C1855.29 -149.381 1857.24 -150.851 1858.11 -151.509C1858.81 -152.041 1861.27 -153.922 1863.92 -155.944C1864.79 -155.901 1865.58 -155.834 1866.1 -155.713C1867.61 -155.364 1868.92 -155.523 1869.03 -156.043C1869.13 -156.575 1871.46 -157.054 1874.22 -157.136C1876.96 -157.21 1879.59 -157.58 1880.05 -157.951C1881.26 -158.922 1890.2 -157.252 1891.02 -155.874C1891.4 -155.23 1892.87 -154.733 1894.3 -154.78C1894.62 -154.792 1892.4 -152.66 1888.25 -149.038C1884.09 -145.412 1877.97 -140.285 1870.42 -134.227C1855.33 -122.101 1834.43 -106.296 1812.77 -91.0043C1785.18 -72.179 1756.45 -54.0781 1728.57 -37.6976C1700.73 -21.2954 1673.63 -6.69326 1649.8 5.46725C1625.95 17.6192 1605.32 27.2832 1590.56 33.9873C1583.25 37.3977 1577.28 39.9578 1573.24 41.8422C1569.19 43.7152 1566.93 44.7826 1566.76 44.9795Z" fill="#B377FF"/>
    </g>
    </g>
    <defs>
    <clipPath id="clip0_821_286">
    <rect width="1440" height="513" fill="white"/>
    </clipPath>
    </defs>
    </svg>
    