<svg width="1440" height="513" viewBox="0 0 1440 513" fill="none" xmlns="http://www.w3.org/2000/svg">
<g clip-path="url(#clip0_717_302)">
<rect width="1440" height="513" fill="white"/>
<path d="M1444 -0.29895H-22V462.701H1444V-0.29895Z" fill="#FDB427"/>
<mask id="mask0_717_302" style="mask-type:luminance" maskUnits="userSpaceOnUse" x="-115" y="319" width="1610" height="275">
<path d="M1495 319.701H-115V593.423H1495V319.701Z" fill="white"/>
</mask>
<g mask="url(#mask0_717_302)">
<path fill-rule="evenodd" clip-rule="evenodd" d="M-205.437 300.691C-146.798 320.211 215.862 405.663 290.009 416.174C885.607 538.14 1238.63 334.833 2104.69 309.78C2619.33 304.939 2885.98 342.557 3177.57 394.485V556.76H-205.437V300.691Z" fill="#F0F2F9"/>
<path d="M1.28713 360.646C-7.36299 358.281 -24.3247 353.647 -30.8315 351.856C-33.577 351.105 -37.1504 350.112 -38.7299 349.681C-40.2736 349.212 -43.5116 348.226 -45.9204 347.517L-50.7393 346.063L-51.5672 345.821L-54.8803 344.82L-58.3818 343.752C-62.0329 342.672 -65.7974 341.542 -67.3411 341.073L-70.3145 340.186C-71.0677 339.96 -74.5676 338.928 -77.1279 338.153C-79.2952 339.006 -80.6686 340.192 -81.2083 341.764C-81.5136 342.605 -81.2241 343.425 -80.6217 343.621C-80.0182 343.816 -79.0904 344.776 -78.5714 345.769C-78.3323 346.211 -78.019 346.634 -77.6701 347.019C-74.7332 347.925 -70.3647 349.287 -65.4692 350.792L-46.9805 356.473C-45.4755 356.907 -42.0142 357.886 -39.3053 358.656C-36.5963 359.427 -32.7965 360.501 -30.877 361.065C-24.8192 362.8 -20.7936 363.939 -16.1281 365.272C-13.6083 365.959 -9.12741 367.335 -5.85925 368.121C-0.709403 369.455 3.95162 370.662 8.23691 371.774C17.7836 374.215 26.3959 376.563 34.6978 378.562C43.0356 380.523 50.8476 382.358 58.3594 384.132C65.8712 385.905 73.009 387.637 80.3618 389.128C88.0929 390.785 99.2385 393.152 110.985 395.66C122.838 398.038 135.398 400.372 145.637 402.374C150.1 403.245 157.076 404.622 165.845 406.117L166.632 406.269C172.067 407.232 178.101 408.3 184.735 409.472C191.368 410.645 198.53 411.98 206.355 413.165C237.9 418.364 286.272 425.494 343.888 431.754C401.504 438.032 468.465 443.185 535.718 446.016C602.972 448.919 670.406 449.541 728.477 448.69C742.999 448.608 756.913 448.168 770.124 447.862C776.71 447.7 783.149 447.544 789.363 447.395L807.402 446.72C819.006 446.272 829.721 445.928 839.426 445.492C849.129 445.004 857.829 444.568 865.338 444.176C884.34 443.321 901.726 442.09 917.113 441.147C932.537 440.257 945.867 439.116 956.827 438.329C963.55 437.82 971.164 437.242 979.15 436.635C987.133 435.936 995.486 435.206 1003.77 434.479C1012.01 433.735 1020.18 433.084 1027.71 432.347C1035.25 431.593 1042.15 430.914 1047.98 430.328C1071.29 428.11 1091.95 425.68 1094.14 425.458L1099.88 424.785L1105.34 424.176C1106.41 424.03 1112.28 423.461 1120.81 422.417C1129.34 421.375 1140.53 420.002 1152.51 418.53C1164.53 417.128 1177.46 415.243 1188.84 413.756C1200.18 412.216 1209.93 410.931 1215.19 410.113C1228.57 408.121 1242.65 406.124 1257.13 403.913C1271.57 401.594 1286.62 399.273 1301.98 396.742C1317.35 394.12 1333.12 391.431 1349.22 388.692C1365.55 385.983 1382.21 383.224 1399.13 380.421C1407.58 379.02 1416.09 377.599 1424.68 376.193C1428.98 375.48 1433.28 374.769 1437.56 374.057C1441.86 373.362 1446.28 372.79 1450.65 372.148C1468.14 369.65 1485.77 367.11 1503.49 364.586C1512.35 363.314 1521.2 362.043 1530.06 360.79L1536.69 359.833L1543.4 359.017L1556.79 357.386C1574.67 355.217 1592.47 353.051 1610.12 350.908C1615.38 350.27 1620.53 349.635 1625.58 349.023C1630.62 348.411 1635.59 347.783 1640.49 347.321C1650.29 346.34 1659.68 345.394 1668.74 344.476C1686.85 342.66 1703.5 340.986 1719.1 339.421C1734.64 337.714 1749.2 336.764 1762.87 335.629C1776.57 334.547 1789.43 333.513 1801.72 332.535C1814.05 331.592 1825.78 330.544 1837.31 329.792C1848.86 329.111 1860.13 328.44 1871.45 327.767C1882.79 327.094 1894.13 326.421 1905.8 325.737C1911.63 325.385 1917.54 325.049 1923.61 324.689C1926.62 324.51 1929.66 324.33 1932.75 324.148C1935.83 324.038 1938.95 323.909 1942.12 323.78C1956.21 323.225 1978.08 322.377 2001.89 321.441C2007.83 321.212 2013.94 320.978 2020.04 320.726C2026.14 320.509 2032.31 320.182 2038.37 320.128C2050.54 319.896 2062.53 319.668 2073.55 319.458C2084.56 319.248 2095.96 319.006 2107.12 318.79C2112.7 318.682 2118.21 318.578 2123.6 318.458C2129 318.339 2134.25 318.243 2139.28 318.281C2159.42 318.288 2176.26 318.286 2184.83 318.289C2237.18 317.984 2270.15 319.197 2292.62 319.573C2315.06 320.078 2326.9 320.198 2336.49 320.58C2348.29 321.064 2370.77 322 2386.52 322.651C2394.35 322.986 2404.19 323.378 2413.7 323.78C2423.22 324.182 2432.42 324.506 2438.93 324.997C2447.7 325.535 2462.92 326.474 2481.56 327.637C2490.88 328.209 2501.04 328.841 2511.68 329.51C2517.02 329.844 2522.42 330.177 2527.94 330.522C2533.43 330.923 2538.97 331.431 2544.54 331.865C2566.76 333.713 2589.39 335.6 2609.38 337.274L2623.84 338.476C2628.46 338.835 2632.77 339.386 2636.92 339.78C2645.14 340.644 2652.32 341.401 2658.12 342.007C2669.18 343.167 2682.72 344.583 2695.61 345.93C2702.04 346.605 2708.35 347.265 2714.07 347.875C2719.83 348.446 2724.99 349.022 2729.18 349.595C2745.01 351.616 2761.07 353.646 2779.54 356.005C2788.79 357.176 2798.63 358.433 2809.36 359.804L2817.59 360.847C2820.36 361.237 2823.18 361.679 2826.05 362.1C2831.83 362.96 2837.81 363.867 2844.1 364.817C2860.24 367.26 2883.94 370.824 2896.79 372.769C2902.81 373.693 2908.65 374.533 2914.46 375.464C2920.23 376.415 2926 377.383 2931.99 378.38C2938.03 379.412 2944.52 380.518 2952.34 381.847L2961.83 383.497L2970.4 385.016C2972.09 385.335 2981.58 387.056 2991.48 388.871L3005.34 391.467C3006.2 391.4 3007.17 391.276 3008.09 391.117C3010.17 390.754 3012.46 390.582 3013.18 390.719C3013.89 390.856 3015.56 390.508 3016.91 389.919C3019.48 388.835 3020.85 387.648 3021.18 386.337C3018.26 385.754 3014.27 384.957 3013.45 384.788L3010.04 384.114L2999.81 382.113L2995.75 381.336L2991.92 380.623L2990.99 380.439L2985.44 379.39L2977.15 377.843C2975.36 377.51 2971.34 376.768 2968.24 376.192L2960.85 374.847L2956.13 373.985L2944.69 371.99C2936.79 370.663 2928.81 369.304 2920.9 367.978C2912.95 366.689 2905.06 365.543 2897.5 364.366C2882.32 362.053 2868.36 359.912 2857.05 358.201C2847.28 356.743 2834.36 354.692 2821.3 352.808C2808.09 351.111 2794.84 349.396 2784.7 348.095C2777.85 347.2 2767.34 345.84 2754.2 344.14C2747.62 343.29 2740.4 342.355 2732.65 341.348C2724.91 340.305 2716.42 339.559 2707.68 338.569C2672.42 334.91 2630.88 329.975 2590.13 326.925C2569.84 325.226 2549.97 323.548 2531.55 321.999C2512.96 320.817 2495.87 319.745 2481.28 318.818C2466.68 317.892 2454.58 317.129 2446.04 316.584C2437.48 316.039 2432.52 315.728 2432.16 315.741C2432.04 315.745 2416.33 315.056 2396.94 314.228C2377.54 313.4 2351.77 312.293 2339.53 311.77C2330.32 311.338 2314.6 311.157 2294.28 310.668C2284.1 310.452 2272.81 310.202 2260.58 309.932C2248.33 309.717 2235.19 309.226 2221.27 309.323C2193.45 309.282 2162.87 309.247 2131.33 309.211C2099.72 309.791 2067.2 310.404 2035.52 310.986C2015.02 311.66 1991.74 312.648 1969.65 313.486C1958.61 313.915 1947.82 314.333 1937.84 314.723C1932.87 314.882 1928.07 315.178 1923.54 315.448C1919 315.717 1914.73 315.959 1910.78 316.207C1932.93 314.645 1955.18 314.036 1977.38 313.049L2010.7 311.687C2021.82 311.256 2032.9 310.682 2044.03 310.558C2088.43 309.74 2132.93 308.324 2177.26 308.7C2266.07 308.076 2354.41 311.116 2442.23 315.221L2507.81 319.249L2524.19 320.256L2532.4 320.759C2535.13 320.951 2537.82 321.198 2540.55 321.409L2573.04 324.101L2605.55 326.794L2621.79 328.13C2627.21 328.571 2632.63 329.01 2637.97 329.615L2702.31 336.341L2718.38 338.027C2723.73 338.595 2729.14 339.108 2734.39 339.824L2766.15 343.861C2787.29 346.594 2808.58 349.143 2829.61 352.044L2892.21 361.485C2902.63 363.084 2913.1 364.59 2923.49 366.261C2933.82 367.953 2944.13 369.681 2954.43 371.464C2975.12 375.026 2995.7 378.737 3016.14 382.598C3016.63 381.931 3016.93 380.981 3016.62 380.414C3016.45 380.114 3012.84 379.177 3008.56 378.317C3003.66 377.336 3000.73 376.555 3000.6 376.198C3000.51 375.877 2998.48 375.263 2996.04 374.808C2993.64 374.351 2991.27 373.641 2990.81 373.206C2990.3 372.754 2989.03 372.384 2987.76 372.321C2986.56 372.255 2985.52 372.022 2985.43 371.826C2985.35 371.612 2982.8 371.016 2979.72 370.512C2976.65 370.008 2973.28 369.297 2972.22 368.9C2971.16 368.523 2969.81 368.318 2969.22 368.447C2968.59 368.596 2967.47 368.401 2966.49 367.985C2965.59 367.602 2963.71 367.253 2962.33 367.212C2960.54 367.166 2959.93 366.99 2960.22 366.636C2960.36 366.469 2960.1 366.28 2959.6 366.099L2959.19 365.951C2959.19 365.951 2959.19 365.933 2958.81 365.856L2957.65 365.627L2952.56 364.688C2945.47 363.441 2937.79 362.305 2935.71 362.325C2933.44 362.351 2930.96 361.861 2926.22 360.513C2921.14 359.086 2918.71 358.721 2914.75 358.537C2910.81 358.37 2909.12 358.105 2906.58 357.183C2904.09 356.279 2902.71 356.057 2899.92 356.084C2897.99 356.117 2893.68 355.584 2890.34 354.926C2887.01 354.268 2884.12 353.882 2883.99 354.104C2883.84 354.308 2877.37 353.526 2869.62 352.357C2861.83 351.208 2841.95 348.248 2825.26 346.041C2812.77 344.571 2792.72 342.123 2770.57 339.37C2759.5 337.994 2747.9 336.528 2736.42 335.094C2724.93 333.697 2713.39 332.644 2702.81 331.466L2668.12 327.877C2658.39 326.868 2647.1 325.698 2634.81 324.419C2622.41 323.397 2608.96 322.285 2595.14 321.151C2587.45 320.521 2580.09 319.916 2573.32 319.362C2570.68 319.13 2568.28 318.908 2566.23 318.728C2562.16 318.349 2559.61 318.06 2559.53 317.955C2559.38 317.744 2558.92 317.634 2558.48 317.721C2558.37 317.725 2556.95 317.649 2554.42 317.486C2551.91 317.305 2548.32 317.053 2543.96 316.738C2535.25 316 2523.1 315.492 2509.92 314.715C2483.54 313.231 2458.24 311.872 2453.68 311.673C2449.13 311.509 2438.88 310.917 2430.75 310.736C2422.62 310.555 2411.25 310.309 2405.4 310.173C2387.21 309.861 2375.17 309.603 2361.19 309.214C2353.74 309.046 2340.06 308.574 2330.67 308.492C2301.39 308.285 2282.76 308.152 2264.66 308.018L2244.58 307.864L2234.52 307.788L2224.42 307.911C2198.18 308.337 2121.55 307.987 2102.07 308.553C2094.81 308.593 2081.8 308.657 2073.13 308.694C2064.46 308.749 2052.05 308.829 2045.54 308.879C2034.92 308.787 2019.59 309.367 1962.26 311.131C1957.58 311.297 1948.35 311.606 1937.3 311.98C1931.76 312.122 1925.81 312.514 1919.72 312.839C1913.62 313.181 1907.38 313.529 1901.36 313.869C1877.26 315.194 1844.96 316.991 1829.54 317.845C1802.02 319.904 1779.8 321.578 1752.84 323.6C1746.07 324.129 1739.05 324.666 1731.56 325.258C1724.1 325.938 1716.19 326.76 1707.65 327.605C1690.62 329.31 1671.09 331.267 1647.91 333.588C1628.34 335.366 1608.81 338.045 1589.22 340.329C1569.68 342.701 1550.21 345.054 1531.33 347.331C1493.86 352.686 1458.48 357.608 1428.76 361.984C1422.95 362.93 1407.58 365.552 1394.62 367.818C1381.67 370.082 1370.12 371.937 1368.93 371.943C1367.73 371.967 1366.44 372.212 1366.04 372.533C1365.64 372.835 1364.36 373.243 1363.17 373.429C1362.01 373.632 1350.88 375.616 1338.45 377.845C1326.41 380.077 1305.33 383.967 1291.56 386.532C1257.73 392.517 1179.45 405.171 1096.09 414.358C1054.55 419.226 1011.74 423.02 973.342 426.206C963.721 426.909 954.36 427.584 945.369 428.246C936.38 428.891 927.725 429.559 919.51 429.995C903.081 430.938 888.404 431.893 876.133 432.437L875.24 432.468L866.614 432.901C862.263 433.073 850.473 433.546 835.82 434.138C821.12 434.462 805.118 434.83 789.675 435.18C774.225 435.367 759.335 435.607 746.723 435.982C724.932 435.906 710.628 435.855 700.944 435.82C691.259 435.783 686.153 435.694 682.656 435.801C675.918 435.913 662.072 436.134 645.943 436.092C637.896 436.017 629.252 435.926 620.683 435.833C612.076 435.741 603.507 435.666 595.602 435.387C582.624 434.909 570.168 434.466 558.496 434.032C546.855 433.434 535.997 432.88 526.035 432.385C516.074 431.927 507.152 431.34 499.349 430.805C491.546 430.288 484.901 429.856 479.563 429.503L479.564 429.539C474.934 429.198 470.046 428.938 464.778 428.457C456.036 427.721 443.149 426.643 436.164 426.06C422.981 425.065 411.909 423.726 395.16 421.937C389.776 421.351 379.236 420.281 371.828 419.352C364.422 418.478 354.923 417.352 350.733 416.851C348.674 416.563 341.687 415.926 332.334 414.742C322.982 413.575 311.123 412.1 299.003 410.599C286.918 409.06 276.057 407.387 268.047 406.263C264.08 405.682 260.822 405.201 258.538 404.849C256.253 404.497 254.98 404.29 254.904 404.256C254.638 404.103 254.153 404.102 253.787 404.259C253.603 404.338 251.137 404.101 247.431 403.564C245.559 403.288 243.35 402.969 240.916 402.622C234.775 401.685 228.071 400.658 221.068 399.571C170.881 391.674 128.26 382.896 124.473 382.182C86.8475 374.581 39.2467 362.964 18.6271 357.052L15.9572 356.334L14.7542 356.016L14.4528 355.918L13.2855 355.562L10.989 354.867C9.52096 354.432 8.24159 354.062 7.4899 353.872C6.05976 353.453 5.07413 352.965 5.2909 352.777C5.54492 352.587 5.05366 352.388 4.26928 352.325C3.44839 352.282 2.80327 351.944 2.82827 351.6C2.81035 351.095 2.54737 351.032 1.47768 351.323C0.407882 351.614 0.0699386 351.536 -0.173172 350.984C-0.41617 350.433 -0.903596 350.342 -2.53514 350.545C-4.09289 350.726 -4.61684 350.655 -4.59504 350.221C-4.54813 349.443 -9.69733 348.127 -10.458 348.732C-10.8928 349.072 -11.4931 348.949 -12.5943 348.356C-13.467 347.9 -15.0845 347.451 -16.2421 347.366C-17.5119 347.267 -18.4155 346.992 -18.5751 346.691C-18.6971 346.406 -19.7898 346.048 -21.0237 345.911C-22.2577 345.774 -25.3751 345.036 -27.9352 344.261C-30.532 343.504 -32.8997 342.902 -33.2685 343.005C-33.6745 343.11 -34.6146 342.855 -35.3739 342.448C-36.1717 342.007 -37.4838 341.765 -38.5241 341.838C-39.4893 341.926 -41.9635 341.472 -44.0344 340.842C-46.1052 340.211 -48.2414 339.836 -48.8321 339.983C-49.4966 340.151 -52.4241 339.515 -56.7145 338.259C-60.2175 337.155 -63.7472 336.342 -64.3392 336.453C-65.5231 336.676 -67.0277 337.307 -67.9013 337.879L-49.0646 343.927C-42.7733 345.943 -36.5544 348.015 -30.0456 349.86L-10.7003 355.547C-4.26401 357.449 2.17352 359.387 8.82654 361.101C110.32 388.462 221.043 408.292 336.127 420.89C317.578 418.75 291.747 416.02 263.45 412.095C249.16 410.327 234.441 408.015 219.388 405.751C204.265 403.597 189.309 400.879 174.397 398.393C144.792 393.251 116.625 387.715 93.5796 382.719C87.8 381.48 82.2493 380.395 77.2169 379.219C72.1844 378.044 67.49 376.947 63.2085 375.943C54.6084 373.937 47.6609 372.324 42.7786 371.18C31.2406 368.249 12.5615 363.496 1.24922 360.629L1.28713 360.646Z" fill="#FDB427"/>
<path d="M2593.74 370.571C2592.34 370.647 2592.35 371.119 2593.74 371.615C2594.27 371.798 2604.1 373.175 2620.92 375.452C2629.33 376.591 2639.53 377.938 2651.15 379.504L2669.65 381.973C2676.19 382.787 2682.85 383.991 2689.92 385.066C2704.02 387.276 2719.23 389.675 2735.35 392.186C2751.47 394.738 2768.55 397.204 2785.78 400.534C2803.1 403.685 2820.99 406.938 2839.17 410.243C2848.23 411.936 2857.51 413.485 2866.57 415.316C2875.67 417.145 2884.8 418.973 2893.94 420.822C2910.39 424.468 2926.8 428.234 2939.01 431.123C2945.09 432.579 2950.15 433.806 2953.66 434.659C2957.15 435.514 2959.11 436.033 2958.95 436.038C2958.39 436.091 2957.18 436.813 2956.31 437.643C2956.25 437.724 2954.41 437.398 2951.19 436.773L2937.37 434.043C2925.69 431.71 2909.37 428.454 2890.8 424.903C2880.89 422.938 2870.78 420.977 2860.52 419.021C2850.24 417.104 2839.72 415.351 2829.17 413.481C2808.03 409.761 2786.44 405.994 2764.63 402.154C2742.45 398.836 2720.02 395.465 2697.48 392.098C2691.83 391.261 2686.18 390.404 2680.54 389.567C2674.89 388.711 2669.25 387.854 2663.49 387.198L2629.08 382.901C2617.61 381.469 2606.18 380.035 2594.75 378.602C2589.02 377.886 2583.3 377.169 2577.63 376.451C2571.92 375.794 2566.13 375.256 2560.41 374.657C2537.45 372.325 2514.7 370.027 2492.27 367.76C2481.09 366.516 2469.82 365.729 2458.71 364.858C2447.58 363.988 2436.58 363.135 2425.68 362.278C2403.89 360.624 2382.71 358.718 2361.88 357.787C2341.14 356.638 2321.04 355.531 2301.75 354.461C2296.94 354.194 2292.17 353.925 2287.47 353.675C2282.74 353.444 2278.04 353.35 2273.41 353.177C2264.18 352.867 2255.15 352.573 2246.35 352.292C2228.8 351.709 2212.21 351.179 2196.78 350.658C2189.06 350.33 2181.62 350.308 2174.46 350.24C2167.3 350.172 2160.45 350.095 2153.94 350.03C2127.86 349.77 2106.96 349.55 2092.58 349.415C2085.4 349.388 2079.77 349.555 2075.97 349.576L2071.62 349.651L2070.05 349.692C2067.8 350.027 2066.8 350.427 2067.92 350.536C2068.14 350.55 2070.3 350.573 2074.32 350.565C2078.31 350.578 2084.12 350.504 2091.53 350.566C2106.36 350.827 2127.75 351.211 2154.35 351.693C2160.98 351.815 2167.99 351.926 2175.25 352.051L2186.39 352.251C2190.2 352.348 2194.03 352.543 2197.95 352.677C2213.65 353.289 2230.46 353.95 2248.24 354.646C2283.88 355.659 2323.02 358.493 2364.75 360.983C2531.58 371.809 2734.33 398.754 2886.31 430.755C2902.52 434.387 2916.54 437.683 2926.51 440.061L2938.16 442.887C2940.86 443.565 2942.32 443.96 2942.32 443.96C2941.1 445.431 2929.93 442.493 2922.64 444.438C2922.27 444.527 2921.89 444.339 2921.53 444.565C2920.98 444.895 2920.3 444.755 2918.75 444.008C2917.1 443.204 2916.43 443.103 2915.24 443.45C2914.21 443.753 2913.16 443.642 2911.62 443.073C2908.76 442.005 2900.63 440.248 2900.34 440.631C2900.2 440.791 2898.14 440.432 2895.74 439.825C2892.59 439.021 2889.78 438.346 2887.34 437.78L2883.94 437.003L2882.44 436.667L2878.24 435.813C2862.44 432.662 2853.54 431.103 2852.05 431.102C2849.85 431.102 2848.13 430.693 2845.91 429.787C2843.91 428.953 2841.66 428.479 2839.73 428.471C2835.74 428.438 2819.43 425.38 2818.13 424.449C2817.61 424.049 2815.5 423.434 2813.45 423.074C2811.43 422.714 2810.49 422.916 2811.45 423.482C2812.92 424.388 2810.46 424.039 2795.29 421.187C2785.41 419.339 2777.3 418.015 2777.16 418.235C2777.01 418.456 2774.87 418.059 2772.36 417.297C2769.89 416.555 2766.85 415.905 2765.54 415.842C2764.28 415.777 2761.39 415.222 2759.14 414.63C2755.02 413.518 2731.04 409.754 2679.41 401.654C2664.44 399.151 2649.95 397.305 2647.65 396.794C2645.37 396.323 2642.38 395.988 2641.15 396.059C2639.89 396.131 2633.47 395.355 2626.81 394.328C2615.11 392.508 2605.06 391.294 2588.07 389.633C2583.55 389.2 2578.99 388.511 2577.86 388.107C2577.3 387.945 2573.82 387.288 2568.55 386.658C2563.28 386.028 2556.26 385.267 2548.86 384.495C2534.83 383.052 2520.45 381.558 2517.05 381.214C2516.27 381.136 2515.15 381.028 2514.54 381.004C2513.58 380.95 2507.23 380.27 2502.41 379.707C2498.34 379.262 2477.24 376.96 2473.96 376.771C2472.12 376.622 2468.02 376.316 2464.81 376.045C2460.11 375.657 2448.53 374.739 2437.34 373.832C2436.41 373.757 2431.52 373.492 2426.42 373.252C2421.31 373.011 2416.68 372.759 2416.12 372.694L2413.65 372.405C2412.87 372.308 2406.2 371.912 2398.81 371.514C2391.43 371.156 2381.46 370.473 2376.58 370.325C2371.73 370.137 2360.93 369.712 2352.61 369.379C2342.77 369.006 2325.06 368.211 2306.56 367.357C2297.31 366.97 2287.88 366.39 2279.08 366.149C2270.28 365.907 2262.17 365.686 2255.6 365.504C2244.27 365.172 2225.49 364.739 2213.91 364.531C2209.99 364.476 2203.95 364.319 2196.39 364.104C2192.63 364.026 2188.49 363.819 2183.98 363.78L2169.71 363.662C2149.67 363.42 2125.86 363.159 2103.07 362.891C2097.37 362.844 2091.73 362.677 2086.23 362.722C2080.72 362.769 2075.36 362.811 2070.18 362.848C2059.82 362.904 2050.33 362.956 2042.29 363.01C2034.21 363.025 2027.57 363.022 2022.96 363.045L2017.6 363.008C2016.37 362.981 2015.7 362.96 2015.73 362.92L2010.03 362.872C2006.5 362.866 2001.65 362.856 1996.29 362.839C1985.6 362.864 1971.35 363.258 1964.61 363.316C1954.44 363.445 1930.1 363.986 1899.61 364.709C1869.19 365.882 1832.67 367.806 1798.08 369.444C1772.39 371.242 1738.63 373.625 1723.13 374.703C1713.24 375.435 1704.06 375.913 1695.51 376.709C1686.96 377.504 1678.97 378.246 1671.33 378.939C1656.02 380.385 1642.12 381.696 1628.05 383.011C1620.98 383.69 1613.93 384.367 1606.57 385.073C1599.25 385.816 1591.76 386.82 1583.77 387.759C1567.85 389.715 1550.18 391.873 1529.16 394.454L1507.19 397.158C1499.66 398.243 1492.01 399.35 1484.71 400.409C1470.06 402.488 1456.73 404.394 1448.23 405.602C1440.88 406.623 1433.58 407.662 1426.35 408.659C1419.07 409.679 1411.87 410.675 1404.79 411.925C1390.62 414.345 1376.58 416.763 1362.6 419.16C1348.67 421.634 1334.72 424.088 1320.79 426.562C1306.29 429.287 1291.76 432.013 1277.13 434.762C1264.19 437.15 1253.07 439.038 1243.7 440.722C1234.31 442.368 1226.67 443.731 1220.6 444.658C1208.43 446.613 1202.64 447.474 1202.11 447.448C1201.86 447.455 1201.3 447.509 1200.89 447.638C1200.16 447.776 1188.88 449.747 1173.46 451.984L1148.07 455.626L1134.63 457.535C1130.15 458.106 1125.73 458.674 1121.5 459.219C1099.6 462.001 1087.24 463.744 1086.62 464.135C1085.92 464.547 1085.37 464.601 1084.88 464.299C1084.5 464.091 1078.78 464.577 1061.43 466.412C1052.78 467.289 1041.23 468.695 1025.92 470.102C1010.62 471.568 991.678 473.583 968.116 475.482C955.705 476.537 947.715 477.2 942.808 477.526C937.899 477.812 936.074 477.782 936.03 477.566C935.945 477.134 935.759 477.159 935.287 477.645C935.034 477.907 932.361 478.233 924.781 478.886C917.199 479.479 904.714 480.575 884.858 481.766C870.727 482.59 858.642 483.283 847.412 483.932C836.178 484.463 825.798 484.855 815.083 485.274L798.601 485.883C792.907 486.053 787.025 486.149 780.698 486.295C774.408 486.421 767.745 486.537 760.523 486.687C753.302 486.837 745.559 486.962 737.143 486.966C729.323 487.014 713.347 487.099 701.618 487.17C689.887 487.163 675.134 486.96 668.8 486.87C662.466 486.76 648.087 486.646 636.906 486.348C623.678 486.045 612.461 485.808 602.698 485.572C592.931 485.199 584.616 484.846 577.233 484.507C570.708 484.186 558.368 483.742 549.902 483.275C529.127 482.107 514.656 481.305 504.509 480.625C490.744 479.824 479.815 479.146 473.733 478.695C461.684 477.948 442.275 476.311 430.52 475.418C403.211 473.613 350.517 468.062 330.523 465.455C326.264 464.937 321.407 464.355 316.96 463.802C312.549 463.189 308.625 462.642 306.158 462.294C301.261 461.594 291.167 460.126 283.689 459.042L268.662 456.875L266.047 456.609C265.45 456.546 260.849 455.78 255.798 454.908C250.747 454.036 245.847 453.219 244.913 453.086C233.513 451.514 221.701 449.874 216.95 449.053C213.696 448.528 209.582 447.868 207.713 447.582C204.457 447.017 182.842 443.625 178.691 442.985C173.754 442.17 167.355 441.037 166.419 440.826C165.858 440.703 164.734 440.475 163.949 440.339C160.543 439.7 145.989 437.166 131.916 434.541C117.128 431.601 103.843 429.152 102.427 429.129C101.011 429.108 96.2596 428.267 91.9126 427.239C75.5687 423.196 65.7501 420.873 53.698 418.589C46.8119 417.312 40.5889 415.762 39.6818 415.254C38.7751 414.765 35.9254 414.033 33.4573 413.644C30.9513 413.237 16.6383 409.949 1.64668 406.344C-23.5569 399.618 -42.2646 394.908 -54.6143 391.214L-69.3212 387.109L-73.7469 385.925L-75.2464 385.55C-75.6212 385.461 -75.508 385.518 -75.6574 385.502C-76.3645 385.52 -77.0019 385.359 -77.1187 385.166C-77.236 384.952 -77.9834 384.854 -78.8379 384.936C-79.6923 385.017 -80.1792 384.911 -79.9617 384.688C-79.7435 384.486 -81.3237 383.877 -83.5722 383.345C-86.9103 382.448 -87.3259 382.223 -86.3314 381.803C-85.705 381.549 -85.4905 381.21 -85.9406 381.083C-86.3541 380.937 -87.0602 380.994 -87.5022 381.183C-88.5329 381.644 -92.0964 380.673 -92.2287 379.889C-92.2757 379.516 -92.8371 379.412 -93.7618 379.654C-94.7978 379.917 -95.2097 379.829 -95.2222 379.357C-95.2382 378.746 -102.111 376.543 -115.165 372.966C-117.642 372.282 -119.522 371.602 -119.339 371.46C-119.12 371.296 -121.001 370.578 -123.367 369.832C-125.733 369.067 -128.475 368.213 -130.234 367.885C-132.105 367.52 -132.897 367.108 -133.026 366.481C-133.157 365.775 -133.722 365.514 -136.038 365.22C-138.169 364.941 -138.808 364.702 -138.595 364.283C-138.455 363.983 -139.015 363.919 -139.057 363.704C-140.176 359.399 -151.476 355.992 -149.723 354.665C-149.723 354.665 -149.086 354.826 -147.922 355.189C-146.758 355.553 -145.068 356.08 -142.928 356.752C-138.646 358.118 -132.45 360.063 -125.014 362.429C-117.65 364.875 -108.572 367.355 -98.9258 370.214C-94.0844 371.624 -89.0556 373.087 -83.9139 374.588C-81.362 375.329 -78.7351 376.087 -76.1454 376.846C-73.4824 377.565 -70.7826 378.261 -68.0823 378.979C-13.6546 395.201 44.2568 409.362 100.643 420.765C114.83 423.485 128.757 426.291 142.529 428.825C156.409 431.238 170.065 433.598 183.346 435.89C196.808 437.959 209.896 439.98 222.61 441.931C228.931 442.947 235.282 443.745 241.487 444.587C247.691 445.429 253.783 446.234 259.8 447.042C265.78 447.83 271.649 448.66 277.402 449.356C283.193 450.032 288.87 450.69 294.399 451.334C305.456 452.58 315.918 453.901 325.925 454.898L353.966 457.649C358.298 458.067 362.48 458.47 366.475 458.877C370.47 459.245 374.313 459.518 377.971 459.816C392.563 460.969 404.169 461.905 412.157 462.543C420.179 463.12 424.69 463.317 425.063 463.327C426.217 463.277 425.385 462.846 423.213 462.351C423.138 462.353 422.055 462.244 420.003 462.081C417.95 461.918 414.965 461.721 411.119 461.349C403.392 460.645 392.155 459.64 377.896 458.36C370.766 457.759 362.924 456.941 354.445 456.021C345.93 455.122 336.781 454.14 326.958 453.098C317.174 452.055 306.895 450.67 296.023 449.36C290.605 448.695 285.001 447.994 279.322 447.296C273.605 446.6 267.883 445.706 261.978 444.896C250.202 443.176 237.87 441.57 225.304 439.575C212.775 437.559 199.796 435.457 186.519 433.324C173.385 430.95 159.913 428.506 146.143 426.012C132.445 423.436 118.7 420.527 104.622 417.705C48.7119 405.993 -8.91161 391.452 -63.315 374.736C-66.0934 373.884 -68.8717 373.03 -71.6128 372.177C-74.3177 371.282 -76.9855 370.387 -79.6159 369.491C-84.9136 367.719 -90.0992 365.964 -95.0966 364.283C-100.094 362.601 -104.904 360.974 -109.488 359.44C-113.998 357.864 -118.136 356.279 -122.01 354.863C-129.683 351.992 -136.001 349.616 -140.44 347.94C-144.843 346.243 -147.289 345.244 -147.18 345.142C-146.271 344.311 -145.735 343.43 -145.966 343.141C-145.967 343.101 -145.255 343.319 -143.789 343.773C-142.363 344.228 -140.26 344.902 -137.593 345.757C-132.334 347.471 -124.859 349.915 -116.257 352.723C-107.763 355.612 -97.706 358.52 -87.6833 361.527C-77.5877 364.473 -67.6342 367.679 -58.1103 370.127C-46.8894 373.379 -35.9689 376.54 -25.4608 379.593C-14.7352 382.424 -4.45914 385.148 5.3289 387.728C10.241 388.998 14.9313 390.333 19.6528 391.431L33.3319 394.695C42.1767 396.808 50.384 398.759 57.8419 400.534C73.0129 403.878 85.3704 406.45 93.9846 408.292C102.562 410.155 107.612 411.007 108.059 411.015C109.773 411.029 110.284 410.641 109.266 410.156C108.441 409.961 89.9305 405.66 59.8417 398.688C52.4185 396.814 44.3207 394.782 35.5851 392.568C26.85 390.375 17.4786 388.059 7.87254 385.317C-1.80592 382.655 -11.9729 379.83 -22.5889 376.917C-32.9502 373.781 -43.7612 370.539 -54.8353 367.205C-63.9209 364.429 -73.3988 360.896 -83.056 357.623C-92.6405 354.289 -102.221 351.093 -110.237 347.935C-118.363 344.839 -125.397 342.167 -130.363 340.268C-135.33 338.35 -138.189 337.203 -137.967 337.158C-137.188 337.039 -136.528 336.667 -136.461 336.35C-136.368 335.658 -131.942 334.025 -131.04 334.356C-130.701 334.485 -129.177 334.386 -127.655 334.169C-126.134 333.951 -124.757 333.935 -124.564 334.166C-124.373 334.398 -123.629 334.339 -122.892 334.044C-122.634 333.938 -122.227 333.829 -121.746 333.738L-117.499 335.202C-116.86 335.422 -115.468 335.917 -114.379 336.302L-104.944 339.581C-104.644 339.691 -102.989 340.278 -101.26 340.883C-99.5313 341.487 -97.9899 342.038 -97.7645 342.111L-96.9003 342.403L-91.8259 344.181C-89.2714 345.02 -85.7786 346.13 -84.0884 346.677C-82.3981 347.223 -78.6796 348.426 -75.7869 349.374C-72.3692 350.467 -66.2093 352.452 -59.7491 354.528C-56.5195 355.547 -53.2873 356.664 -50.0985 357.545C-42.1791 359.879 -34.8598 362.05 -28.9671 363.787C-24.3879 365.144 -19.0958 366.699 -13.428 368.382C-7.61444 369.944 -1.42557 371.614 4.7638 373.303C17.1787 376.641 29.559 380.078 39.376 382.342C45.5984 383.873 55.0065 386.168 66.7015 389.032C78.5049 391.775 92.8498 394.866 108.584 398.373C120.792 400.948 134.23 403.551 148.497 406.466C162.835 409.301 178.323 411.948 194.415 414.933C202.498 416.376 210.911 417.652 219.402 419.064C227.929 420.416 236.535 421.943 245.432 423.226L272.536 427.144C277.134 427.812 281.732 428.459 286.368 429.125C291.039 429.712 295.747 430.317 300.492 430.902C309.945 432.091 319.511 433.298 329.115 434.524C338.826 435.589 348.574 436.652 358.397 437.734C363.29 438.275 368.22 438.815 373.15 439.336C378.08 439.876 383.081 440.277 388.047 440.757C398.015 441.678 407.983 442.597 417.951 443.518C457.997 446.761 498.181 449.587 537.029 451.167C614.624 454.704 686.283 454.91 738.323 453.957C744.839 453.904 751.018 453.761 756.898 453.607C762.779 453.452 768.324 453.307 773.497 453.171C783.842 452.879 792.814 452.742 800.106 452.412C814.727 451.831 822.837 451.52 822.837 451.52C828.454 451.274 834.667 451.013 841.512 450.714C848.355 450.338 855.829 449.905 863.936 449.456L890.338 447.935C899.781 447.273 909.93 446.573 920.784 445.815C1030.55 437.771 1136.11 425.621 1245.32 407.681C1261.26 405.253 1285.66 400.692 1313.06 396.111C1340.46 391.491 1370.34 386.47 1396.03 382.15C1415.7 379.211 1433.92 376.665 1450.88 374.19C1467.86 371.773 1483.6 369.41 1498.59 367.4C1528.74 363.772 1555.58 360.565 1582.05 357.367C1595.22 355.643 1608.56 354.583 1622.05 353.224C1635.57 351.923 1649.39 350.575 1663.88 349.17C1692.73 346.049 1724.6 344.108 1761.99 341.235C1769.35 340.687 1778.83 339.985 1789.72 339.167C1800.62 338.506 1812.92 337.927 1825.83 337.233C1838.74 336.56 1852.24 335.87 1865.55 335.166C1878.87 334.501 1892.03 333.663 1904.28 333.439C1920.64 332.951 1937.29 332.454 1953.87 331.96L1978.78 331.207C1982.91 331.098 1987.04 330.951 1991.17 330.823C1995.3 330.792 1999.39 330.745 2003.49 330.715C2036.21 330.486 2067.94 330.027 2096.76 329.999C2125.56 330.365 2151.45 330.69 2172.58 330.963C2193.69 331.058 2209.91 331.933 2219.49 332.213C2232.21 332.667 2259.09 333.616 2279.25 334.327C2289.36 334.594 2298.42 335.184 2305.02 335.562C2311.62 335.94 2315.72 336.187 2315.76 336.186C2316.5 336.225 2336.46 337.376 2366.89 339.118C2374.5 339.568 2382.78 339.981 2391.56 340.578C2400.29 341.275 2409.5 342.018 2419.13 342.789C2438.35 344.333 2459.14 345.993 2480.34 347.683C2485.64 348.055 2490.95 348.586 2496.21 349.157L2512.07 350.808C2522.65 351.91 2533.21 352.992 2543.63 354.078C2564.4 356.29 2584.67 358.122 2602.83 360.639C2639.31 365.316 2669.05 369.007 2683.36 370.956C2704.35 374.147 2738.3 379.284 2758.82 382.389C2764.72 383.318 2771.42 384.226 2778.49 385.438C2785.52 386.692 2793.08 388.03 2800.93 389.419C2816.66 392.198 2833.56 395.201 2850.11 398.156C2858.38 399.652 2866.6 401.012 2874.43 402.54C2882.26 404.068 2889.78 405.546 2896.81 406.917L2909.96 409.566L2919.24 411.45L2927.85 413.213L2933.62 414.421L2934.59 414.632L2938.56 415.474L2942.79 416.367C2947.14 417.297 2951.6 418.283 2953.43 418.688L2957 419.461L2961.75 420.519C2961.83 420.772 2961.91 421.007 2961.88 421.165C2961.78 421.641 2962.12 422.006 2962.6 421.954C2963.09 421.922 2963.85 422.513 2964.28 423.309C2964.71 424.085 2965.4 424.796 2965.77 424.885C2966.79 425.114 2966.45 427.901 2965.38 428.303C2964.86 428.494 2964.62 428.974 2964.85 429.381C2964.89 429.479 2962.84 429.119 2959.16 428.408L2943.93 425.479C2931.27 423.033 2914.36 419.793 2897.4 416.712C2888.16 414.946 2878.95 413.158 2869.75 411.391C2860.57 409.603 2851.23 408.134 2842.06 406.504C2823.69 403.321 2805.62 400.211 2788.15 397.182C2770.78 393.994 2753.51 391.65 2737.25 389.24C2720.99 386.85 2705.58 384.595 2691.37 382.506C2684.24 381.511 2677.51 380.369 2670.9 379.636L2652.21 377.368C2640.48 375.963 2630.17 374.736 2621.69 373.698C2604.65 371.683 2594.68 370.546 2594.05 370.583L2593.74 370.571ZM1586.26 370.515C1566.94 373.367 1549.67 375.672 1533.24 377.739C1516.79 379.845 1501.01 381.482 1484.95 383.873C1468.8 386.13 1452.15 388.478 1433.55 391.075C1424.28 392.421 1414.52 393.82 1404.14 395.413C1393.86 397.219 1383.01 399.16 1371.32 401.298C1347.98 405.576 1326.29 409.298 1305.56 412.798C1284.65 416.381 1265 419.773 1245.97 422.499L1218.11 426.639C1208.94 427.885 1199.96 429.105 1191.1 430.323C1173.4 432.857 1156.02 434.967 1138.81 437.35C1069.81 446.708 1011.25 451.556 977.848 454.639C961.721 456.009 947.636 457.186 935.448 458.215C923.219 459.108 912.922 459.851 904.373 460.47C887.312 461.784 877.195 462.228 872.995 462.555C868.793 462.822 870.43 462.76 876.753 462.437L889.584 461.764L908.507 460.519L932.636 458.9C941.447 458.333 950.922 457.475 961.031 456.716C971.103 455.88 981.772 455.167 992.805 454.108C1003.84 453.09 1015.28 452.041 1027.02 450.964C1073.87 446.385 1124.81 440.594 1170.42 434.629C1182.71 433.006 1194.32 431.341 1205.49 429.807C1211.06 429.01 1216.55 428.295 1221.89 427.485C1227.23 426.675 1232.43 425.868 1237.58 425.083C1247.86 423.473 1257.76 421.933 1267.44 420.418C1277.05 418.766 1286.46 417.16 1295.73 415.577C1314.08 412.455 1332.02 409.383 1350.56 406.217C1368.99 403.035 1388.05 399.736 1408.69 396.16C1450.4 389.844 1465.38 387.658 1475.39 386.213L1489.43 384.229C1494.66 383.5 1501.37 382.418 1512.43 381.123C1564.41 374.675 1586.34 370.494 1586.34 370.494L1586.26 370.515Z" fill="#FDB427"/>
</g>
<mask id="mask1_717_302" style="mask-type:alpha" maskUnits="userSpaceOnUse" x="0" y="-101" width="1440" height="481">
<path d="M1440 -101H0V379.804H1440V-101Z" fill="#FACF29"/>
</mask>
<g mask="url(#mask1_717_302)">
<path fill-rule="evenodd" clip-rule="evenodd" d="M-641.402 -205.79C-651.619 -204.39 -666.515 -202.008 -680.569 -199.431C-694.646 -196.876 -707.861 -194.106 -715.147 -192.493C-721.336 -191.173 -729.251 -189.327 -732.824 -188.505C-738.26 -187.204 -743.697 -185.912 -749.088 -184.54C-754.483 -183.202 -759.304 -181.891 -759.901 -181.751C-760.48 -181.592 -761.296 -181.368 -761.706 -181.255C-762.125 -181.143 -765.456 -180.245 -769.129 -179.254C-772.793 -178.237 -776.315 -177.258 -776.981 -177.074C-785.047 -174.753 -793.372 -172.207 -796.776 -171.128C-799.1 -170.39 -802.067 -169.448 -803.393 -169.028C-804.213 -168.758 -806.583 -167.978 -809.463 -167.032C-810.935 -166.533 -812.539 -165.992 -814.138 -165.449C-815.924 -164.825 -817.711 -164.202 -819.342 -163.629C-819.246 -162.047 -818.376 -160.675 -816.799 -159.491C-816.006 -158.899 -815.04 -158.353 -813.906 -157.849C-812.776 -157.343 -811.413 -156.902 -810.155 -156.4C-807.33 -155.39 -804.063 -154.894 -802.696 -155.342C-801.338 -155.789 -796.917 -155.769 -792.966 -155.263C-791.212 -155.039 -789.398 -154.908 -787.762 -154.856C-781.529 -156.772 -772.31 -159.5 -761.861 -162.343C-748.732 -165.938 -735.458 -169.253 -722.015 -172.323C-718.756 -173.052 -711.374 -174.699 -705.537 -175.901C-702.638 -176.527 -699.111 -177.219 -695.794 -177.879C-692.481 -178.547 -689.355 -179.151 -687.227 -179.538C-674.03 -182.044 -665.135 -183.462 -654.79 -185.119C-652.029 -185.528 -648.092 -186.112 -643.977 -186.723C-639.862 -187.333 -635.514 -187.874 -632.024 -188.354C-629.294 -188.733 -626.669 -189.046 -624.149 -189.342C-622.363 -189.555 -620.613 -189.763 -618.9 -189.967C-615.801 -190.353 -612.73 -190.666 -609.727 -190.973C-606.719 -191.281 -603.775 -191.582 -600.891 -191.877C-597.988 -192.13 -595.14 -192.378 -592.346 -192.623C-586.773 -193.147 -581.332 -193.466 -576.101 -193.846C-555.102 -195.212 -536.61 -195.657 -518.296 -195.472C-513.442 -195.49 -507.487 -195.264 -500.911 -195.087C-497.625 -195.026 -494.171 -194.796 -490.621 -194.63C-487.067 -194.423 -483.412 -194.319 -479.712 -194.004C-464.906 -193.059 -449.403 -191.315 -436.805 -189.618C-434.06 -189.261 -430.56 -188.66 -426.416 -188.004C-424.347 -187.664 -422.12 -187.299 -419.749 -186.91C-417.402 -186.456 -414.916 -185.975 -412.306 -185.469H-412.299C-412.299 -185.469 -411.683 -185.348 -411.336 -185.279C-404.838 -184.097 -397.726 -182.405 -389.943 -180.612C-386.069 -179.682 -382.106 -178.573 -377.962 -177.49C-375.905 -176.922 -373.763 -176.417 -371.676 -175.765C-369.577 -175.13 -367.444 -174.485 -365.275 -173.829C-347.634 -168.511 -326.138 -160.786 -303.947 -149.945C-298.273 -147.329 -292.907 -144.286 -287.229 -141.271C-284.349 -139.785 -281.695 -138.12 -278.919 -136.486C-276.166 -134.838 -273.379 -133.17 -270.556 -131.48C-259.756 -124.469 -248.735 -116.948 -238.673 -108.61C-236.154 -106.529 -233.481 -104.479 -231.044 -102.319C-228.629 -100.151 -226.195 -97.9653 -223.744 -95.7641C-222.524 -94.6625 -221.301 -93.5557 -220.071 -92.4459C-218.927 -91.3094 -217.78 -90.1688 -216.627 -89.024C-214.331 -86.7336 -212.018 -84.4278 -209.692 -82.1086C-207.394 -79.7812 -205.34 -77.3687 -203.139 -74.9808C-201.012 -72.5744 -198.709 -70.1958 -196.704 -67.73C-194.698 -65.2651 -192.681 -62.7879 -190.656 -60.3005C-189.647 -59.0564 -188.635 -57.8102 -187.621 -56.5607C-186.644 -55.3044 -185.75 -54.0261 -184.809 -52.7564C-169.626 -32.4551 -157.31 -10.9383 -147.515 10.7086C-137.703 32.3606 -130.377 54.1451 -124.741 75.1623C-123.449 80.4213 -122.169 85.6299 -120.906 90.7769C-119.673 95.924 -118.786 101.021 -117.733 106.037C-116.769 110.926 -115.819 115.745 -114.886 120.482C-114.465 122.789 -113.974 125.062 -113.468 127.309C-112.96 129.557 -112.512 131.795 -111.97 133.989C-109.878 142.785 -107.459 151.13 -104.915 158.97C-102.248 166.776 -99.4407 174.07 -96.4436 180.725C-90.3933 194.013 -83.8076 204.783 -77.8594 212.516C-74.1783 217.429 -70.1973 221.871 -66.2241 225.952C-62.167 229.978 -57.9865 233.539 -53.8602 236.699C-45.4492 242.88 -37.1901 247.319 -29.8524 250.22C-20.975 253.932 -8.62743 257.242 4.71754 258.754C11.3595 259.55 18.2422 259.854 24.7259 259.916C27.9538 259.99 31.1371 259.868 34.1078 259.828C37.1147 259.681 39.919 259.612 42.5236 259.416C52.9095 258.76 62.9311 257.515 70.554 256.393C78.1851 255.262 83.4238 254.256 84.4067 254.114C86.3881 253.741 88.7472 253.264 89.6837 253.054C90.6265 252.843 92.8421 252.42 94.6836 252.053C95.6889 251.851 101.024 250.786 108.848 249.018C116.667 247.228 126.964 244.69 137.867 241.715C148.78 238.737 160.62 235.227 170.906 232.019C181.196 228.822 189.926 225.917 194.714 224.337C243.212 208.242 299.449 186.502 359.507 163.313C419.605 140.159 483.767 115.629 548.99 94.7054C587.829 82.2255 621.519 72.763 651.713 65.4363C681.903 58.0943 708.584 52.8833 733.52 48.923C758.492 45.0315 781.755 42.3943 805.474 40.9112C817.323 40.1357 829.307 39.7347 841.652 39.6393C854.001 39.5489 866.738 39.789 880.081 40.5983C894.969 41.4054 918.063 43.4899 942.415 47.9344C954.605 50.0995 967.046 52.9081 978.944 56.0817C980.434 56.4765 981.92 56.8703 983.401 57.2634C984.873 57.6635 986.313 58.1045 987.766 58.522C990.615 59.3526 993.435 60.1773 996.229 60.9918C1001.41 62.4874 1006.46 63.9461 1011.3 65.3439C1030.89 70.6296 1052.32 75.5561 1071.18 78.7247C1072.35 78.941 1073.51 79.1544 1074.65 79.3658C1075.81 79.5432 1076.96 79.7185 1078.09 79.8918C1080.35 80.2357 1082.56 80.571 1084.69 80.8961C1088.98 81.5207 1092.95 82.2192 1096.66 82.6603C1104.08 83.56 1110.11 84.2934 1114.19 84.7888C1139.18 87.433 1159.91 88.2148 1177.01 88.5922C1185.58 88.6127 1193.24 88.8096 1200.13 88.5768C1207.02 88.4169 1213.14 88.3953 1218.59 88.071C1224.06 87.8167 1228.88 87.593 1233.17 87.3941C1237.46 87.0883 1241.23 86.8206 1244.62 86.5797C1248 86.3222 1251 86.1662 1253.73 85.8956C1256.45 85.6351 1258.92 85.398 1261.25 85.1744C1264.12 84.9016 1267.64 84.5671 1271.54 84.196C1275.42 83.7322 1279.69 83.2224 1284.07 82.6992C1286.27 82.4389 1288.49 82.1741 1290.71 81.9095C1292.91 81.5958 1295.12 81.2817 1297.28 80.974C1301.61 80.3565 1305.8 79.7605 1309.57 79.222C1324.6 76.8435 1347.07 72.8698 1359.34 70.0931C1361.41 69.6572 1363.86 69.1423 1366.66 68.5554C1369.42 67.9166 1372.52 67.1996 1375.9 66.417C1379.27 65.6199 1382.97 64.8168 1386.86 63.8486C1390.73 62.8719 1394.85 61.8349 1399.17 60.7477C1416.38 56.296 1436.53 50.6443 1456.55 44.2406C1476.57 37.8413 1496.51 30.7903 1513.85 24.2471C1518.17 22.5946 1522.35 20.9966 1526.34 19.4683C1530.29 17.8917 1534.06 16.387 1537.6 14.9704C1544.74 12.1744 1550.79 9.54119 1555.76 7.5062C1565.17 3.5388 1576.57 -1.43003 1587.28 -6.29799C1597.98 -11.1651 1608.05 -15.8967 1614.95 -19.2508C1628.02 -25.5149 1641.04 -32.0592 1655.82 -39.7715C1670.59 -47.4892 1687.09 -56.3976 1706.69 -67.6777C1719.29 -74.8649 1737.38 -85.7458 1746.99 -91.732C1756.09 -97.3427 1764.39 -102.657 1773.32 -108.412C1775.53 -109.863 1777.79 -111.34 1780.1 -112.856C1781.81 -113.981 1783.56 -115.135 1785.36 -116.329C1787.25 -117.587 1789.26 -118.927 1791.45 -120.391C1794.24 -122.288 1799.68 -125.989 1803.56 -128.622C1807.41 -131.266 1812.3 -134.66 1814.44 -136.171C1823.34 -142.376 1832.12 -148.651 1840.73 -154.999C1847.58 -160.049 1853.57 -164.595 1857.55 -167.678C1857.75 -168.624 1857.84 -169.688 1857.77 -170.734C1857.6 -173.096 1858.08 -175.553 1858.89 -176.197C1859.71 -176.846 1859.25 -178.75 1857.82 -180.438C1856.48 -182.019 1854.9 -183.323 1853.03 -184.295C1851.18 -185.282 1849.26 -186.117 1847.11 -186.695C1845.49 -185.437 1843.56 -183.95 1841.92 -182.687C1840.21 -181.391 1838.8 -180.326 1838.32 -179.958C1837.51 -179.354 1835.7 -178.003 1834.29 -176.945C1832.22 -175.391 1827.03 -171.587 1821.95 -167.935C1821.54 -167.635 1819.34 -166.038 1817.06 -164.378C1814.76 -162.726 1812.67 -161.229 1812.4 -161.04L1811.24 -160.239C1810.87 -159.977 1807.81 -157.819 1804.42 -155.434C1801.01 -153.066 1796.38 -149.858 1794.14 -148.307C1791.89 -146.758 1786.85 -143.339 1782.93 -140.719C1780.6 -139.176 1777.32 -137.016 1773.54 -134.515C1768.62 -131.322 1763.03 -127.696 1757.32 -123.988C1734.41 -109.112 1709.55 -94.1814 1692.38 -84.3631C1688.67 -82.2337 1684.37 -79.7484 1679.68 -77.1461C1677.35 -75.8383 1674.94 -74.4864 1672.49 -73.1119C1670.01 -71.756 1667.5 -70.3783 1664.98 -68.9997C1654.91 -63.4762 1644.64 -58.0634 1636.74 -53.979C1626.02 -48.4503 1603.79 -37.1437 1575.45 -24.2637C1561.24 -17.8723 1545.6 -11 1529.1 -4.33263C1512.6 2.33758 1495.36 8.93816 1478.2 15.0116C1461 21.0336 1443.94 26.6094 1427.92 31.4078C1411.86 36.1373 1396.95 40.267 1384.07 43.416C1380.85 44.2151 1377.77 44.9781 1374.85 45.7044C1371.92 46.4194 1369.11 47.0205 1366.49 47.6275C1361.23 48.7949 1356.68 49.9242 1352.86 50.6648C1345.23 52.2394 1340.78 53.1584 1340.45 53.2272C1340.42 53.2323 1339.53 53.4147 1337.94 53.741C1336.33 54.0343 1334.03 54.458 1331.18 54.9791C1328.34 55.502 1324.96 56.1247 1321.21 56.8149C1317.45 57.4694 1313.3 58.1034 1308.95 58.8184C1306.78 59.171 1304.52 59.5385 1302.2 59.9147C1299.87 60.2378 1297.48 60.5692 1295.07 60.9025C1292.67 61.237 1290.25 61.5743 1287.84 61.9108C1286.63 62.079 1285.44 62.2473 1284.24 62.4135C1283.04 62.553 1281.85 62.6906 1280.68 62.827C1275.98 63.3726 1271.48 63.8935 1267.46 64.3593C1263.45 64.8015 1259.9 65.0691 1257.14 65.3408C1252.97 65.7245 1247.35 66.3022 1240.47 66.7012C1237.03 66.9339 1233.28 67.1871 1229.25 67.4591C1225.21 67.6293 1220.89 67.812 1216.31 68.0058C1198 68.6489 1175.54 68.7771 1150.89 67.2712C1126.25 65.7932 1099.47 62.6619 1072.68 57.5433C1071 57.2295 1069.32 56.9147 1067.64 56.5998L1065.11 56.1289L1062.61 55.5802C1059.29 54.8436 1055.95 54.105 1052.61 53.3644C1045.86 51.9961 1039.35 50.1385 1032.72 48.5016L1027.76 47.2367L1022.9 45.8181C1019.65 44.8778 1016.41 43.9372 1013.18 42.9985C1009.34 41.8814 1005.52 40.7655 1001.71 39.6526C997.55 38.396 993.276 37.3056 989.047 36.1794C987.671 35.8205 986.286 35.4573 984.891 35.0921C983.474 34.7537 982.047 34.4121 980.612 34.0685C977.737 33.3925 974.838 32.6704 971.867 32.0182C965.907 30.7411 959.823 29.4231 953.58 28.3091C941.14 25.9959 928.271 24.045 915.634 22.6491C890.366 19.7073 866.2 18.8631 848.137 18.7832C860.819 18.7994 873.574 19.1586 886.342 19.8827C899.115 20.6582 911.879 21.8469 924.561 23.4051C937.239 25.0021 949.789 27.0658 962.166 29.4711C974.529 31.9165 986.632 34.8296 998.498 38.0382L1028.15 46.4982L1041.88 49.9171C1046.41 51.1243 1051.09 52.0661 1055.73 53.0661C1064.96 55.1985 1074.44 56.7575 1083.83 58.5086L1098.11 60.6502L1101.68 61.193C1102.88 61.3589 1104.08 61.4822 1105.29 61.6309L1112.5 62.4882C1150.96 67.1297 1190.56 67.8396 1230.09 65.5184C1249.87 64.2743 1269.63 62.1859 1289.27 59.441L1296.63 58.3742C1299.09 58.0181 1301.55 57.6839 1303.98 57.2469L1318.64 54.7893L1333.23 52.026L1336.87 51.3366L1340.49 50.5673L1347.74 49.0327C1367.03 44.8755 1386.17 40.1911 1404.99 34.8716C1423.81 29.5481 1442.39 23.727 1460.69 17.4783C1479.01 11.248 1496.95 4.4547 1514.67 -2.6145C1532.36 -9.71069 1549.8 -17.1348 1566.88 -24.95C1635.26 -56.1319 1698.95 -92.1802 1757.77 -131.016C1770.74 -139.604 1783.46 -148.339 1795.89 -157.196C1808.31 -166.044 1820.47 -175.065 1832 -184.078C1829.93 -184.998 1826.77 -185.869 1824.63 -185.926C1823.55 -185.957 1818.56 -182.96 1813.43 -179.281C1807.54 -175.049 1803.23 -172.68 1801.95 -172.814C1800.82 -172.936 1797.58 -171.374 1794.68 -169.303C1791.77 -167.247 1788.01 -165.453 1786.27 -165.302C1784.44 -165.132 1782.46 -164.177 1781.48 -162.959C1780.57 -161.829 1779.19 -160.963 1778.44 -161.057C1777.68 -161.137 1774.16 -159.096 1770.61 -156.483C1767.06 -153.877 1762.54 -151.181 1760.61 -150.447C1758.66 -149.726 1757.14 -148.595 1757.21 -147.915C1757.28 -147.183 1755.97 -146.265 1753.94 -145.64C1752.06 -145.065 1749.69 -143.541 1748.65 -142.248C1747.3 -140.553 1746.38 -140.117 1745.36 -140.71C1744.9 -140.978 1744.09 -140.893 1743.13 -140.589C1742.9 -140.513 1742.65 -140.422 1742.4 -140.321L1742.21 -140.243C1742.14 -140.214 1742.11 -140.208 1741.93 -140.101C1741.64 -139.933 1741.34 -139.761 1741.03 -139.585C1739.82 -138.886 1738.54 -138.111 1737.26 -137.308C1732.2 -134.082 1727.17 -130.427 1726.75 -129.057C1726.29 -127.576 1724.35 -126.487 1719.3 -125.02C1713.89 -123.449 1712.09 -122.426 1710.54 -120.141C1708.99 -117.871 1707.7 -117.146 1704.38 -116.685C1701.06 -116.224 1700.03 -115.636 1699.35 -113.861C1698.87 -112.633 1696.14 -110.592 1693.26 -109.324C1690.4 -108.059 1688.5 -106.726 1689.05 -106.374C1689.6 -106.019 1685.43 -102.982 1679.79 -99.6363C1676.95 -97.9725 1671.95 -94.9723 1666.17 -91.4817C1660.35 -88.024 1653.73 -84.0913 1647.72 -80.5198C1638.81 -75.2229 1624.09 -66.9718 1607.31 -58.2717C1590.55 -49.5489 1571.7 -40.4075 1555.02 -32.9044C1551.74 -31.4099 1514.14 -13.9367 1468.98 2.42994C1462.72 4.72751 1456.63 6.78324 1451.11 8.7452C1448.92 9.50651 1446.88 10.1064 1445.15 10.6307C1441.69 11.6583 1439.41 12.2173 1439.14 12.0573C1438.61 11.7385 1438.1 11.7424 1437.99 12.08C1437.95 12.161 1436.83 12.6194 1434.84 13.3776C1432.85 14.1591 1429.93 15.1346 1426.37 16.3634C1422.79 17.5624 1418.58 19.0694 1413.83 20.5454C1409.09 22.0203 1403.91 23.685 1398.45 25.313C1392.97 26.8996 1387.54 28.4711 1382.43 29.9514C1377.28 31.3544 1372.45 32.6715 1368.19 33.8335C1359.64 36.0728 1353.36 37.6401 1351.49 38.1951C1347.72 39.2536 1339.1 41.4077 1332.35 43.1656C1328.96 43.9525 1324.87 44.9227 1321.03 45.8562C1319.11 46.326 1317.25 46.7815 1315.56 47.1947C1313.87 47.5775 1312.35 47.9199 1311.12 48.197C1307.3 49.0728 1303.81 49.8759 1300.52 50.6298C1297.23 51.394 1294.12 51.9407 1291.13 52.5511C1288.12 53.1306 1285.23 53.6907 1282.34 54.2488C1279.43 54.7768 1276.52 55.2056 1273.49 55.6939C1271.89 55.9493 1269.94 56.2591 1267.8 56.6007C1265.66 56.9493 1263.32 57.327 1260.92 57.6234C1256.11 58.2705 1251.09 58.9454 1247.03 59.4933C1240.66 60.1958 1234.87 60.8349 1229.52 61.4257C1224.15 61.9108 1219.22 62.2802 1214.59 62.6721C1213.43 62.7673 1212.29 62.8608 1211.17 62.9532C1210.05 63.0157 1208.94 63.0762 1207.85 63.1367C1205.67 63.2515 1203.54 63.3644 1201.46 63.4741C1197.29 63.673 1193.27 63.9685 1189.3 64.0003C1189.3 64.0003 1187.1 64.0589 1183.78 64.147C1182.13 64.1922 1180.19 64.2453 1178.12 64.303C1177.08 64.3317 1176.01 64.3604 1174.92 64.39C1173.84 64.388 1172.73 64.386 1171.63 64.384C1167.21 64.3829 1162.79 64.382 1159.48 64.3809C1157.81 64.3911 1156.43 64.382 1155.47 64.3377C1154.51 64.309 1153.95 64.2928 1153.95 64.2928C1142.45 64.1348 1119.92 62.6269 1098.62 59.5652C1093.32 58.7374 1088.04 57.9917 1083.03 57.1341C1078.08 56.1832 1073.34 55.2733 1068.99 54.4406C1067.91 54.2272 1066.85 54.0323 1065.83 53.8157C1064.81 53.579 1063.83 53.348 1062.87 53.1235C1060.96 52.6702 1059.17 52.2454 1057.52 51.8535C1054.23 51.0606 1051.51 50.3849 1049.55 49.8566C1046.62 49.0728 1042.63 47.7795 1038.45 46.5669C1034.29 45.3166 1029.94 44.1298 1026.59 42.9604C1023.22 41.8519 1019.11 40.5049 1015.22 39.2269C1010.36 37.6597 1005.76 36.1774 1002.59 35.1578C999.842 34.2305 996.643 33.3527 992.538 32.1515C988.455 30.9247 983.278 29.6189 976.502 27.8803C962.881 24.6071 942.406 19.8406 908.926 15.8977C903.435 15.2824 892.644 14.1457 879.675 13.4123C866.715 12.6379 851.577 12.165 837.569 12.3128C823.547 12.4011 807.27 12.9826 792.46 13.9653C785.041 14.429 778.019 15.0341 771.739 15.5663C765.51 16.1736 759.991 16.6752 755.726 17.1594C740.374 18.7809 726.776 20.6488 713.456 22.7415C700.14 24.8453 687.066 27.1539 673.04 30.0147C659.009 32.8665 643.962 36.2101 626.791 40.462C609.639 44.7198 590.327 49.8648 568.025 56.4654C530.535 67.5074 493.4 79.9504 459.127 92.0808C424.84 104.213 393.394 116.016 367.125 125.912C361.937 127.866 348.414 133.248 337.163 137.867C325.902 142.485 315.705 146.266 314.424 146.294C313.133 146.324 312.075 146.856 312.041 147.496C312.001 148.128 311.136 148.952 310.108 149.341C309.076 149.72 299.538 153.765 288.93 158.278C278.305 162.799 259.73 170.639 247.611 175.655C232.772 181.8 208.024 191.484 178.006 201.902C163.006 207.057 146.673 212.425 129.72 217.318C112.778 222.246 95.173 226.71 78.0693 230.035C61.0022 233.371 44.426 235.432 30.7184 235.685C23.8604 235.827 17.7559 235.545 12.497 234.946C7.22172 234.343 2.78213 233.442 -1.18421 232.297C-5.1506 231.149 -8.6917 229.723 -12.1141 227.992C-15.5216 226.258 -18.7775 224.178 -21.8504 221.882C-23.4132 220.791 -24.8458 219.487 -26.3047 218.316C-27.0054 217.668 -27.6944 217.026 -28.3736 216.398C-28.7165 216.085 -29.0578 215.775 -29.3958 215.465C-29.7189 215.13 -30.0403 214.8 -30.3585 214.471C-30.9997 213.814 -31.6295 213.169 -32.2477 212.536C-32.8643 211.896 -33.4231 211.194 -34.0001 210.552C-34.5721 209.896 -35.1326 209.256 -35.6783 208.628C-36.1992 207.963 -36.7086 207.312 -37.2049 206.676C-37.307 206.556 -37.4159 206.429 -37.5165 206.312L-37.4983 206.309C-38.466 205.303 -39.4139 203.965 -40.3618 202.675C-40.6899 202.192 -41.1548 201.507 -41.7384 200.651C-42.2873 199.753 -42.9451 198.676 -43.6952 197.451C-44.4783 196.258 -45.2349 194.797 -46.0987 193.257C-46.5225 192.478 -46.9905 191.694 -47.4293 190.844C-47.8563 189.986 -48.2979 189.099 -48.7495 188.19C-52.1768 180.84 -55.1379 172.35 -57.6798 163.881C-60.1889 155.234 -62.6123 146.876 -64.6665 139.798C-65.2485 136.663 -65.5893 133.714 -65.9898 131.058C-66.4022 128.409 -66.6493 125.951 -66.9181 123.738C-67.4886 119.324 -67.7885 115.736 -68.1248 112.859C-68.2105 112.14 -68.2916 111.462 -68.3673 110.824C-68.463 110.138 -68.5536 109.493 -68.6375 108.887C-68.8567 107.593 -69.048 106.462 -69.218 105.464C-69.594 103.471 -69.9563 102.013 -70.3472 100.839C-73.0131 91.7997 -80.6884 63.3604 -88.2949 41.5913C-89.6943 37.0945 -90.9903 32.6908 -92.4029 28.3952C-93.9495 24.0965 -95.4561 19.9094 -96.9152 15.8525C-97.6717 13.8226 -98.3147 11.8245 -99.1359 9.86145C-99.9516 7.89693 -100.753 5.96767 -101.538 4.07533C-103.122 0.288098 -104.643 -3.35222 -106.096 -6.82742C-107.748 -10.3023 -109.322 -13.6124 -110.811 -16.741C-111.558 -18.3051 -112.284 -19.8243 -112.987 -21.2963C-113.339 -22.0318 -113.687 -22.7558 -114.028 -23.4677C-114.409 -24.1784 -114.782 -24.8761 -115.149 -25.5621C-118.125 -31.0518 -120.666 -35.7416 -122.699 -39.4928L-122.809 -39.4649C-124.756 -42.7349 -126.792 -46.1516 -129.024 -49.8976C-129.96 -51.4546 -131.007 -53.1944 -132.098 -55.0057C-133.303 -56.8099 -134.558 -58.6861 -135.784 -60.521C-138.271 -64.1931 -140.649 -67.7064 -142.319 -70.1722C-145.801 -74.789 -149.007 -79.0971 -152.434 -83.7703C-154.217 -86.0987 -156.218 -88.4979 -158.267 -91.0817C-160.377 -93.6573 -162.456 -96.4329 -165.043 -99.4198C-166.732 -101.337 -169.27 -104.152 -172.019 -107.145C-173.406 -108.638 -174.791 -110.187 -176.245 -111.669C-177.759 -113.14 -179.23 -114.568 -180.566 -115.864C-183.259 -118.452 -186.281 -121.411 -189.136 -124.061C-192.14 -126.677 -194.825 -129.015 -196.471 -130.448C-197.29 -131.166 -199.098 -132.684 -201.678 -134.808C-204.347 -136.905 -207.961 -139.559 -212.097 -142.629C-216.139 -145.732 -221.233 -149.075 -226.616 -152.646C-231.873 -156.267 -238.085 -159.847 -244.22 -163.515C-247.249 -165.369 -250.437 -167.074 -253.512 -168.731C-256.586 -170.388 -259.56 -171.99 -262.399 -173.52C-268.182 -176.52 -273.655 -179.099 -278.174 -181.342C-280.419 -182.476 -282.579 -183.419 -284.463 -184.268C-286.346 -185.121 -287.974 -185.858 -289.318 -186.465C-291.997 -187.688 -293.51 -188.407 -293.556 -188.502C-293.748 -188.899 -294.422 -189.002 -295.072 -188.747C-295.235 -188.684 -296.072 -188.914 -297.445 -189.38C-298.824 -189.845 -300.81 -190.484 -303.177 -191.32C-305.553 -192.151 -308.342 -193.151 -311.404 -194.268C-315.22 -195.74 -319.384 -197.101 -323.674 -198.523C-325.82 -199.231 -328.001 -199.951 -330.213 -200.681C-331.321 -201.044 -332.436 -201.408 -333.557 -201.775C-334.701 -202.113 -335.852 -202.453 -337.007 -202.795C-341.176 -204.011 -345.312 -205.22 -349.407 -206.414C-353.511 -207.599 -357.68 -208.59 -361.745 -209.652C-369.864 -211.818 -377.967 -213.48 -385.709 -215.199C-389.587 -216.038 -393.434 -216.705 -397.171 -217.429C-400.916 -218.107 -404.559 -218.87 -408.133 -219.41C-411.704 -219.976 -415.173 -220.526 -418.528 -221.058C-420.206 -221.32 -421.856 -221.576 -423.477 -221.828C-425.098 -222.044 -426.689 -222.255 -428.251 -222.461C-431.375 -222.866 -434.372 -223.254 -437.23 -223.623C-438.66 -223.806 -440.056 -223.983 -441.414 -224.156C-442.773 -224.299 -444.095 -224.44 -445.379 -224.575C-450.521 -225.099 -455.059 -225.562 -458.9 -225.954C-466.574 -226.556 -471.464 -226.939 -472.822 -227.046C-500.132 -229.018 -531.256 -229.304 -559.012 -228.36C-586.81 -227.456 -611.148 -225.249 -626.214 -223.848C-627.476 -223.721 -628.756 -223.592 -630.046 -223.461L-631.814 -223.285L-632.575 -223.226C-633.596 -223.145 -634.63 -223.063 -635.656 -222.981C-637.711 -222.811 -639.757 -222.649 -641.639 -222.448C-645.417 -222.064 -648.67 -221.702 -650.479 -221.46C-654.107 -220.988 -657.183 -220.94 -657.365 -221.422C-657.543 -221.903 -658.905 -221.838 -660.386 -221.272C-661.867 -220.706 -663.922 -220.684 -664.98 -221.221C-666.497 -221.988 -667.135 -221.853 -668.028 -220.559C-668.921 -219.269 -669.673 -219.083 -671.729 -219.717C-673.779 -220.347 -674.877 -220.077 -676.905 -218.419C-678.801 -216.874 -679.917 -216.556 -681.189 -217.206C-683.531 -218.405 -695.707 -215.957 -694.987 -214.452C-694.6 -213.618 -695.853 -213.254 -699.462 -213.149C-702.215 -213.056 -706.147 -212.295 -708.152 -211.403C-710.326 -210.434 -712.586 -210.006 -713.78 -210.323C-714.888 -210.615 -717.64 -210.145 -719.914 -209.252C-722.165 -208.335 -729.146 -206.644 -735.357 -205.329C-741.614 -204.051 -746.818 -202.525 -747.032 -202.035C-747.233 -201.543 -749.375 -200.961 -751.753 -200.745C-754.31 -200.503 -756.88 -199.554 -758.001 -198.475C-759.054 -197.46 -763.82 -195.627 -768.637 -194.355C-773.495 -193.066 -777.555 -191.411 -777.801 -190.677C-778.088 -189.823 -783.953 -187.733 -793.682 -184.803C-802.14 -182.242 -809.399 -179.369 -809.722 -178.657C-810.356 -177.268 -809.823 -175.097 -808.82 -173.643C-794.083 -178.119 -779.615 -182.047 -764.909 -185.742C-750.222 -189.402 -735.398 -192.764 -720.374 -195.833C-690.33 -201.96 -659.516 -206.958 -627.777 -210.44C-610.46 -212.432 -592.875 -213.982 -575.043 -215.013C-557.212 -216.042 -539.098 -216.475 -520.825 -216.313C-502.547 -216.121 -484.1 -215.401 -465.594 -213.751C-447.097 -212.138 -428.582 -209.778 -410.267 -206.613C-391.961 -203.377 -373.93 -199.249 -356.4 -194.358L-343.364 -190.521C-339.086 -189.155 -334.859 -187.721 -330.619 -186.309C-326.343 -184.936 -322.251 -183.363 -318.135 -181.82C-314.046 -180.249 -309.844 -178.781 -305.921 -177.064L-294.018 -172.034C-290.131 -170.298 -286.359 -168.474 -282.541 -166.684L-276.854 -163.973L-271.389 -161.121C-267.77 -159.204 -264.077 -157.326 -260.553 -155.358C-253.683 -151.33 -246.585 -147.396 -240.228 -143.124C-237.003 -141.011 -233.668 -138.938 -230.562 -136.776L-221.408 -130.223C-223.403 -131.625 -225.493 -133.093 -227.673 -134.625C-229.854 -136.154 -232.099 -137.754 -234.646 -139.325C-237.147 -140.912 -239.733 -142.556 -242.402 -144.249C-243.741 -145.092 -245.099 -145.949 -246.476 -146.818C-247.923 -147.654 -249.39 -148.501 -250.876 -149.359C-253.865 -151.067 -256.931 -152.818 -260.066 -154.608C-261.609 -155.516 -263.281 -156.373 -264.966 -157.241C-266.649 -158.11 -268.35 -158.987 -270.067 -159.872C-273.54 -161.618 -276.922 -163.492 -280.706 -165.177C-284.432 -166.896 -288.217 -168.642 -292.053 -170.413C-307.719 -177.249 -325.042 -183.808 -343.479 -189.492C-361.975 -195.089 -381.466 -199.807 -400.967 -203.458C-420.465 -207.122 -439.956 -209.75 -458.44 -211.369C-476.928 -213.009 -494.426 -213.877 -510.171 -214.125C-541.682 -214.632 -566.162 -213.114 -579.3 -212.255C-591.403 -211.461 -607.042 -210.039 -622.413 -208.275C-624.828 -207.977 -627.239 -207.679 -629.609 -207.387C-631.062 -207.201 -632.493 -207.02 -633.883 -206.843C-636.631 -206.459 -639.196 -206.099 -641.402 -205.79Z" fill="#FACF29"/>
<path fill-rule="evenodd" clip-rule="evenodd" d="M583.704 119.336C550.146 132.361 523.338 141.659 494.387 151.774C465.473 161.925 434.619 173.035 393.765 190.512C352.908 207.997 316.05 221.729 281.302 233.584C246.533 245.443 214.061 255.492 181.359 265.589C148.627 275.671 116.592 283.344 87.214 287.706C72.5442 289.897 58.6131 291.315 45.8349 291.949C33.059 292.591 21.4956 292.486 11.6712 292.017C-7.28975 291.088 -24.0477 288.192 -37.6284 284.464C-51.2224 280.687 -61.6884 276.285 -69.6845 272.318C-73.7635 270.363 -77.0458 268.408 -80.0798 266.722C-82.9229 264.952 -85.4748 263.417 -87.5268 262.031C-89.5505 260.63 -91.2599 259.45 -92.6703 258.476C-94.0027 257.478 -95.0527 256.691 -95.831 256.108C-98.9357 253.775 -97.8447 254.744 -93.3679 258.345C-88.6455 261.837 -80.3168 268.038 -66.4778 274.748C-59.5494 278.075 -51.1828 281.443 -41.462 284.407C-31.7479 287.374 -20.6418 289.866 -8.68996 291.511C3.26017 293.174 16.0034 293.998 28.9375 294.006C41.8715 294.003 54.9766 293.194 67.9685 291.815C93.9815 289.047 119.484 284.023 143.783 278.195C168.086 272.343 191.289 265.685 212.83 259.115C236.062 252.013 256.393 245.185 275.17 238.64C293.92 232.078 311.1 225.778 327.734 219.495C360.982 206.931 392.066 194.405 428.517 179.644C464.967 164.908 478.237 160.004 487.146 156.722C496.078 153.5 500.626 151.925 520.002 144.823C542.85 136.49 558.768 130.17 568.994 125.892C579.22 121.621 583.704 119.336 583.704 119.336ZM1561.76 34.9795C1561.06 35.8758 1562.08 36.6042 1564.03 36.5712C1564.39 36.5732 1566.86 35.7036 1571.16 34.0471C1575.43 32.379 1581.65 30.0269 1589.24 26.837C1604.54 20.5646 1625.83 11.3468 1650.39 -0.393154C1674.95 -12.1334 1702.85 -26.3377 1731.56 -42.3741C1760.3 -58.3889 1789.94 -76.156 1818.48 -94.698C1841.84 -109.236 1864.47 -124.398 1881.06 -136.043C1889.36 -141.859 1896.18 -146.786 1900.93 -150.25C1905.68 -153.706 1908.42 -155.734 1908.39 -155.566C1908.24 -154.889 1909.98 -153.23 1912.26 -151.884C1912.46 -151.77 1910.41 -149.818 1906.53 -146.485C1902.64 -143.148 1896.9 -138.422 1889.59 -132.666C1874.97 -121.15 1854.02 -105.521 1829.08 -88.4575C1767.53 -47.0536 1693.5 -3.99822 1611.16 33.0002C1570 51.4732 1526.74 68.3431 1482.5 82.6619C1460.4 89.8451 1437.97 96.305 1415.54 102.023C1393.08 107.725 1370.67 112.766 1348.4 116.869C1326.12 120.951 1304.13 124.265 1282.7 126.76C1277.33 127.362 1271.98 127.867 1266.71 128.408C1264.08 128.667 1261.46 128.952 1258.84 129.181C1256.21 129.384 1253.6 129.585 1251 129.785C1245.8 130.164 1240.68 130.613 1235.59 130.91C1230.48 131.171 1225.44 131.428 1220.47 131.682C1215.51 131.98 1210.58 132.065 1205.72 132.189C1200.87 132.299 1196.09 132.455 1191.37 132.508C1186.65 132.5 1182 132.492 1177.43 132.484C1175.15 132.478 1172.88 132.472 1170.64 132.465C1168.39 132.441 1166.17 132.349 1163.96 132.294C1155.13 132.021 1146.62 131.862 1138.48 131.299C1134.41 131.062 1130.43 130.83 1126.53 130.603C1124.58 130.507 1122.66 130.346 1120.77 130.175C1118.87 130.012 1117 129.851 1115.15 129.691C1107.76 129.033 1100.71 128.505 1094.14 127.659C1087.56 126.867 1081.33 126.222 1075.59 125.419C1064.13 123.713 1054.24 122.384 1046.36 120.862C1042.4 120.155 1038.88 119.527 1035.83 118.983C1034.3 118.711 1032.89 118.46 1031.6 118.229C1030.33 117.97 1029.17 117.733 1028.14 117.521C1026.08 117.098 1024.49 116.773 1023.41 116.552C1022.32 116.335 1021.75 116.224 1021.69 116.226C1018.9 116.343 1017.46 116.858 1018.52 117.373C1018.72 117.474 1021.06 118.053 1025.37 119.066C1029.63 120.147 1036.03 121.359 1044.21 122.98C1052.34 124.698 1062.52 126.281 1074.33 128.195C1086.22 129.877 1099.82 131.766 1115.09 133.152C1122.69 133.997 1130.73 134.493 1139.12 135.088C1141.22 135.233 1143.34 135.38 1145.49 135.529C1147.63 135.675 1149.8 135.73 1151.99 135.835C1156.37 136.017 1160.83 136.203 1165.38 136.392C1169.93 136.629 1174.56 136.622 1179.27 136.707C1183.98 136.763 1188.77 136.86 1193.63 136.872C1198.49 136.81 1203.42 136.748 1208.42 136.684C1210.93 136.644 1213.45 136.604 1215.99 136.565C1218.51 136.468 1221.05 136.371 1223.61 136.271C1264.66 134.866 1309.55 130.231 1355.26 122.073C1360.94 121.019 1366.74 120.034 1372.45 118.889C1378.16 117.727 1383.91 116.557 1389.69 115.381C1401.14 112.866 1412.73 110.305 1424.18 107.417C1447.18 101.732 1470.12 95.3013 1492.78 88.2264C1538.04 74.0116 1582.14 57.2499 1624.03 39.0234C1665.94 20.8016 1705.58 1.07605 1742.45 -19.0195C1779.32 -39.1256 1813.4 -59.6128 1844.19 -79.5559C1868.04 -94.3425 1888.13 -107.698 1902.32 -117.418C1909.41 -122.284 1915.04 -126.212 1918.92 -128.949C1920.86 -130.315 1922.37 -131.369 1923.39 -132.082C1923.9 -132.436 1924.3 -132.705 1924.56 -132.885C1924.83 -133.064 1924.98 -133.151 1924.99 -133.143C1927.06 -132.105 1923.95 -128.744 1920.52 -124.542C1917.09 -120.351 1913.33 -115.307 1914.1 -110.716C1914.18 -110.267 1913.26 -109.955 1913.78 -109.387C1914.49 -108.607 1913.58 -107.895 1910.13 -106.587C1906.42 -105.19 1905.61 -104.494 1905.94 -102.991C1906.22 -101.672 1905.15 -100.546 1902.21 -99.1786C1896.77 -96.6194 1885.28 -88.7347 1886.27 -88.1804C1886.71 -87.9331 1884.02 -85.888 1880.32 -83.6451C1875.44 -80.7129 1871.13 -78.1043 1867.43 -75.815C1865.58 -74.6682 1863.87 -73.6071 1862.31 -72.6334C1861.53 -72.1399 1860.8 -71.6682 1860.09 -71.2198C1858.77 -70.3473 1857.51 -69.519 1856.31 -68.7338C1849.9 -64.5015 1844.95 -61.1923 1841.53 -58.8163C1838.14 -56.4292 1836.3 -54.9631 1836.07 -54.4408C1835.39 -52.8676 1833.83 -52.0094 1830.54 -51.4055C1827.6 -50.8585 1825.59 -49.7849 1824.86 -48.4322C1823.43 -45.6793 1809.49 -37.4649 1806.43 -37.6101C1805.14 -37.6596 1802.75 -36.8599 1801.04 -35.8204C1799.36 -34.7942 1799.54 -33.9516 1801.45 -33.9587C1804.43 -33.9772 1802.62 -32.6234 1789.37 -25.1757C1780.67 -20.3734 1774.04 -16.1925 1774.54 -15.8422C1775.09 -15.4713 1773.15 -14.4616 1770.2 -13.5778C1767.26 -12.6926 1764.34 -11.3328 1763.66 -10.5209C1763 -9.70592 1760.39 -8.343 1757.9 -7.48052C1755.59 -6.70472 1749.25 -3.46965 1737.58 2.46056C1725.92 8.40243 1709.06 17.1093 1685.28 28.5455C1678.3 31.8485 1671.44 35.0114 1665.95 37.4027C1660.42 39.7776 1656.34 41.4309 1655.06 41.7915C1652.51 42.4912 1649.9 43.841 1649.28 44.691C1648.68 45.5708 1642.77 48.337 1636.12 50.8602C1624.34 55.2513 1615.04 59.462 1599.78 67.0273C1595.71 69.0291 1591 70.6713 1589.37 70.7262C1588.55 70.7509 1584.87 71.9584 1579.6 73.8746C1574.26 75.7393 1567.33 78.3049 1560.05 81.0867C1553.06 83.6551 1546.03 86.2772 1540.24 88.3551C1534.41 90.3992 1529.92 91.9724 1528.2 92.5774C1527.39 92.8514 1526.29 93.2819 1525.76 93.5354C1524.9 93.9733 1518.36 96.1183 1513.27 97.6514C1512.22 97.9873 1510.06 98.6744 1507.36 99.5338C1504.68 100.412 1501.44 101.451 1498.19 102.443C1491.7 104.454 1485.34 106.448 1483.69 107.017C1481.82 107.645 1477.49 108.913 1474.1 109.887C1471.62 110.611 1467.33 111.863 1462.19 113.361C1456.96 114.785 1450.88 116.444 1444.9 118.074C1444.4 118.203 1442.92 118.702 1440.87 119.354C1438.81 120.01 1436.22 120.838 1433.57 121.682C1428.29 123.388 1423.43 124.878 1422.79 125.007C1422.14 125.121 1420.86 125.348 1419.94 125.487C1419.01 125.631 1411.81 127.611 1403.91 129.88C1400 131.045 1395.21 132.243 1390.81 133.392C1386.39 134.529 1382.32 135.563 1379.64 136.215C1376.96 136.859 1372.57 137.824 1367.72 138.922C1362.84 139.994 1357.55 141.266 1352.77 142.184C1341.59 144.489 1321.26 148.405 1299.19 151.375C1288.26 153.018 1276.78 154.184 1266.2 155.391C1260.86 155.901 1255.7 156.325 1250.89 156.738C1246.07 157.133 1241.61 157.55 1237.57 157.738C1234.07 157.947 1230.01 158.189 1225.67 158.449C1221.31 158.723 1216.68 159.033 1211.99 159.188C1202.61 159.552 1193.22 160.079 1185.95 160.173C1176.16 160.45 1155.71 160.607 1130.57 159.08C1105.46 157.652 1075.66 154.714 1047.89 150.018C1046.15 149.743 1044.4 149.485 1042.68 149.194C1040.97 148.88 1039.26 148.566 1037.56 148.254C1034.17 147.622 1030.81 146.996 1027.49 146.376C1024.17 145.747 1020.9 145.125 1017.68 144.513C1014.51 143.816 1011.39 143.13 1008.34 142.458C1002.25 141.087 996.35 139.836 990.914 138.494C985.527 137.095 980.465 135.781 975.812 134.574C971.164 133.358 966.935 132.243 963.335 131.11C959.703 130.016 956.559 129.052 953.998 128.247C948.862 126.636 946.028 125.658 946.137 125.516C946.137 125.516 945.54 125.319 944.455 124.963C944.027 124.82 943.503 124.646 942.892 124.443C942.455 124.294 941.958 124.125 941.407 123.937C939.197 123.201 936.166 122.138 932.74 121.138C929.349 120.053 925.298 118.98 921.575 117.935C919.693 117.447 917.893 116.979 916.289 116.563C914.689 116.127 913.236 115.835 912.124 115.547C910.438 115.139 908.173 114.566 905.307 114.033C903.88 113.751 902.326 113.443 900.649 113.111C898.945 112.823 897.122 112.515 895.19 112.189C887.411 110.945 877.655 109.705 866.372 108.922C855.093 108.147 842.32 107.75 828.677 108.132C815.056 108.48 800.633 109.46 786.361 111.003C775.72 112.158 763.239 113.837 751.71 115.688C740.185 117.536 729.636 119.471 722.955 120.771C705.949 124.027 691.407 127.361 678.087 130.622C664.767 133.904 652.655 137.16 640.415 140.693C615.926 147.792 590.904 155.773 554.416 168.777C530.405 177.326 498.379 189.219 483.195 194.777C430.752 213.871 382.055 234.122 330.526 255.847C307.823 265.412 291.075 272.105 279.957 276.396C268.84 280.693 263.313 282.591 262.74 282.574C262.44 282.565 261.911 282.739 261.571 282.974C260.96 283.358 250.514 287.351 235.689 292.517C228.298 295.106 219.741 297.968 210.856 300.832C201.905 303.68 192.642 306.533 183.713 309.068C172.243 312.33 163.008 314.862 156.504 316.655C150.058 318.468 146.403 319.562 146.156 319.966C145.625 320.824 144.994 320.943 144.139 320.361C143.816 320.151 142.072 320.367 137.79 321.12C135.644 321.492 132.887 322.006 129.403 322.68C125.826 323.322 121.578 324.143 116.293 325.07C113.636 325.527 110.755 326.022 107.637 326.556C104.435 327.059 100.988 327.596 97.283 328.176C93.4689 328.713 89.4282 329.295 84.997 329.864C80.4788 330.392 75.7961 331.006 70.4804 331.492C67.8296 331.736 65.2052 332.038 62.306 332.245C59.4333 332.458 56.4781 332.677 53.4359 332.904C50.3048 333.069 47.0849 333.237 43.7745 333.41C40.4772 333.581 36.8903 333.629 33.3134 333.726C18.8212 333.964 1.94488 333.632 -17.4752 331.398C-27.7109 330.176 -36.1795 328.764 -43.0208 327.36C-46.4449 326.641 -49.4689 326.005 -52.1165 325.365C-54.7586 324.7 -57.0376 324.098 -58.992 323.558C-62.9133 322.509 -65.4666 321.603 -67.0447 320.983C-68.6191 320.355 -69.1951 319.977 -69.0438 319.767C-68.4432 318.931 -68.7244 318.872 -70.2268 319.471C-70.9965 319.773 -75.6149 318.889 -87.1983 314.89C-90.0268 313.847 -93.3588 312.643 -97.0276 311.142C-98.8244 310.366 -100.741 309.542 -102.788 308.661C-104.833 307.772 -106.981 306.814 -109.118 305.743C-111.29 304.683 -113.573 303.546 -115.969 302.33C-118.285 301.099 -120.648 299.772 -123.153 298.366C-125.708 296.965 -128.113 295.447 -130.684 293.841C-131.959 293.037 -133.263 292.21 -134.603 291.363C-135.886 290.511 -137.14 289.633 -138.446 288.729C-153.256 278.428 -162.959 269.257 -170.818 260.874C-178.589 252.471 -184.534 244.738 -189.763 236.867C-199.99 221.155 -208.053 204.701 -215.353 181.393C-217.131 175.984 -220.22 165.045 -221.995 157.138C-223.002 153.166 -223.815 148.732 -224.631 144.718C-225.327 140.731 -225.863 137.201 -226.153 135.073C-226.433 132.961 -226.89 129.517 -227.4 125.667C-227.66 123.87 -227.933 121.978 -228.205 120.099C-228.473 118.371 -228.738 116.657 -228.986 115.054C-229.574 111.268 -230.116 107.767 -230.62 104.511C-231.156 101.264 -231.788 98.2985 -232.271 95.5127C-233.3 89.9562 -233.957 85.1706 -234.834 81.0032C-235.206 79.1475 -235.74 76.4731 -236.303 73.6615C-236.894 70.8518 -237.458 67.8835 -238.161 65.5303C-239.763 59.7123 -240.966 54.7228 -242.157 50.5397C-243.436 46.3856 -244.441 42.9518 -245.224 40.101C-246.633 36.2867 -248.222 32.9889 -249.415 30.1556C-250.627 27.3295 -251.569 25.0134 -252.179 23.3464C-253.42 20.0434 -255.461 15.8595 -257.392 11.6352C-257.887 10.5835 -258.381 9.53146 -258.867 8.49705C-259.387 7.47714 -259.953 6.49531 -260.477 5.53309C-261.554 3.61859 -262.56 1.8311 -263.423 0.293982C-264.475 -1.46252 -265.501 -3.4975 -266.836 -5.57853C-268.151 -7.66695 -269.557 -9.90485 -271.022 -12.2323C-271.742 -13.4005 -272.478 -14.5904 -273.223 -15.7958C-273.964 -17.0044 -274.845 -18.1605 -275.655 -19.3637C-277.297 -21.7582 -278.959 -24.1833 -280.604 -26.5829C-282.259 -28.9754 -284.112 -31.2233 -285.762 -33.4674C-287.474 -35.6772 -288.967 -37.8974 -290.662 -39.8014C-292.274 -41.7529 -293.777 -43.5713 -295.124 -45.2034C-295.789 -46.0243 -296.412 -46.799 -296.995 -47.5202C-297.576 -48.2406 -298.186 -48.8607 -298.696 -49.4521C-300.457 -51.4365 -302.479 -53.7145 -304.315 -55.7841C-305.204 -56.8424 -306.148 -57.7799 -306.984 -58.6091C-307.813 -59.4449 -308.532 -60.1701 -309.084 -60.7254C-310.192 -61.8362 -311.846 -63.5609 -313.618 -65.4524C-315.502 -67.2666 -317.534 -69.2231 -319.257 -70.8842C-320.117 -71.7205 -320.958 -72.5386 -321.74 -73.3011C-322.522 -74.0655 -323.355 -74.694 -324.031 -75.2761C-325.412 -76.4208 -326.4 -77.2048 -326.669 -77.3429C-327.195 -77.62 -327.941 -78.0115 -328.318 -78.2093C-328.497 -78.3144 -329.158 -78.8677 -330.078 -79.6795C-330.544 -80.0803 -331.05 -80.5656 -331.638 -81.056C-332.232 -81.5392 -332.87 -82.0585 -333.523 -82.5901C-336.11 -84.7362 -338.678 -86.7864 -339.22 -87.1388C-340.029 -87.6859 -340.893 -88.1907 -341.77 -88.678C-342.635 -89.1746 -343.496 -89.6671 -344.343 -90.1534C-346.03 -91.1291 -347.662 -92.0728 -349.171 -92.9454C-350.64 -93.8521 -352.151 -94.5331 -353.369 -95.1884C-354.607 -95.8292 -355.64 -96.3639 -356.399 -96.7564C-358.485 -97.8094 -361.058 -99.2291 -362.289 -99.7824C-363.344 -100.308 -367.384 -102.264 -371.593 -104.15C-375.927 -105.905 -380.286 -107.738 -381.765 -108.254C-385.342 -109.422 -389.888 -111.079 -390.49 -111.414C-390.854 -111.612 -391.599 -111.97 -392.192 -112.146C-393.443 -112.56 -396.703 -113.637 -400.935 -115.035C-401.978 -115.405 -403.118 -115.748 -404.326 -116.081C-405.52 -116.428 -406.763 -116.787 -408.034 -117.155C-410.582 -117.884 -413.19 -118.723 -415.937 -119.36C-418.805 -120.08 -421.597 -120.77 -424.2 -121.386C-426.872 -121.91 -429.339 -122.376 -431.473 -122.759C-435.706 -123.573 -438.773 -123.809 -439.375 -123.674C-440.622 -123.351 -444.4 -123.912 -447.918 -124.79C-451.268 -125.565 -454.302 -126.246 -457.125 -126.846C-459.982 -127.388 -462.657 -127.788 -465.204 -128.162C-466.476 -128.344 -467.724 -128.512 -468.955 -128.663C-470.208 -128.778 -471.447 -128.878 -472.687 -128.966C-475.161 -129.143 -477.626 -129.271 -480.201 -129.365C-486.13 -129.404 -491.63 -129.927 -492.564 -130.461C-493.485 -130.979 -496.082 -131.201 -498.215 -130.915C-499.299 -130.762 -503.004 -130.824 -508.208 -130.748C-510.806 -130.711 -513.727 -130.79 -516.903 -130.725C-520.075 -130.672 -523.438 -130.653 -526.855 -130.634C-550.419 -130.198 -567.991 -128.634 -580.003 -127.273C-583.006 -126.963 -585.667 -126.612 -588.001 -126.289C-590.329 -125.96 -592.334 -125.677 -594.025 -125.438C-595.711 -125.181 -597.087 -124.917 -598.153 -124.71C-598.691 -124.604 -599.152 -124.506 -599.534 -124.415C-599.867 -124.332 -599.844 -124.291 -599.976 -124.23C-600.724 -123.744 -601.758 -123.548 -602.278 -123.803C-602.806 -124.064 -603.868 -123.707 -604.656 -123.02C-605.445 -122.329 -606.201 -122.137 -606.365 -122.637C-606.52 -123.119 -609.537 -122.943 -613.087 -122.256C-618.541 -121.204 -619.471 -121.171 -619.261 -122.547C-619.125 -123.419 -619.621 -124.048 -620.364 -123.936C-621.121 -123.824 -621.768 -123.241 -621.822 -122.619C-621.95 -121.151 -627.806 -119.988 -629.615 -121.013C-630.503 -121.522 -631.278 -121.242 -631.752 -120.209C-632.276 -119.046 -632.878 -118.855 -633.917 -119.514C-634.609 -119.963 -637.963 -119.693 -643.796 -118.625C-649.634 -117.593 -657.95 -115.712 -668.454 -112.93C-672.441 -111.851 -675.877 -111.262 -676.068 -111.6C-676.287 -111.999 -679.778 -111.404 -683.815 -110.46C-687.83 -109.478 -692.396 -108.159 -694.729 -107.084C-697.263 -105.942 -698.985 -105.756 -700.685 -106.41C-702.608 -107.151 -703.738 -106.937 -706.436 -105.329C-708.938 -103.844 -710.05 -103.545 -710.957 -104.233C-711.617 -104.725 -712.228 -104.305 -712.816 -104.504C-718.867 -106.552 -726.505 -105.993 -732.839 -105.274C-739.169 -104.547 -744.168 -103.66 -745.33 -105.148C-745.343 -105.165 -745.111 -105.265 -744.646 -105.444C-744.177 -105.616 -743.47 -105.871 -742.555 -106.206C-740.718 -106.871 -737.961 -107.809 -734.42 -108.999C-727.321 -111.364 -716.931 -114.643 -704.048 -118.284C-691.175 -121.93 -675.8 -125.931 -658.843 -129.688C-650.381 -131.608 -641.504 -133.383 -632.395 -135.145C-623.262 -136.814 -613.893 -138.49 -604.387 -139.883C-548.141 -147.38 -489.557 -148.272 -438.484 -139.837C-425.696 -137.791 -413.477 -135.078 -401.725 -132.066C-398.821 -131.264 -395.932 -130.464 -393.055 -129.67C-390.169 -128.884 -387.443 -127.921 -384.643 -127.07C-383.252 -126.634 -381.864 -126.198 -380.48 -125.763C-379.086 -125.339 -377.785 -124.814 -376.436 -124.348C-373.757 -123.393 -371.093 -122.444 -368.446 -121.501C-347.603 -113.564 -329.397 -104.193 -313.924 -94.3889C-298.431 -84.5837 -285.715 -74.3437 -275.196 -64.7743C-264.541 -55.2578 -256.547 -46.1676 -249.894 -38.6528C-243.579 -30.9874 -238.625 -24.85 -235.551 -20.4581C-232.346 -16.1144 -230.5 -13.7117 -230.247 -13.554C-229.462 -13.0297 -228.611 -13.86 -228.475 -15.3673C-228.47 -15.4156 -228.843 -16.0277 -229.572 -17.1653C-230.309 -18.3014 -231.39 -19.9656 -232.792 -22.1228C-235.485 -26.4789 -240.048 -32.5958 -245.92 -40.3041C-252.115 -47.8758 -259.657 -57.0606 -269.881 -66.796C-279.972 -76.5794 -292.289 -87.1501 -307.563 -97.423C-322.809 -107.701 -341.016 -117.65 -362.126 -126.301C-364.787 -127.357 -367.528 -128.357 -370.246 -129.403C-371.608 -129.923 -372.975 -130.445 -374.348 -130.967C-375.743 -131.464 -377.176 -131.923 -378.593 -132.406C-381.439 -133.361 -384.3 -134.322 -387.178 -135.289C-390.131 -136.165 -393.1 -137.045 -396.083 -137.93C-399.031 -138.863 -402.141 -139.604 -405.218 -140.414C-408.313 -141.198 -411.363 -142.077 -414.573 -142.74C-417.75 -143.456 -420.941 -144.174 -424.144 -144.895C-427.407 -145.522 -430.684 -146.149 -433.973 -146.781C-447.204 -149.172 -460.934 -151.08 -475.043 -152.418C-489.178 -153.687 -503.66 -154.429 -518.334 -154.642C-547.685 -155.113 -577.775 -153.282 -607.422 -149.893C-628.744 -147.609 -649.729 -144.4 -669.105 -140.904C-688.463 -137.36 -706.217 -133.52 -721.182 -129.922C-736.17 -126.356 -748.356 -123.043 -756.813 -120.736C-765.266 -118.406 -769.942 -117.084 -770.142 -117.289C-771.842 -118.939 -774.052 -120.322 -775.027 -120.376C-775.369 -120.382 -770.156 -122.415 -760.709 -125.612C-751.267 -128.797 -737.619 -133.084 -721.483 -137.543C-705.347 -141.989 -686.732 -146.615 -667.565 -150.632C-648.421 -154.71 -628.722 -158.127 -610.703 -160.718C-604.451 -161.569 -598.24 -162.208 -592.143 -162.91C-586.023 -163.487 -580.017 -164.142 -574.088 -164.571C-562.249 -165.592 -550.811 -166.136 -539.938 -166.578C-518.183 -167.288 -498.67 -166.887 -482.402 -165.962C-449.813 -164.097 -430.337 -160.43 -429.385 -160.741C-427.599 -161.066 -426.969 -161.948 -428.016 -162.682C-428.325 -162.972 -433.424 -163.951 -442.475 -165.567C-444.739 -165.969 -447.291 -166.3 -450.058 -166.719C-452.837 -167.104 -455.83 -167.603 -459.089 -167.983C-462.352 -168.361 -465.838 -168.764 -469.533 -169.192C-473.234 -169.619 -477.18 -169.899 -481.313 -170.285C-497.868 -171.658 -517.81 -172.513 -540.111 -172.234C-551.249 -172.012 -562.992 -171.674 -575.145 -170.857C-581.238 -170.53 -587.408 -169.976 -593.706 -169.495C-599.967 -168.893 -606.356 -168.348 -612.786 -167.591C-631.447 -165.779 -651.935 -163.118 -671.931 -159.738C-691.954 -156.417 -711.49 -152.43 -728.537 -148.536C-745.585 -144.63 -760.135 -140.811 -770.388 -137.993C-780.632 -135.172 -786.634 -133.38 -786.561 -133.628C-786.269 -134.502 -786.803 -135.5 -787.764 -135.829C-789.86 -136.539 -790.927 -142.379 -789.036 -142.996C-788.343 -143.217 -787.172 -144.81 -786.429 -146.504C-785.663 -148.212 -784.301 -149.583 -783.412 -149.541C-782.537 -149.507 -781.959 -150.291 -782.141 -151.303C-782.205 -151.648 -782.114 -152.153 -781.959 -152.703C-777.953 -153.941 -774.221 -155.063 -773.164 -155.37C-771.851 -155.755 -768.912 -156.613 -766.611 -157.285C-763.239 -158.277 -754.913 -160.607 -746.824 -162.756C-746.159 -162.925 -742.618 -163.823 -738.941 -164.756C-735.245 -165.661 -731.896 -166.481 -731.477 -166.584C-731.062 -166.69 -730.242 -166.9 -729.663 -167.048L-718.785 -169.601C-716.074 -170.205 -712.88 -170.917 -709.918 -171.578C-706.942 -172.211 -704.199 -172.795 -702.412 -173.177C-698.844 -173.956 -690.847 -175.567 -684.645 -176.759C-677.312 -178.188 -664.029 -180.617 -649.948 -182.815C-646.416 -183.344 -642.848 -183.88 -639.326 -184.409C-635.776 -184.893 -632.276 -185.371 -628.908 -185.83C-625.545 -186.308 -622.269 -186.67 -619.229 -187.046C-617.548 -187.248 -615.898 -187.446 -614.276 -187.64C-612.389 -187.879 -610.517 -188.055 -608.698 -188.25C-605.048 -188.627 -601.567 -188.985 -598.286 -189.324C-586.875 -190.39 -571.655 -191.571 -556.22 -192.259C-540.777 -192.919 -525.146 -193.025 -513.171 -192.867C-509.32 -192.803 -504.49 -192.646 -498.816 -192.494C-495.982 -192.425 -492.924 -192.222 -489.68 -192.074C-486.435 -191.885 -482.995 -191.792 -479.376 -191.491C-464.899 -190.563 -447.556 -188.823 -428.657 -185.912C-426.844 -185.626 -425.009 -185.338 -423.155 -185.046C-422.227 -184.899 -421.296 -184.751 -420.36 -184.602C-419.432 -184.428 -418.499 -184.254 -417.563 -184.079C-413.815 -183.37 -409.991 -182.648 -406.095 -181.911C-402.221 -181.124 -398.322 -180.213 -394.334 -179.337C-390.327 -178.493 -386.352 -177.45 -382.308 -176.4C-366.134 -172.23 -349.327 -167.043 -332.874 -160.47C-316.382 -153.949 -300.105 -146.228 -284.673 -137.417C-280.895 -135.168 -277.09 -132.902 -273.254 -130.619C-269.626 -128.225 -265.972 -125.815 -262.295 -123.389C-260.419 -122.194 -258.706 -120.914 -256.967 -119.642C-255.228 -118.369 -253.485 -117.092 -251.736 -115.813C-250.014 -114.521 -248.184 -113.27 -246.545 -111.933C-244.898 -110.599 -243.248 -109.261 -241.594 -107.921C-234.817 -102.62 -228.782 -96.9604 -222.601 -91.3145C-219.707 -88.4256 -216.802 -85.5264 -213.89 -82.6179C-213.171 -81.8885 -212.423 -81.1673 -211.726 -80.4296L-209.708 -78.1959C-208.363 -76.7051 -207.018 -75.2122 -205.67 -73.7173L-201.632 -69.2283C-200.306 -67.7261 -199.13 -66.1819 -197.871 -64.659C-195.403 -61.5992 -192.891 -58.5443 -190.469 -55.467C-188.208 -52.3532 -185.946 -49.2367 -183.681 -46.1181C-182.579 -44.5543 -181.363 -43.0129 -180.358 -41.4283L-177.283 -36.69C-175.261 -33.5259 -173.132 -30.3827 -171.213 -27.2064C-169.375 -24.0177 -167.537 -20.8309 -165.703 -17.6495C-164.796 -16.0567 -163.854 -14.4721 -162.983 -12.8782L-160.53 -8.07616C-158.903 -4.87917 -157.277 -1.68815 -155.657 1.49435C-154.106 4.68509 -152.752 7.89118 -151.303 11.0717C-149.916 14.2616 -148.376 17.4202 -147.135 20.5999C-145.895 23.7781 -144.659 26.9433 -143.43 30.0948C-142.215 33.2466 -140.919 36.3734 -139.934 39.5127C-138.881 42.6446 -137.834 45.7592 -136.794 48.8553C-135.748 51.9503 -134.695 55.0257 -133.878 58.0959C-133.003 61.1619 -132.135 64.2066 -131.274 67.2282C-130.435 70.251 -129.492 73.2431 -128.844 76.2279C-127.437 82.1879 -126.055 88.0482 -124.699 93.792C-123.59 99.544 -122.504 105.18 -121.443 110.683C-120.943 113.362 -120.449 116.009 -119.961 118.622C-119.482 121.186 -119.066 123.729 -118.513 126.21C-117.991 128.697 -117.476 131.148 -116.968 133.563C-116.395 135.966 -115.832 138.331 -115.278 140.657C-112.938 149.938 -110.459 158.546 -107.713 166.296C-102.293 181.816 -96.2165 193.97 -91.4171 202.132C-90.168 204.155 -89.0575 205.954 -88.0951 207.511C-87.1226 209.066 -86.1898 210.333 -85.494 211.387C-84.7813 212.43 -84.2367 213.229 -83.8717 213.763C-83.4784 214.286 -83.2761 214.553 -83.2761 214.553C-78.8203 220.498 -72.8575 227.512 -64.2936 234.914C-55.7129 242.266 -44.4161 250.055 -28.5549 255.804C-8.60841 263.153 15.3528 265.535 40.1827 264.153C65.0343 262.838 90.361 258.322 115.176 252.434C140.044 246.523 164.577 239.214 188.97 231.234C213.369 223.238 237.649 214.539 262.119 205.448C276.3 200.188 298.45 191.776 322.715 182.382C347.032 172.968 373.512 162.717 396.294 153.897C465.769 127.141 514.424 109.7 563.206 94.2535C587.636 86.5645 612.107 79.3558 639.69 72.2613C653.493 68.7293 668.08 65.2347 683.888 61.8482C699.706 58.4739 716.73 55.1678 735.487 52.2604C750.188 49.9577 773.765 46.6743 800.328 44.8186C813.602 43.9007 827.592 43.3309 841.441 43.2599C855.285 43.1783 868.978 43.6029 881.619 44.4168C915.51 46.6638 949.915 52.3149 980.902 61.1454C988.366 63.3143 995.771 65.4675 1003.1 67.596C1010.19 69.7586 1017.48 71.4895 1024.59 73.304C1038.84 76.8542 1052.97 79.7616 1066.58 82.1839C1093.82 87.0138 1119.04 89.5771 1139.67 90.9289C1142.25 91.0906 1144.75 91.2472 1147.19 91.3998C1149.62 91.549 1151.97 91.722 1154.25 91.7706C1158.82 91.9284 1163.06 92.0744 1166.95 92.2086C1168.89 92.2671 1170.75 92.364 1172.51 92.3825C1174.28 92.397 1175.96 92.4095 1177.54 92.4217C1180.7 92.4507 1183.47 92.4763 1185.84 92.497C1187.41 92.5092 1189.2 92.5217 1191.16 92.5359C1193.13 92.5237 1195.28 92.4609 1197.56 92.4217C1202.12 92.3188 1207.25 92.2589 1212.59 92.0972C1217.93 91.8519 1223.5 91.5956 1228.98 91.3441C1234.46 91.071 1239.82 90.6012 1244.78 90.2747C1247.26 90.086 1249.69 89.9522 1252.02 89.7328C1254.35 89.508 1256.59 89.2918 1258.74 89.0857C1263.01 88.6745 1266.87 88.3037 1270.12 87.9925C1276.58 87.2218 1280.59 86.7427 1280.65 86.7356C1280.83 86.714 1282.19 86.5492 1284.59 86.2584C1286.99 85.9711 1290.44 85.5744 1294.75 84.916C1299.07 84.2806 1304.3 83.5571 1310.28 82.6486C1316.22 81.6346 1322.95 80.5652 1330.26 79.262C1333.9 78.5717 1337.7 77.8514 1341.64 77.1045C1343.6 76.7294 1345.6 76.3495 1347.64 75.9619C1349.66 75.5353 1351.71 75.1017 1353.79 74.6617C1357.95 73.7799 1362.24 72.8731 1366.63 71.9427C1370.98 70.9311 1375.43 69.8947 1379.97 68.8375C1398.08 64.4888 1417.44 59.4611 1436.71 53.6153C1456.02 47.8167 1475.37 41.4218 1493.81 34.8332C1512.21 28.2013 1529.68 21.3632 1545.46 14.9086C1576.93 1.90015 1601.48 -9.69455 1613.29 -15.3716C1617.64 -17.4836 1622.7 -19.88 1627.97 -22.5411C1633.26 -25.1765 1638.89 -27.9717 1644.4 -30.8379C1647.18 -32.2628 1649.94 -33.6857 1652.67 -35.0858C1655.36 -36.5087 1658.01 -37.908 1660.57 -39.2615C1665.73 -41.9538 1670.45 -44.5316 1674.52 -46.7405C1683.95 -51.8278 1695.44 -58.2744 1707.76 -65.3586C1720.06 -72.4605 1733.09 -80.2637 1745.66 -88.0217C1758.23 -95.7736 1770.28 -103.517 1780.74 -110.414C1786.06 -113.948 1790.66 -117.001 1793.94 -119.182C1798.09 -122.012 1803.49 -125.667 1805.87 -127.339C1808.27 -129.001 1813.22 -132.443 1816.82 -135.009C1820.43 -137.575 1823.69 -139.899 1824.09 -140.182C1824.49 -140.457 1825.05 -140.846 1825.33 -141.043C1825.62 -141.246 1827.84 -142.861 1830.3 -144.642L1835.53 -148.478C1840.96 -152.416 1846.52 -156.542 1848.76 -158.23C1850.29 -159.381 1852.24 -160.851 1853.11 -161.509C1853.81 -162.041 1856.27 -163.922 1858.92 -165.944C1859.79 -165.901 1860.58 -165.834 1861.1 -165.713C1862.61 -165.364 1863.92 -165.523 1864.03 -166.043C1864.13 -166.575 1866.46 -167.054 1869.22 -167.136C1871.96 -167.21 1874.59 -167.58 1875.05 -167.951C1876.26 -168.922 1885.2 -167.252 1886.02 -165.874C1886.4 -165.23 1887.87 -164.733 1889.3 -164.78C1889.62 -164.792 1887.4 -162.66 1883.25 -159.038C1879.09 -155.412 1872.97 -150.285 1865.42 -144.227C1850.33 -132.101 1829.43 -116.296 1807.77 -101.004C1780.18 -82.179 1751.45 -64.0781 1723.57 -47.6976C1695.73 -31.2954 1668.63 -16.6933 1644.8 -4.53275C1620.95 7.61924 1600.32 17.2832 1585.56 23.9873C1578.25 27.3977 1572.28 29.9578 1568.24 31.8422C1564.19 33.7152 1561.93 34.7826 1561.76 34.9795Z" fill="#FACF29"/>
</g>
</g>
<defs>
<clipPath id="clip0_717_302">
<rect width="1440" height="513" fill="white"/>
</clipPath>
</defs>
</svg>
