<svg width="466" height="183" viewBox="0 0 466 183" fill="none" xmlns="http://www.w3.org/2000/svg">
<g clip-path="url(#clip0_517_383)">
<rect width="466" height="183" fill="white"/>
<path d="M466 0H0V164H466V0Z" fill="#00BCF1"/>
<mask id="mask0_517_383" style="mask-type:luminance" maskUnits="userSpaceOnUse" x="-21" y="109" width="543" height="116">
<path d="M517.486 109.84L-21 133.378L-16.9983 224.928L521.488 201.391L517.486 109.84Z" fill="white"/>
</mask>
<g mask="url(#mask0_517_383)">
<path fill-rule="evenodd" clip-rule="evenodd" d="M-51.5259 128.342C-31.628 134.013 90.9177 157.292 115.871 159.723C316.86 191.809 431.96 118.65 721.259 97.6087C893.317 88.466 983.05 97.1495 1081.34 110.255L1083.71 164.529L-47.7823 213.987L-51.5259 128.342Z" fill="#F0F2F9"/>
<mask id="mask1_517_383" style="mask-type:luminance" maskUnits="userSpaceOnUse" x="-163" y="87" width="1051" height="151">
<path d="M883.078 87.1118L-162.525 132.815L-157.97 237.029L887.633 191.325L883.078 87.1118Z" fill="white"/>
</mask>
<g mask="url(#mask1_517_383)">
<path d="M18.5498 146.69C15.6221 146.025 9.88128 144.723 7.6788 144.219C6.74955 144.008 5.53986 143.728 5.00527 143.607C4.48212 143.473 3.3847 143.19 2.56867 142.988L0.93569 142.573L0.655248 142.504L-0.467508 142.217L-1.65425 141.912C-2.89118 141.604 -4.16681 141.281 -4.68995 141.146L-5.69743 140.893C-5.95265 140.829 -7.13833 140.535 -8.00598 140.313C-8.71837 140.63 -9.16039 141.047 -9.31792 141.58C-9.40773 141.866 -9.29894 142.136 -9.0946 142.193C-8.88989 142.249 -8.56553 142.557 -8.37744 142.881C-8.29098 143.026 -8.18002 143.162 -8.05773 143.286C-7.06218 143.546 -5.58115 143.938 -3.92178 144.37L2.34504 146C2.85478 146.123 4.02673 146.399 4.94405 146.617C5.86136 146.836 7.14796 147.139 7.7982 147.3C9.84969 147.792 11.2128 148.114 12.7927 148.491C13.6455 148.684 15.1643 149.079 16.2689 149.294C18.0108 149.665 19.5874 150 21.0369 150.31C24.2656 150.987 27.1805 151.646 29.9864 152.193C32.8037 152.727 35.4434 153.227 37.9817 153.71C40.5201 154.193 42.9327 154.669 45.4138 155.06C48.0238 155.501 51.7862 156.13 55.7515 156.797C59.7509 157.419 63.9858 158.016 67.4395 158.536C68.945 158.762 71.2984 159.12 74.253 159.492L74.5186 159.531C76.3504 159.774 78.3841 160.043 80.6202 160.338C82.8559 160.634 85.2707 160.975 87.9054 161.257C98.5319 162.535 114.815 164.212 134.177 165.464C153.539 166.722 176.01 167.466 198.545 167.43C221.082 167.417 243.645 166.639 263.055 165.506C267.911 165.266 272.558 164.916 276.973 164.62C279.173 164.47 281.324 164.323 283.4 164.183L289.424 163.693C293.299 163.374 296.877 163.102 300.117 162.814C303.355 162.509 306.258 162.236 308.764 161.995C315.107 161.432 320.904 160.766 326.037 160.225C331.182 159.702 335.624 159.125 339.278 158.702C341.52 158.434 344.058 158.129 346.72 157.809C349.38 157.459 352.163 157.092 354.922 156.728C357.667 156.359 360.391 156.022 362.9 155.665C365.409 155.303 367.708 154.975 369.648 154.694C377.412 153.611 384.286 152.496 385.015 152.39L386.928 152.081L388.743 151.797C389.1 151.733 391.054 151.457 393.891 150.983C396.729 150.51 400.454 149.887 404.439 149.219C408.437 148.575 412.736 147.755 416.519 147.091C420.29 146.411 423.533 145.838 425.279 145.488C429.725 144.626 434.406 143.752 439.217 142.801C444.013 141.814 449.011 140.818 454.112 139.747C459.214 138.645 464.448 137.515 469.794 136.364C475.215 135.219 480.747 134.053 486.367 132.868C489.17 132.276 491.998 131.676 494.85 131.08C496.277 130.779 497.704 130.478 499.128 130.177C500.555 129.882 502.024 129.626 503.475 129.348C509.29 128.256 515.149 127.149 521.039 126.046C523.983 125.491 526.924 124.937 529.869 124.388L532.074 123.971L534.306 123.6L538.762 122.859C544.709 121.872 550.63 120.887 556.503 119.912C558.254 119.622 559.967 119.334 561.647 119.056C563.324 118.777 564.978 118.494 566.61 118.268C569.872 117.797 572.997 117.343 576.014 116.904C582.045 116.032 587.591 115.229 592.785 114.477C597.956 113.679 602.814 113.148 607.369 112.569C611.937 112.007 616.221 111.473 620.317 110.966C624.429 110.47 628.335 109.948 632.179 109.528C636.032 109.132 639.792 108.743 643.571 108.352C647.353 107.961 651.136 107.57 655.03 107.171C656.975 106.968 658.946 106.769 660.969 106.56C661.974 106.456 662.989 106.351 664.019 106.245C665.048 106.164 666.09 106.075 667.148 105.985C671.853 105.594 679.154 104.99 687.103 104.329C689.089 104.166 691.127 103.998 693.164 103.825C695.202 103.663 697.26 103.463 699.288 103.357C703.354 103.101 707.361 102.85 711.044 102.618C714.723 102.387 718.531 102.139 722.262 101.904C724.128 101.786 725.967 101.671 727.769 101.552C729.574 101.433 731.328 101.324 733.01 101.264C739.748 100.972 745.379 100.725 748.245 100.601C765.751 99.733 776.795 99.6569 784.315 99.4541C791.828 99.2947 795.792 99.1618 799.004 99.1495C802.956 99.139 810.491 99.123 815.766 99.1106C818.39 99.1084 821.689 99.0953 824.876 99.0909C828.063 99.0864 831.147 99.0602 833.331 99.1292C836.271 99.1809 841.377 99.2725 847.626 99.389C850.754 99.4439 854.16 99.5068 857.727 99.5753C859.518 99.6089 861.332 99.641 863.183 99.6757C865.025 99.7297 866.884 99.8187 868.753 99.8825C876.212 100.175 883.81 100.476 890.52 100.743L895.372 100.934C896.925 100.987 898.374 101.108 899.767 101.179C902.529 101.348 904.941 101.496 906.889 101.614C910.607 101.84 915.155 102.116 919.488 102.378C921.647 102.51 923.768 102.638 925.69 102.759C927.626 102.865 929.36 102.983 930.769 103.113C936.091 103.558 941.492 104.002 947.705 104.521C950.815 104.777 954.125 105.054 957.734 105.355L960.504 105.584C961.434 105.674 962.383 105.78 963.351 105.879C965.294 106.083 967.31 106.298 969.428 106.524C974.862 107.105 982.841 107.951 987.167 108.413C989.194 108.635 991.16 108.83 993.116 109.057C995.058 109.29 997.005 109.53 999.023 109.776C1001.06 110.032 1003.24 110.308 1005.88 110.638L1009.08 111.051L1011.97 111.433C1012.54 111.515 1015.73 111.952 1019.07 112.415L1023.75 113.08C1024.03 113.045 1024.35 112.99 1024.66 112.923C1025.35 112.771 1026.12 112.68 1026.36 112.715C1026.6 112.751 1027.15 112.61 1027.59 112.393C1028.44 111.993 1028.88 111.576 1028.97 111.133C1027.98 110.981 1026.64 110.772 1026.36 110.728L1025.21 110.552L1021.76 110.032L1020.39 109.832L1019.1 109.649L1018.78 109.602L1016.91 109.332L1014.12 108.936C1013.51 108.85 1012.16 108.661 1011.11 108.514L1008.62 108.172L1007.03 107.953L1003.18 107.453C1000.51 107.124 997.826 106.786 995.16 106.459C992.484 106.144 989.827 105.876 987.281 105.593C982.171 105.041 977.47 104.529 973.662 104.122C970.372 103.777 966.021 103.28 961.625 102.841C957.182 102.466 952.727 102.086 949.315 101.8C947.012 101.6 943.475 101.299 939.058 100.923C936.842 100.735 934.415 100.527 931.81 100.304C929.204 100.068 926.355 99.9428 923.414 99.7396C911.57 99.0312 897.602 97.9879 883.931 97.5635C877.119 97.2918 870.449 97.021 864.265 96.7724C858.031 96.6489 852.297 96.5403 847.403 96.4434C842.506 96.3471 838.451 96.2689 835.585 96.2116C832.716 96.1542 831.052 96.1227 830.929 96.1324C830.892 96.1354 825.628 96.1348 819.13 96.1413C812.629 96.1479 803.994 96.1544 799.892 96.1585C796.805 96.1486 791.543 96.3177 784.741 96.4513C781.335 96.5277 777.554 96.6092 773.459 96.6979C769.358 96.8051 764.958 96.8329 760.301 97.069C750.996 97.4618 740.768 97.8973 730.218 98.3464C719.655 99.0024 708.786 99.6827 698.201 100.341C691.355 100.866 683.582 101.536 676.206 102.14C672.518 102.445 668.916 102.742 665.586 103.019C663.923 103.144 662.324 103.314 660.811 103.47C659.297 103.627 657.872 103.77 656.556 103.911C663.939 103.064 671.374 102.535 678.784 101.881L689.909 100.938C693.623 100.631 697.318 100.277 701.041 100.073C715.88 99.1503 730.74 98.0261 745.573 97.5039C775.267 95.9969 804.859 95.7221 834.29 95.8113L856.286 96.1995L861.779 96.297L864.531 96.3453C865.448 96.3695 866.352 96.4129 867.265 96.4435L878.173 96.869L889.084 97.2942L894.538 97.5038C896.354 97.572 898.174 97.6396 899.969 97.7639L921.588 99.0727L926.987 99.4019C928.785 99.5137 930.603 99.6059 932.367 99.7689L943.049 100.655C950.161 101.26 957.317 101.801 964.392 102.464L985.471 104.706C988.977 105.089 992.503 105.439 996 105.846C999.483 106.261 1002.95 106.689 1006.42 107.134C1013.4 108.023 1020.33 108.964 1027.23 109.956C1027.38 109.726 1027.47 109.404 1027.36 109.219C1027.3 109.121 1026.07 108.86 1024.63 108.635C1022.98 108.379 1021.98 108.16 1021.94 108.043C1021.9 107.937 1021.21 107.761 1020.39 107.644C1019.58 107.527 1018.78 107.324 1018.62 107.185C1018.44 107.041 1018.01 106.936 1017.59 106.934C1017.18 106.929 1016.83 106.866 1016.8 106.802C1016.77 106.732 1015.91 106.57 1014.87 106.446C1013.84 106.322 1012.7 106.134 1012.34 106.017C1011.98 105.906 1011.52 105.857 1011.33 105.909C1011.12 105.968 1010.74 105.919 1010.41 105.794C1010.1 105.679 1009.47 105.59 1009.01 105.597C1008.41 105.608 1008.2 105.557 1008.29 105.435C1008.34 105.377 1008.25 105.317 1008.08 105.264L1007.94 105.221C1007.94 105.221 1007.94 105.215 1007.81 105.195L1007.42 105.135L1005.7 104.895C1003.31 104.582 1000.73 104.314 1000.03 104.351C999.271 104.393 998.436 104.266 996.83 103.884C995.111 103.481 994.291 103.395 992.967 103.391C991.643 103.393 991.076 103.329 990.214 103.057C989.368 102.791 988.903 102.737 987.969 102.787C987.324 102.826 985.875 102.711 984.748 102.54C983.624 102.369 982.654 102.282 982.611 102.358C982.564 102.428 980.391 102.261 977.782 101.984C975.158 101.713 968.466 101.014 962.851 100.52C958.653 100.211 951.911 99.685 944.462 99.088C940.741 98.7895 936.838 98.4689 932.978 98.1571C929.115 97.8577 925.238 97.6743 921.683 97.435L910.027 96.7419C906.76 96.5464 902.967 96.3202 898.837 96.0721C894.674 95.9115 890.16 95.7363 885.519 95.559C882.939 95.4608 880.468 95.366 878.197 95.2796C877.309 95.2408 876.503 95.2016 875.815 95.1714C874.448 95.1041 873.592 95.0448 873.563 95.0108C873.509 94.9425 873.357 94.9122 873.21 94.9479C873.172 94.9509 872.696 94.9463 871.847 94.9288C871.005 94.9047 869.803 94.8729 868.337 94.8314C865.414 94.7118 861.343 94.7197 856.924 94.6522C848.078 94.5419 839.597 94.4572 838.071 94.4571C836.546 94.4689 833.107 94.4207 830.386 94.4789C827.664 94.5373 823.858 94.6211 821.9 94.6611C815.812 94.8228 811.781 94.9126 807.1 94.9868C804.603 95.0396 800.02 95.0819 796.88 95.1916C787.084 95.5504 780.851 95.7781 774.795 95.9981L768.076 96.2403L764.711 96.3617L761.336 96.5507C752.566 97.0767 726.931 98.08 720.422 98.5539C717.994 98.6735 713.646 98.8851 710.744 99.0244C707.846 99.1695 703.696 99.3775 701.519 99.4895C697.967 99.6139 692.848 100.032 673.7 101.46C672.135 101.584 669.053 101.823 665.363 102.109C663.514 102.238 661.529 102.456 659.497 102.653C657.462 102.857 655.379 103.065 653.37 103.266C645.33 104.062 634.553 105.135 629.408 105.646C620.233 106.737 612.826 107.622 603.837 108.692C601.583 108.968 599.243 109.25 596.744 109.558C594.259 109.894 591.627 110.285 588.784 110.692C583.112 111.512 576.61 112.452 568.888 113.567C562.369 114.448 555.875 115.629 549.359 116.679C542.857 117.759 536.38 118.83 530.099 119.868C517.645 122.207 505.881 124.37 496.005 126.268C494.076 126.67 488.974 127.771 484.673 128.718C480.376 129.665 476.539 130.454 476.14 130.474C475.741 130.499 475.314 130.6 475.184 130.713C475.054 130.82 474.631 130.975 474.236 131.055C473.853 131.14 470.158 131.966 466.032 132.893C462.04 133.816 455.044 135.425 450.478 136.484C439.251 138.981 413.254 144.357 385.506 148.649C371.683 150.884 357.421 152.779 344.625 154.406C341.417 154.782 338.296 155.145 335.299 155.497C332.302 155.844 329.417 156.194 326.675 156.46C321.194 157.016 316.299 157.55 312.203 157.911L311.905 157.935L309.026 158.205C307.573 158.327 303.637 158.657 298.745 159.069C293.833 159.393 288.486 159.75 283.326 160.093C278.161 160.381 273.185 160.679 268.972 160.989C261.683 161.282 256.898 161.474 253.658 161.604C250.418 161.733 248.709 161.778 247.541 161.865C245.29 162.001 240.662 162.277 235.267 162.499C232.574 162.591 229.682 162.687 226.814 162.782C223.934 162.877 221.067 162.977 218.419 162.999C214.071 163.029 209.899 163.063 205.988 163.088C202.086 163.059 198.447 163.032 195.107 163.012C191.769 163.004 188.776 162.939 186.159 162.874C183.542 162.815 181.313 162.767 179.522 162.728L179.523 162.739C177.969 162.693 176.331 162.678 174.562 162.594C171.627 162.475 167.301 162.303 164.956 162.21C160.533 162.07 156.81 161.784 151.182 161.431C149.373 161.314 145.831 161.11 143.34 160.907C140.851 160.723 137.657 160.486 136.248 160.379C135.556 160.313 133.209 160.202 130.064 159.943C126.919 159.689 122.931 159.369 118.855 159.044C114.791 158.706 111.134 158.306 108.438 158.047C107.103 157.91 106.006 157.797 105.237 157.713C104.468 157.629 104.039 157.578 104.013 157.568C103.922 157.52 103.759 157.527 103.639 157.585C103.579 157.614 102.751 157.571 101.503 157.446C100.873 157.381 100.13 157.306 99.3107 157.226C97.243 157.002 94.9858 156.757 92.6275 156.495C75.7264 154.588 61.3429 152.275 60.0659 152.092C47.3703 150.099 31.2798 146.91 24.2968 145.234L23.3934 145.033L22.9863 144.944L22.8841 144.916L22.4885 144.814L21.7102 144.615C21.2129 144.491 20.7796 144.386 20.5254 144.333C20.0409 144.214 19.7041 144.065 19.7739 143.999C19.8561 143.932 19.6888 143.872 19.4256 143.863C19.1504 143.861 18.9297 143.757 18.933 143.641C18.9196 143.473 18.8308 143.456 18.4772 143.569C18.1237 143.681 18.0095 143.66 17.9201 143.479C17.8308 143.299 17.6665 143.275 17.1237 143.367C16.6054 143.45 16.4291 143.434 16.43 143.289C16.4343 143.028 14.6929 142.663 14.4473 142.876C14.3068 142.997 14.1043 142.964 13.7273 142.782C13.4287 142.642 12.8812 142.516 12.4928 142.504C12.0666 142.489 11.7604 142.411 11.7026 142.312C11.6576 142.219 11.2869 142.115 10.8722 142.087C10.4575 142.06 9.40407 141.858 8.53646 141.636C7.65688 141.421 6.85616 141.255 6.73432 141.295C6.60007 141.336 6.28189 141.264 6.02201 141.139C5.74872 141.003 5.30631 140.941 4.95946 140.981C4.63791 141.025 3.80375 140.909 3.1019 140.728C2.40008 140.548 1.68009 140.453 1.48468 140.511C1.26489 140.577 0.276434 140.407 -1.17691 140.05C-2.36465 139.732 -3.55712 139.511 -3.75348 139.557C-4.14621 139.649 -4.64022 139.882 -4.92402 140.086L1.46458 141.834C3.59827 142.416 5.70854 143.018 7.91246 143.54L14.4659 145.159C16.6464 145.701 18.8279 146.255 21.0781 146.731C55.4239 154.399 92.7465 159.413 131.422 161.944C125.187 161.499 116.507 160.964 106.986 160.065C102.18 159.682 97.2239 159.124 92.156 158.587C87.0664 158.088 82.0243 157.397 77.0007 156.784C67.0235 155.497 57.5217 154.057 49.7409 152.723C47.7898 152.393 45.9174 152.111 44.2171 151.792C42.5167 151.472 40.9305 151.174 39.4839 150.901C36.5781 150.355 34.2309 149.918 32.5812 149.606C28.6793 148.795 22.3623 147.478 18.5369 146.684L18.5498 146.69Z" fill="#00BCF1"/>
<path d="M885.719 110.792C885.25 110.837 885.261 110.995 885.732 111.141C885.912 111.194 889.221 111.511 894.879 112.027C897.708 112.285 901.14 112.586 905.051 112.94L911.274 113.495C913.471 113.672 915.719 113.977 918.098 114.234C922.847 114.767 927.969 115.346 933.397 115.951C938.826 116.569 944.575 117.144 950.384 118.006C956.224 118.806 962.256 119.633 968.386 120.472C971.441 120.906 974.567 121.288 977.622 121.768C980.695 122.247 983.775 122.725 986.856 123.21C992.412 124.189 997.955 125.209 1002.08 125.996C1004.14 126.395 1005.85 126.731 1007.04 126.965C1008.21 127.2 1008.88 127.345 1008.82 127.349C1008.64 127.375 1008.24 127.634 1007.97 127.924C1007.94 127.952 1007.32 127.87 1006.24 127.708L1001.58 126.997C997.637 126.387 992.132 125.537 985.868 124.621C982.523 124.109 979.114 123.6 975.654 123.096C972.186 122.605 968.644 122.173 965.088 121.702C957.961 120.766 950.688 119.822 943.334 118.857C935.87 118.071 928.318 117.271 920.729 116.475C918.826 116.278 916.926 116.073 915.027 115.876C913.124 115.672 911.225 115.468 909.289 115.333L897.717 114.399C893.861 114.087 890.017 113.775 886.172 113.463C884.246 113.307 882.323 113.151 880.416 112.994C878.495 112.857 876.551 112.762 874.631 112.645C866.917 112.201 859.274 111.765 851.737 111.335C847.983 111.082 844.202 110.984 840.471 110.855C836.736 110.727 833.044 110.602 829.388 110.475C822.074 110.24 814.964 109.912 807.981 109.906C801.027 109.824 794.29 109.748 787.824 109.672C786.211 109.653 784.609 109.633 783.034 109.618C781.448 109.61 779.876 109.647 778.325 109.657C775.232 109.688 772.209 109.722 769.262 109.757C763.382 109.818 757.825 109.883 752.657 109.935C750.071 109.938 747.582 110.039 745.185 110.121C742.792 110.203 740.5 110.278 738.32 110.351C729.593 110.645 722.601 110.877 717.789 111.042C715.386 111.138 713.506 111.277 712.236 111.339L710.781 111.428L710.259 111.464C709.508 111.61 709.181 111.758 709.557 111.778C709.632 111.779 710.354 111.755 711.699 111.694C713.033 111.64 714.974 111.53 717.453 111.443C722.418 111.313 729.578 111.129 738.482 110.901C740.701 110.845 743.046 110.78 745.478 110.715L749.208 110.619C750.48 110.596 751.767 110.605 753.077 110.593C758.338 110.568 763.969 110.544 769.926 110.516C781.862 110.334 794.995 110.71 808.99 110.932C864.947 112.114 933.151 118.162 984.451 126.644C989.928 127.621 994.664 128.519 998.034 129.169L1001.97 129.943C1002.88 130.131 1003.38 130.241 1003.38 130.241C1002.99 130.751 999.212 129.932 996.803 130.689C996.681 130.724 996.55 130.667 996.432 130.748C996.253 130.866 996.025 130.829 995.496 130.602C994.932 130.357 994.705 130.333 994.313 130.467C993.973 130.583 993.619 130.562 993.098 130.393C992.124 130.078 989.381 129.609 989.289 129.742C989.244 129.797 988.548 129.707 987.738 129.539C986.673 129.317 985.723 129.132 984.899 128.978L983.749 128.768L983.244 128.678L981.827 128.453C976.496 127.631 973.496 127.239 972.999 127.261C972.263 127.293 971.682 127.181 970.925 126.911C970.244 126.661 969.485 126.535 968.839 126.561C967.504 126.608 962.004 125.824 961.556 125.531C961.375 125.405 960.661 125.23 959.969 125.14C959.288 125.049 958.979 125.13 959.306 125.305C959.813 125.587 958.983 125.506 953.868 124.774C950.537 124.3 947.804 123.976 947.761 124.052C947.714 124.128 946.995 124.027 946.144 123.808C945.304 123.596 944.28 123.423 943.841 123.421C943.418 123.418 942.444 123.275 941.683 123.11C940.286 122.798 932.213 121.889 914.825 119.935C909.782 119.317 904.907 118.912 904.133 118.774C903.363 118.65 902.358 118.581 901.949 118.623C901.528 118.666 899.369 118.5 897.125 118.254C893.186 117.816 889.806 117.557 884.098 117.25C882.583 117.171 881.046 117.008 880.663 116.889C880.472 116.843 879.298 116.674 877.527 116.54C875.757 116.407 873.396 116.255 870.912 116.105C866.196 115.827 861.364 115.538 860.224 115.472C859.96 115.458 859.584 115.438 859.382 115.439C859.059 115.435 856.925 115.3 855.305 115.182C853.938 115.093 846.845 114.632 845.745 114.616C845.129 114.593 843.754 114.551 842.676 114.507C841.097 114.446 837.212 114.308 833.455 114.169C833.143 114.157 831.504 114.14 829.794 114.134C828.081 114.129 826.528 114.112 826.34 114.099L825.511 114.038C825.247 114.017 823.011 113.982 820.536 113.957C818.061 113.945 814.716 113.862 813.083 113.884C811.457 113.892 807.838 113.908 805.05 113.918C801.753 113.937 795.82 113.93 789.62 113.915C786.521 113.921 783.357 113.865 780.411 113.913C777.465 113.96 774.747 114.005 772.549 114.04C768.753 114.095 762.466 114.224 758.59 114.324C757.277 114.363 755.256 114.399 752.725 114.438C751.464 114.467 750.076 114.458 748.57 114.511L743.795 114.68C737.087 114.892 729.122 115.153 721.493 115.396C719.586 115.464 717.699 115.49 715.858 115.586C714.017 115.682 712.225 115.775 710.492 115.863C707.03 116.033 703.855 116.189 701.166 116.325C698.465 116.448 696.245 116.544 694.702 116.619L692.908 116.685C692.496 116.694 692.272 116.697 692.282 116.683L690.375 116.75C689.194 116.8 687.573 116.867 685.779 116.94C682.203 117.105 677.445 117.445 675.19 117.563C671.792 117.754 663.66 118.291 653.472 118.979C643.314 119.816 631.126 120.993 619.581 122.047C611.014 123.024 599.76 124.314 594.591 124.901C591.294 125.291 588.23 125.585 585.383 125.976C582.536 126.367 579.874 126.732 577.327 127.076C572.227 127.783 567.598 128.425 562.91 129.07C560.557 129.4 558.208 129.73 555.758 130.074C553.321 130.43 550.83 130.875 548.172 131.306C542.875 132.192 536.996 133.173 530.005 134.343L522.697 135.569C520.193 136.042 517.652 136.524 515.225 136.985C510.353 137.894 505.925 138.727 503.099 139.255C500.656 139.704 498.23 140.158 495.824 140.597C493.404 141.045 491.01 141.483 488.663 142.005C483.959 143.021 479.297 144.035 474.656 145.041C470.032 146.073 465.404 147.097 460.78 148.128C455.972 149.252 451.152 150.376 446.299 151.509C442.006 152.497 438.314 153.291 435.203 153.991C432.088 154.679 429.553 155.247 427.535 155.646C423.493 156.477 421.57 156.85 421.394 156.849C421.308 156.855 421.122 156.881 420.987 156.931C420.744 156.987 417.001 157.811 411.875 158.785L403.437 160.374L398.972 161.209C397.479 161.466 396.009 161.721 394.603 161.964C387.32 163.215 383.212 163.979 383.01 164.119C382.783 164.267 382.597 164.293 382.428 164.199C382.299 164.135 380.392 164.381 374.618 165.248C371.736 165.668 367.895 166.307 362.796 167.002C357.698 167.716 351.393 168.667 343.54 169.646C339.404 170.181 336.742 170.519 335.105 170.7C333.467 170.867 332.857 170.884 332.839 170.812C332.804 170.669 332.742 170.68 332.591 170.85C332.511 170.941 331.621 171.089 329.096 171.418C326.568 171.727 322.409 172.277 315.785 172.965C311.071 173.448 307.039 173.856 303.292 174.237C299.543 174.579 296.077 174.862 292.499 175.159L286.995 175.603C285.093 175.743 283.128 175.861 281.014 176.003C278.911 176.137 276.685 176.273 274.271 176.429C271.858 176.585 269.271 176.74 266.456 176.864C263.841 176.994 258.499 177.256 254.577 177.452C250.653 177.621 245.716 177.768 243.596 177.831C241.476 177.887 236.665 178.059 232.921 178.123C228.492 178.215 224.737 178.3 221.468 178.363C218.196 178.381 215.41 178.385 212.936 178.379C210.749 178.367 206.615 178.399 203.777 178.367C196.811 178.28 191.959 178.223 188.555 178.144C183.94 178.077 180.275 178.011 178.234 177.949C174.193 177.875 167.677 177.611 163.733 177.484C154.573 177.28 136.867 176.194 130.142 175.614C128.71 175.503 127.077 175.379 125.581 175.259C124.097 175.119 122.777 174.993 121.946 174.913C120.298 174.75 116.901 174.407 114.384 174.153L109.326 173.649L108.448 173.598C108.247 173.586 106.697 173.397 104.995 173.179C103.293 172.961 101.642 172.759 101.328 172.728C97.4916 172.369 93.5172 171.994 91.9159 171.788C90.8201 171.66 89.4345 171.5 88.8049 171.431C87.7078 171.29 80.4289 170.472 79.0311 170.318C77.368 170.118 75.2113 169.833 74.8951 169.775C74.7054 169.743 74.3264 169.683 74.0617 169.649C72.9131 169.485 68.0083 168.85 63.2632 168.178C58.2742 167.411 53.795 166.786 53.3211 166.799C52.8473 166.812 51.2456 166.601 49.7767 166.32C44.2511 165.207 40.9332 164.574 36.8689 163.986C34.547 163.66 32.443 163.232 32.1322 163.075C31.8218 162.925 30.858 162.722 30.0268 162.628C29.1827 162.528 24.3475 161.638 19.2806 160.651C10.7526 158.77 4.42671 157.469 0.242161 156.414L-4.73678 155.255L-6.2343 154.924L-6.74132 154.821C-6.86798 154.796 -6.82929 154.814 -6.87947 154.811C-7.11571 154.827 -7.33125 154.783 -7.37314 154.72C-7.41552 154.65 -7.66693 154.628 -7.95153 154.668C-8.23611 154.707 -8.40051 154.679 -8.33099 154.601C-8.261 154.531 -8.79839 154.35 -9.55821 154.205C-10.6878 153.954 -10.8301 153.884 -10.5036 153.73C-10.2978 153.636 -10.231 153.519 -10.3835 153.483C-10.5239 153.44 -10.7592 153.47 -10.9043 153.539C-11.2423 153.708 -12.4483 153.436 -12.504 153.176C-12.5252 153.052 -12.7145 153.025 -13.0203 153.119C-13.3629 153.222 -13.502 153.199 -13.513 153.041C-13.5273 152.837 -15.8583 152.201 -20.2767 151.195C-21.1151 151.003 -21.7538 150.803 -21.6948 150.753C-21.6239 150.695 -22.2635 150.482 -23.0657 150.267C-23.8682 150.046 -24.7977 149.8 -25.3909 149.716C-26.0219 149.622 -26.2931 149.495 -26.3451 149.287C-26.3994 149.053 -26.5923 148.974 -27.3712 148.91C-28.088 148.848 -28.3051 148.777 -28.2401 148.634C-28.1975 148.532 -28.3858 148.518 -28.4032 148.447C-28.8402 147.023 -32.6695 146.049 -32.1027 145.58C-32.1027 145.58 -31.8871 145.624 -31.4926 145.729C-31.0977 145.833 -30.5249 145.985 -29.7993 146.178C-28.3471 146.572 -26.2465 147.132 -23.7247 147.815C-21.226 148.526 -18.1536 149.222 -14.8854 150.038C-13.2455 150.439 -11.5422 150.854 -9.80054 151.281C-8.93617 151.492 -8.04649 151.707 -7.16926 151.923C-6.26806 152.124 -5.35488 152.318 -4.44126 152.518C14 157.148 33.5762 161.038 52.6022 164.027C57.3868 164.73 62.086 165.465 66.7292 166.111C71.4069 166.715 76.0087 167.305 80.4844 167.877C85.017 168.372 89.424 168.857 93.7049 169.323C95.8338 169.571 97.97 169.745 100.057 169.936C102.145 170.127 104.194 170.307 106.218 170.489C108.23 170.665 110.205 170.857 112.14 171.006C114.086 171.147 115.995 171.285 117.853 171.419C121.57 171.674 125.088 171.963 128.45 172.15L137.869 172.66C139.323 172.737 140.728 172.81 142.07 172.888C143.412 172.953 144.701 172.988 145.929 173.034C150.826 173.207 154.722 173.35 157.403 173.447C160.094 173.522 161.606 173.522 161.731 173.52C162.116 173.486 161.832 173.354 161.098 173.221C161.073 173.222 160.709 173.202 160.02 173.177C159.331 173.153 158.33 173.13 157.038 173.062C154.444 172.94 150.67 172.768 145.882 172.548C143.489 172.452 140.854 172.292 138.005 172.109C135.144 171.933 132.069 171.738 128.769 171.533C125.481 171.327 122.023 171.014 118.368 170.735C116.546 170.592 114.661 170.439 112.752 170.289C110.829 170.14 108.902 169.924 106.915 169.74C102.952 169.337 98.8035 168.98 94.5716 168.496C90.3515 168.005 85.98 167.492 81.5079 166.972C77.0803 166.371 72.539 165.75 67.8967 165.117C63.2776 164.456 58.6379 163.684 53.8883 162.946C35.0171 159.846 15.5315 155.825 -2.90878 151.029C-3.85052 150.785 -4.79224 150.54 -5.72152 150.295C-6.63929 150.035 -7.54466 149.775 -8.43753 149.513C-10.2353 148.998 -11.9954 148.487 -13.6914 147.998C-15.3874 147.509 -17.0199 147.035 -18.5755 146.588C-20.107 146.127 -21.5143 145.658 -22.8305 145.241C-25.4389 144.393 -27.5869 143.69 -29.096 143.195C-30.5933 142.692 -31.4261 142.393 -31.3911 142.357C-31.0993 142.066 -30.9331 141.764 -31.0146 141.67C-31.0155 141.657 -30.7739 141.719 -30.2771 141.85C-29.7935 141.981 -29.0801 142.176 -28.1756 142.423C-26.3917 142.919 -23.8558 143.627 -20.9376 144.441C-18.0547 145.283 -14.6484 146.108 -11.2522 146.968C-7.83253 147.805 -4.45659 148.732 -1.23539 149.412C2.56511 150.335 6.26383 151.233 9.82306 152.101C13.4518 152.89 16.9285 153.651 20.24 154.371C21.9015 154.724 23.4897 155.102 25.0849 155.4L29.7078 156.292C32.697 156.869 35.4705 157.402 37.9909 157.887C43.1139 158.783 47.2847 159.463 50.1927 159.953C53.0888 160.451 54.7903 160.662 54.94 160.658C55.5133 160.638 55.6786 160.501 55.3309 160.353C55.0523 160.3 48.7983 159.132 38.6328 157.24C36.1226 156.722 33.3845 156.16 30.4304 155.548C27.4767 154.942 24.3085 154.304 21.0555 153.528C17.7795 152.779 14.3377 151.983 10.7445 151.164C7.23314 150.266 3.56988 149.34 -0.182743 148.386C-3.26213 147.591 -6.4838 146.548 -9.76162 145.594C-13.016 144.619 -16.2671 143.691 -18.9943 142.751C-21.7573 141.835 -24.1492 141.044 -25.8377 140.481C-27.527 139.912 -28.5003 139.571 -28.4266 139.552C-28.1678 139.501 -27.9523 139.367 -27.9347 139.26C-27.9136 139.027 -26.4572 138.416 -26.1505 138.514C-26.0354 138.552 -25.527 138.497 -25.0213 138.402C-24.5156 138.307 -24.0553 138.281 -23.9875 138.356C-23.92 138.43 -23.6722 138.4 -23.4299 138.29C-23.3453 138.251 -23.2107 138.209 -23.051 138.171L-21.6092 138.599C-21.3922 138.663 -20.9196 138.808 -20.5496 138.921L-17.3462 139.88C-17.244 139.912 -16.6822 140.085 -16.095 140.261C-15.5079 140.438 -14.9843 140.6 -14.9079 140.621L-14.6145 140.706L-12.8913 141.227C-12.0247 141.47 -10.8402 141.79 -10.2669 141.948C-9.69361 142.106 -8.43232 142.454 -7.45097 142.729C-6.29191 143.045 -4.2026 143.619 -2.01156 144.219C-0.916479 144.512 0.180905 144.838 1.2603 145.086C3.94318 145.751 6.42298 146.371 8.41924 146.865C9.97067 147.252 11.7634 147.695 13.6837 148.175C15.6509 148.612 17.7453 149.08 19.8401 149.555C24.0413 150.49 28.2322 151.458 31.5488 152.072C33.6523 152.493 36.8325 153.123 40.7859 153.91C44.7738 154.655 49.6169 155.479 54.9306 156.422C59.0514 157.105 63.5841 157.779 68.3984 158.545C73.2355 159.284 78.4541 159.943 83.8802 160.706C86.6046 161.07 89.4372 161.374 92.2977 161.722C95.1694 162.05 98.0703 162.435 101.065 162.734L110.187 163.648C111.735 163.804 113.282 163.953 114.842 164.108C116.413 164.236 117.997 164.37 119.592 164.496C122.772 164.756 125.988 165.02 129.219 165.289C132.482 165.503 135.758 165.716 139.059 165.935C140.704 166.044 142.361 166.153 144.017 166.255C145.674 166.364 147.353 166.424 149.021 166.512C152.368 166.675 155.715 166.836 159.063 166.998C172.504 167.498 185.985 167.855 199.002 167.816C225.006 167.864 248.976 166.886 266.368 165.806C268.547 165.693 270.611 165.555 272.575 165.418C274.54 165.28 276.393 165.15 278.121 165.029C281.577 164.78 284.575 164.603 287.009 164.387C291.891 163.978 294.599 163.756 294.599 163.756C296.474 163.591 298.548 163.413 300.833 163.213C303.117 162.987 305.61 162.733 308.315 162.464L317.123 161.57C320.272 161.211 323.656 160.828 327.275 160.416C363.87 156.121 398.998 150.514 435.263 142.917C440.561 141.872 448.652 139.989 457.751 138.057C466.846 136.111 476.768 133.995 485.298 132.174C491.832 130.904 497.889 129.786 503.525 128.71C509.171 127.653 514.399 126.633 519.385 125.742C529.414 124.087 538.344 122.622 547.151 121.166C551.531 120.397 555.979 119.847 560.468 119.195C564.974 118.562 569.575 117.91 574.4 117.228C584.004 115.762 594.634 114.647 607.099 113.139C609.552 112.849 612.712 112.475 616.343 112.043C619.978 111.662 624.086 111.289 628.393 110.868C632.7 110.454 637.205 110.026 641.646 109.596C646.092 109.179 650.481 108.706 654.575 108.452C660.041 108.049 665.601 107.64 671.141 107.232L679.46 106.616C680.84 106.519 682.219 106.41 683.598 106.306C684.98 106.236 686.347 106.16 687.717 106.09C698.66 105.536 709.264 104.918 718.904 104.487C728.541 104.189 737.206 103.919 744.274 103.701C751.338 103.425 756.777 103.48 759.986 103.434C764.244 103.399 773.249 103.324 780.003 103.267C783.387 103.208 786.427 103.273 788.64 103.303C790.854 103.333 792.227 103.356 792.242 103.355C792.49 103.357 799.182 103.45 809.386 103.588C811.938 103.627 814.712 103.644 817.656 103.716C820.586 103.821 823.679 103.935 826.91 104.052C833.362 104.288 840.339 104.539 847.456 104.794C849.232 104.841 851.015 104.941 852.785 105.055L858.114 105.376C861.667 105.59 865.216 105.797 868.717 106.008C875.696 106.444 882.502 106.761 888.614 107.337C900.882 108.368 910.884 109.167 915.698 109.61C922.763 110.371 934.194 111.592 941.104 112.331C943.091 112.555 945.343 112.761 947.726 113.063C950.098 113.38 952.644 113.717 955.292 114.066C960.592 114.766 966.289 115.523 971.866 116.27C974.655 116.649 977.425 116.984 980.065 117.381C982.705 117.777 985.243 118.161 987.615 118.517L992.052 119.211L995.182 119.705L998.09 120.169L1000.03 120.489L1000.36 120.545L1001.7 120.769L1003.13 121.006C1004.6 121.253 1006.11 121.518 1006.73 121.626L1007.93 121.833L1009.53 122.117C1009.57 122.201 1009.59 122.278 1009.59 122.331C1009.56 122.492 1009.68 122.609 1009.84 122.585C1010 122.567 1010.26 122.753 1010.42 123.013C1010.58 123.267 1010.82 123.494 1010.94 123.519C1011.29 123.581 1011.21 124.518 1010.86 124.668C1010.69 124.739 1010.62 124.903 1010.7 125.036C1010.71 125.068 1010.02 124.978 1008.78 124.794L1003.65 124.037C999.377 123.404 993.674 122.567 987.956 121.785C984.839 121.329 981.734 120.866 978.628 120.409C975.534 119.945 972.387 119.591 969.296 119.179C963.105 118.384 957.017 117.607 951.128 116.85C945.273 116.037 939.464 115.506 933.99 114.938C928.516 114.376 923.329 113.847 918.546 113.356C916.147 113.127 913.878 112.844 911.656 112.695L905.375 112.21C901.43 111.912 897.963 111.652 895.111 111.429C889.384 111.004 886.032 110.77 885.82 110.791L885.719 110.792ZM548.752 125.502C542.332 126.738 536.59 127.761 531.124 128.693C525.654 129.638 520.398 130.416 515.062 131.451C509.694 132.442 504.159 133.47 497.976 134.611C494.895 135.197 491.651 135.807 488.202 136.492C484.792 137.246 481.19 138.054 477.313 138.94C469.567 140.712 462.368 142.274 455.485 143.747C448.544 145.252 442.021 146.673 435.696 147.863L426.44 149.655C423.391 150.206 420.404 150.746 417.458 151.282C411.576 152.388 405.793 153.349 400.072 154.397C377.134 158.536 357.616 161.013 346.49 162.533C341.116 163.227 336.423 163.826 332.361 164.349C328.284 164.826 324.851 165.225 322.001 165.557C316.314 166.246 312.936 166.542 311.536 166.713C310.135 166.864 310.681 166.819 312.792 166.619L317.073 166.206L323.384 165.513L331.43 164.619C334.369 164.301 337.526 163.875 340.896 163.473C344.252 163.047 347.81 162.652 351.485 162.137C355.161 161.635 358.972 161.117 362.884 160.585C378.484 158.368 395.437 155.687 410.605 153.025C414.692 152.302 418.551 151.576 422.266 150.899C424.116 150.551 425.941 150.232 427.716 149.883C429.49 149.534 431.216 149.188 432.928 148.85C436.343 148.162 439.632 147.502 442.847 146.853C446.037 146.161 449.16 145.486 452.24 144.821C458.332 143.508 464.287 142.219 470.441 140.889C476.558 139.555 482.885 138.173 489.736 136.675C503.593 133.953 508.571 133.003 511.9 132.373L516.565 131.504C518.304 131.184 520.532 130.724 524.212 130.129C541.503 127.213 548.777 125.494 548.777 125.494L548.752 125.502Z" fill="#00BCF1"/>
</g>
</g>
</g>
<defs>
<clipPath id="clip0_517_383">
<rect width="466" height="183" fill="white"/>
</clipPath>
</defs>
</svg>
