<svg width="1135" height="657" viewBox="0 0 1135 657" fill="none" xmlns="http://www.w3.org/2000/svg">
<path fill-rule="evenodd" clip-rule="evenodd" d="M3198.69 280.587C3202.23 282.703 3204.18 286.289 3203.77 289.938C3203.81 291.171 3204.63 292.301 3205.9 292.888C3209.64 294.637 3213.62 300.238 3212.29 302.065C3211.85 304.458 3212.32 306.921 3213.65 309.09C3215 311.569 3215.64 314.281 3215.51 316.996C3215.16 318.436 3215.43 319.848 3216.15 319.867C3219.57 320.822 3217.89 340.591 3214.46 340.506C3213.4 340.438 3212.86 341.127 3213.38 341.968C3216.31 346.633 3192.61 370.813 3185.47 370.218C3184.6 370.156 3183.97 370.636 3184.19 372.048C3184.41 373.459 3183.24 374.092 3178.26 374.669C3173.28 375.248 3171.82 376.327 3171.21 378.257C3170.6 380.185 3168.66 381.377 3164.54 382.225C3156.89 383.811 3139.02 390.806 3139.68 392.022C3139.68 392.435 3135.5 394.48 3129.97 396.328C3100.86 405.935 3085.18 412.241 3084.92 413.805C3084.66 415.37 3083.5 415.383 3081.67 414.468C3079.85 413.555 3078.69 413.731 3078.34 414.964C3077.72 417.554 3069.72 420.082 3067.76 418.338C3066.94 417.574 3065.66 417.313 3064.54 417.676C3063.62 418.026 3063.17 418.636 3065.03 420.171C3066.9 421.707 3065.92 422.427 3058.4 424.637L3056.66 425.213L3054.23 426.063C3051.47 427.109 3048.94 428.079 3046.85 428.937C3045.98 429.304 3045.18 429.629 3044.45 429.924C3041.7 431.041 3040.09 431.694 3040.39 432.29C3040.76 433.044 3037.95 433.966 3033.98 434.403C3030.63 434.651 3027.4 435.546 3024.53 437.02C3021.96 438.467 3019.05 439.423 3016 439.824C3012.04 440.406 2998.08 445.011 2971.18 453.892C2955.65 459.016 2935.81 465.562 2911.09 473.581C2891.35 479.868 2872.35 485.262 2869.01 485.717C2865.99 485.988 2863.14 487.008 2860.81 488.653C2855.09 491.465 2848.9 493.512 2842.43 494.726C2825.4 498.965 2808.79 504.328 2792.77 510.764C2788.51 512.613 2783.88 513.746 2779.1 514.101C2766.04 516.581 2753.19 519.78 2740.63 523.68L2714.9 531.014L2699.34 535.215C2698.26 535.49 2697.2 535.836 2696.19 536.251C2694.83 536.631 2686.69 538.866 2680.29 540.401L2643.03 550.01C2640.85 550.7 2635.32 552.091 2631.16 553.103C2628.26 553.711 2623.35 554.961 2617.45 556.462C2610.84 558.145 2602.98 560.145 2595.3 561.92C2594.75 562.162 2593.04 562.676 2590.71 563.376C2588.14 564.146 2584.83 565.139 2581.48 566.245C2581 566.405 2580.52 566.563 2580.05 566.72C2574.23 568.644 2569.15 570.32 2568.44 570.301L2565.05 570.753C2564.1 570.836 2557.74 572.712 2550.02 574.989C2548.7 575.38 2547.34 575.782 2545.95 576.188C2536.5 578.968 2523.65 582.616 2517.4 584.279C2516.02 584.647 2514.26 585.12 2512.25 585.664C2505.17 587.577 2494.89 590.351 2486.44 592.392C2460.95 599.03 2393.68 614.087 2358.54 619.986L2303.02 630.375C2299.38 631.089 2294.36 631.928 2288.23 632.955C2285.54 633.404 2282.64 633.89 2279.54 634.417C2269.38 636.146 2257.14 637.947 2243.5 639.63L2199.68 645.186L2152.83 649.755C2137.26 651.431 2122.09 652.455 2107.59 653.372C2103.06 653.659 2098.68 653.957 2094.45 654.245C2085.16 654.878 2076.63 655.46 2068.93 655.749C2057.72 656.17 2048.5 656.434 2042.03 656.519C2038.67 656.736 2035.29 656.651 2031.94 656.265L2024.02 656.313C2022.61 656.337 2021.05 656.384 2019.37 656.435C2015.19 656.562 2010.25 656.711 2004.94 656.577C1989.98 656.49 1970.09 656.237 1960.68 656C1958.67 655.949 1956.27 655.912 1953.51 655.869C1946.51 655.761 1937.17 655.615 1925.93 655.124L1899.96 654.47L1885.48 654.106L1877.8 653.912L1869.75 653.42C1821.01 650.967 1772.41 646.402 1724.12 639.741L1694.54 635.604L1664.15 630.082C1660.66 629.408 1657.22 628.778 1653.88 628.164C1647.77 627.042 1641.95 625.974 1636.6 624.796L1615.42 620.127C1593.08 615.233 1573.64 609.781 1555.74 604.762C1550.73 603.357 1545.84 601.988 1541.05 600.674C1532.82 598.212 1524.93 595.664 1517.2 593.168C1514.72 592.367 1512.26 591.572 1509.8 590.787C1508.13 590.251 1506.46 589.719 1504.8 589.19C1496.41 586.522 1488.12 583.887 1480.1 580.855L1450.36 570.138C1441.11 566.773 1431.87 563.027 1422.04 559.046C1421.1 558.664 1420.15 558.281 1419.2 557.895L1402.49 551.146L1385.17 543.595C1372.98 538.366 1360.11 532.787 1346.78 526.29C1344.92 525.402 1343.03 524.499 1341.1 523.584C1333.94 520.178 1326.38 516.581 1318.82 512.804L1290.82 498.449C1273.04 488.983 1257.08 480.184 1247.17 474.557C1237.51 469.024 1228.03 463.555 1218.69 458.171C1194.96 444.484 1172.19 431.349 1149.97 419.122C1119.02 402.087 1088.53 386.014 1057.83 371.591C1047.91 366.926 1039.09 362.952 1031.29 359.44C1028.42 358.149 1025.69 356.919 1023.1 355.742C1016.34 352.673 1010.45 350.173 1005.4 348.031C1003.24 347.116 1001.24 346.267 999.389 345.466C993.198 342.786 988.639 340.728 985.617 339.329C983.915 338.73 982.305 337.952 980.822 337.016C980.488 336.72 980.046 336.534 979.573 336.487C978.705 336.383 967.085 331.829 951.53 325.481C946.026 323.516 940.095 321.299 933.974 319.01C922.354 314.666 910.05 310.065 898.683 306.447C876.823 298.575 863.636 295.553 862.369 296.349C861.103 297.144 860.629 296.554 860.641 295.685C860.653 294.817 855.085 292.483 837.54 286.831L800.931 276.726C796.054 275.412 790.614 274.197 784.774 272.893C781.276 272.114 777.629 271.303 773.894 270.419L773.078 270.227C763.28 267.915 752.474 265.364 740.186 263.324C713.756 258.438 706.196 256.511 706.507 255.113C706.818 253.714 706.729 253.547 705.736 255.093C704.743 256.64 693.611 255.202 650.49 249.193C634.956 247.478 621.703 245.986 609.415 244.518C603.293 243.703 597.319 243.138 591.375 242.658L573.691 240.97L555.414 239.105C553.872 238.944 552.316 238.774 550.745 238.603C545.883 238.07 540.857 237.518 535.491 237.196L486.501 233.19C477.77 232.35 459.152 231.508 445.588 230.961C432.025 230.412 414.86 229.4 407.522 228.926C400.185 228.451 383.538 228.032 370.509 227.704L349.074 227.164L330.723 227.033C319.339 226.953 309.63 226.708 301.002 226.49H300.988L285.838 226.108L269.029 226.223L211.085 226.624C205.155 226.641 193.074 226.916 184.284 227.148L168.053 227.609L153.57 228.236L122.99 229.493L122.308 229.53C119.017 229.712 112.658 230.066 103.646 231.032L67.3733 235.331C57.5752 236.361 46.9021 237.855 35.592 239.443C30.0481 240.218 24.356 241.016 18.5156 241.793C-53.1992 252.275 -124.188 265.838 -194.198 282.43C-236.578 292.489 -277.682 303.491 -316.756 315.287C-355.831 327.084 -393.096 339.423 -427.975 352.029L-453.753 361.514L-473.898 369.279C-479.086 371.215 -483.978 373.22 -488.78 375.182C-489.551 375.497 -490.322 375.812 -491.078 376.126C-500.609 379.872 -509.385 383.576 -517.522 387.005C-518.931 387.598 -520.309 388.182 -521.673 388.757C-540.469 396.514 -555.233 403.133 -565.387 407.758C-569.33 409.478 -573.214 411.202 -577.053 413.007L-580.121 414.336C-580.388 414.468 -580.551 414.625 -580.684 414.742C-580.907 414.94 -580.996 415.024 -581.233 414.681C-581.603 414.133 -582.686 414.726 -583.56 416.069C-587.385 419.639 -592.528 421.986 -598.146 422.733C-599.347 422.621 -600.073 422.974 -599.792 423.396C-597.523 426.637 -617.683 421.746 -621.063 418.351C-622.13 417.35 -623.375 416.496 -624.754 415.818C-625.94 415.246 -626.799 414.28 -627.125 413.151C-627.155 412.282 -628.267 411.883 -629.572 411.85C-632.566 412.229 -646.603 403.893 -648.293 400.747C-649.049 399.322 -650.294 398.122 -651.866 397.307C-653.363 396.732 -653.778 396.101 -653.348 395.822C-652.903 395.544 -654.193 394.478 -656.209 393.433C-658.892 392.216 -660.552 389.79 -660.463 387.204C-660.907 383.76 -661.471 382.919 -663.205 383.247C-665.829 383.718 -670.573 378.347 -669.239 375.898C-667.904 373.449 -669.713 371.874 -675.538 370.693C-681.364 369.513 -687.664 364.349 -699.418 351.436C-694.497 348.914 -688.76 346.039 -685.662 344.545C-678.31 340.882 -666.941 335.543 -649.879 327.701L-629.823 318.858L-611.028 310.811L-585.68 300.488L-561.844 291.204L-537.193 281.979C-532.776 280.312 -527.484 278.46 -522.636 276.763L-505.012 270.133C-501.35 268.732 -497.882 267.513 -494.813 266.431C-493.123 265.835 -491.537 265.281 -490.114 264.759C-420.341 239.672 -372.003 225.461 -326.155 213.09C-280.306 200.72 -236.992 189.815 -175.15 176.895C-167.131 175.332 -159.675 173.844 -152.722 172.457C-140.79 170.075 -130.354 167.994 -121.179 166.343L-87.2925 160.331C-75.1968 158.105 -68.9563 157.124 -65.9473 156.652C-64.791 156.468 -64.1091 156.363 -63.7683 156.29C-62.5527 156.031 -62.1226 156.042 -62.1226 156.042L-47.2253 153.812L-25.3462 150.432C-19.3279 149.506 -12.3611 148.585 -4.40112 147.535C-0.161621 146.973 4.37451 146.375 9.19214 145.719C100.948 133.556 162.835 129.574 203.273 126.971C209.291 126.584 214.835 126.227 219.919 125.88L260.995 124.018L273.016 123.535C274.35 123.562 275.669 123.514 276.989 123.387C277.611 123.284 281.673 123.181 288.966 122.999C291.812 122.928 295.177 122.844 299.001 122.742L323.934 122.13C325.565 122.09 327.24 122.046 328.944 122.001C337.646 121.773 347.207 121.524 357.731 121.615C364.327 121.628 371.102 121.608 377.965 121.587C391.454 121.545 405.299 121.504 418.951 121.711L477.651 122.941L541.436 125.995L544.282 126.068C545.334 125.961 554.169 126.693 572.283 128.196C576.656 128.559 581.577 128.968 587.062 129.42L611.179 131.392C619.198 132.226 627.944 133.279 637.549 134.434L640.825 134.827C644.324 135.248 647.926 135.658 651.631 136.08C659.458 136.971 667.759 137.916 676.49 139.119L718.173 145.587C785.367 156.681 851.389 172.85 915.456 193.906C980.128 215.549 1042.53 242.038 1101.93 273.057C1107.94 275.952 1114.86 279.669 1122.58 283.821C1126.5 285.93 1130.63 288.152 1134.96 290.435C1144.31 295.371 1154.4 301.005 1164.99 306.916C1168.94 309.12 1172.95 311.364 1177.03 313.624C1193.74 323.148 1211.22 333.237 1228.3 343.097C1241.72 350.845 1254.9 358.451 1267.27 365.533C1309.95 389.979 1346.66 410.013 1380.51 427.122C1385.92 429.704 1391.21 432.287 1396.42 434.831C1407.78 440.375 1418.76 445.735 1429.82 450.493L1453.52 461.019L1477.19 470.591C1548.08 499.09 1622.77 519.765 1699.45 532.113C1701 532.371 1702.62 532.663 1704.31 532.968C1707.71 533.583 1711.39 534.247 1715.35 534.788L1734.62 537.342C1738.9 537.843 1743.33 538.421 1747.9 539.019C1758.22 540.367 1769.23 541.805 1780.66 542.637L1805.78 544.883L1818.61 546.035C1822.85 546.514 1827.15 546.622 1831.4 546.729L1880.85 549.175C1962.46 551.468 2044.05 549.004 2125.07 541.801L2176.47 536.767L2220.38 531.503L2239.1 529.246L2255.21 526.921L2279.4 523.393C2290.64 521.987 2310.55 518.701 2330.14 515.47C2338.34 514.116 2346.49 512.772 2353.92 511.579L2399.37 503.294C2399.53 503.243 2400.35 503.095 2401.78 502.837C2404.66 502.318 2409.99 501.358 2417.33 499.858L2462.84 490.623C2465.57 490.037 2468.37 489.438 2471.23 488.827C2488.07 485.225 2507.11 481.152 2527.4 476.324C2531.72 475.297 2536.11 474.259 2540.54 473.209C2560.49 468.49 2581.54 463.51 2602.78 457.956C2707 431.958 2816.99 396.922 2851.92 385.393C2877.57 376.898 2919.1 362.64 2944.09 353.755C2948.87 352.009 2954.02 350.149 2959.48 348.18C2970.47 344.212 2982.71 339.795 2995.68 334.953L3012.96 328.521L3024.02 324.292C3038.83 318.708 3052.9 313.231 3060.72 310.159L3079.66 302.613L3097.23 295.486L3108.94 290.652L3110.93 289.875L3119.04 286.522L3127.58 282.89L3149.34 273.76L3156.63 270.676L3166.34 266.494C3167.13 266.815 3167.87 267.222 3168.54 267.708C3169.93 268.818 3171.47 269.146 3172.01 268.415C3172.55 267.684 3175.45 267.882 3178.52 268.91C3180.73 269.796 3183.14 270.198 3185.56 270.08C3187.65 269.141 3196.01 275.266 3195.98 277.622C3196.09 278.985 3197.17 280.161 3198.69 280.587ZM-688.183 330.377C-686.478 329.571 -684.773 328.756 -683.128 327.969L-683.113 327.962C-677.673 325.368 -672.885 323.084 -671.358 322.518C-670.469 322.184 -668.126 321.083 -664.969 319.599L-664.954 319.593C-661.13 317.797 -656.135 315.444 -651.05 313.215C-647.359 311.619 -643.698 309.973 -640.007 308.319C-637.813 307.339 -635.619 306.355 -633.425 305.378L-624.235 301.468C-618.765 299.074 -612.095 296.367 -605.499 293.691L-605.484 293.686C-601.837 292.205 -598.206 290.735 -594.811 289.331L-576.223 282.055C-575.096 281.586 -564.468 277.423 -552.387 273.006L-535.548 266.846L-529.485 264.721L-523.704 262.547C-505.886 255.625 -460.275 239.299 -413.73 224.694C-401.842 220.853 -389.094 217.033 -378.288 213.868C-374.36 212.719 -370.683 211.624 -367.363 210.639C-361.552 208.912 -356.883 207.522 -354.037 206.776L-353.726 206.687C-327.385 199.293 -261.599 180.822 -173.252 162.672C-128.798 153.605 -78.6506 144.723 -25.1387 136.754C28.3733 128.784 85.3242 122.351 143.194 117.639C254.947 108.621 367.396 105.92 479.83 109.555C558.468 111.68 636.912 118.986 714.452 131.408C748.19 136.399 799.449 147.216 828.227 154.359C835.496 155.95 842.421 157.864 848.867 159.682L866.422 164.514L884.988 169.621C887.631 170.474 890.756 171.422 892.054 171.786C893.353 172.15 896.286 173.053 898.689 173.858C899.051 173.98 899.952 174.258 901.316 174.68C908.996 177.056 931.395 183.986 955.538 193.139C968.133 197.436 981.45 202.793 993.58 207.675L996.475 208.839C997.243 209.147 998.005 209.454 998.761 209.756C1012.2 215.148 1023.43 220.11 1029.62 222.957C1032.28 224.134 1034.96 225.303 1037.66 226.48C1042.92 228.77 1048.26 231.095 1053.62 233.583L1078.17 245.3C1086.57 249.197 1094.91 253.466 1103.4 257.82C1105.9 259.105 1108.42 260.392 1110.96 261.684L1110.97 261.685L1110.99 261.695C1117.04 264.775 1123.15 267.888 1129.19 271.1C1163.94 289.369 1199.72 309.899 1236.5 331.075C1242.64 334.608 1248.8 338.167 1254.99 341.742L1254.99 341.743C1285.9 359.594 1317.49 377.836 1349.99 395.182C1388.86 416.214 1428.96 435.485 1470.13 452.912L1488.19 460.199L1488.75 460.43C1494.46 462.777 1500.04 465.069 1505.67 466.976L1539.06 478.957C1543.42 480.321 1547.72 481.679 1551.94 483.017C1568.8 488.352 1584.62 493.358 1599.93 497.055C1603.26 497.914 1606.53 498.806 1609.75 499.686C1615.81 501.343 1621.71 502.954 1627.59 504.211L1653.73 510.005L1666.19 512.762C1668.79 513.354 1671.39 513.796 1673.98 514.235C1675.47 514.487 1676.95 514.738 1678.43 515.017L1701.98 519.172C1713.34 521.368 1724.47 522.803 1735.38 524.209H1735.38C1739.13 524.692 1742.85 525.172 1746.55 525.678L1767.99 528.537L1789.4 530.484L1810.81 532.39L1821.66 533.367C1825.28 533.459 1828.95 533.551 1832.62 533.975L1878.4 536.288H1878.4C1887.29 536.511 1898.58 536.797 1911.42 536.871C1915.54 536.895 1919.82 536.975 1924.23 537.056C1933.55 537.228 1943.45 537.412 1953.61 537.106L1999.54 536.399L2043.65 534.488C2057.23 534.019 2071.18 532.963 2084.88 531.926L2085.74 531.862C2090.02 531.537 2094.29 531.241 2098.51 530.946H2098.51C2108.03 530.282 2117.3 529.636 2126.05 528.737C2135.99 527.742 2145.29 526.843 2153.56 526.042H2153.56H2153.56C2166.2 524.817 2176.44 523.827 2182.9 523.087C2189.27 522.324 2195.41 521.6 2201.33 520.902L2201.33 520.901C2225.67 518.029 2246.32 515.593 2263.87 512.704L2293.33 508.477L2316.8 504.678L2349.85 499.258C2355.26 498.355 2359.87 497.497 2364.02 496.723L2364.03 496.721C2366.49 496.262 2368.79 495.833 2371.01 495.443C2374.07 494.874 2377.73 494.204 2381.77 493.463L2381.82 493.454L2381.83 493.453C2396.97 490.68 2417.54 486.913 2432.73 483.704C2442.41 481.713 2454.47 479.283 2466.18 476.929L2497.13 470.087L2518.83 465.293L2549.49 457.99C2567.84 453.775 2588.69 448.428 2610.3 442.884L2610.31 442.882L2610.32 442.878C2615.68 441.502 2621.1 440.114 2626.53 438.728C2681.04 424.407 2736.8 407.922 2765.06 399.358L2810.69 385.144C2822.83 381.157 2834.52 377.36 2843.96 374.296L2843.96 374.293L2844.03 374.272C2846.67 373.414 2849.14 372.613 2851.38 371.882C2890.19 358.946 2929.73 345.53 2991.17 322.646L3009.37 315.858L3020.44 311.622C3025.55 309.651 3030.31 307.782 3035.41 305.788L3035.42 305.782L3035.42 305.781C3040.97 303.61 3046.9 301.289 3054.07 298.515C3055.29 298.023 3056.81 297.409 3058.51 296.722C3063.02 294.906 3068.78 292.586 3073.25 290.716L3090.64 283.658C3104.85 277.887 3119.06 272.005 3133.27 266.014L3161.2 253.963C3162.21 252.542 3163.09 251.055 3163.82 249.515C3164.93 246.607 3166.82 243.975 3169.34 241.828C3170.75 241.201 3171.8 238.163 3171.61 235.051C3171.6 229.942 3169.22 225.008 3164.99 221.343L3149.74 227.916L3142.98 230.77L3122.49 239.24L3114.43 242.598L3106.81 245.761L3104.91 246.499L3093.84 250.983L3077.24 257.605L3059.33 264.607L3024.67 277.813C3020 279.531 3015.31 281.271 3010.76 282.963C3001.53 286.388 2992.83 289.617 2985.85 292.074C2962.36 300.8 2923.39 314.81 2899.14 323.02C2882.69 328.733 2848.69 340.135 2806.64 353.487C2764.6 366.839 2714.51 381.769 2665.61 395.113C2616.71 408.458 2569.96 420.325 2534.79 428.3L2510.86 433.91L2492.32 437.956L2475.51 441.674L2463.02 444.34C2458.26 445.438 2452.34 446.602 2445.7 447.906L2445.7 447.908C2441.72 448.69 2437.48 449.521 2433.09 450.419C2421.38 452.816 2407.82 455.538 2395.19 457.748L2363.68 463.413C2361.6 463.774 2359.27 464.197 2356.69 464.663C2352.29 465.461 2347.16 466.387 2341.36 467.365L2308.9 472.552L2289.54 475.667L2268.11 478.687C2262.81 479.382 2257.37 480.157 2251.8 480.949L2251.79 480.951C2241.75 482.382 2231.27 483.874 2220.42 485.065C2145.5 494.605 2069.95 500.5 1994.12 502.72L1948.48 503.393C1942.3 503.561 1936.09 503.45 1929.9 503.337C1928.2 503.307 1926.51 503.276 1924.83 503.252L1901.61 502.915L1879.41 502.355L1859.14 501.349L1826.57 499.7L1794.94 496.915L1779.94 495.585L1772.66 494.904L1765.53 493.979L1738.15 490.392L1725 488.651C1722.31 488.299 1719.67 487.818 1717.04 487.339L1717.03 487.337C1715.46 487.052 1713.9 486.767 1712.33 486.511C1680.83 481.4 1649.63 474.849 1618.89 466.888L1596.38 460.855C1591.15 459.592 1586.04 457.944 1580.87 456.28L1580.87 456.278C1578.48 455.507 1576.07 454.73 1573.63 453.988C1565.94 451.64 1558.2 449.209 1550.27 446.608L1526.25 437.926L1513.71 433.47L1501.04 428.347C1498.11 427.144 1495.14 425.954 1492.14 424.751C1486.34 422.427 1480.42 420.055 1474.44 417.448L1446.27 404.895C1440.22 402.13 1434.01 399.112 1427.66 396.023L1427.65 396.021C1423.94 394.214 1420.17 392.381 1416.34 390.558C1367.7 366.907 1306.68 331.704 1270.28 310.701L1270.27 310.698L1270.24 310.681C1265.86 308.15 1261.83 305.825 1258.22 303.753C1200.74 270.708 1143.49 238.746 1083.48 210.441C1023.19 181.795 960.16 157.731 895.124 138.527L854.624 127.486C849.873 126.129 845.204 124.993 840.684 123.894L840.66 123.888C839.288 123.554 837.927 123.223 836.583 122.891L819.932 119.034C815.504 118.043 811.26 117.071 807.19 116.139C801.48 114.832 796.114 113.602 791.059 112.509L767.609 108.025C762.806 107.126 758.433 106.278 754.49 105.513L754.475 105.51C747.078 104.076 741.179 102.93 736.776 102.279L725.659 100.591L722.857 100.148L704.017 97.2717L684.747 94.3428C679.811 93.6074 674.504 93.0117 668.886 92.3831C666.129 92.0739 663.297 91.756 660.407 91.4111C625.365 86.9244 581.043 83.3242 542.607 80.9882L485.092 78.3386L463.554 77.7971C462.25 77.8484 460.945 77.8156 459.656 77.6987L447.916 77.4023C439.807 77.1985 427.015 76.8763 407.715 76.7209C401.682 76.7766 395.026 76.7994 387.674 76.8236C347.948 76.9604 288.21 77.1642 200.353 82.8853C190.258 83.6249 181.482 84.2278 173.878 84.7509L173.848 84.7523L173.834 84.7537C160.893 85.6445 151.376 86.2987 144.587 86.9885L130.075 88.2784L128.49 88.2385C127.911 88.2242 126.266 88.3981 122.723 88.7729C119.121 89.1535 113.577 89.7407 105.187 90.5502L104.09 90.6529C95.8782 91.4211 85.2205 92.4174 71.3311 94.1291C66.469 94.7277 61.2659 95.2992 55.6777 95.9135L55.6628 95.9149C44.575 97.1321 31.9753 98.5146 17.6116 100.603L-25.4944 106.515L-64.0647 113.079C-80.7556 115.515 -96.5867 118.425 -112.388 121.327C-119.503 122.633 -126.604 123.938 -133.763 125.197C-179.656 134.186 -228.41 143.932 -299.398 162.434C-302.259 163.201 -305.654 164.086 -309.434 165.073L-309.464 165.081L-309.493 165.087C-316.519 166.92 -324.865 169.099 -333.61 171.512L-373.796 182.923L-412.055 194.382L-441.776 203.945C-446.979 205.558 -454.761 208.205 -463.729 211.255C-466.041 212.042 -468.428 212.857 -470.888 213.688C-482.821 217.736 -495.777 222.338 -507.176 226.481C-508.302 226.89 -509.414 227.294 -510.526 227.696L-512.705 228.479L-512.72 228.489C-517.478 230.201 -522.103 231.873 -526.594 233.612L-542.515 239.629C-543.463 239.977 -544.382 240.318 -545.301 240.651V240.653C-548.458 241.806 -551.423 242.887 -554.21 243.973L-573.035 251.242C-575.422 252.12 -578.831 253.454 -582.419 254.859C-586.11 256.309 -590.008 257.835 -593.18 259.017C-610.42 265.83 -621.833 270.718 -629.319 273.966L-645.981 281.25C-658.699 286.809 -671.284 292.58 -683.869 298.599C-684.299 298.804 -684.892 299.091 -685.647 299.457L-685.662 299.461C-691.77 302.406 -708.386 310.429 -729.139 321.684C-727.316 322.367 -725.33 322.659 -723.358 322.534C-722.498 322.555 -721.935 323.647 -722.202 325.254C-722.824 329.379 -717.518 336.263 -712.048 339.009C-711.114 339.515 -710.225 340.107 -709.424 340.774L-707.29 339.668C-704.755 338.558 -699.167 335.797 -693.4 332.954C-691.651 332.088 -689.887 331.213 -688.183 330.377ZM-765.026 292.871C-760.639 290.288 -756.31 291.474 -757.941 294.167C-760.802 298.735 -754.398 310.824 -748.528 311.428C-746.912 311.593 -745.371 312.149 -744.096 313.03C-735.246 308.076 -725.804 303.218 -714.909 297.696C-694.334 287.32 -673.73 277.733 -652.933 268.566C-652.043 268.18 -650.754 267.614 -649.212 266.931C-645.091 265.116 -639.117 262.48 -633.796 260.267L-616.838 253.156L-596.486 244.888C-589.608 241.958 -583.441 239.708 -580.536 238.647C-579.558 238.294 -578.965 238.071 -578.817 238.003L-569.641 234.548L-523.911 217.392C-519.375 215.768 -515.002 214.187 -510.867 212.685C-502.966 209.826 -495.851 207.253 -489.937 205.202L-472.756 199.091C-469.688 198.009 -440.442 188.1 -407.267 177.961C-380.096 169.656 -353.355 162.175 -341.215 158.776L-341.2 158.773C-338.517 158.023 -336.56 157.472 -335.448 157.155L-290.475 145.698C-284.471 144.28 -278.142 142.739 -271.59 141.143L-271.575 141.14C-256.53 137.474 -240.283 133.516 -223.859 130.063C-220.094 129.242 -216.27 128.384 -212.46 127.53C-204.04 125.644 -195.68 123.77 -188.15 122.306L-163.692 117.414C-137.454 112.027 -71.2092 99.0348 17.1816 87.6769C120.677 74.4577 225.137 66.7969 329.967 64.7417C339.602 64.3654 349.267 64.3527 358.947 64.3412C363.512 64.3341 368.093 64.3284 372.658 64.2842C386.903 64.1459 401.163 64.0904 415.349 64.2415L457.847 65.0225L478.941 65.5541C483.655 65.6724 488.398 65.9033 493.112 66.1328C495.439 66.2468 497.766 66.3594 500.079 66.4592L541.821 68.4217L552.153 68.6826L562.381 69.4778L582.733 71.1097C587.313 71.4918 591.849 71.8494 596.371 72.2057H596.385C605.19 72.8984 613.906 73.584 622.533 74.4306L661.104 78.8403L679.766 81.0082C684.021 81.5483 688.26 82.2068 692.44 82.8582L692.455 82.8596C694.293 83.1446 696.116 83.4297 697.939 83.7033L732.967 89.0594L741.401 90.3478L749.687 91.9242L765.83 95.0227L796.455 100.93L849.7 113.247L891.074 124.52C897.241 126.095 903.91 128.187 910.905 130.383L910.923 130.389C913.312 131.139 915.74 131.901 918.199 132.658L948.01 142.065L976.555 152.27C985.59 155.438 993.856 158.38 1000.58 161.157C1004.91 162.883 1009.17 164.565 1013.29 166.19C1022.14 169.682 1030.31 172.904 1036.93 175.701L1054.41 183.306C1056.9 184.405 1059.88 185.68 1061.13 186.168C1062.38 186.654 1065.16 187.843 1067.42 188.894C1067.66 189.008 1068.17 189.242 1068.91 189.583L1068.92 189.586L1068.92 189.588C1075.02 192.396 1096.93 202.478 1120.77 214.218C1147.53 227.401 1178.31 244.039 1189.71 250.292C1218.71 266.263 1249.8 284.027 1282.19 302.695C1314.58 321.362 1348.4 340.646 1383.45 359.338C1418.72 378.124 1455.03 395.391 1492.26 411.076C1529.58 426.677 1568.13 439.94 1607.61 450.761L1624.74 455.335C1626.16 455.704 1627.56 456.08 1628.96 456.455C1633.11 457.569 1637.19 458.663 1641.3 459.479L1672.83 466.446C1676.67 467.434 1680.78 468.139 1684.78 468.825C1685.8 468.999 1686.81 469.172 1687.81 469.349L1702.26 471.909L1716.23 474.332C1720.76 475.191 1725.24 475.967 1729.72 476.494L1755.61 479.879C1758.25 480.207 1760.84 480.567 1763.41 480.924C1768.96 481.695 1774.37 482.444 1779.72 482.806L1824.48 486.833C1832.47 487.196 1840.25 487.61 1847.9 488.016H1847.9C1867.59 489.062 1886.37 490.06 1905.47 490.032C1918.7 490.366 1931.93 490.699 1945.6 490.464L1988.01 489.834C1993.75 489.978 2000.57 489.629 2008.2 489.24C2011.53 489.069 2015.02 488.891 2018.64 488.743C2021.26 488.634 2023.95 488.529 2026.7 488.421C2036.45 488.039 2046.96 487.627 2057.78 486.994C2062.23 486.689 2066.74 486.385 2071.28 486.079C2095.12 484.473 2119.88 482.804 2141.37 480.527C2145.39 480.101 2149.45 479.672 2153.54 479.24C2175.52 476.92 2198.23 474.523 2217.89 472.224C2231.03 470.686 2243 469.014 2252.73 467.654H2252.73H2252.73C2260.25 466.604 2266.42 465.74 2270.77 465.273C2282.16 463.795 2292.75 462.065 2302.54 460.466C2305.85 459.924 2309.07 459.399 2312.19 458.902C2315.69 458.348 2319.11 457.825 2322.44 457.314C2330.92 456.014 2338.85 454.802 2346.08 453.378L2395.46 444.515L2446.36 434.16L2504.05 421.78C2510.25 420.32 2517.55 418.639 2525.06 416.907L2525.06 416.905C2539.33 413.616 2554.38 410.145 2564.22 407.681C2567.68 406.802 2572.02 405.72 2577.09 404.454L2577.1 404.453C2586.81 402.033 2599.19 398.947 2613.22 395.33C2634.59 389.821 2659.85 383.044 2685.35 375.734C2736.45 361.366 2788.79 345.205 2815.27 336.636C2827.94 332.566 2843.41 327.57 2858.06 322.598C2862.16 321.207 2866.21 319.84 2870.12 318.519C2880.19 315.115 2889.38 312.012 2896.3 309.561C2914.2 303.454 2932.19 296.989 2952.86 289.56L2952.87 289.557L2953.91 289.185L2996.62 273.486L3018.71 265.262L3050.51 253.058L3068.63 245.936L3085.04 239.391C3088.29 238.106 3106.5 230.82 3125.25 223.008L3147.99 213.309C3142.12 212.803 3136.21 213.129 3130.49 214.277C3128.75 215.019 3127.07 214.19 3125.93 212.464C3124.43 210.45 3122.27 208.865 3119.72 207.917C3116.5 206.759 3115.74 205.995 3116.91 204.947C3117.79 203.687 3117.81 202.109 3116.97 200.807C3116.07 199.334 3116.04 197.842 3117.01 197.494C3117.98 197.147 3117.95 195.861 3117.29 194.727C3116.63 193.592 3116.65 192.391 3117.33 192.036C3120.39 190.704 3120.76 184.75 3118.02 180.331C3116.64 178.501 3115.98 176.351 3116.13 174.196C3117.12 172.646 3112.17 166.806 3108.57 165.265C3102.56 166.152 3096.79 167.912 3091.5 170.469C3081.79 174.365 3075.68 176.117 3074.34 175.379C3070.65 175.218 3067.01 176.006 3063.88 177.642C3060.2 179.379 3056.04 180.272 3051.81 180.237C3049.34 179.843 3046.81 180.434 3044.93 181.845C3043.13 183.166 3040.99 183.899 3040.08 183.463C3035.87 184.068 3031.85 185.374 3028.25 187.305C3023.42 189.482 3018.33 191.2 3013.06 192.432C3010.4 192.737 3007.92 193.834 3007.52 194.902C3007.12 195.968 3004.98 196.867 3002.32 197.007C2999.3 197.336 2996.46 198.384 2994.12 200.031C2991.48 202.077 2990.13 202.374 2989.28 201.11C2988 198.8 2976.5 202.735 2976.17 205.584C2976.15 207.116 2974.8 207.331 2971.67 206.424C2968.54 205.517 2967.24 205.65 2966.44 207.618C2965.64 209.585 2964.86 209.814 2962.8 208.603C2960.74 207.391 2960.06 207.54 2959.8 209.355C2959.45 210.764 2958.02 211.77 2956.33 211.794C2954.65 211.753 2953.57 212.512 2953.95 213.225C2954.32 213.939 2951.98 215.578 2948.73 216.781L2903.33 234.689C2875.26 245.952 2811.78 268.665 2762.59 284.076L2722.48 296.775L2683.68 308.512L2637.9 321.855C2632.11 323.54 2626.45 325.07 2621.06 326.53C2618.16 327.315 2615.33 328.081 2612.6 328.839C2609.5 329.671 2606.69 330.388 2604.26 330.948C2601.65 331.791 2598.89 332.252 2596.08 332.316C2595.56 331.722 2594.88 331.664 2594.59 332.278C2593.15 332.928 2591.63 333.458 2590.07 333.863C2587.26 334.785 2583.18 336.091 2578.14 337.497L2539.11 348.442L2474.5 365.411L2448.37 372.663L2419.58 380.635C2415.42 381.776 2411.54 382.849 2407.88 383.865L2407.87 383.867C2393.35 387.887 2382.04 391.021 2369.17 393.903L2333.99 402.046C2323.35 404.393 2313.91 406.39 2305.32 408.206L2305.31 408.208H2305.31C2300.29 409.269 2295.57 410.267 2291.08 411.237L2273.74 414.941L2257.61 417.89C2251.83 418.931 2246.06 420.017 2240.27 421.103L2240.26 421.106L2240.26 421.107C2230.49 422.941 2220.71 424.78 2210.89 426.405C2203.24 427.662 2191.92 429.282 2178.81 431.064C2165.7 432.847 2150.85 434.502 2136.19 435.914C2106.93 439.111 2078.61 440.593 2067.12 440.8L2050.64 441.172L2032.97 441.264L2000.56 441.443C1996.05 441.51 1990.84 441.427 1982.85 441.303H1982.85H1982.84C1979.78 441.254 1976.3 441.2 1972.31 441.145L1944.98 440.83L1926.25 440.358L1903.47 439.453L1891.79 439.158C1886.96 439.037 1880.92 438.884 1874.7 438.397L1833.88 435.877C1829.37 435.763 1824.69 435.233 1819.89 434.688C1817.4 434.405 1814.87 434.118 1812.32 433.884L1789.99 431.583L1779.38 430.487L1769.74 429.043L1753.98 426.657C1751.06 426.199 1748.18 425.768 1745.35 425.342H1745.35C1740.86 424.667 1736.49 424.01 1732.2 423.292L1711.97 419.345L1691.79 415.564L1671.09 410.901C1668.59 410.314 1666.06 409.741 1663.48 409.158C1658.72 408.082 1653.8 406.967 1648.56 405.653L1623.5 398.809C1616.33 397.046 1608.92 394.67 1601.03 392.14C1599.01 391.493 1596.97 390.837 1594.88 390.178L1578.92 385.178C1575.13 383.881 1571.26 382.463 1567.27 381.005C1565.49 380.353 1563.68 379.693 1561.86 379.032C1521.36 364.301 1482.06 347.173 1444.25 327.777C1406.46 308.6 1370.48 287.856 1339.44 269.885C1333.36 266.336 1316.87 257.181 1302.44 249.321C1292.83 244.362 1283.6 238.872 1274.81 232.885C1274.2 231.73 1272.73 231.088 1271.3 231.347C1269.8 231.632 1268.21 231.367 1266.92 230.616C1265.62 229.879 1253.06 223.226 1238.15 215.809C1235.65 214.548 1232.86 213.135 1229.86 211.612L1229.84 211.6C1224.01 208.648 1217.36 205.278 1210.38 201.773L1180.35 187.141C1174.82 184.563 1168.39 181.493 1161.14 178.03L1161.13 178.025L1161.13 178.024C1135.77 165.906 1100.33 148.973 1057.69 131.409C997.109 106.378 934.429 85.4122 870.215 68.701C809.389 53.3282 747.597 41.1224 685.177 32.1475C673.911 30.7508 663.223 29.3312 653.232 28.0043C639.803 26.2184 627.618 24.6008 616.96 23.4292C613.966 23.1 611.09 22.7864 608.348 22.4857C594.058 20.9222 583.193 19.7335 576.566 18.7672C571.156 18.009 554.717 15.8555 540.101 14.9077L499.486 11.6067L483.24 10.1616L472.033 9.34198C468.283 8.99854 448.583 8.04639 428.216 7.24255C421.96 6.99744 415.912 6.77942 410.472 6.58276H410.457C398.184 6.13947 389.023 5.81018 387.719 5.51947C382.901 4.73553 334.31 2.22711 304.649 2.63904C299.327 2.88983 293.961 2.51794 288.729 1.53448C278.471 0.435608 268.125 0.174744 257.837 0.756287C241.695 1.30212 225.611 1.68408 222.128 1.55438C218.659 1.42615 205.185 1.3349 192.289 1.83801C179.378 2.34113 164.065 2.7431 158.462 2.80865C151.362 2.9198 144.647 3.04095 137.695 3.27899C130.98 3.50989 123.939 4.00299 116.023 4.55743L115.164 4.61725L86.5991 6.83777C75.6299 7.63879 62.9558 8.97571 47.9102 10.6675L15.062 14.2306C8.34717 14.9518 1.89893 15.8212 -4.28223 16.655C-7.58789 17.0996 -10.8047 17.5344 -13.9619 17.9306L-39.6953 21.4239C-49.197 22.6739 -58.4612 24.1604 -67.5479 25.617C-73.8774 26.6332 -80.1182 27.6351 -86.2996 28.5345L-108.43 32.119L-129.732 35.9715C-156.265 40.5979 -181.079 45.6761 -204.456 50.4621L-204.515 50.4734C-208.917 51.3757 -213.261 52.2664 -217.574 53.1429C-244.745 58.6715 -269.544 64.5906 -292.476 70.3501C-336.056 80.7929 -372.566 91.0419 -403.709 99.7845L-408.809 101.215C-458.496 115.712 -493.198 127.105 -518.219 135.32V135.323L-518.263 135.333C-525.394 137.678 -531.753 139.764 -537.445 141.589C-552.49 146.866 -567.862 151.456 -583.501 155.338C-584.583 155.549 -585.709 155.823 -586.91 156.112L-586.925 156.116C-587.385 156.229 -587.859 156.344 -588.348 156.458C-588.6 156.538 -588.837 156.608 -589.089 156.668C-589.297 156.718 -589.504 156.762 -589.711 156.798L-590.571 156.775C-591.461 156.939 -592.247 157.322 -592.869 157.878C-599.169 162.255 -606.017 166.013 -613.296 169.085C-616.497 170.714 -619.21 172.937 -621.27 175.592C-622.441 177.74 -624.798 179.231 -627.555 179.576C-637.546 179.739 -646.929 184.265 -641.208 186.191C-638.094 187.264 -650.961 192.986 -654.282 192.115C-657.602 191.245 -665.147 195.445 -671.743 201.243C-674.486 203.808 -677.792 205.866 -681.497 207.293C-688.85 210.617 -695.312 215.22 -700.471 220.814C-703.865 223.743 -707.66 226.316 -711.781 228.482C-715.576 230.421 -718.896 232.982 -721.535 236.022C-724.366 238.984 -727.909 241.379 -731.926 243.05C-736.788 245.496 -741.131 248.493 -741.19 249.65C-744.333 253.695 -748.202 257.287 -752.634 260.297C-757.125 263.169 -760.861 266.792 -763.648 270.953C-763.662 271.906 -764.952 273.696 -767.235 275.005C-769.874 276.724 -771.949 278.995 -773.268 281.604C-773.994 282.9 -774.513 284.281 -774.78 285.708C-775.254 286.821 -775.269 288.049 -774.824 289.185C-773.505 291.786 -772.082 293.397 -770.348 293.772C-769.473 294.016 -768.524 294.038 -767.65 293.84C-766.686 293.696 -765.797 293.364 -765.026 292.871Z" fill="#F0F2F9"/>
</svg>
