<svg width="1440" height="609" viewBox="0 0 1440 609" fill="none" xmlns="http://www.w3.org/2000/svg">
<path fill-rule="evenodd" clip-rule="evenodd" d="M2464.77 259.744C2467.93 261.707 2469.67 265.031 2469.3 268.415C2469.34 269.558 2470.06 270.606 2471.2 271.15C2474.54 272.772 2478.08 277.965 2476.9 279.659C2476.5 281.878 2476.93 284.162 2478.1 286.173C2479.31 288.471 2479.89 290.986 2479.77 293.504C2479.45 294.839 2479.69 296.148 2480.34 296.165C2483.38 297.051 2481.89 315.382 2478.83 315.302C2477.89 315.239 2477.41 315.879 2477.87 316.658C2480.48 320.984 2459.35 343.403 2452.98 342.852C2452.21 342.794 2451.64 343.239 2451.84 344.549C2452.04 345.857 2451 346.444 2446.56 346.979C2442.12 347.516 2440.81 348.516 2440.27 350.306C2439.73 352.094 2437.99 353.198 2434.33 353.985C2427.5 355.456 2411.58 361.942 2412.16 363.069C2412.16 363.452 2408.43 365.349 2403.5 367.061C2377.56 375.97 2363.58 381.816 2363.34 383.267C2363.11 384.718 2362.07 384.73 2360.45 383.882C2358.82 383.035 2357.79 383.199 2357.47 384.342C2356.92 386.743 2349.79 389.087 2348.05 387.47C2347.31 386.761 2346.17 386.52 2345.17 386.856C2344.35 387.18 2343.95 387.746 2345.61 389.169C2347.27 390.594 2346.4 391.261 2339.7 393.311L2338.15 393.845L2335.98 394.632C2333.52 395.602 2331.27 396.502 2329.41 397.298C2328.63 397.638 2327.91 397.939 2327.27 398.212C2324.81 399.248 2323.37 399.854 2323.64 400.406C2323.97 401.105 2321.47 401.96 2317.93 402.366C2314.94 402.596 2312.06 403.426 2309.5 404.792C2307.21 406.134 2304.62 407.02 2301.89 407.392C2298.37 407.932 2285.93 412.202 2261.94 420.437C2248.09 425.187 2230.41 431.257 2208.37 438.692C2190.77 444.521 2173.83 449.523 2170.86 449.945C2168.16 450.196 2165.62 451.142 2163.55 452.667C2158.45 455.275 2152.92 457.172 2147.16 458.298C2131.97 462.229 2117.17 467.201 2102.88 473.169C2099.09 474.883 2094.96 475.934 2090.7 476.263C2079.05 478.563 2067.6 481.529 2056.4 485.145L2033.46 491.946L2019.59 495.84C2018.62 496.095 2017.68 496.416 2016.78 496.801C2015.57 497.154 2008.31 499.226 2002.6 500.649L1969.38 509.559C1967.44 510.199 1962.52 511.488 1958.8 512.427C1956.22 512.991 1951.84 514.15 1946.58 515.542C1940.69 517.102 1933.68 518.956 1926.84 520.602C1926.34 520.826 1924.82 521.303 1922.74 521.952C1920.45 522.666 1917.5 523.587 1914.52 524.613C1914.09 524.761 1913.66 524.907 1913.24 525.053C1908.05 526.837 1903.52 528.391 1902.89 528.374L1899.87 528.793C1899.02 528.869 1893.35 530.608 1886.47 532.72C1885.29 533.082 1884.07 533.455 1882.84 533.832C1874.41 536.41 1862.96 539.792 1857.39 541.334C1856.15 541.675 1854.59 542.114 1852.79 542.618C1846.48 544.392 1837.31 546.964 1829.78 548.856C1807.06 555.012 1747.08 568.973 1715.76 574.442L1666.26 584.075C1663.01 584.737 1658.54 585.515 1653.07 586.467C1650.68 586.884 1648.09 587.334 1645.33 587.823C1636.27 589.426 1625.36 591.096 1613.2 592.657L1574.13 597.808L1532.36 602.045C1518.48 603.599 1504.95 604.548 1492.03 605.399C1487.99 605.664 1484.08 605.941 1480.32 606.208C1472.04 606.795 1464.43 607.334 1457.56 607.602C1447.57 607.992 1439.34 608.237 1433.58 608.316C1430.58 608.518 1427.57 608.439 1424.58 608.081L1417.52 608.126C1416.27 608.148 1414.88 608.191 1413.38 608.238C1409.65 608.356 1405.25 608.494 1400.52 608.37C1387.17 608.289 1369.44 608.055 1361.05 607.835C1359.26 607.788 1357.13 607.754 1354.67 607.714C1348.42 607.613 1340.1 607.479 1330.07 607.023L1306.92 606.417L1294.01 606.079L1287.17 605.899L1279.99 605.443C1236.54 603.168 1193.21 598.935 1150.16 592.76L1123.78 588.924L1096.69 583.803C1093.58 583.179 1090.52 582.594 1087.53 582.025C1082.09 580.984 1076.9 579.994 1072.13 578.902L1053.25 574.573C1033.33 570.035 1016 564.98 1000.04 560.326C995.576 559.024 991.219 557.754 986.945 556.535C979.61 554.253 972.573 551.89 965.682 549.576C963.471 548.834 961.274 548.096 959.088 547.368C957.596 546.871 956.108 546.378 954.623 545.888C947.143 543.414 939.754 540.97 932.609 538.16L906.096 528.222C897.85 525.102 889.609 521.629 880.847 517.938C880.007 517.583 879.162 517.228 878.313 516.87L863.416 510.612L847.97 503.611C837.102 498.762 825.635 493.59 813.749 487.565C812.092 486.742 810.402 485.905 808.687 485.057C802.301 481.898 795.56 478.563 788.82 475.061L763.86 461.75C748.007 452.974 733.783 444.815 724.942 439.597C716.334 434.467 707.881 429.396 699.558 424.404C678.4 411.713 658.096 399.534 638.29 388.197C610.694 372.402 583.517 357.499 556.147 344.125C547.299 339.8 539.432 336.115 532.481 332.859C529.924 331.662 527.491 330.521 525.178 329.43C519.152 326.584 513.901 324.266 509.399 322.28C507.477 321.432 505.692 320.644 504.042 319.901C498.521 317.417 494.458 315.509 491.763 314.211C490.246 313.656 488.811 312.934 487.488 312.066C487.191 311.792 486.797 311.619 486.375 311.576C485.601 311.479 475.241 307.257 461.373 301.371C456.467 299.548 451.179 297.493 445.722 295.371C435.363 291.343 424.393 287.077 414.26 283.722C394.771 276.423 383.015 273.621 381.885 274.359C380.756 275.096 380.333 274.549 380.344 273.743C380.354 272.938 375.391 270.775 359.749 265.534L327.111 256.164C322.764 254.946 317.914 253.82 312.707 252.61C309.588 251.888 306.337 251.136 303.007 250.316L302.28 250.138C293.545 247.994 283.911 245.629 272.955 243.738C249.392 239.208 242.653 237.421 242.93 236.124C243.208 234.827 243.128 234.672 242.243 236.106C241.357 237.54 231.433 236.206 192.99 230.635C179.14 229.045 167.325 227.661 156.37 226.3C150.912 225.544 145.586 225.021 140.287 224.576L124.521 223.011L108.227 221.281C106.852 221.132 105.465 220.974 104.064 220.816C99.7294 220.322 95.2494 219.81 90.4654 219.511L46.789 215.797C39.0052 215.018 22.4067 214.237 10.3148 213.73C-1.77723 213.221 -17.0804 212.283 -23.622 211.843C-30.1636 211.403 -45.0043 211.014 -56.6205 210.71L-75.7299 210.209L-92.0904 210.088C-102.24 210.014 -110.896 209.786 -118.587 209.584H-118.6L-132.106 209.23L-147.092 209.337L-198.751 209.708C-204.037 209.724 -214.807 209.979 -222.644 210.195L-237.115 210.622L-250.026 211.203L-277.289 212.369L-277.897 212.403C-280.831 212.572 -286.5 212.9 -294.535 213.796L-326.873 217.782C-335.608 218.737 -345.123 220.122 -355.207 221.594C-360.149 222.313 -365.224 223.053 -370.431 223.773C-434.366 233.493 -497.654 246.069 -560.07 261.453C-597.852 270.78 -634.498 280.981 -669.334 291.919C-704.169 302.858 -737.393 314.298 -768.488 325.987L-791.469 334.782L-809.429 341.981C-814.054 343.776 -818.415 345.635 -822.697 347.455C-823.384 347.747 -824.072 348.039 -824.746 348.33C-833.243 351.803 -841.066 355.238 -848.321 358.417C-849.577 358.967 -850.806 359.509 -852.022 360.041C-868.779 367.234 -881.941 373.372 -890.994 377.66C-894.509 379.255 -897.971 380.853 -901.394 382.527L-904.13 383.759C-904.367 383.882 -904.513 384.027 -904.632 384.135C-904.83 384.319 -904.909 384.397 -905.121 384.079C-905.451 383.571 -906.416 384.121 -907.196 385.366C-910.605 388.676 -915.191 390.853 -920.2 391.545C-921.27 391.441 -921.917 391.769 -921.666 392.16C-919.644 395.165 -937.617 390.629 -940.63 387.482C-941.582 386.554 -942.692 385.762 -943.921 385.133C-944.978 384.603 -945.744 383.707 -946.035 382.661C-946.062 381.855 -947.053 381.484 -948.216 381.454C-950.885 381.806 -963.4 374.076 -964.907 371.159C-965.581 369.838 -966.691 368.725 -968.092 367.969C-969.426 367.437 -969.796 366.851 -969.413 366.592C-969.017 366.334 -970.166 365.346 -971.964 364.377C-974.356 363.249 -975.836 360.999 -975.756 358.602C-976.153 355.408 -976.655 354.628 -978.201 354.932C-980.54 355.37 -984.769 350.389 -983.58 348.119C-982.391 345.848 -984.003 344.388 -989.196 343.292C-994.39 342.198 -1000.01 337.41 -1010.49 325.437C-1006.1 323.098 -1000.98 320.433 -998.222 319.048C-991.667 315.651 -981.531 310.701 -966.321 303.43L-948.44 295.23L-931.683 287.768L-909.085 278.197L-887.835 269.588L-865.858 261.035C-861.92 259.489 -857.202 257.772 -852.881 256.198L-837.168 250.051C-833.904 248.752 -830.811 247.622 -828.076 246.619C-826.569 246.066 -825.155 245.552 -823.886 245.068C-761.682 221.807 -718.587 208.63 -677.712 197.159C-636.838 185.69 -598.222 175.579 -543.088 163.599C-535.939 162.149 -529.292 160.77 -523.094 159.484C-512.455 157.275 -503.152 155.346 -494.972 153.814L-464.761 148.24C-453.978 146.176 -448.414 145.267 -445.731 144.829C-444.701 144.659 -444.093 144.561 -443.789 144.494C-442.705 144.253 -442.322 144.264 -442.322 144.264L-429.04 142.195L-409.535 139.062C-404.169 138.203 -397.958 137.349 -390.862 136.375C-387.082 135.855 -383.038 135.3 -378.743 134.692C-296.94 123.414 -241.767 119.722 -205.715 117.308C-200.35 116.949 -195.407 116.619 -190.875 116.296L-154.255 114.57L-143.537 114.122C-142.348 114.147 -141.172 114.102 -139.996 113.985C-139.441 113.89 -135.82 113.795 -129.318 113.625C-126.78 113.559 -123.781 113.481 -120.371 113.387L-98.143 112.819C-96.6893 112.782 -95.1959 112.741 -93.6762 112.7C-85.9188 112.489 -77.3949 112.258 -68.0121 112.342C-62.1313 112.354 -56.092 112.336 -49.9733 112.316C-37.9474 112.277 -25.6043 112.239 -13.4331 112.431L38.8994 113.571L95.7648 116.403L98.3022 116.471C99.2405 116.372 107.117 117.051 123.266 118.444C127.164 118.781 131.552 119.16 136.441 119.579L157.943 121.408C165.092 122.181 172.889 123.158 181.453 124.228L184.373 124.593C187.492 124.983 190.703 125.363 194.007 125.754C200.985 126.58 208.385 127.456 216.169 128.572L253.331 134.569C313.235 144.856 372.096 159.848 429.213 179.371C486.87 199.44 542.505 224.001 595.462 252.762C600.821 255.446 606.983 258.893 613.866 262.743C617.363 264.698 621.046 266.759 624.905 268.876C633.246 273.452 642.24 278.676 651.677 284.157C655.198 286.201 658.779 288.281 662.411 290.377C677.311 299.207 692.892 308.563 708.121 317.705C720.086 324.889 731.835 331.942 742.864 338.508C780.915 361.175 813.64 379.751 843.817 395.614C848.644 398.009 853.361 400.403 858.007 402.762C868.134 407.903 877.922 412.873 887.778 417.285L908.911 427.044L930.015 435.92C993.213 462.345 1059.8 481.515 1128.16 492.965C1129.55 493.204 1130.99 493.475 1132.5 493.758C1135.53 494.327 1138.81 494.943 1142.34 495.445L1159.52 497.813C1163.33 498.277 1167.28 498.814 1171.35 499.367C1180.55 500.618 1190.37 501.951 1200.56 502.723L1222.96 504.805L1234.4 505.873C1238.18 506.317 1242.01 506.418 1245.8 506.517L1289.89 508.785C1362.64 510.911 1435.38 508.626 1507.61 501.947L1553.43 497.279L1592.58 492.399L1609.27 490.306L1623.63 488.15L1645.2 484.879C1655.23 483.575 1672.97 480.529 1690.43 477.533C1697.75 476.278 1705.01 475.031 1711.63 473.925L1752.16 466.243C1752.3 466.196 1753.03 466.058 1754.31 465.819C1756.87 465.338 1761.63 464.447 1768.17 463.057L1808.74 454.494C1811.18 453.95 1813.67 453.395 1816.22 452.828C1831.23 449.489 1848.21 445.712 1866.3 441.236C1870.15 440.283 1874.06 439.321 1878.02 438.347C1895.8 433.972 1914.56 429.354 1933.51 424.204C2026.42 400.098 2124.48 367.612 2155.61 356.923C2178.49 349.046 2215.51 335.826 2237.79 327.587C2242.05 325.968 2246.64 324.244 2251.51 322.417C2261.31 318.738 2272.22 314.643 2283.78 310.154L2299.18 304.19L2309.05 300.269C2322.25 295.091 2334.8 290.012 2341.77 287.164L2358.65 280.167L2374.32 273.559L2384.75 269.077L2386.53 268.356L2393.76 265.247L2401.38 261.88L2420.77 253.414L2427.27 250.554L2435.93 246.677C2436.64 246.974 2437.3 247.352 2437.9 247.803C2439.13 248.832 2440.5 249.136 2440.99 248.458C2441.47 247.78 2444.05 247.964 2446.79 248.917C2448.76 249.739 2450.91 250.111 2453.06 250.002C2454.92 249.131 2462.38 254.811 2462.35 256.995C2462.45 258.259 2463.41 259.349 2464.77 259.744ZM-1000.47 305.91C-998.949 305.164 -997.429 304.408 -995.962 303.678L-995.949 303.672C-991.099 301.266 -986.831 299.148 -985.47 298.623C-984.677 298.314 -982.589 297.293 -979.774 295.917L-979.761 295.912C-976.351 294.246 -971.898 292.065 -967.365 289.998C-964.074 288.518 -960.81 286.991 -957.519 285.458C-955.564 284.549 -953.607 283.637 -951.652 282.731L-943.458 279.106C-938.582 276.886 -932.635 274.376 -926.754 271.894L-926.741 271.89C-923.49 270.517 -920.252 269.153 -917.226 267.852L-900.654 261.105C-899.65 260.67 -890.174 256.81 -879.404 252.715L-864.391 247.003L-858.986 245.033L-853.832 243.017C-837.947 236.599 -797.284 221.461 -755.788 207.919C-745.189 204.358 -733.824 200.816 -724.19 197.881C-720.688 196.816 -717.411 195.801 -714.451 194.887C-709.27 193.286 -705.107 191.997 -702.57 191.305L-702.293 191.223C-678.809 184.367 -620.16 167.24 -541.397 150.411C-501.764 142.004 -457.057 133.768 -409.35 126.379C-361.643 118.989 -310.869 113.024 -259.277 108.655C-159.647 100.294 -59.3957 97.7895 40.8422 101.159C110.949 103.13 180.884 109.904 250.013 121.422C280.091 126.05 325.79 136.079 351.446 142.703C357.927 144.178 364.101 145.953 369.847 147.639L385.498 152.119L402.05 156.854C404.406 157.645 407.192 158.524 408.35 158.861C409.507 159.2 412.123 160.036 414.265 160.783C414.587 160.896 415.391 161.154 416.607 161.545C423.453 163.748 443.423 170.174 464.947 178.66C476.176 182.645 488.048 187.612 498.862 192.139L501.443 193.218C502.128 193.504 502.807 193.788 503.481 194.068C515.466 199.067 525.477 203.669 530.994 206.308C533.361 207.4 535.752 208.483 538.161 209.575C542.852 211.699 547.61 213.854 552.386 216.161L574.278 227.026C581.763 230.639 589.199 234.597 596.765 238.634C598.997 239.826 601.249 241.019 603.512 242.217L603.516 242.218L603.533 242.227C608.926 245.083 614.375 247.969 619.758 250.948C650.739 267.887 682.638 286.923 715.433 306.558C720.904 309.834 726.398 313.134 731.916 316.448L731.919 316.449C759.476 333.002 787.635 349.916 816.611 365.999C851.262 385.501 887.016 403.369 923.722 419.527L939.815 426.284L940.316 426.498C945.407 428.675 950.381 430.8 955.4 432.568L985.167 443.677C989.061 444.942 992.888 446.201 996.657 447.442C1011.69 452.388 1025.79 457.03 1039.44 460.458C1042.41 461.255 1045.32 462.082 1048.19 462.897C1053.6 464.434 1058.85 465.927 1064.1 467.093L1087.4 472.465L1098.51 475.022C1100.83 475.571 1103.15 475.98 1105.46 476.387C1106.78 476.621 1108.1 476.854 1109.42 477.113L1130.42 480.965C1140.54 483.002 1150.47 484.332 1160.19 485.635H1160.2C1163.54 486.083 1166.86 486.529 1170.15 486.998L1189.27 489.649L1208.36 491.454L1227.45 493.221L1237.12 494.128C1240.35 494.212 1243.62 494.298 1246.88 494.691L1287.7 496.835H1287.7C1295.62 497.043 1305.69 497.307 1317.14 497.376C1320.81 497.398 1324.63 497.472 1328.56 497.548C1336.87 497.708 1345.69 497.878 1354.76 497.594L1395.7 496.938L1435.02 495.166C1447.13 494.731 1459.57 493.752 1471.78 492.791L1472.55 492.732C1476.37 492.431 1480.17 492.156 1483.93 491.882H1483.93C1492.42 491.266 1500.69 490.668 1508.48 489.834C1517.35 488.911 1525.64 488.078 1533.01 487.335H1533.01H1533.01C1544.28 486.2 1553.41 485.281 1559.17 484.595C1564.85 483.888 1570.32 483.217 1575.6 482.569L1575.6 482.568C1597.3 479.905 1615.71 477.647 1631.36 474.968L1657.62 471.048L1678.55 467.527L1708.01 462.501C1712.83 461.663 1716.94 460.867 1720.64 460.15L1720.65 460.148C1722.84 459.723 1724.9 459.325 1726.87 458.963C1729.6 458.436 1732.86 457.815 1736.47 457.127L1736.51 457.119L1736.52 457.118C1750.02 454.546 1768.35 451.054 1781.9 448.079C1790.53 446.233 1801.28 443.98 1811.72 441.796L1839.31 435.453L1858.66 431.007L1885.99 424.236C1902.36 420.328 1920.94 415.37 1940.21 410.229L1940.21 410.228L1940.23 410.224C1945.01 408.948 1949.83 407.661 1954.67 406.375C2003.28 393.097 2052.98 377.812 2078.18 369.871L2118.86 356.691C2129.68 352.995 2140.1 349.474 2148.52 346.633L2148.52 346.63L2148.58 346.611C2150.94 345.815 2153.13 345.072 2155.14 344.394C2189.73 332.4 2224.98 319.961 2279.76 298.742L2295.99 292.448L2305.85 288.52C2310.41 286.693 2314.66 284.96 2319.2 283.111L2319.21 283.106L2319.22 283.105C2324.16 281.092 2329.44 278.939 2335.84 276.368C2336.92 275.912 2338.28 275.342 2339.8 274.705C2343.82 273.021 2348.95 270.87 2352.94 269.136L2368.44 262.592C2381.11 257.241 2393.78 251.787 2406.45 246.231L2431.35 235.058C2432.25 233.74 2433.03 232.362 2433.69 230.933C2434.67 228.237 2436.36 225.797 2438.6 223.806C2439.86 223.225 2440.8 220.407 2440.62 217.523C2440.62 212.785 2438.49 208.21 2434.72 204.812L2421.13 210.907L2415.11 213.553L2396.84 221.407L2389.65 224.52L2382.85 227.453L2381.17 228.137L2371.3 232.295L2356.49 238.434L2340.52 244.927L2309.63 257.172C2305.46 258.765 2301.29 260.378 2297.22 261.947C2289 265.123 2281.24 268.117 2275.02 270.396C2254.07 278.486 2219.34 291.477 2197.71 299.089C2183.05 304.387 2152.73 314.959 2115.25 327.339C2077.77 339.719 2033.12 353.562 1989.52 365.935C1945.92 378.309 1904.24 389.312 1872.89 396.707L1851.56 401.909L1835.02 405.661L1820.04 409.107L1808.9 411.58C1804.66 412.597 1799.38 413.677 1793.46 414.886L1793.46 414.887C1789.91 415.613 1786.14 416.383 1782.22 417.216C1771.78 419.439 1759.69 421.963 1748.43 424.011L1720.34 429.264C1718.49 429.599 1716.41 429.991 1714.11 430.423C1710.18 431.163 1705.61 432.022 1700.44 432.929L1671.5 437.738L1654.24 440.627L1635.14 443.427C1630.41 444.071 1625.56 444.79 1620.6 445.524L1620.59 445.526C1611.63 446.853 1602.29 448.236 1592.62 449.341C1525.83 458.186 1458.47 463.652 1390.86 465.711L1350.18 466.334C1344.67 466.49 1339.13 466.387 1333.61 466.283C1332.1 466.255 1330.59 466.226 1329.09 466.204L1308.39 465.892L1288.6 465.372L1270.53 464.439L1241.5 462.91L1213.29 460.328L1199.92 459.095L1193.43 458.463L1187.07 457.606L1162.67 454.28L1150.94 452.666C1148.55 452.34 1146.19 451.893 1143.84 451.449L1143.84 451.447C1142.44 451.183 1141.04 450.919 1139.64 450.681C1111.56 445.942 1083.75 439.868 1056.34 432.486L1036.27 426.892C1031.61 425.721 1027.05 424.194 1022.45 422.65L1022.45 422.649C1020.31 421.934 1018.17 421.214 1015.99 420.525C1009.14 418.349 1002.24 416.094 995.166 413.682L973.752 405.633L962.573 401.5L951.273 396.751C948.662 395.635 946.015 394.532 943.34 393.417C938.169 391.261 932.892 389.062 927.561 386.645L902.45 375.005C897.052 372.441 891.52 369.644 885.852 366.779L885.849 366.777C882.536 365.102 879.176 363.402 875.767 361.712C832.398 339.782 778.001 307.141 745.545 287.667L745.542 287.664L745.514 287.648C741.603 285.301 738.013 283.146 734.797 281.224C683.554 250.585 632.512 220.948 579.014 194.704C525.261 168.142 469.067 145.83 411.087 128.023L374.98 117.786C370.744 116.527 366.581 115.474 362.552 114.455L362.531 114.45C361.307 114.139 360.094 113.833 358.895 113.525L344.051 109.949C340.103 109.03 336.32 108.129 332.691 107.265C327.6 106.053 322.816 104.913 318.31 103.899L297.403 99.7414C293.122 98.9075 289.223 98.1212 285.708 97.4116L285.695 97.4089C279.1 96.0794 273.841 95.0169 269.916 94.413L260.004 92.8483L257.507 92.4373L240.71 89.7705L223.53 87.0547C219.129 86.3728 214.398 85.8204 209.39 85.2376C206.932 84.9509 204.408 84.6562 201.831 84.3363C170.59 80.1762 131.076 76.838 96.8088 74.672L45.5335 72.2153L26.3317 71.7131C25.1687 71.7607 24.0058 71.7303 22.856 71.6219L12.3896 71.3471C5.16088 71.1581 -6.24389 70.8594 -23.4502 70.7153C-28.8288 70.7669 -34.7625 70.7881 -41.3173 70.8105C-76.7342 70.9374 -129.992 71.1264 -208.319 76.431C-217.318 77.1168 -225.142 77.6758 -231.921 78.1608L-231.948 78.1622L-231.961 78.1635C-243.498 78.9895 -251.982 79.596 -258.035 80.2356L-270.973 81.4316L-272.386 81.3946C-272.902 81.3814 -274.369 81.5427 -277.527 81.8902C-280.739 82.2431 -285.681 82.7875 -293.161 83.5381L-294.139 83.6333C-301.46 84.3456 -310.962 85.2694 -323.345 86.8565C-327.679 87.4116 -332.318 87.9415 -337.3 88.511L-337.313 88.5124C-347.198 89.641 -358.431 90.9228 -371.237 92.8589L-409.667 98.3406L-444.053 104.428C-458.933 106.686 -473.047 109.385 -487.135 112.075C-493.478 113.286 -499.808 114.496 -506.191 115.663C-547.106 123.998 -590.571 133.035 -653.859 150.191C-656.409 150.902 -659.436 151.722 -662.806 152.637L-662.832 152.645L-662.858 152.65C-669.122 154.35 -676.562 156.37 -684.359 158.608L-720.186 169.188L-754.295 179.813L-780.792 188.68C-785.43 190.176 -792.368 192.63 -800.363 195.458C-802.425 196.188 -804.552 196.944 -806.746 197.714C-817.385 201.467 -828.935 205.735 -839.097 209.576C-840.102 209.955 -841.093 210.329 -842.084 210.702L-844.026 211.429L-844.04 211.438C-848.282 213.025 -852.405 214.576 -856.409 216.188L-870.603 221.767C-871.448 222.09 -872.267 222.406 -873.087 222.715V222.716C-875.902 223.785 -878.545 224.788 -881.029 225.795L-897.813 232.535C-899.94 233.349 -902.98 234.586 -906.178 235.889C-909.469 237.233 -912.944 238.649 -915.772 239.744C-931.142 246.061 -941.317 250.594 -947.991 253.606L-962.845 260.359C-974.184 265.514 -985.403 270.865 -996.623 276.446C-997.006 276.636 -997.535 276.901 -998.209 277.241L-998.222 277.245C-1003.67 279.975 -1018.48 287.414 -1036.98 297.85C-1035.36 298.483 -1033.59 298.754 -1031.83 298.638C-1031.06 298.658 -1030.56 299.67 -1030.8 301.161C-1031.35 304.985 -1026.62 311.368 -1021.75 313.915C-1020.91 314.384 -1020.12 314.932 -1019.41 315.551L-1017.5 314.525C-1015.24 313.496 -1010.26 310.936 -1005.12 308.3C-1003.56 307.497 -1001.99 306.686 -1000.47 305.91ZM-1068.98 271.134C-1065.07 268.74 -1061.21 269.839 -1062.66 272.336C-1065.21 276.571 -1059.5 287.78 -1054.27 288.341C-1052.83 288.494 -1051.45 289.009 -1050.32 289.826C-1042.43 285.232 -1034.01 280.729 -1024.3 275.608C-1005.95 265.987 -987.584 257.098 -969.043 248.598C-968.25 248.24 -967.1 247.715 -965.726 247.082C-962.052 245.399 -956.726 242.955 -951.982 240.903L-936.864 234.31L-918.719 226.644C-912.587 223.927 -907.09 221.84 -904.5 220.857C-903.627 220.529 -903.099 220.323 -902.967 220.259L-894.787 217.056L-854.017 201.149C-849.973 199.642 -846.075 198.177 -842.388 196.784C-835.344 194.133 -829.001 191.747 -823.728 189.846L-808.411 184.179C-805.676 183.176 -779.602 173.989 -750.026 164.587C-725.803 156.887 -701.962 149.95 -691.139 146.798L-691.126 146.796C-688.734 146.101 -686.989 145.589 -685.998 145.296L-645.903 134.672C-640.551 133.357 -634.908 131.929 -629.067 130.448L-629.054 130.446C-615.64 127.047 -601.156 123.377 -586.514 120.175C-583.157 119.414 -579.747 118.618 -576.351 117.827C-568.845 116.078 -561.391 114.34 -554.678 112.983L-532.873 108.446C-509.482 103.452 -450.423 91.4052 -371.62 80.8739C-279.351 68.6168 -186.223 61.5136 -92.7644 59.6079C-84.1745 59.259 -75.5581 59.2472 -66.9285 59.2366C-62.8582 59.23 -58.7747 59.2247 -54.7043 59.1837C-42.0045 59.0555 -29.2913 59.004 -16.6443 59.1441L21.2438 59.8683L40.0491 60.3612C44.2516 60.4709 48.4806 60.685 52.683 60.8977C54.7578 61.0035 56.8325 61.1079 58.8941 61.2004L96.1084 63.0201L105.319 63.262L114.438 63.9993L132.583 65.5125C136.666 65.8667 140.71 66.1984 144.741 66.5287H144.754C152.604 67.171 160.374 67.8067 168.066 68.5917L202.452 72.6805L219.09 74.6905C222.883 75.1914 226.662 75.8019 230.389 76.4058L230.402 76.4072C232.041 76.6715 233.666 76.9358 235.292 77.1895L266.519 82.1558L274.039 83.3505L281.426 84.8121L295.818 87.6851L323.12 93.1628L370.59 104.583L407.476 115.035C412.974 116.496 418.919 118.436 425.156 120.472L425.171 120.477C427.302 121.173 429.466 121.88 431.659 122.581L458.236 131.303L483.685 140.766C491.739 143.703 499.108 146.431 505.101 149.007C508.96 150.607 512.762 152.166 516.433 153.673C524.328 156.911 531.611 159.899 537.513 162.492L553.091 169.543C555.317 170.562 557.97 171.745 559.083 172.197C560.197 172.647 562.679 173.75 564.69 174.725C564.908 174.831 565.36 175.047 566.024 175.363L566.028 175.366L566.033 175.368C571.471 177.972 591.002 187.32 612.254 198.206C636.114 210.429 663.55 225.856 673.719 231.654C699.569 246.463 727.292 262.934 756.165 280.244C785.039 297.552 815.197 315.432 846.439 332.764C877.881 350.183 910.257 366.193 943.445 380.737C976.722 395.202 1011.09 407.5 1046.29 417.533L1061.56 421.774C1062.82 422.116 1064.07 422.465 1065.32 422.813C1069.02 423.846 1072.65 424.86 1076.32 425.617L1104.43 432.077C1107.85 432.992 1111.52 433.646 1115.09 434.282C1115.99 434.443 1116.89 434.605 1117.78 434.768L1130.67 437.142L1143.12 439.389C1147.16 440.185 1151.16 440.904 1155.15 441.393L1178.23 444.532C1180.58 444.836 1182.9 445.17 1185.18 445.501C1190.14 446.216 1194.96 446.911 1199.72 447.246L1239.63 450.98C1246.75 451.317 1253.69 451.7 1260.51 452.077H1260.51C1278.06 453.047 1294.81 453.972 1311.83 453.946C1323.63 454.256 1335.42 454.565 1347.61 454.347L1385.42 453.763C1390.54 453.896 1396.62 453.572 1403.42 453.212C1406.39 453.053 1409.5 452.888 1412.73 452.751C1415.06 452.65 1417.46 452.552 1419.91 452.452C1428.6 452.098 1437.98 451.716 1447.62 451.129C1451.59 450.846 1455.61 450.565 1459.66 450.281C1480.91 448.791 1502.98 447.244 1522.14 445.133C1525.73 444.738 1529.35 444.34 1533 443.94C1552.59 441.788 1572.84 439.566 1590.36 437.434C1602.08 436.008 1612.75 434.458 1621.42 433.197H1621.42H1621.43C1628.13 432.223 1633.63 431.422 1637.5 430.989C1647.66 429.618 1657.1 428.014 1665.83 426.531C1668.78 426.029 1671.65 425.543 1674.44 425.082C1677.56 424.568 1680.6 424.083 1683.57 423.61C1691.13 422.404 1698.2 421.28 1704.65 419.959L1748.67 411.742L1794.05 402.14L1845.48 390.661C1851.01 389.308 1857.51 387.749 1864.21 386.143L1864.22 386.142C1876.94 383.091 1890.36 379.874 1899.13 377.589C1902.21 376.773 1906.08 375.77 1910.6 374.597L1910.61 374.595C1919.26 372.351 1930.3 369.49 1942.81 366.136C1961.87 361.029 1984.38 354.745 2007.12 347.967C2052.68 334.644 2099.33 319.659 2122.95 311.714C2134.23 307.94 2148.03 303.308 2161.09 298.697C2164.75 297.408 2168.35 296.14 2171.84 294.915C2180.82 291.759 2189.01 288.882 2195.18 286.609C2211.14 280.947 2227.18 274.952 2245.61 268.064L2245.62 268.062L2246.54 267.717L2284.62 253.16L2304.32 245.535L2332.67 234.219L2348.81 227.615L2363.45 221.547C2366.35 220.355 2382.59 213.599 2399.3 206.356L2419.57 197.363C2414.34 196.894 2409.07 197.196 2403.97 198.26C2402.41 198.948 2400.92 198.179 2399.91 196.579C2398.57 194.712 2396.64 193.242 2394.36 192.363C2391.49 191.289 2390.81 190.581 2391.86 189.609C2392.65 188.441 2392.66 186.978 2391.91 185.77C2391.11 184.405 2391.09 183.021 2391.95 182.699C2392.82 182.377 2392.79 181.185 2392.2 180.133C2391.61 179.081 2391.63 177.967 2392.24 177.638C2394.97 176.403 2395.3 170.882 2392.85 166.785C2391.62 165.088 2391.03 163.094 2391.17 161.096C2392.05 159.659 2387.64 154.244 2384.43 152.815C2379.07 153.637 2373.93 155.269 2369.21 157.64C2360.55 161.253 2355.11 162.877 2353.91 162.193C2350.62 162.043 2347.37 162.774 2344.58 164.291C2341.3 165.902 2337.6 166.73 2333.83 166.698C2331.62 166.332 2329.36 166.88 2327.69 168.189C2326.08 169.414 2324.18 170.093 2323.37 169.689C2319.61 170.25 2316.03 171.461 2312.82 173.251C2308.52 175.269 2303.98 176.863 2299.28 178.005C2296.9 178.288 2294.69 179.305 2294.34 180.295C2293.98 181.284 2292.07 182.118 2289.7 182.247C2287.01 182.552 2284.48 183.524 2282.39 185.051C2280.04 186.948 2278.83 187.224 2278.07 186.052C2276.94 183.91 2266.68 187.558 2266.39 190.2C2266.37 191.621 2265.16 191.82 2262.38 190.978C2259.59 190.138 2258.43 190.261 2257.71 192.086C2257 193.909 2256.31 194.122 2254.47 192.999C2252.64 191.876 2252.03 192.013 2251.79 193.697C2251.48 195.002 2250.21 195.935 2248.71 195.958C2247.2 195.92 2246.24 196.624 2246.58 197.285C2246.91 197.947 2244.83 199.467 2241.93 200.582L2201.45 217.187C2176.42 227.63 2119.83 248.689 2075.98 262.979L2040.22 274.754L2005.63 285.637L1964.82 298.009C1959.65 299.571 1954.61 300.99 1949.8 302.343C1947.21 303.072 1944.69 303.781 1942.26 304.484C1939.49 305.256 1936.98 305.921 1934.83 306.44C1932.5 307.221 1930.03 307.649 1927.53 307.709C1927.07 307.158 1926.46 307.104 1926.2 307.673C1924.91 308.276 1923.57 308.767 1922.17 309.143C1919.66 309.998 1916.03 311.208 1911.54 312.513L1876.74 322.661L1819.14 338.395L1795.84 345.119L1770.17 352.511C1766.47 353.569 1763.01 354.564 1759.74 355.506L1759.74 355.507C1746.79 359.235 1736.71 362.141 1725.23 364.813L1693.87 372.363C1684.38 374.54 1675.96 376.391 1668.31 378.075L1668.3 378.078H1668.3C1663.83 379.061 1659.62 379.986 1655.61 380.886L1640.15 384.32L1625.78 387.055C1620.63 388.019 1615.47 389.026 1610.32 390.033L1610.31 390.036L1610.3 390.037C1601.6 391.738 1592.88 393.443 1584.12 394.95C1577.31 396.115 1567.21 397.618 1555.52 399.27C1543.83 400.923 1530.59 402.457 1517.53 403.767C1491.44 406.731 1466.19 408.105 1455.94 408.297L1441.26 408.642L1425.5 408.728L1396.61 408.893C1392.59 408.955 1387.95 408.878 1380.82 408.763H1380.82H1380.81C1378.08 408.719 1374.99 408.668 1371.42 408.617L1347.06 408.325L1330.36 407.887L1310.05 407.048L1299.63 406.775C1295.33 406.662 1289.95 406.521 1284.4 406.069L1248.01 403.732C1243.99 403.627 1239.82 403.135 1235.54 402.63C1233.32 402.367 1231.07 402.102 1228.79 401.885L1208.88 399.751L1199.42 398.734L1190.83 397.396L1176.78 395.183C1174.17 394.759 1171.61 394.359 1169.09 393.964H1169.08C1165.08 393.339 1161.18 392.729 1157.36 392.063L1139.33 388.404L1121.33 384.898L1102.88 380.574C1100.65 380.029 1098.39 379.498 1096.09 378.958C1091.85 377.96 1087.47 376.927 1082.8 375.708L1060.45 369.362C1054.06 367.727 1047.45 365.524 1040.42 363.179C1038.62 362.579 1036.8 361.971 1034.94 361.359L1020.7 356.723C1017.33 355.52 1013.87 354.206 1010.32 352.854C1008.73 352.25 1007.12 351.638 1005.5 351.025C969.391 337.365 934.355 321.484 900.648 303.5C866.958 285.719 834.881 266.484 807.204 249.821C801.78 246.53 787.082 238.042 774.221 230.754C765.651 226.156 757.421 221.066 749.581 215.514C749.039 214.443 747.734 213.847 746.457 214.088C745.115 214.352 743.701 214.106 742.55 213.41C741.396 212.727 730.197 206.558 716.9 199.681C714.673 198.511 712.19 197.201 709.509 195.789L709.49 195.778C704.299 193.041 698.371 189.916 692.145 186.666L665.374 173.099C660.439 170.709 654.71 167.862 648.249 164.651L648.241 164.647L648.239 164.646C625.627 153.41 594.034 137.709 556.016 121.424C502.009 98.2137 446.128 78.774 388.88 63.2791C334.652 49.0251 279.563 37.7076 223.913 29.3859C213.87 28.0908 204.342 26.7746 195.434 25.5442C183.461 23.8883 172.598 22.3884 163.097 21.3021C160.427 20.9968 157.863 20.7061 155.419 20.4273C142.679 18.9776 132.992 17.8754 127.085 16.9794C122.261 16.2764 107.606 14.2796 94.5754 13.4007L58.3655 10.34L43.8816 9.00003L33.8909 8.24013C30.5475 7.92165 12.9843 7.03884 -5.17351 6.29349C-10.7504 6.06619 -16.1422 5.86406 -20.9922 5.68169H-21.0054C-31.9476 5.2707 -40.1146 4.96538 -41.2776 4.69579C-45.5725 3.96895 -88.8923 1.64306 -115.336 2.02498C-120.08 2.25757 -124.864 1.9127 -129.529 1.00085C-138.674 -0.0180485 -147.898 -0.259915 -157.07 0.279268C-171.461 0.785413 -185.8 1.13958 -188.906 1.01932C-191.998 0.900383 -204.011 0.815772 -215.508 1.28227C-227.018 1.74877 -240.67 2.12148 -245.665 2.18227C-251.995 2.28535 -257.982 2.3977 -264.18 2.6184C-270.166 2.83249 -276.444 3.2897 -283.501 3.80377L-284.267 3.85927L-309.733 5.91818C-319.512 6.66088 -330.811 7.90049 -344.225 9.46914L-373.51 12.773C-379.496 13.4417 -385.245 14.2478 -390.756 15.0209C-393.703 15.4332 -396.57 15.8363 -399.385 16.2037L-422.327 19.4428C-430.798 20.6017 -439.057 21.9801 -447.158 23.3307C-452.801 24.2729 -458.365 25.2019 -463.876 26.0358L-483.606 29.3595L-502.597 32.9316C-526.252 37.2213 -548.374 41.9299 -569.215 46.3675L-569.268 46.3781C-573.193 47.2146 -577.065 48.0406 -580.91 48.8533C-605.134 53.9795 -627.243 59.4678 -647.687 64.8081C-686.54 74.491 -719.089 83.9941 -746.854 92.1003L-751.401 93.4271C-795.698 106.868 -826.635 117.433 -848.943 125.05V125.053L-848.982 125.062C-855.339 127.236 -861.008 129.17 -866.083 130.862C-879.496 135.756 -893.201 140.011 -907.143 143.611C-908.107 143.806 -909.112 144.06 -910.182 144.328L-910.195 144.332C-910.605 144.437 -911.028 144.544 -911.464 144.65C-911.689 144.724 -911.9 144.788 -912.125 144.844C-912.31 144.89 -912.495 144.931 -912.68 144.964L-913.446 144.943C-914.239 145.095 -914.94 145.45 -915.495 145.966C-921.111 150.024 -927.217 153.509 -933.705 156.357C-936.56 157.867 -938.978 159.929 -940.815 162.391C-941.859 164.383 -943.96 165.765 -946.418 166.085C-955.326 166.235 -963.691 170.433 -958.59 172.218C-955.814 173.213 -967.285 178.519 -970.246 177.712C-973.206 176.904 -979.932 180.799 -985.813 186.175C-988.258 188.553 -991.205 190.462 -994.509 191.784C-1001.06 194.866 -1006.83 199.135 -1011.42 204.322C-1014.45 207.038 -1017.83 209.423 -1021.51 211.432C-1024.89 213.229 -1027.85 215.604 -1030.2 218.423C-1032.73 221.169 -1035.89 223.39 -1039.47 224.939C-1043.8 227.207 -1047.67 229.986 -1047.73 231.059C-1050.53 234.809 -1053.98 238.14 -1057.93 240.931C-1061.93 243.594 -1065.26 246.953 -1067.75 250.812C-1067.76 251.695 -1068.91 253.354 -1070.95 254.569C-1073.3 256.163 -1075.15 258.268 -1076.32 260.688C-1076.97 261.889 -1077.43 263.169 -1077.67 264.492C-1078.1 265.524 -1078.11 266.664 -1077.71 267.717C-1076.54 270.129 -1075.27 271.622 -1073.72 271.969C-1072.94 272.195 -1072.1 272.217 -1071.32 272.033C-1070.46 271.899 -1069.66 271.592 -1068.98 271.134Z" fill="white"/>
</svg>
