<svg width="2373" height="671" viewBox="0 0 2373 671" fill="none" xmlns="http://www.w3.org/2000/svg">
<path fill-rule="evenodd" clip-rule="evenodd" d="M2219.09 27.527C2227.92 29.1962 2240.8 32.0356 2252.95 35.1083C2265.12 38.1533 2276.54 41.4561 2282.84 43.3784C2288.19 44.9524 2295.03 47.1535 2298.12 48.1329C2302.82 49.6846 2307.52 51.2243 2312.18 52.8603C2316.85 54.455 2321.01 56.0178 2321.53 56.1852C2322.03 56.3749 2322.73 56.6415 2323.09 56.776C2323.45 56.9105 2326.33 57.9804 2329.51 59.1617C2332.67 60.3746 2335.72 61.5414 2336.29 61.7612C2343.27 64.5274 2350.46 67.5636 2353.41 68.85C2355.41 69.7294 2357.98 70.8518 2359.13 71.3532C2359.83 71.6748 2361.88 72.6044 2364.37 73.7329C2365.65 74.3271 2367.03 74.9728 2368.41 75.6196C2369.96 76.3632 2371.5 77.1068 2372.91 77.7891C2372.83 79.6758 2372.08 81.3108 2370.71 82.7232C2370.03 83.4289 2369.19 84.0794 2368.21 84.6797C2367.24 85.2837 2366.06 85.8095 2364.97 86.4075C2362.53 87.6122 2359.7 88.2027 2358.52 87.6684C2357.35 87.1362 2353.53 87.1596 2350.11 87.7636C2348.6 88.0303 2347.03 88.1868 2345.61 88.2478C2340.23 85.9637 2332.26 82.712 2323.22 79.3225C2311.87 75.0365 2300.4 71.0842 2288.78 67.4254C2285.96 66.556 2279.58 64.5921 2274.53 63.159C2272.03 62.413 2268.98 61.5878 2266.11 60.8014C2263.25 60.0043 2260.55 59.285 2258.71 58.824C2247.3 55.8355 2239.61 54.1457 2230.67 52.1706C2228.28 51.6827 2224.88 50.9858 2221.32 50.2581C2217.76 49.5304 2214 48.885 2210.99 48.3138C2208.63 47.8616 2206.36 47.4886 2204.18 47.1352C2202.63 46.8818 2201.12 46.6338 2199.64 46.3902C2196.96 45.9305 2194.31 45.5575 2191.71 45.1906C2189.11 44.824 2186.57 44.4656 2184.07 44.1136C2181.56 43.8114 2179.1 43.5156 2176.69 43.2243C2171.87 42.5995 2167.17 42.2191 2162.64 41.7655C2144.49 40.1379 2128.51 39.6074 2112.67 39.8273C2108.48 39.8066 2103.33 40.0756 2097.65 40.286C2094.81 40.3592 2091.82 40.6332 2088.75 40.8314C2085.68 41.0784 2082.52 41.2017 2079.32 41.5771C2066.52 42.7046 2053.12 44.7837 2042.23 46.8062C2039.86 47.2318 2036.83 47.9483 2033.25 48.7309C2031.46 49.1357 2029.53 49.5711 2027.48 50.0345C2025.46 50.5762 2023.31 51.1495 2021.05 51.7525H2021.05C2021.05 51.7525 2020.51 51.8968 2020.21 51.9788C2014.6 53.3885 2008.45 55.4049 2001.72 57.5427C1998.37 58.6515 1994.94 59.9735 1991.36 61.2649C1989.58 61.9425 1987.73 62.5438 1985.93 63.3217C1984.11 64.0785 1982.27 64.8479 1980.39 65.6291C1965.14 71.9695 1946.56 81.1787 1927.38 94.103C1922.47 97.2222 1917.84 100.849 1912.93 104.444C1910.44 106.215 1908.14 108.201 1905.74 110.149C1903.36 112.113 1900.95 114.102 1898.51 116.116C1889.18 124.474 1879.65 133.44 1870.95 143.381C1868.78 145.862 1866.47 148.306 1864.36 150.881C1862.27 153.465 1860.17 156.071 1858.05 158.695C1856.99 160.009 1855.94 161.328 1854.87 162.651C1853.88 164.006 1852.89 165.366 1851.9 166.731C1849.91 169.461 1847.91 172.21 1845.9 174.975C1843.91 177.75 1842.14 180.626 1840.24 183.472C1838.4 186.341 1836.41 189.177 1834.67 192.117C1832.94 195.055 1831.2 198.008 1829.45 200.974C1828.57 202.457 1827.7 203.942 1826.82 205.432C1825.98 206.93 1825.2 208.454 1824.39 209.967C1811.27 234.17 1800.62 259.821 1792.15 285.628C1783.67 311.441 1777.34 337.411 1772.47 362.467C1771.35 368.737 1770.24 374.946 1769.15 381.082C1768.08 387.218 1767.32 393.295 1766.41 399.274C1765.57 405.103 1764.75 410.849 1763.95 416.495C1763.58 419.246 1763.16 421.955 1762.72 424.635C1762.28 427.314 1761.89 429.982 1761.43 432.598C1759.62 443.084 1757.53 453.032 1755.33 462.38C1753.02 471.686 1750.59 480.381 1748 488.315C1742.77 504.156 1737.08 516.996 1731.94 526.214C1728.76 532.072 1725.32 537.367 1721.88 542.232C1718.37 547.033 1714.76 551.278 1711.19 555.045C1703.92 562.413 1696.78 567.705 1690.44 571.164C1682.76 575.589 1672.09 579.536 1660.55 581.338C1654.81 582.287 1648.86 582.649 1643.26 582.724C1640.47 582.812 1637.72 582.666 1635.15 582.619C1632.55 582.442 1630.13 582.361 1627.87 582.127C1618.9 581.345 1610.23 579.861 1603.64 578.523C1597.05 577.174 1592.52 575.975 1591.67 575.806C1589.95 575.362 1587.92 574.793 1587.11 574.542C1586.29 574.291 1584.38 573.786 1582.78 573.349C1581.91 573.109 1577.3 571.839 1570.54 569.731C1563.78 567.597 1554.88 564.572 1545.45 561.024C1536.02 557.474 1525.78 553.29 1516.89 549.465C1508 545.654 1500.45 542.191 1496.31 540.308C1454.39 521.119 1405.77 495.202 1353.86 467.557C1301.91 439.953 1246.44 410.71 1190.06 385.766C1156.48 370.888 1127.36 359.607 1101.26 350.872C1075.16 342.119 1052.1 335.907 1030.54 331.186C1008.95 326.546 988.845 323.402 968.341 321.634C958.099 320.71 947.739 320.232 937.067 320.118C926.392 320.01 915.381 320.296 903.847 321.261C890.978 322.223 871.014 324.708 849.962 330.007C839.425 332.588 828.67 335.936 818.385 339.72C817.097 340.191 815.813 340.66 814.532 341.129C813.26 341.606 812.015 342.131 810.758 342.629C808.296 343.619 805.858 344.603 803.443 345.574C798.964 347.357 794.6 349.096 790.412 350.762C773.481 357.063 754.959 362.937 738.654 366.714C737.642 366.972 736.641 367.226 735.653 367.478C734.648 367.69 733.655 367.899 732.678 368.105C730.724 368.515 728.818 368.915 726.97 369.303C723.263 370.047 719.828 370.88 716.622 371.406C710.213 372.478 704.997 373.353 701.467 373.943C679.868 377.096 661.949 378.028 647.165 378.478C639.763 378.502 633.141 378.737 627.181 378.459C621.229 378.269 615.934 378.243 611.219 377.856C606.496 377.553 602.332 377.287 598.617 377.049C594.911 376.685 591.649 376.366 588.726 376.078C585.803 375.771 583.203 375.585 580.847 375.263C578.491 374.952 576.36 374.67 574.343 374.403C571.862 374.078 568.821 373.679 565.449 373.237C562.092 372.684 558.405 372.076 554.616 371.452C552.717 371.142 550.799 370.826 548.88 370.511C546.973 370.137 545.071 369.762 543.2 369.396C539.457 368.659 535.837 367.949 532.576 367.307C519.58 364.471 500.159 359.734 489.555 356.424C487.762 355.904 485.643 355.29 483.228 354.591C480.841 353.829 478.163 352.974 475.24 352.041C472.321 351.091 469.122 350.134 465.766 348.979C462.413 347.815 458.852 346.579 455.118 345.283C440.243 339.975 422.828 333.238 405.522 325.604C388.213 317.974 370.975 309.568 355.986 301.768C352.252 299.798 348.639 297.893 345.189 296.071C341.777 294.191 338.516 292.398 335.451 290.709C329.286 287.375 324.051 284.236 319.753 281.81C311.622 277.08 301.77 271.157 292.513 265.353C283.255 259.551 274.554 253.91 268.586 249.912C257.296 242.444 246.033 234.642 233.258 225.448C220.491 216.247 206.231 205.627 189.288 192.179C178.392 183.611 162.757 170.639 154.449 163.502C146.583 156.813 139.405 150.478 131.688 143.617C129.774 141.888 127.824 140.127 125.823 138.319C124.349 136.978 122.837 135.602 121.277 134.179C119.646 132.68 117.909 131.081 116.018 129.336C113.603 127.074 108.896 122.662 105.547 119.523C102.215 116.372 97.988 112.326 96.1405 110.524C88.4431 103.126 80.856 95.6462 73.4108 88.078C67.4941 82.0578 62.3179 76.6383 58.8711 72.9625C58.7017 71.835 58.6229 70.5659 58.686 69.3195C58.8317 66.5035 58.414 63.5747 57.7168 62.8067C57.0077 62.0329 57.4017 59.7631 58.6386 57.7504C59.8007 55.866 61.1638 54.3117 62.7789 53.1527C64.3782 51.9761 66.0446 50.9797 67.896 50.2913C69.3023 51.7904 70.9685 53.5633 72.3827 55.0699C73.8639 56.6144 75.0812 57.8838 75.4988 58.3229C76.1999 59.0432 77.7598 60.6534 78.981 61.9144C80.7694 63.7668 85.2602 68.3021 89.6485 72.6555C90.007 73.014 91.9018 74.9179 93.8753 76.8964C95.8647 78.8665 97.6729 80.6505 97.9014 80.8755L98.9059 81.8305C99.225 82.1435 101.876 84.7163 104.799 87.5594C107.753 90.3818 111.756 94.2067 113.69 96.0557C115.636 97.9021 119.989 101.978 123.38 105.102C125.397 106.941 128.226 109.517 131.499 112.498C135.75 116.305 140.579 120.627 145.519 125.048C165.326 142.783 186.814 160.582 201.654 172.287C204.86 174.826 208.579 177.789 212.632 180.891C214.649 182.45 216.733 184.062 218.852 185.7C220.992 187.317 223.166 188.959 225.344 190.603C234.046 197.188 242.921 203.641 249.756 208.51C259.021 215.101 278.241 228.58 302.735 243.935C315.018 251.555 328.537 259.748 342.805 267.696C357.069 275.648 371.968 283.517 386.803 290.758C401.674 297.937 416.418 304.584 430.269 310.305C444.147 315.943 457.036 320.866 468.176 324.62C470.957 325.573 473.617 326.483 476.146 327.349C478.678 328.201 481.105 328.918 483.37 329.641C487.92 331.033 491.847 332.379 495.156 333.262C501.751 335.139 505.596 336.235 505.883 336.317C505.907 336.323 506.679 336.541 508.053 336.929C509.44 337.279 511.433 337.784 513.891 338.406C516.35 339.029 519.269 339.771 522.511 340.594C525.761 341.374 529.353 342.13 533.107 342.983C534.986 343.403 536.944 343.841 538.949 344.29C540.962 344.675 543.022 345.07 545.106 345.467C547.182 345.866 549.278 346.268 551.362 346.669C552.402 346.87 553.438 347.07 554.47 347.268C555.506 347.435 556.534 347.599 557.547 347.761C561.612 348.412 565.504 349.033 568.974 349.588C572.445 350.115 575.51 350.434 577.901 350.758C581.505 351.216 586.362 351.904 592.311 352.38C595.285 352.658 598.523 352.959 602.009 353.284C605.499 353.487 609.234 353.704 613.197 353.935C629.021 354.702 648.441 354.855 669.745 353.06C691.044 351.298 714.195 347.565 737.358 341.462C738.808 341.088 740.261 340.713 741.715 340.338L743.901 339.776L746.056 339.122C748.932 338.244 751.815 337.363 754.707 336.481C760.537 334.849 766.17 332.635 771.901 330.683L776.187 329.175L780.391 327.484C783.195 326.363 785.996 325.242 788.793 324.123C792.106 322.791 795.411 321.461 798.708 320.134C802.301 318.636 805.996 317.336 809.651 315.993C810.841 315.565 812.039 315.132 813.244 314.697C814.469 314.294 815.702 313.886 816.943 313.477C819.429 312.671 821.934 311.81 824.503 311.032C829.655 309.51 834.914 307.939 840.311 306.611C851.065 303.853 862.19 301.527 873.113 299.863C894.956 296.356 915.846 295.349 931.461 295.254C920.498 295.273 909.473 295.702 898.435 296.565C887.393 297.489 876.359 298.907 865.396 300.764C854.437 302.668 843.588 305.128 832.889 307.996C822.202 310.911 811.739 314.384 801.482 318.209L775.845 328.295L763.98 332.371C760.06 333.81 756.019 334.933 752.004 336.125C744.031 338.667 735.834 340.526 727.715 342.613L715.369 345.166L712.285 345.813C711.253 346.011 710.209 346.158 709.169 346.335L702.937 347.358C669.689 352.891 635.457 353.737 601.28 350.97C584.184 349.487 567.103 346.997 550.121 343.725L543.759 342.453C541.636 342.028 539.513 341.63 537.405 341.109L524.732 338.179L512.127 334.885L508.975 334.063L505.844 333.146L499.58 331.316C482.901 326.36 466.36 320.776 450.087 314.434C433.818 308.088 417.762 301.148 401.942 293.698C386.106 286.271 370.593 278.172 355.281 269.745C339.985 261.285 324.905 252.434 310.145 243.117C251.032 205.943 195.973 162.968 145.133 116.669C133.914 106.431 122.92 96.0178 112.173 85.4586C101.443 74.9105 90.9249 64.1558 80.9585 53.4105C82.7469 52.3139 85.4808 51.2755 87.3283 51.2084C88.2619 51.1705 92.5833 54.7436 97.0111 59.1299C102.108 64.1751 105.827 66.9999 106.934 66.8396C107.915 66.6943 110.712 68.5566 113.225 71.0256C115.738 73.4761 118.992 75.6148 120.489 75.7947C122.073 75.9976 123.79 77.136 124.629 78.5887C125.417 79.935 126.611 80.9673 127.265 80.8558C127.915 80.7606 130.963 83.1941 134.028 86.3086C137.097 89.4156 141.009 92.6293 142.671 93.505C144.361 94.3645 145.673 95.7122 145.614 96.5229C145.551 97.396 146.685 98.4903 148.442 99.2352C150.061 99.9209 152.11 101.738 153.012 103.279C154.178 105.3 154.977 105.82 155.856 105.112C156.254 104.793 156.959 104.894 157.782 105.257C157.987 105.348 158.2 105.456 158.416 105.577L158.582 105.67C158.641 105.704 158.664 105.711 158.822 105.838C159.074 106.039 159.334 106.244 159.598 106.453C160.65 107.287 161.757 108.211 162.856 109.168C167.236 113.014 171.577 117.372 171.944 119.005C172.345 120.77 174.016 122.069 178.388 123.818C183.06 125.691 184.62 126.91 185.96 129.635C187.299 132.341 188.414 133.204 191.281 133.754C194.153 134.303 195.04 135.005 195.635 137.121C196.048 138.585 198.408 141.018 200.893 142.529C203.371 144.038 205.006 145.627 204.537 146.046C204.061 146.469 207.665 150.09 212.542 154.079C214.996 156.063 219.317 159.639 224.312 163.801C229.343 167.923 235.063 172.611 240.259 176.869C247.968 183.184 260.687 193.02 275.196 203.392C289.684 213.791 305.977 224.689 320.395 233.634C323.235 235.416 355.738 256.247 394.776 275.758C400.185 278.498 405.447 280.948 410.218 283.287C412.113 284.195 413.882 284.91 415.375 285.535C418.368 286.76 420.338 287.427 420.566 287.236C421.023 286.856 421.469 286.86 421.567 287.263C421.595 287.359 422.564 287.906 424.289 288.81C426.003 289.741 428.528 290.904 431.608 292.369C434.704 293.799 438.344 295.595 442.445 297.355C446.546 299.113 451.025 301.098 455.744 303.039C460.483 304.93 465.175 306.804 469.594 308.568C474.042 310.241 478.218 311.811 481.901 313.197C489.291 315.866 494.723 317.735 496.338 318.396C499.596 319.658 507.045 322.226 512.879 324.322C515.818 325.26 519.347 326.417 522.668 327.53C524.331 328.09 525.938 328.633 527.399 329.125C528.861 329.582 530.172 329.99 531.236 330.32C534.537 331.364 537.559 332.322 540.399 333.22C543.243 334.131 545.93 334.783 548.518 335.511C551.114 336.202 553.615 336.869 556.117 337.535C558.626 338.164 561.147 338.676 563.763 339.258C565.149 339.562 566.831 339.931 568.683 340.339C570.534 340.754 572.559 341.205 574.635 341.558C578.791 342.329 583.128 343.134 586.638 343.787C592.145 344.625 597.152 345.387 601.776 346.091C606.413 346.669 610.675 347.11 614.678 347.577C615.682 347.69 616.667 347.802 617.636 347.912C618.609 347.986 619.562 348.059 620.508 348.131C622.395 348.268 624.23 348.402 626.031 348.533C629.635 348.77 633.109 349.122 636.54 349.16C636.54 349.16 638.447 349.23 641.311 349.335C642.745 349.389 644.415 349.452 646.208 349.521C647.106 349.555 648.031 349.589 648.973 349.625C649.91 349.622 650.864 349.62 651.817 349.618C655.638 349.616 659.459 349.615 662.323 349.614C663.761 349.626 664.958 349.615 665.786 349.562C666.621 349.528 667.097 349.509 667.097 349.509C677.04 349.321 696.516 347.523 714.932 343.873C719.513 342.886 724.079 341.997 728.404 340.975C732.69 339.841 736.787 338.756 740.541 337.764C741.475 337.509 742.396 337.277 743.279 337.019C744.157 336.736 745.008 336.461 745.835 336.193C747.486 335.653 749.034 335.146 750.46 334.679C753.308 333.734 755.656 332.928 757.35 332.299C759.883 331.364 763.33 329.822 766.942 328.377C770.539 326.886 774.301 325.471 777.196 324.077C780.115 322.756 783.66 321.15 787.028 319.626C791.232 317.758 795.206 315.991 797.94 314.775C800.319 313.67 803.085 312.623 806.634 311.191C810.164 309.729 814.639 308.172 820.496 306.099C832.271 302.197 849.97 296.515 878.912 291.814C883.659 291.081 892.987 289.726 904.198 288.851C915.401 287.928 928.487 287.364 940.597 287.54C952.718 287.646 966.789 288.339 979.591 289.51C986.005 290.063 992.075 290.785 997.503 291.419C1002.89 292.143 1007.66 292.741 1011.35 293.318C1024.62 295.251 1036.37 297.478 1047.89 299.973C1059.4 302.481 1070.7 305.233 1082.82 308.644C1094.95 312.044 1107.96 316.03 1122.8 321.099C1137.63 326.175 1154.33 332.308 1173.6 340.177C1206.01 353.341 1238.11 368.175 1267.74 382.637C1297.38 397.1 1324.56 411.171 1347.27 422.969C1351.76 425.299 1363.45 431.715 1373.17 437.221C1382.91 442.727 1391.72 447.234 1392.83 447.268C1393.94 447.304 1394.86 447.937 1394.89 448.7C1394.92 449.453 1395.67 450.437 1396.56 450.9C1397.45 451.351 1405.7 456.174 1414.87 461.555C1424.05 466.945 1440.11 476.291 1450.59 482.271C1463.41 489.596 1484.81 501.141 1510.76 513.561C1523.72 519.706 1537.84 526.106 1552.5 531.94C1567.14 537.814 1582.36 543.137 1597.15 547.1C1611.9 551.078 1626.23 553.534 1638.08 553.835C1644.01 554.005 1649.28 553.669 1653.83 552.955C1658.39 552.236 1662.23 551.162 1665.66 549.797C1669.09 548.428 1672.15 546.728 1675.1 544.665C1678.05 542.598 1680.87 540.118 1683.52 537.381C1684.87 536.08 1686.11 534.525 1687.37 533.129C1687.98 532.357 1688.57 531.591 1689.16 530.842C1689.46 530.469 1689.75 530.1 1690.04 529.731C1690.32 529.331 1690.6 528.938 1690.88 528.545C1691.43 527.763 1691.98 526.994 1692.51 526.238C1693.04 525.476 1693.53 524.639 1694.02 523.873C1694.52 523.091 1695 522.328 1695.48 521.58C1695.93 520.787 1696.37 520.011 1696.79 519.252C1696.88 519.11 1696.98 518.958 1697.06 518.819L1697.05 518.815C1697.88 517.616 1698.7 516.02 1699.52 514.482C1699.81 513.906 1700.21 513.09 1700.71 512.07C1701.19 511 1701.76 509.716 1702.41 508.255C1703.08 506.832 1703.74 505.091 1704.48 503.255C1704.85 502.327 1705.25 501.392 1705.63 500.379C1706 499.355 1706.38 498.298 1706.77 497.214C1709.74 488.452 1712.3 478.33 1714.49 468.234C1716.66 457.925 1718.76 447.961 1720.53 439.523C1721.04 435.786 1721.33 432.27 1721.68 429.104C1722.03 425.946 1722.25 423.016 1722.48 420.377C1722.97 415.115 1723.23 410.837 1723.52 407.408C1723.6 406.55 1723.67 405.742 1723.73 404.981C1723.82 404.163 1723.89 403.395 1723.97 402.673C1724.16 401.13 1724.32 399.782 1724.47 398.592C1724.79 396.216 1725.11 394.477 1725.44 393.078C1727.75 382.302 1734.38 348.397 1740.96 322.445C1742.17 317.084 1743.29 311.834 1744.51 306.713C1745.85 301.588 1747.15 296.597 1748.41 291.76C1749.07 289.34 1749.62 286.958 1750.33 284.618C1751.04 282.276 1751.73 279.976 1752.41 277.72C1753.78 273.205 1755.09 268.865 1756.35 264.722C1757.78 260.58 1759.14 256.633 1760.42 252.904C1761.07 251.039 1761.7 249.228 1762.3 247.473C1762.61 246.596 1762.91 245.733 1763.2 244.884C1763.53 244.037 1763.86 243.205 1764.17 242.387C1766.75 235.843 1768.94 230.252 1770.7 225.78L1770.8 225.813C1772.48 221.915 1774.24 217.841 1776.17 213.376C1776.98 211.519 1777.88 209.445 1778.83 207.286C1779.87 205.135 1780.95 202.898 1782.01 200.711C1784.16 196.333 1786.22 192.145 1787.66 189.205C1790.67 183.701 1793.44 178.565 1796.4 172.994C1797.95 170.218 1799.68 167.358 1801.45 164.278C1803.27 161.207 1805.07 157.898 1807.3 154.337C1808.76 152.052 1810.96 148.696 1813.34 145.128C1814.53 143.348 1815.73 141.501 1816.99 139.734C1818.3 137.981 1819.57 136.278 1820.72 134.733C1823.05 131.648 1825.66 128.12 1828.13 124.961C1830.73 121.843 1833.05 119.055 1834.47 117.346C1835.18 116.491 1836.74 114.681 1838.97 112.149C1841.28 109.649 1844.4 106.485 1847.98 102.825C1851.47 99.1251 1855.88 95.1397 1860.53 90.8832C1865.08 86.5664 1870.45 82.2977 1875.75 77.926C1878.37 75.7151 1881.12 73.6827 1883.78 71.7066C1886.44 69.7318 1889.01 67.8217 1891.46 65.9974C1896.46 62.4215 1901.19 59.3464 1905.1 56.673C1907.04 55.3206 1908.91 54.1968 1910.54 53.1845C1912.16 52.1682 1913.57 51.289 1914.73 50.5651C1917.05 49.1076 1918.36 48.2501 1918.4 48.1366C1918.56 47.6634 1919.15 47.5411 1919.71 47.8443C1919.85 47.9202 1920.57 47.6461 1921.76 47.0898C1922.95 46.5359 1924.67 45.774 1926.71 44.7773C1928.77 43.787 1931.18 42.5948 1933.83 41.263C1937.12 39.5081 1940.72 37.8857 1944.43 36.1907C1946.29 35.3458 1948.17 34.4873 1950.09 33.6177C1951.04 33.1851 1952.01 32.7507 1952.98 32.313C1953.96 31.9109 1954.96 31.5047 1955.96 31.0975C1959.56 29.6475 1963.14 28.2069 1966.68 26.7824C1970.23 25.37 1973.83 24.1886 1977.34 22.9229C1984.36 20.3404 1991.37 18.3595 1998.06 16.3098C2001.41 15.3097 2004.74 14.5146 2007.97 13.6514C2011.2 12.843 2014.35 11.9334 2017.44 11.2901C2020.53 10.6152 2023.53 9.95965 2026.43 9.32511C2027.88 9.01308 2029.31 8.7075 2030.71 8.40666C2032.11 8.14986 2033.48 7.89815 2034.83 7.65219C2037.53 7.16909 2040.13 6.70698 2042.6 6.26656C2043.83 6.04906 2045.04 5.83766 2046.21 5.63201C2047.39 5.46093 2048.53 5.29323 2049.64 5.13197C2054.09 4.50691 2058.01 3.95571 2061.33 3.48853C2067.96 2.77064 2072.19 2.31328 2073.36 2.18624C2096.97 -0.164249 2123.88 -0.505413 2147.87 0.619691C2171.9 1.69703 2192.94 4.32837 2205.96 5.99891C2207.05 6.15069 2208.16 6.3045 2209.28 6.46L2210.8 6.67039L2211.46 6.73984C2212.34 6.83673 2213.24 6.9343 2214.13 7.03221C2215.9 7.23514 2217.67 7.42826 2219.3 7.66812C2222.56 8.12548 2225.38 8.55709 2226.94 8.84573C2230.08 9.40811 2232.73 9.4657 2232.89 8.89078C2233.05 8.31756 2234.22 8.39446 2235.5 9.06932C2236.78 9.74452 2238.56 9.77027 2239.47 9.13064C2240.79 8.21592 2241.34 8.37718 2242.11 9.91933C2242.88 11.4578 2243.53 11.679 2245.31 10.9232C2247.08 10.1724 2248.03 10.4939 2249.78 12.4714C2251.42 14.313 2252.39 14.6921 2253.49 13.9167C2255.51 12.4873 2266.04 15.4063 2265.41 17.2002C2265.08 18.1942 2266.16 18.6285 2269.28 18.7542C2271.66 18.8643 2275.06 19.7715 2276.8 20.8357C2278.67 21.9899 2280.63 22.5011 2281.66 22.1231C2282.62 21.7748 2285 22.3348 2286.96 23.3999C2288.91 24.4932 2294.94 26.5083 2300.31 28.0758C2305.72 29.5997 2310.22 31.4193 2310.4 32.0037C2310.58 32.5895 2312.43 33.284 2314.49 33.5408C2316.7 33.8294 2318.92 34.9606 2319.89 36.247C2320.8 37.4575 2324.92 39.6426 2329.08 41.159C2333.28 42.6961 2336.79 44.6685 2337 45.5443C2337.25 46.5616 2342.32 49.0537 2350.73 52.5473C2358.04 55.5994 2364.32 59.0245 2364.6 59.8732C2365.14 61.5302 2364.68 64.1178 2363.82 65.8517C2351.08 60.5152 2338.57 55.8318 2325.86 51.4273C2313.16 47.0641 2300.35 43.0555 2287.36 39.397C2261.39 32.0928 2234.75 26.1343 2207.31 21.9838C2192.35 19.6089 2177.14 17.7612 2161.73 16.5311C2146.31 15.3047 2130.66 14.7887 2114.86 14.9818C2099.06 15.2105 2083.11 16.069 2067.12 18.0366C2051.13 19.9589 2035.12 22.7725 2019.29 26.5462C2003.46 30.403 1987.88 35.3248 1972.72 41.1553L1961.45 45.7299C1957.76 47.3588 1954.1 49.0683 1950.44 50.7511C1946.74 52.3884 1943.2 54.2629 1939.64 56.1032C1936.11 57.9753 1932.48 59.7265 1929.09 61.7724L1918.8 67.7692C1915.44 69.8395 1912.18 72.0135 1908.88 74.1475L1903.96 77.3795L1899.23 80.7799C1896.11 83.0644 1892.91 85.3034 1889.87 87.6498C1883.93 92.4521 1877.79 97.1415 1872.3 102.235C1869.51 104.754 1866.63 107.225 1863.94 109.803L1856.03 117.614C1857.75 115.944 1859.56 114.193 1861.44 112.367C1863.33 110.544 1865.27 108.636 1867.47 106.764C1869.63 104.871 1871.87 102.912 1874.18 100.893C1875.33 99.8881 1876.51 98.867 1877.7 97.8313C1878.95 96.8346 1880.22 95.8247 1881.5 94.8012C1884.09 92.7651 1886.74 90.6775 1889.45 88.5439C1890.78 87.4618 1892.23 86.4393 1893.68 85.4047C1895.14 84.369 1896.61 83.3235 1898.09 82.2682C1901.09 80.1871 1904.02 77.9528 1907.29 75.9438C1910.51 73.8945 1913.78 71.813 1917.1 69.7023C1930.64 61.5522 1945.62 53.7324 1961.55 46.9567C1977.54 40.2846 1994.39 34.6598 2011.25 30.3064C2028.1 25.9384 2044.95 22.8057 2060.93 20.876C2076.91 18.9205 2092.04 17.8862 2105.65 17.5901C2132.89 16.9861 2154.05 18.7958 2165.41 19.8193C2175.87 20.7659 2189.39 22.4608 2202.68 24.564C2204.77 24.9197 2206.85 25.2744 2208.9 25.623C2210.15 25.8443 2211.39 26.0607 2212.59 26.2711C2214.97 26.7295 2217.19 27.1587 2219.09 27.527Z" fill="#B1D136"/>
<path fill-rule="evenodd" clip-rule="evenodd" d="M1160.05 415.13C1189.06 430.657 1212.23 441.741 1237.26 453.8C1262.25 465.902 1288.93 479.147 1324.24 499.982C1359.56 520.828 1391.42 537.198 1421.46 551.332C1451.52 565.469 1479.59 577.449 1507.86 589.486C1536.15 601.506 1563.85 610.653 1589.24 615.853C1601.92 618.465 1613.96 620.156 1625.01 620.911C1636.06 621.677 1646.05 621.552 1654.54 620.993C1670.93 619.885 1685.42 616.433 1697.16 611.988C1708.91 607.485 1717.96 602.238 1724.87 597.508C1728.4 595.177 1731.24 592.847 1733.86 590.838C1736.32 588.727 1738.52 586.897 1740.3 585.244C1742.04 583.574 1743.52 582.168 1744.74 581.006C1745.89 579.817 1746.8 578.878 1747.47 578.184C1750.16 575.402 1749.21 576.558 1745.34 580.85C1741.26 585.014 1734.06 592.406 1722.1 600.405C1716.11 604.372 1708.88 608.387 1700.47 611.92C1692.08 615.457 1682.48 618.428 1672.14 620.39C1661.81 622.372 1650.8 623.354 1639.62 623.364C1628.44 623.361 1617.11 622.395 1605.88 620.752C1583.39 617.452 1561.34 611.463 1540.34 604.514C1519.33 597.539 1499.27 589.601 1480.65 581.768C1460.57 573.302 1442.99 565.161 1426.76 557.359C1410.55 549.536 1395.7 542.025 1381.32 534.535C1352.58 519.557 1325.71 504.624 1294.2 487.026C1262.69 469.458 1251.22 463.612 1243.52 459.7C1235.8 455.858 1231.87 453.981 1215.12 445.514C1195.37 435.579 1181.61 428.045 1172.77 422.945C1163.93 417.853 1160.05 415.13 1160.05 415.13ZM314.566 314.563C315.173 315.631 314.29 316.5 312.608 316.46C312.293 316.463 310.158 315.426 306.447 313.451C302.756 311.463 297.375 308.658 290.816 304.856C277.588 297.378 259.184 286.389 237.951 272.393C216.726 258.397 192.602 241.463 167.785 222.345C142.944 203.253 117.315 182.071 92.6475 159.966C72.4509 142.634 52.8923 124.559 38.5533 110.676C31.376 103.743 25.4829 97.8692 21.3703 93.7398C17.2656 89.6191 14.8982 87.2019 14.9218 87.4021C15.0518 88.2091 13.5548 90.1866 11.5813 91.7917C11.4079 91.9269 13.1806 94.2544 16.5368 98.228C19.897 102.206 24.8567 107.84 31.1792 114.702C43.8125 128.431 61.9291 147.064 83.4887 167.406C136.688 216.766 200.69 268.095 271.868 312.203C307.444 334.226 344.843 354.338 383.089 371.408C402.191 379.971 421.576 387.673 440.973 394.489C460.382 401.287 479.759 407.296 499.01 412.188C518.269 417.055 537.28 421.005 555.807 423.98C560.443 424.697 565.068 425.299 569.622 425.945C571.902 426.253 574.164 426.594 576.429 426.866C578.702 427.108 580.959 427.348 583.204 427.586C587.703 428.038 592.127 428.573 596.531 428.927C600.943 429.238 605.299 429.545 609.597 429.847C613.883 430.203 618.149 430.304 622.345 430.453C626.544 430.583 630.676 430.77 634.749 430.832C638.834 430.823 642.852 430.814 646.8 430.804C648.777 430.797 650.735 430.789 652.673 430.781C654.615 430.752 656.541 430.643 658.448 430.577C666.082 430.252 673.437 430.062 680.472 429.392C683.994 429.109 687.437 428.832 690.805 428.561C692.491 428.447 694.15 428.255 695.784 428.052C697.423 427.856 699.042 427.665 700.642 427.474C707.031 426.689 713.125 426.061 718.801 425.052C724.49 424.108 729.875 423.339 734.842 422.382C744.742 420.348 753.298 418.764 760.105 416.948C763.532 416.105 766.577 415.357 769.212 414.709C770.532 414.385 771.753 414.085 772.868 413.81C773.967 413.5 774.964 413.218 775.858 412.966C777.642 412.461 779.013 412.074 779.947 411.81C780.884 411.551 781.385 411.42 781.436 411.422C783.843 411.561 785.091 412.175 784.174 412.789C783.996 412.909 781.975 413.6 778.253 414.807C774.57 416.096 769.039 417.541 761.968 419.473C754.936 421.522 746.14 423.409 735.929 425.691C725.652 427.695 713.897 429.948 700.697 431.6C694.122 432.607 687.169 433.199 679.917 433.908C678.101 434.081 676.269 434.257 674.418 434.434C672.566 434.608 670.691 434.673 668.796 434.798C665.011 435.016 661.15 435.238 657.219 435.463C653.284 435.745 649.285 435.737 645.216 435.839C641.143 435.905 636.999 436.021 632.796 436.035C628.596 435.962 624.338 435.887 620.013 435.811C617.846 435.764 615.668 435.716 613.473 435.669C611.291 435.554 609.093 435.437 606.879 435.319C571.398 433.644 532.589 428.118 493.082 418.393C488.165 417.136 483.159 415.962 478.215 414.596C473.283 413.212 468.312 411.816 463.313 410.414C453.421 407.416 443.396 404.363 433.496 400.919C413.619 394.143 393.789 386.476 374.199 378.042C335.074 361.095 296.954 341.113 260.744 319.384C224.514 297.66 190.243 274.144 158.37 250.187C126.501 226.218 97.0437 201.794 70.4221 178.018C49.804 160.39 32.4358 144.468 20.1729 132.881C14.0474 127.08 9.17831 122.396 5.82599 119.134C4.14393 117.506 2.8439 116.249 1.9615 115.399C1.51637 114.976 1.17367 114.656 0.945191 114.441C0.712775 114.228 0.586741 114.124 0.574923 114.134C-1.2135 115.371 1.47709 119.379 4.43941 124.387C7.40568 129.384 10.6557 135.398 9.98598 140.871C9.91901 141.406 10.7146 141.777 10.2694 142.455C9.65098 143.385 10.4428 144.234 13.417 145.792C16.6275 147.458 17.3325 148.288 17.041 150.08C16.8007 151.652 17.7225 152.995 20.2712 154.625C24.9708 157.676 34.9019 167.076 34.051 167.736C33.6689 168.031 35.9929 170.469 39.1876 173.143C43.4066 176.639 47.1332 179.749 50.3358 182.478C51.9312 183.845 53.4084 185.11 54.7595 186.271C55.4292 186.859 56.0635 187.422 56.6741 187.956C57.8204 188.996 58.9117 189.984 59.9438 190.92C65.4902 195.965 69.7682 199.911 72.7187 202.743C75.6535 205.589 77.245 207.337 77.4459 207.959C78.0328 209.835 79.3759 210.858 82.224 211.578C84.7649 212.23 86.506 213.51 87.1363 215.123C88.3733 218.404 100.423 228.197 103.067 228.024C104.182 227.965 106.25 228.919 107.723 230.158C109.181 231.381 109.023 232.386 107.372 232.377C104.792 232.355 106.356 233.969 117.815 242.848C125.332 248.573 131.067 253.557 130.63 253.975C130.157 254.417 131.831 255.621 134.388 256.675C136.925 257.73 139.45 259.351 140.033 260.319C140.612 261.291 142.865 262.915 145.02 263.944C147.009 264.868 152.493 268.725 162.585 275.795C172.658 282.879 187.233 293.259 207.796 306.892C213.823 310.83 219.756 314.601 224.506 317.452C229.285 320.283 232.807 322.254 233.917 322.684C236.123 323.518 238.381 325.127 238.916 326.14C239.432 327.189 244.542 330.487 250.285 333.495C260.472 338.73 268.516 343.75 281.705 352.769C285.218 355.155 289.295 357.113 290.706 357.179C291.411 357.208 294.594 358.648 299.144 360.932C303.761 363.155 309.756 366.214 316.051 369.53C322.094 372.592 328.168 375.718 333.171 378.195C338.213 380.632 342.094 382.507 343.583 383.229C344.28 383.555 345.229 384.069 345.69 384.371C346.431 384.893 352.087 387.45 356.484 389.278C357.394 389.678 359.265 390.497 361.597 391.522C363.913 392.568 366.71 393.808 369.527 394.99C375.132 397.388 380.627 399.764 382.057 400.443C383.676 401.192 387.415 402.704 390.346 403.864C392.493 404.728 396.203 406.22 400.647 408.006C405.161 409.704 410.424 411.681 415.588 413.625C416.018 413.778 417.302 414.374 419.075 415.151C420.855 415.932 423.097 416.92 425.385 417.926C429.951 419.96 434.146 421.736 434.702 421.891C435.261 422.026 436.368 422.297 437.168 422.462C437.971 422.633 444.191 424.994 451.022 427.699C454.406 429.088 458.546 430.517 462.351 431.886C466.165 433.242 469.69 434.474 472.003 435.252C474.319 436.019 478.112 437.17 482.308 438.479C486.527 439.757 491.1 441.274 495.229 442.368C504.892 445.116 522.473 449.784 541.55 453.325C551.001 455.283 560.924 456.674 570.067 458.112C574.68 458.721 579.147 459.226 583.303 459.719C587.466 460.189 591.319 460.686 594.817 460.91C597.839 461.159 601.348 461.448 605.107 461.759C608.869 462.084 612.871 462.454 616.932 462.639C625.039 463.073 633.158 463.702 639.437 463.813C647.899 464.144 665.582 464.331 687.315 462.511C709.02 460.808 734.779 457.306 758.785 451.708C760.29 451.38 761.803 451.071 763.292 450.725C764.769 450.351 766.242 449.976 767.711 449.604C770.642 448.851 773.549 448.104 776.421 447.366C779.285 446.615 782.113 445.873 784.898 445.144C787.64 444.314 790.335 443.496 792.974 442.695C798.241 441.06 803.338 439.569 808.038 437.969C812.694 436.3 817.07 434.735 821.092 433.295C825.11 431.846 828.766 430.517 831.878 429.166C835.018 427.861 837.736 426.713 839.95 425.752C844.389 423.832 846.839 422.666 846.745 422.497C846.745 422.497 847.261 422.262 848.199 421.838C848.569 421.667 849.022 421.46 849.55 421.217C849.928 421.041 850.357 420.838 850.834 420.614C852.744 419.738 855.364 418.47 858.326 417.277C861.257 415.984 864.759 414.705 867.978 413.459C869.604 412.878 871.161 412.32 872.547 411.824C873.93 411.304 875.186 410.955 876.148 410.613C877.605 410.126 879.563 409.443 882.041 408.807C883.274 408.471 884.617 408.103 886.067 407.708C887.54 407.365 889.116 406.998 890.786 406.609C897.51 405.126 905.944 403.647 915.698 402.714C925.447 401.79 936.489 401.317 948.283 401.772C960.058 402.187 972.526 403.356 984.863 405.195C994.062 406.572 1004.85 408.574 1014.82 410.78C1024.78 412.983 1033.9 415.29 1039.67 416.84C1054.38 420.721 1066.95 424.696 1078.46 428.585C1089.97 432.497 1100.45 436.378 1111.03 440.591C1132.2 449.054 1153.83 458.568 1185.37 474.071C1206.12 484.263 1233.81 498.441 1246.93 505.067C1292.27 527.83 1334.37 551.972 1378.91 577.872C1398.54 589.276 1413.01 597.254 1422.62 602.37C1432.23 607.492 1437.01 609.755 1437.51 609.735C1437.77 609.725 1438.22 609.931 1438.52 610.213C1439.05 610.67 1448.08 615.43 1460.89 621.589C1467.28 624.675 1474.68 628.087 1482.36 631.502C1490.1 634.896 1498.1 638.298 1505.82 641.32C1515.74 645.209 1523.72 648.228 1529.34 650.365C1534.92 652.527 1538.07 653.831 1538.29 654.312C1538.75 655.335 1539.29 655.478 1540.03 654.783C1540.31 654.532 1541.82 654.79 1545.52 655.688C1547.38 656.132 1549.76 656.745 1552.77 657.548C1555.86 658.313 1559.53 659.292 1564.1 660.397C1566.4 660.942 1568.89 661.532 1571.59 662.169C1574.35 662.768 1577.33 663.409 1580.54 664.1C1583.83 664.74 1587.33 665.435 1591.16 666.112C1595.06 666.742 1599.11 667.474 1603.71 668.053C1606 668.345 1608.27 668.704 1610.77 668.951C1613.26 669.205 1615.81 669.466 1618.44 669.737C1621.15 669.934 1623.93 670.133 1626.79 670.34C1629.64 670.543 1632.74 670.601 1635.84 670.716C1648.36 671.001 1662.95 670.604 1679.74 667.942C1688.59 666.485 1695.91 664.801 1701.82 663.127C1704.78 662.27 1707.4 661.511 1709.69 660.749C1711.97 659.956 1713.94 659.238 1715.63 658.594C1719.02 657.344 1721.23 656.264 1722.59 655.525C1723.95 654.776 1724.45 654.326 1724.32 654.075C1723.8 653.079 1724.04 653.008 1725.34 653.723C1726.01 654.082 1730 653.028 1740.01 648.262C1742.46 647.018 1745.34 645.582 1748.51 643.793C1750.06 642.868 1751.72 641.886 1753.49 640.835C1755.26 639.775 1757.11 638.633 1758.96 637.356C1760.84 636.092 1762.81 634.737 1764.88 633.287C1766.88 631.82 1768.93 630.238 1771.09 628.561C1773.3 626.891 1775.38 625.082 1777.6 623.168C1778.7 622.209 1779.83 621.223 1780.99 620.214C1782.1 619.197 1783.18 618.15 1784.31 617.073C1797.12 604.792 1805.5 593.859 1812.3 583.865C1819.01 573.847 1824.15 564.629 1828.67 555.245C1837.51 536.513 1844.48 516.898 1850.79 489.111C1852.33 482.662 1855 469.622 1856.54 460.195C1857.41 455.46 1858.11 450.174 1858.82 445.388C1859.42 440.635 1859.88 436.427 1860.13 433.891C1860.37 431.373 1860.77 427.267 1861.21 422.677C1861.43 420.534 1861.67 418.278 1861.9 416.039C1862.14 413.979 1862.37 411.935 1862.58 410.024C1863.09 405.511 1863.56 401.337 1863.99 397.456C1864.46 393.584 1865 390.049 1865.42 386.728C1866.31 380.104 1866.88 374.399 1867.63 369.43C1867.96 367.218 1868.42 364.03 1868.91 360.678C1869.42 357.328 1869.9 353.79 1870.51 350.984C1871.9 344.048 1872.94 338.1 1873.97 333.113C1875.07 328.161 1875.94 324.067 1876.62 320.668C1877.83 316.121 1879.21 312.19 1880.24 308.812C1881.29 305.443 1882.1 302.682 1882.63 300.694C1883.7 296.757 1885.47 291.769 1887.14 286.733C1887.56 285.479 1887.99 284.225 1888.41 282.991C1888.86 281.776 1889.35 280.605 1889.8 279.458C1890.73 277.176 1891.6 275.045 1892.35 273.212C1893.26 271.118 1894.15 268.692 1895.3 266.211C1896.44 263.721 1897.65 261.053 1898.92 258.279C1899.54 256.886 1900.18 255.468 1900.82 254.03C1901.46 252.59 1902.22 251.211 1902.92 249.777C1904.34 246.922 1905.78 244.031 1907.2 241.17C1908.63 238.318 1910.23 235.638 1911.66 232.963C1913.14 230.329 1914.43 227.682 1915.9 225.412C1917.29 223.085 1918.59 220.918 1919.75 218.972C1920.33 217.993 1920.87 217.07 1921.37 216.21C1921.87 215.351 1922.4 214.612 1922.84 213.907C1924.36 211.541 1926.11 208.825 1927.7 206.358C1928.47 205.096 1929.28 203.979 1930 202.99C1930.72 201.994 1931.34 201.129 1931.82 200.467C1932.78 199.143 1934.21 197.087 1935.74 194.832C1937.37 192.669 1939.13 190.336 1940.61 188.356C1941.36 187.359 1942.08 186.384 1942.76 185.475C1943.44 184.564 1944.16 183.814 1944.74 183.12C1945.93 181.756 1946.79 180.821 1947.02 180.656C1947.48 180.326 1948.12 179.859 1948.45 179.623C1948.6 179.498 1949.17 178.839 1949.97 177.871C1950.37 177.393 1950.81 176.814 1951.32 176.23C1951.83 175.654 1952.38 175.035 1952.95 174.401C1955.18 171.842 1957.4 169.398 1957.87 168.978C1958.57 168.326 1959.32 167.724 1960.08 167.143C1960.82 166.551 1961.57 165.964 1962.3 165.384C1963.76 164.221 1965.17 163.096 1966.47 162.056C1967.74 160.975 1969.05 160.163 1970.1 159.382C1971.17 158.618 1972.07 157.98 1972.72 157.512C1974.53 156.257 1976.75 154.565 1977.81 153.905C1978.73 153.279 1982.22 150.946 1985.86 148.698C1989.6 146.605 1993.37 144.42 1994.65 143.805C1997.74 142.413 2001.67 140.437 2002.19 140.038C2002.51 139.802 2003.15 139.376 2003.66 139.166C2004.75 138.672 2007.56 137.389 2011.22 135.722C2012.12 135.281 2013.11 134.872 2014.15 134.474C2015.18 134.061 2016.26 133.632 2017.36 133.194C2019.56 132.324 2021.81 131.325 2024.19 130.566C2026.67 129.707 2029.08 128.884 2031.33 128.15C2033.64 127.526 2035.77 126.969 2037.62 126.513C2041.28 125.543 2043.93 125.262 2044.45 125.423C2045.53 125.807 2048.79 125.139 2051.84 124.091C2054.73 123.168 2057.35 122.356 2059.79 121.641C2062.26 120.995 2064.58 120.518 2066.78 120.072C2067.88 119.855 2068.96 119.655 2070.02 119.474C2071.1 119.338 2072.18 119.219 2073.25 119.113C2075.39 118.902 2077.52 118.75 2079.74 118.638C2084.87 118.591 2089.62 117.967 2090.43 117.331C2091.23 116.713 2093.47 116.449 2095.31 116.789C2096.25 116.972 2099.45 116.899 2103.95 116.99C2106.2 117.033 2108.72 116.939 2111.47 117.017C2114.21 117.079 2117.12 117.103 2120.07 117.125C2140.44 117.644 2155.63 119.509 2166.02 121.131C2168.61 121.501 2170.91 121.92 2172.93 122.304C2174.94 122.697 2176.68 123.034 2178.14 123.319C2179.6 123.626 2180.78 123.94 2181.71 124.187C2182.17 124.314 2182.57 124.43 2182.9 124.538C2183.19 124.638 2183.17 124.687 2183.28 124.76C2183.93 125.339 2184.82 125.573 2185.27 125.268C2185.73 124.957 2186.65 125.384 2187.33 126.202C2188.01 127.026 2188.66 127.254 2188.81 126.658C2188.94 126.084 2191.55 126.294 2194.62 127.113C2199.33 128.367 2200.13 128.406 2199.95 126.765C2199.84 125.726 2200.26 124.977 2200.91 125.11C2201.56 125.243 2202.12 125.939 2202.17 126.681C2202.28 128.43 2207.34 129.816 2208.9 128.594C2209.67 127.987 2210.34 128.321 2210.75 129.553C2211.2 130.94 2211.72 131.167 2212.62 130.381C2213.22 129.847 2216.12 130.169 2221.16 131.441C2226.21 132.672 2233.4 134.915 2242.48 138.231C2245.92 139.517 2248.89 140.22 2249.06 139.817C2249.25 139.34 2252.27 140.05 2255.76 141.175C2259.23 142.346 2263.17 143.919 2265.19 145.2C2267.38 146.561 2268.87 146.783 2270.34 146.004C2272 145.12 2272.98 145.376 2275.31 147.292C2277.47 149.063 2278.44 149.419 2279.22 148.599C2279.79 148.013 2280.32 148.513 2280.83 148.276C2286.06 145.834 2292.66 146.501 2298.14 147.358C2303.61 148.224 2307.93 149.282 2308.93 147.508C2308.94 147.489 2308.74 147.369 2308.34 147.156C2307.94 146.951 2307.33 146.646 2306.53 146.247C2304.95 145.455 2302.56 144.336 2299.5 142.917C2293.37 140.098 2284.38 136.189 2273.25 131.848C2262.12 127.501 2248.83 122.732 2234.17 118.252C2226.85 115.964 2219.18 113.848 2211.31 111.747C2203.41 109.758 2195.31 107.759 2187.1 106.099C2138.47 97.1605 2087.83 96.097 2043.68 106.154C2032.63 108.593 2022.06 111.827 2011.9 115.417C2009.39 116.374 2006.9 117.327 2004.41 118.274C2001.91 119.211 1999.56 120.359 1997.14 121.373C1995.94 121.894 1994.73 122.414 1993.54 122.932C1992.33 123.438 1991.21 124.063 1990.04 124.618C1987.73 125.757 1985.42 126.888 1983.14 128.013C1965.12 137.475 1949.38 148.647 1936 160.335C1922.61 172.024 1911.62 184.232 1902.53 195.64C1893.32 206.985 1886.41 217.822 1880.65 226.781C1875.19 235.92 1870.91 243.236 1868.26 248.472C1865.48 253.651 1863.89 256.515 1863.67 256.703C1862.99 257.328 1862.26 256.338 1862.14 254.541C1862.13 254.484 1862.46 253.754 1863.09 252.398C1863.72 251.043 1864.66 249.059 1865.87 246.488C1868.2 241.294 1872.14 234.002 1877.22 224.813C1882.57 215.786 1889.09 204.836 1897.93 193.23C1906.65 181.567 1917.3 168.965 1930.51 156.718C1943.68 144.465 1959.42 132.604 1977.67 122.291C1979.97 121.032 1982.34 119.839 1984.69 118.592C1985.87 117.972 1987.05 117.351 1988.24 116.728C1989.44 116.136 1990.68 115.588 1991.91 115.012C1994.37 113.873 1996.84 112.728 1999.33 111.575C2001.88 110.531 2004.45 109.482 2007.03 108.427C2009.58 107.315 2012.26 106.431 2014.92 105.466C2017.6 104.531 2020.24 103.484 2023.01 102.692C2025.76 101.839 2028.51 100.983 2031.28 100.123C2034.1 99.3765 2036.94 98.6284 2039.78 97.8753C2051.22 95.0244 2063.09 92.7498 2075.28 91.1545C2087.5 89.6425 2100.02 88.7579 2112.71 88.5038C2138.08 87.9425 2164.09 90.1249 2189.72 94.1649C2208.15 96.8877 2226.29 100.714 2243.04 104.881C2259.78 109.107 2275.12 113.684 2288.06 117.973C2301.02 122.224 2311.55 126.175 2318.86 128.925C2326.17 131.703 2330.21 133.279 2330.38 133.034C2331.85 131.067 2333.76 129.418 2334.61 129.354C2334.9 129.347 2330.39 126.924 2322.23 123.112C2314.07 119.315 2302.27 114.204 2288.32 108.888C2274.37 103.588 2258.28 98.0732 2241.71 93.2841C2225.16 88.4225 2208.13 84.3486 2192.56 81.2596C2187.15 80.2449 2181.78 79.4833 2176.51 78.6469C2171.22 77.9592 2166.03 77.1779 2160.9 76.667C2150.67 75.4498 2140.78 74.8013 2131.38 74.2742C2112.58 73.4269 2095.71 73.9059 2081.65 75.0087C2053.47 77.2321 2036.64 81.6035 2035.81 81.2325C2034.27 80.8456 2033.73 79.794 2034.63 78.9183C2034.9 78.5734 2039.31 77.4052 2047.13 75.4792C2049.09 75.0002 2051.29 74.6059 2053.69 74.1062C2056.09 73.6468 2058.68 73.0522 2061.49 72.5989C2064.31 72.1483 2067.33 71.6679 2070.52 71.157C2073.72 70.6485 2077.13 70.3145 2080.7 69.8551C2095.02 68.2177 2112.25 67.1983 2131.53 67.5313C2141.16 67.7953 2151.31 68.1981 2161.82 69.1721C2167.08 69.5627 2172.42 70.2223 2177.86 70.7959C2183.27 71.5144 2188.8 72.1642 2194.36 73.0657C2210.49 75.2262 2228.2 78.3989 2245.48 82.4287C2262.79 86.3874 2279.68 91.1409 2294.42 95.7823C2309.15 100.439 2321.73 104.992 2330.6 108.351C2339.45 111.715 2344.64 113.851 2344.58 113.555C2344.32 112.514 2344.78 111.324 2345.62 110.932C2347.43 110.085 2348.35 103.122 2346.71 102.388C2346.12 102.124 2345.1 100.225 2344.46 98.2056C2343.8 96.1692 2342.62 94.5345 2341.85 94.585C2341.1 94.6253 2340.6 93.6906 2340.75 92.4846C2340.81 92.0729 2340.73 91.4713 2340.6 90.8154C2337.13 89.3389 2333.91 88.0014 2332.99 87.6355C2331.86 87.1772 2329.32 86.154 2327.33 85.3521C2324.41 84.1704 2317.22 81.3921 2310.23 78.8298C2309.65 78.6286 2306.59 77.5587 2303.41 76.4458C2300.22 75.3674 2297.32 74.3897 2296.96 74.2671C2296.6 74.1404 2295.89 73.89 2295.39 73.7132L2285.99 70.6705C2283.64 69.9496 2280.88 69.1009 2278.32 68.3136C2275.75 67.5581 2273.38 66.8619 2271.83 66.4073C2268.75 65.4787 2261.84 63.5577 2256.47 62.1365C2250.14 60.4331 2238.65 57.5369 2226.48 54.917C2223.43 54.2855 2220.34 53.6469 2217.3 53.0168C2214.23 52.4395 2211.2 51.8697 2208.29 51.3218C2205.39 50.753 2202.55 50.3207 2199.93 49.8725C2198.47 49.6317 2197.05 49.3959 2195.64 49.1651C2194.01 48.8799 2192.39 48.6702 2190.82 48.4378C2187.67 47.9882 2184.66 47.561 2181.82 47.1568C2171.96 45.8857 2158.8 44.4781 2145.46 43.6575C2132.11 42.8715 2118.6 42.7448 2108.24 42.9329C2104.91 43.0091 2100.74 43.1968 2095.83 43.3773C2093.38 43.4597 2090.74 43.7016 2087.94 43.8784C2085.13 44.1034 2082.16 44.2152 2079.03 44.5739C2066.51 45.6804 2051.52 47.7538 2035.19 51.225C2033.62 51.5651 2032.03 51.909 2030.43 52.2566C2029.63 52.432 2028.82 52.6089 2028.01 52.7861C2027.21 52.9934 2026.4 53.2011 2025.6 53.4098C2022.36 54.2551 2019.05 55.1159 2015.68 55.994C2012.33 56.9325 2008.96 58.0183 2005.51 59.0634C2002.05 60.0696 1998.62 61.3126 1995.12 62.5641C1981.14 67.5361 1966.61 73.7193 1952.39 81.5554C1938.13 89.3291 1924.06 98.5349 1910.72 109.038C1907.45 111.719 1904.16 114.421 1900.85 117.143C1897.71 119.996 1894.55 122.87 1891.37 125.762C1889.75 127.187 1888.27 128.712 1886.77 130.229C1885.26 131.747 1883.76 133.269 1882.25 134.794C1880.76 136.335 1879.18 137.826 1877.76 139.42C1876.34 141.009 1874.91 142.605 1873.48 144.203C1867.62 150.522 1862.4 157.269 1857.06 164C1854.56 167.444 1852.05 170.9 1849.53 174.368C1848.91 175.237 1848.26 176.097 1847.66 176.977L1845.91 179.639C1844.75 181.417 1843.59 183.197 1842.42 184.979L1838.93 190.33C1837.79 192.121 1836.77 193.962 1835.68 195.778C1833.55 199.425 1831.38 203.067 1829.28 206.736C1827.33 210.448 1825.37 214.164 1823.42 217.881C1822.46 219.746 1821.41 221.583 1820.54 223.472L1817.89 229.121C1816.14 232.893 1814.3 236.641 1812.64 240.427C1811.05 244.229 1809.46 248.028 1807.87 251.821C1807.09 253.719 1806.28 255.608 1805.52 257.509L1803.4 263.234C1802 267.045 1800.59 270.849 1799.19 274.643C1797.85 278.447 1796.68 282.269 1795.43 286.061C1794.23 289.864 1792.9 293.629 1791.82 297.42C1790.75 301.209 1789.68 304.982 1788.62 308.739C1787.57 312.497 1786.45 316.225 1785.6 319.967C1784.69 323.701 1783.78 327.414 1782.88 331.105C1781.98 334.795 1781.07 338.461 1780.36 342.121C1779.61 345.776 1778.86 349.406 1778.11 353.008C1777.39 356.612 1776.57 360.179 1776.01 363.737C1774.8 370.843 1773.6 377.829 1772.43 384.677C1771.47 391.534 1770.53 398.253 1769.61 404.814C1769.18 408.007 1768.76 411.163 1768.33 414.278C1767.92 417.335 1767.56 420.366 1767.08 423.324C1766.63 426.289 1766.19 429.211 1765.75 432.09C1765.25 434.954 1764.76 437.774 1764.28 440.548C1762.26 451.612 1760.12 461.874 1757.75 471.113C1753.06 489.616 1747.81 504.105 1743.66 513.835C1742.58 516.247 1741.62 518.392 1740.79 520.248C1739.95 522.101 1739.14 523.612 1738.54 524.869C1737.92 526.113 1737.45 527.065 1737.14 527.702C1736.8 528.325 1736.62 528.643 1736.62 528.643C1732.77 535.731 1727.61 544.092 1720.21 552.917C1712.79 561.682 1703.03 570.968 1689.32 577.821C1672.07 586.582 1651.36 589.421 1629.9 587.775C1608.41 586.206 1586.52 580.823 1565.07 573.803C1543.57 566.757 1522.36 558.043 1501.28 548.53C1480.19 538.997 1459.2 528.626 1438.04 517.789C1425.79 511.518 1406.64 501.49 1385.66 490.29C1364.64 479.067 1341.75 466.846 1322.06 456.332C1262 424.434 1219.94 403.641 1177.77 385.227C1156.65 376.06 1135.5 367.466 1111.65 359.009C1099.72 354.798 1087.11 350.632 1073.45 346.595C1059.77 342.572 1045.06 338.63 1028.84 335.164C1016.13 332.419 995.752 328.505 972.79 326.293C961.314 325.198 949.221 324.519 937.25 324.434C925.282 324.337 913.445 324.843 902.517 325.814C873.221 328.492 843.479 335.229 816.692 345.757C810.24 348.342 803.838 350.909 797.504 353.447C791.371 356.025 785.072 358.089 778.93 360.252C766.608 364.484 754.389 367.95 742.626 370.838C719.077 376.596 697.277 379.652 679.448 381.263C677.219 381.456 675.052 381.643 672.948 381.825C670.845 382.003 668.812 382.209 666.839 382.267C662.892 382.455 659.224 382.629 655.864 382.789C654.182 382.859 652.579 382.974 651.054 382.996C649.526 383.014 648.076 383.029 646.709 383.043C643.979 383.078 641.58 383.108 639.536 383.133C638.181 383.147 636.632 383.162 634.935 383.179C633.233 383.165 631.377 383.09 629.404 383.043C625.457 382.92 621.029 382.849 616.408 382.656C611.791 382.364 606.978 382.058 602.239 381.758C597.508 381.433 592.871 380.873 588.581 380.484C586.438 380.259 584.339 380.099 582.326 379.837C580.313 379.57 578.371 379.312 576.519 379.066C572.82 378.576 569.484 378.134 566.679 377.763C561.097 376.844 557.627 376.273 557.575 376.264C557.418 376.239 556.244 376.042 554.168 375.696C552.092 375.353 549.11 374.88 545.383 374.095C541.653 373.338 537.13 372.475 531.962 371.392C526.829 370.183 521.007 368.908 514.689 367.355C511.541 366.532 508.26 365.673 504.856 364.783C503.154 364.335 501.425 363.882 499.664 363.42C497.919 362.912 496.146 362.395 494.35 361.87C490.75 360.819 487.047 359.738 483.249 358.629C479.491 357.423 475.643 356.187 471.715 354.927C456.064 349.743 439.326 343.749 422.667 336.78C405.981 329.867 389.251 322.243 373.312 314.388C357.402 306.482 342.302 298.33 328.661 290.635C301.456 275.127 280.235 261.304 270.021 254.536C266.267 252.018 261.89 249.161 257.336 245.989C252.763 242.847 247.898 239.515 243.127 236.098C240.732 234.399 238.341 232.703 235.985 231.034C233.657 229.337 231.369 227.669 229.151 226.056C224.696 222.846 220.614 219.773 217.097 217.139C208.946 211.075 199.008 203.389 188.36 194.944C177.728 186.477 166.461 177.174 155.601 167.926C144.728 158.684 134.317 149.453 125.268 141.231C120.671 137.018 116.701 133.377 113.864 130.778C110.272 127.404 105.608 123.046 103.551 121.053C101.475 119.071 97.1972 114.968 94.0813 111.909C90.9653 108.85 88.141 106.079 87.7982 105.742C87.4555 105.414 86.967 104.95 86.7228 104.716C86.4785 104.473 84.5562 102.548 82.433 100.425L77.9106 95.8524C73.2111 91.1569 68.4092 86.2387 66.4711 84.2257C65.1514 82.8539 63.4653 81.101 62.709 80.3174C62.1063 79.6822 59.9792 77.4408 57.6866 75.0297C56.9342 75.0812 56.2525 75.1611 55.8073 75.3048C54.4956 75.7211 53.365 75.5321 53.2744 74.9118C53.1877 74.2779 51.1709 73.7067 48.7876 73.6085C46.4162 73.5201 44.1394 73.0793 43.7455 72.6372C42.6977 71.4799 34.9687 73.4709 34.2597 75.1134C33.9367 75.881 32.6604 76.4729 31.4274 76.4177C31.1516 76.4028 33.066 78.9443 36.6546 83.2628C40.2512 87.5851 45.5416 93.6981 52.0729 100.92C65.1119 115.376 83.1814 134.218 101.905 152.448C125.753 174.891 150.59 196.47 174.69 215.998C198.759 235.552 222.186 252.961 242.785 267.458C263.399 281.945 281.24 293.466 293.995 301.458C300.314 305.524 305.478 308.576 308.968 310.823C312.466 313.056 314.424 314.328 314.566 314.563Z" fill="#B1D136"/>
</svg>
