<svg width="1440" height="1186" viewBox="0 0 1440 1186" fill="none" xmlns="http://www.w3.org/2000/svg">
<path d="M0 0H1440V1186H0V0Z" fill="#DFA100"/>
<path fill-rule="evenodd" clip-rule="evenodd" d="M911.598 550.409C938.968 535.078 964.79 520.616 996.722 500.742C996.722 500.742 992.238 504.405 982.012 511.254C971.786 518.114 955.869 528.248 933.02 541.612C918.798 549.971 912.565 553.554 906.723 556.913C904.606 558.13 902.54 559.318 900.164 560.692C891.255 565.954 877.985 573.819 841.535 597.449C805.084 621.119 774 641.206 740.752 661.352C724.118 671.428 706.939 681.531 688.188 692.053C669.411 702.547 649.08 713.498 625.848 724.886C604.307 735.421 581.104 746.098 556.801 755.481C532.502 764.827 507 772.884 480.987 777.322C467.995 779.533 454.89 780.831 441.956 780.836C429.021 780.822 416.278 779.501 404.328 776.835C392.376 774.196 381.27 770.2 371.556 765.442C361.835 760.69 353.469 755.29 346.54 749.953C332.857 739.316 324.561 729.476 319.811 723.842L319.65 723.651C315.173 717.877 314.082 716.323 317.187 720.064L317.766 720.759C318.462 721.595 319.321 722.628 320.348 723.86C320.756 724.312 321.189 724.792 321.647 725.3C322.774 726.547 324.053 727.964 325.491 729.561C327.014 731.211 328.811 732.991 330.799 734.959C331.49 735.644 332.204 736.352 332.938 737.084C333.617 737.689 334.308 738.315 335.018 738.958C337.481 741.189 340.167 743.623 343.334 746.057C351.33 752.419 361.796 759.477 375.39 765.534C388.97 771.512 405.728 776.156 424.689 777.646C434.514 778.398 446.077 778.567 458.853 777.537C471.631 776.52 485.562 774.247 500.232 770.733C529.61 763.738 561.645 751.434 594.377 735.266C627.079 719.075 659.551 702.962 694.32 683.946C729.069 664.934 765.926 642.915 806.783 614.876C847.637 586.85 878.491 569.036 907.405 552.757C908.807 551.972 910.205 551.189 911.598 550.409ZM0 15.5737C0.773633 15.8082 1.55033 16.0436 2.33008 16.2798C3.84962 16.7403 5.38072 17.2043 6.92317 17.6719C9.57884 18.5373 12.2467 19.4959 14.947 20.4662C16.1853 20.9111 17.4304 21.3585 18.6842 21.8005C22.4905 23.0863 26.2683 24.6595 30.1041 26.2569C30.3059 26.3409 30.5079 26.425 30.71 26.5092C46.8841 33.197 63.691 41.5139 80.1444 52.0541C96.636 62.5106 112.914 74.8932 128.345 89.0207C130.16 90.7532 131.981 92.4922 133.809 94.2376C135.786 96.1253 137.771 98.0205 139.764 99.9228L142.496 102.813C145.225 105.7 147.968 108.601 150.724 111.516C152.38 113.209 153.91 115.007 155.443 116.81C155.645 117.048 155.848 117.286 156.051 117.525C156.416 117.953 156.782 118.382 157.147 118.812C158.522 120.427 159.9 122.044 161.282 123.666C161.878 124.382 162.486 125.091 163.096 125.801C164.247 127.142 165.401 128.485 166.473 129.887C167.703 131.484 168.935 133.086 170.169 134.69C170.587 135.233 171.005 135.777 171.424 136.321C177.358 143.764 182.723 151.648 188.116 159.572C188.882 160.697 189.649 161.824 190.417 162.95C193.312 167.582 196.216 172.231 199.128 176.895C199.385 177.313 199.646 177.73 199.907 178.147C200.375 178.895 200.844 179.644 201.292 180.404L203.31 183.986C204.655 186.377 206 188.771 207.348 191.168L211.386 198.366C212.246 199.929 213.044 201.521 213.842 203.113C214.274 203.975 214.705 204.836 215.147 205.693C215.906 207.201 216.668 208.708 217.431 210.215C219.151 213.614 220.872 217.015 222.549 220.433C223.573 222.695 224.597 224.957 225.622 227.22C226.86 229.954 228.098 232.689 229.337 235.425C229.721 236.3 230.12 237.172 230.519 238.043C231.262 239.667 232.006 241.291 232.66 242.945L235.735 250.544C236.425 252.275 237.128 254.002 237.83 255.729C239.186 259.063 240.541 262.396 241.805 265.751C243.517 270.516 245.23 275.278 246.94 280.032L247.315 281.076C247.629 281.96 247.947 282.842 248.265 283.724C248.865 285.391 249.466 287.056 250.035 288.727L252.488 296.428C253.526 299.698 254.564 302.964 255.599 306.226C256.187 308.077 256.775 309.927 257.361 311.775C258.377 315.126 259.308 318.489 260.237 321.843C260.727 323.609 261.215 325.373 261.715 327.132C262.202 328.928 262.708 330.717 263.213 332.503C264.146 335.807 265.078 339.102 265.883 342.411L266.823 346.273C267.748 350.073 268.67 353.861 269.588 357.637C269.862 358.775 270.139 359.91 270.416 361.045C271.371 364.95 272.321 368.838 273.084 372.739C274.137 377.762 275.184 382.756 276.224 387.721L276.394 388.525C277.384 393.217 278.368 397.881 279.14 402.539L279.264 403.236C280.097 407.917 280.924 412.567 281.744 417.183C281.977 418.527 282.217 419.867 282.458 421.205C283.084 424.69 283.706 428.155 284.174 431.614C284.879 436.402 285.577 441.149 286.269 445.853C286.959 450.54 287.642 455.183 288.319 459.78C288.857 464.257 289.39 468.69 289.917 473.076C290.476 477.727 291.029 482.325 291.575 486.866C292.075 491.162 292.569 495.406 293.058 499.596C293.194 500.769 293.326 501.939 293.457 503.105C293.785 506.026 294.11 508.92 294.505 511.764C295.027 515.752 295.542 519.682 296.051 523.555C296.343 525.525 296.633 527.48 296.921 529.418C297.196 531.271 297.469 533.108 297.74 534.931C300.08 549.814 302.559 563.617 305.305 576.045C310.725 600.932 316.802 620.422 321.601 633.509C322.85 636.754 323.961 639.638 324.923 642.136C325.544 643.728 326.149 645.132 326.686 646.379C326.99 647.085 327.273 647.74 327.524 648.351C327.968 649.394 328.347 650.284 328.658 651.014C328.846 651.455 329.009 651.838 329.146 652.161C329.54 652.999 329.742 653.428 329.742 653.428C334.198 662.961 340.161 674.207 348.724 686.078C357.305 697.867 368.602 710.358 384.463 719.577C404.41 731.361 428.371 735.18 453.201 732.965C478.052 730.855 503.379 723.614 528.194 714.172C553.062 704.694 577.596 692.973 601.988 680.177C626.387 667.354 650.667 653.405 675.137 638.827C689.318 630.392 711.468 616.904 735.733 601.839L809.312 556.163C878.788 513.257 927.442 485.289 976.224 460.52C1000.65 448.19 1025.13 436.63 1052.71 425.254C1066.51 419.59 1081.1 413.986 1096.91 408.556C1112.72 403.145 1129.75 397.843 1148.5 393.181C1163.21 389.489 1186.78 384.223 1213.35 381.248C1226.62 379.776 1240.61 378.862 1254.46 378.748C1268.3 378.617 1282 379.298 1294.64 380.603C1328.53 384.207 1362.93 393.269 1393.92 407.429C1401.38 410.907 1408.79 414.36 1416.12 417.773C1421.71 420.504 1427.41 422.806 1433.06 425.082C1434.58 425.696 1436.09 426.308 1437.6 426.926C1438.4 427.245 1439.2 427.561 1440 427.874V497.451C1439.13 497.166 1438.37 496.915 1437.71 496.699L1436.43 496.277C1435.34 495.928 1434.76 495.751 1434.7 495.755C1431.92 495.941 1430.48 496.767 1431.54 497.593C1431.74 497.755 1434.08 498.684 1438.39 500.308C1438.89 500.514 1439.43 500.724 1440 500.937V543.948C1436.86 542.991 1433.76 542.045 1430.7 541.114C1427.53 539.997 1424.41 538.896 1421.36 537.819C1419.62 537.192 1417.9 536.58 1416.19 535.976C1411.94 534.463 1407.82 533 1403.93 531.462C1399.58 529.649 1395.44 527.927 1391.56 526.311L1388.83 525.176C1384.18 523.226 1379.95 521.439 1376.35 519.621C1372.72 517.867 1369.58 516.322 1367.02 515.03C1361.88 512.448 1359.05 510.878 1359.16 510.652C1359.16 510.652 1358.56 510.335 1357.47 509.765C1357.05 509.535 1356.52 509.256 1355.91 508.93C1355.66 508.791 1355.38 508.641 1355.09 508.48L1354.42 508.119C1353.97 507.876 1353.48 507.611 1352.96 507.329C1350.95 506.241 1348.48 504.904 1345.76 503.63C1343.2 502.32 1340.28 501.022 1337.4 499.744C1336.45 499.325 1335.51 498.908 1334.59 498.494C1333.34 497.972 1332.12 497.465 1330.97 496.987L1329.31 496.295C1328.35 495.878 1327.45 495.542 1326.64 495.241C1326.09 495.038 1325.59 494.851 1325.14 494.666C1324.95 494.591 1324.75 494.513 1324.54 494.433C1322.93 493.803 1320.86 492.995 1318.32 492.237L1316.44 491.64C1315.56 491.359 1314.63 491.065 1313.67 490.759C1311.96 490.298 1310.14 489.804 1308.21 489.28C1300.43 487.286 1290.67 485.297 1279.39 484.041C1268.11 482.799 1255.34 482.163 1241.69 482.774C1228.07 483.332 1213.65 484.905 1199.38 487.378C1188.74 489.23 1176.26 491.924 1164.73 494.891C1153.2 497.854 1142.65 500.957 1135.97 503.042C1118.97 508.263 1104.43 513.609 1091.11 518.84C1077.79 524.102 1065.67 529.323 1053.43 534.989C1028.94 546.372 1003.92 559.17 967.434 580.023C949.462 590.284 927 603.549 910.47 613.31C904.916 616.59 900.032 619.474 896.213 621.716C843.77 652.334 795.073 684.807 743.544 719.645C720.841 734.984 704.093 745.715 692.976 752.596C681.858 759.486 676.331 762.531 675.758 762.503C675.458 762.49 674.93 762.768 674.589 763.146C673.979 763.761 663.532 770.163 648.707 778.448C641.316 782.599 632.759 787.188 623.874 791.782C614.923 796.348 605.661 800.923 596.731 804.988C586.466 809.67 577.991 813.414 571.661 816.21C570.918 816.538 570.205 816.853 569.522 817.155C563.076 820.062 559.421 821.817 559.174 822.464C558.643 823.84 558.013 824.031 557.157 823.097C556.835 822.76 555.091 823.106 550.808 824.314C548.662 824.911 545.905 825.736 542.421 826.816C541.044 827.212 539.567 827.652 537.969 828.127C535.418 828.885 532.561 829.735 529.311 830.648C528.194 830.956 527.037 831.275 525.84 831.605C524.189 832.06 522.462 832.535 520.655 833.031C518.573 833.556 516.388 834.103 514.095 834.678C512.861 834.987 511.597 835.304 510.301 835.629C509.683 835.768 509.06 835.91 508.429 836.053C505.168 836.792 501.729 837.572 498.015 838.336C496.918 838.541 495.812 838.755 494.689 838.972C491.186 839.649 487.524 840.357 483.498 840.947C482.626 841.076 481.756 841.215 480.878 841.355C479.09 841.64 477.269 841.931 475.324 842.154L473.866 842.328C471.454 842.615 468.984 842.908 466.454 843.212C464.442 843.381 462.393 843.553 460.307 843.728C459.147 843.825 457.976 843.923 456.793 844.023C454.397 844.221 451.849 844.317 449.263 844.413C448.289 844.45 447.31 844.486 446.331 844.529C431.839 844.911 414.963 844.378 395.543 840.796C385.307 838.837 376.839 836.572 369.997 834.321C366.573 833.168 363.549 832.147 360.902 831.122C358.259 830.056 355.98 829.09 354.026 828.224C350.105 826.542 347.551 825.089 345.973 824.095C344.399 823.088 343.823 822.482 343.974 822.145C344.575 820.805 344.294 820.709 342.791 821.671C342.022 822.154 337.403 820.737 325.82 814.325C325.484 814.126 325.141 813.924 324.791 813.718C322.195 812.187 319.224 810.435 315.99 808.314C314.534 807.306 312.999 806.247 311.379 805.129L310.23 804.336C308.185 802.91 306.038 801.374 303.9 799.656C301.729 797.956 299.445 796.134 297.049 794.183C294.735 792.212 292.374 790.086 289.872 787.833L289.865 787.826C287.478 785.727 285.221 783.465 282.839 781.077L282.335 780.572C281.06 779.282 279.755 777.956 278.416 776.598C277.37 775.484 276.344 774.343 275.293 773.175C275.054 772.909 274.814 772.642 274.572 772.374C259.762 755.855 250.059 741.149 242.2 727.706C234.429 714.231 228.484 701.832 223.255 689.209C213.028 664.014 204.966 637.629 197.665 600.253C195.887 591.579 192.798 574.039 191.023 561.359C190.25 556.47 189.591 551.144 188.958 546.022C188.766 544.471 188.577 542.938 188.387 541.442C187.691 535.049 187.155 529.389 186.865 525.977C186.754 524.626 186.614 522.935 186.454 520.998C186.212 518.08 185.925 514.604 185.618 510.893C185.456 509.1 185.289 507.248 185.121 505.379C185.019 504.244 184.916 503.103 184.813 501.965C184.644 500.219 184.477 498.481 184.313 496.792L184.032 493.874C183.444 487.803 182.902 482.189 182.398 476.969C182.095 474.031 181.762 471.237 181.443 468.558C181.196 466.488 180.958 464.486 180.748 462.539C180.303 458.695 179.928 455.081 179.575 451.678C179.11 447.192 178.683 443.072 178.184 439.272C177.967 437.532 177.694 435.343 177.392 432.923C177.178 431.205 176.949 429.371 176.715 427.499C176.608 426.682 176.502 425.856 176.395 425.03C175.915 421.299 175.432 417.549 174.857 414.46C174.086 409.971 173.408 405.79 172.779 401.912C172.1 397.73 171.479 393.902 170.861 390.422C169.583 383.76 168.577 378.254 167.794 373.683C166.834 369.515 165.79 365.731 164.845 362.306C164.403 360.705 163.983 359.182 163.603 357.735C162.391 353.203 161.449 349.489 160.839 346.816C159.908 342.84 158.525 338.068 157.077 333.07C156.596 331.41 156.108 329.725 155.626 328.036C155.131 326.35 154.638 324.663 154.151 323.004C153.797 321.89 153.422 320.805 153.053 319.739C152.88 319.239 152.708 318.743 152.541 318.251C151.464 315.181 150.458 312.315 149.595 309.85C149.185 308.752 148.779 307.587 148.358 306.377C147.697 304.479 146.997 302.47 146.182 300.433C145.342 298.292 144.464 296.054 143.558 293.743C143.046 292.438 142.525 291.11 141.997 289.763C141.276 287.89 140.541 285.982 139.795 284.049C139.329 282.83 138.808 281.645 138.284 280.453C137.974 279.749 137.664 279.043 137.363 278.327C136.375 276.017 135.38 273.688 134.385 271.362C133.727 269.822 133.069 268.283 132.414 266.751C131.408 264.42 130.329 262.174 129.268 259.963C128.582 258.536 127.903 257.123 127.256 255.711C126.672 254.502 126.114 253.292 125.564 252.1C124.502 249.798 123.473 247.566 122.356 245.554L122.011 244.885C120.529 242.009 119.145 239.321 117.894 236.892C117.452 236.017 117.028 235.174 116.623 234.368C116.418 233.962 116.218 233.564 116.023 233.177C115.663 232.46 115.291 231.805 114.939 231.185C114.723 230.805 114.515 230.439 114.322 230.079C113.445 228.493 112.503 226.791 111.551 225.072C110.592 223.34 109.624 221.59 108.703 219.925C107.814 218.228 106.87 216.725 106.034 215.395C105.696 214.849 105.377 214.332 105.079 213.851C104.647 213.152 104.261 212.529 103.934 212.001C102.826 210.22 101.172 207.454 99.4003 204.421C97.516 201.512 95.4841 198.375 93.7615 195.711C92.9012 194.37 92.0604 193.058 91.2785 191.835C90.7439 190.998 90.1862 190.263 89.6709 189.583C89.4315 189.268 89.2013 188.964 88.9868 188.668C87.6065 186.833 86.6176 185.575 86.3492 185.354C85.8228 184.91 85.0773 184.282 84.7005 183.965C84.5214 183.796 83.8597 182.909 82.9401 181.607C82.7481 181.342 82.5492 181.054 82.3405 180.752C82.0429 180.321 81.7255 179.862 81.3803 179.4C80.9712 178.866 80.541 178.305 80.0992 177.729L79.4946 176.94C76.9081 173.498 74.3398 170.211 73.7984 169.646C72.9891 168.768 72.1251 167.959 71.2483 167.177C70.8417 166.803 70.436 166.43 70.0323 166.059C69.5769 165.641 69.124 165.225 68.675 164.812C67.6044 163.818 66.5557 162.846 65.5466 161.91C64.966 161.372 64.3984 160.845 63.8474 160.334C62.863 159.36 61.8599 158.548 60.9385 157.803C60.4848 157.436 60.0508 157.084 59.6486 156.738C58.4114 155.71 57.3778 154.853 56.6195 154.223C55.7655 153.532 54.8299 152.742 53.9383 151.99C52.6514 150.904 51.456 149.895 50.7292 149.371C49.6743 148.528 45.6336 145.391 41.4248 142.368C39.9863 141.433 38.5451 140.485 37.2074 139.605C34.5147 137.834 32.2415 136.338 31.2532 135.785C27.676 133.914 23.13 131.255 22.528 130.718C22.1644 130.401 21.4188 129.828 20.8264 129.545C19.8331 129.018 17.5755 127.822 14.571 126.231L12.083 124.913C11.0399 124.32 9.89978 123.77 8.69218 123.234C7.4978 122.679 6.25555 122.103 4.98371 121.513C4.28861 121.194 3.58901 120.861 2.88329 120.526C1.93454 120.076 0.974741 119.62 0 119.184V93.1823C3.81323 94.595 7.57658 96.0742 11.2933 97.6014C12.223 98.0136 13.1512 98.4251 14.0779 98.836C16.0459 99.7087 18.0074 100.578 19.9629 101.444C21.7727 102.235 23.5196 103.137 25.2615 104.036C26.2972 104.57 27.3312 105.104 28.3755 105.613C29.0788 105.967 29.7816 106.321 30.4835 106.674C31.1694 107.02 31.8544 107.365 32.5383 107.709C33.4263 108.143 34.2769 108.642 35.1262 109.14C35.6097 109.423 36.0928 109.707 36.5822 109.978C38.0797 110.834 39.5723 111.687 41.0601 112.537C42.2339 113.208 43.4046 113.877 44.5723 114.544C65.4154 127.27 83.6214 142.298 99.0941 158.02C114.587 173.743 127.304 190.163 137.822 205.508C148.227 220.411 156.094 234.661 162.654 246.543L163.124 247.396C169.439 259.688 174.393 269.53 177.467 276.572C180.672 283.538 182.518 287.391 182.771 287.644C183.556 288.484 184.407 287.153 184.544 284.736C184.549 284.658 184.175 283.677 183.446 281.853C182.709 280.031 181.628 277.362 180.226 273.903C177.533 266.918 172.97 257.109 167.098 244.748C160.903 232.606 153.361 217.878 143.137 202.267C133.046 186.578 120.729 169.628 105.455 153.154C90.2094 136.673 72.0016 120.72 50.8919 106.847C49.2593 105.808 47.5961 104.802 45.9266 103.793C44.8757 103.157 43.8222 102.52 42.7723 101.872C41.4098 101.038 40.0427 100.202 38.6701 99.3645C37.788 98.8608 36.8905 98.3809 35.9915 97.9002C35.4691 97.6208 34.9461 97.3412 34.4253 97.0564C31.9002 95.6976 29.3632 94.3313 26.8134 92.9581L25.84 92.4338C24.7246 91.9034 23.6071 91.3721 22.4874 90.8397C20.6424 89.9625 18.7917 89.0826 16.9353 88.1995C14.7181 87.0738 12.4096 86.1228 10.0925 85.1682C9.32842 84.8534 8.56339 84.5382 7.80038 84.2163C6.89353 83.8479 5.99051 83.4665 5.0862 83.0845C3.40626 82.3749 1.72184 81.6633 0 81.0302V15.5737Z" fill="#FFBC00"/>
</svg>
