<svg width="1135" height="683" viewBox="0 0 1135 683" fill="none" xmlns="http://www.w3.org/2000/svg">
<path fill-rule="evenodd" clip-rule="evenodd" d="M2078.14 391.545C2081.68 389.344 2083.63 385.614 2083.22 381.819C2083.26 380.537 2084.08 379.362 2085.35 378.751C2089.1 376.932 2093.07 371.106 2091.74 369.206C2091.3 366.717 2091.78 364.156 2093.1 361.9C2094.45 359.322 2095.1 356.501 2094.97 353.677C2094.61 352.18 2094.88 350.711 2095.6 350.692C2099.02 349.699 2097.34 329.137 2093.92 329.226C2092.85 329.297 2092.31 328.58 2092.83 327.705C2095.76 322.854 2072.06 297.706 2064.92 298.324C2064.05 298.389 2063.42 297.89 2063.64 296.421C2063.86 294.953 2062.69 294.295 2057.71 293.695C2052.73 293.093 2051.27 291.971 2050.66 289.964C2050.05 287.958 2048.11 286.719 2043.99 285.837C2036.34 284.187 2018.48 276.912 2019.13 275.648C2019.13 275.218 2014.95 273.091 2009.42 271.169C1980.32 261.177 1964.63 254.619 1964.37 252.992C1964.11 251.364 1962.95 251.351 1961.13 252.302C1959.3 253.253 1958.14 253.069 1957.79 251.787C1957.17 249.093 1949.17 246.464 1947.21 248.278C1946.39 249.072 1945.11 249.344 1943.99 248.966C1943.07 248.603 1942.62 247.968 1944.48 246.372C1946.35 244.774 1945.37 244.025 1937.86 241.726L1936.11 241.127L1933.68 240.244C1930.92 239.156 1928.39 238.146 1926.31 237.254C1925.44 236.873 1924.63 236.535 1923.91 236.228C1921.15 235.066 1919.54 234.387 1919.84 233.767C1920.21 232.983 1917.4 232.024 1913.43 231.569C1910.08 231.311 1906.85 230.38 1903.98 228.848C1901.41 227.343 1898.5 226.348 1895.45 225.932C1891.49 225.326 1877.54 220.536 1850.63 211.3C1835.1 205.971 1815.26 199.162 1790.54 190.823C1770.8 184.284 1751.8 178.674 1748.46 178.201C1745.44 177.919 1742.59 176.858 1740.26 175.147C1734.54 172.223 1728.35 170.094 1721.88 168.831C1704.85 164.423 1688.24 158.845 1672.22 152.15C1667.97 150.228 1663.33 149.049 1658.55 148.68C1645.49 146.101 1632.64 142.773 1620.08 138.718L1594.35 131.09L1578.79 126.721C1577.71 126.435 1576.65 126.075 1575.64 125.643C1574.28 125.248 1566.14 122.923 1559.74 121.327L1522.48 111.333C1520.3 110.616 1514.77 109.169 1510.61 108.116C1507.71 107.483 1502.8 106.183 1496.9 104.623C1490.29 102.872 1482.43 100.792 1474.75 98.9468C1474.2 98.6948 1472.49 98.1596 1470.16 97.4318C1467.59 96.6314 1464.28 95.5982 1460.93 94.4479C1460.45 94.2819 1459.97 94.1173 1459.5 93.9543C1453.68 91.9531 1448.6 90.2099 1447.89 90.2292L1444.5 89.7593C1443.55 89.6733 1437.19 87.7226 1429.47 85.3538C1428.15 84.9477 1426.79 84.5296 1425.4 84.1072C1415.95 81.2152 1403.1 77.4219 1396.85 75.692C1395.47 75.3096 1393.71 74.8174 1391.7 74.2512C1384.62 72.2619 1374.34 69.3773 1365.89 67.2546C1340.4 60.3499 1273.13 44.6903 1237.99 38.5556L1182.47 27.7499C1178.83 27.0074 1173.81 26.1347 1167.68 25.067C1164.99 24.5995 1162.09 24.0944 1158.99 23.5466C1148.83 21.7479 1136.59 19.8747 1122.95 18.1241L1079.13 12.3461L1032.28 7.59375C1016.71 5.85083 1001.53 4.78579 987.038 3.83191C982.506 3.53381 978.126 3.22341 973.901 2.92413C964.613 2.26568 956.082 1.66118 948.379 1.36027C937.171 0.922541 927.945 0.648015 921.474 0.55952C918.117 0.333465 914.736 0.421959 911.387 0.823818L903.467 0.773124C902.057 0.748517 900.501 0.6996 898.822 0.646681C894.637 0.51505 889.698 0.359555 884.393 0.498597C869.426 0.589612 849.537 0.852578 840.126 1.09924C838.119 1.15171 835.723 1.1904 832.963 1.23502C825.962 1.34812 816.622 1.49902 805.374 2.00968L779.407 2.69007L764.927 3.0694L757.253 3.27055L749.197 3.78269C700.461 6.33363 651.857 11.0817 603.573 18.0089L573.986 22.3118L543.597 28.0554C540.104 28.7556 536.671 29.4112 533.327 30.05C527.217 31.217 521.402 32.3277 516.052 33.5521L494.872 38.409C472.531 43.4987 453.086 49.1692 435.187 54.3886C430.179 55.8496 425.292 57.2741 420.498 58.6408C412.271 61.2008 404.378 63.8512 396.648 66.4467C394.168 67.2798 391.704 68.1069 389.252 68.9237C387.579 69.4811 385.91 70.034 384.244 70.5839C375.854 73.3588 367.566 76.0997 359.551 79.2526L329.812 90.3997C320.563 93.8994 311.319 97.795 301.491 101.935C300.548 102.332 299.601 102.731 298.648 103.133L281.939 110.152L264.614 118.005C252.423 123.444 239.561 129.246 226.229 136.003C224.37 136.927 222.474 137.865 220.55 138.817C213.388 142.36 205.826 146.101 198.266 150.029L170.27 164.959C152.488 174.803 136.532 183.955 126.615 189.807C116.961 195.562 107.478 201.25 98.1426 206.85C74.4105 221.085 51.636 234.746 29.4204 247.463C-1.53369 265.179 -32.0176 281.896 -62.718 296.897C-72.6423 301.748 -81.4666 305.881 -89.2637 309.534C-92.1318 310.877 -94.8608 312.156 -97.4548 313.38C-104.214 316.572 -110.104 319.172 -115.154 321.4C-117.309 322.351 -119.312 323.235 -121.163 324.068C-127.355 326.855 -131.913 328.995 -134.936 330.451C-136.637 331.073 -138.247 331.883 -139.731 332.857C-140.064 333.163 -140.506 333.358 -140.979 333.406C-141.848 333.515 -153.468 338.251 -169.023 344.853C-174.527 346.897 -180.458 349.202 -186.578 351.583C-198.198 356.101 -210.503 360.886 -221.87 364.649C-243.729 372.836 -256.916 375.979 -258.184 375.152C-259.45 374.325 -259.924 374.938 -259.912 375.842C-259.9 376.745 -265.468 379.172 -283.013 385.051L-319.622 395.56C-324.499 396.927 -329.939 398.19 -335.779 399.546C-339.277 400.357 -342.924 401.201 -346.659 402.12L-347.475 402.32C-357.273 404.724 -368.079 407.377 -380.367 409.499C-406.797 414.58 -414.357 416.584 -414.046 418.038C-413.735 419.494 -413.823 419.668 -414.817 418.059C-415.81 416.451 -426.942 417.947 -470.063 424.196C-485.598 425.979 -498.85 427.531 -511.138 429.058C-517.26 429.906 -523.234 430.493 -529.178 430.992L-546.862 432.748L-565.139 434.688C-566.681 434.855 -568.238 435.032 -569.809 435.21C-574.671 435.764 -579.696 436.338 -585.062 436.673L-634.053 440.84C-642.784 441.713 -661.402 442.589 -674.965 443.158C-688.529 443.729 -705.694 444.781 -713.031 445.275C-720.369 445.768 -737.015 446.204 -750.045 446.545L-771.479 447.107L-789.831 447.243C-801.215 447.326 -810.924 447.581 -819.551 447.808H-819.566L-834.715 448.205L-851.525 448.085L-909.469 447.669C-915.398 447.651 -927.479 447.365 -936.27 447.123L-952.501 446.644L-966.984 445.992L-997.564 444.685L-998.246 444.646C-1001.54 444.456 -1007.9 444.089 -1016.91 443.084L-1053.18 438.613C-1062.98 437.541 -1073.65 435.988 -1084.96 434.337C-1090.51 433.53 -1096.2 432.7 -1102.04 431.892C-1173.75 420.99 -1244.74 406.884 -1314.75 389.628C-1357.13 379.166 -1398.24 367.724 -1437.31 355.455C-1476.39 343.185 -1513.65 330.353 -1548.53 317.242L-1574.31 307.377L-1594.45 299.301C-1599.64 297.288 -1604.53 295.202 -1609.34 293.161C-1610.11 292.834 -1610.88 292.506 -1611.63 292.18C-1621.16 288.284 -1629.94 284.432 -1638.08 280.865C-1639.49 280.249 -1640.86 279.641 -1642.23 279.044C-1661.02 270.975 -1675.79 264.091 -1685.94 259.281C-1689.89 257.492 -1693.77 255.7 -1697.61 253.822L-1700.68 252.44C-1700.94 252.302 -1701.11 252.139 -1701.24 252.018C-1701.46 251.812 -1701.55 251.724 -1701.79 252.082C-1702.16 252.651 -1703.24 252.034 -1704.12 250.638C-1707.94 246.925 -1713.08 244.483 -1718.7 243.706C-1719.9 243.823 -1720.63 243.456 -1720.35 243.017C-1718.08 239.646 -1738.24 244.734 -1741.62 248.265C-1742.69 249.305 -1743.93 250.193 -1745.31 250.899C-1746.5 251.493 -1747.35 252.498 -1747.68 253.672C-1747.71 254.576 -1748.82 254.991 -1750.13 255.025C-1753.12 254.631 -1767.16 263.301 -1768.85 266.573C-1769.6 268.055 -1770.85 269.303 -1772.42 270.151C-1773.92 270.748 -1774.33 271.405 -1773.9 271.696C-1773.46 271.985 -1774.75 273.094 -1776.76 274.18C-1779.45 275.446 -1781.11 277.969 -1781.02 280.658C-1781.46 284.241 -1782.03 285.115 -1783.76 284.774C-1786.38 284.284 -1791.13 289.87 -1789.79 292.417C-1788.46 294.964 -1790.27 296.602 -1796.09 297.831C-1801.92 299.058 -1808.22 304.428 -1819.97 317.858C-1815.05 320.482 -1809.32 323.472 -1806.22 325.025C-1798.87 328.835 -1787.5 334.388 -1770.43 342.544L-1750.38 351.741L-1731.58 360.111L-1706.23 370.847L-1682.4 380.503L-1657.75 390.097C-1653.33 391.831 -1648.04 393.756 -1643.19 395.522L-1625.57 402.418C-1621.91 403.875 -1618.44 405.142 -1615.37 406.267C-1613.68 406.887 -1612.09 407.463 -1610.67 408.006C-1540.9 434.098 -1492.56 448.878 -1446.71 461.745C-1400.86 474.61 -1357.55 485.951 -1295.7 499.389C-1287.69 501.015 -1280.23 502.562 -1273.28 504.004C-1261.34 506.481 -1250.91 508.646 -1241.73 510.364L-1207.85 516.616C-1195.75 518.932 -1189.51 519.951 -1186.5 520.442C-1185.35 520.633 -1184.66 520.743 -1184.32 520.819C-1183.11 521.088 -1182.68 521.076 -1182.68 521.076L-1167.78 523.396L-1145.9 526.911C-1139.88 527.874 -1132.92 528.832 -1124.96 529.924C-1120.72 530.508 -1116.18 531.131 -1111.36 531.813C-1019.61 544.463 -957.719 548.605 -917.281 551.311C-911.263 551.715 -905.719 552.085 -900.635 552.447L-859.559 554.383L-847.538 554.885C-846.203 554.857 -844.884 554.908 -843.565 555.04C-842.942 555.146 -838.881 555.253 -831.588 555.443C-828.742 555.517 -825.377 555.604 -821.552 555.71L-796.62 556.347C-794.989 556.388 -793.314 556.434 -791.609 556.48C-782.908 556.718 -773.347 556.977 -762.823 556.882C-756.226 556.869 -749.452 556.889 -742.589 556.912C-729.1 556.955 -715.255 556.998 -701.603 556.783L-642.902 555.503L-579.118 552.327L-576.272 552.251C-575.219 552.362 -566.385 551.601 -548.271 550.038C-543.898 549.66 -538.976 549.235 -533.492 548.765L-509.374 546.713C-501.355 545.846 -492.609 544.751 -483.004 543.55L-479.728 543.141C-476.229 542.704 -472.627 542.277 -468.922 541.838C-461.095 540.911 -452.794 539.929 -444.063 538.678L-402.38 531.951C-335.186 520.412 -269.163 503.595 -205.097 481.697C-140.425 459.186 -78.0203 431.637 -18.6189 399.376C-12.6082 396.365 -5.6958 392.499 2.02393 388.181C5.94629 385.988 10.0776 383.677 14.406 381.302C23.7625 376.169 33.8511 370.309 44.4363 364.162C48.3853 361.869 52.4025 359.535 56.4758 357.184C73.1891 347.28 90.6658 336.786 107.748 326.531C121.169 318.473 134.347 310.562 146.719 303.197C189.399 277.772 226.106 256.936 259.955 239.142C265.37 236.456 270.66 233.77 275.872 231.124C287.231 225.358 298.209 219.783 309.265 214.835L332.97 203.888L356.641 193.933C427.529 164.292 502.22 142.79 578.9 129.947C580.45 129.678 582.072 129.374 583.76 129.057C587.159 128.418 590.837 127.728 594.796 127.164L614.072 124.508C618.347 123.988 622.78 123.386 627.347 122.765C637.665 121.363 648.674 119.867 660.109 119.001L685.233 116.665L698.061 115.467C702.303 114.969 706.599 114.857 710.846 114.745L760.301 112.202C841.906 109.817 923.501 112.38 1004.52 119.871L1055.91 125.107L1099.83 130.581L1118.55 132.929L1134.66 135.347L1158.85 139.016C1170.09 140.479 1190 143.895 1209.58 147.256C1217.79 148.664 1225.94 150.062 1233.36 151.303L1278.82 159.919C1278.98 159.973 1279.8 160.127 1281.23 160.395C1284.11 160.935 1289.44 161.934 1296.78 163.493L1342.29 173.099C1345.02 173.708 1347.82 174.331 1350.68 174.966C1367.52 178.712 1386.56 182.949 1406.85 187.969C1411.17 189.038 1415.56 190.117 1419.99 191.21C1439.94 196.118 1460.99 201.297 1482.23 207.074C1586.45 234.113 1696.44 270.551 1731.37 282.542C1757.03 291.377 1798.55 306.206 1823.54 315.447C1828.33 317.262 1833.47 319.197 1838.93 321.245C1849.92 325.372 1862.16 329.966 1875.13 335.001L1892.41 341.691L1903.47 346.089C1918.28 351.897 1932.35 357.594 1940.17 360.788L1959.11 368.637L1976.68 376.049L1988.39 381.077L1990.38 381.884L1998.49 385.372L2007.03 389.149L2028.79 398.645L2036.08 401.853L2045.79 406.202C2046.58 405.868 2047.33 405.445 2048 404.939C2049.38 403.784 2050.92 403.443 2051.46 404.204C2052 404.964 2054.9 404.758 2057.97 403.689C2060.18 402.767 2062.6 402.349 2065.01 402.472C2067.1 403.449 2075.46 397.078 2075.43 394.628C2075.54 393.211 2076.62 391.988 2078.14 391.545ZM-1808.74 339.761C-1807.03 340.599 -1805.33 341.447 -1803.68 342.265L-1803.67 342.272C-1798.23 344.97 -1793.44 347.346 -1791.91 347.935C-1791.02 348.282 -1788.68 349.427 -1785.52 350.971L-1785.51 350.976C-1781.69 352.844 -1776.69 355.292 -1771.61 357.61C-1767.91 359.27 -1764.25 360.982 -1760.56 362.702C-1758.37 363.722 -1756.17 364.744 -1753.98 365.761L-1744.79 369.827C-1739.32 372.318 -1732.65 375.132 -1726.05 377.916L-1726.04 377.921C-1722.39 379.461 -1718.76 380.991 -1715.37 382.451L-1696.78 390.018C-1695.65 390.506 -1685.02 394.836 -1672.94 399.429L-1656.1 405.836L-1650.04 408.046L-1644.26 410.307C-1626.44 417.506 -1580.83 434.486 -1534.28 449.676C-1522.4 453.671 -1509.65 457.643 -1498.84 460.935C-1494.91 462.13 -1491.24 463.269 -1487.92 464.293C-1482.11 466.09 -1477.44 467.535 -1474.59 468.312L-1474.28 468.403C-1447.94 476.094 -1382.15 495.305 -1293.81 514.181C-1249.35 523.611 -1199.21 532.849 -1145.69 541.137C-1092.18 549.426 -1035.23 556.117 -977.36 561.018C-865.607 570.396 -753.158 573.205 -640.723 569.425C-562.086 567.215 -483.641 559.617 -406.101 546.697C-372.363 541.506 -321.104 530.256 -292.326 522.827C-285.057 521.173 -278.131 519.182 -271.686 517.291L-254.131 512.265L-235.565 506.954C-232.922 506.066 -229.797 505.081 -228.499 504.703C-227.2 504.323 -224.266 503.385 -221.864 502.547C-221.502 502.42 -220.601 502.131 -219.237 501.692C-211.557 499.221 -189.158 492.014 -165.015 482.494C-152.42 478.025 -139.103 472.453 -126.973 467.376L-124.078 466.165C-123.31 465.845 -122.548 465.526 -121.792 465.212C-108.349 459.604 -97.1199 454.443 -90.9312 451.483C-88.2764 450.258 -85.5947 449.043 -82.8926 447.818C-77.6304 445.436 -72.2939 443.019 -66.9368 440.43L-42.3806 428.244C-33.9846 424.192 -25.6438 419.752 -17.1575 415.223C-14.6538 413.886 -12.1277 412.548 -9.58984 411.205L-9.58569 411.203L-9.56616 411.193C-3.51685 407.99 2.59473 404.752 8.63379 401.411C43.384 382.411 79.1643 361.059 115.95 339.035C122.087 335.36 128.249 331.659 134.439 327.941L134.442 327.94C165.351 309.373 196.937 290.401 229.438 272.361C268.306 250.487 308.411 230.444 349.582 212.32L367.634 204.74L368.196 204.5C373.906 202.059 379.485 199.675 385.115 197.692L418.505 185.232C422.871 183.813 427.164 182.4 431.392 181.008C448.249 175.46 464.065 170.254 479.378 166.409C482.713 165.515 485.977 164.587 489.195 163.673C495.261 161.949 501.158 160.274 507.039 158.966L533.176 152.941L545.642 150.072C548.241 149.457 550.842 148.998 553.43 148.541C554.917 148.279 556.4 148.018 557.875 147.727L581.427 143.406C592.788 141.122 603.918 139.629 614.828 138.168H614.831C618.579 137.665 622.301 137.166 625.998 136.639L647.443 133.666L668.852 131.641L690.263 129.659L701.113 128.642C704.733 128.547 708.4 128.451 712.065 128.011L757.851 125.605H757.854C766.734 125.372 778.027 125.076 790.868 124.999C794.99 124.973 799.271 124.89 803.68 124.806C813.004 124.627 822.895 124.435 833.062 124.754L878.988 125.489L923.096 127.477C936.676 127.965 950.633 129.063 964.327 130.141L965.185 130.208C969.474 130.546 973.738 130.854 977.955 131.161H977.957C987.477 131.851 996.751 132.523 1005.5 133.458C1015.44 134.493 1024.73 135.428 1033.01 136.261H1033.01H1033.01C1045.65 137.535 1055.89 138.565 1062.35 139.334C1068.72 140.127 1074.86 140.88 1080.78 141.607L1080.78 141.608C1105.12 144.595 1125.77 147.128 1143.32 150.133L1172.78 154.53L1196.25 158.48L1229.3 164.117C1234.71 165.057 1239.32 165.949 1243.47 166.754L1243.48 166.756C1245.94 167.233 1248.24 167.679 1250.46 168.085C1253.52 168.677 1257.18 169.374 1261.22 170.144L1261.27 170.153L1261.27 170.155C1276.42 173.039 1296.99 176.957 1312.18 180.294C1321.86 182.365 1333.92 184.892 1345.63 187.341L1376.58 194.456L1398.28 199.443L1428.94 207.038C1447.29 211.421 1468.14 216.983 1489.75 222.749L1489.76 222.751L1489.77 222.755C1495.14 224.186 1500.55 225.629 1505.98 227.072C1560.49 241.966 1616.25 259.111 1644.51 268.018L1690.14 282.801C1702.28 286.947 1713.97 290.896 1723.41 294.083L1723.41 294.086L1723.48 294.108C1726.12 295.001 1728.59 295.834 1730.84 296.594C1769.64 310.048 1809.18 324.001 1870.62 347.801L1888.82 354.862L1899.89 359.267C1905 361.317 1909.77 363.261 1914.86 365.334L1914.87 365.34L1914.88 365.342C1920.42 367.599 1926.35 370.014 1933.53 372.899C1934.74 373.41 1936.26 374.049 1937.96 374.763C1942.47 376.652 1948.23 379.065 1952.71 381.01L1970.09 388.35C1984.3 394.352 1998.51 400.47 2012.73 406.702L2040.66 419.235C2041.66 420.713 2042.54 422.259 2043.27 423.861C2044.38 426.885 2046.27 429.623 2048.79 431.855C2050.2 432.507 2051.25 435.668 2051.06 438.904C2051.05 444.218 2048.67 449.35 2044.44 453.161L2029.19 446.324L2022.44 443.357L2001.94 434.547L1993.88 431.055L1986.26 427.765L1984.37 426.998L1973.3 422.334L1956.69 415.447L1938.78 408.165L1904.12 394.429C1899.45 392.643 1894.76 390.833 1890.21 389.074C1880.98 385.512 1872.28 382.153 1865.3 379.597C1841.81 370.522 1802.84 355.951 1778.59 347.413C1762.14 341.47 1728.14 329.612 1686.09 315.725C1644.05 301.839 1593.96 286.311 1545.06 272.432C1496.16 258.553 1449.41 246.212 1414.24 237.916L1390.31 232.082L1371.77 227.874L1354.96 224.008L1342.47 221.234C1337.71 220.093 1331.79 218.882 1325.15 217.526L1325.15 217.524C1321.17 216.71 1316.93 215.846 1312.54 214.912C1300.83 212.419 1287.27 209.588 1274.64 207.29L1243.13 201.398C1241.05 201.023 1238.72 200.583 1236.14 200.098C1231.74 199.268 1226.61 198.304 1220.81 197.287L1188.35 191.893L1168.99 188.653L1147.56 185.512C1142.26 184.79 1136.82 183.983 1131.25 183.159L1131.24 183.158C1121.2 181.669 1110.72 180.118 1099.86 178.878C1024.95 168.957 949.4 162.826 873.566 160.517L827.931 159.817C821.746 159.642 815.538 159.758 809.347 159.875C807.654 159.906 805.963 159.939 804.274 159.964L781.055 160.314L758.854 160.896L738.589 161.943L706.023 163.658L674.388 166.554L659.392 167.937L652.11 168.646L644.977 169.608L617.603 173.339L604.446 175.149C601.762 175.515 599.117 176.016 596.486 176.514L596.483 176.515C594.912 176.812 593.345 177.108 591.778 177.375C560.274 182.691 529.082 189.504 498.337 197.784L475.825 204.059C470.598 205.372 465.488 207.085 460.322 208.817L460.321 208.818C457.926 209.62 455.52 210.428 453.083 211.2C445.391 213.642 437.65 216.171 429.72 218.876L405.7 227.905L393.161 232.54L380.486 237.867C377.557 239.119 374.588 240.356 371.587 241.607C365.787 244.025 359.868 246.492 353.888 249.203L325.723 262.259C319.667 265.135 313.463 268.273 307.105 271.487L307.102 271.488C303.385 273.368 299.616 275.274 295.793 277.17C247.146 301.768 186.13 338.381 149.726 360.225L149.722 360.228L149.691 360.245C145.304 362.878 141.277 365.296 137.67 367.451C80.1917 401.819 22.9397 435.061 -37.0679 464.499C-97.3616 494.292 -160.393 519.32 -225.429 539.293L-265.929 550.776C-270.68 552.188 -275.349 553.369 -279.869 554.512L-279.892 554.518C-281.265 554.866 -282.626 555.21 -283.97 555.555L-300.621 559.567C-305.049 560.597 -309.293 561.608 -313.363 562.577C-319.073 563.936 -324.439 565.216 -329.494 566.353L-352.944 571.016C-357.747 571.951 -362.12 572.833 -366.063 573.629L-366.078 573.632C-373.475 575.124 -379.374 576.315 -383.777 576.993L-394.894 578.748L-397.696 579.209L-416.536 582.2L-435.806 585.246C-440.742 586.011 -446.049 586.631 -451.667 587.285C-454.425 587.606 -457.256 587.937 -460.146 588.296C-495.188 592.962 -539.51 596.706 -577.947 599.136L-635.461 601.891L-656.999 602.455C-658.304 602.401 -659.608 602.435 -660.898 602.557L-672.638 602.865C-680.746 603.077 -693.539 603.412 -712.839 603.574C-718.872 603.516 -725.527 603.492 -732.88 603.467C-772.606 603.325 -832.344 603.113 -920.201 597.163C-930.296 596.393 -939.072 595.766 -946.676 595.222L-946.706 595.221L-946.72 595.219C-959.661 594.293 -969.177 593.613 -975.967 592.895L-990.479 591.554L-992.064 591.595C-992.643 591.61 -994.288 591.429 -997.831 591.039C-1001.43 590.643 -1006.98 590.033 -1015.37 589.191L-1016.46 589.084C-1024.68 588.285 -1035.33 587.249 -1049.22 585.469C-1054.09 584.846 -1059.29 584.252 -1064.88 583.613L-1064.89 583.611C-1075.98 582.345 -1088.58 580.908 -1102.94 578.736L-1146.05 572.587L-1184.62 565.76C-1201.31 563.226 -1217.14 560.199 -1232.94 557.181C-1240.06 555.824 -1247.16 554.466 -1254.32 553.157C-1300.21 543.808 -1348.96 533.672 -1419.95 514.428C-1422.81 513.631 -1426.21 512.71 -1429.99 511.684L-1430.02 511.676L-1430.05 511.67C-1437.07 509.763 -1445.42 507.497 -1454.17 504.987L-1494.35 493.12L-1532.61 481.202L-1562.33 471.255C-1567.53 469.577 -1575.32 466.825 -1584.28 463.653C-1586.6 462.834 -1588.98 461.986 -1591.44 461.122C-1603.38 456.912 -1616.33 452.126 -1627.73 447.817C-1628.86 447.391 -1629.97 446.972 -1631.08 446.554L-1633.26 445.739L-1633.27 445.728C-1638.03 443.948 -1642.66 442.209 -1647.15 440.401L-1663.07 434.142C-1664.02 433.781 -1664.94 433.426 -1665.86 433.08V433.078C-1669.01 431.879 -1671.98 430.754 -1674.77 429.624L-1693.59 422.064C-1695.98 421.151 -1699.39 419.764 -1702.97 418.302C-1706.66 416.795 -1710.56 415.207 -1713.74 413.978C-1730.98 406.893 -1742.39 401.808 -1749.87 398.43L-1766.54 390.855C-1779.25 385.073 -1791.84 379.071 -1804.42 372.811C-1804.85 372.598 -1805.45 372.3 -1806.2 371.919L-1806.22 371.914C-1812.32 368.852 -1828.94 360.508 -1849.69 348.802C-1847.87 348.092 -1845.89 347.788 -1843.91 347.918C-1843.05 347.896 -1842.49 346.761 -1842.76 345.089C-1843.38 340.799 -1838.07 333.639 -1832.6 330.783C-1831.67 330.256 -1830.78 329.641 -1829.98 328.948L-1827.84 330.098C-1825.31 331.253 -1819.72 334.124 -1813.96 337.081C-1812.21 337.981 -1810.44 338.891 -1808.74 339.761ZM-1885.58 378.769C-1881.19 381.455 -1876.87 380.221 -1878.5 377.421C-1881.36 372.67 -1874.95 360.097 -1869.08 359.469C-1867.47 359.297 -1865.93 358.719 -1864.65 357.803C-1855.8 362.955 -1846.36 368.007 -1835.46 373.751C-1814.89 384.542 -1794.29 394.512 -1773.49 404.047C-1772.6 404.448 -1771.31 405.037 -1769.77 405.747C-1765.65 407.635 -1759.67 410.376 -1754.35 412.678L-1737.39 420.074L-1717.04 428.673C-1710.16 431.72 -1704 434.061 -1701.09 435.164C-1700.11 435.531 -1699.52 435.763 -1699.37 435.834L-1690.2 439.427L-1644.47 457.27C-1639.93 458.96 -1635.56 460.603 -1631.42 462.166C-1623.52 465.139 -1616.41 467.815 -1610.49 469.948L-1593.31 476.304C-1590.24 477.429 -1561 487.734 -1527.82 498.28C-1500.65 506.917 -1473.91 514.698 -1461.77 518.233L-1461.75 518.236C-1459.07 519.016 -1457.11 519.59 -1456 519.919L-1411.03 531.835C-1405.03 533.31 -1398.7 534.912 -1392.14 536.573L-1392.13 536.576C-1377.08 540.388 -1360.84 544.505 -1344.41 548.096C-1340.65 548.95 -1336.82 549.842 -1333.01 550.73C-1324.59 552.692 -1316.23 554.641 -1308.7 556.163L-1284.25 561.252C-1258.01 566.854 -1191.76 580.367 -1103.37 592.179C-999.876 605.928 -895.417 613.895 -790.587 616.033C-780.952 616.424 -771.287 616.438 -761.607 616.449C-757.042 616.457 -752.461 616.463 -747.896 616.509C-733.65 616.652 -719.39 616.71 -705.205 616.553L-662.706 615.741L-641.613 615.188C-636.899 615.065 -632.156 614.825 -627.442 614.586C-625.115 614.467 -622.787 614.35 -620.475 614.247L-578.732 612.206L-568.401 611.934L-558.173 611.107L-537.82 609.41C-533.24 609.013 -528.704 608.641 -524.183 608.27H-524.168C-515.363 607.549 -506.647 606.836 -498.02 605.956L-459.45 601.37L-440.787 599.115C-436.533 598.553 -432.293 597.868 -428.113 597.191L-428.098 597.19C-426.26 596.893 -424.437 596.597 -422.614 596.312L-387.586 590.741L-379.152 589.401L-370.866 587.762L-354.723 584.539L-324.098 578.395L-270.853 565.585L-229.479 553.861C-223.312 552.223 -216.643 550.047 -209.648 547.763L-209.63 547.757C-207.24 546.977 -204.812 546.184 -202.353 545.397L-172.542 535.614L-143.997 525C-134.962 521.705 -126.697 518.645 -119.974 515.756C-115.646 513.961 -111.381 512.212 -107.264 510.522C-98.4082 506.891 -90.239 503.539 -83.6189 500.631L-66.1453 492.721C-63.6489 491.578 -60.6724 490.251 -59.4243 489.744C-58.1748 489.239 -55.3911 488.003 -53.135 486.909C-52.8904 486.79 -52.3833 486.547 -51.6392 486.193L-51.6348 486.19L-51.6289 486.187C-45.5291 483.267 -23.6216 472.781 0.215576 460.571C26.979 446.861 57.7537 429.556 69.1602 423.053C98.156 406.442 129.252 387.966 161.638 368.551C194.025 349.137 227.852 329.081 262.896 309.64C298.163 290.102 334.479 272.143 371.706 255.83C409.031 239.605 447.583 225.81 487.059 214.556L504.188 209.8C505.605 209.416 507.008 209.024 508.405 208.635C512.557 207.475 516.635 206.338 520.744 205.489L552.279 198.243C556.115 197.216 560.23 196.482 564.231 195.769C565.249 195.589 566.26 195.408 567.258 195.224L581.71 192.562L595.681 190.042C600.21 189.148 604.689 188.341 609.173 187.793L635.061 184.272C637.696 183.932 640.293 183.557 642.859 183.186C648.412 182.384 653.821 181.604 659.166 181.228L703.927 177.04C711.918 176.662 719.7 176.232 727.344 175.81H727.346C747.037 174.722 765.821 173.684 784.919 173.712C798.146 173.366 811.375 173.019 825.045 173.263L867.455 173.918C873.198 173.769 880.021 174.132 887.645 174.537C890.981 174.714 894.469 174.9 898.088 175.054C900.707 175.167 903.397 175.276 906.15 175.389C915.895 175.786 926.413 176.215 937.23 176.873C941.677 177.19 946.185 177.506 950.727 177.824C974.573 179.495 999.328 181.231 1020.82 183.598C1024.84 184.041 1028.9 184.487 1032.99 184.937C1054.97 187.35 1077.68 189.843 1097.33 192.234C1110.48 193.833 1122.45 195.572 1132.18 196.986H1132.18H1132.18C1139.7 198.079 1145.87 198.977 1150.22 199.463C1161.61 201.001 1172.2 202.8 1181.99 204.463C1185.3 205.027 1188.52 205.572 1191.64 206.089C1195.14 206.666 1198.56 207.21 1201.89 207.741C1210.37 209.093 1218.3 210.354 1225.53 211.835L1274.91 221.052L1325.81 231.823L1383.5 244.698C1389.7 246.216 1397 247.965 1404.51 249.766L1404.51 249.768C1418.78 253.189 1433.83 256.798 1443.67 259.361C1447.13 260.276 1451.47 261.401 1456.54 262.717L1456.55 262.719C1466.26 265.236 1478.64 268.445 1492.67 272.207C1514.05 277.936 1539.3 284.985 1564.8 292.588C1615.9 307.531 1668.24 324.339 1694.72 333.251C1707.39 337.484 1722.86 342.68 1737.51 347.852C1741.61 349.298 1745.66 350.72 1749.57 352.094C1759.64 355.634 1768.83 358.861 1775.75 361.411C1793.65 367.762 1811.64 374.486 1832.32 382.212L1832.32 382.215L1833.36 382.602L1876.08 398.93L1898.16 407.483L1929.96 420.176L1948.08 427.583L1964.49 434.39C1967.74 435.727 1985.96 443.305 2004.71 451.429L2027.44 461.517C2021.57 462.043 2015.66 461.703 2009.95 460.51C2008.2 459.738 2006.52 460.6 2005.38 462.396C2003.89 464.49 2001.72 466.138 1999.17 467.124C1995.95 468.329 1995.19 469.124 1996.36 470.213C1997.24 471.524 1997.26 473.165 1996.42 474.52C1995.52 476.051 1995.49 477.603 1996.46 477.964C1997.43 478.326 1997.4 479.663 1996.74 480.843C1996.08 482.023 1996.1 483.273 1996.78 483.642C1999.84 485.026 2000.21 491.219 1997.47 495.815C1996.09 497.718 1995.43 499.955 1995.58 502.196C1996.57 503.807 1991.63 509.882 1988.03 511.484C1982.02 510.562 1976.24 508.732 1970.95 506.072C1961.24 502.02 1955.13 500.198 1953.79 500.966C1950.1 501.133 1946.46 500.313 1943.33 498.612C1939.65 496.805 1935.5 495.877 1931.27 495.912C1928.79 496.323 1926.26 495.708 1924.39 494.24C1922.58 492.866 1920.45 492.104 1919.53 492.558C1915.32 491.928 1911.3 490.57 1907.7 488.562C1902.87 486.298 1897.78 484.51 1892.51 483.23C1889.85 482.912 1887.37 481.771 1886.97 480.661C1886.57 479.552 1884.43 478.617 1881.77 478.471C1878.75 478.129 1875.91 477.039 1873.57 475.326C1870.93 473.199 1869.58 472.889 1868.73 474.204C1867.45 476.607 1855.95 472.514 1855.62 469.551C1855.6 467.957 1854.25 467.733 1851.12 468.678C1847.99 469.62 1846.69 469.483 1845.89 467.435C1845.09 465.39 1844.31 465.151 1842.25 466.411C1840.19 467.671 1839.52 467.517 1839.25 465.628C1838.9 464.164 1837.47 463.117 1835.79 463.092C1834.1 463.135 1833.02 462.345 1833.4 461.604C1833.78 460.861 1831.43 459.157 1828.18 457.906L1782.78 439.28C1754.71 427.567 1691.23 403.944 1642.04 387.916L1601.93 374.708L1563.13 362.502L1517.36 348.624C1511.56 346.872 1505.9 345.28 1500.51 343.762C1497.61 342.945 1494.78 342.149 1492.05 341.361C1488.95 340.495 1486.14 339.749 1483.71 339.167C1481.1 338.291 1478.34 337.81 1475.53 337.744C1475.01 338.362 1474.34 338.423 1474.04 337.784C1472.6 337.108 1471.08 336.556 1469.52 336.135C1466.71 335.176 1462.64 333.819 1457.59 332.355L1418.56 320.973L1353.95 303.324L1327.82 295.782L1299.03 287.49C1294.87 286.304 1290.99 285.188 1287.32 284.131L1287.32 284.129C1272.8 279.948 1261.49 276.688 1248.62 273.691L1213.44 265.222C1202.8 262.781 1193.36 260.704 1184.77 258.816L1184.76 258.813H1184.76C1179.74 257.71 1175.02 256.672 1170.53 255.663L1153.19 251.81L1137.06 248.743C1131.28 247.661 1125.51 246.532 1119.72 245.402L1119.71 245.399L1119.71 245.398C1109.94 243.49 1100.16 241.578 1090.34 239.888C1082.69 238.581 1071.37 236.895 1058.26 235.042C1045.15 233.188 1030.3 231.467 1015.64 229.998C986.383 226.673 958.061 225.131 946.564 224.916L930.091 224.53L912.414 224.433L880.008 224.248C875.503 224.178 870.294 224.264 862.301 224.393H862.297H862.285C859.224 224.444 855.754 224.5 851.76 224.558L824.431 224.885L805.699 225.376L782.917 226.317L771.235 226.624C766.407 226.75 760.372 226.909 754.149 227.416L713.328 230.036C708.815 230.155 704.142 230.706 699.342 231.273C696.849 231.568 694.323 231.866 691.769 232.109L669.44 234.503L658.831 235.643L649.192 237.144L633.433 239.626C630.507 240.101 627.633 240.55 624.802 240.994H624.797C620.31 241.695 615.936 242.378 611.652 243.125L591.422 247.23L571.241 251.162L550.54 256.013C548.035 256.623 545.505 257.219 542.927 257.826C538.173 258.945 533.253 260.104 528.011 261.471L502.945 268.589C495.777 270.422 488.371 272.893 480.478 275.525C478.462 276.198 476.415 276.879 474.331 277.566L458.366 282.766C454.58 284.115 450.704 285.59 446.719 287.106C444.937 287.783 443.133 288.47 441.307 289.158C400.808 304.479 361.509 322.292 323.701 342.465C285.912 362.41 249.931 383.985 218.887 402.676C212.803 406.367 196.317 415.888 181.891 424.063C172.278 429.22 163.046 434.93 154.253 441.157C153.645 442.357 152.181 443.026 150.749 442.756C149.243 442.46 147.657 442.735 146.366 443.517C145.072 444.283 132.51 451.203 117.595 458.917C115.097 460.228 112.312 461.697 109.304 463.282L109.284 463.294C103.461 466.364 96.8115 469.869 89.8282 473.514L59.7992 488.732C54.2642 491.414 47.8381 494.607 40.5911 498.209L40.5823 498.213L40.5793 498.214C15.2168 510.817 -20.2212 528.429 -62.8647 546.695C-123.443 572.73 -186.123 594.535 -250.338 611.915C-311.164 627.903 -372.956 640.598 -435.377 649.932C-446.642 651.385 -457.33 652.861 -467.321 654.241C-480.75 656.099 -492.935 657.781 -503.593 659C-506.588 659.342 -509.463 659.668 -512.206 659.981C-526.495 661.607 -537.361 662.843 -543.987 663.848C-549.397 664.637 -565.836 666.877 -580.452 667.862L-621.068 671.295L-637.314 672.799L-648.52 673.651C-652.271 674.008 -671.971 674.998 -692.338 675.834C-698.594 676.089 -704.641 676.316 -710.081 676.521H-710.096C-722.37 676.982 -731.531 677.324 -732.835 677.627C-737.653 678.442 -786.243 681.051 -815.905 680.622C-821.226 680.361 -826.592 680.748 -831.825 681.771C-842.083 682.914 -852.429 683.185 -862.717 682.58C-878.859 682.013 -894.943 681.615 -898.426 681.75C-901.895 681.884 -915.369 681.979 -928.265 681.455C-941.176 680.932 -956.489 680.514 -962.092 680.446C-969.192 680.33 -975.907 680.204 -982.859 679.957C-989.574 679.717 -996.615 679.204 -1004.53 678.627L-1005.39 678.565L-1033.96 676.255C-1044.92 675.422 -1057.6 674.032 -1072.64 672.272L-1105.49 668.567C-1112.21 667.816 -1118.66 666.912 -1124.84 666.045C-1128.14 665.583 -1131.36 665.13 -1134.52 664.718L-1160.25 661.085C-1169.75 659.785 -1179.02 658.239 -1188.1 656.724C-1194.43 655.667 -1200.67 654.625 -1206.85 653.69L-1228.98 649.962L-1250.29 645.955C-1276.82 641.143 -1301.63 635.862 -1325.01 630.884L-1325.07 630.872C-1329.47 629.934 -1333.82 629.008 -1338.13 628.096C-1365.3 622.346 -1390.1 616.19 -1413.03 610.2C-1456.61 599.339 -1493.12 588.679 -1524.26 579.587L-1529.36 578.099C-1579.05 563.022 -1613.75 551.172 -1638.77 542.628V542.625L-1638.82 542.615C-1645.95 540.176 -1652.31 538.006 -1658 536.109C-1673.05 530.62 -1688.42 525.847 -1704.06 521.809C-1705.14 521.589 -1706.26 521.305 -1707.47 521.004L-1707.48 520.999C-1707.94 520.882 -1708.41 520.762 -1708.9 520.644C-1709.16 520.561 -1709.39 520.488 -1709.64 520.426C-1709.85 520.374 -1710.06 520.328 -1710.27 520.291L-1711.13 520.315C-1712.02 520.144 -1712.8 519.745 -1713.42 519.167C-1719.72 514.615 -1726.57 510.706 -1733.85 507.512C-1737.05 505.817 -1739.77 503.505 -1741.83 500.743C-1743 498.51 -1745.35 496.959 -1748.11 496.6C-1758.1 496.431 -1767.48 491.723 -1761.76 489.721C-1758.65 488.605 -1771.52 482.653 -1774.84 483.559C-1778.16 484.464 -1785.7 480.096 -1792.3 474.066C-1795.04 471.398 -1798.35 469.257 -1802.05 467.773C-1809.41 464.317 -1815.87 459.529 -1821.03 453.711C-1824.42 450.664 -1828.22 447.989 -1832.34 445.736C-1836.13 443.72 -1839.45 441.056 -1842.09 437.894C-1844.92 434.814 -1848.46 432.322 -1852.48 430.585C-1857.34 428.041 -1861.69 424.924 -1861.75 423.72C-1864.89 419.513 -1868.76 415.778 -1873.19 412.647C-1877.68 409.66 -1881.42 405.892 -1884.2 401.564C-1884.22 400.574 -1885.51 398.712 -1887.79 397.35C-1890.43 395.562 -1892.5 393.201 -1893.82 390.486C-1894.55 389.139 -1895.07 387.703 -1895.34 386.219C-1895.81 385.061 -1895.82 383.783 -1895.38 382.602C-1894.06 379.897 -1892.64 378.222 -1890.9 377.832C-1890.03 377.578 -1889.08 377.555 -1888.21 377.761C-1887.24 377.91 -1886.35 378.256 -1885.58 378.769Z" fill="#F0F2F9"/>
</svg>
