<svg width="1245" height="574" viewBox="0 0 1245 574" fill="none" xmlns="http://www.w3.org/2000/svg">
    <mask id="mask0_63_913" style="mask-type:alpha" maskUnits="userSpaceOnUse" x="0" y="0" width="1245" height="574">
    <path d="M0.5 572.696V0.5H1244.31V572.696H0.5Z" fill="#B1D136" stroke="black"/>
    </mask>
    <g mask="url(#mask0_63_913)">
    <path fill-rule="evenodd" clip-rule="evenodd" d="M-554.46 -210.927C-563.292 -209.257 -576.169 -206.418 -588.318 -203.345C-600.486 -200.3 -611.91 -196.997 -618.209 -195.075C-623.559 -193.501 -630.401 -191.3 -633.489 -190.321C-638.189 -188.769 -642.889 -187.229 -647.549 -185.593C-652.213 -183.999 -656.381 -182.436 -656.897 -182.268C-657.397 -182.079 -658.102 -181.812 -658.457 -181.678C-658.819 -181.543 -661.699 -180.473 -664.874 -179.292C-668.041 -178.079 -671.086 -176.912 -671.661 -176.692C-678.633 -173.926 -685.83 -170.89 -688.773 -169.604C-690.782 -168.724 -693.347 -167.602 -694.493 -167.1C-695.202 -166.779 -697.25 -165.849 -699.74 -164.721C-701.012 -164.127 -702.399 -163.481 -703.782 -162.834C-705.326 -162.09 -706.87 -161.347 -708.28 -160.664C-708.198 -158.778 -707.445 -157.143 -706.082 -155.73C-705.397 -155.025 -704.562 -154.374 -703.581 -153.774C-702.604 -153.17 -701.426 -152.644 -700.339 -152.046C-697.896 -150.841 -695.072 -150.251 -693.89 -150.785C-692.716 -151.317 -688.895 -151.294 -685.48 -150.69C-683.963 -150.423 -682.395 -150.267 -680.981 -150.206C-675.592 -152.49 -667.623 -155.742 -658.59 -159.131C-647.241 -163.417 -635.766 -167.369 -624.146 -171.028C-621.329 -171.898 -614.947 -173.862 -609.901 -175.295C-607.396 -176.041 -604.347 -176.866 -601.479 -177.652C-598.615 -178.449 -595.913 -179.169 -594.073 -179.63C-582.665 -182.618 -574.976 -184.308 -566.033 -186.283C-563.646 -186.771 -560.243 -187.468 -556.686 -188.195C-553.129 -188.923 -549.37 -189.569 -546.353 -190.14C-543.993 -190.592 -541.724 -190.965 -539.546 -191.318C-538.002 -191.572 -536.489 -191.82 -535.008 -192.063C-532.329 -192.523 -529.674 -192.896 -527.078 -193.263C-524.478 -193.63 -521.933 -193.988 -519.44 -194.34C-516.931 -194.642 -514.469 -194.938 -512.054 -195.229C-507.236 -195.854 -502.533 -196.235 -498.01 -196.688C-479.858 -198.316 -463.873 -198.846 -448.041 -198.626C-443.845 -198.647 -438.697 -198.378 -433.012 -198.168C-430.172 -198.094 -427.186 -197.82 -424.118 -197.622C-421.045 -197.375 -417.886 -197.252 -414.687 -196.877C-401.888 -195.749 -388.487 -193.67 -377.596 -191.647C-375.223 -191.222 -372.198 -190.505 -368.615 -189.723C-366.827 -189.318 -364.901 -188.883 -362.852 -188.419C-360.823 -187.877 -358.674 -187.304 -356.418 -186.701H-356.412C-356.412 -186.701 -355.879 -186.557 -355.58 -186.475C-349.963 -185.065 -343.815 -183.049 -337.087 -180.911C-333.738 -179.802 -330.312 -178.48 -326.729 -177.189C-324.951 -176.511 -323.099 -175.91 -321.295 -175.132C-319.481 -174.375 -317.637 -173.606 -315.762 -172.824C-300.512 -166.484 -281.93 -157.275 -262.747 -144.351C-257.842 -141.231 -253.204 -137.604 -248.296 -134.009C-245.806 -132.239 -243.512 -130.253 -241.112 -128.305C-238.732 -126.341 -236.322 -124.351 -233.882 -122.337C-224.547 -113.979 -215.019 -105.013 -206.321 -95.073C-204.144 -92.5919 -201.832 -90.1474 -199.726 -87.5722C-197.638 -84.9883 -195.535 -82.3825 -193.416 -79.7583C-192.361 -78.4449 -191.304 -77.1255 -190.241 -75.8024C-189.252 -74.4475 -188.26 -73.0877 -187.263 -71.723C-185.278 -68.9924 -183.279 -66.2435 -181.268 -63.4787C-179.282 -60.7041 -177.506 -57.828 -175.604 -54.9812C-173.765 -52.1124 -171.774 -49.2767 -170.041 -46.3371C-168.307 -43.3985 -166.563 -40.4453 -164.813 -37.4799C-163.941 -35.9967 -163.066 -34.5111 -162.189 -33.0215C-161.344 -31.5237 -160.572 -29.9999 -159.758 -28.4862C-146.633 -4.28374 -135.986 21.3677 -127.52 47.1743C-119.038 72.987 -112.705 98.9576 -107.833 124.013C-106.715 130.283 -105.609 136.493 -104.518 142.629C-103.452 148.765 -102.685 154.841 -101.774 160.821C-100.941 166.65 -100.12 172.395 -99.313 178.042C-98.9498 180.792 -98.5252 183.502 -98.0875 186.181C-97.6487 188.86 -97.2611 191.529 -96.7923 194.144C-94.9838 204.63 -92.8932 214.579 -90.6943 223.926C-88.3887 233.232 -85.9617 241.928 -83.3708 249.861C-78.1407 265.702 -72.4476 278.542 -67.3057 287.761C-64.1236 293.618 -60.6823 298.914 -57.2476 303.778C-53.7405 308.579 -50.1266 312.824 -46.5596 316.591C-39.2888 323.96 -32.1492 329.252 -25.8061 332.711C-18.1321 337.135 -7.45819 341.082 4.07788 342.884C9.81952 343.833 15.7693 344.195 21.3741 344.27C24.1644 344.358 26.9163 344.212 29.4843 344.165C32.0836 343.989 34.5078 343.908 36.7593 343.674C45.7374 342.891 54.4006 341.407 60.9902 340.069C67.5869 338.721 72.1155 337.521 72.9651 337.352C74.678 336.908 76.7173 336.339 77.5269 336.088C78.3419 335.838 80.2571 335.333 81.849 334.896C82.718 334.655 87.3297 333.385 94.093 331.278C100.852 329.143 109.754 326.118 119.179 322.571C128.613 319.02 138.848 314.836 147.739 311.012C156.634 307.2 164.182 303.738 168.32 301.854C210.245 282.665 258.858 256.748 310.775 229.104C362.727 201.5 418.192 172.257 474.574 147.312C508.149 132.434 537.272 121.153 563.373 112.419C589.471 103.666 612.535 97.4534 634.091 92.7321C655.678 88.0928 675.788 84.9488 696.292 83.1807C706.534 82.2562 716.894 81.7781 727.566 81.6643C738.241 81.5566 749.251 81.8428 760.786 82.8077C773.655 83.7698 793.619 86.2549 814.671 91.5534C825.208 94.1346 835.962 97.4828 846.248 101.266C847.536 101.737 848.82 102.207 850.1 102.675C851.373 103.152 852.618 103.678 853.874 104.176C856.336 105.166 858.775 106.149 861.19 107.12C865.668 108.903 870.033 110.642 874.221 112.308C891.151 118.61 909.674 124.483 925.979 128.26C926.991 128.518 927.992 128.773 928.98 129.025C929.985 129.236 930.977 129.445 931.954 129.652C933.908 130.062 935.815 130.462 937.662 130.849C941.369 131.594 944.804 132.426 948.011 132.952C954.42 134.025 959.636 134.899 963.165 135.49C984.764 138.642 1002.68 139.574 1017.47 140.024C1024.87 140.048 1031.49 140.283 1037.45 140.006C1043.4 139.815 1048.7 139.789 1053.41 139.403C1058.14 139.1 1062.3 138.833 1066.02 138.596C1069.72 138.231 1072.98 137.912 1075.91 137.625C1078.83 137.318 1081.43 137.132 1083.79 136.809C1086.14 136.499 1088.27 136.216 1090.29 135.949C1092.77 135.624 1095.81 135.225 1099.18 134.783C1102.54 134.23 1106.23 133.622 1110.02 132.999C1111.92 132.688 1113.83 132.373 1115.75 132.057C1117.66 131.683 1119.56 131.309 1121.43 130.942C1125.18 130.206 1128.8 129.495 1132.06 128.853C1145.05 126.018 1164.47 121.28 1175.08 117.97C1176.87 117.451 1178.99 116.837 1181.4 116.137C1183.79 115.375 1186.47 114.521 1189.39 113.588C1192.31 112.637 1195.51 111.68 1198.87 110.526C1202.22 109.361 1205.78 108.125 1209.52 106.829C1224.39 101.522 1241.81 94.7841 1259.11 87.1499C1276.42 79.5208 1293.66 71.1149 1308.65 63.3144C1312.38 61.3443 1315.99 59.4393 1319.44 57.6173C1322.86 55.7378 1326.12 53.9439 1329.18 52.2551C1335.35 48.9218 1340.58 45.7826 1344.88 43.3565C1353.01 38.6268 1362.86 32.7031 1372.12 26.8997C1381.38 21.0974 1390.08 15.4566 1396.05 11.4579C1407.34 3.99007 1418.6 -3.81181 1431.37 -13.0061C1444.14 -22.2068 1458.4 -32.827 1475.34 -46.2748C1486.24 -54.843 1501.88 -67.8148 1510.18 -74.9513C1518.05 -81.6402 1525.23 -87.9757 1532.94 -94.8371C1534.86 -96.5661 1536.81 -98.327 1538.81 -100.134C1540.28 -101.476 1541.8 -102.851 1543.36 -104.275C1544.99 -105.774 1546.72 -107.372 1548.61 -109.117C1551.03 -111.38 1555.74 -115.791 1559.09 -118.931C1562.42 -122.082 1566.64 -126.128 1568.49 -127.929C1576.19 -135.327 1583.78 -142.807 1591.22 -150.376C1597.14 -156.396 1602.31 -161.815 1605.76 -165.491C1605.93 -166.619 1606.01 -167.888 1605.95 -169.134C1605.8 -171.95 1606.22 -174.879 1606.92 -175.647C1607.62 -176.421 1607.23 -178.691 1605.99 -180.703C1604.83 -182.588 1603.47 -184.142 1601.85 -185.301C1600.25 -186.478 1598.59 -187.474 1596.74 -188.162C1595.33 -186.663 1593.66 -184.89 1592.25 -183.384C1590.77 -181.839 1589.55 -180.57 1589.13 -180.131C1588.43 -179.41 1586.87 -177.8 1585.65 -176.539C1583.86 -174.687 1579.37 -170.151 1574.98 -165.798C1574.63 -165.44 1572.73 -163.536 1570.76 -161.557C1568.77 -159.587 1566.96 -157.803 1566.73 -157.578L1565.73 -156.623C1565.41 -156.31 1562.76 -153.737 1559.83 -150.894C1556.88 -148.072 1552.88 -144.247 1550.94 -142.398C1549 -140.551 1544.64 -136.476 1541.25 -133.351C1539.24 -131.512 1536.41 -128.937 1533.13 -125.956C1528.88 -122.149 1524.05 -117.826 1519.11 -113.406C1499.31 -95.671 1477.82 -77.8714 1462.98 -66.1665C1459.77 -63.6279 1456.05 -60.665 1452 -57.5626C1449.98 -56.0035 1447.9 -54.3918 1445.78 -52.7532C1443.64 -51.1367 1441.47 -49.4942 1439.29 -47.8508C1430.59 -41.2658 1421.71 -34.813 1414.88 -29.9436C1405.61 -23.3526 1386.39 -9.87335 1361.9 5.48174C1349.61 13.1013 1336.1 21.2942 1321.83 29.2428C1307.56 37.1947 1292.66 45.0637 1277.83 52.3042C1262.96 59.4834 1248.21 66.1307 1234.36 71.851C1220.49 77.4894 1207.6 82.4127 1196.46 86.1667C1193.68 87.1194 1191.02 88.0291 1188.49 88.895C1185.95 89.7474 1183.53 90.4639 1181.26 91.1876C1176.71 92.5793 1172.79 93.9256 1169.48 94.8085C1162.88 96.6857 1159.04 97.7813 1158.75 97.8633C1158.73 97.8694 1157.95 98.0869 1156.58 98.4758C1155.19 98.8254 1153.2 99.3306 1150.74 99.9519C1148.28 100.575 1145.36 101.318 1142.12 102.14C1138.87 102.921 1135.28 103.677 1131.53 104.529C1129.65 104.949 1127.69 105.387 1125.68 105.836C1123.67 106.221 1121.61 106.616 1119.53 107.014C1117.45 107.412 1115.35 107.814 1113.27 108.216C1112.23 108.416 1111.19 108.617 1110.16 108.815C1109.13 108.981 1108.1 109.145 1107.09 109.308C1103.02 109.958 1099.13 110.579 1095.66 111.135C1092.19 111.662 1089.12 111.981 1086.73 112.305C1083.13 112.762 1078.27 113.451 1072.32 113.926C1069.35 114.204 1066.11 114.506 1062.62 114.83C1059.13 115.033 1055.4 115.251 1051.44 115.482C1035.61 116.248 1016.19 116.401 994.888 114.606C973.589 112.844 950.437 109.111 927.275 103.009C925.825 102.635 924.371 102.259 922.918 101.884L920.731 101.323L918.577 100.668C915.701 99.7903 912.818 98.9098 909.926 98.0269C904.096 96.3957 898.463 94.1811 892.731 92.2297L888.445 90.7217L884.242 89.0305C881.437 87.9095 878.637 86.7881 875.84 85.6691C872.527 84.3373 869.222 83.0069 865.924 81.6802C862.332 80.1821 858.637 78.8822 854.981 77.5396C853.792 77.1117 852.594 76.6787 851.389 76.2434C850.164 75.8399 848.93 75.4327 847.69 75.0231C845.204 74.2171 842.699 73.3563 840.13 72.5788C834.978 71.0563 829.719 69.485 824.322 68.157C813.568 65.3992 802.443 63.0735 791.52 61.4094C769.676 57.9023 748.787 56.8958 733.171 56.8005C744.134 56.8199 755.16 57.2481 766.198 58.1113C777.24 59.0359 788.274 60.453 799.237 62.3105C810.196 64.2145 821.044 66.6748 831.744 69.5422C842.431 72.4575 852.893 75.9304 863.151 79.7556L888.788 89.8412L900.653 93.9171C904.573 95.3563 908.614 96.479 912.628 97.6712C920.601 100.213 928.799 102.072 936.918 104.16L949.264 106.713L952.348 107.36C953.38 107.558 954.424 107.705 955.464 107.882L961.696 108.904C994.943 114.437 1029.18 115.284 1063.35 112.516C1080.45 111.033 1097.53 108.543 1114.51 105.271L1120.87 103.999C1123 103.575 1125.12 103.176 1127.23 102.655L1139.9 99.7256L1152.51 96.4312L1155.66 95.6094L1158.79 94.6923L1165.05 92.8629C1181.73 87.9068 1198.27 82.3222 1214.55 75.9805C1230.81 69.6341 1246.87 62.6944 1262.69 55.2448C1278.53 47.8173 1294.04 39.7187 1309.35 31.291C1324.65 22.8312 1339.73 13.9805 1354.49 4.66356C1413.6 -32.5103 1468.66 -75.4857 1519.5 -121.785C1530.72 -132.022 1541.71 -142.436 1552.46 -152.995C1563.19 -163.543 1573.71 -174.298 1583.67 -185.043C1581.89 -186.14 1579.15 -187.178 1577.3 -187.245C1576.37 -187.283 1572.05 -183.71 1567.62 -179.324C1562.52 -174.279 1558.81 -171.454 1557.7 -171.614C1556.72 -171.759 1553.92 -169.897 1551.41 -167.428C1548.89 -164.978 1545.64 -162.839 1544.14 -162.659C1542.56 -162.456 1540.84 -161.318 1540 -159.865C1539.22 -158.519 1538.02 -157.486 1537.37 -157.598C1536.72 -157.693 1533.67 -155.259 1530.6 -152.145C1527.54 -149.038 1523.62 -145.824 1521.96 -144.949C1520.27 -144.089 1518.96 -142.741 1519.02 -141.931C1519.08 -141.058 1517.95 -139.963 1516.19 -139.218C1514.57 -138.533 1512.52 -136.715 1511.62 -135.175C1510.46 -133.153 1509.66 -132.633 1508.78 -133.341C1508.38 -133.661 1507.67 -133.559 1506.85 -133.196C1506.65 -133.106 1506.43 -132.998 1506.22 -132.877L1506.05 -132.784C1505.99 -132.75 1505.97 -132.743 1505.81 -132.615C1505.56 -132.415 1505.3 -132.209 1505.03 -132C1503.98 -131.166 1502.88 -130.243 1501.78 -129.286C1497.4 -125.44 1493.06 -121.082 1492.69 -119.449C1492.29 -117.683 1490.62 -116.385 1486.24 -114.636C1481.57 -112.763 1480.01 -111.543 1478.67 -108.819C1477.33 -106.113 1476.22 -105.249 1473.35 -104.699C1470.48 -104.15 1469.59 -103.448 1469 -101.333C1468.58 -99.869 1466.23 -97.4356 1463.74 -95.9241C1461.26 -94.4152 1459.63 -92.8267 1460.1 -92.4072C1460.57 -91.9841 1456.97 -88.3633 1452.09 -84.3745C1449.64 -82.391 1445.32 -78.8142 1440.32 -74.6529C1435.29 -70.5307 1429.57 -65.8424 1424.37 -61.5845C1416.66 -55.2698 1403.95 -45.4332 1389.44 -35.0613C1374.95 -24.6623 1358.66 -13.7643 1344.24 -4.81935C1341.4 -3.03767 1308.89 17.7932 1269.86 37.3048C1264.45 40.0439 1259.19 42.4947 1254.41 44.8336C1252.52 45.7412 1250.75 46.4564 1249.26 47.0815C1246.26 48.3065 1244.29 48.9729 1244.07 48.7822C1243.61 48.4021 1243.16 48.4068 1243.07 48.8093C1243.04 48.9058 1242.07 49.4523 1240.34 50.3562C1238.63 51.2878 1236.11 52.4509 1233.02 53.9158C1229.93 55.3451 1226.29 57.1417 1222.19 58.9014C1218.09 60.6596 1213.61 62.6442 1208.89 64.5851C1204.15 66.4766 1199.46 68.3501 1195.04 70.1148C1190.59 71.7874 1186.42 73.3576 1182.73 74.7429C1175.34 77.4125 1169.91 79.281 1168.29 79.9426C1165.04 81.2046 1157.59 83.7726 1151.75 85.8683C1148.81 86.8064 1145.29 87.963 1141.96 89.0759C1140.3 89.6359 1138.7 90.179 1137.23 90.6716C1135.77 91.1279 1134.46 91.5362 1133.4 91.8665C1130.1 92.9106 1127.07 93.868 1124.23 94.7668C1121.39 95.6778 1118.7 96.3296 1116.12 97.0573C1113.52 97.7481 1111.02 98.4159 1108.52 99.0812C1106.01 99.7107 1103.49 100.222 1100.87 100.804C1099.48 101.109 1097.8 101.478 1095.95 101.885C1094.1 102.301 1092.07 102.751 1090 103.104C1085.84 103.876 1081.5 104.68 1077.99 105.334C1072.49 106.171 1067.48 106.933 1062.86 107.637C1058.22 108.216 1053.96 108.656 1049.96 109.123C1048.95 109.237 1047.97 109.348 1047 109.458C1046.02 109.533 1045.07 109.605 1044.13 109.677C1042.24 109.814 1040.4 109.948 1038.6 110.079C1035 110.316 1031.52 110.669 1028.09 110.707C1028.09 110.707 1026.19 110.776 1023.32 110.881C1021.89 110.935 1020.22 110.999 1018.43 111.067C1017.53 111.102 1016.6 111.136 1015.66 111.171C1014.72 111.169 1013.77 111.166 1012.82 111.164C1008.99 111.163 1005.17 111.162 1002.31 111.16C1000.87 111.172 999.674 111.162 998.847 111.109C998.012 111.075 997.535 111.055 997.535 111.055C987.593 110.867 968.117 109.069 949.701 105.419C945.119 104.432 940.554 103.543 936.229 102.521C931.943 101.387 927.846 100.303 924.092 99.3099C923.158 99.0555 922.236 98.8231 921.354 98.5649C920.476 98.2827 919.625 98.0073 918.797 97.7397C917.147 97.1993 915.599 96.6928 914.173 96.2256C911.325 95.2804 908.977 94.4748 907.283 93.845C904.75 92.9106 901.303 91.3688 897.691 89.9232C894.094 88.4326 890.332 87.0178 887.437 85.6237C884.518 84.3021 880.972 82.6963 877.604 81.1727C873.401 79.3043 869.426 77.5372 866.693 76.3217C864.313 75.2162 861.548 74.1697 857.999 72.7377C854.469 71.2751 849.994 69.7184 844.137 67.6457C832.362 63.7436 814.663 58.0612 785.721 53.3605C780.974 52.6271 771.646 51.2719 760.435 50.3975C749.232 49.4743 736.145 48.9106 724.036 49.0867C711.915 49.1921 697.844 49.8853 685.041 51.0568C678.628 51.6097 672.558 52.331 667.13 52.9655C661.745 53.6895 656.974 54.2874 653.287 54.8647C640.016 56.7978 628.261 59.0247 616.746 61.5195C605.236 64.0275 593.934 66.7798 581.809 70.1903C569.68 73.5901 556.673 77.5762 541.829 82.6451C527.002 87.7211 510.307 93.8548 491.029 101.724C458.62 114.888 426.519 129.722 396.892 144.183C367.253 158.646 340.069 172.718 317.361 184.516C312.876 186.845 301.186 193.261 291.46 198.768C281.725 204.273 272.911 208.78 271.804 208.814C270.688 208.85 269.773 209.483 269.743 210.246C269.709 211 268.961 211.983 268.073 212.446C267.181 212.898 258.935 217.72 249.765 223.101C240.58 228.491 224.524 237.837 214.047 243.817C201.219 251.143 179.826 262.687 153.877 275.107C140.91 281.253 126.792 287.652 112.136 293.486C97.4906 299.361 82.2721 304.683 67.4868 308.647C52.7331 312.624 38.4038 315.08 26.5543 315.382C20.6259 315.551 15.3489 315.216 10.8029 314.501C6.24261 313.783 2.40479 312.709 -1.02386 311.344C-4.45264 309.975 -7.51373 308.274 -10.4722 306.211C-13.4178 304.144 -16.2324 301.664 -18.8888 298.927C-20.2397 297.626 -21.4781 296.071 -22.7393 294.675C-23.345 293.903 -23.9407 293.137 -24.5277 292.389C-24.8242 292.016 -25.1192 291.647 -25.4114 291.277C-25.6907 290.878 -25.9685 290.485 -26.2436 290.092C-26.7979 289.309 -27.3423 288.54 -27.8767 287.784C-28.4097 287.022 -28.8928 286.185 -29.3915 285.42C-29.886 284.637 -30.3706 283.875 -30.8423 283.126C-31.2926 282.333 -31.733 281.558 -32.162 280.799C-32.2502 280.656 -32.3444 280.504 -32.4313 280.365L-32.4156 280.362C-33.2521 279.162 -34.0715 277.567 -34.8909 276.029C-35.1746 275.453 -35.5765 274.636 -36.0809 273.616C-36.5555 272.546 -37.1241 271.262 -37.7725 269.802C-38.4495 268.379 -39.1035 266.637 -39.8502 264.801C-40.2166 263.873 -40.6212 262.938 -41.0005 261.925C-41.3696 260.902 -41.7513 259.845 -42.1417 258.761C-45.1044 249.998 -47.6642 239.877 -49.8615 229.78C-52.0305 219.471 -54.1254 209.508 -55.9012 201.069C-56.4042 197.332 -56.6989 193.816 -57.0451 190.65C-57.4016 187.492 -57.6151 184.562 -57.8475 181.923C-58.3408 176.661 -58.6 172.384 -58.8907 168.954C-58.9647 168.096 -59.0349 167.288 -59.1003 166.528C-59.183 165.71 -59.2614 164.942 -59.3339 164.219C-59.5233 162.676 -59.6888 161.328 -59.8357 160.138C-60.1607 157.762 -60.4739 156.024 -60.8118 154.625C-63.1163 143.848 -69.7513 109.944 -76.3267 83.9914C-77.5364 78.6305 -78.6567 73.3807 -79.8779 68.2596C-81.2148 63.1348 -82.5172 58.1431 -83.7786 53.3066C-84.4325 50.8867 -84.9883 48.5047 -85.6982 46.1644C-86.4033 43.8224 -87.0958 41.5224 -87.7745 39.2664C-89.1439 34.7514 -90.4592 30.4116 -91.7146 26.2686C-93.1426 22.1259 -94.5036 18.1797 -95.7905 14.4501C-96.4362 12.5854 -97.0645 10.7742 -97.6715 9.01933C-97.9764 8.14256 -98.277 7.27934 -98.5721 6.43068C-98.9014 5.58339 -99.2236 4.75166 -99.5411 3.93384C-102.113 -2.61081 -104.31 -8.2018 -106.067 -12.6738L-106.162 -12.6405C-107.845 -16.5389 -109.605 -20.6122 -111.535 -25.078C-112.344 -26.9342 -113.249 -29.0083 -114.192 -31.1677C-115.234 -33.3186 -116.319 -35.5553 -117.379 -37.7428C-119.528 -42.1206 -121.584 -46.309 -123.028 -49.2486C-126.038 -54.7525 -128.809 -59.8884 -131.772 -65.4597C-133.313 -68.2355 -135.043 -71.0957 -136.814 -74.176C-138.638 -77.2466 -140.435 -80.5556 -142.671 -84.1165C-144.132 -86.4019 -146.325 -89.7574 -148.702 -93.3256C-149.901 -95.106 -151.098 -96.9525 -152.355 -98.7195C-153.664 -100.473 -154.936 -102.175 -156.09 -103.721C-158.419 -106.806 -161.031 -110.334 -163.499 -113.493C-166.095 -116.611 -168.417 -119.399 -169.839 -121.107C-170.548 -121.963 -172.111 -123.773 -174.341 -126.304C-176.648 -128.805 -179.772 -131.968 -183.347 -135.628C-186.842 -139.328 -191.245 -143.314 -195.898 -147.57C-200.443 -151.887 -205.813 -156.156 -211.116 -160.528C-213.734 -162.739 -216.491 -164.771 -219.149 -166.747C-221.806 -168.722 -224.377 -170.632 -226.831 -172.456C-231.83 -176.032 -236.561 -179.107 -240.467 -181.781C-242.408 -183.133 -244.276 -184.257 -245.905 -185.269C-247.532 -186.285 -248.94 -187.165 -250.101 -187.889C-252.417 -189.346 -253.725 -190.203 -253.765 -190.317C-253.93 -190.79 -254.513 -190.913 -255.075 -190.609C-255.216 -190.533 -255.94 -190.808 -257.127 -191.364C-258.318 -191.918 -260.035 -192.68 -262.082 -193.676C-264.135 -194.667 -266.547 -195.859 -269.193 -197.191C-272.492 -198.945 -276.092 -200.568 -279.8 -202.263C-281.655 -203.108 -283.541 -203.966 -285.453 -204.836C-286.411 -205.269 -287.374 -205.703 -288.343 -206.141C-289.332 -206.543 -290.327 -206.949 -291.326 -207.356C-294.93 -208.806 -298.505 -210.247 -302.045 -211.671C-305.593 -213.084 -309.197 -214.265 -312.711 -215.531C-319.729 -218.113 -326.733 -220.094 -333.426 -222.144C-336.779 -223.144 -340.104 -223.939 -343.334 -224.802C-346.572 -225.611 -349.721 -226.52 -352.811 -227.164C-355.898 -227.838 -358.896 -228.494 -361.796 -229.129C-363.247 -229.441 -364.674 -229.746 -366.075 -230.047C-367.477 -230.304 -368.852 -230.555 -370.201 -230.801C-372.902 -231.285 -375.493 -231.747 -377.964 -232.187C-379.199 -232.405 -380.406 -232.616 -381.581 -232.822C-382.755 -232.993 -383.898 -233.16 -385.008 -233.322C-389.453 -233.947 -393.376 -234.498 -396.696 -234.965C-403.33 -235.683 -407.557 -236.14 -408.731 -236.267C-432.339 -238.618 -459.244 -238.959 -483.238 -237.834C-507.268 -236.757 -528.307 -234.125 -541.33 -232.455C-542.422 -232.303 -543.529 -232.149 -544.643 -231.994L-546.172 -231.783L-546.83 -231.714C-547.712 -231.617 -548.606 -231.519 -549.493 -231.421C-551.269 -231.218 -553.038 -231.025 -554.665 -230.785C-557.93 -230.328 -560.743 -229.897 -562.307 -229.608C-565.443 -229.046 -568.102 -228.988 -568.259 -229.563C-568.413 -230.136 -569.591 -230.059 -570.871 -229.384C-572.151 -228.709 -573.928 -228.683 -574.842 -229.323C-576.154 -230.238 -576.705 -230.076 -577.477 -228.534C-578.249 -226.996 -578.899 -226.775 -580.676 -227.53C-582.448 -228.281 -583.398 -227.96 -585.151 -225.982C-586.79 -224.141 -587.755 -223.761 -588.854 -224.537C-590.878 -225.966 -601.404 -223.047 -600.782 -221.253C-600.447 -220.259 -601.53 -219.825 -604.65 -219.699C-607.029 -219.589 -610.429 -218.682 -612.162 -217.618C-614.041 -216.464 -615.995 -215.952 -617.027 -216.331C-617.985 -216.679 -620.364 -216.119 -622.33 -215.054C-624.276 -213.96 -630.311 -211.945 -635.68 -210.378C-641.088 -208.854 -645.587 -207.034 -645.772 -206.45C-645.945 -205.864 -647.797 -205.17 -649.853 -204.913C-652.063 -204.624 -654.285 -203.493 -655.254 -202.207C-656.164 -200.996 -660.284 -198.811 -664.448 -197.295C-668.647 -195.758 -672.157 -193.785 -672.37 -192.909C-672.618 -191.892 -677.688 -189.4 -686.098 -185.906C-693.41 -182.854 -699.685 -179.429 -699.965 -178.58C-700.512 -176.923 -700.051 -174.336 -699.185 -172.602C-686.445 -177.938 -673.938 -182.622 -661.226 -187.026C-648.53 -191.39 -635.715 -195.398 -622.727 -199.057C-596.756 -206.361 -570.119 -212.319 -542.682 -216.47C-527.712 -218.845 -512.511 -220.692 -497.096 -221.923C-481.682 -223.149 -466.023 -223.665 -450.227 -223.472C-434.427 -223.243 -418.48 -222.385 -402.483 -220.417C-386.493 -218.495 -370.488 -215.681 -354.655 -211.907C-338.831 -208.051 -323.244 -203.129 -308.09 -197.298L-296.821 -192.724C-293.123 -191.095 -289.469 -189.385 -285.804 -187.703C-282.107 -186.065 -278.57 -184.191 -275.012 -182.35C-271.477 -180.478 -267.845 -178.727 -264.453 -176.681L-254.164 -170.684C-250.804 -168.614 -247.543 -166.44 -244.242 -164.306L-239.326 -161.074L-234.602 -157.674C-231.474 -155.389 -228.282 -153.15 -225.235 -150.804C-219.297 -146.002 -213.16 -141.312 -207.665 -136.219C-204.877 -133.7 -201.995 -131.228 -199.31 -128.651L-191.397 -120.839C-193.121 -122.51 -194.928 -124.261 -196.812 -126.086C-198.697 -127.91 -200.638 -129.817 -202.84 -131.69C-205.002 -133.582 -207.237 -135.542 -209.545 -137.56C-210.702 -138.566 -211.876 -139.587 -213.066 -140.622C-214.318 -141.619 -215.586 -142.629 -216.87 -143.652C-219.453 -145.688 -222.104 -147.776 -224.814 -149.91C-226.148 -150.992 -227.594 -152.014 -229.05 -153.049C-230.505 -154.085 -231.976 -155.13 -233.459 -156.185C-236.462 -158.267 -239.386 -160.501 -242.657 -162.51C-245.877 -164.559 -249.149 -166.641 -252.465 -168.751C-266.008 -176.901 -280.983 -184.721 -296.921 -191.497C-312.909 -198.169 -329.759 -203.794 -346.616 -208.147C-363.471 -212.515 -380.32 -215.648 -396.299 -217.578C-412.28 -219.533 -427.407 -220.567 -441.017 -220.864C-468.257 -221.468 -489.419 -219.658 -500.776 -218.634C-511.238 -217.688 -524.758 -215.993 -538.045 -213.89C-540.133 -213.534 -542.217 -213.179 -544.265 -212.831C-545.522 -212.609 -546.759 -212.393 -547.96 -212.182C-550.336 -211.724 -552.553 -211.295 -554.46 -210.927Z" fill="#B1D136"/>
    <path fill-rule="evenodd" clip-rule="evenodd" d="M504.582 176.676C475.574 192.204 452.399 203.288 427.373 215.347C402.378 227.449 375.707 240.693 340.39 261.529C305.071 282.374 273.21 298.744 243.172 312.879C213.115 327.016 185.045 338.995 156.776 351.033C128.48 363.053 100.788 372.2 75.3921 377.4C62.7108 380.012 50.668 381.703 39.6219 382.458C28.5778 383.224 18.5818 383.099 10.0891 382.539C-6.30164 381.432 -20.788 377.979 -32.5279 373.535C-44.2792 369.032 -53.3266 363.784 -60.2388 359.055C-63.7648 356.724 -66.6023 354.393 -69.225 352.384C-71.6827 350.274 -73.8887 348.444 -75.6626 346.791C-77.412 345.121 -78.8896 343.715 -80.1089 342.553C-81.2607 341.364 -82.1683 340.425 -82.8411 339.731C-85.525 336.949 -84.5818 338.104 -80.7119 342.397C-76.6296 346.56 -69.4299 353.953 -57.4667 361.952C-51.4775 365.919 -44.245 369.933 -35.8419 373.467C-27.4445 377.004 -17.8438 379.975 -7.51208 381.936C2.81824 383.918 13.8341 384.901 25.015 384.911C36.1958 384.908 47.5245 383.942 58.7554 382.299C81.2422 378.999 103.288 373.01 124.293 366.061C145.302 359.085 165.36 351.148 183.981 343.315C204.064 334.849 221.639 326.708 237.871 318.906C254.079 311.083 268.93 303.572 283.31 296.082C312.05 281.104 338.921 266.17 370.431 248.573C401.941 231.005 413.412 225.158 421.113 221.246C428.834 217.405 432.766 215.528 449.516 207.061C469.267 197.126 483.027 189.592 491.867 184.492C500.706 179.4 504.582 176.676 504.582 176.676ZM1350.07 76.1096C1349.46 77.1781 1350.34 78.0464 1352.02 78.0071C1352.34 78.0095 1354.47 76.9728 1358.19 74.998C1361.88 73.0093 1367.26 70.2052 1373.82 66.4023C1387.04 58.9247 1405.45 47.9355 1426.68 33.9396C1447.91 19.9434 1472.03 3.0096 1496.85 -16.1084C1521.69 -35.2006 1547.32 -56.3818 1571.99 -78.4868C1592.18 -95.8188 1611.74 -113.894 1626.08 -127.777C1633.26 -134.711 1639.15 -140.584 1643.26 -144.713C1647.37 -148.834 1649.73 -151.251 1649.71 -151.051C1649.58 -150.244 1651.08 -148.267 1653.05 -146.662C1653.22 -146.526 1651.45 -144.199 1648.1 -140.225C1644.74 -136.247 1639.78 -130.613 1633.45 -123.751C1620.82 -110.022 1602.7 -91.3897 1581.14 -71.0473C1527.94 -21.6871 1463.94 29.6418 1392.76 73.7499C1357.19 95.7726 1319.79 115.884 1281.54 132.955C1262.44 141.518 1243.06 149.219 1223.66 156.036C1204.25 162.833 1184.87 168.843 1165.62 173.735C1146.36 178.602 1127.35 182.552 1108.83 185.527C1104.19 186.244 1099.57 186.846 1095.01 187.492C1092.73 187.8 1090.47 188.14 1088.2 188.413C1085.93 188.655 1083.67 188.894 1081.43 189.133C1076.93 189.585 1072.51 190.12 1068.1 190.474C1063.69 190.785 1059.33 191.092 1055.04 191.394C1050.75 191.75 1046.48 191.851 1042.29 191.999C1038.09 192.13 1033.96 192.316 1029.88 192.379C1025.8 192.369 1021.78 192.361 1017.83 192.351C1015.86 192.343 1013.9 192.336 1011.96 192.327C1010.02 192.299 1008.09 192.19 1006.18 192.124C998.55 191.799 991.196 191.609 984.16 190.938C980.639 190.656 977.196 190.378 973.828 190.108C972.142 189.994 970.483 189.802 968.848 189.598C967.21 189.403 965.591 189.212 963.991 189.021C957.602 188.236 951.508 187.607 945.831 186.599C940.143 185.654 934.758 184.886 929.791 183.929C919.891 181.894 911.335 180.31 904.528 178.495C901.101 177.652 898.056 176.904 895.42 176.256C894.101 175.931 892.88 175.632 891.765 175.357C890.666 175.047 889.669 174.765 888.775 174.513C886.991 174.008 885.62 173.621 884.686 173.357C883.749 173.098 883.248 172.966 883.197 172.969C880.79 173.108 879.541 173.722 880.459 174.336C880.637 174.456 882.657 175.147 886.38 176.354C890.063 177.642 895.594 179.088 902.665 181.02C909.696 183.069 918.493 184.955 928.703 187.237C938.981 189.242 950.736 191.495 963.936 193.147C970.511 194.154 977.464 194.746 984.716 195.455C986.532 195.628 988.364 195.803 990.215 195.98C992.067 196.155 993.942 196.22 995.836 196.345C999.622 196.562 1003.48 196.785 1007.41 197.01C1011.35 197.292 1015.35 197.283 1019.42 197.385C1023.49 197.452 1027.63 197.567 1031.84 197.582C1036.04 197.508 1040.29 197.434 1044.62 197.357C1046.79 197.311 1048.97 197.263 1051.16 197.216C1053.34 197.1 1055.54 196.984 1057.75 196.866C1093.23 195.19 1132.04 189.664 1171.55 179.939C1176.47 178.683 1181.47 177.509 1186.42 176.143C1191.35 174.758 1196.32 173.363 1201.32 171.961C1211.21 168.962 1221.24 165.91 1231.14 162.466C1251.01 155.69 1270.84 148.023 1290.43 139.588C1329.56 122.642 1367.68 102.659 1403.89 80.9305C1440.12 59.2072 1474.39 35.6912 1506.26 11.734C1538.13 -12.2357 1567.59 -36.6597 1594.21 -60.4351C1614.83 -78.0631 1632.2 -93.985 1644.46 -105.572C1650.59 -111.374 1655.45 -116.057 1658.81 -119.319C1660.49 -120.948 1661.79 -122.204 1662.67 -123.054C1663.12 -123.477 1663.46 -123.797 1663.69 -124.012C1663.92 -124.225 1664.05 -124.329 1664.06 -124.319C1665.85 -123.082 1663.16 -119.075 1660.19 -114.066C1657.23 -109.069 1653.98 -103.056 1654.65 -97.5826C1654.71 -97.0471 1653.92 -96.6761 1654.36 -95.9982C1654.98 -95.0684 1654.19 -94.2196 1651.22 -92.6609C1648.01 -90.9955 1647.3 -90.1651 1647.59 -88.3731C1647.83 -86.8009 1646.91 -85.4584 1644.36 -83.8285C1639.66 -80.7775 1629.73 -71.3777 1630.58 -70.7168C1630.96 -70.4221 1628.64 -67.984 1625.45 -65.31C1621.23 -61.8144 1617.5 -58.7045 1614.3 -55.9753C1612.7 -54.6082 1611.22 -53.3431 1609.87 -52.1824C1609.2 -51.5941 1608.57 -51.0317 1607.96 -50.4971C1606.81 -49.457 1605.72 -48.4695 1604.69 -47.5334C1599.14 -42.4879 1594.86 -38.5427 1591.91 -35.7101C1588.98 -32.8643 1587.39 -31.1165 1587.19 -30.4939C1586.6 -28.6183 1585.26 -27.5952 1582.41 -26.8753C1579.87 -26.2231 1578.13 -24.9432 1577.5 -23.3306C1576.26 -20.0488 1564.21 -10.2559 1561.57 -10.429C1560.45 -10.4879 1558.38 -9.53459 1556.91 -8.29532C1555.45 -7.07196 1555.61 -6.06746 1557.26 -6.07593C1559.84 -6.09795 1558.28 -4.48399 1546.82 4.39488C1539.3 10.12 1533.57 15.1042 1534 15.5219C1534.48 15.9641 1532.8 17.1678 1530.25 18.2214C1527.71 19.2767 1525.18 20.8978 1524.6 21.8657C1524.02 22.8373 1521.77 24.4621 1519.61 25.4904C1517.62 26.4152 1512.14 30.272 1502.05 37.3417C1491.98 44.4254 1477.4 54.8054 1456.84 68.4391C1450.81 72.3768 1444.88 76.1475 1440.13 78.9984C1435.35 81.8296 1431.83 83.8006 1430.72 84.2306C1428.51 85.0646 1426.25 86.6739 1425.72 87.6872C1425.2 88.7361 1420.09 92.0338 1414.35 95.0419C1404.16 100.277 1396.12 105.297 1382.93 114.316C1379.41 116.702 1375.34 118.66 1373.93 118.725C1373.22 118.755 1370.04 120.194 1365.49 122.479C1360.87 124.702 1354.88 127.76 1348.58 131.077C1342.54 134.139 1336.46 137.265 1331.46 139.742C1326.42 142.179 1322.54 144.054 1321.05 144.775C1320.35 145.102 1319.4 145.615 1318.94 145.918C1318.2 146.44 1312.55 148.997 1308.15 150.824C1307.24 151.225 1305.37 152.044 1303.04 153.069C1300.72 154.115 1297.92 155.354 1295.11 156.537C1289.5 158.935 1284.01 161.311 1282.58 161.99C1280.96 162.739 1277.22 164.251 1274.29 165.411C1272.14 166.275 1268.43 167.767 1263.99 169.553C1259.47 171.25 1254.21 173.228 1249.04 175.171C1248.62 175.325 1247.33 175.92 1245.56 176.698C1243.78 177.479 1241.54 178.467 1239.25 179.472C1234.68 181.507 1230.49 183.282 1229.93 183.437C1229.37 183.572 1228.26 183.844 1227.47 184.008C1226.66 184.18 1220.44 186.541 1213.61 189.246C1210.23 190.635 1206.09 192.063 1202.28 193.433C1198.47 194.789 1194.94 196.021 1192.63 196.798C1190.31 197.566 1186.52 198.717 1182.33 200.026C1178.11 201.303 1173.53 202.821 1169.4 203.915C1159.74 206.662 1142.16 211.331 1123.08 214.872C1113.63 216.83 1103.71 218.22 1094.57 219.659C1089.95 220.268 1085.49 220.773 1081.33 221.265C1077.17 221.736 1073.31 222.233 1069.82 222.457C1066.79 222.706 1063.28 222.995 1059.53 223.305C1055.76 223.631 1051.76 224.001 1047.7 224.186C1039.59 224.62 1031.47 225.248 1025.2 225.36C1016.73 225.691 999.051 225.878 977.318 224.057C955.612 222.355 929.854 218.853 905.848 213.254C904.343 212.926 902.83 212.618 901.341 212.272C899.864 211.897 898.391 211.523 896.921 211.151C893.991 210.397 891.083 209.651 888.212 208.913C885.348 208.162 882.519 207.42 879.734 206.691C876.993 205.86 874.298 205.042 871.659 204.242C866.392 202.607 861.295 201.116 856.595 199.515C851.939 197.847 847.562 196.281 843.54 194.842C839.522 193.392 835.867 192.063 832.755 190.712C829.615 189.408 826.897 188.26 824.683 187.299C820.244 185.379 817.794 184.212 817.888 184.044C817.888 184.044 817.372 183.808 816.434 183.384C816.064 183.214 815.611 183.006 815.083 182.764C814.705 182.587 814.276 182.385 813.799 182.161C811.888 181.284 809.269 180.017 806.307 178.824C803.376 177.531 799.874 176.252 796.655 175.005C795.028 174.424 793.472 173.867 792.086 173.371C790.703 172.851 789.446 172.502 788.485 172.159C787.028 171.673 785.07 170.99 782.592 170.354C781.359 170.017 780.016 169.65 778.566 169.255C777.093 168.912 775.517 168.545 773.847 168.155C767.123 166.673 758.689 165.194 748.935 164.26C739.185 163.337 728.144 162.864 716.35 163.319C704.575 163.734 692.107 164.903 679.769 166.742C670.571 168.118 659.782 170.121 649.815 172.327C639.853 174.53 630.733 176.837 624.959 178.387C610.257 182.268 597.687 186.243 586.172 190.131C574.658 194.043 564.187 197.925 553.607 202.138C532.437 210.6 510.807 220.114 479.265 235.618C458.509 245.81 430.824 259.987 417.698 266.614C372.363 289.377 330.267 313.519 285.723 339.419C266.098 350.822 251.62 358.801 242.009 363.917C232.399 369.039 227.621 371.302 227.126 371.282C226.866 371.272 226.409 371.478 226.115 371.759C225.587 372.217 216.557 376.977 203.742 383.136C197.352 386.222 189.955 389.634 182.275 393.049C174.537 396.443 166.53 399.845 158.811 402.867C148.896 406.756 140.912 409.774 135.29 411.912C129.717 414.074 126.558 415.378 126.345 415.859C125.885 416.882 125.34 417.024 124.601 416.33C124.322 416.079 122.815 416.337 119.112 417.234C117.257 417.678 114.874 418.291 111.863 419.094C108.771 419.86 105.098 420.839 100.53 421.944C98.2327 422.489 95.7419 423.078 93.0466 423.715C90.2789 424.315 87.2993 424.955 84.0963 425.646C80.7991 426.287 77.3062 426.981 73.4756 427.659C69.5698 428.289 65.5219 429.021 60.9267 429.6C58.6353 429.891 56.3666 430.251 53.8604 430.498C51.3771 430.752 48.8224 431.013 46.1926 431.284C43.486 431.48 40.7025 431.68 37.8408 431.887C34.9905 432.09 31.8898 432.148 28.7977 432.263C16.2699 432.548 1.68121 432.151 -15.1065 429.488C-23.9547 428.032 -31.2754 426.348 -37.1894 424.674C-40.1494 423.817 -42.7634 423.058 -45.0521 422.296C-47.3361 421.503 -49.3062 420.785 -50.9957 420.141C-54.3854 418.891 -56.5927 417.81 -57.9568 417.072C-59.3178 416.323 -59.8157 415.873 -59.6849 415.622C-59.1657 414.626 -59.4088 414.555 -60.7076 415.27C-61.3729 415.629 -65.3654 414.575 -75.3785 409.808C-77.8237 408.565 -80.704 407.129 -83.8755 405.34C-85.4288 404.415 -87.0856 403.432 -88.8552 402.382C-90.6231 401.322 -92.4793 400.18 -94.3268 398.903C-96.2043 397.639 -98.1786 396.284 -100.25 394.834C-102.252 393.367 -104.294 391.785 -106.459 390.108C-108.668 388.438 -110.748 386.629 -112.969 384.715C-114.072 383.756 -115.199 382.77 -116.357 381.76C-117.466 380.744 -118.551 379.697 -119.68 378.62C-132.482 366.339 -140.87 355.406 -147.664 345.412C-154.382 335.394 -159.521 326.176 -164.04 316.792C-172.882 298.06 -179.851 278.444 -186.162 250.658C-187.699 244.209 -190.369 231.169 -191.904 221.742C-192.774 217.007 -193.477 211.72 -194.182 206.935C-194.784 202.182 -195.248 197.974 -195.498 195.437C-195.74 192.92 -196.135 188.813 -196.576 184.223C-196.801 182.081 -197.037 179.825 -197.272 177.586C-197.503 175.526 -197.733 173.482 -197.947 171.571C-198.455 167.057 -198.924 162.884 -199.359 159.002C-199.823 155.131 -200.37 151.596 -200.786 148.275C-201.677 141.651 -202.244 135.945 -203.002 130.977C-203.324 128.765 -203.786 125.577 -204.272 122.225C-204.783 118.875 -205.271 115.336 -205.878 112.531C-207.263 105.595 -208.303 99.6466 -209.333 94.6597C-210.438 89.7074 -211.307 85.6138 -211.984 82.2151C-213.202 77.668 -214.576 73.7364 -215.607 70.3587C-216.655 66.9895 -217.469 64.2284 -217.996 62.2411C-219.069 58.3033 -220.834 53.3154 -222.502 48.2794C-222.93 47.0256 -223.357 45.7714 -223.778 44.5382C-224.227 43.3223 -224.716 42.1518 -225.169 41.0047C-226.101 38.7223 -226.97 36.5913 -227.716 34.7588C-228.625 32.6648 -229.513 30.2388 -230.666 27.7578C-231.803 25.2681 -233.019 22.6002 -234.285 19.8255C-234.908 18.4328 -235.543 17.0143 -236.188 15.5772C-236.828 14.1363 -237.59 12.7581 -238.29 11.3237C-239.709 8.46912 -241.146 5.57793 -242.568 2.71722C-243.999 -0.13501 -245.601 -2.8148 -247.027 -5.49019C-248.507 -8.12457 -249.798 -10.7715 -251.263 -13.0414C-252.657 -15.3678 -253.955 -17.5357 -255.12 -19.4813C-255.695 -20.4601 -256.234 -21.3836 -256.737 -22.2434C-257.239 -23.1022 -257.767 -23.8415 -258.208 -24.5465C-259.73 -26.9122 -261.478 -29.6279 -263.065 -32.0953C-263.833 -33.3569 -264.65 -34.4746 -265.372 -35.4632C-266.089 -36.4595 -266.711 -37.3241 -267.187 -37.9861C-268.146 -39.3104 -269.575 -41.3665 -271.107 -43.6214C-272.736 -45.7842 -274.492 -48.1168 -275.981 -50.097C-276.725 -51.094 -277.452 -52.0694 -278.128 -52.9783C-278.805 -53.8897 -279.524 -54.6389 -280.109 -55.3329C-281.302 -56.6975 -282.157 -57.6322 -282.389 -57.7968C-282.844 -58.1272 -283.488 -58.5939 -283.814 -58.8298C-283.969 -58.955 -284.541 -59.6146 -285.336 -60.5825C-285.738 -61.0603 -286.177 -61.6388 -286.684 -62.2234C-287.198 -62.7995 -287.749 -63.4185 -288.314 -64.0523C-290.55 -66.6108 -292.77 -69.055 -293.238 -69.4751C-293.938 -70.1273 -294.685 -70.7291 -295.443 -71.3101C-296.191 -71.9021 -296.935 -72.4892 -297.667 -73.069C-299.125 -74.2321 -300.536 -75.3572 -301.841 -76.3976C-303.111 -77.4784 -304.417 -78.2903 -305.47 -79.0715C-306.54 -79.8355 -307.433 -80.4729 -308.089 -80.9409C-309.892 -82.1962 -312.117 -83.8887 -313.181 -84.5483C-314.093 -85.1747 -317.585 -87.5072 -321.224 -89.7549C-324.97 -91.8478 -328.738 -94.0329 -330.017 -94.6483C-333.109 -96.0399 -337.039 -98.0162 -337.559 -98.4154C-337.874 -98.6512 -338.518 -99.0774 -339.03 -99.2874C-340.112 -99.7812 -342.93 -101.065 -346.588 -102.731C-347.49 -103.172 -348.476 -103.581 -349.52 -103.979C-350.552 -104.392 -351.626 -104.821 -352.725 -105.259C-354.927 -106.129 -357.182 -107.129 -359.557 -107.888C-362.036 -108.746 -364.45 -109.569 -366.7 -110.304C-369.01 -110.928 -371.142 -111.484 -372.987 -111.94C-376.646 -112.91 -379.297 -113.191 -379.818 -113.03C-380.896 -112.646 -384.161 -113.314 -387.203 -114.362C-390.098 -115.286 -392.721 -116.097 -395.161 -116.812C-397.631 -117.458 -399.944 -117.935 -402.146 -118.381C-403.245 -118.598 -404.324 -118.798 -405.388 -118.979C-406.471 -119.115 -407.543 -119.234 -408.614 -119.34C-410.753 -119.551 -412.884 -119.704 -415.11 -119.815C-420.235 -119.862 -424.99 -120.486 -425.797 -121.122C-426.593 -121.74 -428.838 -122.004 -430.682 -121.664C-431.619 -121.481 -434.822 -121.554 -439.321 -121.464C-441.566 -121.421 -444.091 -121.514 -446.837 -121.437C-449.578 -121.374 -452.486 -121.351 -455.44 -121.329C-475.81 -120.809 -491 -118.945 -501.384 -117.322C-503.98 -116.952 -506.28 -116.533 -508.297 -116.149C-510.31 -115.756 -512.043 -115.419 -513.505 -115.134C-514.962 -114.827 -516.152 -114.513 -517.074 -114.266C-517.539 -114.14 -517.937 -114.023 -518.267 -113.915C-518.555 -113.815 -518.535 -113.766 -518.65 -113.694C-519.296 -113.114 -520.19 -112.881 -520.639 -113.185C-521.096 -113.496 -522.014 -113.07 -522.695 -112.252C-523.377 -111.428 -524.031 -111.199 -524.172 -111.795C-524.306 -112.37 -526.914 -112.16 -529.983 -111.34C-534.698 -110.086 -535.502 -110.047 -535.32 -111.688C-535.202 -112.727 -535.632 -113.476 -536.274 -113.344C-536.928 -113.21 -537.487 -112.515 -537.534 -111.773C-537.645 -110.024 -542.707 -108.637 -544.27 -109.859C-545.039 -110.466 -545.708 -110.132 -546.118 -108.9C-546.571 -107.513 -547.091 -107.286 -547.989 -108.072C-548.588 -108.606 -551.487 -108.284 -556.529 -107.012C-561.576 -105.781 -568.765 -103.538 -577.845 -100.222C-581.292 -98.9361 -584.262 -98.2336 -584.427 -98.6364C-584.616 -99.113 -587.634 -98.4031 -591.124 -97.278C-594.595 -96.1074 -598.542 -94.5341 -600.559 -93.253C-602.749 -91.8921 -604.238 -91.6698 -605.707 -92.4497C-607.37 -93.3328 -608.347 -93.0774 -610.679 -91.1613C-612.841 -89.3901 -613.802 -89.0339 -614.586 -89.8544C-615.158 -90.4403 -615.685 -89.9404 -616.194 -90.1774C-621.425 -92.6192 -628.027 -91.9522 -633.503 -91.0949C-638.974 -90.229 -643.296 -89.1715 -644.3 -90.9451C-644.312 -90.9647 -644.111 -91.0839 -643.709 -91.2976C-643.304 -91.5027 -642.693 -91.8073 -641.901 -92.2065C-640.314 -92.9987 -637.93 -94.1177 -634.87 -95.5363C-628.732 -98.3552 -619.751 -102.265 -608.614 -106.605C-597.486 -110.952 -584.195 -115.722 -569.537 -120.201C-562.222 -122.489 -554.548 -124.606 -546.673 -126.706C-538.779 -128.696 -530.68 -130.694 -522.463 -132.355C-473.84 -141.293 -423.197 -142.356 -379.047 -132.299C-367.993 -129.86 -357.43 -126.626 -347.271 -123.036C-344.76 -122.079 -342.263 -121.126 -339.777 -120.179C-337.282 -119.242 -334.925 -118.095 -332.504 -117.08C-331.302 -116.559 -330.102 -116.04 -328.906 -115.521C-327.701 -115.015 -326.576 -114.39 -325.41 -113.835C-323.094 -112.696 -320.792 -111.565 -318.503 -110.44C-300.485 -100.979 -284.747 -89.8065 -271.372 -78.1184C-257.979 -66.429 -246.986 -54.2213 -237.893 -42.8131C-228.682 -31.4679 -221.772 -20.6308 -216.021 -11.672C-210.562 -2.5336 -206.279 4.78313 -203.622 10.0191C-200.852 15.1974 -199.256 18.0618 -199.037 18.2498C-198.358 18.8749 -197.623 17.885 -197.505 16.088C-197.501 16.0305 -197.824 15.3007 -198.453 13.9446C-199.091 12.5901 -200.025 10.6062 -201.237 8.03445C-203.565 2.84122 -207.509 -4.45113 -212.586 -13.6407C-217.941 -22.6673 -224.46 -33.6171 -233.299 -45.2232C-242.022 -56.8866 -252.67 -69.4886 -265.873 -81.7356C-279.052 -93.9887 -294.792 -105.849 -313.04 -116.162C-315.34 -117.421 -317.71 -118.614 -320.059 -119.861C-321.237 -120.481 -322.419 -121.103 -323.605 -121.725C-324.811 -122.317 -326.05 -122.865 -327.275 -123.441C-329.735 -124.58 -332.208 -125.726 -334.696 -126.878C-337.249 -127.922 -339.815 -128.971 -342.394 -130.026C-344.942 -131.139 -347.631 -132.022 -350.29 -132.987C-352.966 -133.922 -355.603 -134.97 -358.378 -135.761C-361.124 -136.614 -363.882 -137.47 -366.651 -138.33C-369.472 -139.077 -372.305 -139.825 -375.148 -140.578C-386.585 -143.429 -398.455 -145.703 -410.651 -147.299C-422.87 -148.811 -435.389 -149.695 -448.074 -149.949C-473.446 -150.511 -499.457 -148.328 -525.086 -144.288C-543.518 -141.566 -561.658 -137.739 -578.408 -133.572C-595.142 -129.347 -610.49 -124.769 -623.426 -120.48C-636.382 -116.229 -646.916 -112.279 -654.227 -109.529C-661.535 -106.75 -665.576 -105.174 -665.75 -105.419C-667.219 -107.387 -669.129 -109.035 -669.972 -109.099C-670.268 -109.106 -665.761 -111.53 -657.595 -115.341C-649.433 -119.139 -637.635 -124.25 -623.686 -129.565C-609.737 -134.865 -593.645 -140.38 -577.077 -145.169C-560.528 -150.031 -543.498 -154.105 -527.923 -157.194C-522.518 -158.208 -517.149 -158.97 -511.878 -159.806C-506.587 -160.494 -501.396 -161.275 -496.271 -161.786C-486.036 -163.003 -476.149 -163.652 -466.75 -164.179C-447.944 -165.026 -431.076 -164.547 -417.013 -163.445C-388.841 -161.221 -372.005 -156.85 -371.182 -157.221C-369.638 -157.608 -369.094 -158.659 -369.998 -159.535C-370.266 -159.88 -374.673 -161.048 -382.497 -162.974C-384.455 -163.453 -386.66 -163.847 -389.053 -164.347C-391.455 -164.806 -394.043 -165.401 -396.859 -165.854C-399.68 -166.305 -402.693 -166.785 -405.888 -167.296C-409.087 -167.805 -412.498 -168.139 -416.071 -168.598C-430.382 -170.236 -447.621 -171.255 -466.899 -170.922C-476.527 -170.658 -486.678 -170.255 -497.184 -169.281C-502.451 -168.891 -507.785 -168.231 -513.229 -167.657C-518.642 -166.939 -524.164 -166.289 -529.723 -165.388C-545.854 -163.227 -563.565 -160.054 -580.85 -156.025C-598.16 -152.066 -615.047 -147.312 -629.784 -142.671C-644.521 -138.014 -657.099 -133.461 -665.962 -130.102C-674.818 -126.738 -680.006 -124.602 -679.943 -124.898C-679.691 -125.939 -680.152 -127.13 -680.983 -127.522C-682.795 -128.368 -683.717 -135.331 -682.082 -136.065C-681.483 -136.329 -680.471 -138.228 -679.828 -140.248C-679.167 -142.284 -677.989 -143.919 -677.221 -143.868C-676.464 -143.828 -675.964 -144.763 -676.122 -145.969C-676.177 -146.38 -676.098 -146.982 -675.964 -147.638C-672.501 -149.114 -669.275 -150.452 -668.361 -150.818C-667.227 -151.276 -664.686 -152.299 -662.697 -153.101C-659.782 -154.283 -652.585 -157.061 -645.592 -159.623C-645.017 -159.825 -641.956 -160.895 -638.777 -162.007C-635.583 -163.086 -632.687 -164.064 -632.325 -164.186C-631.966 -164.313 -631.257 -164.563 -630.757 -164.74L-621.354 -167.783C-619.01 -168.504 -616.249 -169.352 -613.688 -170.14C-611.116 -170.895 -608.744 -171.591 -607.2 -172.046C-604.116 -172.975 -597.202 -174.896 -591.841 -176.317C-585.503 -178.02 -574.02 -180.916 -561.847 -183.536C-558.795 -184.168 -555.71 -184.806 -552.665 -185.436C-549.596 -186.014 -546.571 -186.584 -543.66 -187.131C-540.753 -187.7 -537.92 -188.133 -535.293 -188.581C-533.839 -188.822 -532.413 -189.057 -531.011 -189.288C-529.38 -189.573 -527.761 -189.783 -526.189 -190.015C-523.034 -190.465 -520.024 -190.892 -517.188 -191.296C-507.324 -192.568 -494.167 -193.975 -480.825 -194.796C-467.475 -195.582 -453.963 -195.708 -443.61 -195.52C-440.282 -195.444 -436.106 -195.256 -431.202 -195.076C-428.752 -194.994 -426.108 -194.752 -423.304 -194.575C-420.499 -194.35 -417.525 -194.238 -414.397 -193.879C-401.882 -192.773 -386.89 -190.699 -370.553 -187.228C-368.985 -186.888 -367.399 -186.544 -365.797 -186.197C-364.995 -186.021 -364.189 -185.844 -363.38 -185.667C-362.578 -185.46 -361.771 -185.252 -360.962 -185.043C-357.722 -184.198 -354.417 -183.337 -351.049 -182.459C-347.7 -181.521 -344.33 -180.435 -340.882 -179.39C-337.419 -178.384 -333.982 -177.141 -330.486 -175.889C-316.505 -170.917 -301.976 -164.734 -287.753 -156.898C-273.496 -149.124 -259.425 -139.918 -246.085 -129.415C-242.82 -126.734 -239.53 -124.032 -236.215 -121.31C-233.078 -118.457 -229.919 -115.583 -226.741 -112.691C-225.119 -111.267 -223.639 -109.741 -222.135 -108.224C-220.632 -106.706 -219.126 -105.184 -217.614 -103.659C-216.125 -102.119 -214.543 -100.627 -213.126 -99.0332C-211.702 -97.4438 -210.276 -95.8483 -208.846 -94.2503C-202.988 -87.9309 -197.771 -81.1841 -192.427 -74.4532C-189.925 -71.0092 -187.415 -67.5529 -184.897 -64.0855C-184.276 -63.2159 -183.629 -62.3561 -183.027 -61.4767L-181.282 -58.8138C-180.12 -57.0365 -178.956 -55.2567 -177.792 -53.4745L-174.301 -48.1229C-173.155 -46.3321 -172.138 -44.4911 -171.05 -42.6755C-168.916 -39.0278 -166.744 -35.3859 -164.651 -31.7172C-162.696 -28.0051 -160.741 -24.2897 -158.783 -20.5719C-157.831 -18.7075 -156.78 -16.87 -155.911 -14.9809L-153.252 -9.332C-151.504 -5.55997 -149.664 -1.81267 -148.005 1.97394C-146.417 5.77544 -144.828 9.57457 -143.242 13.3673C-142.458 15.2662 -141.643 17.1552 -140.891 19.0555L-138.77 24.7803C-137.363 28.5916 -135.958 32.3958 -134.557 36.1898C-133.217 39.9937 -132.047 43.8159 -130.794 47.6076C-129.595 51.4104 -128.264 55.176 -127.191 58.9667C-126.119 62.7556 -125.05 66.5291 -123.988 70.2862C-122.938 74.0436 -121.817 77.7713 -120.966 81.5139C-120.055 85.2476 -119.151 88.9607 -118.252 92.6517C-117.347 96.3415 -116.437 100.008 -115.731 103.668C-114.975 107.323 -114.224 110.953 -113.48 114.555C-112.754 118.159 -111.939 121.726 -111.379 125.284C-110.163 132.39 -108.968 139.376 -107.796 146.223C-106.838 153.081 -105.899 159.8 -104.981 166.361C-104.549 169.554 -104.122 172.71 -103.7 175.824C-103.286 178.882 -102.926 181.913 -102.448 184.871C-101.997 187.836 -101.552 190.758 -101.113 193.637C-100.618 196.501 -100.131 199.321 -99.652 202.095C-97.6296 213.159 -95.4861 223.421 -93.1124 232.66C-88.427 251.162 -83.1744 265.652 -79.0255 275.382C-77.9458 277.794 -76.9858 279.939 -76.1539 281.795C-75.3132 283.648 -74.5068 285.159 -73.9053 286.416C-73.2892 287.659 -72.8185 288.611 -72.5029 289.248C-72.163 289.872 -71.988 290.19 -71.988 290.19C-68.1362 297.277 -62.9818 305.639 -55.5787 314.464C-48.161 323.228 -38.3955 332.515 -24.6843 339.368C-7.44159 348.129 13.2717 350.968 34.7359 349.322C56.2188 347.753 78.1125 342.37 99.5638 335.35C121.061 328.303 142.269 319.59 163.355 310.077C184.447 300.543 205.435 290.173 226.589 279.335C238.848 273.065 257.995 263.036 278.971 251.837C299.992 240.614 322.882 228.393 342.576 217.879C402.634 185.981 444.694 165.188 486.864 146.774C507.982 137.607 529.136 129.013 552.98 120.555C564.912 116.345 577.522 112.179 591.187 108.141C604.86 104.119 619.577 100.177 635.791 96.7111C648.5 93.9659 668.881 90.0516 691.843 87.8393C703.318 86.745 715.412 86.0658 727.383 85.981C739.351 85.8838 751.188 86.39 762.116 87.3603C791.412 90.039 821.154 96.7761 847.941 107.303C854.393 109.889 860.794 112.456 867.129 114.994C873.262 117.572 879.561 119.635 885.702 121.798C898.024 126.031 910.244 129.497 922.007 132.385C945.556 138.143 967.356 141.199 985.185 142.81C987.414 143.003 989.581 143.19 991.684 143.372C993.788 143.549 995.821 143.756 997.794 143.814C1001.74 144.002 1005.41 144.176 1008.77 144.336C1010.45 144.406 1012.05 144.521 1013.58 144.543C1015.11 144.56 1016.56 144.575 1017.92 144.59C1020.65 144.624 1023.05 144.655 1025.1 144.68C1026.45 144.694 1028 144.709 1029.7 144.726C1031.4 144.711 1033.26 144.637 1035.23 144.59C1039.18 144.467 1043.6 144.396 1048.22 144.203C1052.84 143.911 1057.66 143.605 1062.39 143.305C1067.13 142.98 1071.76 142.42 1076.05 142.03C1078.19 141.805 1080.29 141.646 1082.31 141.384C1084.32 141.116 1086.26 140.858 1088.11 140.613C1091.81 140.123 1095.15 139.681 1097.95 139.31C1103.54 138.391 1107.01 137.82 1107.06 137.811C1107.22 137.785 1108.39 137.589 1110.47 137.242C1112.54 136.9 1115.52 136.427 1119.25 135.642C1122.98 134.884 1127.5 134.022 1132.67 132.939C1137.8 131.73 1143.63 130.455 1149.94 128.901C1153.09 128.078 1156.37 127.22 1159.78 126.329C1161.48 125.882 1163.21 125.429 1164.97 124.967C1166.71 124.459 1168.49 123.942 1170.28 123.417C1173.88 122.366 1177.59 121.285 1181.38 120.176C1185.14 118.97 1188.99 117.734 1192.92 116.474C1208.57 111.289 1225.31 105.296 1241.97 98.3264C1258.65 91.4135 1275.38 83.7898 1291.32 75.9351C1307.23 68.0289 1322.33 59.8767 1335.97 52.1818C1363.18 36.6736 1384.4 22.8509 1394.61 16.083C1398.37 13.5651 1402.74 10.7081 1407.3 7.53577C1411.87 4.39388 1416.74 1.06158 1421.51 -2.35541C1423.9 -4.05408 1426.29 -5.75037 1428.65 -7.41956C1430.98 -9.11586 1433.26 -10.784 1435.48 -12.3977C1439.94 -15.6073 1444.02 -18.6804 1447.54 -21.3138C1455.69 -27.3787 1465.63 -35.0641 1476.27 -43.5096C1486.91 -51.9762 1498.17 -61.2789 1509.03 -70.5277C1519.9 -79.7691 1530.32 -89.0007 1539.36 -97.2227C1543.96 -101.436 1547.93 -105.076 1550.77 -107.675C1554.36 -111.049 1559.03 -115.407 1561.08 -117.401C1563.16 -119.382 1567.44 -123.485 1570.55 -126.544C1573.67 -129.603 1576.49 -132.374 1576.83 -132.711C1577.18 -133.039 1577.67 -133.503 1577.91 -133.738C1578.15 -133.98 1580.08 -135.905 1582.2 -138.028L1586.72 -142.601C1591.42 -147.296 1596.22 -152.215 1598.16 -154.228C1599.48 -155.599 1601.17 -157.352 1601.92 -158.136C1602.53 -158.771 1604.65 -161.012 1606.95 -163.424C1607.7 -163.372 1608.38 -163.292 1608.83 -163.148C1610.14 -162.732 1611.27 -162.921 1611.36 -163.541C1611.45 -164.175 1613.46 -164.747 1615.85 -164.845C1618.22 -164.933 1620.49 -165.374 1620.89 -165.816C1621.94 -166.973 1629.66 -164.982 1630.37 -163.34C1630.7 -162.572 1631.97 -161.98 1633.21 -162.036C1633.48 -162.05 1631.57 -159.509 1627.98 -155.19C1624.38 -150.868 1619.09 -144.755 1612.56 -137.533C1599.52 -123.078 1581.45 -104.235 1562.73 -86.005C1538.88 -63.5622 1514.04 -41.9831 1489.94 -22.4548C1465.87 -2.90085 1442.45 14.5073 1421.85 29.0046C1401.23 43.4917 1383.39 55.0127 1370.64 63.005C1364.32 67.0708 1359.15 70.1229 1355.66 72.3694C1352.17 74.6023 1350.21 75.8748 1350.07 76.1096Z" fill="#B1D136"/>
    </g>
    </svg>
    