<svg width="1027" height="684" viewBox="0 0 1027 684" fill="none" xmlns="http://www.w3.org/2000/svg">
<path fill-rule="evenodd" clip-rule="evenodd" d="M-2947.57 391.806C-2951.11 389.605 -2953.06 385.876 -2952.65 382.081C-2952.69 380.799 -2953.51 379.623 -2954.78 379.013C-2958.53 377.194 -2962.5 371.368 -2961.18 369.468C-2960.73 366.979 -2961.21 364.418 -2962.53 362.161C-2963.88 359.584 -2964.53 356.763 -2964.4 353.939C-2964.04 352.442 -2964.31 350.973 -2965.03 350.954C-2968.45 349.96 -2966.77 329.399 -2963.35 329.488C-2962.28 329.559 -2961.74 328.842 -2962.26 327.967C-2965.19 323.115 -2941.49 297.968 -2934.35 298.586C-2933.48 298.651 -2932.85 298.152 -2933.07 296.683C-2933.29 295.215 -2932.12 294.557 -2927.14 293.957C-2922.16 293.355 -2920.7 292.233 -2920.09 290.226C-2919.48 288.22 -2917.54 286.981 -2913.42 286.099C-2905.77 284.449 -2887.91 277.174 -2888.56 275.909C-2888.56 275.479 -2884.38 273.352 -2878.85 271.431C-2849.75 261.439 -2834.06 254.881 -2833.8 253.253C-2833.54 251.626 -2832.38 251.612 -2830.56 252.564C-2828.73 253.514 -2827.57 253.33 -2827.22 252.048C-2826.6 249.355 -2818.6 246.725 -2816.64 248.54C-2815.82 249.334 -2814.54 249.605 -2813.42 249.227C-2812.5 248.864 -2812.05 248.23 -2813.91 246.633C-2815.78 245.035 -2814.8 244.287 -2807.29 241.988L-2805.54 241.389L-2803.11 240.505C-2800.35 239.417 -2797.82 238.408 -2795.74 237.516C-2794.87 237.135 -2794.06 236.797 -2793.34 236.49C-2790.58 235.328 -2788.97 234.649 -2789.27 234.029C-2789.64 233.245 -2786.83 232.286 -2782.86 231.831C-2779.51 231.573 -2776.28 230.642 -2773.41 229.109C-2770.84 227.605 -2767.93 226.61 -2764.88 226.194C-2760.92 225.587 -2746.97 220.798 -2720.06 211.561C-2704.53 206.232 -2684.69 199.424 -2659.97 191.085C-2640.23 184.546 -2621.23 178.935 -2617.89 178.463C-2614.87 178.181 -2612.02 177.12 -2609.69 175.409C-2603.97 172.484 -2597.78 170.356 -2591.31 169.093C-2574.28 164.684 -2557.67 159.106 -2541.65 152.412C-2537.4 150.49 -2532.76 149.311 -2527.98 148.942C-2514.92 146.363 -2502.07 143.035 -2489.51 138.979L-2463.78 131.351L-2448.22 126.983C-2447.14 126.697 -2446.08 126.337 -2445.07 125.905C-2443.71 125.509 -2435.57 123.185 -2429.17 121.589L-2391.91 111.595C-2389.73 110.877 -2384.2 109.431 -2380.04 108.378C-2377.14 107.745 -2372.23 106.445 -2366.33 104.884C-2359.72 103.134 -2351.86 101.054 -2344.18 99.2085C-2343.63 98.9565 -2341.92 98.4214 -2339.59 97.6935C-2337.03 96.8931 -2333.71 95.8599 -2330.36 94.7096C-2329.88 94.5436 -2329.4 94.3791 -2328.93 94.216C-2323.11 92.2149 -2318.03 90.4716 -2317.32 90.4909L-2313.93 90.021C-2312.98 89.935 -2306.62 87.9843 -2298.9 85.6155C-2297.58 85.2094 -2296.22 84.7914 -2294.84 84.3689C-2285.38 81.4769 -2272.53 77.6836 -2266.28 75.9537C-2264.9 75.5713 -2263.14 75.0792 -2261.13 74.5129C-2254.05 72.5236 -2243.77 69.639 -2235.32 67.5163C-2209.83 60.6116 -2142.56 44.952 -2107.42 38.8173L-2051.9 28.0116C-2048.26 27.2691 -2043.24 26.3964 -2037.11 25.3287C-2034.42 24.8612 -2031.52 24.3561 -2028.42 23.8083C-2018.26 22.0096 -2006.02 20.1364 -1992.38 18.3858L-1948.56 12.6078L-1901.71 7.85547C-1886.14 6.11255 -1870.97 5.04751 -1856.47 4.09363C-1851.94 3.79553 -1847.56 3.48513 -1843.33 3.18585C-1834.04 2.5274 -1825.51 1.9229 -1817.81 1.62199C-1806.6 1.18426 -1797.37 0.909734 -1790.9 0.821239C-1787.55 0.595184 -1784.17 0.683678 -1780.82 1.08554L-1772.9 1.03484C-1771.49 1.01024 -1769.93 0.961319 -1768.25 0.9084C-1764.07 0.776769 -1759.13 0.621274 -1753.82 0.760316C-1738.86 0.851331 -1718.97 1.1143 -1709.56 1.36096C-1707.55 1.41343 -1705.15 1.45212 -1702.39 1.49674C-1695.39 1.60984 -1686.05 1.76074 -1674.8 2.2714L-1648.84 2.95179L-1634.36 3.33111L-1626.68 3.53227L-1618.63 4.04441C-1569.89 6.59535 -1521.29 11.3434 -1473 18.2706L-1443.42 22.5735L-1413.03 28.3171C-1409.53 29.0173 -1406.1 29.673 -1402.76 30.3117C-1396.65 31.4787 -1390.83 32.5894 -1385.48 33.8138L-1364.3 38.6707C-1341.96 43.7604 -1322.52 49.4309 -1304.62 54.6503C-1299.61 56.1113 -1294.72 57.5358 -1289.93 58.9025C-1281.7 61.4625 -1273.81 64.1129 -1266.08 66.7085C-1263.6 67.5415 -1261.13 68.3687 -1258.68 69.1854C-1257.01 69.7428 -1255.34 70.2957 -1253.67 70.8456C-1245.28 73.6206 -1237 76.3614 -1228.98 79.5143L-1199.24 90.6614C-1189.99 94.1612 -1180.75 98.0567 -1170.92 102.197C-1169.98 102.594 -1169.03 102.993 -1168.08 103.395L-1151.37 110.413L-1134.04 118.267C-1121.85 123.705 -1108.99 129.507 -1095.66 136.265C-1093.8 137.189 -1091.9 138.127 -1089.98 139.079C-1082.82 142.621 -1075.26 146.363 -1067.7 150.291L-1039.7 165.221C-1021.92 175.065 -1005.96 184.217 -996.045 190.069C-986.391 195.824 -976.908 201.511 -967.573 207.112C-943.841 221.346 -921.066 235.007 -898.85 247.724C-867.896 265.441 -837.413 282.157 -806.712 297.158C-796.788 302.01 -787.964 306.143 -780.167 309.795C-777.298 311.138 -774.569 312.418 -771.975 313.642C-765.216 316.833 -759.326 319.433 -754.276 321.661C-752.121 322.613 -750.118 323.496 -748.267 324.329C-742.075 327.116 -737.517 329.257 -734.495 330.712C-732.793 331.335 -731.183 332.144 -729.699 333.118C-729.366 333.425 -728.924 333.619 -728.451 333.668C-727.582 333.776 -715.963 338.512 -700.407 345.115C-694.903 347.159 -688.972 349.464 -682.852 351.844C-671.232 356.363 -658.927 361.148 -647.561 364.911C-625.701 373.098 -612.514 376.241 -611.246 375.413C-609.98 374.586 -609.506 375.2 -609.518 376.104C-609.53 377.007 -603.962 379.434 -586.417 385.312L-549.808 395.822C-544.931 397.189 -539.491 398.452 -533.651 399.808C-530.153 400.619 -526.506 401.462 -522.771 402.381L-521.956 402.582C-512.157 404.986 -501.351 407.639 -489.062 409.76C-462.633 414.842 -455.073 416.846 -455.384 418.3C-455.696 419.756 -455.607 419.929 -454.614 418.321C-453.62 416.713 -442.488 418.208 -399.367 424.458C-383.833 426.241 -370.58 427.793 -358.292 429.32C-352.17 430.168 -346.196 430.755 -340.252 431.254L-322.568 433.009L-304.291 434.95C-302.749 435.117 -301.193 435.294 -299.621 435.471C-294.759 436.026 -289.734 436.599 -284.368 436.934L-235.377 441.101C-226.646 441.974 -208.028 442.85 -194.465 443.42C-180.902 443.99 -163.736 445.043 -156.399 445.536C-149.061 446.03 -132.415 446.466 -119.385 446.807L-97.9504 447.369L-79.5996 447.505C-68.2153 447.588 -58.5061 447.843 -49.8789 448.07H-49.864L-34.7146 448.467L-17.905 448.347L40.0393 447.93C45.9685 447.913 58.0493 447.626 66.8396 447.385L83.071 446.906L97.5535 446.254L128.134 444.946L128.816 444.908C132.107 444.718 138.466 444.351 147.478 443.346L183.75 438.875C193.549 437.803 204.222 436.25 215.532 434.598C221.076 433.792 226.768 432.962 232.608 432.154C304.323 421.251 375.312 407.146 445.323 389.89C487.702 379.428 528.807 367.986 567.881 355.716C606.955 343.447 644.221 330.615 679.1 317.503L704.878 307.639L725.023 299.563C730.211 297.55 735.103 295.464 739.906 293.423C740.676 293.095 741.447 292.768 742.203 292.442C751.734 288.546 760.51 284.694 768.647 281.127C770.056 280.51 771.434 279.903 772.798 279.305C791.594 271.237 806.358 264.353 816.512 259.543C820.455 257.754 824.339 255.962 828.178 254.083L831.246 252.702C831.513 252.564 831.676 252.401 831.81 252.28C832.032 252.073 832.121 251.986 832.358 252.343C832.728 252.912 833.811 252.296 834.685 250.899C838.51 247.186 843.653 244.745 849.271 243.968C850.472 244.085 851.198 243.718 850.917 243.279C848.649 239.908 868.809 244.995 872.188 248.526C873.256 249.567 874.5 250.455 875.879 251.16C877.065 251.755 877.925 252.76 878.251 253.934C878.28 254.838 879.392 255.253 880.697 255.287C883.691 254.893 897.728 263.563 899.418 266.835C900.174 268.317 901.42 269.565 902.991 270.413C904.488 271.01 904.903 271.667 904.473 271.957C904.029 272.246 905.318 273.355 907.334 274.442C910.017 275.708 911.677 278.231 911.588 280.92C912.033 284.502 912.596 285.377 914.331 285.036C916.954 284.545 921.698 290.132 920.364 292.679C919.03 295.225 920.838 296.863 926.664 298.092C932.489 299.32 938.789 304.69 950.544 318.12C945.623 320.744 939.886 323.734 936.788 325.287C929.435 329.097 918.066 334.65 901.005 342.805L880.949 352.003L862.153 360.372L836.805 371.109L812.969 380.765L788.318 390.358C783.901 392.093 778.609 394.018 773.761 395.784L756.137 402.679C752.475 404.137 749.006 405.404 745.938 406.529C744.248 407.149 742.662 407.725 741.239 408.268C671.466 434.36 623.128 449.14 577.279 462.007C531.431 474.872 488.117 486.213 426.274 499.65C418.255 501.276 410.799 502.824 403.847 504.266C391.914 506.743 381.479 508.907 372.303 510.625L338.417 516.878C326.321 519.193 320.081 520.213 317.072 520.704C315.915 520.895 315.233 521.005 314.893 521.08C313.677 521.35 313.247 521.338 313.247 521.338L298.349 523.658L276.47 527.173C270.452 528.136 263.485 529.094 255.525 530.186C251.286 530.77 246.75 531.393 241.932 532.075C150.176 544.725 88.2888 548.866 47.8511 551.573C41.8328 551.976 36.2888 552.347 31.2043 552.709L-9.87109 554.645L-21.8926 555.147C-23.2266 555.119 -24.5457 555.169 -25.865 555.301C-26.4875 555.408 -30.5493 555.515 -37.8423 555.704C-40.6882 555.779 -44.0532 555.866 -47.8777 555.971L-72.8103 556.609C-74.4409 556.65 -76.116 556.696 -77.8206 556.742C-86.522 556.979 -96.0833 557.239 -106.608 557.144C-113.204 557.13 -119.978 557.151 -126.841 557.173C-140.33 557.216 -154.175 557.259 -167.827 557.044L-226.528 555.765L-290.312 552.589L-293.158 552.513C-294.211 552.624 -303.046 551.862 -321.16 550.3C-325.532 549.922 -330.454 549.496 -335.938 549.027L-360.056 546.975C-368.075 546.108 -376.821 545.012 -386.426 543.812L-389.702 543.403C-393.201 542.965 -396.802 542.538 -400.508 542.1C-408.335 541.173 -416.636 540.19 -425.367 538.939L-467.05 532.213C-534.244 520.674 -600.267 503.857 -664.333 481.959C-729.005 459.448 -791.41 431.899 -850.811 399.638C-856.822 396.627 -863.734 392.761 -871.454 388.443C-875.376 386.249 -879.508 383.938 -883.836 381.564C-893.193 376.43 -903.281 370.571 -913.866 364.423C-917.815 362.13 -921.833 359.797 -925.906 357.446C-942.619 347.541 -960.096 337.048 -977.178 326.793C-990.599 318.735 -1003.78 310.824 -1016.15 303.458C-1058.83 278.033 -1095.54 257.198 -1129.39 239.404C-1134.8 236.718 -1140.09 234.032 -1145.3 231.386C-1156.66 225.62 -1167.64 220.045 -1178.69 215.097L-1202.4 204.15L-1226.07 194.195C-1296.96 164.554 -1371.65 143.051 -1448.33 130.208C-1449.88 129.94 -1451.5 129.636 -1453.19 129.319C-1456.59 128.68 -1460.27 127.989 -1464.23 127.426L-1483.5 124.77C-1487.78 124.249 -1492.21 123.648 -1496.78 123.027C-1507.1 121.624 -1518.1 120.129 -1529.54 119.263L-1554.66 116.927L-1567.49 115.729C-1571.73 115.231 -1576.03 115.118 -1580.28 115.007L-1629.73 112.463C-1711.34 110.078 -1792.93 112.641 -1873.95 120.133L-1925.34 125.369L-1969.26 130.843L-1987.98 133.191L-2004.09 135.609L-2028.28 139.277C-2039.52 140.74 -2059.43 144.157 -2079.02 147.518C-2087.22 148.926 -2095.37 150.324 -2102.8 151.564L-2148.25 160.181C-2148.41 160.234 -2149.23 160.389 -2150.66 160.657C-2153.54 161.196 -2158.87 162.196 -2166.21 163.755L-2211.72 173.36C-2214.45 173.97 -2217.25 174.592 -2220.11 175.228C-2236.95 178.974 -2255.99 183.21 -2276.28 188.231C-2280.6 189.3 -2284.99 190.379 -2289.42 191.471C-2309.37 196.379 -2330.42 201.559 -2351.66 207.335C-2455.88 234.374 -2565.87 270.813 -2600.8 282.804C-2626.46 291.638 -2667.98 306.467 -2692.97 315.708C-2697.76 317.524 -2702.9 319.459 -2708.36 321.507C-2719.35 325.634 -2731.59 330.228 -2744.56 335.263L-2761.84 341.953L-2772.9 346.351C-2787.71 352.159 -2801.78 357.855 -2809.6 361.05L-2828.54 368.899L-2846.11 376.31L-2857.82 381.338L-2859.81 382.146L-2867.92 385.634L-2876.46 389.411L-2898.22 398.907L-2905.51 402.115L-2915.22 406.464C-2916.01 406.13 -2916.76 405.706 -2917.43 405.201C-2918.81 404.046 -2920.35 403.705 -2920.89 404.466C-2921.43 405.226 -2924.33 405.02 -2927.4 403.951C-2929.61 403.029 -2932.03 402.611 -2934.44 402.734C-2936.53 403.711 -2944.89 397.34 -2944.86 394.89C-2944.97 393.473 -2946.05 392.25 -2947.57 391.806ZM939.308 340.023C937.603 340.86 935.898 341.708 934.253 342.527L934.238 342.534C928.798 345.232 924.01 347.608 922.484 348.196C921.594 348.543 919.252 349.689 916.094 351.232L916.08 351.238C912.255 353.106 907.26 355.553 902.176 357.872C898.485 359.532 894.823 361.244 891.132 362.963C888.939 363.983 886.744 365.006 884.551 366.023L875.36 370.089C869.89 372.579 863.22 375.394 856.624 378.178L856.609 378.182C852.962 379.723 849.331 381.252 845.936 382.712L827.348 390.28C826.221 390.767 815.593 395.097 803.512 399.691L786.673 406.098L780.61 408.308L774.829 410.568C757.011 417.768 711.4 434.748 664.855 449.937C652.967 453.932 640.219 457.905 629.413 461.197C625.484 462.392 621.808 463.53 618.488 464.555C612.677 466.351 608.008 467.797 605.162 468.573L604.85 468.665C578.51 476.355 512.724 495.566 424.377 514.442C379.922 523.873 329.775 533.111 276.263 541.398C222.751 549.688 165.8 556.379 107.93 561.279C-3.823 570.658 -116.272 573.467 -228.707 569.687C-307.344 567.477 -385.789 559.879 -463.329 546.959C-497.067 541.768 -548.326 530.518 -577.104 523.089C-584.373 521.435 -591.299 519.444 -597.744 517.552L-615.299 512.527L-633.865 507.216C-636.508 506.328 -639.633 505.342 -640.931 504.964C-642.23 504.585 -645.164 503.647 -647.566 502.809C-647.928 502.682 -648.83 502.393 -650.193 501.954C-657.873 499.483 -680.272 492.276 -704.415 482.756C-717.01 478.287 -730.328 472.715 -742.458 467.638L-745.353 466.427C-746.12 466.107 -746.882 465.788 -747.638 465.474C-761.082 459.866 -772.31 454.705 -778.499 451.744C-781.154 450.52 -783.835 449.304 -786.538 448.08C-791.8 445.698 -797.136 443.28 -802.493 440.692L-827.05 428.506C-835.445 424.453 -843.786 420.014 -852.273 415.485C-854.776 414.148 -857.302 412.81 -859.84 411.467L-859.844 411.465L-859.864 411.455C-865.913 408.251 -872.025 405.014 -878.064 401.673C-912.814 382.672 -948.594 361.321 -985.38 339.297C-991.517 335.622 -997.679 331.921 -1003.87 328.203L-1003.87 328.201C-1034.78 309.635 -1066.37 290.663 -1098.87 272.623C-1137.74 250.748 -1177.84 230.706 -1219.01 212.581L-1237.06 205.002L-1237.63 204.762C-1243.34 202.321 -1248.92 199.937 -1254.55 197.954L-1287.93 185.493C-1292.3 184.075 -1296.59 182.662 -1300.82 181.27C-1317.68 175.722 -1333.5 170.516 -1348.81 166.671C-1352.14 165.777 -1355.41 164.849 -1358.63 163.934C-1364.69 162.21 -1370.59 160.535 -1376.47 159.228L-1402.61 153.202L-1415.07 150.334C-1417.67 149.719 -1420.27 149.259 -1422.86 148.803C-1424.35 148.54 -1425.83 148.279 -1427.3 147.989L-1450.86 143.668C-1462.22 141.384 -1473.35 139.891 -1484.26 138.429H-1484.26C-1488.01 137.927 -1491.73 137.427 -1495.43 136.901L-1516.87 133.928L-1538.28 131.903L-1559.69 129.921L-1570.54 128.904C-1574.16 128.809 -1577.83 128.713 -1581.49 128.272L-1627.28 125.867H-1627.28C-1636.16 125.634 -1647.46 125.337 -1660.3 125.26C-1664.42 125.235 -1668.7 125.152 -1673.11 125.068C-1682.43 124.888 -1692.33 124.697 -1702.49 125.016L-1748.42 125.751L-1792.53 127.739C-1806.11 128.227 -1820.06 129.325 -1833.76 130.403L-1834.62 130.469C-1838.9 130.807 -1843.17 131.116 -1847.39 131.422H-1847.39C-1856.91 132.113 -1866.18 132.785 -1874.93 133.72C-1884.87 134.755 -1894.16 135.69 -1902.44 136.523H-1902.44H-1902.44C-1915.08 137.796 -1925.32 138.827 -1931.78 139.596C-1938.15 140.389 -1944.29 141.142 -1950.21 141.868L-1950.21 141.87C-1974.55 144.857 -1995.2 147.39 -2012.75 150.395L-2042.21 154.791L-2065.68 158.742L-2098.73 164.379C-2104.14 165.319 -2108.75 166.211 -2112.9 167.016L-2112.91 167.018C-2115.37 167.495 -2117.67 167.941 -2119.89 168.347C-2122.95 168.939 -2126.61 169.635 -2130.65 170.406L-2130.7 170.415L-2130.71 170.417C-2145.85 173.301 -2166.42 177.219 -2181.61 180.556C-2191.29 182.626 -2203.35 185.154 -2215.07 187.603L-2246.01 194.718L-2267.71 199.704L-2298.37 207.3C-2316.72 211.683 -2337.57 217.245 -2359.18 223.011L-2359.19 223.012L-2359.2 223.017C-2364.57 224.447 -2369.98 225.891 -2375.41 227.333C-2429.92 242.228 -2485.68 259.372 -2513.94 268.28L-2559.57 283.063C-2571.71 287.209 -2583.4 291.158 -2592.84 294.345L-2592.84 294.348L-2592.91 294.37C-2595.55 295.263 -2598.02 296.096 -2600.27 296.856C-2639.07 310.31 -2678.61 324.263 -2740.05 348.063L-2758.25 355.123L-2769.32 359.529C-2774.43 361.579 -2779.2 363.522 -2784.29 365.596L-2784.3 365.602L-2784.31 365.603C-2789.85 367.861 -2795.78 370.276 -2802.96 373.16C-2804.17 373.672 -2805.69 374.311 -2807.39 375.025C-2811.9 376.914 -2817.66 379.327 -2822.14 381.272L-2839.52 388.612C-2853.73 394.614 -2867.94 400.732 -2882.16 406.963L-2910.09 419.496C-2911.09 420.974 -2911.97 422.52 -2912.7 424.123C-2913.81 427.147 -2915.7 429.885 -2918.22 432.117C-2919.63 432.769 -2920.68 435.929 -2920.49 439.165C-2920.48 444.48 -2918.1 449.611 -2913.87 453.422L-2898.62 446.586L-2891.87 443.618L-2871.37 434.809L-2863.31 431.316L-2855.69 428.027L-2853.8 427.259L-2842.73 422.596L-2826.12 415.709L-2808.21 408.426L-2773.55 394.691C-2768.88 392.905 -2764.19 391.095 -2759.64 389.335C-2750.41 385.773 -2741.71 382.414 -2734.73 379.859C-2711.24 370.784 -2672.27 356.213 -2648.02 347.675C-2631.57 341.732 -2597.57 329.873 -2555.52 315.987C-2513.48 302.101 -2463.39 286.573 -2414.49 272.694C-2365.59 258.815 -2318.84 246.473 -2283.67 238.178L-2259.74 232.344L-2241.2 228.135L-2224.39 224.269L-2211.9 221.496C-2207.14 220.355 -2201.22 219.144 -2194.58 217.787L-2194.58 217.786C-2190.6 216.972 -2186.36 216.108 -2181.97 215.174C-2170.26 212.681 -2156.7 209.849 -2144.07 207.552L-2112.56 201.66C-2110.48 201.285 -2108.15 200.844 -2105.57 200.36C-2101.17 199.529 -2096.04 198.566 -2090.24 197.549L-2057.78 192.155L-2038.42 188.914L-2016.99 185.773C-2011.69 185.052 -2006.25 184.245 -2000.68 183.421L-2000.67 183.419C-1990.63 181.931 -1980.15 180.379 -1969.3 179.14C-1894.38 169.219 -1818.83 163.088 -1743 160.778L-1697.36 160.079C-1691.18 159.904 -1684.97 160.019 -1678.78 160.137C-1677.08 160.168 -1675.39 160.2 -1673.7 160.226L-1650.49 160.575L-1628.28 161.158L-1608.02 162.204L-1575.45 163.919L-1543.82 166.816L-1528.82 168.199L-1521.54 168.908L-1514.41 169.87L-1487.03 173.601L-1473.88 175.41C-1471.19 175.777 -1468.55 176.278 -1465.92 176.776L-1465.91 176.777C-1464.34 177.074 -1462.78 177.37 -1461.21 177.637C-1429.7 182.953 -1398.51 189.765 -1367.77 198.046L-1345.25 204.32C-1340.03 205.634 -1334.92 207.347 -1329.75 209.079L-1329.75 209.08C-1327.36 209.882 -1324.95 210.69 -1322.51 211.462C-1314.82 213.904 -1307.08 216.432 -1299.15 219.138L-1275.13 228.167L-1262.59 232.802L-1249.92 238.129C-1246.99 239.38 -1244.02 240.618 -1241.02 241.869C-1235.22 244.287 -1229.3 246.753 -1223.32 249.465L-1195.15 262.521C-1189.1 265.397 -1182.89 268.535 -1176.53 271.748L-1176.53 271.75C-1172.82 273.629 -1169.05 275.536 -1165.22 277.432C-1116.58 302.029 -1055.56 338.643 -1019.16 360.486L-1019.15 360.489L-1019.12 360.507C-1014.73 363.14 -1010.71 365.557 -1007.1 367.713C-949.622 402.081 -892.37 435.323 -832.362 464.761C-772.068 494.554 -709.037 519.582 -644.001 539.554L-603.501 551.038C-598.75 552.449 -594.081 553.631 -589.561 554.774L-589.538 554.779C-588.165 555.128 -586.804 555.472 -585.46 555.817L-568.809 559.828C-564.381 560.859 -560.137 561.869 -556.067 562.839C-550.357 564.198 -544.991 565.477 -539.936 566.614L-516.486 571.278C-511.683 572.213 -507.31 573.095 -503.367 573.891L-503.352 573.894C-495.956 575.385 -490.056 576.577 -485.653 577.255L-474.536 579.01L-471.734 579.471L-452.894 582.462L-433.624 585.508C-428.688 586.273 -423.381 586.893 -417.763 587.546C-415.006 587.868 -412.174 588.199 -409.284 588.557C-374.242 593.224 -329.92 596.968 -291.483 599.398L-233.969 602.153L-212.431 602.716C-211.126 602.663 -209.822 602.697 -208.532 602.819L-196.792 603.127C-188.684 603.339 -175.891 603.674 -156.592 603.836C-150.559 603.778 -143.903 603.754 -136.55 603.729C-96.824 603.587 -37.0864 603.375 50.771 597.425C60.8657 596.655 69.6414 596.028 77.2458 595.484L77.2754 595.483L77.29 595.481C90.2307 594.555 99.7473 593.874 106.536 593.157L121.049 591.815L122.635 591.857C123.213 591.872 124.858 591.691 128.401 591.301C132.003 590.905 137.547 590.295 145.937 589.453L147.034 589.346C155.246 588.547 165.904 587.511 179.793 585.73C184.655 585.108 189.858 584.513 195.447 583.875L195.461 583.873C206.549 582.607 219.149 581.169 233.512 578.998L276.619 572.849L315.189 566.021C331.88 563.488 347.711 560.461 363.512 557.443C370.628 556.085 377.728 554.728 384.888 553.419C430.781 544.07 479.534 533.934 550.523 514.69C553.384 513.892 556.779 512.972 560.558 511.946L560.588 511.937L560.618 511.931C567.644 510.025 575.989 507.759 584.735 505.249L624.921 493.381L663.18 481.464L692.901 471.517C698.104 469.839 705.885 467.087 714.854 463.914C717.166 463.096 719.553 462.248 722.014 461.384C733.946 457.174 746.902 452.388 758.301 448.079C759.427 447.653 760.539 447.234 761.651 446.816L763.83 446L763.845 445.99C768.603 444.21 773.228 442.471 777.719 440.663L793.64 434.404C794.588 434.042 795.507 433.688 796.426 433.341V433.34C799.584 432.141 802.548 431.016 805.335 429.886L824.16 422.326C826.547 421.413 829.957 420.026 833.544 418.564C837.235 417.056 841.133 415.469 844.305 414.24C861.545 407.155 872.959 402.07 880.445 398.692L897.106 391.117C909.824 385.335 922.409 379.333 934.994 373.073C935.424 372.859 936.017 372.561 936.773 372.181L936.788 372.176C942.895 369.114 959.512 360.77 980.264 349.064C978.441 348.354 976.455 348.05 974.483 348.18C973.624 348.158 973.061 347.022 973.327 345.35C973.95 341.061 968.643 333.901 963.173 331.044C962.24 330.518 961.35 329.903 960.549 329.209L958.415 330.36C955.88 331.514 950.292 334.386 944.526 337.343C942.777 338.243 941.012 339.153 939.308 340.023ZM1016.15 379.03C1011.76 381.716 1007.44 380.483 1009.07 377.683C1011.93 372.932 1005.52 360.359 999.653 359.73C998.038 359.559 996.496 358.98 995.221 358.064C986.372 363.217 976.93 368.269 966.034 374.013C945.46 384.804 924.855 394.774 904.058 404.308C903.169 404.71 901.879 405.299 900.338 406.009C896.217 407.897 890.243 410.638 884.921 412.94L867.963 420.335L847.611 428.934C840.733 431.982 834.566 434.323 831.661 435.425C830.683 435.793 830.09 436.024 829.942 436.095L820.766 439.689L775.036 457.531C770.5 459.221 766.127 460.865 761.992 462.428C754.091 465.401 746.976 468.077 741.062 470.21L723.881 476.566C720.813 477.691 691.567 487.996 658.392 498.541C631.221 507.179 604.48 514.96 592.339 518.495L592.325 518.498C589.642 519.278 587.685 519.851 586.573 520.18L541.599 532.097C535.596 533.572 529.267 535.174 522.715 536.834L522.7 536.837C507.654 540.65 491.408 544.766 474.984 548.358C471.219 549.212 467.394 550.104 463.584 550.992C455.165 552.953 446.805 554.903 439.274 556.425L414.816 561.514C388.579 567.115 322.333 580.628 233.942 592.441C130.446 606.19 25.9868 614.157 -78.8435 616.295C-88.4785 616.686 -98.1433 616.699 -107.823 616.711C-112.389 616.719 -116.969 616.724 -121.534 616.77C-135.78 616.914 -150.04 616.972 -164.226 616.815L-206.724 616.003L-227.817 615.45C-232.531 615.327 -237.275 615.086 -241.989 614.848C-244.316 614.729 -246.643 614.612 -248.955 614.508L-290.698 612.467L-301.029 612.196L-311.258 611.369L-331.61 609.672C-336.19 609.274 -340.726 608.902 -345.248 608.532H-345.262C-354.067 607.811 -362.783 607.098 -371.41 606.218L-409.98 601.631L-428.643 599.377C-432.897 598.815 -437.137 598.13 -441.317 597.453L-441.332 597.451C-443.17 597.155 -444.993 596.858 -446.816 596.574L-481.844 591.003L-490.278 589.663L-498.564 588.024L-514.707 584.801L-545.332 578.657L-598.577 565.846L-639.952 554.123C-646.118 552.485 -652.787 550.309 -659.782 548.025L-659.8 548.019C-662.189 547.239 -664.618 546.446 -667.077 545.659L-696.888 535.875L-725.433 525.262C-734.468 521.967 -742.733 518.907 -749.456 516.018C-753.784 514.223 -758.049 512.474 -762.167 510.784C-771.022 507.152 -779.191 503.801 -785.811 500.892L-803.285 492.983C-805.781 491.84 -808.758 490.513 -810.006 490.006C-811.255 489.501 -814.039 488.264 -816.295 487.171C-816.54 487.052 -817.047 486.809 -817.791 486.455L-817.795 486.452L-817.801 486.449C-823.901 483.528 -845.809 473.042 -869.646 460.833C-896.409 447.122 -927.184 429.818 -938.59 423.315C-967.586 406.704 -998.682 388.228 -1031.07 368.813C-1063.46 349.399 -1097.28 329.343 -1132.33 309.902C-1167.59 290.363 -1203.91 272.405 -1241.14 256.092C-1278.46 239.866 -1317.01 226.072 -1356.49 214.818L-1373.62 210.061C-1375.03 209.677 -1376.44 209.286 -1377.83 208.896C-1381.99 207.737 -1386.06 206.6 -1390.17 205.751L-1421.71 198.505C-1425.55 197.478 -1429.66 196.744 -1433.66 196.031C-1434.68 195.85 -1435.69 195.669 -1436.69 195.486L-1451.14 192.823L-1465.11 190.303C-1469.64 189.41 -1474.12 188.603 -1478.6 188.055L-1504.49 184.534C-1507.13 184.193 -1509.72 183.818 -1512.29 183.448C-1517.84 182.646 -1523.25 181.866 -1528.6 181.489L-1573.36 177.302C-1581.35 176.924 -1589.13 176.494 -1596.77 176.072H-1596.78C-1616.47 174.984 -1635.25 173.946 -1654.35 173.974C-1667.58 173.627 -1680.8 173.28 -1694.47 173.525L-1736.89 174.18C-1742.63 174.03 -1749.45 174.394 -1757.07 174.798C-1760.41 174.976 -1763.9 175.161 -1767.52 175.316C-1770.14 175.428 -1772.83 175.538 -1775.58 175.651C-1785.33 176.048 -1795.84 176.476 -1806.66 177.134C-1811.11 177.452 -1815.61 177.767 -1820.16 178.086C-1844 179.757 -1868.76 181.492 -1890.25 183.86C-1894.27 184.303 -1898.33 184.749 -1902.42 185.198C-1924.4 187.612 -1947.11 190.105 -1966.77 192.496C-1979.91 194.095 -1991.88 195.834 -2001.61 197.248H-2001.61H-2001.61C-2009.13 198.341 -2015.3 199.239 -2019.65 199.725C-2031.04 201.262 -2041.63 203.062 -2051.42 204.725C-2054.73 205.288 -2057.95 205.834 -2061.07 206.351C-2064.57 206.928 -2067.99 207.472 -2071.32 208.002C-2079.8 209.354 -2087.73 210.616 -2094.96 212.097L-2144.34 221.314L-2195.24 232.084L-2252.93 244.96C-2259.13 246.478 -2266.43 248.227 -2273.94 250.028L-2273.94 250.029C-2288.21 253.451 -2303.27 257.06 -2313.1 259.623C-2316.56 260.538 -2320.9 261.663 -2325.97 262.979L-2325.98 262.98C-2335.69 265.497 -2348.07 268.707 -2362.1 272.469C-2383.48 278.198 -2408.73 285.246 -2434.23 292.849C-2485.33 307.793 -2537.67 324.601 -2564.15 333.513C-2576.82 337.746 -2592.29 342.942 -2606.94 348.113C-2611.04 349.56 -2615.09 350.982 -2619 352.356C-2629.07 355.896 -2638.26 359.123 -2645.18 361.672C-2663.08 368.024 -2681.07 374.748 -2701.75 382.474L-2701.75 382.477L-2702.79 382.864L-2745.51 399.191L-2767.59 407.744L-2799.39 420.438L-2817.51 427.845L-2833.92 434.652C-2837.17 435.989 -2855.39 443.566 -2874.14 451.691L-2896.87 461.778C-2891 462.304 -2885.09 461.965 -2879.38 460.772C-2877.63 460 -2875.95 460.862 -2874.81 462.657C-2873.32 464.752 -2871.15 466.4 -2868.6 467.386C-2865.38 468.591 -2864.62 469.386 -2865.79 470.475C-2866.67 471.785 -2866.69 473.426 -2865.85 474.781C-2864.95 476.312 -2864.92 477.865 -2865.89 478.226C-2866.87 478.588 -2866.83 479.925 -2866.17 481.105C-2865.51 482.285 -2865.53 483.534 -2866.21 483.903C-2869.27 485.288 -2869.64 491.481 -2866.91 496.076C-2865.53 497.98 -2864.86 500.216 -2865.01 502.458C-2866 504.069 -2861.06 510.144 -2857.46 511.746C-2851.45 510.824 -2845.67 508.993 -2840.38 506.334C-2830.67 502.281 -2824.56 500.46 -2823.22 501.227C-2819.53 501.395 -2815.89 500.575 -2812.76 498.873C-2809.08 497.067 -2804.93 496.139 -2800.7 496.174C-2798.22 496.585 -2795.69 495.97 -2793.82 494.502C-2792.01 493.128 -2789.88 492.366 -2788.96 492.82C-2784.75 492.19 -2780.73 490.832 -2777.13 488.823C-2772.3 486.56 -2767.21 484.772 -2761.94 483.491C-2759.28 483.174 -2756.8 482.033 -2756.4 480.923C-2756 479.814 -2753.86 478.878 -2751.2 478.733C-2748.18 478.391 -2745.34 477.301 -2743 475.588C-2740.36 473.46 -2739.01 473.151 -2738.16 474.465C-2736.88 476.868 -2725.38 472.776 -2725.05 469.812C-2725.03 468.219 -2723.68 467.995 -2720.55 468.939C-2717.42 469.882 -2716.12 469.744 -2715.32 467.697C-2714.52 465.652 -2713.74 465.413 -2711.68 466.673C-2709.62 467.933 -2708.95 467.779 -2708.68 465.89C-2708.33 464.426 -2706.9 463.379 -2705.22 463.354C-2703.53 463.397 -2702.45 462.607 -2702.83 461.866C-2703.21 461.123 -2700.87 459.418 -2697.61 458.167L-2652.21 439.542C-2624.14 427.829 -2560.66 404.206 -2511.47 388.178L-2471.36 374.97L-2432.56 362.763L-2386.79 348.886C-2380.99 347.134 -2375.33 345.542 -2369.94 344.024C-2367.04 343.207 -2364.21 342.411 -2361.48 341.622C-2358.38 340.757 -2355.57 340.011 -2353.14 339.428C-2350.53 338.552 -2347.77 338.072 -2344.96 338.005C-2344.44 338.624 -2343.77 338.684 -2343.47 338.046C-2342.03 337.37 -2340.51 336.818 -2338.95 336.397C-2336.14 335.438 -2332.07 334.08 -2327.02 332.617L-2287.99 321.234L-2223.38 303.586L-2197.25 296.044L-2168.46 287.752C-2164.3 286.566 -2160.42 285.45 -2156.75 284.393L-2156.75 284.391C-2142.23 280.21 -2130.92 276.95 -2118.05 273.953L-2082.87 265.484C-2072.23 263.043 -2062.79 260.966 -2054.2 259.077L-2054.19 259.075H-2054.19C-2049.17 257.972 -2044.45 256.934 -2039.96 255.925L-2022.62 252.072L-2006.49 249.005C-2000.71 247.923 -1994.94 246.793 -1989.15 245.664L-1989.14 245.661L-1989.14 245.659C-1979.37 243.752 -1969.59 241.839 -1959.77 240.15C-1952.12 238.842 -1940.8 237.157 -1927.69 235.304C-1914.58 233.45 -1899.73 231.729 -1885.07 230.26C-1855.81 226.935 -1827.49 225.393 -1815.99 225.178L-1799.52 224.791L-1781.84 224.695L-1749.44 224.51C-1744.93 224.44 -1739.72 224.526 -1731.73 224.655H-1731.73H-1731.72C-1728.65 224.705 -1725.18 224.762 -1721.19 224.819L-1693.86 225.147L-1675.13 225.638L-1652.35 226.579L-1640.66 226.886C-1635.84 227.012 -1629.8 227.17 -1623.58 227.677L-1582.76 230.298C-1578.25 230.417 -1573.57 230.968 -1568.77 231.534C-1566.28 231.829 -1563.75 232.127 -1561.2 232.37L-1538.87 234.764L-1528.26 235.904L-1518.62 237.406L-1502.86 239.887C-1499.94 240.363 -1497.06 240.812 -1494.23 241.255H-1494.23C-1489.74 241.957 -1485.37 242.64 -1481.08 243.387L-1460.85 247.492L-1440.67 251.424L-1419.97 256.274C-1417.46 256.885 -1414.93 257.481 -1412.36 258.087C-1407.6 259.206 -1402.68 260.366 -1397.44 261.732L-1372.38 268.85C-1365.21 270.684 -1357.8 273.155 -1349.91 275.786C-1347.89 276.459 -1345.84 277.141 -1343.76 277.827L-1327.8 283.027C-1324.01 284.376 -1320.13 285.851 -1316.15 287.368C-1314.37 288.045 -1312.56 288.731 -1310.74 289.419C-1270.24 304.741 -1230.94 322.554 -1193.13 342.727C-1155.34 362.671 -1119.36 384.247 -1088.32 402.937C-1082.23 406.628 -1065.75 416.149 -1051.32 424.324C-1041.71 429.481 -1032.48 435.191 -1023.68 441.419C-1023.08 442.619 -1021.61 443.288 -1020.18 443.018C-1018.67 442.721 -1017.09 442.997 -1015.8 443.778C-1014.5 444.545 -1001.94 451.464 -987.025 459.178C-984.527 460.49 -981.742 461.959 -978.734 463.544L-978.714 463.556C-972.891 466.625 -966.242 470.131 -959.258 473.776L-929.229 488.994C-923.694 491.675 -917.268 494.868 -910.021 498.47L-910.012 498.475L-910.01 498.476C-884.647 511.079 -849.209 528.69 -806.565 546.957C-745.987 572.991 -683.307 594.796 -619.093 612.177C-558.267 628.165 -496.474 640.86 -434.053 650.194C-422.788 651.647 -412.1 653.123 -402.11 654.503C-388.68 656.36 -376.495 658.043 -365.837 659.261C-362.842 659.604 -359.967 659.93 -357.224 660.243C-342.935 661.869 -332.069 663.105 -325.443 664.11C-320.033 664.899 -303.594 667.138 -288.978 668.124L-248.362 671.557L-232.116 673.06L-220.91 673.913C-217.159 674.27 -197.459 675.26 -177.092 676.096C-170.837 676.351 -164.789 676.578 -159.349 676.782H-159.334C-147.06 677.243 -137.899 677.586 -136.595 677.888C-131.777 678.703 -83.1868 681.312 -53.5254 680.884C-48.2039 680.623 -42.8376 681.01 -37.605 682.033C-27.3474 683.176 -17.001 683.447 -6.71362 682.842C9.42896 682.274 25.5125 681.877 28.9958 682.012C32.4646 682.145 45.9387 682.24 58.835 681.717C71.7461 681.194 87.0586 680.776 92.6616 680.708C99.762 680.592 106.477 680.466 113.429 680.218C120.144 679.978 127.185 679.465 135.101 678.889L135.96 678.827L164.525 676.517C175.494 675.684 188.168 674.294 203.214 672.534L236.062 668.828C242.777 668.078 249.225 667.174 255.406 666.307C258.712 665.844 261.929 665.392 265.086 664.98L290.82 661.347C300.321 660.047 309.585 658.501 318.672 656.986C325.002 655.929 331.243 654.887 337.424 653.952L359.555 650.224L380.856 646.217C407.39 641.405 432.204 636.124 455.58 631.146L455.639 631.134C460.042 630.196 464.385 629.269 468.699 628.358C495.87 622.608 520.669 616.452 543.6 610.462C587.181 599.601 623.691 588.941 654.834 579.849L659.934 578.36C709.622 563.284 744.323 551.434 769.344 542.89V542.887L769.389 542.876C776.519 540.438 782.878 538.268 788.57 536.37C803.615 530.881 818.987 526.108 834.626 522.07C835.708 521.851 836.834 521.566 838.035 521.266L838.05 521.261C838.51 521.144 838.984 521.024 839.473 520.905C839.725 520.822 839.962 520.75 840.214 520.687C840.422 520.636 840.629 520.59 840.837 520.553L841.697 520.576C842.586 520.406 843.372 520.007 843.994 519.429C850.294 514.877 857.143 510.968 864.421 507.773C867.623 506.079 870.335 503.767 872.396 501.005C873.567 498.771 875.924 497.221 878.681 496.862C888.672 496.693 898.054 491.985 892.333 489.983C889.22 488.866 902.087 482.915 905.407 483.82C908.727 484.726 916.272 480.358 922.869 474.328C925.611 471.659 928.917 469.519 932.623 468.035C939.975 464.578 946.438 459.79 951.596 453.972C954.991 450.926 958.786 448.251 962.907 445.997C966.701 443.981 970.022 441.318 972.66 438.156C975.491 435.076 979.034 432.584 983.051 430.847C987.913 428.303 992.257 425.186 992.316 423.982C995.458 419.775 999.327 416.04 1003.76 412.909C1008.25 409.922 1011.99 406.154 1014.77 401.826C1014.79 400.835 1016.08 398.974 1018.36 397.611C1021 395.824 1023.07 393.462 1024.39 390.748C1025.12 389.401 1025.64 387.964 1025.91 386.48C1026.38 385.323 1026.39 384.045 1025.95 382.864C1024.63 380.158 1023.21 378.483 1021.47 378.094C1020.6 377.84 1019.65 377.816 1018.78 378.022C1017.81 378.172 1016.92 378.517 1016.15 379.03Z" fill="#F0F2F9"/>
</svg>
