<svg width="1440" height="593" viewBox="0 0 1440 593" fill="none" xmlns="http://www.w3.org/2000/svg">
<path d="M0 0H1440V593H0V0Z" fill="#77B341"/>
<path fill-rule="evenodd" clip-rule="evenodd" d="M1440 553.957C1418.89 564.016 1396.47 575.657 1365.98 593H1266.88C1281.67 583.676 1289.35 579.129 1295.16 575.692C1297.54 574.318 1299.6 573.13 1301.72 571.913C1307.56 568.555 1313.8 564.971 1328.02 556.612C1350.87 543.248 1366.79 533.114 1377.01 526.254C1387.24 519.404 1391.72 515.742 1391.72 515.742C1359.79 535.615 1333.97 550.077 1306.6 565.407C1305.21 566.188 1303.81 566.971 1302.41 567.757C1288.63 575.51 1274.42 583.612 1258.9 593H1169.13L1204.31 571.162C1273.79 528.257 1322.44 500.288 1371.22 475.52C1393.35 464.35 1415.52 453.813 1440 443.471V553.957ZM700.735 593H588.611C587.65 587.261 586.732 581.422 586.023 576.359C585.25 571.47 584.591 566.145 583.958 561.023C583.766 559.471 583.577 557.939 583.387 556.442C582.691 550.049 582.155 544.388 581.865 540.977C581.752 539.6 581.609 537.871 581.445 535.889C581.205 532.994 580.921 529.558 580.618 525.893C580.358 523.011 580.085 519.977 579.813 516.965C579.545 514.194 579.28 511.445 579.032 508.874C578.444 502.803 577.902 497.189 577.398 491.968C577.096 489.031 576.763 486.237 576.443 483.558C576.196 481.488 575.958 479.486 575.748 477.539C575.303 473.695 574.928 470.081 574.575 466.677C574.11 462.191 573.683 458.071 573.184 454.272C572.972 452.573 572.707 450.447 572.413 448.096C572.193 446.328 571.957 444.434 571.715 442.499C571.608 441.682 571.502 440.857 571.395 440.031C570.915 436.3 570.432 432.549 569.857 429.46C569.086 424.971 568.408 420.789 567.778 416.911C567.1 412.73 566.479 408.902 565.861 405.422C564.583 398.76 563.577 393.254 562.794 388.683C561.834 384.515 560.79 380.731 559.845 377.306C559.403 375.705 558.983 374.182 558.603 372.735C557.391 368.203 556.449 364.489 555.839 361.816C554.908 357.84 553.525 353.068 552.077 348.07C551.596 346.41 551.108 344.725 550.626 343.036C550.36 342.127 550.093 341.218 549.828 340.314C549.601 339.54 549.375 338.769 549.151 338.004C548.797 336.89 548.421 335.804 548.052 334.738C547.88 334.238 547.708 333.743 547.541 333.251C546.464 330.181 545.458 327.314 544.595 324.85C544.185 323.752 543.779 322.587 543.358 321.376C542.697 319.479 541.997 317.47 541.182 315.433C539.867 312.084 538.461 308.495 536.997 304.763C536.276 302.89 535.541 300.982 534.795 299.048C534.329 297.83 533.808 296.644 533.283 295.452C532.974 294.749 532.663 294.043 532.363 293.327C531.556 291.44 530.744 289.54 529.931 287.639C529.091 285.674 528.25 283.707 527.414 281.751C526.408 279.419 525.329 277.174 524.267 274.963C523.582 273.536 522.903 272.123 522.256 270.711C521.672 269.502 521.114 268.291 520.564 267.1C519.502 264.797 518.473 262.566 517.356 260.554C515.744 257.425 514.241 254.509 512.894 251.892C512.454 251.02 512.032 250.182 511.628 249.379C511.422 248.969 511.22 248.568 511.023 248.176C510.663 247.459 510.291 246.804 509.938 246.184C509.723 245.805 509.515 245.438 509.322 245.079C508.445 243.493 507.503 241.791 506.551 240.072C505.593 238.34 504.624 236.59 503.703 234.925C502.814 233.228 501.87 231.724 501.034 230.395L500.073 228.842C499.643 228.146 499.26 227.526 498.934 227.001C497.826 225.22 496.172 222.454 494.4 219.421C492.516 216.512 490.484 213.374 488.762 210.711C487.901 209.37 487.06 208.058 486.278 206.835C485.744 205.998 485.186 205.263 484.671 204.583C484.431 204.268 484.201 203.964 483.987 203.668C482.606 201.833 481.618 200.575 481.349 200.354C480.823 199.909 480.077 199.282 479.7 198.964C479.521 198.796 478.86 197.909 477.94 196.607C477.748 196.342 477.549 196.054 477.341 195.752C477.043 195.322 476.726 194.862 476.38 194.4C475.964 193.857 475.526 193.285 475.076 192.698L474.495 191.94C471.908 188.498 469.34 185.211 468.798 184.646C467.989 183.768 467.125 182.959 466.248 182.177C465.839 181.801 465.431 181.425 465.024 181.052C464.572 180.636 464.121 180.222 463.675 179.811C462.602 178.816 461.551 177.842 460.54 176.904L458.847 175.334C457.863 174.36 456.86 173.548 455.938 172.803C455.485 172.435 455.051 172.084 454.649 171.738C453.411 170.71 452.378 169.852 451.62 169.223C450.765 168.532 449.83 167.742 448.938 166.99C447.651 165.904 446.456 164.895 445.729 164.371C444.674 163.528 440.634 160.391 436.425 157.367C434.986 156.433 433.545 155.485 432.207 154.605C429.514 152.834 427.241 151.338 426.253 150.785C422.676 148.913 418.13 146.255 417.528 145.718C417.164 145.401 416.419 144.828 415.826 144.545C414.833 144.018 412.576 142.823 409.573 141.232L407.083 139.913C406.04 139.32 404.9 138.769 403.692 138.234C402.498 137.679 401.256 137.102 399.984 136.513C399.289 136.193 398.589 135.861 397.883 135.526C396.003 134.633 394.079 133.72 392.081 132.977C389.213 131.822 386.421 130.715 383.818 129.727C381.146 128.888 378.679 128.14 376.545 127.527C372.312 126.222 369.245 125.843 368.643 126.06C367.396 126.577 363.618 125.678 360.1 124.269C356.75 123.026 353.716 121.934 350.893 120.973C348.036 120.104 345.361 119.463 342.814 118.863C341.542 118.571 340.294 118.301 339.064 118.058C337.81 117.875 336.571 117.715 335.331 117.573C332.857 117.289 330.392 117.084 327.817 116.933C321.888 116.871 316.388 116.031 315.454 115.176C314.533 114.344 311.936 113.989 309.803 114.447C309.109 114.604 307.341 114.621 304.793 114.644C303.361 114.657 301.682 114.672 299.81 114.716C298.672 114.742 297.473 114.732 296.217 114.721C294.605 114.708 292.9 114.694 291.115 114.753C287.944 114.837 284.58 114.868 281.163 114.898C257.599 115.597 240.027 118.105 228.015 120.287C225.012 120.784 222.351 121.348 220.017 121.865C218.587 122.19 217.278 122.486 216.089 122.755C215.344 122.924 214.645 123.082 213.993 123.23C212.307 123.643 210.931 124.066 209.865 124.398C209.327 124.568 208.867 124.725 208.484 124.87C208.251 124.964 208.192 125.024 208.133 125.085C208.107 125.112 208.081 125.138 208.042 125.168C207.294 125.947 206.26 126.261 205.741 125.852C205.212 125.434 204.15 126.007 203.362 127.107C202.573 128.216 201.817 128.523 201.653 127.722C201.498 126.949 198.481 127.231 194.931 128.333C189.477 130.02 188.547 130.073 188.757 127.865C188.893 126.468 188.397 125.46 187.654 125.638C186.897 125.818 186.25 126.754 186.196 127.751C186.068 130.104 180.212 131.969 178.403 130.325C177.515 129.509 176.74 129.959 176.266 131.616C175.742 133.481 175.14 133.787 174.102 132.729C173.409 132.011 170.055 132.443 164.222 134.155C158.385 135.81 150.068 138.827 139.564 143.288C135.577 145.018 132.141 145.963 131.95 145.421C131.731 144.78 128.24 145.735 124.203 147.248C120.188 148.823 115.622 150.939 113.289 152.662C110.755 154.493 109.033 154.792 107.333 153.743C105.41 152.555 104.28 152.898 101.582 155.476C99.0802 157.858 97.9684 158.337 97.0615 157.234C96.6667 156.763 96.2898 156.813 95.9249 156.862C95.6792 156.895 95.4389 156.927 95.2023 156.799C89.1506 153.515 81.5132 154.412 75.179 155.565C74.2611 155.734 73.3712 155.908 72.5169 156.075C67.4802 157.062 63.6819 157.806 62.6884 155.766C62.6747 155.74 62.9071 155.58 63.3719 155.292C63.5943 155.162 63.8699 155.001 64.1958 154.811C64.5577 154.6 64.9816 154.352 65.4635 154.07C67.3 153.004 70.057 151.499 73.5977 149.591C80.6975 145.799 91.0873 140.541 103.97 134.702C116.843 128.855 132.218 122.44 149.175 116.415C157.637 113.337 166.514 110.49 175.624 107.665C184.756 104.988 194.125 102.301 203.631 100.067C259.877 88.0443 318.461 86.6139 369.535 100.141C382.322 103.422 394.541 107.772 406.293 112.601C407.222 113.013 408.149 113.424 409.075 113.835C411.044 114.708 413.007 115.578 414.963 116.444C416.773 117.235 418.52 118.136 420.261 119.036C421.297 119.57 422.331 120.104 423.376 120.613C424.766 121.313 426.154 122.012 427.538 122.709C428.426 123.143 429.277 123.642 430.126 124.14C430.61 124.423 431.093 124.707 431.582 124.978C434.261 126.509 436.925 128.031 439.572 129.544C460.415 142.27 478.621 157.298 494.094 173.02C509.587 188.743 522.304 205.163 532.822 220.508C543.227 235.41 551.094 249.66 557.653 261.543L558.124 262.396C564.439 274.688 569.393 284.53 572.467 291.572C575.672 298.538 577.518 302.391 577.771 302.643C578.556 303.484 579.407 302.153 579.544 299.736C579.549 299.658 579.175 298.677 578.446 296.852C577.709 295.031 576.628 292.362 575.226 288.903C572.533 281.917 567.97 272.109 562.098 259.748C555.903 247.606 548.361 232.878 538.137 217.267C528.046 201.578 515.729 184.627 500.455 168.154C485.209 151.673 467.002 135.72 445.892 121.847C444.259 120.808 442.596 119.802 440.927 118.792C439.876 118.157 438.822 117.52 437.772 116.872C436.41 116.038 435.043 115.202 433.67 114.364C432.788 113.861 431.891 113.381 430.992 112.9C430.469 112.621 429.946 112.341 429.425 112.056C426.892 110.693 424.347 109.323 421.789 107.945L420.84 107.434C419.729 106.905 418.616 106.376 417.501 105.846C415.652 104.967 413.796 104.085 411.935 103.199C409.718 102.074 407.41 101.123 405.093 100.168C404.329 99.8533 403.563 99.5381 402.8 99.2161C401.894 98.8478 400.991 98.4663 400.086 98.0843C397.904 97.1626 395.714 96.2376 393.445 95.4854C390.81 94.5333 388.165 93.5786 385.512 92.6207L383.874 92.0294C382.389 91.5722 380.901 91.1147 379.41 90.6564C377.625 90.1077 375.837 89.5578 374.045 89.0058C360.814 85.1711 347.084 82.1116 332.975 79.9657C318.84 77.9319 304.358 76.7421 289.684 76.4003C260.333 75.6452 230.243 78.5809 200.596 84.015C179.274 87.6775 158.289 92.8241 138.913 98.4296C119.555 104.113 101.801 110.27 86.8357 116.04C71.8479 121.758 59.6625 127.071 51.2048 130.77C50.3101 131.165 49.4576 131.543 48.6484 131.901C41.812 134.928 38.055 136.592 37.8757 136.298C36.176 133.651 33.9659 131.434 32.9907 131.348C32.6489 131.338 37.8621 128.079 47.3086 122.952C56.7507 117.844 70.3988 110.969 86.535 103.819C102.671 96.6898 121.286 89.2719 140.453 82.8302C159.597 76.291 179.296 70.8112 197.315 66.6562C201.899 65.6554 206.462 64.8376 210.974 64.0289C212.615 63.7348 214.249 63.4419 215.875 63.1419C217.652 62.8733 219.419 62.5941 221.178 62.3163C225.476 61.6373 229.723 60.9664 233.93 60.4788C245.769 58.8414 257.207 57.9693 268.08 57.2602C289.835 56.1205 309.348 56.7648 325.616 58.2481C348.597 60.3572 365.058 63.9029 373.1 65.6353C376.462 66.3595 378.353 66.7668 378.633 66.6197C380.419 66.0993 381.049 64.6848 380.002 63.5069C379.693 63.043 374.594 61.4717 365.543 58.8811C364.042 58.4538 362.414 58.0766 360.681 57.675C359.8 57.4709 358.892 57.2606 357.96 57.0342C357.013 56.8236 356.041 56.592 355.043 56.354C353.11 55.8933 351.077 55.4088 348.929 55.0068C347.657 54.7704 346.35 54.5279 345.01 54.2792C342.915 53.8904 340.739 53.4865 338.485 53.0673C336.07 52.6209 333.55 52.2745 330.942 51.9159C329.554 51.725 328.141 51.5307 326.705 51.3161C310.15 49.1137 290.208 47.7425 267.907 48.1905C256.769 48.5454 245.026 49.0873 232.873 50.3974C228.443 50.7794 223.972 51.3527 219.442 51.9336C217.741 52.1518 216.031 52.371 214.312 52.5816C212.738 52.8245 211.156 53.0616 209.567 53.2998C204.836 54.0089 200.046 54.7269 195.232 55.6347C176.571 58.5407 156.083 62.8083 136.087 68.2288C116.064 73.5536 96.5284 79.9475 79.4808 86.1905C62.4332 92.4541 47.8828 98.5782 37.6296 103.097C34.3288 104.555 31.4684 105.841 29.1098 106.902C24.1486 109.134 21.4076 110.367 21.457 110.097C21.7486 108.696 21.2154 107.095 20.2539 106.568C18.1577 105.43 17.0914 96.0636 18.9826 95.0757C19.6752 94.7207 20.8464 92.1665 21.5892 89.4501C22.3547 86.7109 23.7172 84.5122 24.6058 84.5801C25.4808 84.6343 26.0595 83.3771 25.8772 81.7548C25.8134 81.2011 25.9046 80.3918 26.0595 79.5096C30.0651 77.5236 33.7972 75.7245 34.8545 75.2324C35.7156 74.8278 37.2772 74.0962 38.8994 73.3362C39.7495 72.9379 40.6161 72.5319 41.4074 72.161C44.7795 70.5715 53.1051 66.8344 61.1937 63.3879C61.3526 63.3233 61.6757 63.1919 62.1255 63.009C63.5585 62.4264 66.2783 61.3205 69.0772 60.1812C72.7729 58.7307 76.1223 57.4156 76.5415 57.2506C76.7261 57.1748 76.9909 57.066 77.2791 56.9476C77.6384 56.8 78.034 56.6376 78.3552 56.5056L89.2327 52.413C90.8492 51.8348 92.6374 51.1956 94.4457 50.5492C95.6705 50.1114 96.9044 49.6703 98.1005 49.2427L99.6085 48.7277C101.99 47.9146 104.126 47.185 105.606 46.6785C109.174 45.4294 117.171 42.8456 123.373 40.934C130.706 38.6427 143.989 34.747 158.07 31.2231C160.374 30.669 162.693 30.1109 165.005 29.5545C166.237 29.2579 167.468 28.9618 168.692 28.6671C170.748 28.2174 172.787 27.7712 174.793 27.3321C176.251 27.0129 177.692 26.6974 179.11 26.3872C181.51 25.841 183.867 25.3884 186.125 24.9548C187.03 24.781 187.919 24.6102 188.789 24.4378C190.47 24.1138 192.12 23.7966 193.742 23.4863C195.091 23.2119 196.433 22.9895 197.753 22.7708C198.279 22.6836 198.802 22.597 199.32 22.5079C201.154 22.204 202.946 21.9077 204.691 21.6192C206.418 21.3335 208.1 21.0553 209.732 20.7849C221.143 19.0751 236.363 17.1817 251.798 16.078C267.241 15.0208 282.872 14.8504 294.847 15.1033C297.495 15.1738 300.606 15.3152 304.136 15.4756C305.739 15.5485 307.429 15.6253 309.202 15.7011C311.058 15.7736 313.009 15.9382 315.046 16.1099C316.12 16.2004 317.218 16.293 318.338 16.3751C319.454 16.4791 320.593 16.5652 321.754 16.6529C323.97 16.8204 326.267 16.994 328.642 17.3107C343.119 18.799 360.462 21.5878 379.361 26.2569C380.895 26.6441 382.445 27.0349 384.009 27.4293L384.863 27.6445C385.381 27.7763 385.9 27.9086 386.42 28.0413C386.832 28.1463 387.245 28.2515 387.658 28.3567C388.301 28.5499 388.946 28.7432 389.593 28.9371L390.455 29.1957C392.712 29.8803 394.997 30.5726 397.308 31.273C398.835 31.7356 400.373 32.2018 401.923 32.6717C404.579 33.5372 407.247 34.4958 409.947 35.4661C411.185 35.911 412.43 36.3584 413.684 36.8003C417.49 38.0861 421.268 39.6593 425.104 41.2567L425.71 41.509C441.884 48.1968 458.691 56.5138 475.144 67.054C491.636 77.5104 507.914 89.893 523.345 104.021C525.149 105.742 526.958 107.47 528.774 109.204C530.763 111.103 532.759 113.009 534.764 114.923L537.272 117.576C540.075 120.541 542.892 123.521 545.724 126.516C547.38 128.209 548.91 130.007 550.443 131.81C550.646 132.048 550.848 132.287 551.051 132.524L552.153 133.819C553.526 135.431 554.902 137.047 556.282 138.665C556.878 139.382 557.487 140.091 558.096 140.801C559.248 142.142 560.401 143.485 561.473 144.887C562.695 146.474 563.919 148.065 565.145 149.659L566.424 151.321C572.358 158.764 577.723 166.647 583.116 174.572C583.882 175.697 584.649 176.823 585.417 177.949C588.312 182.582 591.216 187.231 594.128 191.895C594.385 192.313 594.646 192.73 594.907 193.147C595.375 193.895 595.844 194.644 596.292 195.404L598.31 198.986C599.655 201.377 601 203.771 602.348 206.168L606.386 213.366C607.247 214.93 608.044 216.521 608.842 218.114C609.274 218.975 609.705 219.836 610.147 220.693C610.905 222.2 611.667 223.706 612.429 225.212C614.15 228.612 615.871 232.014 617.549 235.433L619.948 240.731C621.41 243.96 622.873 247.192 624.337 250.425C624.721 251.3 625.12 252.171 625.519 253.042C626.262 254.666 627.006 256.291 627.66 257.945L630.735 265.543C631.425 267.274 632.127 269.001 632.829 270.728C634.185 274.062 635.541 277.395 636.805 280.751C638.643 285.864 640.481 290.974 642.315 296.076C642.629 296.96 642.947 297.843 643.265 298.725C643.866 300.391 644.466 302.056 645.035 303.727L647.488 311.427C649.116 316.554 650.741 321.671 652.361 326.774C653.377 330.126 654.308 333.487 655.237 336.841C655.726 338.608 656.215 340.373 656.715 342.132C657.202 343.928 657.708 345.717 658.213 347.503C659.146 350.807 660.078 354.102 660.883 357.411C662.123 362.508 663.359 367.583 664.588 372.637C664.862 373.775 665.139 374.911 665.416 376.045C666.371 379.95 667.321 383.838 668.084 387.739C669.137 392.761 670.184 397.756 671.224 402.721L671.394 403.527C672.384 408.218 673.368 412.882 674.14 417.539C675.015 422.455 675.884 427.337 676.744 432.183C676.977 433.527 677.217 434.867 677.457 436.204C678.084 439.69 678.706 443.155 679.174 446.614C680.581 456.172 681.963 465.569 683.319 474.779C683.885 479.491 684.446 484.155 685 488.766C685.531 493.181 686.056 497.549 686.575 501.866L686.635 502.384C687.115 506.503 687.589 510.574 688.058 514.596C688.194 515.769 688.326 516.939 688.457 518.106C688.785 521.027 689.11 523.92 689.505 526.764C690.027 530.752 690.542 534.682 691.051 538.555C691.277 540.079 691.502 541.593 691.725 543.099C692.067 545.399 692.405 547.676 692.74 549.931C695.08 564.814 697.559 578.617 700.305 591.044C700.448 591.7 700.591 592.352 700.735 593Z" fill="#B1D136"/>
</svg>
