<svg width="1440" height="958" viewBox="0 0 1440 958" fill="none" xmlns="http://www.w3.org/2000/svg">
<path fill-rule="evenodd" clip-rule="evenodd" d="M487.238 697.681C484.076 695.718 482.339 692.393 482.705 689.01C482.669 687.867 481.942 686.819 480.804 686.275C477.469 684.653 473.922 679.46 475.107 677.765C475.502 675.547 475.079 673.263 473.902 671.252C472.693 668.953 472.121 666.439 472.236 663.921C472.554 662.586 472.314 661.277 471.669 661.259C468.624 660.374 470.117 642.043 473.173 642.122C474.119 642.186 474.6 641.546 474.137 640.767C471.526 636.441 492.66 614.021 499.023 614.573C499.797 614.631 500.363 614.185 500.165 612.876C499.966 611.567 501.008 610.981 505.448 610.445C509.89 609.909 511.194 608.908 511.735 607.119C512.275 605.331 514.012 604.226 517.68 603.44C524.502 601.969 540.429 595.483 539.841 594.356C539.846 593.973 543.573 592.076 548.504 590.363C574.449 581.455 588.431 575.609 588.666 574.158C588.9 572.707 589.933 572.695 591.558 573.543C593.182 574.39 594.218 574.226 594.534 573.083C595.082 570.682 602.217 568.338 603.96 569.955C604.698 570.663 605.837 570.905 606.836 570.568C607.658 570.245 608.053 569.679 606.393 568.256C604.733 566.831 605.603 566.164 612.303 564.114L613.86 563.58L616.022 562.792C618.489 561.822 620.738 560.922 622.6 560.127C623.376 559.787 624.094 559.486 624.74 559.212C627.197 558.176 628.632 557.571 628.367 557.019C628.032 556.32 630.54 555.465 634.075 555.059C637.064 554.829 639.944 553.999 642.501 552.633C644.793 551.291 647.387 550.404 650.112 550.033C653.64 549.493 666.08 545.223 690.07 536.988C703.911 532.237 721.599 526.168 743.636 518.733C761.234 512.903 778.173 507.901 781.149 507.48C783.844 507.229 786.384 506.283 788.46 504.758C793.56 502.15 799.085 500.252 804.85 499.127C820.034 495.196 834.838 490.223 849.126 484.255C852.916 482.541 857.05 481.491 861.306 481.162C872.953 478.862 884.409 475.895 895.603 472.28L918.55 465.479L932.419 461.585C933.384 461.33 934.324 461.008 935.23 460.624C936.441 460.271 943.7 458.199 949.401 456.776L982.621 447.866C984.567 447.226 989.491 445.936 993.206 444.998C995.79 444.434 1000.16 443.275 1005.42 441.883C1011.32 440.323 1018.32 438.468 1025.17 436.823C1025.66 436.598 1027.19 436.121 1029.27 435.472C1031.55 434.759 1034.5 433.838 1037.49 432.812C1037.92 432.664 1038.35 432.518 1038.77 432.372C1043.96 430.588 1048.48 429.034 1049.12 429.051L1052.14 428.632C1052.98 428.556 1058.65 426.816 1065.54 424.705C1066.72 424.343 1067.93 423.97 1069.16 423.593C1077.59 421.015 1089.05 417.633 1094.62 416.091C1095.85 415.75 1097.42 415.311 1099.21 414.806C1105.53 413.033 1114.69 410.461 1122.22 408.569C1144.95 402.413 1204.92 388.452 1236.25 382.983L1285.75 373.349C1288.99 372.688 1293.46 371.91 1298.93 370.958C1301.33 370.541 1303.92 370.091 1306.68 369.602C1315.74 367.999 1326.65 366.329 1338.81 364.768L1377.88 359.617L1419.64 355.38C1433.53 353.826 1447.05 352.876 1459.98 352.026C1464.02 351.76 1467.92 351.484 1471.69 351.217C1479.97 350.63 1487.58 350.091 1494.44 349.823C1504.44 349.432 1512.66 349.188 1518.43 349.109C1521.42 348.907 1524.44 348.986 1527.42 349.344L1534.48 349.299C1535.74 349.277 1537.13 349.234 1538.63 349.186C1542.36 349.069 1546.76 348.93 1551.49 349.054C1564.83 349.136 1582.56 349.37 1590.95 349.59C1592.74 349.637 1594.88 349.671 1597.34 349.711C1603.58 349.812 1611.91 349.946 1621.94 350.402L1645.09 351.008L1657.99 351.346L1664.84 351.526L1672.02 351.982C1715.47 354.256 1758.8 358.489 1801.85 364.665L1828.22 368.501L1855.32 373.622C1858.43 374.246 1861.49 374.831 1864.47 375.4C1869.92 376.441 1875.1 377.431 1879.87 378.522L1898.75 382.852C1918.67 387.39 1936.01 392.445 1951.97 397.099C1956.43 398.401 1960.79 399.671 1965.06 400.889C1972.4 403.172 1979.43 405.535 1986.32 407.849C1988.54 408.591 1990.73 409.329 1992.92 410.057C1994.41 410.554 1995.9 411.047 1997.38 411.537C2004.86 414.011 2012.25 416.454 2019.4 419.265L2045.91 429.203C2054.16 432.323 2062.4 435.796 2071.16 439.487C2072 439.841 2072.84 440.197 2073.69 440.555L2088.59 446.813L2104.04 453.814C2114.9 458.663 2126.37 463.835 2138.26 469.86C2139.91 470.683 2141.6 471.52 2143.32 472.368C2149.7 475.527 2156.45 478.862 2163.19 482.364L2188.15 495.675C2204 504.451 2218.22 512.61 2227.06 517.827C2235.67 522.958 2244.13 528.028 2252.45 533.021C2273.61 545.712 2293.91 557.891 2313.72 569.228C2341.31 585.023 2368.49 599.926 2395.86 613.3C2404.71 617.625 2412.57 621.31 2419.53 624.566C2422.08 625.763 2424.52 626.904 2426.83 627.995C2432.85 630.841 2438.1 633.159 2442.61 635.145C2444.53 635.993 2446.31 636.781 2447.96 637.523C2453.48 640.008 2457.55 641.916 2460.24 643.214C2461.76 643.769 2463.19 644.491 2464.52 645.359C2464.82 645.632 2465.21 645.806 2465.63 645.849C2466.41 645.946 2476.76 650.168 2490.63 656.054C2495.54 657.876 2500.83 659.931 2506.28 662.054C2516.64 666.082 2527.61 670.348 2537.75 673.703C2557.23 681.002 2568.99 683.803 2570.12 683.066C2571.25 682.329 2571.67 682.876 2571.66 683.682C2571.65 684.487 2576.62 686.65 2592.26 691.891L2624.89 701.261C2629.24 702.479 2634.09 703.605 2639.3 704.814C2642.42 705.537 2645.67 706.289 2649 707.109L2649.73 707.287C2658.46 709.43 2668.1 711.796 2679.05 713.687C2702.61 718.217 2709.35 720.004 2709.08 721.3C2708.8 722.598 2708.88 722.753 2709.76 721.319C2710.65 719.885 2720.57 721.218 2759.02 726.79C2772.87 728.38 2784.68 729.763 2795.64 731.125C2801.09 731.881 2806.42 732.404 2811.72 732.849L2827.48 734.414L2843.78 736.144C2845.15 736.293 2846.54 736.45 2847.94 736.609C2852.28 737.103 2856.76 737.615 2861.54 737.913L2905.22 741.628C2913 742.407 2929.6 743.188 2941.69 743.695C2953.78 744.204 2969.09 745.142 2975.63 745.582C2982.17 746.022 2997.01 746.411 3008.63 746.715L3027.74 747.216L3044.1 747.337C3054.25 747.411 3062.9 747.638 3070.59 747.841H3070.61L3084.11 748.195L3099.1 748.088L3150.76 747.716C3156.04 747.701 3166.81 747.446 3174.65 747.23L3189.12 746.803L3202.03 746.222L3229.3 745.056L3229.9 745.022C3232.84 744.853 3238.51 744.525 3246.54 743.629L3278.88 739.643C3287.61 738.688 3297.13 737.303 3307.21 735.831C3312.16 735.112 3317.23 734.372 3322.44 733.651C3386.37 723.932 3449.66 711.356 3512.08 695.972C3549.86 686.645 3586.5 676.444 3621.34 665.506C3656.18 654.567 3689.4 643.127 3720.49 631.438L3743.48 622.643L3761.43 615.443C3766.06 613.649 3770.42 611.789 3774.7 609.97C3775.39 609.678 3776.08 609.386 3776.75 609.095C3785.25 605.622 3793.07 602.187 3800.33 599.008C3801.58 598.458 3802.81 597.916 3804.03 597.383C3820.78 590.19 3833.95 584.053 3843 579.765C3846.51 578.17 3849.98 576.572 3853.4 574.898L3856.14 573.666C3856.37 573.543 3856.52 573.398 3856.64 573.289C3856.84 573.106 3856.92 573.028 3857.13 573.346C3857.46 573.854 3858.42 573.304 3859.2 572.059C3862.61 568.749 3867.2 566.572 3872.21 565.88C3873.28 565.984 3873.92 565.656 3873.67 565.265C3871.65 562.26 3889.62 566.795 3892.64 569.943C3893.59 570.871 3894.7 571.663 3895.93 572.292C3896.98 572.822 3897.75 573.718 3898.04 574.764C3898.07 575.57 3899.06 575.94 3900.22 575.971C3902.89 575.619 3915.41 583.349 3916.91 586.265C3917.59 587.587 3918.7 588.7 3920.1 589.456C3921.43 589.988 3921.8 590.574 3921.42 590.833C3921.02 591.09 3922.17 592.079 3923.97 593.047C3926.36 594.176 3927.84 596.425 3927.76 598.823C3928.16 602.017 3928.66 602.796 3930.21 602.492C3932.55 602.055 3936.78 607.036 3935.59 609.306C3934.4 611.577 3936.01 613.037 3941.2 614.132C3946.4 615.227 3952.01 620.015 3962.49 631.988C3958.1 634.327 3952.99 636.992 3950.23 638.377C3943.67 641.774 3933.54 646.724 3918.33 653.995L3900.45 662.195L3883.69 669.656L3861.09 679.228L3839.84 687.837L3817.86 696.39C3813.93 697.936 3809.21 699.652 3804.89 701.226L3789.17 707.374C3785.91 708.673 3782.82 709.803 3780.08 710.806C3778.57 711.359 3777.16 711.873 3775.89 712.356C3713.69 735.618 3670.59 748.795 3629.72 760.266C3588.84 771.735 3550.23 781.846 3495.09 793.826C3487.94 795.276 3481.3 796.655 3475.1 797.941C3464.46 800.149 3455.16 802.079 3446.98 803.61L3416.77 809.185C3405.98 811.249 3400.42 812.158 3397.74 812.596C3396.71 812.766 3396.1 812.864 3395.79 812.931C3394.71 813.172 3394.33 813.161 3394.33 813.161L3381.05 815.229L3361.54 818.363C3356.18 819.222 3349.96 820.075 3342.87 821.049C3339.09 821.57 3335.04 822.125 3330.75 822.733C3248.95 834.011 3193.77 837.703 3157.72 840.116C3152.36 840.476 3147.41 840.806 3142.88 841.129L3106.26 842.855L3095.54 843.303C3094.35 843.277 3093.18 843.322 3092 843.44C3091.45 843.535 3087.83 843.63 3081.32 843.799C3078.79 843.866 3075.79 843.943 3072.38 844.037L3050.15 844.606C3048.7 844.643 3047.2 844.684 3045.68 844.724C3037.92 844.936 3029.4 845.167 3020.02 845.083C3014.14 845.071 3008.1 845.089 3001.98 845.109C2989.95 845.147 2977.61 845.186 2965.44 844.994L2913.11 843.854L2856.24 841.022L2853.7 840.954C2852.77 841.053 2844.89 840.374 2828.74 838.981C2824.84 838.644 2820.45 838.265 2815.56 837.846L2794.06 836.017C2786.91 835.244 2779.12 834.267 2770.55 833.197L2767.63 832.832C2764.51 832.442 2761.3 832.062 2758 831.67C2751.02 830.845 2743.62 829.968 2735.84 828.853L2698.68 822.856C2638.77 812.569 2579.91 797.576 2522.79 778.053C2465.14 757.985 2409.5 733.424 2356.54 704.662C2351.18 701.978 2345.02 698.532 2338.14 694.682C2334.64 692.726 2330.96 690.666 2327.1 688.549C2318.76 683.973 2309.77 678.749 2300.33 673.268C2296.81 671.224 2293.23 669.144 2289.6 667.048C2274.69 658.217 2259.11 648.862 2243.88 639.72C2231.92 632.536 2220.17 625.483 2209.14 618.916C2171.09 596.25 2138.37 577.674 2108.19 561.811C2103.36 559.416 2098.65 557.021 2094 554.662C2083.87 549.522 2074.08 544.551 2064.23 540.14L2043.09 530.381L2021.99 521.505C1958.79 495.08 1892.2 475.91 1823.84 464.46C1822.46 464.221 1821.01 463.95 1819.51 463.667C1816.48 463.098 1813.2 462.482 1809.67 461.98L1792.49 459.612C1788.67 459.148 1784.72 458.611 1780.65 458.057C1771.45 456.807 1761.64 455.474 1751.44 454.702L1729.04 452.619L1717.61 451.552C1713.83 451.107 1710 451.007 1706.21 450.908L1662.12 448.64C1589.37 446.514 1516.62 448.799 1444.39 455.478L1398.57 460.145L1359.42 465.026L1342.74 467.119L1328.37 469.275L1306.81 472.545C1296.78 473.85 1279.03 476.896 1261.57 479.892C1254.26 481.147 1247 482.393 1240.37 483.499L1199.85 491.181C1199.71 491.229 1198.97 491.367 1197.7 491.606C1195.13 492.087 1190.38 492.977 1183.84 494.368L1143.26 502.931C1140.83 503.474 1138.34 504.029 1135.79 504.596C1120.77 507.936 1103.79 511.713 1085.71 516.189C1081.85 517.142 1077.94 518.104 1073.99 519.078C1056.2 523.453 1037.44 528.071 1018.5 533.221C925.588 557.327 827.528 589.812 796.393 600.502C773.517 608.379 736.494 621.599 714.217 629.838C709.952 631.456 705.361 633.181 700.495 635.007C690.697 638.686 679.791 642.782 668.226 647.271L652.822 653.235L642.956 657.156C629.758 662.334 617.207 667.413 610.239 670.26L593.357 677.258L577.687 683.866L567.253 688.348L565.479 689.068L558.249 692.178L550.629 695.545L531.231 704.011L524.736 706.871L516.076 710.748C515.369 710.451 514.708 710.073 514.111 709.622C512.875 708.593 511.502 708.289 511.02 708.967C510.537 709.645 507.956 709.461 505.214 708.508C503.25 707.686 501.095 707.313 498.945 707.423C497.082 708.294 489.626 702.614 489.655 700.43C489.553 699.166 488.593 698.076 487.238 697.681ZM3952.47 651.515C3950.96 652.261 3949.44 653.017 3947.97 653.747L3947.96 653.753C3943.1 656.158 3938.84 658.277 3937.48 658.801C3936.68 659.111 3934.59 660.132 3931.78 661.508L3931.77 661.513C3928.36 663.178 3923.9 665.36 3919.37 667.427C3916.08 668.907 3912.82 670.434 3909.53 671.966C3907.57 672.876 3905.61 673.788 3903.66 674.694L3895.46 678.319C3890.59 680.539 3884.64 683.049 3878.76 685.531L3878.75 685.535C3875.5 686.908 3872.26 688.271 3869.23 689.573L3852.66 696.32C3851.66 696.754 3842.18 700.615 3831.41 704.71L3816.4 710.422L3810.99 712.392L3805.84 714.407C3789.95 720.826 3749.29 735.964 3707.79 749.506C3697.2 753.067 3685.83 756.609 3676.2 759.544C3672.69 760.609 3669.42 761.624 3666.46 762.537C3661.28 764.139 3657.11 765.428 3654.58 766.12L3654.3 766.202C3630.81 773.058 3572.17 790.185 3493.4 807.013C3453.77 815.421 3409.06 823.657 3361.36 831.045C3313.65 838.435 3262.88 844.401 3211.28 848.77C3111.65 857.131 3011.4 859.635 2911.16 856.265C2841.06 854.295 2771.12 847.521 2701.99 836.002C2671.91 831.374 2626.22 821.345 2600.56 814.722C2594.08 813.247 2587.91 811.472 2582.16 809.786L2566.51 805.306L2549.96 800.571C2547.6 799.779 2544.81 798.901 2543.66 798.564C2542.5 798.225 2539.88 797.389 2537.74 796.642C2537.42 796.528 2536.61 796.271 2535.4 795.88C2528.55 793.677 2508.58 787.251 2487.06 778.764C2475.83 774.78 2463.96 769.812 2453.14 765.286L2450.56 764.206C2449.88 763.921 2449.2 763.637 2448.52 763.357C2436.54 758.357 2426.53 753.756 2421.01 751.117C2418.64 750.025 2416.25 748.941 2413.85 747.85C2409.15 745.726 2404.4 743.571 2399.62 741.263L2377.73 730.399C2370.24 726.786 2362.81 722.828 2355.24 718.791C2353.01 717.599 2350.76 716.405 2348.49 715.208L2348.49 715.207L2348.47 715.198C2343.08 712.342 2337.63 709.456 2332.25 706.477C2301.27 689.538 2269.37 670.502 2236.57 650.867C2231.1 647.591 2225.61 644.291 2220.09 640.977L2220.09 640.975C2192.53 624.423 2164.37 607.509 2135.4 591.426C2100.74 571.924 2064.99 554.056 2028.28 537.898L2012.19 531.141L2011.69 530.926C2006.6 528.75 2001.62 526.625 1996.61 524.857L1966.84 513.748C1962.95 512.483 1959.12 511.224 1955.35 509.983C1940.32 505.036 1926.22 500.395 1912.57 496.967C1909.6 496.17 1906.69 495.343 1903.82 494.528C1898.41 492.991 1893.15 491.497 1887.91 490.332L1864.61 484.96L1853.49 482.403C1851.18 481.854 1848.86 481.444 1846.55 481.037C1845.22 480.804 1843.9 480.571 1842.59 480.312L1821.59 476.46C1811.46 474.423 1801.54 473.092 1791.81 471.789H1791.81C1788.47 471.341 1785.15 470.896 1781.85 470.427L1762.74 467.776L1743.65 465.971L1724.56 464.204L1714.89 463.297C1711.66 463.213 1708.39 463.127 1705.12 462.734L1664.3 460.589H1664.3C1656.38 460.382 1646.32 460.118 1634.87 460.049C1631.19 460.026 1627.38 459.952 1623.45 459.877C1615.13 459.717 1606.32 459.547 1597.25 459.831L1556.31 460.486L1516.98 462.259C1504.88 462.693 1492.43 463.673 1480.23 464.633L1479.46 464.693C1475.64 464.994 1471.84 465.269 1468.08 465.543H1468.07C1459.59 466.158 1451.32 466.757 1443.52 467.591C1434.66 468.513 1426.37 469.347 1419 470.09H1419H1418.99C1407.72 471.225 1398.59 472.144 1392.83 472.829C1387.16 473.536 1381.68 474.208 1376.41 474.855L1376.4 474.857C1354.7 477.52 1336.3 479.778 1320.65 482.457L1294.38 486.376L1273.46 489.898L1243.99 494.924C1239.17 495.762 1235.06 496.557 1231.36 497.275L1231.36 497.276C1229.16 497.702 1227.11 498.1 1225.14 498.462C1222.41 498.989 1219.14 499.61 1215.54 500.297L1215.49 500.305L1215.49 500.307C1201.99 502.878 1183.65 506.371 1170.11 509.346C1161.48 511.192 1150.73 513.445 1140.28 515.628L1112.69 521.972L1093.35 526.417L1066.01 533.189C1049.65 537.097 1031.07 542.055 1011.8 547.196L1011.79 547.197L1011.78 547.201C1007 548.476 1002.17 549.763 997.333 551.049C948.731 564.328 899.026 579.613 873.825 587.554L833.145 600.734C822.325 604.43 811.901 607.95 803.488 610.792L803.483 610.794L803.425 610.814C801.069 611.61 798.871 612.352 796.866 613.03C762.271 625.025 727.023 637.464 672.246 658.682L656.02 664.977L646.154 668.905C641.597 670.732 637.346 672.465 632.805 674.314L632.795 674.319L632.791 674.32C627.849 676.333 622.563 678.486 616.163 681.057C615.083 681.513 613.724 682.083 612.206 682.72C608.188 684.403 603.055 686.555 599.064 688.289L583.566 694.833C570.897 700.184 558.227 705.638 545.555 711.193L520.655 722.367C519.758 723.684 518.977 725.063 518.32 726.491C517.334 729.187 515.65 731.628 513.402 733.618C512.147 734.2 511.206 737.017 511.382 739.902C511.39 744.64 513.512 749.215 517.281 752.613L530.878 746.518L536.898 743.872L555.167 736.018L562.353 732.905L569.151 729.972L570.839 729.288L580.708 725.13L595.512 718.99L611.481 712.498L642.378 700.252C646.541 698.66 650.72 697.046 654.783 695.478C663.007 692.302 670.766 689.308 676.99 687.029C697.931 678.939 732.669 665.948 754.293 658.336C768.956 653.038 799.271 642.466 836.755 630.086C874.24 617.706 918.889 603.863 962.487 591.489C1006.08 579.116 1047.77 568.113 1079.12 560.718L1100.45 555.516L1116.99 551.764L1131.97 548.318L1143.11 545.845C1147.34 544.828 1152.63 543.748 1158.54 542.539L1158.55 542.537C1162.09 541.812 1165.87 541.041 1169.78 540.209C1180.23 537.986 1192.32 535.462 1203.58 533.414L1231.67 528.16C1233.52 527.826 1235.6 527.434 1237.9 527.002C1241.82 526.261 1246.39 525.402 1251.56 524.496L1280.51 519.687L1297.76 516.798L1316.87 513.998C1321.59 513.354 1326.44 512.635 1331.41 511.9L1331.42 511.899C1340.37 510.572 1349.71 509.189 1359.39 508.084C1426.18 499.239 1493.53 493.773 1561.14 491.714L1601.83 491.09C1607.34 490.934 1612.87 491.037 1618.39 491.142C1619.9 491.17 1621.41 491.199 1622.92 491.221L1643.62 491.533L1663.41 492.052L1681.48 492.985L1710.51 494.514L1738.71 497.097L1752.08 498.33L1758.57 498.961L1764.93 499.819L1789.34 503.145L1801.07 504.759C1803.46 505.085 1805.82 505.532 1808.16 505.976L1808.17 505.977C1809.57 506.242 1810.96 506.506 1812.36 506.744C1840.45 511.483 1868.26 517.557 1895.67 524.939L1915.74 530.533C1920.4 531.704 1924.95 533.231 1929.56 534.775L1929.56 534.776C1931.69 535.491 1933.84 536.211 1936.01 536.9C1942.87 539.076 1949.77 541.331 1956.84 543.743L1978.25 551.792L1989.43 555.924L2000.73 560.674C2003.34 561.789 2005.99 562.893 2008.67 564.008C2013.84 566.164 2019.11 568.363 2024.45 570.78L2049.56 582.42C2054.95 584.984 2060.49 587.781 2066.15 590.646L2066.16 590.648C2069.47 592.323 2072.83 594.023 2076.24 595.713C2119.61 617.642 2174.01 650.284 2206.46 669.758L2206.46 669.761L2206.49 669.777C2210.4 672.124 2213.99 674.279 2217.21 676.201C2268.45 706.84 2319.49 736.477 2372.99 762.721C2426.74 789.282 2482.94 811.595 2540.92 829.401L2577.03 839.639C2581.26 840.897 2585.42 841.951 2589.45 842.97L2589.47 842.975C2590.7 843.285 2591.91 843.592 2593.11 843.9L2607.96 847.476C2611.9 848.394 2615.69 849.296 2619.31 850.16C2624.41 851.372 2629.19 852.512 2633.7 853.526L2654.6 857.683C2658.88 858.517 2662.78 859.304 2666.3 860.013L2666.31 860.016C2672.91 861.345 2678.17 862.408 2682.09 863.012L2692 864.576L2694.5 864.987L2711.3 867.654L2728.48 870.37C2732.88 871.052 2737.61 871.604 2742.62 872.187C2745.07 872.474 2747.6 872.769 2750.18 873.088C2781.42 877.249 2820.93 880.587 2855.2 882.753L2906.47 885.21L2925.67 885.712C2926.84 885.664 2928 885.695 2929.15 885.803L2939.62 886.078C2946.84 886.267 2958.25 886.565 2975.46 886.709C2980.83 886.658 2986.77 886.637 2993.32 886.614C3028.74 886.487 3082 886.298 3160.32 880.994C3169.32 880.308 3177.15 879.749 3183.93 879.264L3183.95 879.263L3183.97 879.261C3195.5 878.435 3203.99 877.829 3210.04 877.189L3222.98 875.993L3224.39 876.03C3224.91 876.043 3226.37 875.882 3229.53 875.535C3232.74 875.182 3237.69 874.637 3245.17 873.887L3246.14 873.792C3253.47 873.079 3262.97 872.155 3275.35 870.568C3279.69 870.013 3284.32 869.483 3289.31 868.914L3289.32 868.912C3299.2 867.784 3310.44 866.502 3323.24 864.566L3361.67 859.084L3396.06 852.997C3410.94 850.739 3425.05 848.04 3439.14 845.35C3445.48 844.139 3451.81 842.929 3458.2 841.762C3499.11 833.427 3542.58 824.39 3605.86 807.234C3608.42 806.523 3611.44 805.702 3614.81 804.788L3614.84 804.78L3614.86 804.775C3621.13 803.075 3628.57 801.055 3636.37 798.817L3672.19 788.237L3706.3 777.612L3732.8 768.745C3737.44 767.249 3744.37 764.795 3752.37 761.966C3754.43 761.237 3756.56 760.481 3758.75 759.711C3769.39 755.957 3780.94 751.69 3791.1 747.849C3792.11 747.469 3793.1 747.095 3794.09 746.723L3796.03 745.996L3796.05 745.987C3800.29 744.399 3804.41 742.849 3808.42 741.237L3822.61 735.657C3823.45 735.335 3824.27 735.019 3825.09 734.71V734.709C3827.91 733.64 3830.55 732.637 3833.04 731.629L3849.82 724.89C3851.95 724.076 3854.99 722.839 3858.18 721.536C3861.47 720.192 3864.95 718.776 3867.78 717.681C3883.15 711.364 3893.32 706.831 3900 703.819L3914.85 697.066C3926.19 691.911 3937.41 686.56 3948.63 680.979C3949.01 680.789 3949.54 680.523 3950.21 680.184L3950.23 680.18C3955.67 677.45 3970.49 670.011 3988.99 659.575C3987.36 658.941 3985.59 658.671 3983.83 658.787C3983.07 658.767 3982.57 657.755 3982.8 656.264C3983.36 652.44 3978.63 646.057 3973.75 643.51C3972.92 643.041 3972.13 642.492 3971.41 641.874L3969.51 642.899C3967.25 643.929 3962.27 646.489 3957.13 649.125C3955.57 649.927 3953.99 650.739 3952.47 651.515ZM4020.98 686.291C4017.07 688.685 4013.21 687.586 4014.67 685.089C4017.22 680.854 4011.51 669.645 4006.27 669.084C4004.83 668.931 4003.46 668.416 4002.32 667.599C3994.43 672.192 3986.02 676.696 3976.3 681.817C3957.96 691.438 3939.59 700.326 3921.05 708.827C3920.26 709.185 3919.11 709.709 3917.73 710.342C3914.06 712.026 3908.73 714.469 3903.99 716.522L3888.87 723.115L3870.73 730.781C3864.59 733.498 3859.1 735.585 3856.51 736.568C3855.63 736.896 3855.1 737.102 3854.97 737.165L3846.79 740.369L3806.02 756.276C3801.98 757.783 3798.08 759.248 3794.39 760.641C3787.35 763.292 3781.01 765.677 3775.73 767.579L3760.42 773.246C3757.68 774.249 3731.61 783.436 3702.03 792.837C3677.81 800.538 3653.97 807.475 3643.14 810.626L3643.13 810.629C3640.74 811.324 3639 811.836 3638 812.129L3597.91 822.753C3592.56 824.068 3586.91 825.496 3581.07 826.976L3581.06 826.979C3567.65 830.378 3553.16 834.048 3538.52 837.25C3535.16 838.011 3531.75 838.807 3528.36 839.598C3520.85 841.347 3513.4 843.085 3506.68 844.442L3484.88 848.978C3461.49 853.973 3402.43 866.02 3323.63 876.551C3231.36 888.808 3138.23 895.911 3044.77 897.817C3036.18 898.166 3027.56 898.178 3018.93 898.188C3014.86 898.195 3010.78 898.2 3006.71 898.241C2994.01 898.369 2981.3 898.421 2968.65 898.281L2930.76 897.557L2911.96 897.064C2907.75 896.954 2903.53 896.74 2899.32 896.527C2897.25 896.421 2895.17 896.317 2893.11 896.224L2855.9 894.405L2846.69 894.163L2837.57 893.425L2819.42 891.912C2815.34 891.558 2811.3 891.226 2807.27 890.896H2807.25C2799.4 890.254 2791.63 889.618 2783.94 888.833L2749.55 884.744L2732.92 882.734C2729.12 882.233 2725.34 881.623 2721.62 881.019L2721.6 881.018C2719.97 880.753 2718.34 880.489 2716.71 880.235L2685.49 875.269L2677.97 874.074L2670.58 872.613L2656.19 869.74L2628.89 864.262L2581.42 852.841L2544.53 842.389C2539.03 840.929 2533.09 838.989 2526.85 836.953L2526.83 836.947C2524.7 836.252 2522.54 835.545 2520.35 834.843L2493.77 826.121L2468.32 816.659C2460.27 813.721 2452.9 810.994 2446.9 808.418C2443.05 806.818 2439.24 805.258 2435.57 803.752C2427.68 800.514 2420.39 797.526 2414.49 794.933L2398.91 787.882C2396.69 786.863 2394.04 785.68 2392.92 785.228C2391.81 784.777 2389.33 783.675 2387.32 782.7C2387.1 782.594 2386.65 782.377 2385.98 782.062L2385.98 782.059L2385.97 782.056C2380.53 779.453 2361 770.104 2339.75 759.219C2315.89 746.996 2288.46 731.569 2278.29 725.771C2252.44 710.962 2224.71 694.491 2195.84 677.181C2166.97 659.873 2136.81 641.993 2105.57 624.661C2074.13 607.242 2041.75 591.232 2008.56 576.688C1975.28 562.223 1940.91 549.925 1905.72 539.892L1890.45 535.651C1889.19 535.309 1887.94 534.96 1886.69 534.612C1882.99 533.579 1879.35 532.565 1875.69 531.808L1847.58 525.348C1844.16 524.432 1840.49 523.778 1836.92 523.143C1836.01 522.981 1835.11 522.82 1834.22 522.656L1821.34 520.283L1808.88 518.036C1804.84 517.239 1800.85 516.52 1796.85 516.031L1773.77 512.893C1771.42 512.589 1769.11 512.255 1766.82 511.924C1761.87 511.209 1757.05 510.514 1752.28 510.178L1712.38 506.445C1705.25 506.108 1698.32 505.725 1691.5 505.348H1691.5C1673.94 504.378 1657.2 503.453 1640.17 503.478C1628.38 503.169 1616.59 502.86 1604.4 503.078L1566.59 503.662C1561.47 503.529 1555.39 503.852 1548.59 504.213C1545.61 504.372 1542.51 504.537 1539.28 504.674C1536.94 504.775 1534.55 504.873 1532.09 504.973C1523.4 505.327 1514.03 505.709 1504.38 506.296C1500.42 506.579 1496.4 506.86 1492.35 507.144C1471.09 508.634 1449.02 510.181 1429.86 512.292C1426.28 512.687 1422.66 513.085 1419.01 513.485C1399.42 515.636 1379.17 517.859 1361.65 519.991C1349.92 521.417 1339.25 522.967 1330.58 524.228H1330.58H1330.58C1323.88 525.202 1318.37 526.002 1314.5 526.436C1304.34 527.806 1294.91 529.411 1286.17 530.893C1283.22 531.396 1280.36 531.882 1277.57 532.343C1274.45 532.857 1271.4 533.342 1268.43 533.815C1260.87 535.021 1253.81 536.145 1247.36 537.465L1203.34 545.683L1157.96 555.285L1106.53 566.764C1101 568.117 1094.49 569.676 1087.79 571.282L1087.79 571.283C1075.07 574.333 1061.65 577.551 1052.88 579.836C1049.79 580.652 1045.92 581.655 1041.4 582.828L1041.39 582.829C1032.74 585.073 1021.71 587.935 1009.19 591.289C990.14 596.396 967.625 602.68 944.887 609.458C899.329 622.781 852.673 637.765 829.06 645.71C817.771 649.485 803.976 654.117 790.911 658.727C787.259 660.017 783.652 661.285 780.166 662.51C771.184 665.665 762.994 668.542 756.823 670.815C740.868 676.478 724.826 682.473 706.394 689.36L706.388 689.363L705.464 689.708L667.382 704.265L647.691 711.89L619.339 723.206L603.191 729.81L588.558 735.878C585.657 737.07 569.421 743.826 552.705 751.069L532.435 760.062C537.67 760.531 542.94 760.229 548.033 759.165C549.592 758.476 551.088 759.245 552.101 760.846C553.435 762.713 555.368 764.183 557.642 765.061C560.512 766.136 561.192 766.844 560.145 767.816C559.36 768.984 559.341 770.447 560.093 771.655C560.894 773.02 560.918 774.403 560.052 774.726C559.187 775.048 559.215 776.24 559.803 777.292C560.392 778.344 560.377 779.458 559.77 779.787C557.041 781.022 556.709 786.543 559.151 790.64C560.381 792.336 560.974 794.331 560.84 796.329C559.96 797.765 564.366 803.181 567.576 804.61C572.933 803.788 578.081 802.155 582.796 799.785C591.454 796.172 596.901 794.547 598.098 795.232C601.388 795.381 604.635 794.65 607.425 793.133C610.705 791.522 614.407 790.695 618.178 790.727C620.387 791.093 622.644 790.544 624.312 789.236C625.921 788.011 627.824 787.332 628.637 787.736C632.393 787.175 635.977 785.964 639.191 784.173C643.49 782.155 648.029 780.562 652.73 779.42C655.102 779.137 657.312 778.12 657.668 777.13C658.026 776.141 659.932 775.307 662.302 775.178C664.996 774.872 667.53 773.901 669.615 772.374C671.966 770.477 673.175 770.201 673.934 771.373C675.068 773.515 685.321 769.867 685.615 767.225C685.633 765.804 686.841 765.605 689.628 766.446C692.417 767.287 693.581 767.164 694.293 765.339C695.007 763.515 695.698 763.303 697.535 764.426C699.37 765.549 699.976 765.412 700.214 763.728C700.525 762.422 701.799 761.489 703.301 761.467C704.807 761.505 705.764 760.801 705.428 760.14C705.093 759.478 707.179 757.958 710.079 756.843L750.557 740.238C775.582 729.795 832.179 708.735 876.027 694.446L911.79 682.671L946.38 671.788L987.189 659.416C992.358 657.854 997.399 656.435 1002.2 655.081C1004.79 654.353 1007.31 653.644 1009.75 652.94C1012.52 652.169 1015.02 651.504 1017.18 650.985C1019.51 650.204 1021.97 649.775 1024.47 649.716C1024.94 650.267 1025.54 650.321 1025.81 649.752C1027.09 649.149 1028.44 648.657 1029.83 648.282C1032.34 647.427 1035.97 646.217 1040.47 644.912L1075.26 634.764L1132.86 619.03L1156.16 612.306L1181.83 604.913C1185.54 603.856 1188.99 602.861 1192.27 601.919L1192.27 601.918C1205.21 598.19 1215.3 595.284 1226.78 592.611L1258.13 585.061C1267.62 582.885 1276.04 581.033 1283.7 579.35L1283.71 579.347H1283.71C1288.18 578.364 1292.39 577.439 1296.39 576.539L1311.85 573.104L1326.23 570.37C1331.38 569.405 1336.53 568.398 1341.69 567.391L1341.7 567.389L1341.7 567.387C1350.41 565.687 1359.13 563.982 1367.88 562.475C1374.7 561.31 1384.79 559.807 1396.48 558.155C1408.17 556.502 1421.41 554.968 1434.48 553.658C1460.56 550.694 1485.81 549.319 1496.06 549.128L1510.75 548.783L1526.51 548.697L1555.4 548.532C1559.41 548.47 1564.06 548.546 1571.18 548.661H1571.19H1571.2C1573.93 548.706 1577.02 548.756 1580.58 548.808L1604.95 549.1L1621.65 549.538L1641.96 550.377L1652.37 550.65C1656.68 550.763 1662.06 550.904 1667.6 551.356L1704 553.692C1708.02 553.798 1712.19 554.29 1716.47 554.795C1718.69 555.058 1720.94 555.323 1723.22 555.54L1743.12 557.674L1752.58 558.69L1761.18 560.029L1775.22 562.241C1777.83 562.666 1780.4 563.066 1782.92 563.461H1782.92C1786.92 564.086 1790.82 564.695 1794.64 565.361L1812.68 569.021L1830.67 572.527L1849.13 576.851C1851.36 577.395 1853.62 577.927 1855.91 578.467C1860.15 579.465 1864.54 580.498 1869.21 581.717L1891.56 588.063C1897.95 589.697 1904.55 591.9 1911.59 594.246C1913.39 594.846 1915.21 595.454 1917.07 596.066L1931.3 600.702C1934.68 601.904 1938.13 603.219 1941.68 604.571C1943.27 605.175 1944.88 605.787 1946.51 606.4C1982.61 620.06 2017.65 635.94 2051.36 653.925C2085.05 671.706 2117.13 690.941 2144.8 707.604C2150.23 710.895 2164.92 719.383 2177.78 726.671C2186.35 731.269 2194.59 736.359 2202.42 741.911C2202.97 742.981 2204.27 743.577 2205.55 743.337C2206.89 743.073 2208.31 743.318 2209.46 744.015C2210.61 744.698 2221.81 750.867 2235.11 757.744C2237.33 758.914 2239.82 760.223 2242.5 761.636L2242.52 761.647C2247.71 764.384 2253.64 767.509 2259.86 770.759L2286.63 784.325C2291.57 786.716 2297.3 789.563 2303.76 792.774L2303.76 792.778L2303.77 792.779C2326.38 804.015 2357.97 819.716 2395.99 836.001C2450 859.211 2505.88 878.651 2563.13 894.146C2617.35 908.4 2672.44 919.717 2728.09 928.039C2738.14 929.334 2747.66 930.65 2756.57 931.881C2768.54 933.536 2779.41 935.036 2788.91 936.123C2791.58 936.428 2794.14 936.719 2796.59 936.997C2809.33 938.447 2819.01 939.549 2824.92 940.445C2829.74 941.148 2844.4 943.145 2857.43 944.024L2893.64 947.085L2908.12 948.425L2918.11 949.185C2921.46 949.503 2939.02 950.386 2957.18 951.131C2962.76 951.359 2968.15 951.561 2973 951.743H2973.01C2983.95 952.154 2992.12 952.459 2993.28 952.729C2997.58 953.456 3040.9 955.782 3067.34 955.4C3072.09 955.167 3076.87 955.512 3081.54 956.424C3090.68 957.443 3099.9 957.685 3109.08 957.146C3123.47 956.639 3137.81 956.285 3140.91 956.405C3144 956.524 3156.02 956.609 3167.51 956.143C3179.02 955.676 3192.68 955.303 3197.67 955.243C3204 955.139 3209.99 955.027 3216.19 954.806C3222.17 954.592 3228.45 954.135 3235.51 953.621L3236.27 953.566L3261.74 951.507C3271.52 950.764 3282.82 949.524 3296.23 947.956L3325.52 944.652C3331.5 943.983 3337.25 943.177 3342.76 942.404C3345.71 941.992 3348.58 941.589 3351.39 941.221L3374.33 937.982C3382.8 936.823 3391.06 935.445 3399.16 934.094C3404.81 933.152 3410.37 932.223 3415.88 931.389L3435.61 928.065L3454.6 924.493C3478.26 920.204 3500.38 915.495 3521.22 911.057L3521.27 911.047C3525.2 910.21 3529.07 909.384 3532.92 908.571C3557.14 903.445 3579.25 897.957 3599.69 892.617C3638.55 882.934 3671.09 873.431 3698.86 865.324L3703.41 863.998C3747.7 850.556 3778.64 839.992 3800.95 832.375V832.372L3800.99 832.363C3807.34 830.189 3813.01 828.254 3818.09 826.563C3831.5 821.669 3845.21 817.414 3859.15 813.814C3860.11 813.618 3861.12 813.365 3862.19 813.096L3862.2 813.092C3862.61 812.988 3863.03 812.881 3863.47 812.775C3863.69 812.701 3863.91 812.636 3864.13 812.581C3864.32 812.535 3864.5 812.494 3864.69 812.461L3865.45 812.482C3866.25 812.33 3866.95 811.974 3867.5 811.459C3873.12 807.401 3879.22 803.916 3885.71 801.068C3888.57 799.557 3890.98 797.496 3892.82 795.034C3893.86 793.042 3895.97 791.66 3898.42 791.34C3907.33 791.189 3915.7 786.992 3910.6 785.207C3907.82 784.212 3919.29 778.906 3922.25 779.713C3925.21 780.521 3931.94 776.626 3937.82 771.25C3940.26 768.871 3943.21 766.963 3946.51 765.64C3953.07 762.559 3958.83 758.29 3963.43 753.103C3966.46 750.387 3969.84 748.002 3973.51 745.993C3976.9 744.196 3979.86 741.821 3982.21 739.002C3984.73 736.256 3987.89 734.035 3991.47 732.486C3995.81 730.218 3999.68 727.439 3999.73 726.366C4002.53 722.615 4005.98 719.285 4009.94 716.494C4013.94 713.831 4017.27 710.472 4019.75 706.613C4019.77 705.73 4020.92 704.07 4022.95 702.856C4025.3 701.262 4027.15 699.157 4028.33 696.737C4028.98 695.536 4029.44 694.255 4029.68 692.932C4030.1 691.9 4030.11 690.761 4029.72 689.708C4028.54 687.296 4027.27 685.803 4025.73 685.455C4024.95 685.229 4024.1 685.208 4023.32 685.392C4022.46 685.525 4021.67 685.833 4020.98 686.291Z" fill="#F0F2F9"/>
<path fill-rule="evenodd" clip-rule="evenodd" d="M-2802.76 348.681C-2805.92 346.718 -2807.66 343.393 -2807.3 340.01C-2807.33 338.867 -2808.06 337.819 -2809.2 337.275C-2812.53 335.653 -2816.08 330.46 -2814.89 328.765C-2814.5 326.547 -2814.92 324.263 -2816.1 322.252C-2817.31 319.953 -2817.88 317.439 -2817.76 314.921C-2817.45 313.586 -2817.69 312.277 -2818.33 312.259C-2821.38 311.374 -2819.88 293.043 -2816.83 293.122C-2815.88 293.186 -2815.4 292.546 -2815.86 291.767C-2818.47 287.441 -2797.34 265.021 -2790.98 265.573C-2790.2 265.631 -2789.64 265.185 -2789.84 263.876C-2790.03 262.567 -2788.99 261.981 -2784.55 261.445C-2780.11 260.909 -2778.81 259.908 -2778.27 258.119C-2777.72 256.331 -2775.99 255.226 -2772.32 254.44C-2765.5 252.969 -2749.57 246.483 -2750.16 245.356C-2750.15 244.973 -2746.43 243.076 -2741.5 241.363C-2715.55 232.455 -2701.57 226.609 -2701.33 225.158C-2701.1 223.707 -2700.07 223.695 -2698.44 224.543C-2696.82 225.39 -2695.78 225.226 -2695.47 224.083C-2694.92 221.682 -2687.78 219.338 -2686.04 220.955C-2685.3 221.663 -2684.16 221.905 -2683.16 221.568C-2682.34 221.245 -2681.95 220.679 -2683.61 219.256C-2685.27 217.831 -2684.4 217.164 -2677.7 215.114L-2676.14 214.58L-2673.98 213.792C-2671.51 212.822 -2669.26 211.922 -2667.4 211.127C-2666.62 210.787 -2665.91 210.486 -2665.26 210.212C-2662.8 209.176 -2661.37 208.571 -2661.63 208.019C-2661.97 207.32 -2659.46 206.465 -2655.92 206.059C-2652.94 205.829 -2650.06 204.999 -2647.5 203.633C-2645.21 202.291 -2642.61 201.404 -2639.89 201.033C-2636.36 200.493 -2623.92 196.223 -2599.93 187.988C-2586.09 183.237 -2568.4 177.168 -2546.36 169.733C-2528.77 163.903 -2511.83 158.901 -2508.85 158.48C-2506.16 158.229 -2503.62 157.283 -2501.54 155.758C-2496.44 153.15 -2490.92 151.252 -2485.15 150.127C-2469.97 146.196 -2455.16 141.223 -2440.87 135.255C-2437.08 133.541 -2432.95 132.491 -2428.69 132.162C-2417.05 129.862 -2405.59 126.895 -2394.4 123.28L-2371.45 116.479L-2357.58 112.585C-2356.62 112.33 -2355.68 112.008 -2354.77 111.624C-2353.56 111.271 -2346.3 109.199 -2340.6 107.776L-2307.38 98.8658C-2305.43 98.2262 -2300.51 96.9364 -2296.79 95.9981C-2294.21 95.4338 -2289.84 94.2748 -2284.58 92.8832C-2278.68 91.3225 -2271.68 89.4684 -2264.83 87.8231C-2264.34 87.5984 -2262.81 87.1214 -2260.73 86.4725C-2258.45 85.7589 -2255.5 84.8378 -2252.51 83.8123C-2252.08 83.6642 -2251.65 83.5176 -2251.23 83.3722C-2246.04 81.5881 -2241.52 80.034 -2240.88 80.0512L-2237.86 79.6323C-2237.02 79.5556 -2231.35 77.8165 -2224.46 75.7047C-2223.28 75.3426 -2222.07 74.9699 -2220.84 74.5933C-2212.41 72.015 -2200.95 68.6332 -2195.38 67.091C-2194.15 66.75 -2192.58 66.3113 -2190.79 65.8064C-2184.47 64.033 -2175.31 61.4613 -2167.78 59.5688C-2145.05 53.4132 -2085.08 39.4523 -2053.75 33.983L-2004.25 24.3495C-2001.01 23.6875 -1996.54 22.9095 -1991.07 21.9576C-1988.67 21.5408 -1986.08 21.0906 -1983.32 20.6021C-1974.26 18.9986 -1963.35 17.3286 -1951.19 15.7678L-1912.12 10.6167L-1870.36 6.37985C-1856.47 4.826 -1842.95 3.87649 -1830.02 3.02608C-1825.98 2.76032 -1822.08 2.48359 -1818.31 2.21678C-1810.03 1.62975 -1802.42 1.09083 -1795.56 0.822563C-1785.56 0.432316 -1777.34 0.18757 -1771.57 0.108675C-1768.58 -0.0928579 -1765.56 -0.0139642 -1762.58 0.344302L-1755.52 0.299107C-1754.26 0.27717 -1752.87 0.233559 -1751.37 0.186381C-1747.64 0.0690289 -1743.24 -0.0695985 -1738.51 0.0543608C-1725.17 0.135503 -1707.44 0.369943 -1699.05 0.589845C-1697.26 0.636627 -1695.12 0.671117 -1692.66 0.710895C-1686.42 0.811728 -1678.09 0.946262 -1668.06 1.40153L-1644.91 2.00811L-1632.01 2.34628L-1625.16 2.52562L-1617.98 2.98221C-1574.53 5.25642 -1531.2 9.48941 -1488.15 15.6652L-1461.78 19.5013L-1434.68 24.6218C-1431.57 25.2461 -1428.51 25.8306 -1425.53 26.4001C-1420.08 27.4405 -1414.9 28.4307 -1410.13 29.5223L-1391.25 33.8523C-1371.33 38.3899 -1353.99 43.4453 -1338.03 48.0985C-1333.57 49.401 -1329.21 50.671 -1324.94 51.8894C-1317.6 54.1717 -1310.57 56.5346 -1303.68 58.8486C-1301.46 59.5913 -1299.27 60.3287 -1297.08 61.0569C-1295.59 61.5538 -1294.1 62.0467 -1292.62 62.537C-1285.14 65.0109 -1277.75 67.4544 -1270.6 70.2653L-1244.09 80.2032C-1235.84 83.3233 -1227.6 86.7963 -1218.84 90.4873C-1218 90.8415 -1217.16 91.197 -1216.31 91.5551L-1201.41 97.8125L-1185.96 104.814C-1175.1 109.663 -1163.63 114.835 -1151.74 120.86C-1150.09 121.683 -1148.4 122.52 -1146.68 123.368C-1140.3 126.527 -1133.55 129.862 -1126.81 133.364L-1101.85 146.675C-1086 155.451 -1071.78 163.61 -1062.94 168.827C-1054.33 173.958 -1045.87 179.028 -1037.55 184.021C-1016.39 196.712 -996.09 208.891 -976.284 220.228C-948.688 236.023 -921.511 250.926 -894.141 264.3C-885.293 268.625 -877.426 272.31 -870.475 275.566C-867.918 276.763 -865.485 277.904 -863.172 278.995C-857.146 281.841 -851.896 284.159 -847.393 286.145C-845.472 286.993 -843.686 287.781 -842.036 288.523C-836.516 291.008 -832.452 292.916 -829.757 294.214C-828.24 294.769 -826.805 295.491 -825.482 296.359C-825.185 296.632 -824.791 296.806 -824.369 296.849C-823.595 296.946 -813.236 301.168 -799.368 307.054C-794.461 308.876 -789.173 310.931 -783.717 313.054C-773.357 317.082 -762.387 321.348 -752.254 324.703C-732.765 332.002 -721.009 334.803 -719.879 334.066C-718.75 333.329 -718.327 333.876 -718.338 334.682C-718.349 335.487 -713.385 337.65 -697.743 342.891L-665.105 352.261C-660.758 353.479 -655.908 354.605 -650.701 355.814C-647.582 356.537 -644.331 357.289 -641.001 358.109L-640.274 358.287C-631.539 360.43 -621.905 362.796 -610.949 364.687C-587.386 369.217 -580.647 371.004 -580.924 372.3C-581.202 373.598 -581.122 373.753 -580.237 372.319C-579.352 370.885 -569.427 372.218 -530.984 377.79C-517.134 379.38 -505.32 380.763 -494.364 382.125C-488.906 382.881 -483.581 383.404 -478.281 383.849L-462.515 385.414L-446.221 387.144C-444.847 387.293 -443.459 387.45 -442.058 387.609C-437.724 388.103 -433.243 388.615 -428.459 388.913L-384.783 392.628C-376.999 393.407 -360.401 394.188 -348.309 394.695C-336.217 395.204 -320.914 396.142 -314.372 396.582C-307.831 397.022 -292.99 397.411 -281.374 397.715L-262.264 398.216L-245.904 398.337C-235.754 398.411 -227.098 398.638 -219.407 398.841H-219.394L-205.888 399.195L-190.902 399.088L-139.243 398.716C-133.957 398.701 -123.187 398.446 -115.35 398.23L-100.879 397.803L-87.968 397.222L-60.7046 396.056L-60.0967 396.022C-57.1631 395.853 -51.4939 395.525 -43.459 394.629L-11.1213 390.643C-2.38599 389.688 7.12939 388.303 17.2126 386.831C22.155 386.112 27.2297 385.372 32.4365 384.651C96.3721 374.932 159.66 362.356 222.076 346.972C259.858 337.645 296.504 327.444 331.34 316.506C366.175 305.567 399.398 294.127 430.494 282.438L453.475 273.643L471.435 266.443C476.06 264.649 480.421 262.789 484.703 260.97C485.39 260.678 486.077 260.386 486.751 260.095C495.249 256.622 503.072 253.187 510.327 250.008C511.583 249.458 512.812 248.916 514.028 248.383C530.785 241.19 543.947 235.053 553 230.765C556.515 229.17 559.977 227.572 563.4 225.898L566.135 224.666C566.373 224.543 566.519 224.398 566.638 224.289C566.836 224.106 566.915 224.028 567.126 224.346C567.457 224.854 568.422 224.304 569.201 223.059C572.611 219.749 577.197 217.572 582.205 216.88C583.276 216.984 583.923 216.656 583.672 216.265C581.65 213.26 599.623 217.795 602.636 220.943C603.588 221.871 604.698 222.663 605.927 223.292C606.984 223.822 607.75 224.718 608.041 225.764C608.067 226.57 609.059 226.94 610.222 226.971C612.891 226.619 625.406 234.349 626.912 237.265C627.586 238.587 628.697 239.7 630.097 240.456C631.432 240.988 631.802 241.574 631.419 241.833C631.022 242.09 632.172 243.079 633.969 244.047C636.362 245.176 637.841 247.425 637.762 249.823C638.159 253.017 638.661 253.796 640.207 253.492C642.546 253.055 646.775 258.036 645.586 260.306C644.396 262.577 646.009 264.037 651.202 265.132C656.396 266.227 662.012 271.015 672.492 282.988C668.104 285.327 662.99 287.992 660.228 289.377C653.673 292.774 643.537 297.724 628.327 304.995L610.446 313.195L593.689 320.656L571.091 330.228L549.841 338.837L527.864 347.39C523.926 348.936 519.208 350.652 514.886 352.226L499.174 358.374C495.909 359.673 492.817 360.803 490.081 361.806C488.575 362.359 487.161 362.873 485.892 363.356C423.688 386.618 380.593 399.795 339.718 411.266C298.844 422.735 260.228 432.846 205.094 444.826C197.945 446.276 191.297 447.655 185.1 448.941C174.461 451.149 165.158 453.079 156.977 454.61L126.767 460.185C115.983 462.249 110.42 463.158 107.737 463.596C106.707 463.766 106.099 463.864 105.795 463.931C104.711 464.172 104.328 464.161 104.328 464.161L91.0461 466.229L71.5403 469.363C66.175 470.222 59.9639 471.075 52.8674 472.049C49.0879 472.57 45.0437 473.125 40.7488 473.733C-41.0537 485.011 -96.2275 488.703 -132.279 491.116C-137.644 491.476 -142.587 491.806 -147.12 492.129L-183.739 493.855L-194.457 494.303C-195.646 494.277 -196.822 494.322 -197.998 494.44C-198.553 494.535 -202.175 494.63 -208.676 494.799C-211.214 494.866 -214.213 494.943 -217.623 495.037L-239.851 495.606C-241.305 495.643 -242.798 495.684 -244.318 495.724C-252.075 495.936 -260.599 496.167 -269.982 496.083C-275.863 496.071 -281.902 496.089 -288.021 496.109C-300.047 496.147 -312.39 496.186 -324.561 495.994L-376.894 494.854L-433.759 492.022L-436.296 491.954C-437.235 492.053 -445.111 491.374 -461.26 489.981C-465.158 489.644 -469.546 489.265 -474.436 488.846L-495.937 487.017C-503.086 486.244 -510.883 485.267 -519.447 484.197L-522.367 483.832C-525.486 483.442 -528.698 483.062 -532.001 482.67C-538.979 481.845 -546.379 480.968 -554.163 479.853L-591.325 473.856C-651.229 463.569 -710.09 448.576 -767.207 429.053C-824.864 408.985 -880.499 384.424 -933.456 355.662C-938.815 352.978 -944.977 349.532 -951.86 345.682C-955.357 343.726 -959.04 341.666 -962.899 339.549C-971.24 334.973 -980.234 329.749 -989.671 324.268C-993.192 322.224 -996.773 320.144 -1000.4 318.048C-1015.31 309.217 -1030.89 299.862 -1046.12 290.72C-1058.08 283.536 -1069.83 276.483 -1080.86 269.916C-1118.91 247.25 -1151.63 228.674 -1181.81 212.811C-1186.64 210.416 -1191.35 208.021 -1196 205.662C-1206.13 200.522 -1215.92 195.551 -1225.77 191.14L-1246.91 181.381L-1268.01 172.505C-1331.21 146.08 -1397.8 126.91 -1466.16 115.46C-1467.54 115.221 -1468.99 114.95 -1470.49 114.667C-1473.52 114.098 -1476.8 113.482 -1480.33 112.98L-1497.51 110.612C-1501.33 110.148 -1505.28 109.611 -1509.35 109.057C-1518.55 107.807 -1528.36 106.474 -1538.56 105.702L-1560.96 103.619L-1572.39 102.552C-1576.17 102.107 -1580 102.007 -1583.79 101.908L-1627.88 99.6402C-1700.63 97.5139 -1773.38 99.7988 -1845.61 106.478L-1891.43 111.145L-1930.58 116.026L-1947.26 118.119L-1961.63 120.275L-1983.19 123.545C-1993.22 124.85 -2010.97 127.896 -2028.43 130.892C-2035.74 132.147 -2043 133.393 -2049.63 134.499L-2090.15 142.181C-2090.29 142.229 -2091.03 142.367 -2092.3 142.606C-2094.87 143.087 -2099.62 143.977 -2106.16 145.368L-2146.74 153.931C-2149.17 154.474 -2151.66 155.029 -2154.21 155.596C-2169.23 158.936 -2186.21 162.713 -2204.29 167.189C-2208.15 168.142 -2212.06 169.104 -2216.01 170.078C-2233.8 174.453 -2252.56 179.071 -2271.5 184.221C-2364.41 208.327 -2462.47 240.812 -2493.61 251.502C-2516.48 259.379 -2553.51 272.599 -2575.78 280.838C-2580.05 282.456 -2584.64 284.181 -2589.5 286.007C-2599.3 289.686 -2610.21 293.782 -2621.77 298.271L-2637.18 304.235L-2647.04 308.156C-2660.24 313.334 -2672.79 318.413 -2679.76 321.26L-2696.64 328.258L-2712.31 334.866L-2722.75 339.348L-2724.52 340.068L-2731.75 343.178L-2739.37 346.545L-2758.77 355.011L-2765.26 357.871L-2773.92 361.748C-2774.63 361.451 -2775.29 361.073 -2775.89 360.622C-2777.12 359.593 -2778.5 359.289 -2778.98 359.967C-2779.46 360.645 -2782.04 360.461 -2784.79 359.508C-2786.75 358.686 -2788.9 358.313 -2791.06 358.423C-2792.92 359.294 -2800.37 353.614 -2800.35 351.43C-2800.45 350.166 -2801.41 349.076 -2802.76 348.681ZM662.475 302.515C660.955 303.261 659.435 304.017 657.968 304.747L657.955 304.753C653.105 307.158 648.837 309.277 647.476 309.801C646.683 310.111 644.594 311.132 641.78 312.508L641.766 312.513C638.357 314.178 633.904 316.36 629.371 318.427C626.08 319.907 622.816 321.434 619.525 322.966C617.569 323.876 615.613 324.788 613.657 325.694L605.464 329.319C600.588 331.539 594.641 334.049 588.76 336.531L588.747 336.535C585.496 337.908 582.258 339.271 579.232 340.573L562.66 347.32C561.656 347.754 552.18 351.615 541.41 355.71L526.397 361.422L520.992 363.392L515.838 365.407C499.953 371.826 459.29 386.964 417.794 400.506C407.195 404.067 395.83 407.609 386.196 410.544C382.694 411.609 379.417 412.624 376.457 413.537C371.276 415.139 367.113 416.428 364.576 417.12L364.299 417.202C340.815 424.058 282.166 441.185 203.403 458.013C163.77 466.421 119.063 474.657 71.3555 482.045C23.6484 489.435 -27.1248 495.401 -78.7173 499.77C-178.347 508.131 -278.598 510.635 -378.836 507.265C-448.943 505.295 -518.878 498.521 -588.008 487.002C-618.085 482.374 -663.784 472.345 -689.44 465.722C-695.921 464.247 -702.095 462.472 -707.841 460.786L-723.492 456.306L-740.044 451.571C-742.4 450.779 -745.186 449.901 -746.344 449.564C-747.501 449.225 -750.117 448.389 -752.259 447.642C-752.582 447.528 -753.385 447.271 -754.601 446.88C-761.448 444.677 -781.417 438.251 -802.941 429.764C-814.17 425.78 -826.042 420.812 -836.856 416.286L-839.438 415.206C-840.122 414.921 -840.801 414.637 -841.475 414.357C-853.46 409.357 -863.471 404.756 -868.988 402.117C-871.355 401.025 -873.746 399.941 -876.155 398.85C-880.846 396.726 -885.604 394.571 -890.38 392.263L-912.272 381.399C-919.757 377.786 -927.193 373.828 -934.759 369.791C-936.991 368.599 -939.243 367.405 -941.506 366.208L-941.51 366.207L-941.527 366.198C-946.92 363.342 -952.369 360.456 -957.753 357.477C-988.733 340.538 -1020.63 321.502 -1053.43 301.867C-1058.9 298.591 -1064.39 295.291 -1069.91 291.977L-1069.91 291.975C-1097.47 275.423 -1125.63 258.509 -1154.6 242.426C-1189.26 222.924 -1225.01 205.056 -1261.72 188.898L-1277.81 182.141L-1278.31 181.926C-1283.4 179.75 -1288.38 177.625 -1293.39 175.857L-1323.16 164.748C-1327.05 163.483 -1330.88 162.224 -1334.65 160.983C-1349.68 156.036 -1363.78 151.395 -1377.43 147.967C-1380.4 147.17 -1383.31 146.343 -1386.18 145.528C-1391.59 143.991 -1396.85 142.497 -1402.09 141.332L-1425.39 135.96L-1436.51 133.403C-1438.82 132.854 -1441.14 132.444 -1443.45 132.037C-1444.78 131.804 -1446.1 131.571 -1447.41 131.312L-1468.41 127.46C-1478.54 125.423 -1488.46 124.092 -1498.19 122.789H-1498.19C-1501.53 122.341 -1504.85 121.896 -1508.15 121.427L-1527.26 118.776L-1546.35 116.971L-1565.44 115.204L-1575.11 114.297C-1578.34 114.213 -1581.61 114.127 -1584.88 113.734L-1625.7 111.589H-1625.7C-1633.62 111.382 -1643.68 111.118 -1655.13 111.049C-1658.81 111.026 -1662.62 110.952 -1666.55 110.877C-1674.87 110.717 -1683.68 110.547 -1692.75 110.831L-1733.69 111.486L-1773.02 113.259C-1785.12 113.693 -1797.57 114.673 -1809.77 115.633L-1810.54 115.693C-1814.36 115.994 -1818.16 116.269 -1821.92 116.543H-1821.93C-1830.41 117.158 -1838.68 117.757 -1846.48 118.591C-1855.34 119.513 -1863.63 120.347 -1871 121.09H-1871H-1871.01C-1882.28 122.225 -1891.41 123.144 -1897.17 123.829C-1902.84 124.536 -1908.32 125.208 -1913.59 125.855L-1913.6 125.857C-1935.3 128.52 -1953.7 130.778 -1969.35 133.457L-1995.62 137.376L-2016.54 140.898L-2046.01 145.924C-2050.83 146.762 -2054.94 147.557 -2058.64 148.275L-2058.64 148.276C-2060.84 148.702 -2062.89 149.1 -2064.86 149.462C-2067.59 149.989 -2070.86 150.61 -2074.46 151.297L-2074.51 151.305L-2074.51 151.307C-2088.01 153.878 -2106.35 157.371 -2119.89 160.346C-2128.52 162.192 -2139.27 164.445 -2149.72 166.628L-2177.31 172.972L-2196.65 177.417L-2223.99 184.189C-2240.35 188.097 -2258.93 193.055 -2278.2 198.196L-2278.21 198.197L-2278.22 198.201C-2283 199.476 -2287.83 200.763 -2292.67 202.049C-2341.27 215.328 -2390.97 230.613 -2416.17 238.554L-2456.86 251.734C-2467.67 255.43 -2478.1 258.95 -2486.51 261.792L-2486.52 261.794L-2486.58 261.814C-2488.93 262.61 -2491.13 263.352 -2493.13 264.03C-2527.73 276.025 -2562.98 288.464 -2617.75 309.682L-2633.98 315.977L-2643.85 319.905C-2648.4 321.732 -2652.65 323.465 -2657.19 325.314L-2657.21 325.319L-2657.21 325.32C-2662.15 327.333 -2667.44 329.486 -2673.84 332.057C-2674.92 332.513 -2676.28 333.083 -2677.79 333.72C-2681.81 335.403 -2686.95 337.555 -2690.94 339.289L-2706.43 345.833C-2719.1 351.184 -2731.77 356.638 -2744.44 362.193L-2769.35 373.367C-2770.24 374.684 -2771.02 376.063 -2771.68 377.491C-2772.67 380.187 -2774.35 382.628 -2776.6 384.618C-2777.85 385.2 -2778.79 388.017 -2778.62 390.902C-2778.61 395.64 -2776.49 400.215 -2772.72 403.613L-2759.12 397.518L-2753.1 394.872L-2734.83 387.018L-2727.65 383.905L-2720.85 380.972L-2719.16 380.288L-2709.29 376.13L-2694.49 369.99L-2678.52 363.498L-2647.62 351.252C-2643.46 349.66 -2639.28 348.046 -2635.22 346.478C-2626.99 343.302 -2619.23 340.308 -2613.01 338.029C-2592.07 329.939 -2557.33 316.948 -2535.71 309.336C-2521.04 304.038 -2490.73 293.466 -2453.24 281.086C-2415.76 268.706 -2371.11 254.863 -2327.51 242.489C-2283.92 230.116 -2242.23 219.113 -2210.88 211.718L-2189.55 206.516L-2173.01 202.764L-2158.03 199.318L-2146.89 196.845C-2142.66 195.828 -2137.37 194.748 -2131.46 193.539L-2131.45 193.537C-2127.91 192.812 -2124.13 192.041 -2120.22 191.209C-2109.77 188.986 -2097.68 186.462 -2086.42 184.414L-2058.33 179.16C-2056.48 178.826 -2054.4 178.434 -2052.1 178.002C-2048.18 177.261 -2043.61 176.402 -2038.44 175.496L-2009.49 170.687L-1992.24 167.798L-1973.13 164.998C-1968.41 164.354 -1963.56 163.635 -1958.59 162.9L-1958.58 162.899C-1949.63 161.572 -1940.29 160.189 -1930.61 159.084C-1863.82 150.239 -1796.47 144.773 -1728.86 142.714L-1688.17 142.09C-1682.66 141.934 -1677.13 142.037 -1671.61 142.142C-1670.1 142.17 -1668.59 142.199 -1667.08 142.221L-1646.38 142.533L-1626.59 143.052L-1608.52 143.985L-1579.49 145.514L-1551.29 148.097L-1537.92 149.33L-1531.43 149.961L-1525.07 150.819L-1500.66 154.145L-1488.93 155.759C-1486.54 156.085 -1484.18 156.532 -1481.84 156.976L-1481.83 156.977C-1480.43 157.242 -1479.04 157.506 -1477.64 157.744C-1449.55 162.483 -1421.74 168.557 -1394.33 175.939L-1374.26 181.533C-1369.6 182.704 -1365.05 184.231 -1360.44 185.775L-1360.44 185.776C-1358.31 186.491 -1356.16 187.211 -1353.99 187.9C-1347.13 190.076 -1340.23 192.331 -1333.16 194.743L-1311.75 202.792L-1300.57 206.924L-1289.27 211.674C-1286.66 212.789 -1284.01 213.893 -1281.33 215.008C-1276.16 217.164 -1270.89 219.363 -1265.55 221.78L-1240.44 233.42C-1235.05 235.984 -1229.51 238.781 -1223.85 241.646L-1223.84 241.648C-1220.53 243.323 -1217.17 245.023 -1213.76 246.713C-1170.39 268.642 -1115.99 301.284 -1083.54 320.758L-1083.54 320.761L-1083.51 320.777C-1079.6 323.124 -1076.01 325.279 -1072.79 327.201C-1021.55 357.84 -970.507 387.477 -917.008 413.721C-863.255 440.282 -807.061 462.595 -749.081 480.401L-712.974 490.639C-708.739 491.897 -704.575 492.951 -700.546 493.97L-700.525 493.975C-699.301 494.285 -698.088 494.592 -696.89 494.9L-682.045 498.476C-678.097 499.394 -674.314 500.296 -670.685 501.16C-665.594 502.372 -660.811 503.512 -656.304 504.526L-635.397 508.683C-631.116 509.517 -627.217 510.304 -623.702 511.013L-623.689 511.016C-617.094 512.345 -611.835 513.408 -607.91 514.012L-597.999 515.576L-595.501 515.987L-578.704 518.654L-561.524 521.37C-557.124 522.052 -552.392 522.604 -547.384 523.187C-544.926 523.474 -542.402 523.769 -539.825 524.088C-508.584 528.249 -469.07 531.587 -434.803 533.753L-383.528 536.21L-364.326 536.712C-363.163 536.664 -362 536.695 -360.85 536.803L-350.384 537.078C-343.155 537.267 -331.75 537.565 -314.544 537.709C-309.165 537.658 -303.232 537.637 -296.677 537.614C-261.26 537.487 -208.002 537.298 -129.676 531.994C-120.676 531.308 -112.852 530.749 -106.073 530.264L-106.046 530.263L-106.033 530.261C-94.4961 529.435 -86.012 528.829 -79.9595 528.189L-67.0215 526.993L-65.6077 527.03C-65.0923 527.043 -63.6252 526.882 -60.4668 526.535C-57.2556 526.182 -52.313 525.637 -44.833 524.887L-43.8552 524.792C-36.5339 524.079 -27.0322 523.155 -14.6497 521.568C-10.3149 521.013 -5.67627 520.483 -0.694092 519.914L-0.680908 519.912C9.2041 518.784 20.437 517.502 33.2424 515.566L71.6726 510.084L106.059 503.997C120.939 501.739 135.053 499.04 149.14 496.35C155.484 495.139 161.814 493.929 168.197 492.762C209.112 484.427 252.577 475.39 315.865 458.234C318.415 457.523 321.441 456.702 324.811 455.788L324.838 455.78L324.864 455.775C331.128 454.075 338.568 452.055 346.365 449.817L382.192 439.237L416.301 428.612L442.797 419.745C447.436 418.249 454.374 415.795 462.369 412.966C464.431 412.237 466.558 411.481 468.752 410.711C479.39 406.957 490.94 402.69 501.103 398.849C502.107 398.469 503.099 398.095 504.09 397.723L506.032 396.996L506.046 396.987C510.288 395.399 514.411 393.849 518.415 392.237L532.608 386.657C533.454 386.335 534.273 386.019 535.093 385.71V385.709C537.907 384.64 540.551 383.637 543.035 382.629L559.818 375.89C561.946 375.076 564.986 373.839 568.184 372.536C571.474 371.192 574.95 369.776 577.778 368.681C593.147 362.364 603.323 357.831 609.997 354.819L624.851 348.066C636.19 342.911 647.409 337.56 658.629 331.979C659.012 331.789 659.541 331.523 660.215 331.184L660.228 331.18C665.673 328.45 680.487 321.011 698.989 310.575C697.363 309.941 695.592 309.671 693.835 309.787C693.068 309.767 692.566 308.755 692.804 307.264C693.359 303.44 688.628 297.057 683.751 294.51C682.919 294.041 682.126 293.492 681.412 292.874L679.509 293.899C677.25 294.929 672.268 297.489 667.127 300.125C665.567 300.927 663.995 301.739 662.475 302.515ZM730.983 337.291C727.071 339.685 723.212 338.586 724.666 336.089C727.217 331.854 721.508 320.645 716.274 320.084C714.834 319.931 713.459 319.416 712.323 318.599C704.433 323.192 696.015 327.696 686.302 332.817C667.959 342.438 649.59 351.326 631.049 359.827C630.256 360.185 629.106 360.709 627.732 361.342C624.058 363.026 618.732 365.469 613.988 367.522L598.87 374.115L580.725 381.781C574.593 384.498 569.096 386.585 566.505 387.568C565.633 387.896 565.105 388.102 564.973 388.165L556.792 391.369L516.023 407.276C511.979 408.783 508.081 410.248 504.394 411.641C497.35 414.292 491.007 416.677 485.734 418.579L470.417 424.246C467.682 425.249 441.608 434.436 412.032 443.837C387.809 451.538 363.968 458.475 353.145 461.626L353.132 461.629C350.74 462.324 348.995 462.836 348.004 463.129L307.909 473.753C302.557 475.068 296.914 476.496 291.073 477.976L291.06 477.979C277.646 481.378 263.162 485.048 248.52 488.25C245.163 489.011 241.753 489.807 238.357 490.598C230.851 492.347 223.397 494.085 216.684 495.442L194.879 499.978C171.488 504.973 112.428 517.02 33.6257 527.551C-58.6433 539.808 -151.771 546.911 -245.23 548.817C-253.82 549.166 -262.436 549.178 -271.066 549.188C-275.136 549.195 -279.219 549.2 -283.29 549.241C-295.99 549.369 -308.703 549.421 -321.35 549.281L-359.238 548.557L-378.043 548.064C-382.246 547.954 -386.475 547.74 -390.677 547.527C-392.752 547.421 -394.827 547.317 -396.888 547.224L-434.103 545.405L-443.313 545.163L-452.432 544.425L-470.577 542.912C-474.66 542.558 -478.704 542.226 -482.735 541.896H-482.748C-490.598 541.254 -498.368 540.618 -506.06 539.833L-540.446 535.744L-557.084 533.734C-560.877 533.233 -564.656 532.623 -568.383 532.019L-568.396 532.018C-570.035 531.753 -571.66 531.489 -573.286 531.235L-604.513 526.269L-612.033 525.074L-619.42 523.613L-633.812 520.74L-661.115 515.262L-708.584 503.841L-745.47 493.389C-750.968 491.929 -756.913 489.989 -763.15 487.953L-763.166 487.947C-765.296 487.252 -767.46 486.545 -769.653 485.843L-796.23 477.121L-821.679 467.659C-829.734 464.721 -837.102 461.994 -843.095 459.418C-846.954 457.818 -850.756 456.258 -854.428 454.752C-862.322 451.514 -869.605 448.526 -875.507 445.933L-891.085 438.882C-893.311 437.863 -895.965 436.68 -897.077 436.228C-898.191 435.777 -900.673 434.675 -902.684 433.7C-902.902 433.594 -903.354 433.377 -904.018 433.062L-904.022 433.059L-904.027 433.056C-909.465 430.453 -928.996 421.104 -950.248 410.219C-974.108 397.996 -1001.54 382.569 -1011.71 376.771C-1037.56 361.962 -1065.29 345.491 -1094.16 328.181C-1123.03 310.873 -1153.19 292.993 -1184.43 275.661C-1215.87 258.242 -1248.25 242.232 -1281.44 227.688C-1314.72 213.223 -1349.09 200.925 -1384.28 190.892L-1399.55 186.651C-1400.81 186.309 -1402.06 185.96 -1403.31 185.612C-1407.01 184.579 -1410.65 183.565 -1414.31 182.808L-1442.42 176.348C-1445.84 175.432 -1449.51 174.778 -1453.08 174.143C-1453.99 173.981 -1454.89 173.82 -1455.78 173.656L-1468.66 171.283L-1481.12 169.036C-1485.16 168.239 -1489.15 167.52 -1493.15 167.031L-1516.23 163.893C-1518.58 163.589 -1520.89 163.255 -1523.18 162.924C-1528.13 162.209 -1532.95 161.514 -1537.72 161.178L-1577.62 157.445C-1584.75 157.108 -1591.68 156.725 -1598.5 156.348H-1598.5C-1616.06 155.378 -1632.8 154.453 -1649.83 154.478C-1661.62 154.169 -1673.41 153.86 -1685.6 154.078L-1723.41 154.662C-1728.53 154.529 -1734.61 154.852 -1741.41 155.213C-1744.39 155.372 -1747.49 155.537 -1750.72 155.674C-1753.06 155.775 -1755.45 155.873 -1757.91 155.973C-1766.6 156.327 -1775.97 156.709 -1785.62 157.296C-1789.58 157.579 -1793.6 157.86 -1797.65 158.144C-1818.91 159.634 -1840.98 161.181 -1860.14 163.292C-1863.72 163.687 -1867.34 164.085 -1870.99 164.485C-1890.58 166.636 -1910.83 168.859 -1928.35 170.991C-1940.08 172.417 -1950.75 173.967 -1959.42 175.228H-1959.42H-1959.42C-1966.12 176.202 -1971.63 177.002 -1975.5 177.436C-1985.66 178.806 -1995.09 180.411 -2003.83 181.893C-2006.78 182.396 -2009.64 182.882 -2012.43 183.343C-2015.55 183.857 -2018.6 184.342 -2021.57 184.815C-2029.13 186.021 -2036.19 187.145 -2042.64 188.465L-2086.66 196.683L-2132.04 206.285L-2183.47 217.764C-2189 219.117 -2195.51 220.676 -2202.21 222.282L-2202.21 222.283C-2214.93 225.333 -2228.35 228.551 -2237.12 230.836C-2240.21 231.652 -2244.08 232.655 -2248.6 233.828L-2248.61 233.829C-2257.26 236.073 -2268.29 238.935 -2280.81 242.289C-2299.86 247.396 -2322.38 253.68 -2345.11 260.458C-2390.67 273.781 -2437.33 288.765 -2460.94 296.71C-2472.23 300.485 -2486.02 305.117 -2499.09 309.727C-2502.74 311.017 -2506.35 312.285 -2509.83 313.51C-2518.82 316.665 -2527.01 319.542 -2533.18 321.815C-2549.13 327.478 -2565.17 333.473 -2583.61 340.36L-2583.61 340.363L-2584.54 340.708L-2622.62 355.265L-2642.31 362.89L-2670.66 374.206L-2686.81 380.81L-2701.44 386.878C-2704.34 388.07 -2720.58 394.826 -2737.3 402.069L-2757.56 411.062C-2752.33 411.531 -2747.06 411.229 -2741.97 410.165C-2740.41 409.476 -2738.91 410.245 -2737.9 411.846C-2736.56 413.713 -2734.63 415.183 -2732.36 416.061C-2729.49 417.136 -2728.81 417.844 -2729.86 418.816C-2730.64 419.984 -2730.66 421.447 -2729.91 422.655C-2729.11 424.02 -2729.08 425.403 -2729.95 425.726C-2730.81 426.048 -2730.79 427.24 -2730.2 428.292C-2729.61 429.344 -2729.62 430.458 -2730.23 430.787C-2732.96 432.022 -2733.29 437.543 -2730.85 441.64C-2729.62 443.336 -2729.03 445.331 -2729.16 447.329C-2730.04 448.765 -2725.63 454.181 -2722.42 455.61C-2717.07 454.788 -2711.92 453.155 -2707.2 450.785C-2698.55 447.172 -2693.1 445.547 -2691.9 446.232C-2688.61 446.381 -2685.36 445.65 -2682.57 444.133C-2679.29 442.522 -2675.59 441.695 -2671.82 441.727C-2669.61 442.093 -2667.36 441.544 -2665.69 440.236C-2664.08 439.011 -2662.18 438.332 -2661.36 438.736C-2657.61 438.175 -2654.02 436.964 -2650.81 435.173C-2646.51 433.155 -2641.97 431.562 -2637.27 430.42C-2634.9 430.137 -2632.69 429.12 -2632.33 428.13C-2631.97 427.141 -2630.07 426.307 -2627.7 426.178C-2625 425.872 -2622.47 424.901 -2620.39 423.374C-2618.03 421.477 -2616.82 421.201 -2616.07 422.373C-2614.93 424.515 -2604.68 420.867 -2604.39 418.225C-2604.37 416.804 -2603.16 416.605 -2600.37 417.446C-2597.58 418.287 -2596.42 418.164 -2595.71 416.339C-2594.99 414.515 -2594.3 414.303 -2592.47 415.426C-2590.63 416.549 -2590.02 416.412 -2589.79 414.728C-2589.47 413.422 -2588.2 412.489 -2586.7 412.467C-2585.19 412.505 -2584.24 411.801 -2584.57 411.14C-2584.91 410.478 -2582.82 408.958 -2579.92 407.843L-2539.44 391.238C-2514.42 380.795 -2457.82 359.735 -2413.97 345.446L-2378.21 333.671L-2343.62 322.788L-2302.81 310.416C-2297.64 308.854 -2292.6 307.435 -2287.8 306.081C-2285.21 305.353 -2282.69 304.644 -2280.25 303.94C-2277.48 303.169 -2274.98 302.504 -2272.82 301.985C-2270.49 301.204 -2268.03 300.775 -2265.53 300.716C-2265.06 301.267 -2264.46 301.321 -2264.19 300.752C-2262.91 300.149 -2261.56 299.657 -2260.17 299.282C-2257.66 298.427 -2254.03 297.217 -2249.53 295.912L-2214.74 285.764L-2157.14 270.03L-2133.84 263.306L-2108.17 255.913C-2104.46 254.856 -2101.01 253.861 -2097.73 252.919L-2097.73 252.918C-2084.79 249.19 -2074.7 246.284 -2063.22 243.611L-2031.87 236.061C-2022.38 233.885 -2013.96 232.033 -2006.3 230.35L-2006.29 230.347H-2006.29C-2001.82 229.364 -1997.61 228.439 -1993.61 227.539L-1978.15 224.104L-1963.77 221.37C-1958.62 220.405 -1953.47 219.398 -1948.31 218.391L-1948.3 218.389L-1948.3 218.387C-1939.59 216.687 -1930.87 214.982 -1922.12 213.475C-1915.3 212.31 -1905.21 210.807 -1893.52 209.155C-1881.83 207.502 -1868.59 205.968 -1855.52 204.658C-1829.44 201.694 -1804.19 200.319 -1793.94 200.128L-1779.25 199.783L-1763.49 199.697L-1734.6 199.532C-1730.59 199.47 -1725.94 199.546 -1718.82 199.661H-1718.81H-1718.8C-1716.07 199.706 -1712.98 199.756 -1709.42 199.808L-1685.05 200.1L-1668.35 200.538L-1648.04 201.377L-1637.63 201.65C-1633.32 201.763 -1627.94 201.904 -1622.4 202.356L-1586 204.692C-1581.98 204.798 -1577.81 205.29 -1573.53 205.795C-1571.31 206.058 -1569.06 206.323 -1566.78 206.54L-1546.88 208.674L-1537.42 209.69L-1528.82 211.029L-1514.78 213.241C-1512.17 213.666 -1509.6 214.066 -1507.08 214.461H-1507.08C-1503.08 215.086 -1499.18 215.695 -1495.36 216.361L-1477.32 220.021L-1459.33 223.527L-1440.87 227.851C-1438.64 228.395 -1436.38 228.927 -1434.09 229.467C-1429.85 230.465 -1425.46 231.498 -1420.79 232.717L-1398.44 239.063C-1392.05 240.697 -1385.45 242.9 -1378.41 245.246C-1376.61 245.846 -1374.79 246.454 -1372.93 247.066L-1358.7 251.702C-1355.32 252.904 -1351.87 254.219 -1348.32 255.571C-1346.73 256.175 -1345.12 256.787 -1343.49 257.4C-1307.39 271.06 -1272.35 286.94 -1238.64 304.925C-1204.95 322.706 -1172.87 341.941 -1145.2 358.604C-1139.77 361.895 -1125.08 370.383 -1112.22 377.671C-1103.65 382.269 -1095.41 387.359 -1087.58 392.911C-1087.03 393.981 -1085.73 394.577 -1084.45 394.337C-1083.11 394.073 -1081.69 394.318 -1080.54 395.015C-1079.39 395.698 -1068.19 401.867 -1054.89 408.744C-1052.67 409.914 -1050.18 411.223 -1047.5 412.636L-1047.48 412.647C-1042.29 415.384 -1036.36 418.509 -1030.14 421.759L-1003.37 435.325C-998.433 437.716 -992.704 440.563 -986.243 443.774L-986.235 443.778L-986.233 443.779C-963.621 455.015 -932.028 470.716 -894.01 487.001C-840.003 510.211 -784.122 529.651 -726.874 545.146C-672.646 559.4 -617.557 570.717 -561.907 579.039C-551.864 580.334 -542.336 581.65 -533.429 582.881C-521.456 584.536 -510.593 586.036 -501.091 587.123C-498.421 587.428 -495.857 587.719 -493.413 587.997C-480.673 589.447 -470.986 590.549 -465.079 591.445C-460.255 592.148 -445.6 594.145 -432.57 595.024L-396.36 598.085L-381.876 599.425L-371.885 600.185C-368.542 600.503 -350.979 601.386 -332.821 602.131C-327.244 602.359 -321.852 602.561 -317.002 602.743H-316.989C-306.046 603.154 -297.879 603.459 -296.717 603.729C-292.422 604.456 -249.102 606.782 -222.658 606.4C-217.914 606.167 -213.13 606.512 -208.465 607.424C-199.32 608.443 -190.096 608.685 -180.924 608.146C-166.533 607.639 -152.194 607.285 -149.089 607.405C-145.996 607.524 -133.984 607.609 -122.486 607.143C-110.976 606.676 -97.3245 606.303 -92.3291 606.243C-85.999 606.139 -80.0125 606.027 -73.8145 605.806C-67.8279 605.592 -61.5505 605.135 -54.4937 604.621L-53.7273 604.566L-28.2615 602.507C-18.4822 601.764 -7.18286 600.524 6.23071 598.956L35.5156 595.652C41.502 594.983 47.2507 594.177 52.7615 593.404C55.7085 592.992 58.5764 592.589 61.3911 592.221L84.333 588.982C92.804 587.823 101.063 586.445 109.164 585.094C114.807 584.152 120.371 583.223 125.882 582.389L145.612 579.065L164.603 575.493C188.258 571.204 210.38 566.495 231.221 562.057L231.274 562.047C235.198 561.21 239.071 560.384 242.916 559.571C267.14 554.445 289.249 548.957 309.693 543.617C348.546 533.934 381.095 524.431 408.86 516.324L413.407 514.998C457.704 501.556 488.641 490.992 510.948 483.375V483.372L510.988 483.363C517.344 481.189 523.014 479.254 528.089 477.563C541.502 472.669 555.206 468.414 569.148 464.814C570.113 464.618 571.118 464.365 572.188 464.096L572.201 464.092C572.611 463.988 573.034 463.881 573.47 463.775C573.695 463.701 573.906 463.636 574.131 463.581C574.316 463.535 574.5 463.494 574.686 463.461L575.452 463.482C576.245 463.33 576.946 462.974 577.501 462.459C583.117 458.401 589.223 454.916 595.711 452.068C598.566 450.557 600.984 448.496 602.821 446.034C603.865 444.042 605.966 442.66 608.424 442.34C617.331 442.189 625.697 437.992 620.595 436.207C617.82 435.212 629.291 429.906 632.251 430.713C635.212 431.521 641.938 427.626 647.819 422.25C650.264 419.871 653.211 417.963 656.515 416.64C663.07 413.559 668.831 409.29 673.43 404.103C676.457 401.387 679.84 399.002 683.514 396.993C686.897 395.196 689.857 392.821 692.209 390.002C694.733 387.256 697.892 385.035 701.473 383.486C705.808 381.218 709.68 378.439 709.733 377.366C712.534 373.615 715.984 370.285 719.935 367.494C723.939 364.831 727.269 361.472 729.754 357.613C729.767 356.73 730.917 355.07 732.952 353.856C735.304 352.262 737.154 350.157 738.331 347.737C738.978 346.536 739.441 345.255 739.678 343.932C740.101 342.9 740.115 341.761 739.718 340.708C738.542 338.296 737.273 336.803 735.727 336.455C734.948 336.229 734.102 336.208 733.322 336.392C732.463 336.525 731.67 336.833 730.983 337.291Z" fill="#F0F2F9"/>
</svg>
