<svg width="1245" height="574" viewBox="0 0 1245 574" fill="none" xmlns="http://www.w3.org/2000/svg">
<mask id="mask0_63_1129" style="mask-type:alpha" maskUnits="userSpaceOnUse" x="0" y="0" width="1245" height="574">
<path d="M0.5 0.500061V572.696H1244.31V0.500061H0.5Z" fill="#B1D136" stroke="black"/>
</mask>
<g mask="url(#mask0_63_1129)">
<path fill-rule="evenodd" clip-rule="evenodd" d="M-554.46 784.122C-563.292 782.453 -576.169 779.614 -588.318 776.541C-600.486 773.496 -611.91 770.193 -618.209 768.271C-623.559 766.697 -630.401 764.496 -633.489 763.516C-638.189 761.965 -642.889 760.425 -647.549 758.789C-652.213 757.194 -656.381 755.632 -656.897 755.464C-657.397 755.275 -658.102 755.008 -658.457 754.873C-658.819 754.739 -661.699 753.669 -664.874 752.488C-668.041 751.275 -671.086 750.108 -671.661 749.888C-678.633 747.122 -685.83 744.086 -688.773 742.799C-690.782 741.92 -693.347 740.798 -694.493 740.296C-695.202 739.975 -697.25 739.045 -699.74 737.917C-701.012 737.322 -702.399 736.677 -703.782 736.03C-705.326 735.286 -706.87 734.543 -708.28 733.86C-708.198 731.974 -707.445 730.339 -706.082 728.926C-705.397 728.221 -704.562 727.57 -703.581 726.97C-702.604 726.366 -701.426 725.84 -700.339 725.242C-697.896 724.037 -695.072 723.447 -693.89 723.981C-692.716 724.513 -688.895 724.49 -685.48 723.886C-683.963 723.619 -682.395 723.463 -680.981 723.402C-675.592 725.686 -667.623 728.937 -658.59 732.327C-647.241 736.613 -635.766 740.565 -624.146 744.224C-621.329 745.093 -614.947 747.057 -609.901 748.49C-607.396 749.236 -604.347 750.062 -601.479 750.848C-598.615 751.645 -595.913 752.364 -594.073 752.825C-582.665 755.814 -574.976 757.504 -566.033 759.479C-563.646 759.967 -560.243 760.664 -556.686 761.391C-553.129 762.119 -549.37 762.764 -546.353 763.336C-543.993 763.788 -541.724 764.161 -539.546 764.514C-538.002 764.768 -536.489 765.016 -535.008 765.259C-532.329 765.719 -529.674 766.092 -527.078 766.459C-524.478 766.825 -521.933 767.184 -519.44 767.536C-516.931 767.838 -514.469 768.134 -512.054 768.425C-507.236 769.05 -502.533 769.43 -498.01 769.884C-479.858 771.511 -463.873 772.042 -448.041 771.822C-443.845 771.843 -438.697 771.574 -433.012 771.363C-430.172 771.29 -427.186 771.016 -424.118 770.818C-421.045 770.571 -417.886 770.448 -414.687 770.072C-401.888 768.945 -388.487 766.866 -377.596 764.843C-375.223 764.418 -372.198 763.701 -368.615 762.919C-366.827 762.514 -364.901 762.078 -362.852 761.615C-360.823 761.073 -358.674 760.5 -356.418 759.897H-356.412C-356.412 759.897 -355.879 759.753 -355.58 759.671C-349.963 758.261 -343.815 756.244 -337.087 754.107C-333.738 752.998 -330.312 751.676 -326.729 750.385C-324.951 749.707 -323.099 749.106 -321.295 748.328C-319.481 747.571 -317.637 746.802 -315.762 746.02C-300.512 739.68 -281.93 730.471 -262.747 717.546C-257.842 714.427 -253.204 710.8 -248.296 707.205C-245.806 705.435 -243.512 703.449 -241.112 701.501C-238.732 699.537 -236.322 697.547 -233.882 695.533C-224.547 687.175 -215.019 678.209 -206.321 668.269C-204.144 665.788 -201.832 663.343 -199.726 660.768C-197.638 658.184 -195.535 655.578 -193.416 652.954C-192.361 651.641 -191.304 650.321 -190.241 648.998C-189.252 647.643 -188.26 646.283 -187.263 644.919C-185.278 642.188 -183.279 639.439 -181.268 636.675C-179.282 633.9 -177.506 631.024 -175.604 628.177C-173.765 625.308 -171.774 622.473 -170.041 619.533C-168.307 616.594 -166.563 613.641 -164.813 610.676C-163.941 609.193 -163.066 607.707 -162.189 606.217C-161.344 604.72 -160.572 603.196 -159.758 601.682C-146.633 577.48 -135.986 551.828 -127.52 526.021C-119.038 500.209 -112.705 474.238 -107.833 449.182C-106.715 442.913 -105.609 436.703 -104.518 430.567C-103.452 424.431 -102.685 418.355 -101.774 412.375C-100.941 406.546 -100.12 400.801 -99.313 395.154C-98.9498 392.404 -98.5252 389.694 -98.0875 387.015C-97.6487 384.336 -97.2611 381.667 -96.7923 379.052C-94.9838 368.566 -92.8932 358.617 -90.6943 349.27C-88.3887 339.964 -85.9617 331.268 -83.3708 323.335C-78.1407 307.493 -72.4476 294.653 -67.3057 285.435C-64.1236 279.577 -60.6823 274.282 -57.2476 269.417C-53.7405 264.617 -50.1266 260.372 -46.5596 256.604C-39.2888 249.236 -32.1492 243.944 -25.8061 240.485C-18.1321 236.061 -7.45819 232.114 4.07788 230.311C9.81952 229.363 15.7693 229 21.3741 228.926C24.1644 228.838 26.9163 228.983 29.4843 229.031C32.0836 229.207 34.5078 229.288 36.7593 229.522C45.7374 230.305 54.4006 231.788 60.9902 233.127C67.5869 234.475 72.1155 235.674 72.9651 235.844C74.678 236.288 76.7173 236.857 77.5269 237.107C78.3419 237.358 80.2571 237.863 81.849 238.3C82.718 238.54 87.3297 239.811 94.093 241.918C100.852 244.052 109.754 247.078 119.179 250.625C128.613 254.175 138.848 258.359 147.739 262.184C156.634 265.996 164.182 269.458 168.32 271.342C210.245 290.53 258.858 316.447 310.775 344.092C362.727 371.696 418.192 400.939 474.574 425.884C508.149 440.762 537.272 452.043 563.373 460.777C589.471 469.53 612.535 475.742 634.091 480.464C655.678 485.103 675.788 488.247 696.292 490.015C706.534 490.94 716.894 491.418 727.566 491.531C738.241 491.639 749.251 491.353 760.786 490.388C773.655 489.426 793.619 486.941 814.671 481.642C825.208 479.061 835.962 475.713 846.248 471.929C847.536 471.459 848.82 470.989 850.1 470.521C851.373 470.044 852.618 469.518 853.874 469.02C856.336 468.03 858.775 467.047 861.19 466.076C865.668 464.293 870.033 462.554 874.221 460.887C891.151 454.586 909.674 448.713 925.979 444.935C926.991 444.678 927.992 444.423 928.98 444.171C929.985 443.96 930.977 443.751 931.954 443.544C933.908 443.134 935.815 442.734 937.662 442.347C941.369 441.602 944.804 440.769 948.011 440.244C954.42 439.171 959.636 438.297 963.165 437.706C984.764 434.554 1002.68 433.622 1017.47 433.172C1024.87 433.147 1031.49 432.913 1037.45 433.19C1043.4 433.381 1048.7 433.407 1053.41 433.793C1058.14 434.096 1062.3 434.363 1066.02 434.6C1069.72 434.965 1072.98 435.284 1075.91 435.571C1078.83 435.878 1081.43 436.064 1083.79 436.386C1086.14 436.697 1088.27 436.98 1090.29 437.246C1092.77 437.572 1095.81 437.97 1099.18 438.413C1102.54 438.966 1106.23 439.573 1110.02 440.197C1111.92 440.507 1113.83 440.823 1115.75 441.139C1117.66 441.513 1119.56 441.887 1121.43 442.254C1125.18 442.99 1128.8 443.701 1132.06 444.342C1145.05 447.178 1164.47 451.915 1175.08 455.226C1176.87 455.745 1178.99 456.359 1181.4 457.059C1183.79 457.82 1186.47 458.675 1189.39 459.608C1192.31 460.558 1195.51 461.516 1198.87 462.67C1202.22 463.834 1205.78 465.071 1209.52 466.367C1224.39 471.674 1241.81 478.412 1259.11 486.046C1276.42 493.675 1293.66 502.081 1308.65 509.881C1312.38 511.851 1315.99 513.756 1319.44 515.578C1322.86 517.458 1326.12 519.252 1329.18 520.941C1335.35 524.274 1340.58 527.413 1344.88 529.839C1353.01 534.569 1362.86 540.493 1372.12 546.296C1381.38 552.098 1390.08 557.739 1396.05 561.738C1407.34 569.206 1418.6 577.008 1431.37 586.202C1444.14 595.403 1458.4 606.023 1475.34 619.471C1486.24 628.039 1501.88 641.011 1510.18 648.147C1518.05 654.836 1525.23 661.171 1532.94 668.033C1534.86 669.762 1536.81 671.523 1538.81 673.33C1540.28 674.672 1541.8 676.047 1543.36 677.471C1544.99 678.97 1546.72 680.568 1548.61 682.313C1551.03 684.575 1555.74 688.987 1559.09 692.126C1562.42 695.277 1566.64 699.324 1568.49 701.125C1576.19 708.523 1583.78 716.003 1591.22 723.571C1597.14 729.592 1602.31 735.011 1605.76 738.687C1605.93 739.814 1606.01 741.084 1605.95 742.33C1605.8 745.146 1606.22 748.075 1606.92 748.843C1607.62 749.616 1607.23 751.886 1605.99 753.899C1604.83 755.783 1603.47 757.338 1601.85 758.497C1600.25 759.673 1598.59 760.67 1596.74 761.358C1595.33 759.859 1593.66 758.086 1592.25 756.58C1590.77 755.035 1589.55 753.766 1589.13 753.327C1588.43 752.606 1586.87 750.996 1585.65 749.735C1583.86 747.883 1579.37 743.347 1574.98 738.994C1574.63 738.635 1572.73 736.731 1570.76 734.753C1568.77 732.783 1566.96 730.999 1566.73 730.774L1565.73 729.819C1565.41 729.506 1562.76 726.933 1559.83 724.09C1556.88 721.268 1552.88 717.443 1550.94 715.594C1549 713.747 1544.64 709.671 1541.25 706.547C1539.24 704.708 1536.41 702.133 1533.13 699.151C1528.88 695.345 1524.05 691.022 1519.11 686.602C1499.31 668.867 1477.82 651.067 1462.98 639.362C1459.77 636.824 1456.05 633.861 1452 630.758C1449.98 629.199 1447.9 627.588 1445.78 625.949C1443.64 624.332 1441.47 622.69 1439.29 621.047C1430.59 614.462 1421.71 608.009 1414.88 603.139C1405.61 596.548 1386.39 583.069 1361.9 567.714C1349.61 560.094 1336.1 551.902 1321.83 543.953C1307.56 536.001 1292.66 528.132 1277.83 520.892C1262.96 513.712 1248.21 507.065 1234.36 501.345C1220.49 495.706 1207.6 490.783 1196.46 487.029C1193.68 486.076 1191.02 485.167 1188.49 484.301C1185.95 483.448 1183.53 482.732 1181.26 482.008C1176.71 480.617 1172.79 479.27 1169.48 478.387C1162.88 476.51 1159.04 475.414 1158.75 475.332C1158.73 475.326 1157.95 475.109 1156.58 474.72C1155.19 474.37 1153.2 473.865 1150.74 473.244C1148.28 472.621 1145.36 471.878 1142.12 471.055C1138.87 470.275 1135.28 469.519 1131.53 468.667C1129.65 468.246 1127.69 467.808 1125.68 467.36C1123.67 466.975 1121.61 466.58 1119.53 466.182C1117.45 465.784 1115.35 465.381 1113.27 464.98C1112.23 464.78 1111.19 464.579 1110.16 464.381C1109.13 464.215 1108.1 464.051 1107.09 463.888C1103.02 463.238 1099.13 462.617 1095.66 462.061C1092.19 461.534 1089.12 461.215 1086.73 460.891C1083.13 460.434 1078.27 459.745 1072.32 459.269C1069.35 458.992 1066.11 458.69 1062.62 458.366C1059.13 458.163 1055.4 457.945 1051.44 457.714C1035.61 456.947 1016.19 456.795 994.888 458.59C973.589 460.352 950.437 464.085 927.275 470.187C925.825 470.561 924.371 470.936 922.918 471.312L920.731 471.873L918.577 472.527C915.701 473.405 912.818 474.286 909.926 475.169C904.096 476.8 898.463 479.015 892.731 480.966L888.445 482.474L884.242 484.165C881.437 485.286 878.637 486.408 875.84 487.527C872.527 488.858 869.222 490.189 865.924 491.516C862.332 493.014 858.637 494.314 854.981 495.656C853.792 496.084 852.594 496.517 851.389 496.952C850.164 497.356 848.93 497.763 847.69 498.173C845.204 498.979 842.699 499.84 840.13 500.617C834.978 502.14 829.719 503.711 824.322 505.039C813.568 507.797 802.443 510.122 791.52 511.786C769.676 515.294 748.787 516.3 733.171 516.395C744.134 516.376 755.16 515.948 766.198 515.085C777.24 514.16 788.274 512.743 799.237 510.885C810.196 508.981 821.044 506.521 831.744 503.654C842.431 500.738 852.893 497.265 863.151 493.44L888.788 483.355L900.653 479.279C904.573 477.84 908.614 476.717 912.628 475.525C920.601 472.982 928.799 471.124 936.918 469.036L949.264 466.483L952.348 465.836C953.38 465.638 954.424 465.491 955.464 465.314L961.696 464.292C994.943 458.758 1029.18 457.912 1063.35 460.679C1080.45 462.163 1097.53 464.652 1114.51 467.925L1120.87 469.196C1123 469.621 1125.12 470.019 1127.23 470.54L1139.9 473.47L1152.51 476.765L1155.66 477.586L1158.79 478.504L1165.05 480.333C1181.73 485.289 1198.27 490.874 1214.55 497.215C1230.81 503.562 1246.87 510.501 1262.69 517.951C1278.53 525.378 1294.04 533.477 1309.35 541.905C1324.65 550.365 1339.73 559.215 1354.49 568.532C1413.6 605.706 1468.66 648.681 1519.5 694.98C1530.72 705.218 1541.71 715.632 1552.46 726.191C1563.19 736.739 1573.71 747.494 1583.67 758.239C1581.89 759.336 1579.15 760.374 1577.3 760.441C1576.37 760.479 1572.05 756.906 1567.62 752.52C1562.52 747.474 1558.81 744.65 1557.7 744.81C1556.72 744.955 1553.92 743.093 1551.41 740.624C1548.89 738.173 1545.64 736.035 1544.14 735.855C1542.56 735.652 1540.84 734.513 1540 733.061C1539.22 731.714 1538.02 730.682 1537.37 730.794C1536.72 730.889 1533.67 728.455 1530.6 725.341C1527.54 722.234 1523.62 719.02 1521.96 718.144C1520.27 717.285 1518.96 715.937 1519.02 715.126C1519.08 714.253 1517.95 713.159 1516.19 712.414C1514.57 711.728 1512.52 709.911 1511.62 708.37C1510.46 706.349 1509.66 705.829 1508.78 706.537C1508.38 706.856 1507.67 706.755 1506.85 706.392C1506.65 706.301 1506.43 706.194 1506.22 706.073L1506.05 705.98C1505.99 705.945 1505.97 705.938 1505.81 705.811C1505.56 705.61 1505.3 705.405 1505.03 705.196C1503.98 704.362 1502.88 703.439 1501.78 702.481C1497.4 698.635 1493.06 694.277 1492.69 692.645C1492.29 690.879 1490.62 689.58 1486.24 687.832C1481.57 685.958 1480.01 684.739 1478.67 682.015C1477.33 679.309 1476.22 678.445 1473.35 677.895C1470.48 677.346 1469.59 676.644 1469 674.529C1468.58 673.065 1466.23 670.631 1463.74 669.12C1461.26 667.611 1459.63 666.023 1460.1 665.603C1460.57 665.18 1456.97 661.559 1452.09 657.57C1449.64 655.587 1445.32 652.01 1440.32 647.849C1435.29 643.727 1429.57 639.038 1424.37 634.78C1416.66 628.466 1403.95 618.629 1389.44 608.257C1374.95 597.858 1358.66 586.96 1344.24 578.015C1341.4 576.233 1308.89 555.403 1269.86 535.891C1264.45 533.152 1259.19 530.701 1254.41 528.362C1252.52 527.455 1250.75 526.739 1249.26 526.114C1246.26 524.889 1244.29 524.223 1244.07 524.414C1243.61 524.794 1243.16 524.789 1243.07 524.387C1243.04 524.29 1242.07 523.743 1240.34 522.84C1238.63 521.908 1236.11 520.745 1233.02 519.28C1229.93 517.851 1226.29 516.054 1222.19 514.294C1218.09 512.536 1213.61 510.552 1208.89 508.611C1204.15 506.719 1199.46 504.846 1195.04 503.081C1190.59 501.408 1186.42 499.838 1182.73 498.453C1175.34 495.783 1169.91 493.915 1168.29 493.253C1165.04 491.991 1157.59 489.423 1151.75 487.328C1148.81 486.389 1145.29 485.233 1141.96 484.12C1140.3 483.56 1138.7 483.017 1137.23 482.524C1135.77 482.068 1134.46 481.66 1133.4 481.329C1130.1 480.285 1127.07 479.328 1124.23 478.429C1121.39 477.518 1118.7 476.866 1116.12 476.138C1113.52 475.448 1111.02 474.78 1108.52 474.115C1106.01 473.485 1103.49 472.974 1100.87 472.392C1099.48 472.087 1097.8 471.718 1095.95 471.311C1094.1 470.895 1092.07 470.445 1090 470.091C1085.84 469.32 1081.5 468.515 1077.99 467.862C1072.49 467.025 1067.48 466.263 1062.86 465.559C1058.22 464.98 1053.96 464.54 1049.96 464.073C1048.95 463.959 1047.97 463.848 1047 463.738C1046.02 463.663 1045.07 463.591 1044.13 463.519C1042.24 463.382 1040.4 463.247 1038.6 463.117C1035 462.879 1031.52 462.527 1028.09 462.489C1028.09 462.489 1026.19 462.419 1023.32 462.314C1021.89 462.26 1020.22 462.197 1018.43 462.128C1017.53 462.094 1016.6 462.06 1015.66 462.025C1014.72 462.027 1013.77 462.029 1012.82 462.032C1008.99 462.033 1005.17 462.034 1002.31 462.036C1000.87 462.023 999.674 462.034 998.847 462.087C998.012 462.121 997.535 462.141 997.535 462.141C987.593 462.329 968.117 464.127 949.701 467.777C945.119 468.763 940.554 469.652 936.229 470.675C931.943 471.808 927.846 472.893 924.092 473.886C923.158 474.14 922.236 474.373 921.354 474.631C920.476 474.913 919.625 475.189 918.797 475.456C917.147 475.997 915.599 476.503 914.173 476.97C911.325 477.915 908.977 478.721 907.283 479.351C904.75 480.285 901.303 481.827 897.691 483.273C894.094 484.763 890.332 486.178 887.437 487.572C884.518 488.894 880.972 490.5 877.604 492.023C873.401 493.891 869.426 495.659 866.693 496.874C864.313 497.98 861.548 499.026 857.999 500.458C854.469 501.921 849.994 503.477 844.137 505.55C832.362 509.452 814.663 515.135 785.721 519.835C780.974 520.569 771.646 521.924 760.435 522.798C749.232 523.721 736.145 524.285 724.036 524.109C711.915 524.004 697.844 523.311 685.041 522.139C678.628 521.586 672.558 520.865 667.13 520.23C661.745 519.506 656.974 518.908 653.287 518.331C640.016 516.398 628.261 514.171 616.746 511.676C605.236 509.168 593.934 506.416 581.809 503.005C569.68 499.606 556.673 495.62 541.829 490.551C527.002 485.475 510.307 479.341 491.029 471.472C458.62 458.308 426.519 443.474 396.892 429.013C367.253 414.549 340.069 400.478 317.361 388.68C312.876 386.351 301.186 379.934 291.46 374.428C281.725 368.923 272.911 364.416 271.804 364.381C270.688 364.346 269.773 363.712 269.743 362.949C269.709 362.196 268.961 361.213 268.073 360.749C267.181 360.298 258.935 355.475 249.765 350.095C240.58 344.705 224.524 335.358 214.047 329.379C201.219 322.053 179.826 310.509 153.877 298.089C140.91 291.943 126.792 285.543 112.136 279.71C97.4906 273.835 82.2721 268.513 67.4868 264.549C52.7331 260.572 38.4038 258.115 26.5543 257.814C20.6259 257.645 15.3489 257.98 10.8029 258.695C6.24261 259.413 2.40479 260.487 -1.02386 261.852C-4.45264 263.221 -7.51373 264.922 -10.4722 266.985C-13.4178 269.051 -16.2324 271.531 -18.8888 274.269C-20.2397 275.57 -21.4781 277.125 -22.7393 278.52C-23.345 279.293 -23.9407 280.059 -24.5277 280.807C-24.8242 281.18 -25.1192 281.549 -25.4114 281.919C-25.6907 282.318 -25.9685 282.711 -26.2436 283.104C-26.7979 283.887 -27.3423 284.656 -27.8767 285.411C-28.4097 286.174 -28.8928 287.01 -29.3915 287.776C-29.886 288.559 -30.3706 289.321 -30.8423 290.07C-31.2926 290.862 -31.733 291.638 -32.162 292.397C-32.2502 292.539 -32.3444 292.692 -32.4313 292.831L-32.4156 292.834C-33.2521 294.033 -34.0715 295.629 -34.8909 297.167C-35.1746 297.743 -35.5765 298.56 -36.0809 299.579C-36.5555 300.65 -37.1241 301.934 -37.7725 303.394C-38.4495 304.817 -39.1035 306.558 -39.8502 308.395C-40.2166 309.323 -40.6212 310.258 -41.0005 311.271C-41.3696 312.294 -41.7513 313.351 -42.1417 314.435C-45.1044 323.197 -47.6642 333.319 -49.8615 343.416C-52.0305 353.724 -54.1254 363.688 -55.9012 372.127C-56.4042 375.864 -56.6989 379.379 -57.0451 382.545C-57.4016 385.704 -57.6151 388.634 -57.8475 391.272C-58.3408 396.535 -58.6 400.812 -58.8907 404.242C-58.9647 405.099 -59.0349 405.908 -59.1003 406.668C-59.183 407.486 -59.2614 408.254 -59.3339 408.977C-59.5233 410.52 -59.6888 411.868 -59.8357 413.057C-60.1607 415.433 -60.4739 417.172 -60.8118 418.571C-63.1163 429.348 -69.7513 463.252 -76.3267 489.204C-77.5364 494.565 -78.6567 499.815 -79.8779 504.936C-81.2148 510.061 -82.5172 515.053 -83.7786 519.889C-84.4325 522.309 -84.9883 524.691 -85.6982 527.031C-86.4033 529.373 -87.0958 531.673 -87.7745 533.929C-89.1439 538.444 -90.4592 542.784 -91.7146 546.927C-93.1426 551.07 -94.5036 555.016 -95.7905 558.746C-96.4362 560.61 -97.0645 562.422 -97.6715 564.176C-97.9764 565.053 -98.277 565.916 -98.5721 566.765C-98.9014 567.612 -99.2236 568.444 -99.5411 569.262C-102.113 575.807 -104.31 581.398 -106.067 585.87L-106.162 585.836C-107.845 589.735 -109.605 593.808 -111.535 598.274C-112.344 600.13 -113.249 602.204 -114.192 604.363C-115.234 606.514 -116.319 608.751 -117.379 610.939C-119.528 615.316 -121.584 619.505 -123.028 622.444C-126.038 627.948 -128.809 633.084 -131.772 638.655C-133.313 641.431 -135.043 644.292 -136.814 647.372C-138.638 650.442 -140.435 653.751 -142.671 657.312C-144.132 659.598 -146.325 662.953 -148.702 666.521C-149.901 668.302 -151.098 670.148 -152.355 671.915C-153.664 673.669 -154.936 675.371 -156.09 676.917C-158.419 680.002 -161.031 683.53 -163.499 686.688C-166.095 689.807 -168.417 692.595 -169.839 694.303C-170.548 695.159 -172.111 696.969 -174.341 699.5C-176.648 702.001 -179.772 705.164 -183.347 708.824C-186.842 712.524 -191.245 716.51 -195.898 720.766C-200.443 725.083 -205.813 729.352 -211.116 733.723C-213.734 735.934 -216.491 737.967 -219.149 739.943C-221.806 741.918 -224.377 743.828 -226.831 745.652C-231.83 749.228 -236.561 752.303 -240.467 754.976C-242.408 756.329 -244.276 757.453 -245.905 758.465C-247.532 759.481 -248.94 760.36 -250.101 761.084C-252.417 762.542 -253.725 763.399 -253.765 763.513C-253.93 763.986 -254.513 764.108 -255.075 763.805C-255.216 763.729 -255.94 764.003 -257.127 764.56C-258.318 765.114 -260.035 765.875 -262.082 766.872C-264.135 767.862 -266.547 769.055 -269.193 770.386C-272.492 772.141 -276.092 773.764 -279.8 775.459C-281.655 776.304 -283.541 777.162 -285.453 778.032C-286.411 778.464 -287.374 778.899 -288.343 779.336C-289.332 779.739 -290.327 780.145 -291.326 780.552C-294.93 782.002 -298.505 783.442 -302.045 784.867C-305.593 786.279 -309.197 787.461 -312.711 788.726C-319.729 791.309 -326.733 793.29 -333.426 795.34C-336.779 796.34 -340.104 797.135 -343.334 797.998C-346.572 798.806 -349.721 799.716 -352.811 800.359C-355.898 801.034 -358.896 801.69 -361.796 802.324C-363.247 802.636 -364.674 802.942 -366.075 803.243C-367.477 803.5 -368.852 803.751 -370.201 803.997C-372.902 804.48 -375.493 804.942 -377.964 805.383C-379.199 805.6 -380.406 805.812 -381.581 806.017C-382.755 806.188 -383.898 806.356 -385.008 806.517C-389.453 807.142 -393.376 807.694 -396.696 808.161C-403.33 808.879 -407.557 809.336 -408.731 809.463C-432.339 811.814 -459.244 812.155 -483.238 811.03C-507.268 809.952 -528.307 807.321 -541.33 805.65C-542.422 805.499 -543.529 805.345 -544.643 805.189L-546.172 804.979L-546.83 804.91C-547.712 804.813 -548.606 804.715 -549.493 804.617C-551.269 804.414 -553.038 804.221 -554.665 803.981C-557.93 803.524 -560.743 803.092 -562.307 802.804C-565.443 802.241 -568.102 802.184 -568.259 802.759C-568.413 803.332 -569.591 803.255 -570.871 802.58C-572.151 801.905 -573.928 801.879 -574.842 802.519C-576.154 803.433 -576.705 803.272 -577.477 801.73C-578.249 800.192 -578.899 799.97 -580.676 800.726C-582.448 801.477 -583.398 801.156 -585.151 799.178C-586.79 797.336 -587.755 796.957 -588.854 797.733C-590.878 799.162 -601.404 796.243 -600.782 794.449C-600.447 793.455 -601.53 793.021 -604.65 792.895C-607.029 792.785 -610.429 791.878 -612.162 790.814C-614.041 789.66 -615.995 789.148 -617.027 789.526C-617.985 789.875 -620.364 789.315 -622.33 788.249C-624.276 787.156 -630.311 785.141 -635.68 783.574C-641.088 782.05 -645.587 780.23 -645.772 779.646C-645.945 779.06 -647.797 778.365 -649.853 778.109C-652.063 777.82 -654.285 776.689 -655.254 775.402C-656.164 774.192 -660.284 772.007 -664.448 770.49C-668.647 768.953 -672.157 766.981 -672.37 766.105C-672.618 765.088 -677.688 762.596 -686.098 759.102C-693.41 756.05 -699.685 752.625 -699.965 751.776C-700.512 750.119 -700.051 747.532 -699.185 745.798C-686.445 751.134 -673.938 755.818 -661.226 760.222C-648.53 764.585 -635.715 768.594 -622.727 772.252C-596.756 779.557 -570.119 785.515 -542.682 789.666C-527.712 792.04 -512.511 793.888 -497.096 795.118C-481.682 796.345 -466.023 796.861 -450.227 796.668C-434.427 796.439 -418.48 795.58 -402.483 793.613C-386.493 791.691 -370.488 788.877 -354.655 785.103C-338.831 781.246 -323.244 776.325 -308.09 770.494L-296.821 765.919C-293.123 764.291 -289.469 762.581 -285.804 760.898C-282.107 759.261 -278.57 757.387 -275.012 755.546C-271.477 753.674 -267.845 751.923 -264.453 749.877L-254.164 743.88C-250.804 741.81 -247.543 739.636 -244.242 737.502L-239.326 734.27L-234.602 730.869C-231.474 728.585 -228.282 726.346 -225.235 724C-219.297 719.197 -213.16 714.508 -207.665 709.415C-204.877 706.896 -201.995 704.424 -199.31 701.846L-191.397 694.035C-193.121 695.706 -194.928 697.456 -196.812 699.282C-198.697 701.106 -200.638 703.013 -202.84 704.885C-205.002 706.778 -207.237 708.737 -209.545 710.756C-210.702 711.761 -211.876 712.782 -213.066 713.818C-214.318 714.815 -215.586 715.825 -216.87 716.848C-219.453 718.884 -222.104 720.972 -224.814 723.106C-226.148 724.188 -227.594 725.21 -229.05 726.245C-230.505 727.28 -231.976 728.326 -233.459 729.381C-236.462 731.462 -239.386 733.697 -242.657 735.706C-245.877 737.755 -249.149 739.836 -252.465 741.947C-266.008 750.097 -280.983 757.917 -296.921 764.693C-312.909 771.365 -329.759 776.99 -346.616 781.343C-363.471 785.711 -380.32 788.844 -396.299 790.773C-412.28 792.729 -427.407 793.763 -441.017 794.059C-468.257 794.663 -489.419 792.854 -500.776 791.83C-511.238 790.884 -524.758 789.189 -538.045 787.085C-540.133 786.73 -542.217 786.375 -544.265 786.026C-545.522 785.805 -546.759 785.589 -547.96 785.378C-550.336 784.92 -552.553 784.491 -554.46 784.122Z" fill="#F48120"/>
<path fill-rule="evenodd" clip-rule="evenodd" d="M504.582 396.52C475.574 380.992 452.399 369.908 427.373 357.849C402.378 345.747 375.707 332.503 340.39 311.667C305.071 290.822 273.21 274.452 243.172 260.318C213.115 246.18 185.045 234.201 156.776 222.164C128.48 210.143 100.788 200.996 75.3921 195.796C62.7108 193.184 50.668 191.493 39.6219 190.738C28.5778 189.972 18.5818 190.098 10.0891 190.657C-6.30164 191.764 -20.788 195.217 -32.5279 199.661C-44.2792 204.164 -53.3266 209.412 -60.2388 214.141C-63.7648 216.472 -66.6023 218.803 -69.225 220.812C-71.6827 222.922 -73.8887 224.752 -75.6626 226.405C-77.412 228.075 -78.8896 229.481 -80.1089 230.643C-81.2607 231.832 -82.1683 232.771 -82.8411 233.465C-85.525 236.247 -84.5818 235.092 -80.7119 230.799C-76.6296 226.636 -69.4299 219.243 -57.4667 211.244C-51.4775 207.277 -44.245 203.263 -35.8419 199.729C-27.4445 196.192 -17.8438 193.221 -7.51208 191.26C2.81824 189.278 13.8341 188.295 25.015 188.285C36.1958 188.288 47.5245 189.254 58.7554 190.897C81.2422 194.197 103.288 200.187 124.293 207.135C145.302 214.111 165.36 222.048 183.981 229.881C204.064 238.347 221.639 246.488 237.871 254.291C254.079 262.113 268.93 269.624 283.31 277.114C312.05 292.092 338.921 307.026 370.431 324.623C401.941 342.191 413.412 348.038 421.113 351.95C428.834 355.792 432.766 357.668 449.516 366.135C469.267 376.07 483.027 383.604 491.867 388.704C500.706 393.796 504.582 396.52 504.582 396.52ZM1350.07 497.086C1349.46 496.018 1350.34 495.15 1352.02 495.189C1352.34 495.187 1354.47 496.223 1358.19 498.198C1361.88 500.187 1367.26 502.991 1373.82 506.794C1387.04 514.271 1405.45 525.261 1426.68 539.256C1447.91 553.253 1472.03 570.186 1496.85 589.304C1521.69 608.397 1547.32 629.578 1571.99 651.683C1592.18 669.015 1611.74 687.09 1626.08 700.973C1633.26 707.907 1639.15 713.78 1643.26 717.91C1647.37 722.03 1649.73 724.447 1649.71 724.247C1649.58 723.44 1651.08 721.463 1653.05 719.858C1653.22 719.722 1651.45 717.395 1648.1 713.421C1644.74 709.443 1639.78 703.809 1633.45 696.947C1620.82 683.218 1602.7 664.586 1581.14 644.243C1527.94 594.883 1463.94 543.554 1392.76 499.446C1357.19 477.423 1319.79 457.312 1281.54 440.241C1262.44 431.678 1243.06 423.977 1223.66 417.16C1204.25 410.363 1184.87 404.353 1165.62 399.461C1146.36 394.594 1127.35 390.644 1108.83 387.669C1104.19 386.952 1099.57 386.35 1095.01 385.704C1092.73 385.396 1090.47 385.056 1088.2 384.783C1085.93 384.541 1083.67 384.302 1081.43 384.063C1076.93 383.611 1072.51 383.076 1068.1 382.722C1063.69 382.411 1059.33 382.104 1055.04 381.802C1050.75 381.446 1046.48 381.345 1042.29 381.197C1038.09 381.066 1033.96 380.88 1029.88 380.817C1025.8 380.827 1021.78 380.836 1017.83 380.845C1015.86 380.853 1013.9 380.86 1011.96 380.869C1010.02 380.897 1008.09 381.006 1006.18 381.072C998.55 381.397 991.196 381.587 984.16 382.258C980.639 382.54 977.196 382.818 973.828 383.088C972.142 383.202 970.483 383.394 968.848 383.598C967.21 383.793 965.591 383.984 963.991 384.175C957.602 384.96 951.508 385.589 945.831 386.597C940.143 387.542 934.758 388.31 929.791 389.268C919.891 391.302 911.335 392.886 904.528 394.701C901.101 395.544 898.056 396.292 895.42 396.94C894.101 397.265 892.88 397.564 891.765 397.839C890.666 398.149 889.669 398.431 888.775 398.683C886.991 399.188 885.62 399.575 884.686 399.839C883.749 400.098 883.248 400.23 883.197 400.227C880.79 400.088 879.541 399.474 880.459 398.86C880.637 398.74 882.657 398.049 886.38 396.842C890.063 395.554 895.594 394.108 902.665 392.176C909.696 390.127 918.493 388.241 928.703 385.959C938.981 383.954 950.736 381.701 963.936 380.049C970.511 379.042 977.464 378.45 984.716 377.741C986.532 377.568 988.364 377.393 990.215 377.216C992.067 377.041 993.942 376.976 995.836 376.851C999.622 376.634 1003.48 376.411 1007.41 376.186C1011.35 375.904 1015.35 375.913 1019.42 375.811C1023.49 375.744 1027.63 375.629 1031.84 375.614C1036.04 375.688 1040.29 375.763 1044.62 375.839C1046.79 375.886 1048.97 375.933 1051.16 375.98C1053.34 376.096 1055.54 376.212 1057.75 376.33C1093.23 378.006 1132.04 383.532 1171.55 393.257C1176.47 394.513 1181.47 395.688 1186.42 397.053C1191.35 398.438 1196.32 399.833 1201.32 401.235C1211.21 404.234 1221.24 407.286 1231.14 410.73C1251.01 417.506 1270.84 425.173 1290.43 433.608C1329.56 450.554 1367.68 470.537 1403.89 492.266C1440.12 513.989 1474.39 537.505 1506.26 561.462C1538.13 585.432 1567.59 609.856 1594.21 633.631C1614.83 651.259 1632.2 667.181 1644.46 678.769C1650.59 684.57 1655.45 689.253 1658.81 692.515C1660.49 694.144 1661.79 695.4 1662.67 696.25C1663.12 696.673 1663.46 696.993 1663.69 697.208C1663.92 697.421 1664.05 697.525 1664.06 697.515C1665.85 696.278 1663.16 692.271 1660.19 687.262C1657.23 682.265 1653.98 676.252 1654.65 670.779C1654.71 670.243 1653.92 669.872 1654.36 669.194C1654.98 668.264 1654.19 667.416 1651.22 665.857C1648.01 664.191 1647.3 663.361 1647.59 661.569C1647.83 659.997 1646.91 658.654 1644.36 657.025C1639.66 653.974 1629.73 644.574 1630.58 643.913C1630.96 643.618 1628.64 641.18 1625.45 638.506C1621.23 635.01 1617.5 631.901 1614.3 629.171C1612.7 627.804 1611.22 626.539 1609.87 625.378C1609.2 624.79 1608.57 624.228 1607.96 623.693C1606.81 622.653 1605.72 621.665 1604.69 620.729C1599.14 615.684 1594.86 611.739 1591.91 608.906C1588.98 606.06 1587.39 604.313 1587.19 603.69C1586.6 601.814 1585.26 600.791 1582.41 600.071C1579.87 599.419 1578.13 598.139 1577.5 596.527C1576.26 593.245 1564.21 583.452 1561.57 583.625C1560.45 583.684 1558.38 582.731 1556.91 581.491C1555.45 580.268 1555.61 579.264 1557.26 579.272C1559.84 579.294 1558.28 577.68 1546.82 568.801C1539.3 563.076 1533.57 558.092 1534 557.674C1534.48 557.232 1532.8 556.028 1530.25 554.975C1527.71 553.919 1525.18 552.298 1524.6 551.33C1524.02 550.359 1521.77 548.734 1519.61 547.706C1517.62 546.781 1512.14 542.924 1502.05 535.854C1491.98 528.771 1477.4 518.391 1456.84 504.757C1450.81 500.819 1444.88 497.049 1440.13 494.198C1435.35 491.366 1431.83 489.395 1430.72 488.965C1428.51 488.131 1426.25 486.522 1425.72 485.509C1425.2 484.46 1420.09 481.162 1414.35 478.154C1404.16 472.919 1396.12 467.9 1382.93 458.88C1379.41 456.494 1375.34 454.536 1373.93 454.471C1373.22 454.441 1370.04 453.002 1365.49 450.717C1360.87 448.494 1354.88 445.436 1348.58 442.119C1342.54 439.057 1336.46 435.931 1331.46 433.454C1326.42 431.017 1322.54 429.142 1321.05 428.421C1320.35 428.094 1319.4 427.581 1318.94 427.279C1318.2 426.756 1312.55 424.199 1308.15 422.372C1307.24 421.971 1305.37 421.152 1303.04 420.127C1300.72 419.081 1297.92 417.842 1295.11 416.659C1289.5 414.261 1284.01 411.885 1282.58 411.207C1280.96 410.458 1277.22 408.945 1274.29 407.785C1272.14 406.921 1268.43 405.429 1263.99 403.643C1259.47 401.946 1254.21 399.968 1249.04 398.025C1248.62 397.871 1247.33 397.276 1245.56 396.498C1243.78 395.717 1241.54 394.729 1239.25 393.724C1234.68 391.69 1230.49 389.914 1229.93 389.759C1229.37 389.624 1228.26 389.352 1227.47 389.188C1226.66 389.016 1220.44 386.655 1213.61 383.95C1210.23 382.561 1206.09 381.133 1202.28 379.763C1198.47 378.407 1194.94 377.175 1192.63 376.398C1190.31 375.63 1186.52 374.479 1182.33 373.17C1178.11 371.893 1173.53 370.376 1169.4 369.281C1159.74 366.534 1142.16 361.865 1123.08 358.324C1113.63 356.366 1103.71 354.976 1094.57 353.537C1089.95 352.928 1085.49 352.423 1081.33 351.931C1077.17 351.46 1073.31 350.963 1069.82 350.739C1066.79 350.49 1063.28 350.201 1059.53 349.891C1055.76 349.565 1051.76 349.195 1047.7 349.01C1039.59 348.576 1031.47 347.948 1025.2 347.836C1016.73 347.506 999.051 347.318 977.318 349.139C955.612 350.841 929.854 354.343 905.848 359.942C904.343 360.27 902.83 360.578 901.341 360.924C899.864 361.299 898.391 361.673 896.921 362.045C893.991 362.799 891.083 363.545 888.212 364.283C885.348 365.034 882.519 365.776 879.734 366.505C876.993 367.336 874.298 368.154 871.659 368.954C866.392 370.589 861.295 372.08 856.595 373.681C851.939 375.349 847.562 376.915 843.54 378.354C839.522 379.804 835.867 381.133 832.755 382.484C829.615 383.788 826.897 384.936 824.683 385.897C820.244 387.817 817.794 388.984 817.888 389.152C817.888 389.152 817.372 389.388 816.434 389.812C816.064 389.982 815.611 390.19 815.083 390.432C814.705 390.609 814.276 390.811 813.799 391.035C811.888 391.912 809.269 393.179 806.307 394.372C803.376 395.665 799.874 396.944 796.655 398.191C795.028 398.772 793.472 399.329 792.086 399.825C790.703 400.345 789.446 400.694 788.485 401.037C787.028 401.523 785.07 402.206 782.592 402.842C781.359 403.179 780.016 403.546 778.566 403.941C777.093 404.284 775.517 404.651 773.847 405.041C767.123 406.523 758.689 408.002 748.935 408.936C739.185 409.859 728.144 410.332 716.35 409.878C704.575 409.462 692.107 408.293 679.769 406.454C670.571 405.078 659.782 403.075 649.815 400.87C639.853 398.666 630.733 396.359 624.959 394.809C610.257 390.928 597.687 386.953 586.172 383.065C574.658 379.153 564.187 375.271 553.607 371.059C532.437 362.596 510.807 353.082 479.265 337.578C458.509 327.386 430.824 313.209 417.698 306.582C372.363 283.819 330.267 259.677 285.723 233.777C266.098 222.374 251.62 214.395 242.009 209.28C232.399 204.157 227.621 201.894 227.126 201.914C226.866 201.924 226.409 201.718 226.115 201.437C225.587 200.979 216.557 196.219 203.742 190.06C197.352 186.974 189.955 183.562 182.275 180.147C174.537 176.753 166.53 173.351 158.811 170.329C148.896 166.44 140.912 163.422 135.29 161.284C129.717 159.122 126.558 157.818 126.345 157.337C125.885 156.314 125.34 156.172 124.601 156.866C124.322 157.117 122.815 156.859 119.112 155.962C117.257 155.518 114.874 154.905 111.863 154.102C108.771 153.336 105.098 152.357 100.53 151.252C98.2327 150.707 95.7419 150.118 93.0466 149.481C90.2789 148.881 87.2993 148.241 84.0963 147.55C80.7991 146.909 77.3062 146.215 73.4756 145.537C69.5698 144.907 65.5219 144.175 60.9267 143.596C58.6353 143.305 56.3666 142.945 53.8604 142.698C51.3771 142.444 48.8224 142.183 46.1926 141.912C43.486 141.716 40.7025 141.516 37.8408 141.309C34.9905 141.106 31.8898 141.048 28.7977 140.933C16.2699 140.648 1.68121 141.045 -15.1065 143.708C-23.9547 145.164 -31.2754 146.848 -37.1894 148.522C-40.1494 149.379 -42.7634 150.138 -45.0521 150.9C-47.3361 151.693 -49.3062 152.411 -50.9957 153.055C-54.3854 154.305 -56.5927 155.386 -57.9568 156.124C-59.3178 156.873 -59.8157 157.323 -59.6849 157.574C-59.1657 158.57 -59.4088 158.641 -60.7076 157.927C-61.3729 157.567 -65.3654 158.621 -75.3785 163.388C-77.8237 164.631 -80.704 166.068 -83.8755 167.856C-85.4288 168.781 -87.0856 169.764 -88.8552 170.814C-90.6231 171.874 -92.4793 173.016 -94.3268 174.293C-96.2043 175.557 -98.1786 176.912 -100.25 178.362C-102.252 179.829 -104.294 181.411 -106.459 183.088C-108.668 184.758 -110.748 186.567 -112.969 188.482C-114.072 189.44 -115.199 190.426 -116.357 191.436C-117.466 192.452 -118.551 193.499 -119.68 194.576C-132.482 206.857 -140.87 217.79 -147.664 227.784C-154.382 237.802 -159.521 247.02 -164.04 256.405C-172.882 275.136 -179.851 294.752 -186.162 322.538C-187.699 328.987 -190.369 342.027 -191.904 351.454C-192.774 356.189 -193.477 361.476 -194.182 366.261C-194.784 371.014 -195.248 375.222 -195.498 377.759C-195.74 380.277 -196.135 384.383 -196.576 388.973C-196.801 391.115 -197.037 393.371 -197.272 395.61C-197.503 397.67 -197.733 399.714 -197.947 401.625C-198.455 406.139 -198.924 410.312 -199.359 414.194C-199.823 418.065 -200.37 421.6 -200.786 424.921C-201.677 431.546 -202.244 437.251 -203.002 442.219C-203.324 444.431 -203.786 447.619 -204.272 450.971C-204.783 454.321 -205.271 457.86 -205.878 460.665C-207.263 467.601 -208.303 473.549 -209.333 478.536C-210.438 483.489 -211.307 487.582 -211.984 490.981C-213.202 495.528 -214.576 499.46 -215.607 502.837C-216.655 506.207 -217.469 508.968 -217.996 510.955C-219.069 514.893 -220.834 519.881 -222.502 524.917C-222.93 526.17 -223.357 527.425 -223.778 528.658C-224.227 529.874 -224.716 531.044 -225.169 532.191C-226.101 534.474 -226.97 536.605 -227.716 538.437C-228.625 540.531 -229.513 542.957 -230.666 545.438C-231.803 547.928 -233.019 550.596 -234.285 553.371C-234.908 554.763 -235.543 556.182 -236.188 557.619C-236.828 559.06 -237.59 560.438 -238.29 561.872C-239.709 564.727 -241.146 567.618 -242.568 570.479C-243.999 573.331 -245.601 576.011 -247.027 578.686C-248.507 581.321 -249.798 583.968 -251.263 586.237C-252.657 588.564 -253.955 590.732 -255.12 592.677C-255.695 593.656 -256.234 594.58 -256.737 595.439C-257.239 596.298 -257.767 597.038 -258.208 597.743C-259.73 600.108 -261.478 602.824 -263.065 605.291C-263.833 606.553 -264.65 607.671 -265.372 608.659C-266.089 609.656 -266.711 610.52 -267.187 611.182C-268.146 612.506 -269.575 614.563 -271.107 616.817C-272.736 618.98 -274.492 621.313 -275.981 623.293C-276.725 624.29 -277.452 625.265 -278.128 626.174C-278.805 627.086 -279.524 627.835 -280.109 628.529C-281.302 629.894 -282.157 630.828 -282.389 630.993C-282.844 631.323 -283.488 631.79 -283.814 632.026C-283.969 632.151 -284.541 632.811 -285.336 633.779C-285.738 634.256 -286.177 634.835 -286.684 635.419C-287.198 635.996 -287.749 636.615 -288.314 637.248C-290.55 639.807 -292.77 642.251 -293.238 642.671C-293.938 643.323 -294.685 643.925 -295.443 644.506C-296.191 645.098 -296.935 645.685 -297.667 646.265C-299.125 647.428 -300.536 648.553 -301.841 649.594C-303.111 650.674 -304.417 651.486 -305.47 652.268C-306.54 653.032 -307.433 653.669 -308.089 654.137C-309.892 655.392 -312.117 657.085 -313.181 657.744C-314.093 658.371 -317.585 660.703 -321.224 662.951C-324.97 665.044 -328.738 667.229 -330.017 667.844C-333.109 669.236 -337.039 671.212 -337.559 671.611C-337.874 671.847 -338.518 672.273 -339.03 672.483C-340.112 672.977 -342.93 674.261 -346.588 675.928C-347.49 676.368 -348.476 676.777 -349.52 677.175C-350.552 677.588 -351.626 678.017 -352.725 678.455C-354.927 679.325 -357.182 680.325 -359.557 681.084C-362.036 681.942 -364.45 682.765 -366.7 683.5C-369.01 684.124 -371.142 684.68 -372.987 685.136C-376.646 686.106 -379.297 686.387 -379.818 686.226C-380.896 685.842 -384.161 686.51 -387.203 687.558C-390.098 688.482 -392.721 689.293 -395.161 690.008C-397.631 690.654 -399.944 691.131 -402.146 691.577C-403.245 691.794 -404.324 691.994 -405.388 692.175C-406.471 692.311 -407.543 692.43 -408.614 692.536C-410.753 692.747 -412.884 692.9 -415.11 693.011C-420.235 693.058 -424.99 693.682 -425.797 694.318C-426.593 694.936 -428.838 695.2 -430.682 694.86C-431.619 694.677 -434.822 694.751 -439.321 694.66C-441.566 694.617 -444.091 694.71 -446.837 694.633C-449.578 694.57 -452.486 694.547 -455.44 694.525C-475.81 694.005 -491 692.141 -501.384 690.518C-503.98 690.148 -506.28 689.729 -508.297 689.345C-510.31 688.952 -512.043 688.615 -513.505 688.33C-514.962 688.023 -516.152 687.709 -517.074 687.462C-517.539 687.336 -517.937 687.219 -518.267 687.111C-518.555 687.011 -518.535 686.962 -518.65 686.89C-519.296 686.31 -520.19 686.077 -520.639 686.381C-521.096 686.692 -522.014 686.266 -522.695 685.448C-523.377 684.624 -524.031 684.395 -524.172 684.991C-524.306 685.566 -526.914 685.356 -529.983 684.536C-534.698 683.282 -535.502 683.243 -535.32 684.884C-535.202 685.923 -535.632 686.672 -536.274 686.54C-536.928 686.406 -537.487 685.711 -537.534 684.969C-537.645 683.22 -542.707 681.833 -544.27 683.055C-545.039 683.662 -545.708 683.328 -546.118 682.096C-546.571 680.709 -547.091 680.482 -547.989 681.268C-548.588 681.802 -551.487 681.48 -556.529 680.208C-561.576 678.977 -568.765 676.734 -577.845 673.418C-581.292 672.132 -584.262 671.43 -584.427 671.832C-584.616 672.309 -587.634 671.599 -591.124 670.474C-594.595 669.303 -598.542 667.73 -600.559 666.449C-602.749 665.088 -604.238 664.866 -605.707 665.646C-607.37 666.529 -608.347 666.273 -610.679 664.357C-612.841 662.586 -613.802 662.23 -614.586 663.05C-615.158 663.636 -615.685 663.136 -616.194 663.373C-621.425 665.815 -628.027 665.148 -633.503 664.291C-638.974 663.425 -643.296 662.368 -644.3 664.141C-644.312 664.161 -644.111 664.28 -643.709 664.494C-643.304 664.699 -642.693 665.003 -641.901 665.403C-640.314 666.195 -637.93 667.314 -634.87 668.732C-628.732 671.551 -619.751 675.461 -608.614 679.801C-597.486 684.148 -584.195 688.918 -569.537 693.397C-562.222 695.685 -554.548 697.802 -546.673 699.902C-538.779 701.892 -530.68 703.89 -522.463 705.551C-473.84 714.489 -423.197 715.552 -379.047 705.495C-367.993 703.056 -357.43 699.822 -347.271 696.232C-344.76 695.275 -342.263 694.322 -339.777 693.375C-337.282 692.438 -334.925 691.291 -332.504 690.276C-331.302 689.755 -330.102 689.236 -328.906 688.717C-327.701 688.211 -326.576 687.586 -325.41 687.031C-323.094 685.892 -320.792 684.761 -318.503 683.636C-300.485 674.175 -284.747 663.003 -271.372 651.314C-257.979 639.625 -246.986 627.417 -237.893 616.009C-228.682 604.664 -221.772 593.827 -216.021 584.868C-210.562 575.73 -206.279 568.413 -203.622 563.177C-200.852 557.999 -199.256 555.134 -199.037 554.946C-198.358 554.321 -197.623 555.311 -197.505 557.108C-197.501 557.166 -197.824 557.895 -198.453 559.251C-199.091 560.606 -200.025 562.59 -201.237 565.162C-203.565 570.355 -207.509 577.647 -212.586 586.837C-217.941 595.863 -224.46 606.813 -233.299 618.419C-242.022 630.083 -252.67 642.685 -265.873 654.932C-279.052 667.185 -294.792 679.045 -313.04 689.359C-315.34 690.618 -317.71 691.81 -320.059 693.057C-321.237 693.677 -322.419 694.299 -323.605 694.921C-324.811 695.513 -326.05 696.061 -327.275 696.637C-329.735 697.776 -332.208 698.922 -334.696 700.074C-337.249 701.118 -339.815 702.167 -342.394 703.222C-344.942 704.335 -347.631 705.218 -350.29 706.183C-352.966 707.118 -355.603 708.166 -358.378 708.957C-361.124 709.81 -363.882 710.666 -366.651 711.526C-369.472 712.273 -372.305 713.021 -375.148 713.774C-386.585 716.625 -398.455 718.899 -410.651 720.495C-422.87 722.007 -435.389 722.891 -448.074 723.145C-473.446 723.707 -499.457 721.524 -525.086 717.484C-543.518 714.762 -561.658 710.935 -578.408 706.768C-595.142 702.543 -610.49 697.965 -623.426 693.676C-636.382 689.425 -646.916 685.475 -654.227 682.725C-661.535 679.946 -665.576 678.371 -665.75 678.615C-667.219 680.583 -669.129 682.231 -669.972 682.295C-670.268 682.302 -665.761 684.726 -657.595 688.537C-649.433 692.335 -637.635 697.446 -623.686 702.761C-609.737 708.061 -593.645 713.576 -577.077 718.365C-560.528 723.227 -543.498 727.301 -527.923 730.39C-522.518 731.404 -517.149 732.166 -511.878 733.002C-506.587 733.69 -501.396 734.471 -496.271 734.982C-486.036 736.2 -476.149 736.848 -466.75 737.375C-447.944 738.222 -431.076 737.743 -417.013 736.641C-388.841 734.417 -372.005 730.046 -371.182 730.417C-369.638 730.804 -369.094 731.855 -369.998 732.731C-370.266 733.076 -374.673 734.244 -382.497 736.17C-384.455 736.649 -386.66 737.043 -389.053 737.543C-391.455 738.003 -394.043 738.597 -396.859 739.05C-399.68 739.501 -402.693 739.981 -405.888 740.492C-409.087 741.001 -412.498 741.335 -416.071 741.794C-430.382 743.432 -447.621 744.451 -466.899 744.118C-476.527 743.854 -486.678 743.451 -497.184 742.477C-502.451 742.087 -507.785 741.427 -513.229 740.853C-518.642 740.135 -524.164 739.485 -529.723 738.584C-545.854 736.423 -563.565 733.25 -580.85 729.221C-598.16 725.262 -615.047 720.508 -629.784 715.867C-644.521 711.21 -657.099 706.657 -665.962 703.298C-674.818 699.934 -680.006 697.798 -679.943 698.094C-679.691 699.135 -680.152 700.326 -680.983 700.718C-682.795 701.564 -683.717 708.527 -682.082 709.261C-681.483 709.525 -680.471 711.424 -679.828 713.444C-679.167 715.48 -677.989 717.115 -677.221 717.064C-676.464 717.024 -675.964 717.959 -676.122 719.165C-676.177 719.576 -676.098 720.178 -675.964 720.834C-672.501 722.31 -669.275 723.648 -668.361 724.014C-667.227 724.472 -664.686 725.495 -662.697 726.297C-659.782 727.479 -652.585 730.257 -645.592 732.819C-645.017 733.021 -641.956 734.091 -638.777 735.203C-635.583 736.282 -632.687 737.26 -632.325 737.382C-631.966 737.509 -631.257 737.759 -630.757 737.936L-621.354 740.979C-619.01 741.7 -616.249 742.548 -613.688 743.336C-611.116 744.091 -608.744 744.787 -607.2 745.242C-604.116 746.171 -597.202 748.092 -591.841 749.513C-585.503 751.216 -574.02 754.112 -561.847 756.732C-558.795 757.364 -555.71 758.002 -552.665 758.633C-549.596 759.21 -546.571 759.78 -543.66 760.327C-540.753 760.896 -537.92 761.329 -535.293 761.777C-533.839 762.018 -532.413 762.253 -531.011 762.484C-529.38 762.769 -527.761 762.979 -526.189 763.212C-523.034 763.661 -520.024 764.088 -517.188 764.492C-507.324 765.764 -494.167 767.171 -480.825 767.992C-467.475 768.778 -453.963 768.904 -443.61 768.716C-440.282 768.64 -436.106 768.453 -431.202 768.272C-428.752 768.19 -426.108 767.948 -423.304 767.771C-420.499 767.546 -417.525 767.434 -414.397 767.075C-401.882 765.969 -386.89 763.896 -370.553 760.424C-368.985 760.084 -367.399 759.74 -365.797 759.393C-364.995 759.217 -364.189 759.04 -363.38 758.863C-362.578 758.656 -361.771 758.448 -360.962 758.24C-357.722 757.394 -354.417 756.533 -351.049 755.655C-347.7 754.717 -344.33 753.631 -340.882 752.586C-337.419 751.58 -333.982 750.337 -330.486 749.085C-316.505 744.113 -301.976 737.93 -287.753 730.094C-273.496 722.32 -259.425 713.114 -246.085 702.611C-242.82 699.93 -239.53 697.228 -236.215 694.506C-233.078 691.653 -229.919 688.779 -226.741 685.887C-225.119 684.463 -223.639 682.937 -222.135 681.42C-220.632 679.902 -219.126 678.38 -217.614 676.855C-216.125 675.315 -214.543 673.824 -213.126 672.229C-211.702 670.64 -210.276 669.044 -208.846 667.446C-202.988 661.127 -197.771 654.38 -192.427 647.649C-189.925 644.205 -187.415 640.749 -184.897 637.282C-184.276 636.412 -183.629 635.552 -183.027 634.673L-181.282 632.01C-180.12 630.233 -178.956 628.453 -177.792 626.671L-174.301 621.319C-173.155 619.528 -172.138 617.687 -171.05 615.872C-168.916 612.224 -166.744 608.582 -164.651 604.913C-162.696 601.201 -160.741 597.486 -158.783 593.768C-157.831 591.904 -156.78 590.066 -155.911 588.177L-153.252 582.528C-151.504 578.756 -149.664 575.009 -148.005 571.222C-146.417 567.421 -144.828 563.621 -143.242 559.829C-142.458 557.93 -141.643 556.041 -140.891 554.141L-138.77 548.416C-137.363 544.604 -135.958 540.8 -134.557 537.006C-133.217 533.202 -132.047 529.38 -130.794 525.588C-129.595 521.786 -128.264 518.02 -127.191 514.229C-126.119 510.44 -125.05 506.667 -123.988 502.91C-122.938 499.152 -121.817 495.425 -120.966 491.682C-120.055 487.948 -119.151 484.235 -118.252 480.544C-117.347 476.855 -116.437 473.188 -115.731 469.528C-114.975 465.873 -114.224 462.243 -113.48 458.641C-112.754 455.037 -111.939 451.47 -111.379 447.912C-110.163 440.807 -108.968 433.82 -107.796 426.973C-106.838 420.115 -105.899 413.396 -104.981 406.835C-104.549 403.642 -104.122 400.486 -103.7 397.372C-103.286 394.314 -102.926 391.283 -102.448 388.325C-101.997 385.36 -101.552 382.438 -101.113 379.559C-100.618 376.695 -100.131 373.875 -99.652 371.102C-97.6296 360.037 -95.4861 349.775 -93.1124 340.536C-88.427 322.034 -83.1744 307.544 -79.0255 297.814C-77.9458 295.402 -76.9858 293.258 -76.1539 291.401C-75.3132 289.548 -74.5068 288.037 -73.9053 286.78C-73.2892 285.537 -72.8185 284.585 -72.5029 283.948C-72.163 283.324 -71.988 283.006 -71.988 283.006C-68.1362 275.919 -62.9818 267.557 -55.5787 258.732C-48.161 249.968 -38.3955 240.682 -24.6843 233.828C-7.44159 225.067 13.2717 222.228 34.7359 223.874C56.2188 225.443 78.1125 230.826 99.5638 237.846C121.061 244.893 142.269 253.606 163.355 263.119C184.447 272.653 205.435 283.023 226.589 293.861C238.848 300.132 257.995 310.16 278.971 321.359C299.992 332.582 322.882 344.803 342.576 355.317C402.634 387.215 444.694 408.008 486.864 426.422C507.982 435.589 529.136 444.183 552.98 452.641C564.912 456.851 577.522 461.017 591.187 465.055C604.86 469.077 619.577 473.019 635.791 476.485C648.5 479.23 668.881 483.144 691.843 485.357C703.318 486.451 715.412 487.13 727.383 487.215C739.351 487.312 751.188 486.806 762.116 485.836C791.412 483.157 821.154 476.42 847.941 465.893C854.393 463.307 860.794 460.74 867.129 458.202C873.262 455.624 879.561 453.561 885.702 451.398C898.024 447.165 910.244 443.699 922.007 440.811C945.556 435.053 967.356 431.997 985.185 430.386C987.414 430.193 989.581 430.006 991.684 429.824C993.788 429.647 995.821 429.44 997.794 429.382C1001.74 429.194 1005.41 429.02 1008.77 428.86C1010.45 428.79 1012.05 428.675 1013.58 428.653C1015.11 428.636 1016.56 428.621 1017.92 428.606C1020.65 428.572 1023.05 428.541 1025.1 428.516C1026.45 428.502 1028 428.487 1029.7 428.47C1031.4 428.485 1033.26 428.559 1035.23 428.606C1039.18 428.729 1043.6 428.8 1048.22 428.993C1052.84 429.285 1057.66 429.591 1062.39 429.891C1067.13 430.216 1071.76 430.776 1076.05 431.166C1078.19 431.391 1080.29 431.55 1082.31 431.812C1084.32 432.08 1086.26 432.338 1088.11 432.583C1091.81 433.073 1095.15 433.516 1097.95 433.887C1103.54 434.805 1107.01 435.376 1107.06 435.385C1107.22 435.411 1108.39 435.607 1110.47 435.954C1112.54 436.296 1115.52 436.769 1119.25 437.554C1122.98 438.312 1127.5 439.174 1132.67 440.257C1137.8 441.466 1143.63 442.741 1149.94 444.295C1153.09 445.118 1156.37 445.976 1159.78 446.867C1161.48 447.314 1163.21 447.767 1164.97 448.229C1166.71 448.737 1168.49 449.254 1170.28 449.779C1173.88 450.83 1177.59 451.911 1181.38 453.02C1185.14 454.226 1188.99 455.462 1192.92 456.722C1208.57 461.907 1225.31 467.901 1241.97 474.87C1258.65 481.783 1275.38 489.406 1291.32 497.261C1307.23 505.167 1322.33 513.319 1335.97 521.014C1363.18 536.522 1384.4 550.345 1394.61 557.113C1398.37 559.631 1402.74 562.488 1407.3 565.66C1411.87 568.802 1416.74 572.134 1421.51 575.551C1423.9 577.25 1426.29 578.946 1428.65 580.616C1430.98 582.312 1433.26 583.98 1435.48 585.594C1439.94 588.803 1444.02 591.876 1447.54 594.51C1455.69 600.575 1465.63 608.26 1476.27 616.706C1486.91 625.172 1498.17 634.475 1509.03 643.724C1519.9 652.965 1530.32 662.197 1539.36 670.419C1543.96 674.632 1547.93 678.272 1550.77 680.871C1554.36 684.245 1559.03 688.603 1561.08 690.597C1563.16 692.578 1567.44 696.681 1570.55 699.74C1573.67 702.799 1576.49 705.57 1576.83 705.907C1577.18 706.235 1577.67 706.699 1577.91 706.934C1578.15 707.176 1580.08 709.101 1582.2 711.224L1586.72 715.797C1591.42 720.492 1596.22 725.411 1598.16 727.424C1599.48 728.795 1601.17 730.548 1601.92 731.332C1602.53 731.967 1604.65 734.208 1606.95 736.62C1607.7 736.568 1608.38 736.488 1608.83 736.345C1610.14 735.928 1611.27 736.117 1611.36 736.738C1611.45 737.371 1613.46 737.943 1615.85 738.041C1618.22 738.129 1620.49 738.57 1620.89 739.012C1621.94 740.169 1629.66 738.178 1630.37 736.536C1630.7 735.768 1631.97 735.176 1633.21 735.232C1633.48 735.247 1631.57 732.705 1627.98 728.386C1624.38 724.064 1619.09 717.951 1612.56 710.729C1599.52 696.274 1581.45 677.431 1562.73 659.201C1538.88 636.758 1514.04 615.179 1489.94 595.651C1465.87 576.097 1442.45 558.689 1421.85 544.191C1401.23 529.704 1383.39 518.183 1370.64 510.191C1364.32 506.125 1359.15 503.073 1355.66 500.827C1352.17 498.594 1350.21 497.321 1350.07 497.086Z" fill="#F48120"/>
</g>
</svg>
